M48
;DRILL file {kicad 0.201411191847+5291~19~ubuntu14.04.1-product} date Do 20 Nov 2014 18:54:37 CET
;FORMAT={-:-/ absolute / metric / decimal}
FMAT,2
METRIC,TZ
T1C0.899
T2C1.000
T3C1.016
T4C1.143
T5C3.000
%
G90
G05
M71
T1
X36.35Y-28.955
X36.35Y-31.495
X36.35Y-34.035
X36.35Y-36.575
X36.35Y-45.255
X36.35Y-47.795
X36.35Y-50.335
X36.35Y-52.875
X38.89Y-30.225
X38.89Y-32.765
X38.89Y-35.305
X38.89Y-37.845
X38.89Y-46.525
X38.89Y-49.065
X38.89Y-51.605
X38.89Y-54.145
T2
X28.09Y-70.17
X28.09Y-72.71
X28.09Y-75.25
X28.09Y-77.79
X28.09Y-80.33
X28.09Y-82.87
X28.09Y-85.41
X28.09Y-87.95
X28.09Y-90.49
X28.09Y-93.03
X29.56Y-61.75
X29.56Y-64.29
X34.06Y-61.75
X34.06Y-64.29
X35.71Y-70.17
X35.71Y-72.71
X35.71Y-75.25
X35.71Y-77.79
X35.71Y-80.33
X35.71Y-82.87
X35.71Y-85.41
X35.71Y-87.95
X35.71Y-90.49
X35.71Y-93.03
T3
X55.99Y-29.13
X55.99Y-32.88
X57.28Y-79.62
X58.47Y-87.16
X58.47Y-89.7
X58.53Y-29.13
X58.53Y-32.88
X59.36Y-63.47
X59.36Y-66.01
X59.36Y-68.55
X61.07Y-29.13
X61.07Y-32.88
X63.67Y-80.6
X69.28Y-35.02
X69.28Y-37.56
X69.28Y-40.1
X69.28Y-42.64
X69.28Y-45.18
X69.28Y-47.72
X69.28Y-50.26
X69.28Y-52.8
X69.28Y-55.34
X69.28Y-57.88
X69.28Y-60.42
X69.28Y-62.96
X69.28Y-65.5
X69.28Y-68.04
X69.28Y-70.58
X69.28Y-73.12
X69.28Y-75.66
X69.28Y-78.2
X69.28Y-80.74
X69.28Y-83.28
X69.28Y-85.82
X69.28Y-88.36
X119.31Y-37.4
X119.31Y-39.94
X119.31Y-42.48
X119.31Y-45.02
X119.31Y-47.56
X119.31Y-50.1
X119.31Y-52.64
X119.31Y-55.18
X119.31Y-57.72
X119.31Y-60.26
X119.31Y-62.8
X119.31Y-65.34
X119.31Y-67.88
X119.31Y-70.42
X119.31Y-72.96
X119.31Y-75.5
X119.31Y-78.04
X119.31Y-80.58
X119.31Y-83.12
X119.31Y-85.66
X119.31Y-88.2
X119.31Y-90.74
T4
X48.13Y-90.03
X50.67Y-90.03
X53.21Y-90.03
T5
X40.5Y-88.1
X82.5Y-32.6
T0
M30
