G04 #@! TF.FileFunction,Legend,Bot*
%FSLAX46Y46*%
G04 Gerber Fmt 4.6, Leading zero omitted, Abs format (unit mm)*
G04 Created by KiCad (PCBNEW 0.201501052116+5352~20~ubuntu14.04.1-product) date Di 06 Jan 2015 18:05:51 CET*
%MOMM*%
G01*
G04 APERTURE LIST*
%ADD10C,0.150000*%
%ADD11C,0.200000*%
%ADD12C,0.099060*%
%ADD13C,0.127000*%
%ADD14C,0.304800*%
%ADD15C,0.203200*%
%ADD16C,0.381000*%
%ADD17C,0.109220*%
%ADD18C,0.119380*%
%ADD19C,0.152400*%
G04 APERTURE END LIST*
D10*
D11*
X124460000Y-24130000D02*
X25400000Y-24130000D01*
X124460000Y-96520000D02*
X124460000Y-24130000D01*
X25400000Y-96520000D02*
X124460000Y-96520000D01*
X25400000Y-24130000D02*
X25400000Y-96520000D01*
D12*
X55599000Y-55999000D02*
G75*
G03X55599000Y-55999000I-127000J0D01*
G01*
X55472000Y-57142000D02*
X55472000Y-56126000D01*
X55472000Y-56126000D02*
X53948000Y-56126000D01*
X53948000Y-56126000D02*
X53948000Y-57142000D01*
X53948000Y-58158000D02*
X53948000Y-59174000D01*
X53948000Y-59174000D02*
X55472000Y-59174000D01*
X55472000Y-59174000D02*
X55472000Y-58158000D01*
X55599000Y-50619000D02*
G75*
G03X55599000Y-50619000I-127000J0D01*
G01*
X55472000Y-51762000D02*
X55472000Y-50746000D01*
X55472000Y-50746000D02*
X53948000Y-50746000D01*
X53948000Y-50746000D02*
X53948000Y-51762000D01*
X53948000Y-52778000D02*
X53948000Y-53794000D01*
X53948000Y-53794000D02*
X55472000Y-53794000D01*
X55472000Y-53794000D02*
X55472000Y-52778000D01*
D13*
X60860000Y-55499000D02*
X60860000Y-56261000D01*
X61241000Y-55880000D02*
X60479000Y-55880000D01*
X58574000Y-55626000D02*
X58574000Y-59436000D01*
X62384000Y-54864000D02*
X59336000Y-54864000D01*
X58574000Y-55626000D02*
X59336000Y-54864000D01*
X63146000Y-55626000D02*
X63146000Y-59436000D01*
X63146000Y-55626000D02*
X62384000Y-54864000D01*
X60733000Y-59182000D02*
X60987000Y-59182000D01*
X61495000Y-59055000D02*
X60225000Y-59055000D01*
X59971000Y-58928000D02*
X61749000Y-58928000D01*
X59717000Y-58801000D02*
X62003000Y-58801000D01*
X62130000Y-58674000D02*
X59590000Y-58674000D01*
X59463000Y-58547000D02*
X62257000Y-58547000D01*
X62384000Y-58420000D02*
X59336000Y-58420000D01*
X62511000Y-58293000D02*
X59209000Y-58293000D01*
X62892000Y-57150000D02*
G75*
G03X62892000Y-57150000I-2032000J0D01*
G01*
X63146000Y-59436000D02*
X58574000Y-59436000D01*
X55010000Y-92887000D02*
X55010000Y-95173000D01*
X55010000Y-95173000D02*
X53359000Y-95173000D01*
X51581000Y-92887000D02*
X49930000Y-92887000D01*
X49930000Y-92887000D02*
X49930000Y-95173000D01*
X49930000Y-95173000D02*
X51581000Y-95173000D01*
X53359000Y-92887000D02*
X55010000Y-92887000D01*
D12*
X56465000Y-75551000D02*
G75*
G03X56465000Y-75551000I-127000J0D01*
G01*
X56338000Y-74408000D02*
X56338000Y-75424000D01*
X56338000Y-75424000D02*
X57862000Y-75424000D01*
X57862000Y-75424000D02*
X57862000Y-74408000D01*
X57862000Y-73392000D02*
X57862000Y-72376000D01*
X57862000Y-72376000D02*
X56338000Y-72376000D01*
X56338000Y-72376000D02*
X56338000Y-73392000D01*
D13*
X52000000Y-84147000D02*
X52000000Y-86433000D01*
X52000000Y-86433000D02*
X50349000Y-86433000D01*
X48571000Y-84147000D02*
X46920000Y-84147000D01*
X46920000Y-84147000D02*
X46920000Y-86433000D01*
X46920000Y-86433000D02*
X48571000Y-86433000D01*
X50349000Y-84147000D02*
X52000000Y-84147000D01*
D14*
X43016200Y-79883800D02*
X53023800Y-79883800D01*
X53023800Y-79883800D02*
X53023800Y-69876200D01*
X43498800Y-69876200D02*
X53023800Y-69876200D01*
X43016200Y-70358800D02*
X43016200Y-79883800D01*
X43498800Y-69876200D02*
X43016200Y-70358800D01*
D15*
X44845000Y-71070000D02*
G75*
G03X44845000Y-71070000I-635000J0D01*
G01*
D10*
X91595000Y-77545000D02*
X91595000Y-77220000D01*
X96245000Y-77545000D02*
X96245000Y-77220000D01*
X96245000Y-67595000D02*
X96245000Y-67920000D01*
X91595000Y-67595000D02*
X91595000Y-67920000D01*
X91595000Y-77545000D02*
X96245000Y-77545000D01*
X91595000Y-67595000D02*
X96245000Y-67595000D01*
X91595000Y-77220000D02*
X90520000Y-77220000D01*
X91915000Y-55715000D02*
X91915000Y-55390000D01*
X96565000Y-55715000D02*
X96565000Y-55390000D01*
X96565000Y-45765000D02*
X96565000Y-46090000D01*
X91915000Y-45765000D02*
X91915000Y-46090000D01*
X91915000Y-55715000D02*
X96565000Y-55715000D01*
X91915000Y-45765000D02*
X96565000Y-45765000D01*
X91915000Y-55390000D02*
X90840000Y-55390000D01*
X38690000Y-61075000D02*
X39890000Y-61075000D01*
X39890000Y-59325000D02*
X38690000Y-59325000D01*
X38720000Y-63845000D02*
X39920000Y-63845000D01*
X39920000Y-62095000D02*
X38720000Y-62095000D01*
X61355000Y-74010000D02*
X61355000Y-72810000D01*
X59605000Y-72810000D02*
X59605000Y-74010000D01*
X95170000Y-62745000D02*
X93970000Y-62745000D01*
X93970000Y-64495000D02*
X95170000Y-64495000D01*
X95120000Y-58495000D02*
X93920000Y-58495000D01*
X93920000Y-60245000D02*
X95120000Y-60245000D01*
X83910000Y-87885000D02*
X85110000Y-87885000D01*
X85110000Y-86135000D02*
X83910000Y-86135000D01*
X83890000Y-84905000D02*
X85090000Y-84905000D01*
X85090000Y-83155000D02*
X83890000Y-83155000D01*
X83910000Y-80835000D02*
X85110000Y-80835000D01*
X85110000Y-79085000D02*
X83910000Y-79085000D01*
X83900000Y-77875000D02*
X85100000Y-77875000D01*
X85100000Y-76125000D02*
X83900000Y-76125000D01*
X83860000Y-74425000D02*
X85060000Y-74425000D01*
X85060000Y-72675000D02*
X83860000Y-72675000D01*
X83900000Y-71375000D02*
X85100000Y-71375000D01*
X85100000Y-69625000D02*
X83900000Y-69625000D01*
X83930000Y-68275000D02*
X85130000Y-68275000D01*
X85130000Y-66525000D02*
X83930000Y-66525000D01*
X83890000Y-65685000D02*
X85090000Y-65685000D01*
X85090000Y-63935000D02*
X83890000Y-63935000D01*
X104200000Y-63425000D02*
X103000000Y-63425000D01*
X103000000Y-65175000D02*
X104200000Y-65175000D01*
X104700000Y-66425000D02*
X103500000Y-66425000D01*
X103500000Y-68175000D02*
X104700000Y-68175000D01*
X104670000Y-70015000D02*
X103470000Y-70015000D01*
X103470000Y-71765000D02*
X104670000Y-71765000D01*
X104700000Y-73125000D02*
X103500000Y-73125000D01*
X103500000Y-74875000D02*
X104700000Y-74875000D01*
X104670000Y-76465000D02*
X103470000Y-76465000D01*
X103470000Y-78215000D02*
X104670000Y-78215000D01*
X104200000Y-79525000D02*
X103000000Y-79525000D01*
X103000000Y-81275000D02*
X104200000Y-81275000D01*
X104200000Y-83525000D02*
X103000000Y-83525000D01*
X103000000Y-85275000D02*
X104200000Y-85275000D01*
X104200000Y-86725000D02*
X103000000Y-86725000D01*
X103000000Y-88475000D02*
X104200000Y-88475000D01*
X83890000Y-60005000D02*
X85090000Y-60005000D01*
X85090000Y-58255000D02*
X83890000Y-58255000D01*
X83880000Y-56955000D02*
X85080000Y-56955000D01*
X85080000Y-55205000D02*
X83880000Y-55205000D01*
X84000000Y-54025000D02*
X85200000Y-54025000D01*
X85200000Y-52275000D02*
X84000000Y-52275000D01*
X83900000Y-51095000D02*
X85100000Y-51095000D01*
X85100000Y-49345000D02*
X83900000Y-49345000D01*
X83960000Y-47035000D02*
X85160000Y-47035000D01*
X85160000Y-45285000D02*
X83960000Y-45285000D01*
X83940000Y-44025000D02*
X85140000Y-44025000D01*
X85140000Y-42275000D02*
X83940000Y-42275000D01*
X83920000Y-41295000D02*
X85120000Y-41295000D01*
X85120000Y-39545000D02*
X83920000Y-39545000D01*
X83870000Y-38395000D02*
X85070000Y-38395000D01*
X85070000Y-36645000D02*
X83870000Y-36645000D01*
X105000000Y-35025000D02*
X103800000Y-35025000D01*
X103800000Y-36775000D02*
X105000000Y-36775000D01*
X105000000Y-38225000D02*
X103800000Y-38225000D01*
X103800000Y-39975000D02*
X105000000Y-39975000D01*
X104970000Y-41645000D02*
X103770000Y-41645000D01*
X103770000Y-43395000D02*
X104970000Y-43395000D01*
X105000000Y-44725000D02*
X103800000Y-44725000D01*
X103800000Y-46475000D02*
X105000000Y-46475000D01*
X104970000Y-47995000D02*
X103770000Y-47995000D01*
X103770000Y-49745000D02*
X104970000Y-49745000D01*
X105000000Y-50925000D02*
X103800000Y-50925000D01*
X103800000Y-52675000D02*
X105000000Y-52675000D01*
X104970000Y-54345000D02*
X103770000Y-54345000D01*
X103770000Y-56095000D02*
X104970000Y-56095000D01*
X105000000Y-57625000D02*
X103800000Y-57625000D01*
X103800000Y-59375000D02*
X105000000Y-59375000D01*
D13*
X61087000Y-41148000D02*
X61087000Y-41275000D01*
X61087000Y-41275000D02*
X55753000Y-41275000D01*
X55753000Y-37465000D02*
X61087000Y-37465000D01*
X61087000Y-37465000D02*
X61087000Y-41148000D01*
X61087000Y-38862000D02*
X60579000Y-38862000D01*
X60579000Y-38862000D02*
X60579000Y-39878000D01*
X60579000Y-39878000D02*
X61087000Y-39878000D01*
X55753000Y-37465000D02*
X55753000Y-41275000D01*
D10*
X78935000Y-82255000D02*
X78935000Y-82400000D01*
X74785000Y-82255000D02*
X74785000Y-82400000D01*
X74785000Y-87405000D02*
X74785000Y-87260000D01*
X78935000Y-87405000D02*
X78935000Y-87260000D01*
X78935000Y-82255000D02*
X74785000Y-82255000D01*
X78935000Y-87405000D02*
X74785000Y-87405000D01*
X78935000Y-82400000D02*
X80335000Y-82400000D01*
X78925000Y-75775000D02*
X78925000Y-75920000D01*
X74775000Y-75775000D02*
X74775000Y-75920000D01*
X74775000Y-80925000D02*
X74775000Y-80780000D01*
X78925000Y-80925000D02*
X78925000Y-80780000D01*
X78925000Y-75775000D02*
X74775000Y-75775000D01*
X78925000Y-80925000D02*
X74775000Y-80925000D01*
X78925000Y-75920000D02*
X80325000Y-75920000D01*
X78925000Y-69425000D02*
X78925000Y-69570000D01*
X74775000Y-69425000D02*
X74775000Y-69570000D01*
X74775000Y-74575000D02*
X74775000Y-74430000D01*
X78925000Y-74575000D02*
X78925000Y-74430000D01*
X78925000Y-69425000D02*
X74775000Y-69425000D01*
X78925000Y-74575000D02*
X74775000Y-74575000D01*
X78925000Y-69570000D02*
X80325000Y-69570000D01*
X78925000Y-63075000D02*
X78925000Y-63220000D01*
X74775000Y-63075000D02*
X74775000Y-63220000D01*
X74775000Y-68225000D02*
X74775000Y-68080000D01*
X78925000Y-68225000D02*
X78925000Y-68080000D01*
X78925000Y-63075000D02*
X74775000Y-63075000D01*
X78925000Y-68225000D02*
X74775000Y-68225000D01*
X78925000Y-63220000D02*
X80325000Y-63220000D01*
X109765000Y-68385000D02*
X109765000Y-68240000D01*
X113915000Y-68385000D02*
X113915000Y-68240000D01*
X113915000Y-63235000D02*
X113915000Y-63380000D01*
X109765000Y-63235000D02*
X109765000Y-63380000D01*
X109765000Y-68385000D02*
X113915000Y-68385000D01*
X109765000Y-63235000D02*
X113915000Y-63235000D01*
X109765000Y-68240000D02*
X108365000Y-68240000D01*
X109765000Y-74735000D02*
X109765000Y-74590000D01*
X113915000Y-74735000D02*
X113915000Y-74590000D01*
X113915000Y-69585000D02*
X113915000Y-69730000D01*
X109765000Y-69585000D02*
X109765000Y-69730000D01*
X109765000Y-74735000D02*
X113915000Y-74735000D01*
X109765000Y-69585000D02*
X113915000Y-69585000D01*
X109765000Y-74590000D02*
X108365000Y-74590000D01*
X109765000Y-81085000D02*
X109765000Y-80940000D01*
X113915000Y-81085000D02*
X113915000Y-80940000D01*
X113915000Y-75935000D02*
X113915000Y-76080000D01*
X109765000Y-75935000D02*
X109765000Y-76080000D01*
X109765000Y-81085000D02*
X113915000Y-81085000D01*
X109765000Y-75935000D02*
X113915000Y-75935000D01*
X109765000Y-80940000D02*
X108365000Y-80940000D01*
X109765000Y-87435000D02*
X109765000Y-87290000D01*
X113915000Y-87435000D02*
X113915000Y-87290000D01*
X113915000Y-82285000D02*
X113915000Y-82430000D01*
X109765000Y-82285000D02*
X109765000Y-82430000D01*
X109765000Y-87435000D02*
X113915000Y-87435000D01*
X109765000Y-82285000D02*
X113915000Y-82285000D01*
X109765000Y-87290000D02*
X108365000Y-87290000D01*
X78925000Y-55455000D02*
X78925000Y-55600000D01*
X74775000Y-55455000D02*
X74775000Y-55600000D01*
X74775000Y-60605000D02*
X74775000Y-60460000D01*
X78925000Y-60605000D02*
X78925000Y-60460000D01*
X78925000Y-55455000D02*
X74775000Y-55455000D01*
X78925000Y-60605000D02*
X74775000Y-60605000D01*
X78925000Y-55600000D02*
X80325000Y-55600000D01*
X78925000Y-49105000D02*
X78925000Y-49250000D01*
X74775000Y-49105000D02*
X74775000Y-49250000D01*
X74775000Y-54255000D02*
X74775000Y-54110000D01*
X78925000Y-54255000D02*
X78925000Y-54110000D01*
X78925000Y-49105000D02*
X74775000Y-49105000D01*
X78925000Y-54255000D02*
X74775000Y-54255000D01*
X78925000Y-49250000D02*
X80325000Y-49250000D01*
X78925000Y-42755000D02*
X78925000Y-42900000D01*
X74775000Y-42755000D02*
X74775000Y-42900000D01*
X74775000Y-47905000D02*
X74775000Y-47760000D01*
X78925000Y-47905000D02*
X78925000Y-47760000D01*
X78925000Y-42755000D02*
X74775000Y-42755000D01*
X78925000Y-47905000D02*
X74775000Y-47905000D01*
X78925000Y-42900000D02*
X80325000Y-42900000D01*
X78925000Y-36405000D02*
X78925000Y-36550000D01*
X74775000Y-36405000D02*
X74775000Y-36550000D01*
X74775000Y-41555000D02*
X74775000Y-41410000D01*
X78925000Y-41555000D02*
X78925000Y-41410000D01*
X78925000Y-36405000D02*
X74775000Y-36405000D01*
X78925000Y-41555000D02*
X74775000Y-41555000D01*
X78925000Y-36550000D02*
X80325000Y-36550000D01*
X109765000Y-40015000D02*
X109765000Y-39870000D01*
X113915000Y-40015000D02*
X113915000Y-39870000D01*
X113915000Y-34865000D02*
X113915000Y-35010000D01*
X109765000Y-34865000D02*
X109765000Y-35010000D01*
X109765000Y-40015000D02*
X113915000Y-40015000D01*
X109765000Y-34865000D02*
X113915000Y-34865000D01*
X109765000Y-39870000D02*
X108365000Y-39870000D01*
X109765000Y-46365000D02*
X109765000Y-46220000D01*
X113915000Y-46365000D02*
X113915000Y-46220000D01*
X113915000Y-41215000D02*
X113915000Y-41360000D01*
X109765000Y-41215000D02*
X109765000Y-41360000D01*
X109765000Y-46365000D02*
X113915000Y-46365000D01*
X109765000Y-41215000D02*
X113915000Y-41215000D01*
X109765000Y-46220000D02*
X108365000Y-46220000D01*
X109765000Y-52715000D02*
X109765000Y-52570000D01*
X113915000Y-52715000D02*
X113915000Y-52570000D01*
X113915000Y-47565000D02*
X113915000Y-47710000D01*
X109765000Y-47565000D02*
X109765000Y-47710000D01*
X109765000Y-52715000D02*
X113915000Y-52715000D01*
X109765000Y-47565000D02*
X113915000Y-47565000D01*
X109765000Y-52570000D02*
X108365000Y-52570000D01*
X109765000Y-59065000D02*
X109765000Y-58920000D01*
X113915000Y-59065000D02*
X113915000Y-58920000D01*
X113915000Y-53915000D02*
X113915000Y-54060000D01*
X109765000Y-53915000D02*
X109765000Y-54060000D01*
X109765000Y-59065000D02*
X113915000Y-59065000D01*
X109765000Y-53915000D02*
X113915000Y-53915000D01*
X109765000Y-58920000D02*
X108365000Y-58920000D01*
D16*
X47740640Y-62669620D02*
X47740640Y-50970380D01*
X52739360Y-50970380D02*
X52739360Y-62669620D01*
X47740640Y-50970380D02*
X48589000Y-50970380D01*
X52739360Y-50970380D02*
X51891000Y-50970380D01*
X47740640Y-62669620D02*
X48589000Y-62669620D01*
X52739360Y-62669620D02*
X51891000Y-62669620D01*
D17*
X54571207Y-57566604D02*
X54595035Y-57542776D01*
X54618862Y-57471293D01*
X54618862Y-57423638D01*
X54595035Y-57352155D01*
X54547380Y-57304500D01*
X54499724Y-57280672D01*
X54404414Y-57256844D01*
X54332931Y-57256844D01*
X54237620Y-57280672D01*
X54189965Y-57304500D01*
X54142310Y-57352155D01*
X54118482Y-57423638D01*
X54118482Y-57471293D01*
X54142310Y-57542776D01*
X54166138Y-57566604D01*
X54618862Y-58043156D02*
X54618862Y-57757224D01*
X54618862Y-57900190D02*
X54118482Y-57900190D01*
X54189965Y-57852535D01*
X54237620Y-57804880D01*
X54261448Y-57757224D01*
X54864638Y-57042396D02*
X54840810Y-57066224D01*
X54816982Y-57113879D01*
X54816982Y-57233017D01*
X54840810Y-57280673D01*
X54864638Y-57304500D01*
X54912293Y-57328328D01*
X54959948Y-57328328D01*
X55031431Y-57304500D01*
X55317362Y-57018569D01*
X55317362Y-57328328D01*
X54864638Y-57518948D02*
X54840810Y-57542776D01*
X54816982Y-57590431D01*
X54816982Y-57709569D01*
X54840810Y-57757225D01*
X54864638Y-57781052D01*
X54912293Y-57804880D01*
X54959948Y-57804880D01*
X55031431Y-57781052D01*
X55317362Y-57495121D01*
X55317362Y-57804880D01*
X54983776Y-58019328D02*
X55484156Y-58019328D01*
X55007603Y-58019328D02*
X54983776Y-58066983D01*
X54983776Y-58162294D01*
X55007603Y-58209949D01*
X55031431Y-58233777D01*
X55079086Y-58257604D01*
X55222052Y-58257604D01*
X55269707Y-58233777D01*
X55293535Y-58209949D01*
X55317362Y-58162294D01*
X55317362Y-58066983D01*
X55293535Y-58019328D01*
X54571207Y-52186604D02*
X54595035Y-52162776D01*
X54618862Y-52091293D01*
X54618862Y-52043638D01*
X54595035Y-51972155D01*
X54547380Y-51924500D01*
X54499724Y-51900672D01*
X54404414Y-51876844D01*
X54332931Y-51876844D01*
X54237620Y-51900672D01*
X54189965Y-51924500D01*
X54142310Y-51972155D01*
X54118482Y-52043638D01*
X54118482Y-52091293D01*
X54142310Y-52162776D01*
X54166138Y-52186604D01*
X54166138Y-52377224D02*
X54142310Y-52401052D01*
X54118482Y-52448707D01*
X54118482Y-52567845D01*
X54142310Y-52615501D01*
X54166138Y-52639328D01*
X54213793Y-52663156D01*
X54261448Y-52663156D01*
X54332931Y-52639328D01*
X54618862Y-52353397D01*
X54618862Y-52663156D01*
X54864638Y-51662396D02*
X54840810Y-51686224D01*
X54816982Y-51733879D01*
X54816982Y-51853017D01*
X54840810Y-51900673D01*
X54864638Y-51924500D01*
X54912293Y-51948328D01*
X54959948Y-51948328D01*
X55031431Y-51924500D01*
X55317362Y-51638569D01*
X55317362Y-51948328D01*
X54864638Y-52138948D02*
X54840810Y-52162776D01*
X54816982Y-52210431D01*
X54816982Y-52329569D01*
X54840810Y-52377225D01*
X54864638Y-52401052D01*
X54912293Y-52424880D01*
X54959948Y-52424880D01*
X55031431Y-52401052D01*
X55317362Y-52115121D01*
X55317362Y-52424880D01*
X54983776Y-52639328D02*
X55484156Y-52639328D01*
X55007603Y-52639328D02*
X54983776Y-52686983D01*
X54983776Y-52782294D01*
X55007603Y-52829949D01*
X55031431Y-52853777D01*
X55079086Y-52877604D01*
X55222052Y-52877604D01*
X55269707Y-52853777D01*
X55293535Y-52829949D01*
X55317362Y-52782294D01*
X55317362Y-52686983D01*
X55293535Y-52639328D01*
D18*
X63832707Y-57066604D02*
X63856535Y-57042776D01*
X63880362Y-56971293D01*
X63880362Y-56923638D01*
X63856535Y-56852155D01*
X63808880Y-56804500D01*
X63761224Y-56780672D01*
X63665914Y-56756844D01*
X63594431Y-56756844D01*
X63499120Y-56780672D01*
X63451465Y-56804500D01*
X63403810Y-56852155D01*
X63379982Y-56923638D01*
X63379982Y-56971293D01*
X63403810Y-57042776D01*
X63427638Y-57066604D01*
X63379982Y-57233397D02*
X63379982Y-57543156D01*
X63570603Y-57376363D01*
X63570603Y-57447845D01*
X63594431Y-57495501D01*
X63618259Y-57519328D01*
X63665914Y-57543156D01*
X63785052Y-57543156D01*
X63832707Y-57519328D01*
X63856535Y-57495501D01*
X63880362Y-57447845D01*
X63880362Y-57304880D01*
X63856535Y-57257224D01*
X63832707Y-57233397D01*
D13*
X52597000Y-94302143D02*
X52633286Y-94338429D01*
X52742143Y-94374714D01*
X52814714Y-94374714D01*
X52923571Y-94338429D01*
X52996143Y-94265857D01*
X53032428Y-94193286D01*
X53068714Y-94048143D01*
X53068714Y-93939286D01*
X53032428Y-93794143D01*
X52996143Y-93721571D01*
X52923571Y-93649000D01*
X52814714Y-93612714D01*
X52742143Y-93612714D01*
X52633286Y-93649000D01*
X52597000Y-93685286D01*
X51943857Y-93866714D02*
X51943857Y-94374714D01*
X52125286Y-93576429D02*
X52306714Y-94120714D01*
X51835000Y-94120714D01*
D17*
X57596207Y-73816604D02*
X57620035Y-73792776D01*
X57643862Y-73721293D01*
X57643862Y-73673638D01*
X57620035Y-73602155D01*
X57572380Y-73554500D01*
X57524724Y-73530672D01*
X57429414Y-73506844D01*
X57357931Y-73506844D01*
X57262620Y-73530672D01*
X57214965Y-73554500D01*
X57167310Y-73602155D01*
X57143482Y-73673638D01*
X57143482Y-73721293D01*
X57167310Y-73792776D01*
X57191138Y-73816604D01*
X57143482Y-74269328D02*
X57143482Y-74031052D01*
X57381759Y-74007224D01*
X57357931Y-74031052D01*
X57334103Y-74078707D01*
X57334103Y-74197845D01*
X57357931Y-74245501D01*
X57381759Y-74269328D01*
X57429414Y-74293156D01*
X57548552Y-74293156D01*
X57596207Y-74269328D01*
X57620035Y-74245501D01*
X57643862Y-74197845D01*
X57643862Y-74078707D01*
X57620035Y-74031052D01*
X57596207Y-74007224D01*
X56945362Y-73340052D02*
X56945362Y-73054120D01*
X56945362Y-73197086D02*
X56444982Y-73197086D01*
X56516465Y-73149431D01*
X56564120Y-73101776D01*
X56587948Y-73054120D01*
X56444982Y-73649811D02*
X56444982Y-73697466D01*
X56468810Y-73745121D01*
X56492638Y-73768949D01*
X56540293Y-73792776D01*
X56635603Y-73816604D01*
X56754741Y-73816604D01*
X56850052Y-73792776D01*
X56897707Y-73768949D01*
X56921535Y-73745121D01*
X56945362Y-73697466D01*
X56945362Y-73649811D01*
X56921535Y-73602155D01*
X56897707Y-73578328D01*
X56850052Y-73554500D01*
X56754741Y-73530672D01*
X56635603Y-73530672D01*
X56540293Y-73554500D01*
X56492638Y-73578328D01*
X56468810Y-73602155D01*
X56444982Y-73649811D01*
X56444982Y-74126363D02*
X56444982Y-74174018D01*
X56468810Y-74221673D01*
X56492638Y-74245501D01*
X56540293Y-74269328D01*
X56635603Y-74293156D01*
X56754741Y-74293156D01*
X56850052Y-74269328D01*
X56897707Y-74245501D01*
X56921535Y-74221673D01*
X56945362Y-74174018D01*
X56945362Y-74126363D01*
X56921535Y-74078707D01*
X56897707Y-74054880D01*
X56850052Y-74031052D01*
X56754741Y-74007224D01*
X56635603Y-74007224D01*
X56540293Y-74031052D01*
X56492638Y-74054880D01*
X56468810Y-74078707D01*
X56444982Y-74126363D01*
X56611776Y-74507604D02*
X56945362Y-74507604D01*
X56659431Y-74507604D02*
X56635603Y-74531432D01*
X56611776Y-74579087D01*
X56611776Y-74650570D01*
X56635603Y-74698225D01*
X56683259Y-74722053D01*
X56945362Y-74722053D01*
D13*
X49587000Y-85562143D02*
X49623286Y-85598429D01*
X49732143Y-85634714D01*
X49804714Y-85634714D01*
X49913571Y-85598429D01*
X49986143Y-85525857D01*
X50022428Y-85453286D01*
X50058714Y-85308143D01*
X50058714Y-85199286D01*
X50022428Y-85054143D01*
X49986143Y-84981571D01*
X49913571Y-84909000D01*
X49804714Y-84872714D01*
X49732143Y-84872714D01*
X49623286Y-84909000D01*
X49587000Y-84945286D01*
X48933857Y-84872714D02*
X49079000Y-84872714D01*
X49151571Y-84909000D01*
X49187857Y-84945286D01*
X49260428Y-85054143D01*
X49296714Y-85199286D01*
X49296714Y-85489571D01*
X49260428Y-85562143D01*
X49224143Y-85598429D01*
X49151571Y-85634714D01*
X49006428Y-85634714D01*
X48933857Y-85598429D01*
X48897571Y-85562143D01*
X48861286Y-85489571D01*
X48861286Y-85308143D01*
X48897571Y-85235571D01*
X48933857Y-85199286D01*
X49006428Y-85163000D01*
X49151571Y-85163000D01*
X49224143Y-85199286D01*
X49260428Y-85235571D01*
X49296714Y-85308143D01*
D15*
X46804429Y-73888191D02*
X45280429Y-73888191D01*
X46659286Y-74952572D02*
X46731857Y-74904191D01*
X46804429Y-74759048D01*
X46804429Y-74662286D01*
X46731857Y-74517144D01*
X46586714Y-74420382D01*
X46441571Y-74372001D01*
X46151286Y-74323620D01*
X45933571Y-74323620D01*
X45643286Y-74372001D01*
X45498143Y-74420382D01*
X45353000Y-74517144D01*
X45280429Y-74662286D01*
X45280429Y-74759048D01*
X45353000Y-74904191D01*
X45425571Y-74952572D01*
X46804429Y-75920191D02*
X46804429Y-75339620D01*
X46804429Y-75629906D02*
X45280429Y-75629906D01*
X45498143Y-75533144D01*
X45643286Y-75436382D01*
X45715857Y-75339620D01*
X50179000Y-70235429D02*
X50179000Y-70719238D01*
X50614429Y-70138667D02*
X49090429Y-70477334D01*
X50614429Y-70816000D01*
X49090429Y-71009524D02*
X49090429Y-71590095D01*
X50614429Y-71299810D02*
X49090429Y-71299810D01*
X50614429Y-71928762D02*
X49090429Y-71928762D01*
X50179000Y-72267428D01*
X49090429Y-72606095D01*
X50614429Y-72606095D01*
X49816143Y-73089905D02*
X49816143Y-73428571D01*
X50614429Y-73573714D02*
X50614429Y-73089905D01*
X49090429Y-73089905D01*
X49090429Y-73573714D01*
X49163000Y-74541333D02*
X49090429Y-74444571D01*
X49090429Y-74299428D01*
X49163000Y-74154286D01*
X49308143Y-74057524D01*
X49453286Y-74009143D01*
X49743571Y-73960762D01*
X49961286Y-73960762D01*
X50251571Y-74009143D01*
X50396714Y-74057524D01*
X50541857Y-74154286D01*
X50614429Y-74299428D01*
X50614429Y-74396190D01*
X50541857Y-74541333D01*
X50469286Y-74589714D01*
X49961286Y-74589714D01*
X49961286Y-74396190D01*
X50179000Y-74976762D02*
X50179000Y-75460571D01*
X50614429Y-74880000D02*
X49090429Y-75218667D01*
X50614429Y-75557333D01*
X49090429Y-75799238D02*
X49090429Y-76428190D01*
X49671000Y-76089524D01*
X49671000Y-76234666D01*
X49743571Y-76331428D01*
X49816143Y-76379809D01*
X49961286Y-76428190D01*
X50324143Y-76428190D01*
X50469286Y-76379809D01*
X50541857Y-76331428D01*
X50614429Y-76234666D01*
X50614429Y-75944381D01*
X50541857Y-75847619D01*
X50469286Y-75799238D01*
X49235571Y-76815238D02*
X49163000Y-76863619D01*
X49090429Y-76960381D01*
X49090429Y-77202285D01*
X49163000Y-77299047D01*
X49235571Y-77347428D01*
X49380714Y-77395809D01*
X49525857Y-77395809D01*
X49743571Y-77347428D01*
X50614429Y-76766857D01*
X50614429Y-77395809D01*
X50033857Y-77831238D02*
X50033857Y-78605333D01*
X50179000Y-79040762D02*
X50179000Y-79524571D01*
X50614429Y-78944000D02*
X49090429Y-79282667D01*
X50614429Y-79621333D01*
D10*
X94896190Y-78922381D02*
X94896190Y-77922381D01*
X93848571Y-78827143D02*
X93896190Y-78874762D01*
X94039047Y-78922381D01*
X94134285Y-78922381D01*
X94277143Y-78874762D01*
X94372381Y-78779524D01*
X94420000Y-78684286D01*
X94467619Y-78493810D01*
X94467619Y-78350952D01*
X94420000Y-78160476D01*
X94372381Y-78065238D01*
X94277143Y-77970000D01*
X94134285Y-77922381D01*
X94039047Y-77922381D01*
X93896190Y-77970000D01*
X93848571Y-78017619D01*
X93467619Y-78017619D02*
X93420000Y-77970000D01*
X93324762Y-77922381D01*
X93086666Y-77922381D01*
X92991428Y-77970000D01*
X92943809Y-78017619D01*
X92896190Y-78112857D01*
X92896190Y-78208095D01*
X92943809Y-78350952D01*
X93515238Y-78922381D01*
X92896190Y-78922381D01*
X97015238Y-67122381D02*
X97015238Y-66122381D01*
X96634285Y-66122381D01*
X96539047Y-66170000D01*
X96491428Y-66217619D01*
X96443809Y-66312857D01*
X96443809Y-66455714D01*
X96491428Y-66550952D01*
X96539047Y-66598571D01*
X96634285Y-66646190D01*
X97015238Y-66646190D01*
X95443809Y-67027143D02*
X95491428Y-67074762D01*
X95634285Y-67122381D01*
X95729523Y-67122381D01*
X95872381Y-67074762D01*
X95967619Y-66979524D01*
X96015238Y-66884286D01*
X96062857Y-66693810D01*
X96062857Y-66550952D01*
X96015238Y-66360476D01*
X95967619Y-66265238D01*
X95872381Y-66170000D01*
X95729523Y-66122381D01*
X95634285Y-66122381D01*
X95491428Y-66170000D01*
X95443809Y-66217619D01*
X95062857Y-66836667D02*
X94586666Y-66836667D01*
X95158095Y-67122381D02*
X94824762Y-66122381D01*
X94491428Y-67122381D01*
X94110476Y-67122381D02*
X93920000Y-67122381D01*
X93824761Y-67074762D01*
X93777142Y-67027143D01*
X93681904Y-66884286D01*
X93634285Y-66693810D01*
X93634285Y-66312857D01*
X93681904Y-66217619D01*
X93729523Y-66170000D01*
X93824761Y-66122381D01*
X94015238Y-66122381D01*
X94110476Y-66170000D01*
X94158095Y-66217619D01*
X94205714Y-66312857D01*
X94205714Y-66550952D01*
X94158095Y-66646190D01*
X94110476Y-66693810D01*
X94015238Y-66741429D01*
X93824761Y-66741429D01*
X93729523Y-66693810D01*
X93681904Y-66646190D01*
X93634285Y-66550952D01*
X92777142Y-66122381D02*
X92967619Y-66122381D01*
X93062857Y-66170000D01*
X93110476Y-66217619D01*
X93205714Y-66360476D01*
X93253333Y-66550952D01*
X93253333Y-66931905D01*
X93205714Y-67027143D01*
X93158095Y-67074762D01*
X93062857Y-67122381D01*
X92872380Y-67122381D01*
X92777142Y-67074762D01*
X92729523Y-67027143D01*
X92681904Y-66931905D01*
X92681904Y-66693810D01*
X92729523Y-66598571D01*
X92777142Y-66550952D01*
X92872380Y-66503333D01*
X93062857Y-66503333D01*
X93158095Y-66550952D01*
X93205714Y-66598571D01*
X93253333Y-66693810D01*
X92110476Y-66550952D02*
X92205714Y-66503333D01*
X92253333Y-66455714D01*
X92300952Y-66360476D01*
X92300952Y-66312857D01*
X92253333Y-66217619D01*
X92205714Y-66170000D01*
X92110476Y-66122381D01*
X91919999Y-66122381D01*
X91824761Y-66170000D01*
X91777142Y-66217619D01*
X91729523Y-66312857D01*
X91729523Y-66360476D01*
X91777142Y-66455714D01*
X91824761Y-66503333D01*
X91919999Y-66550952D01*
X92110476Y-66550952D01*
X92205714Y-66598571D01*
X92253333Y-66646190D01*
X92300952Y-66741429D01*
X92300952Y-66931905D01*
X92253333Y-67027143D01*
X92205714Y-67074762D01*
X92110476Y-67122381D01*
X91919999Y-67122381D01*
X91824761Y-67074762D01*
X91777142Y-67027143D01*
X91729523Y-66931905D01*
X91729523Y-66741429D01*
X91777142Y-66646190D01*
X91824761Y-66598571D01*
X91919999Y-66550952D01*
X90824761Y-66122381D02*
X91300952Y-66122381D01*
X91348571Y-66598571D01*
X91300952Y-66550952D01*
X91205714Y-66503333D01*
X90967618Y-66503333D01*
X90872380Y-66550952D01*
X90824761Y-66598571D01*
X90777142Y-66693810D01*
X90777142Y-66931905D01*
X90824761Y-67027143D01*
X90872380Y-67074762D01*
X90967618Y-67122381D01*
X91205714Y-67122381D01*
X91300952Y-67074762D01*
X91348571Y-67027143D01*
X95216190Y-57092381D02*
X95216190Y-56092381D01*
X94168571Y-56997143D02*
X94216190Y-57044762D01*
X94359047Y-57092381D01*
X94454285Y-57092381D01*
X94597143Y-57044762D01*
X94692381Y-56949524D01*
X94740000Y-56854286D01*
X94787619Y-56663810D01*
X94787619Y-56520952D01*
X94740000Y-56330476D01*
X94692381Y-56235238D01*
X94597143Y-56140000D01*
X94454285Y-56092381D01*
X94359047Y-56092381D01*
X94216190Y-56140000D01*
X94168571Y-56187619D01*
X93835238Y-56092381D02*
X93216190Y-56092381D01*
X93549524Y-56473333D01*
X93406666Y-56473333D01*
X93311428Y-56520952D01*
X93263809Y-56568571D01*
X93216190Y-56663810D01*
X93216190Y-56901905D01*
X93263809Y-56997143D01*
X93311428Y-57044762D01*
X93406666Y-57092381D01*
X93692381Y-57092381D01*
X93787619Y-57044762D01*
X93835238Y-56997143D01*
X97335238Y-45292381D02*
X97335238Y-44292381D01*
X96954285Y-44292381D01*
X96859047Y-44340000D01*
X96811428Y-44387619D01*
X96763809Y-44482857D01*
X96763809Y-44625714D01*
X96811428Y-44720952D01*
X96859047Y-44768571D01*
X96954285Y-44816190D01*
X97335238Y-44816190D01*
X95763809Y-45197143D02*
X95811428Y-45244762D01*
X95954285Y-45292381D01*
X96049523Y-45292381D01*
X96192381Y-45244762D01*
X96287619Y-45149524D01*
X96335238Y-45054286D01*
X96382857Y-44863810D01*
X96382857Y-44720952D01*
X96335238Y-44530476D01*
X96287619Y-44435238D01*
X96192381Y-44340000D01*
X96049523Y-44292381D01*
X95954285Y-44292381D01*
X95811428Y-44340000D01*
X95763809Y-44387619D01*
X95382857Y-45006667D02*
X94906666Y-45006667D01*
X95478095Y-45292381D02*
X95144762Y-44292381D01*
X94811428Y-45292381D01*
X94430476Y-45292381D02*
X94240000Y-45292381D01*
X94144761Y-45244762D01*
X94097142Y-45197143D01*
X94001904Y-45054286D01*
X93954285Y-44863810D01*
X93954285Y-44482857D01*
X94001904Y-44387619D01*
X94049523Y-44340000D01*
X94144761Y-44292381D01*
X94335238Y-44292381D01*
X94430476Y-44340000D01*
X94478095Y-44387619D01*
X94525714Y-44482857D01*
X94525714Y-44720952D01*
X94478095Y-44816190D01*
X94430476Y-44863810D01*
X94335238Y-44911429D01*
X94144761Y-44911429D01*
X94049523Y-44863810D01*
X94001904Y-44816190D01*
X93954285Y-44720952D01*
X93097142Y-44292381D02*
X93287619Y-44292381D01*
X93382857Y-44340000D01*
X93430476Y-44387619D01*
X93525714Y-44530476D01*
X93573333Y-44720952D01*
X93573333Y-45101905D01*
X93525714Y-45197143D01*
X93478095Y-45244762D01*
X93382857Y-45292381D01*
X93192380Y-45292381D01*
X93097142Y-45244762D01*
X93049523Y-45197143D01*
X93001904Y-45101905D01*
X93001904Y-44863810D01*
X93049523Y-44768571D01*
X93097142Y-44720952D01*
X93192380Y-44673333D01*
X93382857Y-44673333D01*
X93478095Y-44720952D01*
X93525714Y-44768571D01*
X93573333Y-44863810D01*
X92430476Y-44720952D02*
X92525714Y-44673333D01*
X92573333Y-44625714D01*
X92620952Y-44530476D01*
X92620952Y-44482857D01*
X92573333Y-44387619D01*
X92525714Y-44340000D01*
X92430476Y-44292381D01*
X92239999Y-44292381D01*
X92144761Y-44340000D01*
X92097142Y-44387619D01*
X92049523Y-44482857D01*
X92049523Y-44530476D01*
X92097142Y-44625714D01*
X92144761Y-44673333D01*
X92239999Y-44720952D01*
X92430476Y-44720952D01*
X92525714Y-44768571D01*
X92573333Y-44816190D01*
X92620952Y-44911429D01*
X92620952Y-45101905D01*
X92573333Y-45197143D01*
X92525714Y-45244762D01*
X92430476Y-45292381D01*
X92239999Y-45292381D01*
X92144761Y-45244762D01*
X92097142Y-45197143D01*
X92049523Y-45101905D01*
X92049523Y-44911429D01*
X92097142Y-44816190D01*
X92144761Y-44768571D01*
X92239999Y-44720952D01*
X91144761Y-44292381D02*
X91620952Y-44292381D01*
X91668571Y-44768571D01*
X91620952Y-44720952D01*
X91525714Y-44673333D01*
X91287618Y-44673333D01*
X91192380Y-44720952D01*
X91144761Y-44768571D01*
X91097142Y-44863810D01*
X91097142Y-45101905D01*
X91144761Y-45197143D01*
X91192380Y-45244762D01*
X91287618Y-45292381D01*
X91525714Y-45292381D01*
X91620952Y-45244762D01*
X91668571Y-45197143D01*
X39456666Y-58552381D02*
X39790000Y-58076190D01*
X40028095Y-58552381D02*
X40028095Y-57552381D01*
X39647142Y-57552381D01*
X39551904Y-57600000D01*
X39504285Y-57647619D01*
X39456666Y-57742857D01*
X39456666Y-57885714D01*
X39504285Y-57980952D01*
X39551904Y-58028571D01*
X39647142Y-58076190D01*
X40028095Y-58076190D01*
X38504285Y-58552381D02*
X39075714Y-58552381D01*
X38790000Y-58552381D02*
X38790000Y-57552381D01*
X38885238Y-57695238D01*
X38980476Y-57790476D01*
X39075714Y-57838095D01*
X39885238Y-62752381D02*
X40456667Y-62752381D01*
X40170953Y-62752381D02*
X40170953Y-61752381D01*
X40266191Y-61895238D01*
X40361429Y-61990476D01*
X40456667Y-62038095D01*
X39456667Y-62752381D02*
X39456667Y-61752381D01*
X39361429Y-62371429D02*
X39075714Y-62752381D01*
X39075714Y-62085714D02*
X39456667Y-62466667D01*
X38170952Y-61752381D02*
X38647143Y-61752381D01*
X38694762Y-62228571D01*
X38647143Y-62180952D01*
X38551905Y-62133333D01*
X38313809Y-62133333D01*
X38218571Y-62180952D01*
X38170952Y-62228571D01*
X38123333Y-62323810D01*
X38123333Y-62561905D01*
X38170952Y-62657143D01*
X38218571Y-62704762D01*
X38313809Y-62752381D01*
X38551905Y-62752381D01*
X38647143Y-62704762D01*
X38694762Y-62657143D01*
X39486666Y-61322381D02*
X39820000Y-60846190D01*
X40058095Y-61322381D02*
X40058095Y-60322381D01*
X39677142Y-60322381D01*
X39581904Y-60370000D01*
X39534285Y-60417619D01*
X39486666Y-60512857D01*
X39486666Y-60655714D01*
X39534285Y-60750952D01*
X39581904Y-60798571D01*
X39677142Y-60846190D01*
X40058095Y-60846190D01*
X39105714Y-60417619D02*
X39058095Y-60370000D01*
X38962857Y-60322381D01*
X38724761Y-60322381D01*
X38629523Y-60370000D01*
X38581904Y-60417619D01*
X38534285Y-60512857D01*
X38534285Y-60608095D01*
X38581904Y-60750952D01*
X39153333Y-61322381D01*
X38534285Y-61322381D01*
X39915238Y-65522381D02*
X40486667Y-65522381D01*
X40200953Y-65522381D02*
X40200953Y-64522381D01*
X40296191Y-64665238D01*
X40391429Y-64760476D01*
X40486667Y-64808095D01*
X39486667Y-65522381D02*
X39486667Y-64522381D01*
X39391429Y-65141429D02*
X39105714Y-65522381D01*
X39105714Y-64855714D02*
X39486667Y-65236667D01*
X38200952Y-64522381D02*
X38677143Y-64522381D01*
X38724762Y-64998571D01*
X38677143Y-64950952D01*
X38581905Y-64903333D01*
X38343809Y-64903333D01*
X38248571Y-64950952D01*
X38200952Y-64998571D01*
X38153333Y-65093810D01*
X38153333Y-65331905D01*
X38200952Y-65427143D01*
X38248571Y-65474762D01*
X38343809Y-65522381D01*
X38581905Y-65522381D01*
X38677143Y-65474762D01*
X38724762Y-65427143D01*
X58832381Y-73243334D02*
X58356190Y-72910000D01*
X58832381Y-72671905D02*
X57832381Y-72671905D01*
X57832381Y-73052858D01*
X57880000Y-73148096D01*
X57927619Y-73195715D01*
X58022857Y-73243334D01*
X58165714Y-73243334D01*
X58260952Y-73195715D01*
X58308571Y-73148096D01*
X58356190Y-73052858D01*
X58356190Y-72671905D01*
X57832381Y-73576667D02*
X57832381Y-74195715D01*
X58213333Y-73862381D01*
X58213333Y-74005239D01*
X58260952Y-74100477D01*
X58308571Y-74148096D01*
X58403810Y-74195715D01*
X58641905Y-74195715D01*
X58737143Y-74148096D01*
X58784762Y-74100477D01*
X58832381Y-74005239D01*
X58832381Y-73719524D01*
X58784762Y-73624286D01*
X58737143Y-73576667D01*
X63032381Y-72743334D02*
X63032381Y-72171905D01*
X63032381Y-72457619D02*
X62032381Y-72457619D01*
X62175238Y-72362381D01*
X62270476Y-72267143D01*
X62318095Y-72171905D01*
X62032381Y-73362381D02*
X62032381Y-73457620D01*
X62080000Y-73552858D01*
X62127619Y-73600477D01*
X62222857Y-73648096D01*
X62413333Y-73695715D01*
X62651429Y-73695715D01*
X62841905Y-73648096D01*
X62937143Y-73600477D01*
X62984762Y-73552858D01*
X63032381Y-73457620D01*
X63032381Y-73362381D01*
X62984762Y-73267143D01*
X62937143Y-73219524D01*
X62841905Y-73171905D01*
X62651429Y-73124286D01*
X62413333Y-73124286D01*
X62222857Y-73171905D01*
X62127619Y-73219524D01*
X62080000Y-73267143D01*
X62032381Y-73362381D01*
X62032381Y-74314762D02*
X62032381Y-74410001D01*
X62080000Y-74505239D01*
X62127619Y-74552858D01*
X62222857Y-74600477D01*
X62413333Y-74648096D01*
X62651429Y-74648096D01*
X62841905Y-74600477D01*
X62937143Y-74552858D01*
X62984762Y-74505239D01*
X63032381Y-74410001D01*
X63032381Y-74314762D01*
X62984762Y-74219524D01*
X62937143Y-74171905D01*
X62841905Y-74124286D01*
X62651429Y-74076667D01*
X62413333Y-74076667D01*
X62222857Y-74124286D01*
X62127619Y-74171905D01*
X62080000Y-74219524D01*
X62032381Y-74314762D01*
X94736666Y-66172381D02*
X95070000Y-65696190D01*
X95308095Y-66172381D02*
X95308095Y-65172381D01*
X94927142Y-65172381D01*
X94831904Y-65220000D01*
X94784285Y-65267619D01*
X94736666Y-65362857D01*
X94736666Y-65505714D01*
X94784285Y-65600952D01*
X94831904Y-65648571D01*
X94927142Y-65696190D01*
X95308095Y-65696190D01*
X93879523Y-65505714D02*
X93879523Y-66172381D01*
X94117619Y-65124762D02*
X94355714Y-65839048D01*
X93736666Y-65839048D01*
X95165238Y-61972381D02*
X95736667Y-61972381D01*
X95450953Y-61972381D02*
X95450953Y-60972381D01*
X95546191Y-61115238D01*
X95641429Y-61210476D01*
X95736667Y-61258095D01*
X94736667Y-61972381D02*
X94736667Y-60972381D01*
X94641429Y-61591429D02*
X94355714Y-61972381D01*
X94355714Y-61305714D02*
X94736667Y-61686667D01*
X93784286Y-61400952D02*
X93879524Y-61353333D01*
X93927143Y-61305714D01*
X93974762Y-61210476D01*
X93974762Y-61162857D01*
X93927143Y-61067619D01*
X93879524Y-61020000D01*
X93784286Y-60972381D01*
X93593809Y-60972381D01*
X93498571Y-61020000D01*
X93450952Y-61067619D01*
X93403333Y-61162857D01*
X93403333Y-61210476D01*
X93450952Y-61305714D01*
X93498571Y-61353333D01*
X93593809Y-61400952D01*
X93784286Y-61400952D01*
X93879524Y-61448571D01*
X93927143Y-61496190D01*
X93974762Y-61591429D01*
X93974762Y-61781905D01*
X93927143Y-61877143D01*
X93879524Y-61924762D01*
X93784286Y-61972381D01*
X93593809Y-61972381D01*
X93498571Y-61924762D01*
X93450952Y-61877143D01*
X93403333Y-61781905D01*
X93403333Y-61591429D01*
X93450952Y-61496190D01*
X93498571Y-61448571D01*
X93593809Y-61400952D01*
X94686666Y-61922381D02*
X95020000Y-61446190D01*
X95258095Y-61922381D02*
X95258095Y-60922381D01*
X94877142Y-60922381D01*
X94781904Y-60970000D01*
X94734285Y-61017619D01*
X94686666Y-61112857D01*
X94686666Y-61255714D01*
X94734285Y-61350952D01*
X94781904Y-61398571D01*
X94877142Y-61446190D01*
X95258095Y-61446190D01*
X93781904Y-60922381D02*
X94258095Y-60922381D01*
X94305714Y-61398571D01*
X94258095Y-61350952D01*
X94162857Y-61303333D01*
X93924761Y-61303333D01*
X93829523Y-61350952D01*
X93781904Y-61398571D01*
X93734285Y-61493810D01*
X93734285Y-61731905D01*
X93781904Y-61827143D01*
X93829523Y-61874762D01*
X93924761Y-61922381D01*
X94162857Y-61922381D01*
X94258095Y-61874762D01*
X94305714Y-61827143D01*
X95115238Y-57722381D02*
X95686667Y-57722381D01*
X95400953Y-57722381D02*
X95400953Y-56722381D01*
X95496191Y-56865238D01*
X95591429Y-56960476D01*
X95686667Y-57008095D01*
X94686667Y-57722381D02*
X94686667Y-56722381D01*
X94591429Y-57341429D02*
X94305714Y-57722381D01*
X94305714Y-57055714D02*
X94686667Y-57436667D01*
X93734286Y-57150952D02*
X93829524Y-57103333D01*
X93877143Y-57055714D01*
X93924762Y-56960476D01*
X93924762Y-56912857D01*
X93877143Y-56817619D01*
X93829524Y-56770000D01*
X93734286Y-56722381D01*
X93543809Y-56722381D01*
X93448571Y-56770000D01*
X93400952Y-56817619D01*
X93353333Y-56912857D01*
X93353333Y-56960476D01*
X93400952Y-57055714D01*
X93448571Y-57103333D01*
X93543809Y-57150952D01*
X93734286Y-57150952D01*
X93829524Y-57198571D01*
X93877143Y-57246190D01*
X93924762Y-57341429D01*
X93924762Y-57531905D01*
X93877143Y-57627143D01*
X93829524Y-57674762D01*
X93734286Y-57722381D01*
X93543809Y-57722381D01*
X93448571Y-57674762D01*
X93400952Y-57627143D01*
X93353333Y-57531905D01*
X93353333Y-57341429D01*
X93400952Y-57246190D01*
X93448571Y-57198571D01*
X93543809Y-57150952D01*
X84676666Y-85362381D02*
X85010000Y-84886190D01*
X85248095Y-85362381D02*
X85248095Y-84362381D01*
X84867142Y-84362381D01*
X84771904Y-84410000D01*
X84724285Y-84457619D01*
X84676666Y-84552857D01*
X84676666Y-84695714D01*
X84724285Y-84790952D01*
X84771904Y-84838571D01*
X84867142Y-84886190D01*
X85248095Y-84886190D01*
X83819523Y-84362381D02*
X84010000Y-84362381D01*
X84105238Y-84410000D01*
X84152857Y-84457619D01*
X84248095Y-84600476D01*
X84295714Y-84790952D01*
X84295714Y-85171905D01*
X84248095Y-85267143D01*
X84200476Y-85314762D01*
X84105238Y-85362381D01*
X83914761Y-85362381D01*
X83819523Y-85314762D01*
X83771904Y-85267143D01*
X83724285Y-85171905D01*
X83724285Y-84933810D01*
X83771904Y-84838571D01*
X83819523Y-84790952D01*
X83914761Y-84743333D01*
X84105238Y-84743333D01*
X84200476Y-84790952D01*
X84248095Y-84838571D01*
X84295714Y-84933810D01*
X85581428Y-89562381D02*
X86152857Y-89562381D01*
X85867143Y-89562381D02*
X85867143Y-88562381D01*
X85962381Y-88705238D01*
X86057619Y-88800476D01*
X86152857Y-88848095D01*
X84962381Y-88562381D02*
X84867142Y-88562381D01*
X84771904Y-88610000D01*
X84724285Y-88657619D01*
X84676666Y-88752857D01*
X84629047Y-88943333D01*
X84629047Y-89181429D01*
X84676666Y-89371905D01*
X84724285Y-89467143D01*
X84771904Y-89514762D01*
X84867142Y-89562381D01*
X84962381Y-89562381D01*
X85057619Y-89514762D01*
X85105238Y-89467143D01*
X85152857Y-89371905D01*
X85200476Y-89181429D01*
X85200476Y-88943333D01*
X85152857Y-88752857D01*
X85105238Y-88657619D01*
X85057619Y-88610000D01*
X84962381Y-88562381D01*
X84010000Y-88562381D02*
X83914761Y-88562381D01*
X83819523Y-88610000D01*
X83771904Y-88657619D01*
X83724285Y-88752857D01*
X83676666Y-88943333D01*
X83676666Y-89181429D01*
X83724285Y-89371905D01*
X83771904Y-89467143D01*
X83819523Y-89514762D01*
X83914761Y-89562381D01*
X84010000Y-89562381D01*
X84105238Y-89514762D01*
X84152857Y-89467143D01*
X84200476Y-89371905D01*
X84248095Y-89181429D01*
X84248095Y-88943333D01*
X84200476Y-88752857D01*
X84152857Y-88657619D01*
X84105238Y-88610000D01*
X84010000Y-88562381D01*
X83248095Y-89562381D02*
X83248095Y-88562381D01*
X83152857Y-89181429D02*
X82867142Y-89562381D01*
X82867142Y-88895714D02*
X83248095Y-89276667D01*
X84656666Y-82382381D02*
X84990000Y-81906190D01*
X85228095Y-82382381D02*
X85228095Y-81382381D01*
X84847142Y-81382381D01*
X84751904Y-81430000D01*
X84704285Y-81477619D01*
X84656666Y-81572857D01*
X84656666Y-81715714D01*
X84704285Y-81810952D01*
X84751904Y-81858571D01*
X84847142Y-81906190D01*
X85228095Y-81906190D01*
X84323333Y-81382381D02*
X83656666Y-81382381D01*
X84085238Y-82382381D01*
X85561428Y-86582381D02*
X86132857Y-86582381D01*
X85847143Y-86582381D02*
X85847143Y-85582381D01*
X85942381Y-85725238D01*
X86037619Y-85820476D01*
X86132857Y-85868095D01*
X84942381Y-85582381D02*
X84847142Y-85582381D01*
X84751904Y-85630000D01*
X84704285Y-85677619D01*
X84656666Y-85772857D01*
X84609047Y-85963333D01*
X84609047Y-86201429D01*
X84656666Y-86391905D01*
X84704285Y-86487143D01*
X84751904Y-86534762D01*
X84847142Y-86582381D01*
X84942381Y-86582381D01*
X85037619Y-86534762D01*
X85085238Y-86487143D01*
X85132857Y-86391905D01*
X85180476Y-86201429D01*
X85180476Y-85963333D01*
X85132857Y-85772857D01*
X85085238Y-85677619D01*
X85037619Y-85630000D01*
X84942381Y-85582381D01*
X83990000Y-85582381D02*
X83894761Y-85582381D01*
X83799523Y-85630000D01*
X83751904Y-85677619D01*
X83704285Y-85772857D01*
X83656666Y-85963333D01*
X83656666Y-86201429D01*
X83704285Y-86391905D01*
X83751904Y-86487143D01*
X83799523Y-86534762D01*
X83894761Y-86582381D01*
X83990000Y-86582381D01*
X84085238Y-86534762D01*
X84132857Y-86487143D01*
X84180476Y-86391905D01*
X84228095Y-86201429D01*
X84228095Y-85963333D01*
X84180476Y-85772857D01*
X84132857Y-85677619D01*
X84085238Y-85630000D01*
X83990000Y-85582381D01*
X83228095Y-86582381D02*
X83228095Y-85582381D01*
X83132857Y-86201429D02*
X82847142Y-86582381D01*
X82847142Y-85915714D02*
X83228095Y-86296667D01*
X84676666Y-78312381D02*
X85010000Y-77836190D01*
X85248095Y-78312381D02*
X85248095Y-77312381D01*
X84867142Y-77312381D01*
X84771904Y-77360000D01*
X84724285Y-77407619D01*
X84676666Y-77502857D01*
X84676666Y-77645714D01*
X84724285Y-77740952D01*
X84771904Y-77788571D01*
X84867142Y-77836190D01*
X85248095Y-77836190D01*
X84105238Y-77740952D02*
X84200476Y-77693333D01*
X84248095Y-77645714D01*
X84295714Y-77550476D01*
X84295714Y-77502857D01*
X84248095Y-77407619D01*
X84200476Y-77360000D01*
X84105238Y-77312381D01*
X83914761Y-77312381D01*
X83819523Y-77360000D01*
X83771904Y-77407619D01*
X83724285Y-77502857D01*
X83724285Y-77550476D01*
X83771904Y-77645714D01*
X83819523Y-77693333D01*
X83914761Y-77740952D01*
X84105238Y-77740952D01*
X84200476Y-77788571D01*
X84248095Y-77836190D01*
X84295714Y-77931429D01*
X84295714Y-78121905D01*
X84248095Y-78217143D01*
X84200476Y-78264762D01*
X84105238Y-78312381D01*
X83914761Y-78312381D01*
X83819523Y-78264762D01*
X83771904Y-78217143D01*
X83724285Y-78121905D01*
X83724285Y-77931429D01*
X83771904Y-77836190D01*
X83819523Y-77788571D01*
X83914761Y-77740952D01*
X85581428Y-82512381D02*
X86152857Y-82512381D01*
X85867143Y-82512381D02*
X85867143Y-81512381D01*
X85962381Y-81655238D01*
X86057619Y-81750476D01*
X86152857Y-81798095D01*
X84962381Y-81512381D02*
X84867142Y-81512381D01*
X84771904Y-81560000D01*
X84724285Y-81607619D01*
X84676666Y-81702857D01*
X84629047Y-81893333D01*
X84629047Y-82131429D01*
X84676666Y-82321905D01*
X84724285Y-82417143D01*
X84771904Y-82464762D01*
X84867142Y-82512381D01*
X84962381Y-82512381D01*
X85057619Y-82464762D01*
X85105238Y-82417143D01*
X85152857Y-82321905D01*
X85200476Y-82131429D01*
X85200476Y-81893333D01*
X85152857Y-81702857D01*
X85105238Y-81607619D01*
X85057619Y-81560000D01*
X84962381Y-81512381D01*
X84010000Y-81512381D02*
X83914761Y-81512381D01*
X83819523Y-81560000D01*
X83771904Y-81607619D01*
X83724285Y-81702857D01*
X83676666Y-81893333D01*
X83676666Y-82131429D01*
X83724285Y-82321905D01*
X83771904Y-82417143D01*
X83819523Y-82464762D01*
X83914761Y-82512381D01*
X84010000Y-82512381D01*
X84105238Y-82464762D01*
X84152857Y-82417143D01*
X84200476Y-82321905D01*
X84248095Y-82131429D01*
X84248095Y-81893333D01*
X84200476Y-81702857D01*
X84152857Y-81607619D01*
X84105238Y-81560000D01*
X84010000Y-81512381D01*
X83248095Y-82512381D02*
X83248095Y-81512381D01*
X83152857Y-82131429D02*
X82867142Y-82512381D01*
X82867142Y-81845714D02*
X83248095Y-82226667D01*
X84666666Y-75352381D02*
X85000000Y-74876190D01*
X85238095Y-75352381D02*
X85238095Y-74352381D01*
X84857142Y-74352381D01*
X84761904Y-74400000D01*
X84714285Y-74447619D01*
X84666666Y-74542857D01*
X84666666Y-74685714D01*
X84714285Y-74780952D01*
X84761904Y-74828571D01*
X84857142Y-74876190D01*
X85238095Y-74876190D01*
X84190476Y-75352381D02*
X84000000Y-75352381D01*
X83904761Y-75304762D01*
X83857142Y-75257143D01*
X83761904Y-75114286D01*
X83714285Y-74923810D01*
X83714285Y-74542857D01*
X83761904Y-74447619D01*
X83809523Y-74400000D01*
X83904761Y-74352381D01*
X84095238Y-74352381D01*
X84190476Y-74400000D01*
X84238095Y-74447619D01*
X84285714Y-74542857D01*
X84285714Y-74780952D01*
X84238095Y-74876190D01*
X84190476Y-74923810D01*
X84095238Y-74971429D01*
X83904761Y-74971429D01*
X83809523Y-74923810D01*
X83761904Y-74876190D01*
X83714285Y-74780952D01*
X85571428Y-79552381D02*
X86142857Y-79552381D01*
X85857143Y-79552381D02*
X85857143Y-78552381D01*
X85952381Y-78695238D01*
X86047619Y-78790476D01*
X86142857Y-78838095D01*
X84952381Y-78552381D02*
X84857142Y-78552381D01*
X84761904Y-78600000D01*
X84714285Y-78647619D01*
X84666666Y-78742857D01*
X84619047Y-78933333D01*
X84619047Y-79171429D01*
X84666666Y-79361905D01*
X84714285Y-79457143D01*
X84761904Y-79504762D01*
X84857142Y-79552381D01*
X84952381Y-79552381D01*
X85047619Y-79504762D01*
X85095238Y-79457143D01*
X85142857Y-79361905D01*
X85190476Y-79171429D01*
X85190476Y-78933333D01*
X85142857Y-78742857D01*
X85095238Y-78647619D01*
X85047619Y-78600000D01*
X84952381Y-78552381D01*
X84000000Y-78552381D02*
X83904761Y-78552381D01*
X83809523Y-78600000D01*
X83761904Y-78647619D01*
X83714285Y-78742857D01*
X83666666Y-78933333D01*
X83666666Y-79171429D01*
X83714285Y-79361905D01*
X83761904Y-79457143D01*
X83809523Y-79504762D01*
X83904761Y-79552381D01*
X84000000Y-79552381D01*
X84095238Y-79504762D01*
X84142857Y-79457143D01*
X84190476Y-79361905D01*
X84238095Y-79171429D01*
X84238095Y-78933333D01*
X84190476Y-78742857D01*
X84142857Y-78647619D01*
X84095238Y-78600000D01*
X84000000Y-78552381D01*
X83238095Y-79552381D02*
X83238095Y-78552381D01*
X83142857Y-79171429D02*
X82857142Y-79552381D01*
X82857142Y-78885714D02*
X83238095Y-79266667D01*
X85102857Y-71902381D02*
X85436191Y-71426190D01*
X85674286Y-71902381D02*
X85674286Y-70902381D01*
X85293333Y-70902381D01*
X85198095Y-70950000D01*
X85150476Y-70997619D01*
X85102857Y-71092857D01*
X85102857Y-71235714D01*
X85150476Y-71330952D01*
X85198095Y-71378571D01*
X85293333Y-71426190D01*
X85674286Y-71426190D01*
X84150476Y-71902381D02*
X84721905Y-71902381D01*
X84436191Y-71902381D02*
X84436191Y-70902381D01*
X84531429Y-71045238D01*
X84626667Y-71140476D01*
X84721905Y-71188095D01*
X83531429Y-70902381D02*
X83436190Y-70902381D01*
X83340952Y-70950000D01*
X83293333Y-70997619D01*
X83245714Y-71092857D01*
X83198095Y-71283333D01*
X83198095Y-71521429D01*
X83245714Y-71711905D01*
X83293333Y-71807143D01*
X83340952Y-71854762D01*
X83436190Y-71902381D01*
X83531429Y-71902381D01*
X83626667Y-71854762D01*
X83674286Y-71807143D01*
X83721905Y-71711905D01*
X83769524Y-71521429D01*
X83769524Y-71283333D01*
X83721905Y-71092857D01*
X83674286Y-70997619D01*
X83626667Y-70950000D01*
X83531429Y-70902381D01*
X85531428Y-76102381D02*
X86102857Y-76102381D01*
X85817143Y-76102381D02*
X85817143Y-75102381D01*
X85912381Y-75245238D01*
X86007619Y-75340476D01*
X86102857Y-75388095D01*
X84912381Y-75102381D02*
X84817142Y-75102381D01*
X84721904Y-75150000D01*
X84674285Y-75197619D01*
X84626666Y-75292857D01*
X84579047Y-75483333D01*
X84579047Y-75721429D01*
X84626666Y-75911905D01*
X84674285Y-76007143D01*
X84721904Y-76054762D01*
X84817142Y-76102381D01*
X84912381Y-76102381D01*
X85007619Y-76054762D01*
X85055238Y-76007143D01*
X85102857Y-75911905D01*
X85150476Y-75721429D01*
X85150476Y-75483333D01*
X85102857Y-75292857D01*
X85055238Y-75197619D01*
X85007619Y-75150000D01*
X84912381Y-75102381D01*
X83960000Y-75102381D02*
X83864761Y-75102381D01*
X83769523Y-75150000D01*
X83721904Y-75197619D01*
X83674285Y-75292857D01*
X83626666Y-75483333D01*
X83626666Y-75721429D01*
X83674285Y-75911905D01*
X83721904Y-76007143D01*
X83769523Y-76054762D01*
X83864761Y-76102381D01*
X83960000Y-76102381D01*
X84055238Y-76054762D01*
X84102857Y-76007143D01*
X84150476Y-75911905D01*
X84198095Y-75721429D01*
X84198095Y-75483333D01*
X84150476Y-75292857D01*
X84102857Y-75197619D01*
X84055238Y-75150000D01*
X83960000Y-75102381D01*
X83198095Y-76102381D02*
X83198095Y-75102381D01*
X83102857Y-75721429D02*
X82817142Y-76102381D01*
X82817142Y-75435714D02*
X83198095Y-75816667D01*
X85142857Y-68852381D02*
X85476191Y-68376190D01*
X85714286Y-68852381D02*
X85714286Y-67852381D01*
X85333333Y-67852381D01*
X85238095Y-67900000D01*
X85190476Y-67947619D01*
X85142857Y-68042857D01*
X85142857Y-68185714D01*
X85190476Y-68280952D01*
X85238095Y-68328571D01*
X85333333Y-68376190D01*
X85714286Y-68376190D01*
X84190476Y-68852381D02*
X84761905Y-68852381D01*
X84476191Y-68852381D02*
X84476191Y-67852381D01*
X84571429Y-67995238D01*
X84666667Y-68090476D01*
X84761905Y-68138095D01*
X83238095Y-68852381D02*
X83809524Y-68852381D01*
X83523810Y-68852381D02*
X83523810Y-67852381D01*
X83619048Y-67995238D01*
X83714286Y-68090476D01*
X83809524Y-68138095D01*
X85571428Y-73052381D02*
X86142857Y-73052381D01*
X85857143Y-73052381D02*
X85857143Y-72052381D01*
X85952381Y-72195238D01*
X86047619Y-72290476D01*
X86142857Y-72338095D01*
X84952381Y-72052381D02*
X84857142Y-72052381D01*
X84761904Y-72100000D01*
X84714285Y-72147619D01*
X84666666Y-72242857D01*
X84619047Y-72433333D01*
X84619047Y-72671429D01*
X84666666Y-72861905D01*
X84714285Y-72957143D01*
X84761904Y-73004762D01*
X84857142Y-73052381D01*
X84952381Y-73052381D01*
X85047619Y-73004762D01*
X85095238Y-72957143D01*
X85142857Y-72861905D01*
X85190476Y-72671429D01*
X85190476Y-72433333D01*
X85142857Y-72242857D01*
X85095238Y-72147619D01*
X85047619Y-72100000D01*
X84952381Y-72052381D01*
X84000000Y-72052381D02*
X83904761Y-72052381D01*
X83809523Y-72100000D01*
X83761904Y-72147619D01*
X83714285Y-72242857D01*
X83666666Y-72433333D01*
X83666666Y-72671429D01*
X83714285Y-72861905D01*
X83761904Y-72957143D01*
X83809523Y-73004762D01*
X83904761Y-73052381D01*
X84000000Y-73052381D01*
X84095238Y-73004762D01*
X84142857Y-72957143D01*
X84190476Y-72861905D01*
X84238095Y-72671429D01*
X84238095Y-72433333D01*
X84190476Y-72242857D01*
X84142857Y-72147619D01*
X84095238Y-72100000D01*
X84000000Y-72052381D01*
X83238095Y-73052381D02*
X83238095Y-72052381D01*
X83142857Y-72671429D02*
X82857142Y-73052381D01*
X82857142Y-72385714D02*
X83238095Y-72766667D01*
X85172857Y-65752381D02*
X85506191Y-65276190D01*
X85744286Y-65752381D02*
X85744286Y-64752381D01*
X85363333Y-64752381D01*
X85268095Y-64800000D01*
X85220476Y-64847619D01*
X85172857Y-64942857D01*
X85172857Y-65085714D01*
X85220476Y-65180952D01*
X85268095Y-65228571D01*
X85363333Y-65276190D01*
X85744286Y-65276190D01*
X84220476Y-65752381D02*
X84791905Y-65752381D01*
X84506191Y-65752381D02*
X84506191Y-64752381D01*
X84601429Y-64895238D01*
X84696667Y-64990476D01*
X84791905Y-65038095D01*
X83839524Y-64847619D02*
X83791905Y-64800000D01*
X83696667Y-64752381D01*
X83458571Y-64752381D01*
X83363333Y-64800000D01*
X83315714Y-64847619D01*
X83268095Y-64942857D01*
X83268095Y-65038095D01*
X83315714Y-65180952D01*
X83887143Y-65752381D01*
X83268095Y-65752381D01*
X85601428Y-69952381D02*
X86172857Y-69952381D01*
X85887143Y-69952381D02*
X85887143Y-68952381D01*
X85982381Y-69095238D01*
X86077619Y-69190476D01*
X86172857Y-69238095D01*
X84982381Y-68952381D02*
X84887142Y-68952381D01*
X84791904Y-69000000D01*
X84744285Y-69047619D01*
X84696666Y-69142857D01*
X84649047Y-69333333D01*
X84649047Y-69571429D01*
X84696666Y-69761905D01*
X84744285Y-69857143D01*
X84791904Y-69904762D01*
X84887142Y-69952381D01*
X84982381Y-69952381D01*
X85077619Y-69904762D01*
X85125238Y-69857143D01*
X85172857Y-69761905D01*
X85220476Y-69571429D01*
X85220476Y-69333333D01*
X85172857Y-69142857D01*
X85125238Y-69047619D01*
X85077619Y-69000000D01*
X84982381Y-68952381D01*
X84030000Y-68952381D02*
X83934761Y-68952381D01*
X83839523Y-69000000D01*
X83791904Y-69047619D01*
X83744285Y-69142857D01*
X83696666Y-69333333D01*
X83696666Y-69571429D01*
X83744285Y-69761905D01*
X83791904Y-69857143D01*
X83839523Y-69904762D01*
X83934761Y-69952381D01*
X84030000Y-69952381D01*
X84125238Y-69904762D01*
X84172857Y-69857143D01*
X84220476Y-69761905D01*
X84268095Y-69571429D01*
X84268095Y-69333333D01*
X84220476Y-69142857D01*
X84172857Y-69047619D01*
X84125238Y-69000000D01*
X84030000Y-68952381D01*
X83268095Y-69952381D02*
X83268095Y-68952381D01*
X83172857Y-69571429D02*
X82887142Y-69952381D01*
X82887142Y-69285714D02*
X83268095Y-69666667D01*
X85132857Y-63162381D02*
X85466191Y-62686190D01*
X85704286Y-63162381D02*
X85704286Y-62162381D01*
X85323333Y-62162381D01*
X85228095Y-62210000D01*
X85180476Y-62257619D01*
X85132857Y-62352857D01*
X85132857Y-62495714D01*
X85180476Y-62590952D01*
X85228095Y-62638571D01*
X85323333Y-62686190D01*
X85704286Y-62686190D01*
X84180476Y-63162381D02*
X84751905Y-63162381D01*
X84466191Y-63162381D02*
X84466191Y-62162381D01*
X84561429Y-62305238D01*
X84656667Y-62400476D01*
X84751905Y-62448095D01*
X83847143Y-62162381D02*
X83228095Y-62162381D01*
X83561429Y-62543333D01*
X83418571Y-62543333D01*
X83323333Y-62590952D01*
X83275714Y-62638571D01*
X83228095Y-62733810D01*
X83228095Y-62971905D01*
X83275714Y-63067143D01*
X83323333Y-63114762D01*
X83418571Y-63162381D01*
X83704286Y-63162381D01*
X83799524Y-63114762D01*
X83847143Y-63067143D01*
X85561428Y-67362381D02*
X86132857Y-67362381D01*
X85847143Y-67362381D02*
X85847143Y-66362381D01*
X85942381Y-66505238D01*
X86037619Y-66600476D01*
X86132857Y-66648095D01*
X84942381Y-66362381D02*
X84847142Y-66362381D01*
X84751904Y-66410000D01*
X84704285Y-66457619D01*
X84656666Y-66552857D01*
X84609047Y-66743333D01*
X84609047Y-66981429D01*
X84656666Y-67171905D01*
X84704285Y-67267143D01*
X84751904Y-67314762D01*
X84847142Y-67362381D01*
X84942381Y-67362381D01*
X85037619Y-67314762D01*
X85085238Y-67267143D01*
X85132857Y-67171905D01*
X85180476Y-66981429D01*
X85180476Y-66743333D01*
X85132857Y-66552857D01*
X85085238Y-66457619D01*
X85037619Y-66410000D01*
X84942381Y-66362381D01*
X83990000Y-66362381D02*
X83894761Y-66362381D01*
X83799523Y-66410000D01*
X83751904Y-66457619D01*
X83704285Y-66552857D01*
X83656666Y-66743333D01*
X83656666Y-66981429D01*
X83704285Y-67171905D01*
X83751904Y-67267143D01*
X83799523Y-67314762D01*
X83894761Y-67362381D01*
X83990000Y-67362381D01*
X84085238Y-67314762D01*
X84132857Y-67267143D01*
X84180476Y-67171905D01*
X84228095Y-66981429D01*
X84228095Y-66743333D01*
X84180476Y-66552857D01*
X84132857Y-66457619D01*
X84085238Y-66410000D01*
X83990000Y-66362381D01*
X83228095Y-67362381D02*
X83228095Y-66362381D01*
X83132857Y-66981429D02*
X82847142Y-67362381D01*
X82847142Y-66695714D02*
X83228095Y-67076667D01*
X104242857Y-66852381D02*
X104576191Y-66376190D01*
X104814286Y-66852381D02*
X104814286Y-65852381D01*
X104433333Y-65852381D01*
X104338095Y-65900000D01*
X104290476Y-65947619D01*
X104242857Y-66042857D01*
X104242857Y-66185714D01*
X104290476Y-66280952D01*
X104338095Y-66328571D01*
X104433333Y-66376190D01*
X104814286Y-66376190D01*
X103290476Y-66852381D02*
X103861905Y-66852381D01*
X103576191Y-66852381D02*
X103576191Y-65852381D01*
X103671429Y-65995238D01*
X103766667Y-66090476D01*
X103861905Y-66138095D01*
X102433333Y-66185714D02*
X102433333Y-66852381D01*
X102671429Y-65804762D02*
X102909524Y-66519048D01*
X102290476Y-66519048D01*
X104671428Y-62652381D02*
X105242857Y-62652381D01*
X104957143Y-62652381D02*
X104957143Y-61652381D01*
X105052381Y-61795238D01*
X105147619Y-61890476D01*
X105242857Y-61938095D01*
X104052381Y-61652381D02*
X103957142Y-61652381D01*
X103861904Y-61700000D01*
X103814285Y-61747619D01*
X103766666Y-61842857D01*
X103719047Y-62033333D01*
X103719047Y-62271429D01*
X103766666Y-62461905D01*
X103814285Y-62557143D01*
X103861904Y-62604762D01*
X103957142Y-62652381D01*
X104052381Y-62652381D01*
X104147619Y-62604762D01*
X104195238Y-62557143D01*
X104242857Y-62461905D01*
X104290476Y-62271429D01*
X104290476Y-62033333D01*
X104242857Y-61842857D01*
X104195238Y-61747619D01*
X104147619Y-61700000D01*
X104052381Y-61652381D01*
X103100000Y-61652381D02*
X103004761Y-61652381D01*
X102909523Y-61700000D01*
X102861904Y-61747619D01*
X102814285Y-61842857D01*
X102766666Y-62033333D01*
X102766666Y-62271429D01*
X102814285Y-62461905D01*
X102861904Y-62557143D01*
X102909523Y-62604762D01*
X103004761Y-62652381D01*
X103100000Y-62652381D01*
X103195238Y-62604762D01*
X103242857Y-62557143D01*
X103290476Y-62461905D01*
X103338095Y-62271429D01*
X103338095Y-62033333D01*
X103290476Y-61842857D01*
X103242857Y-61747619D01*
X103195238Y-61700000D01*
X103100000Y-61652381D01*
X102338095Y-62652381D02*
X102338095Y-61652381D01*
X102242857Y-62271429D02*
X101957142Y-62652381D01*
X101957142Y-61985714D02*
X102338095Y-62366667D01*
X104742857Y-69852381D02*
X105076191Y-69376190D01*
X105314286Y-69852381D02*
X105314286Y-68852381D01*
X104933333Y-68852381D01*
X104838095Y-68900000D01*
X104790476Y-68947619D01*
X104742857Y-69042857D01*
X104742857Y-69185714D01*
X104790476Y-69280952D01*
X104838095Y-69328571D01*
X104933333Y-69376190D01*
X105314286Y-69376190D01*
X103790476Y-69852381D02*
X104361905Y-69852381D01*
X104076191Y-69852381D02*
X104076191Y-68852381D01*
X104171429Y-68995238D01*
X104266667Y-69090476D01*
X104361905Y-69138095D01*
X102885714Y-68852381D02*
X103361905Y-68852381D01*
X103409524Y-69328571D01*
X103361905Y-69280952D01*
X103266667Y-69233333D01*
X103028571Y-69233333D01*
X102933333Y-69280952D01*
X102885714Y-69328571D01*
X102838095Y-69423810D01*
X102838095Y-69661905D01*
X102885714Y-69757143D01*
X102933333Y-69804762D01*
X103028571Y-69852381D01*
X103266667Y-69852381D01*
X103361905Y-69804762D01*
X103409524Y-69757143D01*
X105171428Y-65652381D02*
X105742857Y-65652381D01*
X105457143Y-65652381D02*
X105457143Y-64652381D01*
X105552381Y-64795238D01*
X105647619Y-64890476D01*
X105742857Y-64938095D01*
X104552381Y-64652381D02*
X104457142Y-64652381D01*
X104361904Y-64700000D01*
X104314285Y-64747619D01*
X104266666Y-64842857D01*
X104219047Y-65033333D01*
X104219047Y-65271429D01*
X104266666Y-65461905D01*
X104314285Y-65557143D01*
X104361904Y-65604762D01*
X104457142Y-65652381D01*
X104552381Y-65652381D01*
X104647619Y-65604762D01*
X104695238Y-65557143D01*
X104742857Y-65461905D01*
X104790476Y-65271429D01*
X104790476Y-65033333D01*
X104742857Y-64842857D01*
X104695238Y-64747619D01*
X104647619Y-64700000D01*
X104552381Y-64652381D01*
X103600000Y-64652381D02*
X103504761Y-64652381D01*
X103409523Y-64700000D01*
X103361904Y-64747619D01*
X103314285Y-64842857D01*
X103266666Y-65033333D01*
X103266666Y-65271429D01*
X103314285Y-65461905D01*
X103361904Y-65557143D01*
X103409523Y-65604762D01*
X103504761Y-65652381D01*
X103600000Y-65652381D01*
X103695238Y-65604762D01*
X103742857Y-65557143D01*
X103790476Y-65461905D01*
X103838095Y-65271429D01*
X103838095Y-65033333D01*
X103790476Y-64842857D01*
X103742857Y-64747619D01*
X103695238Y-64700000D01*
X103600000Y-64652381D01*
X102838095Y-65652381D02*
X102838095Y-64652381D01*
X102742857Y-65271429D02*
X102457142Y-65652381D01*
X102457142Y-64985714D02*
X102838095Y-65366667D01*
X104712857Y-73442381D02*
X105046191Y-72966190D01*
X105284286Y-73442381D02*
X105284286Y-72442381D01*
X104903333Y-72442381D01*
X104808095Y-72490000D01*
X104760476Y-72537619D01*
X104712857Y-72632857D01*
X104712857Y-72775714D01*
X104760476Y-72870952D01*
X104808095Y-72918571D01*
X104903333Y-72966190D01*
X105284286Y-72966190D01*
X103760476Y-73442381D02*
X104331905Y-73442381D01*
X104046191Y-73442381D02*
X104046191Y-72442381D01*
X104141429Y-72585238D01*
X104236667Y-72680476D01*
X104331905Y-72728095D01*
X102903333Y-72442381D02*
X103093810Y-72442381D01*
X103189048Y-72490000D01*
X103236667Y-72537619D01*
X103331905Y-72680476D01*
X103379524Y-72870952D01*
X103379524Y-73251905D01*
X103331905Y-73347143D01*
X103284286Y-73394762D01*
X103189048Y-73442381D01*
X102998571Y-73442381D01*
X102903333Y-73394762D01*
X102855714Y-73347143D01*
X102808095Y-73251905D01*
X102808095Y-73013810D01*
X102855714Y-72918571D01*
X102903333Y-72870952D01*
X102998571Y-72823333D01*
X103189048Y-72823333D01*
X103284286Y-72870952D01*
X103331905Y-72918571D01*
X103379524Y-73013810D01*
X105141428Y-69242381D02*
X105712857Y-69242381D01*
X105427143Y-69242381D02*
X105427143Y-68242381D01*
X105522381Y-68385238D01*
X105617619Y-68480476D01*
X105712857Y-68528095D01*
X104522381Y-68242381D02*
X104427142Y-68242381D01*
X104331904Y-68290000D01*
X104284285Y-68337619D01*
X104236666Y-68432857D01*
X104189047Y-68623333D01*
X104189047Y-68861429D01*
X104236666Y-69051905D01*
X104284285Y-69147143D01*
X104331904Y-69194762D01*
X104427142Y-69242381D01*
X104522381Y-69242381D01*
X104617619Y-69194762D01*
X104665238Y-69147143D01*
X104712857Y-69051905D01*
X104760476Y-68861429D01*
X104760476Y-68623333D01*
X104712857Y-68432857D01*
X104665238Y-68337619D01*
X104617619Y-68290000D01*
X104522381Y-68242381D01*
X103570000Y-68242381D02*
X103474761Y-68242381D01*
X103379523Y-68290000D01*
X103331904Y-68337619D01*
X103284285Y-68432857D01*
X103236666Y-68623333D01*
X103236666Y-68861429D01*
X103284285Y-69051905D01*
X103331904Y-69147143D01*
X103379523Y-69194762D01*
X103474761Y-69242381D01*
X103570000Y-69242381D01*
X103665238Y-69194762D01*
X103712857Y-69147143D01*
X103760476Y-69051905D01*
X103808095Y-68861429D01*
X103808095Y-68623333D01*
X103760476Y-68432857D01*
X103712857Y-68337619D01*
X103665238Y-68290000D01*
X103570000Y-68242381D01*
X102808095Y-69242381D02*
X102808095Y-68242381D01*
X102712857Y-68861429D02*
X102427142Y-69242381D01*
X102427142Y-68575714D02*
X102808095Y-68956667D01*
X104742857Y-76552381D02*
X105076191Y-76076190D01*
X105314286Y-76552381D02*
X105314286Y-75552381D01*
X104933333Y-75552381D01*
X104838095Y-75600000D01*
X104790476Y-75647619D01*
X104742857Y-75742857D01*
X104742857Y-75885714D01*
X104790476Y-75980952D01*
X104838095Y-76028571D01*
X104933333Y-76076190D01*
X105314286Y-76076190D01*
X103790476Y-76552381D02*
X104361905Y-76552381D01*
X104076191Y-76552381D02*
X104076191Y-75552381D01*
X104171429Y-75695238D01*
X104266667Y-75790476D01*
X104361905Y-75838095D01*
X103457143Y-75552381D02*
X102790476Y-75552381D01*
X103219048Y-76552381D01*
X105171428Y-72352381D02*
X105742857Y-72352381D01*
X105457143Y-72352381D02*
X105457143Y-71352381D01*
X105552381Y-71495238D01*
X105647619Y-71590476D01*
X105742857Y-71638095D01*
X104552381Y-71352381D02*
X104457142Y-71352381D01*
X104361904Y-71400000D01*
X104314285Y-71447619D01*
X104266666Y-71542857D01*
X104219047Y-71733333D01*
X104219047Y-71971429D01*
X104266666Y-72161905D01*
X104314285Y-72257143D01*
X104361904Y-72304762D01*
X104457142Y-72352381D01*
X104552381Y-72352381D01*
X104647619Y-72304762D01*
X104695238Y-72257143D01*
X104742857Y-72161905D01*
X104790476Y-71971429D01*
X104790476Y-71733333D01*
X104742857Y-71542857D01*
X104695238Y-71447619D01*
X104647619Y-71400000D01*
X104552381Y-71352381D01*
X103600000Y-71352381D02*
X103504761Y-71352381D01*
X103409523Y-71400000D01*
X103361904Y-71447619D01*
X103314285Y-71542857D01*
X103266666Y-71733333D01*
X103266666Y-71971429D01*
X103314285Y-72161905D01*
X103361904Y-72257143D01*
X103409523Y-72304762D01*
X103504761Y-72352381D01*
X103600000Y-72352381D01*
X103695238Y-72304762D01*
X103742857Y-72257143D01*
X103790476Y-72161905D01*
X103838095Y-71971429D01*
X103838095Y-71733333D01*
X103790476Y-71542857D01*
X103742857Y-71447619D01*
X103695238Y-71400000D01*
X103600000Y-71352381D01*
X102838095Y-72352381D02*
X102838095Y-71352381D01*
X102742857Y-71971429D02*
X102457142Y-72352381D01*
X102457142Y-71685714D02*
X102838095Y-72066667D01*
X104712857Y-79892381D02*
X105046191Y-79416190D01*
X105284286Y-79892381D02*
X105284286Y-78892381D01*
X104903333Y-78892381D01*
X104808095Y-78940000D01*
X104760476Y-78987619D01*
X104712857Y-79082857D01*
X104712857Y-79225714D01*
X104760476Y-79320952D01*
X104808095Y-79368571D01*
X104903333Y-79416190D01*
X105284286Y-79416190D01*
X103760476Y-79892381D02*
X104331905Y-79892381D01*
X104046191Y-79892381D02*
X104046191Y-78892381D01*
X104141429Y-79035238D01*
X104236667Y-79130476D01*
X104331905Y-79178095D01*
X103189048Y-79320952D02*
X103284286Y-79273333D01*
X103331905Y-79225714D01*
X103379524Y-79130476D01*
X103379524Y-79082857D01*
X103331905Y-78987619D01*
X103284286Y-78940000D01*
X103189048Y-78892381D01*
X102998571Y-78892381D01*
X102903333Y-78940000D01*
X102855714Y-78987619D01*
X102808095Y-79082857D01*
X102808095Y-79130476D01*
X102855714Y-79225714D01*
X102903333Y-79273333D01*
X102998571Y-79320952D01*
X103189048Y-79320952D01*
X103284286Y-79368571D01*
X103331905Y-79416190D01*
X103379524Y-79511429D01*
X103379524Y-79701905D01*
X103331905Y-79797143D01*
X103284286Y-79844762D01*
X103189048Y-79892381D01*
X102998571Y-79892381D01*
X102903333Y-79844762D01*
X102855714Y-79797143D01*
X102808095Y-79701905D01*
X102808095Y-79511429D01*
X102855714Y-79416190D01*
X102903333Y-79368571D01*
X102998571Y-79320952D01*
X105141428Y-75692381D02*
X105712857Y-75692381D01*
X105427143Y-75692381D02*
X105427143Y-74692381D01*
X105522381Y-74835238D01*
X105617619Y-74930476D01*
X105712857Y-74978095D01*
X104522381Y-74692381D02*
X104427142Y-74692381D01*
X104331904Y-74740000D01*
X104284285Y-74787619D01*
X104236666Y-74882857D01*
X104189047Y-75073333D01*
X104189047Y-75311429D01*
X104236666Y-75501905D01*
X104284285Y-75597143D01*
X104331904Y-75644762D01*
X104427142Y-75692381D01*
X104522381Y-75692381D01*
X104617619Y-75644762D01*
X104665238Y-75597143D01*
X104712857Y-75501905D01*
X104760476Y-75311429D01*
X104760476Y-75073333D01*
X104712857Y-74882857D01*
X104665238Y-74787619D01*
X104617619Y-74740000D01*
X104522381Y-74692381D01*
X103570000Y-74692381D02*
X103474761Y-74692381D01*
X103379523Y-74740000D01*
X103331904Y-74787619D01*
X103284285Y-74882857D01*
X103236666Y-75073333D01*
X103236666Y-75311429D01*
X103284285Y-75501905D01*
X103331904Y-75597143D01*
X103379523Y-75644762D01*
X103474761Y-75692381D01*
X103570000Y-75692381D01*
X103665238Y-75644762D01*
X103712857Y-75597143D01*
X103760476Y-75501905D01*
X103808095Y-75311429D01*
X103808095Y-75073333D01*
X103760476Y-74882857D01*
X103712857Y-74787619D01*
X103665238Y-74740000D01*
X103570000Y-74692381D01*
X102808095Y-75692381D02*
X102808095Y-74692381D01*
X102712857Y-75311429D02*
X102427142Y-75692381D01*
X102427142Y-75025714D02*
X102808095Y-75406667D01*
X104242857Y-82952381D02*
X104576191Y-82476190D01*
X104814286Y-82952381D02*
X104814286Y-81952381D01*
X104433333Y-81952381D01*
X104338095Y-82000000D01*
X104290476Y-82047619D01*
X104242857Y-82142857D01*
X104242857Y-82285714D01*
X104290476Y-82380952D01*
X104338095Y-82428571D01*
X104433333Y-82476190D01*
X104814286Y-82476190D01*
X103290476Y-82952381D02*
X103861905Y-82952381D01*
X103576191Y-82952381D02*
X103576191Y-81952381D01*
X103671429Y-82095238D01*
X103766667Y-82190476D01*
X103861905Y-82238095D01*
X102814286Y-82952381D02*
X102623810Y-82952381D01*
X102528571Y-82904762D01*
X102480952Y-82857143D01*
X102385714Y-82714286D01*
X102338095Y-82523810D01*
X102338095Y-82142857D01*
X102385714Y-82047619D01*
X102433333Y-82000000D01*
X102528571Y-81952381D01*
X102719048Y-81952381D01*
X102814286Y-82000000D01*
X102861905Y-82047619D01*
X102909524Y-82142857D01*
X102909524Y-82380952D01*
X102861905Y-82476190D01*
X102814286Y-82523810D01*
X102719048Y-82571429D01*
X102528571Y-82571429D01*
X102433333Y-82523810D01*
X102385714Y-82476190D01*
X102338095Y-82380952D01*
X104671428Y-78752381D02*
X105242857Y-78752381D01*
X104957143Y-78752381D02*
X104957143Y-77752381D01*
X105052381Y-77895238D01*
X105147619Y-77990476D01*
X105242857Y-78038095D01*
X104052381Y-77752381D02*
X103957142Y-77752381D01*
X103861904Y-77800000D01*
X103814285Y-77847619D01*
X103766666Y-77942857D01*
X103719047Y-78133333D01*
X103719047Y-78371429D01*
X103766666Y-78561905D01*
X103814285Y-78657143D01*
X103861904Y-78704762D01*
X103957142Y-78752381D01*
X104052381Y-78752381D01*
X104147619Y-78704762D01*
X104195238Y-78657143D01*
X104242857Y-78561905D01*
X104290476Y-78371429D01*
X104290476Y-78133333D01*
X104242857Y-77942857D01*
X104195238Y-77847619D01*
X104147619Y-77800000D01*
X104052381Y-77752381D01*
X103100000Y-77752381D02*
X103004761Y-77752381D01*
X102909523Y-77800000D01*
X102861904Y-77847619D01*
X102814285Y-77942857D01*
X102766666Y-78133333D01*
X102766666Y-78371429D01*
X102814285Y-78561905D01*
X102861904Y-78657143D01*
X102909523Y-78704762D01*
X103004761Y-78752381D01*
X103100000Y-78752381D01*
X103195238Y-78704762D01*
X103242857Y-78657143D01*
X103290476Y-78561905D01*
X103338095Y-78371429D01*
X103338095Y-78133333D01*
X103290476Y-77942857D01*
X103242857Y-77847619D01*
X103195238Y-77800000D01*
X103100000Y-77752381D01*
X102338095Y-78752381D02*
X102338095Y-77752381D01*
X102242857Y-78371429D02*
X101957142Y-78752381D01*
X101957142Y-78085714D02*
X102338095Y-78466667D01*
X104242857Y-86952381D02*
X104576191Y-86476190D01*
X104814286Y-86952381D02*
X104814286Y-85952381D01*
X104433333Y-85952381D01*
X104338095Y-86000000D01*
X104290476Y-86047619D01*
X104242857Y-86142857D01*
X104242857Y-86285714D01*
X104290476Y-86380952D01*
X104338095Y-86428571D01*
X104433333Y-86476190D01*
X104814286Y-86476190D01*
X103861905Y-86047619D02*
X103814286Y-86000000D01*
X103719048Y-85952381D01*
X103480952Y-85952381D01*
X103385714Y-86000000D01*
X103338095Y-86047619D01*
X103290476Y-86142857D01*
X103290476Y-86238095D01*
X103338095Y-86380952D01*
X103909524Y-86952381D01*
X103290476Y-86952381D01*
X102671429Y-85952381D02*
X102576190Y-85952381D01*
X102480952Y-86000000D01*
X102433333Y-86047619D01*
X102385714Y-86142857D01*
X102338095Y-86333333D01*
X102338095Y-86571429D01*
X102385714Y-86761905D01*
X102433333Y-86857143D01*
X102480952Y-86904762D01*
X102576190Y-86952381D01*
X102671429Y-86952381D01*
X102766667Y-86904762D01*
X102814286Y-86857143D01*
X102861905Y-86761905D01*
X102909524Y-86571429D01*
X102909524Y-86333333D01*
X102861905Y-86142857D01*
X102814286Y-86047619D01*
X102766667Y-86000000D01*
X102671429Y-85952381D01*
X104671428Y-82752381D02*
X105242857Y-82752381D01*
X104957143Y-82752381D02*
X104957143Y-81752381D01*
X105052381Y-81895238D01*
X105147619Y-81990476D01*
X105242857Y-82038095D01*
X104052381Y-81752381D02*
X103957142Y-81752381D01*
X103861904Y-81800000D01*
X103814285Y-81847619D01*
X103766666Y-81942857D01*
X103719047Y-82133333D01*
X103719047Y-82371429D01*
X103766666Y-82561905D01*
X103814285Y-82657143D01*
X103861904Y-82704762D01*
X103957142Y-82752381D01*
X104052381Y-82752381D01*
X104147619Y-82704762D01*
X104195238Y-82657143D01*
X104242857Y-82561905D01*
X104290476Y-82371429D01*
X104290476Y-82133333D01*
X104242857Y-81942857D01*
X104195238Y-81847619D01*
X104147619Y-81800000D01*
X104052381Y-81752381D01*
X103100000Y-81752381D02*
X103004761Y-81752381D01*
X102909523Y-81800000D01*
X102861904Y-81847619D01*
X102814285Y-81942857D01*
X102766666Y-82133333D01*
X102766666Y-82371429D01*
X102814285Y-82561905D01*
X102861904Y-82657143D01*
X102909523Y-82704762D01*
X103004761Y-82752381D01*
X103100000Y-82752381D01*
X103195238Y-82704762D01*
X103242857Y-82657143D01*
X103290476Y-82561905D01*
X103338095Y-82371429D01*
X103338095Y-82133333D01*
X103290476Y-81942857D01*
X103242857Y-81847619D01*
X103195238Y-81800000D01*
X103100000Y-81752381D01*
X102338095Y-82752381D02*
X102338095Y-81752381D01*
X102242857Y-82371429D02*
X101957142Y-82752381D01*
X101957142Y-82085714D02*
X102338095Y-82466667D01*
X104242857Y-90152381D02*
X104576191Y-89676190D01*
X104814286Y-90152381D02*
X104814286Y-89152381D01*
X104433333Y-89152381D01*
X104338095Y-89200000D01*
X104290476Y-89247619D01*
X104242857Y-89342857D01*
X104242857Y-89485714D01*
X104290476Y-89580952D01*
X104338095Y-89628571D01*
X104433333Y-89676190D01*
X104814286Y-89676190D01*
X103861905Y-89247619D02*
X103814286Y-89200000D01*
X103719048Y-89152381D01*
X103480952Y-89152381D01*
X103385714Y-89200000D01*
X103338095Y-89247619D01*
X103290476Y-89342857D01*
X103290476Y-89438095D01*
X103338095Y-89580952D01*
X103909524Y-90152381D01*
X103290476Y-90152381D01*
X102338095Y-90152381D02*
X102909524Y-90152381D01*
X102623810Y-90152381D02*
X102623810Y-89152381D01*
X102719048Y-89295238D01*
X102814286Y-89390476D01*
X102909524Y-89438095D01*
X104671428Y-85952381D02*
X105242857Y-85952381D01*
X104957143Y-85952381D02*
X104957143Y-84952381D01*
X105052381Y-85095238D01*
X105147619Y-85190476D01*
X105242857Y-85238095D01*
X104052381Y-84952381D02*
X103957142Y-84952381D01*
X103861904Y-85000000D01*
X103814285Y-85047619D01*
X103766666Y-85142857D01*
X103719047Y-85333333D01*
X103719047Y-85571429D01*
X103766666Y-85761905D01*
X103814285Y-85857143D01*
X103861904Y-85904762D01*
X103957142Y-85952381D01*
X104052381Y-85952381D01*
X104147619Y-85904762D01*
X104195238Y-85857143D01*
X104242857Y-85761905D01*
X104290476Y-85571429D01*
X104290476Y-85333333D01*
X104242857Y-85142857D01*
X104195238Y-85047619D01*
X104147619Y-85000000D01*
X104052381Y-84952381D01*
X103100000Y-84952381D02*
X103004761Y-84952381D01*
X102909523Y-85000000D01*
X102861904Y-85047619D01*
X102814285Y-85142857D01*
X102766666Y-85333333D01*
X102766666Y-85571429D01*
X102814285Y-85761905D01*
X102861904Y-85857143D01*
X102909523Y-85904762D01*
X103004761Y-85952381D01*
X103100000Y-85952381D01*
X103195238Y-85904762D01*
X103242857Y-85857143D01*
X103290476Y-85761905D01*
X103338095Y-85571429D01*
X103338095Y-85333333D01*
X103290476Y-85142857D01*
X103242857Y-85047619D01*
X103195238Y-85000000D01*
X103100000Y-84952381D01*
X102338095Y-85952381D02*
X102338095Y-84952381D01*
X102242857Y-85571429D02*
X101957142Y-85952381D01*
X101957142Y-85285714D02*
X102338095Y-85666667D01*
X85132857Y-57482381D02*
X85466191Y-57006190D01*
X85704286Y-57482381D02*
X85704286Y-56482381D01*
X85323333Y-56482381D01*
X85228095Y-56530000D01*
X85180476Y-56577619D01*
X85132857Y-56672857D01*
X85132857Y-56815714D01*
X85180476Y-56910952D01*
X85228095Y-56958571D01*
X85323333Y-57006190D01*
X85704286Y-57006190D01*
X84751905Y-56577619D02*
X84704286Y-56530000D01*
X84609048Y-56482381D01*
X84370952Y-56482381D01*
X84275714Y-56530000D01*
X84228095Y-56577619D01*
X84180476Y-56672857D01*
X84180476Y-56768095D01*
X84228095Y-56910952D01*
X84799524Y-57482381D01*
X84180476Y-57482381D01*
X83799524Y-56577619D02*
X83751905Y-56530000D01*
X83656667Y-56482381D01*
X83418571Y-56482381D01*
X83323333Y-56530000D01*
X83275714Y-56577619D01*
X83228095Y-56672857D01*
X83228095Y-56768095D01*
X83275714Y-56910952D01*
X83847143Y-57482381D01*
X83228095Y-57482381D01*
X85561428Y-61682381D02*
X86132857Y-61682381D01*
X85847143Y-61682381D02*
X85847143Y-60682381D01*
X85942381Y-60825238D01*
X86037619Y-60920476D01*
X86132857Y-60968095D01*
X84942381Y-60682381D02*
X84847142Y-60682381D01*
X84751904Y-60730000D01*
X84704285Y-60777619D01*
X84656666Y-60872857D01*
X84609047Y-61063333D01*
X84609047Y-61301429D01*
X84656666Y-61491905D01*
X84704285Y-61587143D01*
X84751904Y-61634762D01*
X84847142Y-61682381D01*
X84942381Y-61682381D01*
X85037619Y-61634762D01*
X85085238Y-61587143D01*
X85132857Y-61491905D01*
X85180476Y-61301429D01*
X85180476Y-61063333D01*
X85132857Y-60872857D01*
X85085238Y-60777619D01*
X85037619Y-60730000D01*
X84942381Y-60682381D01*
X83990000Y-60682381D02*
X83894761Y-60682381D01*
X83799523Y-60730000D01*
X83751904Y-60777619D01*
X83704285Y-60872857D01*
X83656666Y-61063333D01*
X83656666Y-61301429D01*
X83704285Y-61491905D01*
X83751904Y-61587143D01*
X83799523Y-61634762D01*
X83894761Y-61682381D01*
X83990000Y-61682381D01*
X84085238Y-61634762D01*
X84132857Y-61587143D01*
X84180476Y-61491905D01*
X84228095Y-61301429D01*
X84228095Y-61063333D01*
X84180476Y-60872857D01*
X84132857Y-60777619D01*
X84085238Y-60730000D01*
X83990000Y-60682381D01*
X83228095Y-61682381D02*
X83228095Y-60682381D01*
X83132857Y-61301429D02*
X82847142Y-61682381D01*
X82847142Y-61015714D02*
X83228095Y-61396667D01*
X85122857Y-54432381D02*
X85456191Y-53956190D01*
X85694286Y-54432381D02*
X85694286Y-53432381D01*
X85313333Y-53432381D01*
X85218095Y-53480000D01*
X85170476Y-53527619D01*
X85122857Y-53622857D01*
X85122857Y-53765714D01*
X85170476Y-53860952D01*
X85218095Y-53908571D01*
X85313333Y-53956190D01*
X85694286Y-53956190D01*
X84741905Y-53527619D02*
X84694286Y-53480000D01*
X84599048Y-53432381D01*
X84360952Y-53432381D01*
X84265714Y-53480000D01*
X84218095Y-53527619D01*
X84170476Y-53622857D01*
X84170476Y-53718095D01*
X84218095Y-53860952D01*
X84789524Y-54432381D01*
X84170476Y-54432381D01*
X83837143Y-53432381D02*
X83218095Y-53432381D01*
X83551429Y-53813333D01*
X83408571Y-53813333D01*
X83313333Y-53860952D01*
X83265714Y-53908571D01*
X83218095Y-54003810D01*
X83218095Y-54241905D01*
X83265714Y-54337143D01*
X83313333Y-54384762D01*
X83408571Y-54432381D01*
X83694286Y-54432381D01*
X83789524Y-54384762D01*
X83837143Y-54337143D01*
X85551428Y-58632381D02*
X86122857Y-58632381D01*
X85837143Y-58632381D02*
X85837143Y-57632381D01*
X85932381Y-57775238D01*
X86027619Y-57870476D01*
X86122857Y-57918095D01*
X84932381Y-57632381D02*
X84837142Y-57632381D01*
X84741904Y-57680000D01*
X84694285Y-57727619D01*
X84646666Y-57822857D01*
X84599047Y-58013333D01*
X84599047Y-58251429D01*
X84646666Y-58441905D01*
X84694285Y-58537143D01*
X84741904Y-58584762D01*
X84837142Y-58632381D01*
X84932381Y-58632381D01*
X85027619Y-58584762D01*
X85075238Y-58537143D01*
X85122857Y-58441905D01*
X85170476Y-58251429D01*
X85170476Y-58013333D01*
X85122857Y-57822857D01*
X85075238Y-57727619D01*
X85027619Y-57680000D01*
X84932381Y-57632381D01*
X83980000Y-57632381D02*
X83884761Y-57632381D01*
X83789523Y-57680000D01*
X83741904Y-57727619D01*
X83694285Y-57822857D01*
X83646666Y-58013333D01*
X83646666Y-58251429D01*
X83694285Y-58441905D01*
X83741904Y-58537143D01*
X83789523Y-58584762D01*
X83884761Y-58632381D01*
X83980000Y-58632381D01*
X84075238Y-58584762D01*
X84122857Y-58537143D01*
X84170476Y-58441905D01*
X84218095Y-58251429D01*
X84218095Y-58013333D01*
X84170476Y-57822857D01*
X84122857Y-57727619D01*
X84075238Y-57680000D01*
X83980000Y-57632381D01*
X83218095Y-58632381D02*
X83218095Y-57632381D01*
X83122857Y-58251429D02*
X82837142Y-58632381D01*
X82837142Y-57965714D02*
X83218095Y-58346667D01*
X85242857Y-51502381D02*
X85576191Y-51026190D01*
X85814286Y-51502381D02*
X85814286Y-50502381D01*
X85433333Y-50502381D01*
X85338095Y-50550000D01*
X85290476Y-50597619D01*
X85242857Y-50692857D01*
X85242857Y-50835714D01*
X85290476Y-50930952D01*
X85338095Y-50978571D01*
X85433333Y-51026190D01*
X85814286Y-51026190D01*
X84861905Y-50597619D02*
X84814286Y-50550000D01*
X84719048Y-50502381D01*
X84480952Y-50502381D01*
X84385714Y-50550000D01*
X84338095Y-50597619D01*
X84290476Y-50692857D01*
X84290476Y-50788095D01*
X84338095Y-50930952D01*
X84909524Y-51502381D01*
X84290476Y-51502381D01*
X83433333Y-50835714D02*
X83433333Y-51502381D01*
X83671429Y-50454762D02*
X83909524Y-51169048D01*
X83290476Y-51169048D01*
X85671428Y-55702381D02*
X86242857Y-55702381D01*
X85957143Y-55702381D02*
X85957143Y-54702381D01*
X86052381Y-54845238D01*
X86147619Y-54940476D01*
X86242857Y-54988095D01*
X85052381Y-54702381D02*
X84957142Y-54702381D01*
X84861904Y-54750000D01*
X84814285Y-54797619D01*
X84766666Y-54892857D01*
X84719047Y-55083333D01*
X84719047Y-55321429D01*
X84766666Y-55511905D01*
X84814285Y-55607143D01*
X84861904Y-55654762D01*
X84957142Y-55702381D01*
X85052381Y-55702381D01*
X85147619Y-55654762D01*
X85195238Y-55607143D01*
X85242857Y-55511905D01*
X85290476Y-55321429D01*
X85290476Y-55083333D01*
X85242857Y-54892857D01*
X85195238Y-54797619D01*
X85147619Y-54750000D01*
X85052381Y-54702381D01*
X84100000Y-54702381D02*
X84004761Y-54702381D01*
X83909523Y-54750000D01*
X83861904Y-54797619D01*
X83814285Y-54892857D01*
X83766666Y-55083333D01*
X83766666Y-55321429D01*
X83814285Y-55511905D01*
X83861904Y-55607143D01*
X83909523Y-55654762D01*
X84004761Y-55702381D01*
X84100000Y-55702381D01*
X84195238Y-55654762D01*
X84242857Y-55607143D01*
X84290476Y-55511905D01*
X84338095Y-55321429D01*
X84338095Y-55083333D01*
X84290476Y-54892857D01*
X84242857Y-54797619D01*
X84195238Y-54750000D01*
X84100000Y-54702381D01*
X83338095Y-55702381D02*
X83338095Y-54702381D01*
X83242857Y-55321429D02*
X82957142Y-55702381D01*
X82957142Y-55035714D02*
X83338095Y-55416667D01*
X85142857Y-48572381D02*
X85476191Y-48096190D01*
X85714286Y-48572381D02*
X85714286Y-47572381D01*
X85333333Y-47572381D01*
X85238095Y-47620000D01*
X85190476Y-47667619D01*
X85142857Y-47762857D01*
X85142857Y-47905714D01*
X85190476Y-48000952D01*
X85238095Y-48048571D01*
X85333333Y-48096190D01*
X85714286Y-48096190D01*
X84761905Y-47667619D02*
X84714286Y-47620000D01*
X84619048Y-47572381D01*
X84380952Y-47572381D01*
X84285714Y-47620000D01*
X84238095Y-47667619D01*
X84190476Y-47762857D01*
X84190476Y-47858095D01*
X84238095Y-48000952D01*
X84809524Y-48572381D01*
X84190476Y-48572381D01*
X83285714Y-47572381D02*
X83761905Y-47572381D01*
X83809524Y-48048571D01*
X83761905Y-48000952D01*
X83666667Y-47953333D01*
X83428571Y-47953333D01*
X83333333Y-48000952D01*
X83285714Y-48048571D01*
X83238095Y-48143810D01*
X83238095Y-48381905D01*
X83285714Y-48477143D01*
X83333333Y-48524762D01*
X83428571Y-48572381D01*
X83666667Y-48572381D01*
X83761905Y-48524762D01*
X83809524Y-48477143D01*
X85571428Y-52772381D02*
X86142857Y-52772381D01*
X85857143Y-52772381D02*
X85857143Y-51772381D01*
X85952381Y-51915238D01*
X86047619Y-52010476D01*
X86142857Y-52058095D01*
X84952381Y-51772381D02*
X84857142Y-51772381D01*
X84761904Y-51820000D01*
X84714285Y-51867619D01*
X84666666Y-51962857D01*
X84619047Y-52153333D01*
X84619047Y-52391429D01*
X84666666Y-52581905D01*
X84714285Y-52677143D01*
X84761904Y-52724762D01*
X84857142Y-52772381D01*
X84952381Y-52772381D01*
X85047619Y-52724762D01*
X85095238Y-52677143D01*
X85142857Y-52581905D01*
X85190476Y-52391429D01*
X85190476Y-52153333D01*
X85142857Y-51962857D01*
X85095238Y-51867619D01*
X85047619Y-51820000D01*
X84952381Y-51772381D01*
X84000000Y-51772381D02*
X83904761Y-51772381D01*
X83809523Y-51820000D01*
X83761904Y-51867619D01*
X83714285Y-51962857D01*
X83666666Y-52153333D01*
X83666666Y-52391429D01*
X83714285Y-52581905D01*
X83761904Y-52677143D01*
X83809523Y-52724762D01*
X83904761Y-52772381D01*
X84000000Y-52772381D01*
X84095238Y-52724762D01*
X84142857Y-52677143D01*
X84190476Y-52581905D01*
X84238095Y-52391429D01*
X84238095Y-52153333D01*
X84190476Y-51962857D01*
X84142857Y-51867619D01*
X84095238Y-51820000D01*
X84000000Y-51772381D01*
X83238095Y-52772381D02*
X83238095Y-51772381D01*
X83142857Y-52391429D02*
X82857142Y-52772381D01*
X82857142Y-52105714D02*
X83238095Y-52486667D01*
X85202857Y-44512381D02*
X85536191Y-44036190D01*
X85774286Y-44512381D02*
X85774286Y-43512381D01*
X85393333Y-43512381D01*
X85298095Y-43560000D01*
X85250476Y-43607619D01*
X85202857Y-43702857D01*
X85202857Y-43845714D01*
X85250476Y-43940952D01*
X85298095Y-43988571D01*
X85393333Y-44036190D01*
X85774286Y-44036190D01*
X84821905Y-43607619D02*
X84774286Y-43560000D01*
X84679048Y-43512381D01*
X84440952Y-43512381D01*
X84345714Y-43560000D01*
X84298095Y-43607619D01*
X84250476Y-43702857D01*
X84250476Y-43798095D01*
X84298095Y-43940952D01*
X84869524Y-44512381D01*
X84250476Y-44512381D01*
X83393333Y-43512381D02*
X83583810Y-43512381D01*
X83679048Y-43560000D01*
X83726667Y-43607619D01*
X83821905Y-43750476D01*
X83869524Y-43940952D01*
X83869524Y-44321905D01*
X83821905Y-44417143D01*
X83774286Y-44464762D01*
X83679048Y-44512381D01*
X83488571Y-44512381D01*
X83393333Y-44464762D01*
X83345714Y-44417143D01*
X83298095Y-44321905D01*
X83298095Y-44083810D01*
X83345714Y-43988571D01*
X83393333Y-43940952D01*
X83488571Y-43893333D01*
X83679048Y-43893333D01*
X83774286Y-43940952D01*
X83821905Y-43988571D01*
X83869524Y-44083810D01*
X85631428Y-48712381D02*
X86202857Y-48712381D01*
X85917143Y-48712381D02*
X85917143Y-47712381D01*
X86012381Y-47855238D01*
X86107619Y-47950476D01*
X86202857Y-47998095D01*
X85012381Y-47712381D02*
X84917142Y-47712381D01*
X84821904Y-47760000D01*
X84774285Y-47807619D01*
X84726666Y-47902857D01*
X84679047Y-48093333D01*
X84679047Y-48331429D01*
X84726666Y-48521905D01*
X84774285Y-48617143D01*
X84821904Y-48664762D01*
X84917142Y-48712381D01*
X85012381Y-48712381D01*
X85107619Y-48664762D01*
X85155238Y-48617143D01*
X85202857Y-48521905D01*
X85250476Y-48331429D01*
X85250476Y-48093333D01*
X85202857Y-47902857D01*
X85155238Y-47807619D01*
X85107619Y-47760000D01*
X85012381Y-47712381D01*
X84060000Y-47712381D02*
X83964761Y-47712381D01*
X83869523Y-47760000D01*
X83821904Y-47807619D01*
X83774285Y-47902857D01*
X83726666Y-48093333D01*
X83726666Y-48331429D01*
X83774285Y-48521905D01*
X83821904Y-48617143D01*
X83869523Y-48664762D01*
X83964761Y-48712381D01*
X84060000Y-48712381D01*
X84155238Y-48664762D01*
X84202857Y-48617143D01*
X84250476Y-48521905D01*
X84298095Y-48331429D01*
X84298095Y-48093333D01*
X84250476Y-47902857D01*
X84202857Y-47807619D01*
X84155238Y-47760000D01*
X84060000Y-47712381D01*
X83298095Y-48712381D02*
X83298095Y-47712381D01*
X83202857Y-48331429D02*
X82917142Y-48712381D01*
X82917142Y-48045714D02*
X83298095Y-48426667D01*
X85182857Y-41502381D02*
X85516191Y-41026190D01*
X85754286Y-41502381D02*
X85754286Y-40502381D01*
X85373333Y-40502381D01*
X85278095Y-40550000D01*
X85230476Y-40597619D01*
X85182857Y-40692857D01*
X85182857Y-40835714D01*
X85230476Y-40930952D01*
X85278095Y-40978571D01*
X85373333Y-41026190D01*
X85754286Y-41026190D01*
X84801905Y-40597619D02*
X84754286Y-40550000D01*
X84659048Y-40502381D01*
X84420952Y-40502381D01*
X84325714Y-40550000D01*
X84278095Y-40597619D01*
X84230476Y-40692857D01*
X84230476Y-40788095D01*
X84278095Y-40930952D01*
X84849524Y-41502381D01*
X84230476Y-41502381D01*
X83897143Y-40502381D02*
X83230476Y-40502381D01*
X83659048Y-41502381D01*
X85611428Y-45702381D02*
X86182857Y-45702381D01*
X85897143Y-45702381D02*
X85897143Y-44702381D01*
X85992381Y-44845238D01*
X86087619Y-44940476D01*
X86182857Y-44988095D01*
X84992381Y-44702381D02*
X84897142Y-44702381D01*
X84801904Y-44750000D01*
X84754285Y-44797619D01*
X84706666Y-44892857D01*
X84659047Y-45083333D01*
X84659047Y-45321429D01*
X84706666Y-45511905D01*
X84754285Y-45607143D01*
X84801904Y-45654762D01*
X84897142Y-45702381D01*
X84992381Y-45702381D01*
X85087619Y-45654762D01*
X85135238Y-45607143D01*
X85182857Y-45511905D01*
X85230476Y-45321429D01*
X85230476Y-45083333D01*
X85182857Y-44892857D01*
X85135238Y-44797619D01*
X85087619Y-44750000D01*
X84992381Y-44702381D01*
X84040000Y-44702381D02*
X83944761Y-44702381D01*
X83849523Y-44750000D01*
X83801904Y-44797619D01*
X83754285Y-44892857D01*
X83706666Y-45083333D01*
X83706666Y-45321429D01*
X83754285Y-45511905D01*
X83801904Y-45607143D01*
X83849523Y-45654762D01*
X83944761Y-45702381D01*
X84040000Y-45702381D01*
X84135238Y-45654762D01*
X84182857Y-45607143D01*
X84230476Y-45511905D01*
X84278095Y-45321429D01*
X84278095Y-45083333D01*
X84230476Y-44892857D01*
X84182857Y-44797619D01*
X84135238Y-44750000D01*
X84040000Y-44702381D01*
X83278095Y-45702381D02*
X83278095Y-44702381D01*
X83182857Y-45321429D02*
X82897142Y-45702381D01*
X82897142Y-45035714D02*
X83278095Y-45416667D01*
X85162857Y-38772381D02*
X85496191Y-38296190D01*
X85734286Y-38772381D02*
X85734286Y-37772381D01*
X85353333Y-37772381D01*
X85258095Y-37820000D01*
X85210476Y-37867619D01*
X85162857Y-37962857D01*
X85162857Y-38105714D01*
X85210476Y-38200952D01*
X85258095Y-38248571D01*
X85353333Y-38296190D01*
X85734286Y-38296190D01*
X84781905Y-37867619D02*
X84734286Y-37820000D01*
X84639048Y-37772381D01*
X84400952Y-37772381D01*
X84305714Y-37820000D01*
X84258095Y-37867619D01*
X84210476Y-37962857D01*
X84210476Y-38058095D01*
X84258095Y-38200952D01*
X84829524Y-38772381D01*
X84210476Y-38772381D01*
X83639048Y-38200952D02*
X83734286Y-38153333D01*
X83781905Y-38105714D01*
X83829524Y-38010476D01*
X83829524Y-37962857D01*
X83781905Y-37867619D01*
X83734286Y-37820000D01*
X83639048Y-37772381D01*
X83448571Y-37772381D01*
X83353333Y-37820000D01*
X83305714Y-37867619D01*
X83258095Y-37962857D01*
X83258095Y-38010476D01*
X83305714Y-38105714D01*
X83353333Y-38153333D01*
X83448571Y-38200952D01*
X83639048Y-38200952D01*
X83734286Y-38248571D01*
X83781905Y-38296190D01*
X83829524Y-38391429D01*
X83829524Y-38581905D01*
X83781905Y-38677143D01*
X83734286Y-38724762D01*
X83639048Y-38772381D01*
X83448571Y-38772381D01*
X83353333Y-38724762D01*
X83305714Y-38677143D01*
X83258095Y-38581905D01*
X83258095Y-38391429D01*
X83305714Y-38296190D01*
X83353333Y-38248571D01*
X83448571Y-38200952D01*
X85591428Y-42972381D02*
X86162857Y-42972381D01*
X85877143Y-42972381D02*
X85877143Y-41972381D01*
X85972381Y-42115238D01*
X86067619Y-42210476D01*
X86162857Y-42258095D01*
X84972381Y-41972381D02*
X84877142Y-41972381D01*
X84781904Y-42020000D01*
X84734285Y-42067619D01*
X84686666Y-42162857D01*
X84639047Y-42353333D01*
X84639047Y-42591429D01*
X84686666Y-42781905D01*
X84734285Y-42877143D01*
X84781904Y-42924762D01*
X84877142Y-42972381D01*
X84972381Y-42972381D01*
X85067619Y-42924762D01*
X85115238Y-42877143D01*
X85162857Y-42781905D01*
X85210476Y-42591429D01*
X85210476Y-42353333D01*
X85162857Y-42162857D01*
X85115238Y-42067619D01*
X85067619Y-42020000D01*
X84972381Y-41972381D01*
X84020000Y-41972381D02*
X83924761Y-41972381D01*
X83829523Y-42020000D01*
X83781904Y-42067619D01*
X83734285Y-42162857D01*
X83686666Y-42353333D01*
X83686666Y-42591429D01*
X83734285Y-42781905D01*
X83781904Y-42877143D01*
X83829523Y-42924762D01*
X83924761Y-42972381D01*
X84020000Y-42972381D01*
X84115238Y-42924762D01*
X84162857Y-42877143D01*
X84210476Y-42781905D01*
X84258095Y-42591429D01*
X84258095Y-42353333D01*
X84210476Y-42162857D01*
X84162857Y-42067619D01*
X84115238Y-42020000D01*
X84020000Y-41972381D01*
X83258095Y-42972381D02*
X83258095Y-41972381D01*
X83162857Y-42591429D02*
X82877142Y-42972381D01*
X82877142Y-42305714D02*
X83258095Y-42686667D01*
X85112857Y-35872381D02*
X85446191Y-35396190D01*
X85684286Y-35872381D02*
X85684286Y-34872381D01*
X85303333Y-34872381D01*
X85208095Y-34920000D01*
X85160476Y-34967619D01*
X85112857Y-35062857D01*
X85112857Y-35205714D01*
X85160476Y-35300952D01*
X85208095Y-35348571D01*
X85303333Y-35396190D01*
X85684286Y-35396190D01*
X84731905Y-34967619D02*
X84684286Y-34920000D01*
X84589048Y-34872381D01*
X84350952Y-34872381D01*
X84255714Y-34920000D01*
X84208095Y-34967619D01*
X84160476Y-35062857D01*
X84160476Y-35158095D01*
X84208095Y-35300952D01*
X84779524Y-35872381D01*
X84160476Y-35872381D01*
X83684286Y-35872381D02*
X83493810Y-35872381D01*
X83398571Y-35824762D01*
X83350952Y-35777143D01*
X83255714Y-35634286D01*
X83208095Y-35443810D01*
X83208095Y-35062857D01*
X83255714Y-34967619D01*
X83303333Y-34920000D01*
X83398571Y-34872381D01*
X83589048Y-34872381D01*
X83684286Y-34920000D01*
X83731905Y-34967619D01*
X83779524Y-35062857D01*
X83779524Y-35300952D01*
X83731905Y-35396190D01*
X83684286Y-35443810D01*
X83589048Y-35491429D01*
X83398571Y-35491429D01*
X83303333Y-35443810D01*
X83255714Y-35396190D01*
X83208095Y-35300952D01*
X85541428Y-40072381D02*
X86112857Y-40072381D01*
X85827143Y-40072381D02*
X85827143Y-39072381D01*
X85922381Y-39215238D01*
X86017619Y-39310476D01*
X86112857Y-39358095D01*
X84922381Y-39072381D02*
X84827142Y-39072381D01*
X84731904Y-39120000D01*
X84684285Y-39167619D01*
X84636666Y-39262857D01*
X84589047Y-39453333D01*
X84589047Y-39691429D01*
X84636666Y-39881905D01*
X84684285Y-39977143D01*
X84731904Y-40024762D01*
X84827142Y-40072381D01*
X84922381Y-40072381D01*
X85017619Y-40024762D01*
X85065238Y-39977143D01*
X85112857Y-39881905D01*
X85160476Y-39691429D01*
X85160476Y-39453333D01*
X85112857Y-39262857D01*
X85065238Y-39167619D01*
X85017619Y-39120000D01*
X84922381Y-39072381D01*
X83970000Y-39072381D02*
X83874761Y-39072381D01*
X83779523Y-39120000D01*
X83731904Y-39167619D01*
X83684285Y-39262857D01*
X83636666Y-39453333D01*
X83636666Y-39691429D01*
X83684285Y-39881905D01*
X83731904Y-39977143D01*
X83779523Y-40024762D01*
X83874761Y-40072381D01*
X83970000Y-40072381D01*
X84065238Y-40024762D01*
X84112857Y-39977143D01*
X84160476Y-39881905D01*
X84208095Y-39691429D01*
X84208095Y-39453333D01*
X84160476Y-39262857D01*
X84112857Y-39167619D01*
X84065238Y-39120000D01*
X83970000Y-39072381D01*
X83208095Y-40072381D02*
X83208095Y-39072381D01*
X83112857Y-39691429D02*
X82827142Y-40072381D01*
X82827142Y-39405714D02*
X83208095Y-39786667D01*
X105042857Y-38452381D02*
X105376191Y-37976190D01*
X105614286Y-38452381D02*
X105614286Y-37452381D01*
X105233333Y-37452381D01*
X105138095Y-37500000D01*
X105090476Y-37547619D01*
X105042857Y-37642857D01*
X105042857Y-37785714D01*
X105090476Y-37880952D01*
X105138095Y-37928571D01*
X105233333Y-37976190D01*
X105614286Y-37976190D01*
X104709524Y-37452381D02*
X104090476Y-37452381D01*
X104423810Y-37833333D01*
X104280952Y-37833333D01*
X104185714Y-37880952D01*
X104138095Y-37928571D01*
X104090476Y-38023810D01*
X104090476Y-38261905D01*
X104138095Y-38357143D01*
X104185714Y-38404762D01*
X104280952Y-38452381D01*
X104566667Y-38452381D01*
X104661905Y-38404762D01*
X104709524Y-38357143D01*
X103471429Y-37452381D02*
X103376190Y-37452381D01*
X103280952Y-37500000D01*
X103233333Y-37547619D01*
X103185714Y-37642857D01*
X103138095Y-37833333D01*
X103138095Y-38071429D01*
X103185714Y-38261905D01*
X103233333Y-38357143D01*
X103280952Y-38404762D01*
X103376190Y-38452381D01*
X103471429Y-38452381D01*
X103566667Y-38404762D01*
X103614286Y-38357143D01*
X103661905Y-38261905D01*
X103709524Y-38071429D01*
X103709524Y-37833333D01*
X103661905Y-37642857D01*
X103614286Y-37547619D01*
X103566667Y-37500000D01*
X103471429Y-37452381D01*
X105471428Y-34252381D02*
X106042857Y-34252381D01*
X105757143Y-34252381D02*
X105757143Y-33252381D01*
X105852381Y-33395238D01*
X105947619Y-33490476D01*
X106042857Y-33538095D01*
X104852381Y-33252381D02*
X104757142Y-33252381D01*
X104661904Y-33300000D01*
X104614285Y-33347619D01*
X104566666Y-33442857D01*
X104519047Y-33633333D01*
X104519047Y-33871429D01*
X104566666Y-34061905D01*
X104614285Y-34157143D01*
X104661904Y-34204762D01*
X104757142Y-34252381D01*
X104852381Y-34252381D01*
X104947619Y-34204762D01*
X104995238Y-34157143D01*
X105042857Y-34061905D01*
X105090476Y-33871429D01*
X105090476Y-33633333D01*
X105042857Y-33442857D01*
X104995238Y-33347619D01*
X104947619Y-33300000D01*
X104852381Y-33252381D01*
X103900000Y-33252381D02*
X103804761Y-33252381D01*
X103709523Y-33300000D01*
X103661904Y-33347619D01*
X103614285Y-33442857D01*
X103566666Y-33633333D01*
X103566666Y-33871429D01*
X103614285Y-34061905D01*
X103661904Y-34157143D01*
X103709523Y-34204762D01*
X103804761Y-34252381D01*
X103900000Y-34252381D01*
X103995238Y-34204762D01*
X104042857Y-34157143D01*
X104090476Y-34061905D01*
X104138095Y-33871429D01*
X104138095Y-33633333D01*
X104090476Y-33442857D01*
X104042857Y-33347619D01*
X103995238Y-33300000D01*
X103900000Y-33252381D01*
X103138095Y-34252381D02*
X103138095Y-33252381D01*
X103042857Y-33871429D02*
X102757142Y-34252381D01*
X102757142Y-33585714D02*
X103138095Y-33966667D01*
X105042857Y-41652381D02*
X105376191Y-41176190D01*
X105614286Y-41652381D02*
X105614286Y-40652381D01*
X105233333Y-40652381D01*
X105138095Y-40700000D01*
X105090476Y-40747619D01*
X105042857Y-40842857D01*
X105042857Y-40985714D01*
X105090476Y-41080952D01*
X105138095Y-41128571D01*
X105233333Y-41176190D01*
X105614286Y-41176190D01*
X104709524Y-40652381D02*
X104090476Y-40652381D01*
X104423810Y-41033333D01*
X104280952Y-41033333D01*
X104185714Y-41080952D01*
X104138095Y-41128571D01*
X104090476Y-41223810D01*
X104090476Y-41461905D01*
X104138095Y-41557143D01*
X104185714Y-41604762D01*
X104280952Y-41652381D01*
X104566667Y-41652381D01*
X104661905Y-41604762D01*
X104709524Y-41557143D01*
X103138095Y-41652381D02*
X103709524Y-41652381D01*
X103423810Y-41652381D02*
X103423810Y-40652381D01*
X103519048Y-40795238D01*
X103614286Y-40890476D01*
X103709524Y-40938095D01*
X105471428Y-37452381D02*
X106042857Y-37452381D01*
X105757143Y-37452381D02*
X105757143Y-36452381D01*
X105852381Y-36595238D01*
X105947619Y-36690476D01*
X106042857Y-36738095D01*
X104852381Y-36452381D02*
X104757142Y-36452381D01*
X104661904Y-36500000D01*
X104614285Y-36547619D01*
X104566666Y-36642857D01*
X104519047Y-36833333D01*
X104519047Y-37071429D01*
X104566666Y-37261905D01*
X104614285Y-37357143D01*
X104661904Y-37404762D01*
X104757142Y-37452381D01*
X104852381Y-37452381D01*
X104947619Y-37404762D01*
X104995238Y-37357143D01*
X105042857Y-37261905D01*
X105090476Y-37071429D01*
X105090476Y-36833333D01*
X105042857Y-36642857D01*
X104995238Y-36547619D01*
X104947619Y-36500000D01*
X104852381Y-36452381D01*
X103900000Y-36452381D02*
X103804761Y-36452381D01*
X103709523Y-36500000D01*
X103661904Y-36547619D01*
X103614285Y-36642857D01*
X103566666Y-36833333D01*
X103566666Y-37071429D01*
X103614285Y-37261905D01*
X103661904Y-37357143D01*
X103709523Y-37404762D01*
X103804761Y-37452381D01*
X103900000Y-37452381D01*
X103995238Y-37404762D01*
X104042857Y-37357143D01*
X104090476Y-37261905D01*
X104138095Y-37071429D01*
X104138095Y-36833333D01*
X104090476Y-36642857D01*
X104042857Y-36547619D01*
X103995238Y-36500000D01*
X103900000Y-36452381D01*
X103138095Y-37452381D02*
X103138095Y-36452381D01*
X103042857Y-37071429D02*
X102757142Y-37452381D01*
X102757142Y-36785714D02*
X103138095Y-37166667D01*
X105012857Y-45072381D02*
X105346191Y-44596190D01*
X105584286Y-45072381D02*
X105584286Y-44072381D01*
X105203333Y-44072381D01*
X105108095Y-44120000D01*
X105060476Y-44167619D01*
X105012857Y-44262857D01*
X105012857Y-44405714D01*
X105060476Y-44500952D01*
X105108095Y-44548571D01*
X105203333Y-44596190D01*
X105584286Y-44596190D01*
X104679524Y-44072381D02*
X104060476Y-44072381D01*
X104393810Y-44453333D01*
X104250952Y-44453333D01*
X104155714Y-44500952D01*
X104108095Y-44548571D01*
X104060476Y-44643810D01*
X104060476Y-44881905D01*
X104108095Y-44977143D01*
X104155714Y-45024762D01*
X104250952Y-45072381D01*
X104536667Y-45072381D01*
X104631905Y-45024762D01*
X104679524Y-44977143D01*
X103679524Y-44167619D02*
X103631905Y-44120000D01*
X103536667Y-44072381D01*
X103298571Y-44072381D01*
X103203333Y-44120000D01*
X103155714Y-44167619D01*
X103108095Y-44262857D01*
X103108095Y-44358095D01*
X103155714Y-44500952D01*
X103727143Y-45072381D01*
X103108095Y-45072381D01*
X105441428Y-40872381D02*
X106012857Y-40872381D01*
X105727143Y-40872381D02*
X105727143Y-39872381D01*
X105822381Y-40015238D01*
X105917619Y-40110476D01*
X106012857Y-40158095D01*
X104822381Y-39872381D02*
X104727142Y-39872381D01*
X104631904Y-39920000D01*
X104584285Y-39967619D01*
X104536666Y-40062857D01*
X104489047Y-40253333D01*
X104489047Y-40491429D01*
X104536666Y-40681905D01*
X104584285Y-40777143D01*
X104631904Y-40824762D01*
X104727142Y-40872381D01*
X104822381Y-40872381D01*
X104917619Y-40824762D01*
X104965238Y-40777143D01*
X105012857Y-40681905D01*
X105060476Y-40491429D01*
X105060476Y-40253333D01*
X105012857Y-40062857D01*
X104965238Y-39967619D01*
X104917619Y-39920000D01*
X104822381Y-39872381D01*
X103870000Y-39872381D02*
X103774761Y-39872381D01*
X103679523Y-39920000D01*
X103631904Y-39967619D01*
X103584285Y-40062857D01*
X103536666Y-40253333D01*
X103536666Y-40491429D01*
X103584285Y-40681905D01*
X103631904Y-40777143D01*
X103679523Y-40824762D01*
X103774761Y-40872381D01*
X103870000Y-40872381D01*
X103965238Y-40824762D01*
X104012857Y-40777143D01*
X104060476Y-40681905D01*
X104108095Y-40491429D01*
X104108095Y-40253333D01*
X104060476Y-40062857D01*
X104012857Y-39967619D01*
X103965238Y-39920000D01*
X103870000Y-39872381D01*
X103108095Y-40872381D02*
X103108095Y-39872381D01*
X103012857Y-40491429D02*
X102727142Y-40872381D01*
X102727142Y-40205714D02*
X103108095Y-40586667D01*
X105042857Y-48152381D02*
X105376191Y-47676190D01*
X105614286Y-48152381D02*
X105614286Y-47152381D01*
X105233333Y-47152381D01*
X105138095Y-47200000D01*
X105090476Y-47247619D01*
X105042857Y-47342857D01*
X105042857Y-47485714D01*
X105090476Y-47580952D01*
X105138095Y-47628571D01*
X105233333Y-47676190D01*
X105614286Y-47676190D01*
X104709524Y-47152381D02*
X104090476Y-47152381D01*
X104423810Y-47533333D01*
X104280952Y-47533333D01*
X104185714Y-47580952D01*
X104138095Y-47628571D01*
X104090476Y-47723810D01*
X104090476Y-47961905D01*
X104138095Y-48057143D01*
X104185714Y-48104762D01*
X104280952Y-48152381D01*
X104566667Y-48152381D01*
X104661905Y-48104762D01*
X104709524Y-48057143D01*
X103757143Y-47152381D02*
X103138095Y-47152381D01*
X103471429Y-47533333D01*
X103328571Y-47533333D01*
X103233333Y-47580952D01*
X103185714Y-47628571D01*
X103138095Y-47723810D01*
X103138095Y-47961905D01*
X103185714Y-48057143D01*
X103233333Y-48104762D01*
X103328571Y-48152381D01*
X103614286Y-48152381D01*
X103709524Y-48104762D01*
X103757143Y-48057143D01*
X105471428Y-43952381D02*
X106042857Y-43952381D01*
X105757143Y-43952381D02*
X105757143Y-42952381D01*
X105852381Y-43095238D01*
X105947619Y-43190476D01*
X106042857Y-43238095D01*
X104852381Y-42952381D02*
X104757142Y-42952381D01*
X104661904Y-43000000D01*
X104614285Y-43047619D01*
X104566666Y-43142857D01*
X104519047Y-43333333D01*
X104519047Y-43571429D01*
X104566666Y-43761905D01*
X104614285Y-43857143D01*
X104661904Y-43904762D01*
X104757142Y-43952381D01*
X104852381Y-43952381D01*
X104947619Y-43904762D01*
X104995238Y-43857143D01*
X105042857Y-43761905D01*
X105090476Y-43571429D01*
X105090476Y-43333333D01*
X105042857Y-43142857D01*
X104995238Y-43047619D01*
X104947619Y-43000000D01*
X104852381Y-42952381D01*
X103900000Y-42952381D02*
X103804761Y-42952381D01*
X103709523Y-43000000D01*
X103661904Y-43047619D01*
X103614285Y-43142857D01*
X103566666Y-43333333D01*
X103566666Y-43571429D01*
X103614285Y-43761905D01*
X103661904Y-43857143D01*
X103709523Y-43904762D01*
X103804761Y-43952381D01*
X103900000Y-43952381D01*
X103995238Y-43904762D01*
X104042857Y-43857143D01*
X104090476Y-43761905D01*
X104138095Y-43571429D01*
X104138095Y-43333333D01*
X104090476Y-43142857D01*
X104042857Y-43047619D01*
X103995238Y-43000000D01*
X103900000Y-42952381D01*
X103138095Y-43952381D02*
X103138095Y-42952381D01*
X103042857Y-43571429D02*
X102757142Y-43952381D01*
X102757142Y-43285714D02*
X103138095Y-43666667D01*
X105012857Y-51422381D02*
X105346191Y-50946190D01*
X105584286Y-51422381D02*
X105584286Y-50422381D01*
X105203333Y-50422381D01*
X105108095Y-50470000D01*
X105060476Y-50517619D01*
X105012857Y-50612857D01*
X105012857Y-50755714D01*
X105060476Y-50850952D01*
X105108095Y-50898571D01*
X105203333Y-50946190D01*
X105584286Y-50946190D01*
X104679524Y-50422381D02*
X104060476Y-50422381D01*
X104393810Y-50803333D01*
X104250952Y-50803333D01*
X104155714Y-50850952D01*
X104108095Y-50898571D01*
X104060476Y-50993810D01*
X104060476Y-51231905D01*
X104108095Y-51327143D01*
X104155714Y-51374762D01*
X104250952Y-51422381D01*
X104536667Y-51422381D01*
X104631905Y-51374762D01*
X104679524Y-51327143D01*
X103203333Y-50755714D02*
X103203333Y-51422381D01*
X103441429Y-50374762D02*
X103679524Y-51089048D01*
X103060476Y-51089048D01*
X105441428Y-47222381D02*
X106012857Y-47222381D01*
X105727143Y-47222381D02*
X105727143Y-46222381D01*
X105822381Y-46365238D01*
X105917619Y-46460476D01*
X106012857Y-46508095D01*
X104822381Y-46222381D02*
X104727142Y-46222381D01*
X104631904Y-46270000D01*
X104584285Y-46317619D01*
X104536666Y-46412857D01*
X104489047Y-46603333D01*
X104489047Y-46841429D01*
X104536666Y-47031905D01*
X104584285Y-47127143D01*
X104631904Y-47174762D01*
X104727142Y-47222381D01*
X104822381Y-47222381D01*
X104917619Y-47174762D01*
X104965238Y-47127143D01*
X105012857Y-47031905D01*
X105060476Y-46841429D01*
X105060476Y-46603333D01*
X105012857Y-46412857D01*
X104965238Y-46317619D01*
X104917619Y-46270000D01*
X104822381Y-46222381D01*
X103870000Y-46222381D02*
X103774761Y-46222381D01*
X103679523Y-46270000D01*
X103631904Y-46317619D01*
X103584285Y-46412857D01*
X103536666Y-46603333D01*
X103536666Y-46841429D01*
X103584285Y-47031905D01*
X103631904Y-47127143D01*
X103679523Y-47174762D01*
X103774761Y-47222381D01*
X103870000Y-47222381D01*
X103965238Y-47174762D01*
X104012857Y-47127143D01*
X104060476Y-47031905D01*
X104108095Y-46841429D01*
X104108095Y-46603333D01*
X104060476Y-46412857D01*
X104012857Y-46317619D01*
X103965238Y-46270000D01*
X103870000Y-46222381D01*
X103108095Y-47222381D02*
X103108095Y-46222381D01*
X103012857Y-46841429D02*
X102727142Y-47222381D01*
X102727142Y-46555714D02*
X103108095Y-46936667D01*
X105042857Y-54352381D02*
X105376191Y-53876190D01*
X105614286Y-54352381D02*
X105614286Y-53352381D01*
X105233333Y-53352381D01*
X105138095Y-53400000D01*
X105090476Y-53447619D01*
X105042857Y-53542857D01*
X105042857Y-53685714D01*
X105090476Y-53780952D01*
X105138095Y-53828571D01*
X105233333Y-53876190D01*
X105614286Y-53876190D01*
X104709524Y-53352381D02*
X104090476Y-53352381D01*
X104423810Y-53733333D01*
X104280952Y-53733333D01*
X104185714Y-53780952D01*
X104138095Y-53828571D01*
X104090476Y-53923810D01*
X104090476Y-54161905D01*
X104138095Y-54257143D01*
X104185714Y-54304762D01*
X104280952Y-54352381D01*
X104566667Y-54352381D01*
X104661905Y-54304762D01*
X104709524Y-54257143D01*
X103185714Y-53352381D02*
X103661905Y-53352381D01*
X103709524Y-53828571D01*
X103661905Y-53780952D01*
X103566667Y-53733333D01*
X103328571Y-53733333D01*
X103233333Y-53780952D01*
X103185714Y-53828571D01*
X103138095Y-53923810D01*
X103138095Y-54161905D01*
X103185714Y-54257143D01*
X103233333Y-54304762D01*
X103328571Y-54352381D01*
X103566667Y-54352381D01*
X103661905Y-54304762D01*
X103709524Y-54257143D01*
X105471428Y-50152381D02*
X106042857Y-50152381D01*
X105757143Y-50152381D02*
X105757143Y-49152381D01*
X105852381Y-49295238D01*
X105947619Y-49390476D01*
X106042857Y-49438095D01*
X104852381Y-49152381D02*
X104757142Y-49152381D01*
X104661904Y-49200000D01*
X104614285Y-49247619D01*
X104566666Y-49342857D01*
X104519047Y-49533333D01*
X104519047Y-49771429D01*
X104566666Y-49961905D01*
X104614285Y-50057143D01*
X104661904Y-50104762D01*
X104757142Y-50152381D01*
X104852381Y-50152381D01*
X104947619Y-50104762D01*
X104995238Y-50057143D01*
X105042857Y-49961905D01*
X105090476Y-49771429D01*
X105090476Y-49533333D01*
X105042857Y-49342857D01*
X104995238Y-49247619D01*
X104947619Y-49200000D01*
X104852381Y-49152381D01*
X103900000Y-49152381D02*
X103804761Y-49152381D01*
X103709523Y-49200000D01*
X103661904Y-49247619D01*
X103614285Y-49342857D01*
X103566666Y-49533333D01*
X103566666Y-49771429D01*
X103614285Y-49961905D01*
X103661904Y-50057143D01*
X103709523Y-50104762D01*
X103804761Y-50152381D01*
X103900000Y-50152381D01*
X103995238Y-50104762D01*
X104042857Y-50057143D01*
X104090476Y-49961905D01*
X104138095Y-49771429D01*
X104138095Y-49533333D01*
X104090476Y-49342857D01*
X104042857Y-49247619D01*
X103995238Y-49200000D01*
X103900000Y-49152381D01*
X103138095Y-50152381D02*
X103138095Y-49152381D01*
X103042857Y-49771429D02*
X102757142Y-50152381D01*
X102757142Y-49485714D02*
X103138095Y-49866667D01*
X105012857Y-57772381D02*
X105346191Y-57296190D01*
X105584286Y-57772381D02*
X105584286Y-56772381D01*
X105203333Y-56772381D01*
X105108095Y-56820000D01*
X105060476Y-56867619D01*
X105012857Y-56962857D01*
X105012857Y-57105714D01*
X105060476Y-57200952D01*
X105108095Y-57248571D01*
X105203333Y-57296190D01*
X105584286Y-57296190D01*
X104679524Y-56772381D02*
X104060476Y-56772381D01*
X104393810Y-57153333D01*
X104250952Y-57153333D01*
X104155714Y-57200952D01*
X104108095Y-57248571D01*
X104060476Y-57343810D01*
X104060476Y-57581905D01*
X104108095Y-57677143D01*
X104155714Y-57724762D01*
X104250952Y-57772381D01*
X104536667Y-57772381D01*
X104631905Y-57724762D01*
X104679524Y-57677143D01*
X103203333Y-56772381D02*
X103393810Y-56772381D01*
X103489048Y-56820000D01*
X103536667Y-56867619D01*
X103631905Y-57010476D01*
X103679524Y-57200952D01*
X103679524Y-57581905D01*
X103631905Y-57677143D01*
X103584286Y-57724762D01*
X103489048Y-57772381D01*
X103298571Y-57772381D01*
X103203333Y-57724762D01*
X103155714Y-57677143D01*
X103108095Y-57581905D01*
X103108095Y-57343810D01*
X103155714Y-57248571D01*
X103203333Y-57200952D01*
X103298571Y-57153333D01*
X103489048Y-57153333D01*
X103584286Y-57200952D01*
X103631905Y-57248571D01*
X103679524Y-57343810D01*
X105441428Y-53572381D02*
X106012857Y-53572381D01*
X105727143Y-53572381D02*
X105727143Y-52572381D01*
X105822381Y-52715238D01*
X105917619Y-52810476D01*
X106012857Y-52858095D01*
X104822381Y-52572381D02*
X104727142Y-52572381D01*
X104631904Y-52620000D01*
X104584285Y-52667619D01*
X104536666Y-52762857D01*
X104489047Y-52953333D01*
X104489047Y-53191429D01*
X104536666Y-53381905D01*
X104584285Y-53477143D01*
X104631904Y-53524762D01*
X104727142Y-53572381D01*
X104822381Y-53572381D01*
X104917619Y-53524762D01*
X104965238Y-53477143D01*
X105012857Y-53381905D01*
X105060476Y-53191429D01*
X105060476Y-52953333D01*
X105012857Y-52762857D01*
X104965238Y-52667619D01*
X104917619Y-52620000D01*
X104822381Y-52572381D01*
X103870000Y-52572381D02*
X103774761Y-52572381D01*
X103679523Y-52620000D01*
X103631904Y-52667619D01*
X103584285Y-52762857D01*
X103536666Y-52953333D01*
X103536666Y-53191429D01*
X103584285Y-53381905D01*
X103631904Y-53477143D01*
X103679523Y-53524762D01*
X103774761Y-53572381D01*
X103870000Y-53572381D01*
X103965238Y-53524762D01*
X104012857Y-53477143D01*
X104060476Y-53381905D01*
X104108095Y-53191429D01*
X104108095Y-52953333D01*
X104060476Y-52762857D01*
X104012857Y-52667619D01*
X103965238Y-52620000D01*
X103870000Y-52572381D01*
X103108095Y-53572381D02*
X103108095Y-52572381D01*
X103012857Y-53191429D02*
X102727142Y-53572381D01*
X102727142Y-52905714D02*
X103108095Y-53286667D01*
X105042857Y-61052381D02*
X105376191Y-60576190D01*
X105614286Y-61052381D02*
X105614286Y-60052381D01*
X105233333Y-60052381D01*
X105138095Y-60100000D01*
X105090476Y-60147619D01*
X105042857Y-60242857D01*
X105042857Y-60385714D01*
X105090476Y-60480952D01*
X105138095Y-60528571D01*
X105233333Y-60576190D01*
X105614286Y-60576190D01*
X104709524Y-60052381D02*
X104090476Y-60052381D01*
X104423810Y-60433333D01*
X104280952Y-60433333D01*
X104185714Y-60480952D01*
X104138095Y-60528571D01*
X104090476Y-60623810D01*
X104090476Y-60861905D01*
X104138095Y-60957143D01*
X104185714Y-61004762D01*
X104280952Y-61052381D01*
X104566667Y-61052381D01*
X104661905Y-61004762D01*
X104709524Y-60957143D01*
X103757143Y-60052381D02*
X103090476Y-60052381D01*
X103519048Y-61052381D01*
X105471428Y-56852381D02*
X106042857Y-56852381D01*
X105757143Y-56852381D02*
X105757143Y-55852381D01*
X105852381Y-55995238D01*
X105947619Y-56090476D01*
X106042857Y-56138095D01*
X104852381Y-55852381D02*
X104757142Y-55852381D01*
X104661904Y-55900000D01*
X104614285Y-55947619D01*
X104566666Y-56042857D01*
X104519047Y-56233333D01*
X104519047Y-56471429D01*
X104566666Y-56661905D01*
X104614285Y-56757143D01*
X104661904Y-56804762D01*
X104757142Y-56852381D01*
X104852381Y-56852381D01*
X104947619Y-56804762D01*
X104995238Y-56757143D01*
X105042857Y-56661905D01*
X105090476Y-56471429D01*
X105090476Y-56233333D01*
X105042857Y-56042857D01*
X104995238Y-55947619D01*
X104947619Y-55900000D01*
X104852381Y-55852381D01*
X103900000Y-55852381D02*
X103804761Y-55852381D01*
X103709523Y-55900000D01*
X103661904Y-55947619D01*
X103614285Y-56042857D01*
X103566666Y-56233333D01*
X103566666Y-56471429D01*
X103614285Y-56661905D01*
X103661904Y-56757143D01*
X103709523Y-56804762D01*
X103804761Y-56852381D01*
X103900000Y-56852381D01*
X103995238Y-56804762D01*
X104042857Y-56757143D01*
X104090476Y-56661905D01*
X104138095Y-56471429D01*
X104138095Y-56233333D01*
X104090476Y-56042857D01*
X104042857Y-55947619D01*
X103995238Y-55900000D01*
X103900000Y-55852381D01*
X103138095Y-56852381D02*
X103138095Y-55852381D01*
X103042857Y-56471429D02*
X102757142Y-56852381D01*
X102757142Y-56185714D02*
X103138095Y-56566667D01*
D19*
X59290857Y-37855071D02*
X59290857Y-38780357D01*
X59236429Y-38889214D01*
X59182000Y-38943643D01*
X59073143Y-38998071D01*
X58855429Y-38998071D01*
X58746571Y-38943643D01*
X58692143Y-38889214D01*
X58637714Y-38780357D01*
X58637714Y-37855071D01*
X57494714Y-38998071D02*
X58147857Y-38998071D01*
X57821285Y-38998071D02*
X57821285Y-37855071D01*
X57930142Y-38018357D01*
X58039000Y-38127214D01*
X58147857Y-38181643D01*
X61658501Y-39899167D02*
X61065834Y-39899167D01*
X61446834Y-40788167D01*
X60303834Y-39899167D02*
X60727167Y-39899167D01*
X60769501Y-40322500D01*
X60727167Y-40280167D01*
X60642501Y-40237833D01*
X60430834Y-40237833D01*
X60346167Y-40280167D01*
X60303834Y-40322500D01*
X60261501Y-40407167D01*
X60261501Y-40618833D01*
X60303834Y-40703500D01*
X60346167Y-40745833D01*
X60430834Y-40788167D01*
X60642501Y-40788167D01*
X60727167Y-40745833D01*
X60769501Y-40703500D01*
X59457167Y-40788167D02*
X59880500Y-40788167D01*
X59880500Y-39899167D01*
X58864500Y-40322500D02*
X58737500Y-40364833D01*
X58695167Y-40407167D01*
X58652833Y-40491833D01*
X58652833Y-40618833D01*
X58695167Y-40703500D01*
X58737500Y-40745833D01*
X58822167Y-40788167D01*
X59160833Y-40788167D01*
X59160833Y-39899167D01*
X58864500Y-39899167D01*
X58779833Y-39941500D01*
X58737500Y-39983833D01*
X58695167Y-40068500D01*
X58695167Y-40153167D01*
X58737500Y-40237833D01*
X58779833Y-40280167D01*
X58864500Y-40322500D01*
X59160833Y-40322500D01*
X57763833Y-40703500D02*
X57806167Y-40745833D01*
X57933167Y-40788167D01*
X58017833Y-40788167D01*
X58144833Y-40745833D01*
X58229500Y-40661167D01*
X58271833Y-40576500D01*
X58314167Y-40407167D01*
X58314167Y-40280167D01*
X58271833Y-40110833D01*
X58229500Y-40026167D01*
X58144833Y-39941500D01*
X58017833Y-39899167D01*
X57933167Y-39899167D01*
X57806167Y-39941500D01*
X57763833Y-39983833D01*
X56917167Y-40788167D02*
X57425167Y-40788167D01*
X57171167Y-40788167D02*
X57171167Y-39899167D01*
X57255833Y-40026167D01*
X57340500Y-40110833D01*
X57425167Y-40153167D01*
X56620833Y-39899167D02*
X56028166Y-39899167D01*
X56409166Y-40788167D01*
X55308499Y-39899167D02*
X55477833Y-39899167D01*
X55562499Y-39941500D01*
X55604833Y-39983833D01*
X55689499Y-40110833D01*
X55731833Y-40280167D01*
X55731833Y-40618833D01*
X55689499Y-40703500D01*
X55647166Y-40745833D01*
X55562499Y-40788167D01*
X55393166Y-40788167D01*
X55308499Y-40745833D01*
X55266166Y-40703500D01*
X55223833Y-40618833D01*
X55223833Y-40407167D01*
X55266166Y-40322500D01*
X55308499Y-40280167D01*
X55393166Y-40237833D01*
X55562499Y-40237833D01*
X55647166Y-40280167D01*
X55689499Y-40322500D01*
X55731833Y-40407167D01*
D10*
X77621905Y-80782381D02*
X77621905Y-81591905D01*
X77574286Y-81687143D01*
X77526667Y-81734762D01*
X77431429Y-81782381D01*
X77240952Y-81782381D01*
X77145714Y-81734762D01*
X77098095Y-81687143D01*
X77050476Y-81591905D01*
X77050476Y-80782381D01*
X76669524Y-80782381D02*
X76050476Y-80782381D01*
X76383810Y-81163333D01*
X76240952Y-81163333D01*
X76145714Y-81210952D01*
X76098095Y-81258571D01*
X76050476Y-81353810D01*
X76050476Y-81591905D01*
X76098095Y-81687143D01*
X76145714Y-81734762D01*
X76240952Y-81782381D01*
X76526667Y-81782381D01*
X76621905Y-81734762D01*
X76669524Y-81687143D01*
X79693333Y-88782381D02*
X79693333Y-87782381D01*
X78645714Y-88782381D02*
X78979048Y-88306190D01*
X79217143Y-88782381D02*
X79217143Y-87782381D01*
X78836190Y-87782381D01*
X78740952Y-87830000D01*
X78693333Y-87877619D01*
X78645714Y-87972857D01*
X78645714Y-88115714D01*
X78693333Y-88210952D01*
X78740952Y-88258571D01*
X78836190Y-88306190D01*
X79217143Y-88306190D01*
X77883809Y-88258571D02*
X78217143Y-88258571D01*
X78217143Y-88782381D02*
X78217143Y-87782381D01*
X77740952Y-87782381D01*
X77455238Y-87782381D02*
X76788571Y-87782381D01*
X77217143Y-88782381D01*
X75883809Y-88782381D02*
X76455238Y-88782381D01*
X76169524Y-88782381D02*
X76169524Y-87782381D01*
X76264762Y-87925238D01*
X76360000Y-88020476D01*
X76455238Y-88068095D01*
X75264762Y-87782381D02*
X75169523Y-87782381D01*
X75074285Y-87830000D01*
X75026666Y-87877619D01*
X74979047Y-87972857D01*
X74931428Y-88163333D01*
X74931428Y-88401429D01*
X74979047Y-88591905D01*
X75026666Y-88687143D01*
X75074285Y-88734762D01*
X75169523Y-88782381D01*
X75264762Y-88782381D01*
X75360000Y-88734762D01*
X75407619Y-88687143D01*
X75455238Y-88591905D01*
X75502857Y-88401429D01*
X75502857Y-88163333D01*
X75455238Y-87972857D01*
X75407619Y-87877619D01*
X75360000Y-87830000D01*
X75264762Y-87782381D01*
X74598095Y-87782381D02*
X73979047Y-87782381D01*
X74312381Y-88163333D01*
X74169523Y-88163333D01*
X74074285Y-88210952D01*
X74026666Y-88258571D01*
X73979047Y-88353810D01*
X73979047Y-88591905D01*
X74026666Y-88687143D01*
X74074285Y-88734762D01*
X74169523Y-88782381D01*
X74455238Y-88782381D01*
X74550476Y-88734762D01*
X74598095Y-88687143D01*
X77611905Y-74302381D02*
X77611905Y-75111905D01*
X77564286Y-75207143D01*
X77516667Y-75254762D01*
X77421429Y-75302381D01*
X77230952Y-75302381D01*
X77135714Y-75254762D01*
X77088095Y-75207143D01*
X77040476Y-75111905D01*
X77040476Y-74302381D01*
X76135714Y-74635714D02*
X76135714Y-75302381D01*
X76373810Y-74254762D02*
X76611905Y-74969048D01*
X75992857Y-74969048D01*
X79683333Y-82302381D02*
X79683333Y-81302381D01*
X78635714Y-82302381D02*
X78969048Y-81826190D01*
X79207143Y-82302381D02*
X79207143Y-81302381D01*
X78826190Y-81302381D01*
X78730952Y-81350000D01*
X78683333Y-81397619D01*
X78635714Y-81492857D01*
X78635714Y-81635714D01*
X78683333Y-81730952D01*
X78730952Y-81778571D01*
X78826190Y-81826190D01*
X79207143Y-81826190D01*
X77873809Y-81778571D02*
X78207143Y-81778571D01*
X78207143Y-82302381D02*
X78207143Y-81302381D01*
X77730952Y-81302381D01*
X77445238Y-81302381D02*
X76778571Y-81302381D01*
X77207143Y-82302381D01*
X75873809Y-82302381D02*
X76445238Y-82302381D01*
X76159524Y-82302381D02*
X76159524Y-81302381D01*
X76254762Y-81445238D01*
X76350000Y-81540476D01*
X76445238Y-81588095D01*
X75254762Y-81302381D02*
X75159523Y-81302381D01*
X75064285Y-81350000D01*
X75016666Y-81397619D01*
X74969047Y-81492857D01*
X74921428Y-81683333D01*
X74921428Y-81921429D01*
X74969047Y-82111905D01*
X75016666Y-82207143D01*
X75064285Y-82254762D01*
X75159523Y-82302381D01*
X75254762Y-82302381D01*
X75350000Y-82254762D01*
X75397619Y-82207143D01*
X75445238Y-82111905D01*
X75492857Y-81921429D01*
X75492857Y-81683333D01*
X75445238Y-81492857D01*
X75397619Y-81397619D01*
X75350000Y-81350000D01*
X75254762Y-81302381D01*
X74588095Y-81302381D02*
X73969047Y-81302381D01*
X74302381Y-81683333D01*
X74159523Y-81683333D01*
X74064285Y-81730952D01*
X74016666Y-81778571D01*
X73969047Y-81873810D01*
X73969047Y-82111905D01*
X74016666Y-82207143D01*
X74064285Y-82254762D01*
X74159523Y-82302381D01*
X74445238Y-82302381D01*
X74540476Y-82254762D01*
X74588095Y-82207143D01*
X77611905Y-67952381D02*
X77611905Y-68761905D01*
X77564286Y-68857143D01*
X77516667Y-68904762D01*
X77421429Y-68952381D01*
X77230952Y-68952381D01*
X77135714Y-68904762D01*
X77088095Y-68857143D01*
X77040476Y-68761905D01*
X77040476Y-67952381D01*
X76088095Y-67952381D02*
X76564286Y-67952381D01*
X76611905Y-68428571D01*
X76564286Y-68380952D01*
X76469048Y-68333333D01*
X76230952Y-68333333D01*
X76135714Y-68380952D01*
X76088095Y-68428571D01*
X76040476Y-68523810D01*
X76040476Y-68761905D01*
X76088095Y-68857143D01*
X76135714Y-68904762D01*
X76230952Y-68952381D01*
X76469048Y-68952381D01*
X76564286Y-68904762D01*
X76611905Y-68857143D01*
X79683333Y-75952381D02*
X79683333Y-74952381D01*
X78635714Y-75952381D02*
X78969048Y-75476190D01*
X79207143Y-75952381D02*
X79207143Y-74952381D01*
X78826190Y-74952381D01*
X78730952Y-75000000D01*
X78683333Y-75047619D01*
X78635714Y-75142857D01*
X78635714Y-75285714D01*
X78683333Y-75380952D01*
X78730952Y-75428571D01*
X78826190Y-75476190D01*
X79207143Y-75476190D01*
X77873809Y-75428571D02*
X78207143Y-75428571D01*
X78207143Y-75952381D02*
X78207143Y-74952381D01*
X77730952Y-74952381D01*
X77445238Y-74952381D02*
X76778571Y-74952381D01*
X77207143Y-75952381D01*
X75873809Y-75952381D02*
X76445238Y-75952381D01*
X76159524Y-75952381D02*
X76159524Y-74952381D01*
X76254762Y-75095238D01*
X76350000Y-75190476D01*
X76445238Y-75238095D01*
X75254762Y-74952381D02*
X75159523Y-74952381D01*
X75064285Y-75000000D01*
X75016666Y-75047619D01*
X74969047Y-75142857D01*
X74921428Y-75333333D01*
X74921428Y-75571429D01*
X74969047Y-75761905D01*
X75016666Y-75857143D01*
X75064285Y-75904762D01*
X75159523Y-75952381D01*
X75254762Y-75952381D01*
X75350000Y-75904762D01*
X75397619Y-75857143D01*
X75445238Y-75761905D01*
X75492857Y-75571429D01*
X75492857Y-75333333D01*
X75445238Y-75142857D01*
X75397619Y-75047619D01*
X75350000Y-75000000D01*
X75254762Y-74952381D01*
X74588095Y-74952381D02*
X73969047Y-74952381D01*
X74302381Y-75333333D01*
X74159523Y-75333333D01*
X74064285Y-75380952D01*
X74016666Y-75428571D01*
X73969047Y-75523810D01*
X73969047Y-75761905D01*
X74016666Y-75857143D01*
X74064285Y-75904762D01*
X74159523Y-75952381D01*
X74445238Y-75952381D01*
X74540476Y-75904762D01*
X74588095Y-75857143D01*
X77611905Y-61602381D02*
X77611905Y-62411905D01*
X77564286Y-62507143D01*
X77516667Y-62554762D01*
X77421429Y-62602381D01*
X77230952Y-62602381D01*
X77135714Y-62554762D01*
X77088095Y-62507143D01*
X77040476Y-62411905D01*
X77040476Y-61602381D01*
X76135714Y-61602381D02*
X76326191Y-61602381D01*
X76421429Y-61650000D01*
X76469048Y-61697619D01*
X76564286Y-61840476D01*
X76611905Y-62030952D01*
X76611905Y-62411905D01*
X76564286Y-62507143D01*
X76516667Y-62554762D01*
X76421429Y-62602381D01*
X76230952Y-62602381D01*
X76135714Y-62554762D01*
X76088095Y-62507143D01*
X76040476Y-62411905D01*
X76040476Y-62173810D01*
X76088095Y-62078571D01*
X76135714Y-62030952D01*
X76230952Y-61983333D01*
X76421429Y-61983333D01*
X76516667Y-62030952D01*
X76564286Y-62078571D01*
X76611905Y-62173810D01*
X79683333Y-69602381D02*
X79683333Y-68602381D01*
X78635714Y-69602381D02*
X78969048Y-69126190D01*
X79207143Y-69602381D02*
X79207143Y-68602381D01*
X78826190Y-68602381D01*
X78730952Y-68650000D01*
X78683333Y-68697619D01*
X78635714Y-68792857D01*
X78635714Y-68935714D01*
X78683333Y-69030952D01*
X78730952Y-69078571D01*
X78826190Y-69126190D01*
X79207143Y-69126190D01*
X77873809Y-69078571D02*
X78207143Y-69078571D01*
X78207143Y-69602381D02*
X78207143Y-68602381D01*
X77730952Y-68602381D01*
X77445238Y-68602381D02*
X76778571Y-68602381D01*
X77207143Y-69602381D01*
X75873809Y-69602381D02*
X76445238Y-69602381D01*
X76159524Y-69602381D02*
X76159524Y-68602381D01*
X76254762Y-68745238D01*
X76350000Y-68840476D01*
X76445238Y-68888095D01*
X75254762Y-68602381D02*
X75159523Y-68602381D01*
X75064285Y-68650000D01*
X75016666Y-68697619D01*
X74969047Y-68792857D01*
X74921428Y-68983333D01*
X74921428Y-69221429D01*
X74969047Y-69411905D01*
X75016666Y-69507143D01*
X75064285Y-69554762D01*
X75159523Y-69602381D01*
X75254762Y-69602381D01*
X75350000Y-69554762D01*
X75397619Y-69507143D01*
X75445238Y-69411905D01*
X75492857Y-69221429D01*
X75492857Y-68983333D01*
X75445238Y-68792857D01*
X75397619Y-68697619D01*
X75350000Y-68650000D01*
X75254762Y-68602381D01*
X74588095Y-68602381D02*
X73969047Y-68602381D01*
X74302381Y-68983333D01*
X74159523Y-68983333D01*
X74064285Y-69030952D01*
X74016666Y-69078571D01*
X73969047Y-69173810D01*
X73969047Y-69411905D01*
X74016666Y-69507143D01*
X74064285Y-69554762D01*
X74159523Y-69602381D01*
X74445238Y-69602381D01*
X74540476Y-69554762D01*
X74588095Y-69507143D01*
X112601905Y-68762381D02*
X112601905Y-69571905D01*
X112554286Y-69667143D01*
X112506667Y-69714762D01*
X112411429Y-69762381D01*
X112220952Y-69762381D01*
X112125714Y-69714762D01*
X112078095Y-69667143D01*
X112030476Y-69571905D01*
X112030476Y-68762381D01*
X111649524Y-68762381D02*
X110982857Y-68762381D01*
X111411429Y-69762381D01*
X114673333Y-62762381D02*
X114673333Y-61762381D01*
X113625714Y-62762381D02*
X113959048Y-62286190D01*
X114197143Y-62762381D02*
X114197143Y-61762381D01*
X113816190Y-61762381D01*
X113720952Y-61810000D01*
X113673333Y-61857619D01*
X113625714Y-61952857D01*
X113625714Y-62095714D01*
X113673333Y-62190952D01*
X113720952Y-62238571D01*
X113816190Y-62286190D01*
X114197143Y-62286190D01*
X112863809Y-62238571D02*
X113197143Y-62238571D01*
X113197143Y-62762381D02*
X113197143Y-61762381D01*
X112720952Y-61762381D01*
X112435238Y-61762381D02*
X111768571Y-61762381D01*
X112197143Y-62762381D01*
X110863809Y-62762381D02*
X111435238Y-62762381D01*
X111149524Y-62762381D02*
X111149524Y-61762381D01*
X111244762Y-61905238D01*
X111340000Y-62000476D01*
X111435238Y-62048095D01*
X110244762Y-61762381D02*
X110149523Y-61762381D01*
X110054285Y-61810000D01*
X110006666Y-61857619D01*
X109959047Y-61952857D01*
X109911428Y-62143333D01*
X109911428Y-62381429D01*
X109959047Y-62571905D01*
X110006666Y-62667143D01*
X110054285Y-62714762D01*
X110149523Y-62762381D01*
X110244762Y-62762381D01*
X110340000Y-62714762D01*
X110387619Y-62667143D01*
X110435238Y-62571905D01*
X110482857Y-62381429D01*
X110482857Y-62143333D01*
X110435238Y-61952857D01*
X110387619Y-61857619D01*
X110340000Y-61810000D01*
X110244762Y-61762381D01*
X109578095Y-61762381D02*
X108959047Y-61762381D01*
X109292381Y-62143333D01*
X109149523Y-62143333D01*
X109054285Y-62190952D01*
X109006666Y-62238571D01*
X108959047Y-62333810D01*
X108959047Y-62571905D01*
X109006666Y-62667143D01*
X109054285Y-62714762D01*
X109149523Y-62762381D01*
X109435238Y-62762381D01*
X109530476Y-62714762D01*
X109578095Y-62667143D01*
X112601905Y-75112381D02*
X112601905Y-75921905D01*
X112554286Y-76017143D01*
X112506667Y-76064762D01*
X112411429Y-76112381D01*
X112220952Y-76112381D01*
X112125714Y-76064762D01*
X112078095Y-76017143D01*
X112030476Y-75921905D01*
X112030476Y-75112381D01*
X111411429Y-75540952D02*
X111506667Y-75493333D01*
X111554286Y-75445714D01*
X111601905Y-75350476D01*
X111601905Y-75302857D01*
X111554286Y-75207619D01*
X111506667Y-75160000D01*
X111411429Y-75112381D01*
X111220952Y-75112381D01*
X111125714Y-75160000D01*
X111078095Y-75207619D01*
X111030476Y-75302857D01*
X111030476Y-75350476D01*
X111078095Y-75445714D01*
X111125714Y-75493333D01*
X111220952Y-75540952D01*
X111411429Y-75540952D01*
X111506667Y-75588571D01*
X111554286Y-75636190D01*
X111601905Y-75731429D01*
X111601905Y-75921905D01*
X111554286Y-76017143D01*
X111506667Y-76064762D01*
X111411429Y-76112381D01*
X111220952Y-76112381D01*
X111125714Y-76064762D01*
X111078095Y-76017143D01*
X111030476Y-75921905D01*
X111030476Y-75731429D01*
X111078095Y-75636190D01*
X111125714Y-75588571D01*
X111220952Y-75540952D01*
X114673333Y-69112381D02*
X114673333Y-68112381D01*
X113625714Y-69112381D02*
X113959048Y-68636190D01*
X114197143Y-69112381D02*
X114197143Y-68112381D01*
X113816190Y-68112381D01*
X113720952Y-68160000D01*
X113673333Y-68207619D01*
X113625714Y-68302857D01*
X113625714Y-68445714D01*
X113673333Y-68540952D01*
X113720952Y-68588571D01*
X113816190Y-68636190D01*
X114197143Y-68636190D01*
X112863809Y-68588571D02*
X113197143Y-68588571D01*
X113197143Y-69112381D02*
X113197143Y-68112381D01*
X112720952Y-68112381D01*
X112435238Y-68112381D02*
X111768571Y-68112381D01*
X112197143Y-69112381D01*
X110863809Y-69112381D02*
X111435238Y-69112381D01*
X111149524Y-69112381D02*
X111149524Y-68112381D01*
X111244762Y-68255238D01*
X111340000Y-68350476D01*
X111435238Y-68398095D01*
X110244762Y-68112381D02*
X110149523Y-68112381D01*
X110054285Y-68160000D01*
X110006666Y-68207619D01*
X109959047Y-68302857D01*
X109911428Y-68493333D01*
X109911428Y-68731429D01*
X109959047Y-68921905D01*
X110006666Y-69017143D01*
X110054285Y-69064762D01*
X110149523Y-69112381D01*
X110244762Y-69112381D01*
X110340000Y-69064762D01*
X110387619Y-69017143D01*
X110435238Y-68921905D01*
X110482857Y-68731429D01*
X110482857Y-68493333D01*
X110435238Y-68302857D01*
X110387619Y-68207619D01*
X110340000Y-68160000D01*
X110244762Y-68112381D01*
X109578095Y-68112381D02*
X108959047Y-68112381D01*
X109292381Y-68493333D01*
X109149523Y-68493333D01*
X109054285Y-68540952D01*
X109006666Y-68588571D01*
X108959047Y-68683810D01*
X108959047Y-68921905D01*
X109006666Y-69017143D01*
X109054285Y-69064762D01*
X109149523Y-69112381D01*
X109435238Y-69112381D01*
X109530476Y-69064762D01*
X109578095Y-69017143D01*
X112601905Y-81462381D02*
X112601905Y-82271905D01*
X112554286Y-82367143D01*
X112506667Y-82414762D01*
X112411429Y-82462381D01*
X112220952Y-82462381D01*
X112125714Y-82414762D01*
X112078095Y-82367143D01*
X112030476Y-82271905D01*
X112030476Y-81462381D01*
X111506667Y-82462381D02*
X111316191Y-82462381D01*
X111220952Y-82414762D01*
X111173333Y-82367143D01*
X111078095Y-82224286D01*
X111030476Y-82033810D01*
X111030476Y-81652857D01*
X111078095Y-81557619D01*
X111125714Y-81510000D01*
X111220952Y-81462381D01*
X111411429Y-81462381D01*
X111506667Y-81510000D01*
X111554286Y-81557619D01*
X111601905Y-81652857D01*
X111601905Y-81890952D01*
X111554286Y-81986190D01*
X111506667Y-82033810D01*
X111411429Y-82081429D01*
X111220952Y-82081429D01*
X111125714Y-82033810D01*
X111078095Y-81986190D01*
X111030476Y-81890952D01*
X114673333Y-75462381D02*
X114673333Y-74462381D01*
X113625714Y-75462381D02*
X113959048Y-74986190D01*
X114197143Y-75462381D02*
X114197143Y-74462381D01*
X113816190Y-74462381D01*
X113720952Y-74510000D01*
X113673333Y-74557619D01*
X113625714Y-74652857D01*
X113625714Y-74795714D01*
X113673333Y-74890952D01*
X113720952Y-74938571D01*
X113816190Y-74986190D01*
X114197143Y-74986190D01*
X112863809Y-74938571D02*
X113197143Y-74938571D01*
X113197143Y-75462381D02*
X113197143Y-74462381D01*
X112720952Y-74462381D01*
X112435238Y-74462381D02*
X111768571Y-74462381D01*
X112197143Y-75462381D01*
X110863809Y-75462381D02*
X111435238Y-75462381D01*
X111149524Y-75462381D02*
X111149524Y-74462381D01*
X111244762Y-74605238D01*
X111340000Y-74700476D01*
X111435238Y-74748095D01*
X110244762Y-74462381D02*
X110149523Y-74462381D01*
X110054285Y-74510000D01*
X110006666Y-74557619D01*
X109959047Y-74652857D01*
X109911428Y-74843333D01*
X109911428Y-75081429D01*
X109959047Y-75271905D01*
X110006666Y-75367143D01*
X110054285Y-75414762D01*
X110149523Y-75462381D01*
X110244762Y-75462381D01*
X110340000Y-75414762D01*
X110387619Y-75367143D01*
X110435238Y-75271905D01*
X110482857Y-75081429D01*
X110482857Y-74843333D01*
X110435238Y-74652857D01*
X110387619Y-74557619D01*
X110340000Y-74510000D01*
X110244762Y-74462381D01*
X109578095Y-74462381D02*
X108959047Y-74462381D01*
X109292381Y-74843333D01*
X109149523Y-74843333D01*
X109054285Y-74890952D01*
X109006666Y-74938571D01*
X108959047Y-75033810D01*
X108959047Y-75271905D01*
X109006666Y-75367143D01*
X109054285Y-75414762D01*
X109149523Y-75462381D01*
X109435238Y-75462381D01*
X109530476Y-75414762D01*
X109578095Y-75367143D01*
X113078095Y-87812381D02*
X113078095Y-88621905D01*
X113030476Y-88717143D01*
X112982857Y-88764762D01*
X112887619Y-88812381D01*
X112697142Y-88812381D01*
X112601904Y-88764762D01*
X112554285Y-88717143D01*
X112506666Y-88621905D01*
X112506666Y-87812381D01*
X111506666Y-88812381D02*
X112078095Y-88812381D01*
X111792381Y-88812381D02*
X111792381Y-87812381D01*
X111887619Y-87955238D01*
X111982857Y-88050476D01*
X112078095Y-88098095D01*
X110887619Y-87812381D02*
X110792380Y-87812381D01*
X110697142Y-87860000D01*
X110649523Y-87907619D01*
X110601904Y-88002857D01*
X110554285Y-88193333D01*
X110554285Y-88431429D01*
X110601904Y-88621905D01*
X110649523Y-88717143D01*
X110697142Y-88764762D01*
X110792380Y-88812381D01*
X110887619Y-88812381D01*
X110982857Y-88764762D01*
X111030476Y-88717143D01*
X111078095Y-88621905D01*
X111125714Y-88431429D01*
X111125714Y-88193333D01*
X111078095Y-88002857D01*
X111030476Y-87907619D01*
X110982857Y-87860000D01*
X110887619Y-87812381D01*
X114673333Y-81812381D02*
X114673333Y-80812381D01*
X113625714Y-81812381D02*
X113959048Y-81336190D01*
X114197143Y-81812381D02*
X114197143Y-80812381D01*
X113816190Y-80812381D01*
X113720952Y-80860000D01*
X113673333Y-80907619D01*
X113625714Y-81002857D01*
X113625714Y-81145714D01*
X113673333Y-81240952D01*
X113720952Y-81288571D01*
X113816190Y-81336190D01*
X114197143Y-81336190D01*
X112863809Y-81288571D02*
X113197143Y-81288571D01*
X113197143Y-81812381D02*
X113197143Y-80812381D01*
X112720952Y-80812381D01*
X112435238Y-80812381D02*
X111768571Y-80812381D01*
X112197143Y-81812381D01*
X110863809Y-81812381D02*
X111435238Y-81812381D01*
X111149524Y-81812381D02*
X111149524Y-80812381D01*
X111244762Y-80955238D01*
X111340000Y-81050476D01*
X111435238Y-81098095D01*
X110244762Y-80812381D02*
X110149523Y-80812381D01*
X110054285Y-80860000D01*
X110006666Y-80907619D01*
X109959047Y-81002857D01*
X109911428Y-81193333D01*
X109911428Y-81431429D01*
X109959047Y-81621905D01*
X110006666Y-81717143D01*
X110054285Y-81764762D01*
X110149523Y-81812381D01*
X110244762Y-81812381D01*
X110340000Y-81764762D01*
X110387619Y-81717143D01*
X110435238Y-81621905D01*
X110482857Y-81431429D01*
X110482857Y-81193333D01*
X110435238Y-81002857D01*
X110387619Y-80907619D01*
X110340000Y-80860000D01*
X110244762Y-80812381D01*
X109578095Y-80812381D02*
X108959047Y-80812381D01*
X109292381Y-81193333D01*
X109149523Y-81193333D01*
X109054285Y-81240952D01*
X109006666Y-81288571D01*
X108959047Y-81383810D01*
X108959047Y-81621905D01*
X109006666Y-81717143D01*
X109054285Y-81764762D01*
X109149523Y-81812381D01*
X109435238Y-81812381D01*
X109530476Y-81764762D01*
X109578095Y-81717143D01*
X78088095Y-53982381D02*
X78088095Y-54791905D01*
X78040476Y-54887143D01*
X77992857Y-54934762D01*
X77897619Y-54982381D01*
X77707142Y-54982381D01*
X77611904Y-54934762D01*
X77564285Y-54887143D01*
X77516666Y-54791905D01*
X77516666Y-53982381D01*
X76516666Y-54982381D02*
X77088095Y-54982381D01*
X76802381Y-54982381D02*
X76802381Y-53982381D01*
X76897619Y-54125238D01*
X76992857Y-54220476D01*
X77088095Y-54268095D01*
X75564285Y-54982381D02*
X76135714Y-54982381D01*
X75850000Y-54982381D02*
X75850000Y-53982381D01*
X75945238Y-54125238D01*
X76040476Y-54220476D01*
X76135714Y-54268095D01*
X79683333Y-61982381D02*
X79683333Y-60982381D01*
X78635714Y-61982381D02*
X78969048Y-61506190D01*
X79207143Y-61982381D02*
X79207143Y-60982381D01*
X78826190Y-60982381D01*
X78730952Y-61030000D01*
X78683333Y-61077619D01*
X78635714Y-61172857D01*
X78635714Y-61315714D01*
X78683333Y-61410952D01*
X78730952Y-61458571D01*
X78826190Y-61506190D01*
X79207143Y-61506190D01*
X77873809Y-61458571D02*
X78207143Y-61458571D01*
X78207143Y-61982381D02*
X78207143Y-60982381D01*
X77730952Y-60982381D01*
X77445238Y-60982381D02*
X76778571Y-60982381D01*
X77207143Y-61982381D01*
X75873809Y-61982381D02*
X76445238Y-61982381D01*
X76159524Y-61982381D02*
X76159524Y-60982381D01*
X76254762Y-61125238D01*
X76350000Y-61220476D01*
X76445238Y-61268095D01*
X75254762Y-60982381D02*
X75159523Y-60982381D01*
X75064285Y-61030000D01*
X75016666Y-61077619D01*
X74969047Y-61172857D01*
X74921428Y-61363333D01*
X74921428Y-61601429D01*
X74969047Y-61791905D01*
X75016666Y-61887143D01*
X75064285Y-61934762D01*
X75159523Y-61982381D01*
X75254762Y-61982381D01*
X75350000Y-61934762D01*
X75397619Y-61887143D01*
X75445238Y-61791905D01*
X75492857Y-61601429D01*
X75492857Y-61363333D01*
X75445238Y-61172857D01*
X75397619Y-61077619D01*
X75350000Y-61030000D01*
X75254762Y-60982381D01*
X74588095Y-60982381D02*
X73969047Y-60982381D01*
X74302381Y-61363333D01*
X74159523Y-61363333D01*
X74064285Y-61410952D01*
X74016666Y-61458571D01*
X73969047Y-61553810D01*
X73969047Y-61791905D01*
X74016666Y-61887143D01*
X74064285Y-61934762D01*
X74159523Y-61982381D01*
X74445238Y-61982381D01*
X74540476Y-61934762D01*
X74588095Y-61887143D01*
X78088095Y-47632381D02*
X78088095Y-48441905D01*
X78040476Y-48537143D01*
X77992857Y-48584762D01*
X77897619Y-48632381D01*
X77707142Y-48632381D01*
X77611904Y-48584762D01*
X77564285Y-48537143D01*
X77516666Y-48441905D01*
X77516666Y-47632381D01*
X76516666Y-48632381D02*
X77088095Y-48632381D01*
X76802381Y-48632381D02*
X76802381Y-47632381D01*
X76897619Y-47775238D01*
X76992857Y-47870476D01*
X77088095Y-47918095D01*
X76135714Y-47727619D02*
X76088095Y-47680000D01*
X75992857Y-47632381D01*
X75754761Y-47632381D01*
X75659523Y-47680000D01*
X75611904Y-47727619D01*
X75564285Y-47822857D01*
X75564285Y-47918095D01*
X75611904Y-48060952D01*
X76183333Y-48632381D01*
X75564285Y-48632381D01*
X79683333Y-55632381D02*
X79683333Y-54632381D01*
X78635714Y-55632381D02*
X78969048Y-55156190D01*
X79207143Y-55632381D02*
X79207143Y-54632381D01*
X78826190Y-54632381D01*
X78730952Y-54680000D01*
X78683333Y-54727619D01*
X78635714Y-54822857D01*
X78635714Y-54965714D01*
X78683333Y-55060952D01*
X78730952Y-55108571D01*
X78826190Y-55156190D01*
X79207143Y-55156190D01*
X77873809Y-55108571D02*
X78207143Y-55108571D01*
X78207143Y-55632381D02*
X78207143Y-54632381D01*
X77730952Y-54632381D01*
X77445238Y-54632381D02*
X76778571Y-54632381D01*
X77207143Y-55632381D01*
X75873809Y-55632381D02*
X76445238Y-55632381D01*
X76159524Y-55632381D02*
X76159524Y-54632381D01*
X76254762Y-54775238D01*
X76350000Y-54870476D01*
X76445238Y-54918095D01*
X75254762Y-54632381D02*
X75159523Y-54632381D01*
X75064285Y-54680000D01*
X75016666Y-54727619D01*
X74969047Y-54822857D01*
X74921428Y-55013333D01*
X74921428Y-55251429D01*
X74969047Y-55441905D01*
X75016666Y-55537143D01*
X75064285Y-55584762D01*
X75159523Y-55632381D01*
X75254762Y-55632381D01*
X75350000Y-55584762D01*
X75397619Y-55537143D01*
X75445238Y-55441905D01*
X75492857Y-55251429D01*
X75492857Y-55013333D01*
X75445238Y-54822857D01*
X75397619Y-54727619D01*
X75350000Y-54680000D01*
X75254762Y-54632381D01*
X74588095Y-54632381D02*
X73969047Y-54632381D01*
X74302381Y-55013333D01*
X74159523Y-55013333D01*
X74064285Y-55060952D01*
X74016666Y-55108571D01*
X73969047Y-55203810D01*
X73969047Y-55441905D01*
X74016666Y-55537143D01*
X74064285Y-55584762D01*
X74159523Y-55632381D01*
X74445238Y-55632381D01*
X74540476Y-55584762D01*
X74588095Y-55537143D01*
X78088095Y-41282381D02*
X78088095Y-42091905D01*
X78040476Y-42187143D01*
X77992857Y-42234762D01*
X77897619Y-42282381D01*
X77707142Y-42282381D01*
X77611904Y-42234762D01*
X77564285Y-42187143D01*
X77516666Y-42091905D01*
X77516666Y-41282381D01*
X76516666Y-42282381D02*
X77088095Y-42282381D01*
X76802381Y-42282381D02*
X76802381Y-41282381D01*
X76897619Y-41425238D01*
X76992857Y-41520476D01*
X77088095Y-41568095D01*
X76183333Y-41282381D02*
X75564285Y-41282381D01*
X75897619Y-41663333D01*
X75754761Y-41663333D01*
X75659523Y-41710952D01*
X75611904Y-41758571D01*
X75564285Y-41853810D01*
X75564285Y-42091905D01*
X75611904Y-42187143D01*
X75659523Y-42234762D01*
X75754761Y-42282381D01*
X76040476Y-42282381D01*
X76135714Y-42234762D01*
X76183333Y-42187143D01*
X79683333Y-49282381D02*
X79683333Y-48282381D01*
X78635714Y-49282381D02*
X78969048Y-48806190D01*
X79207143Y-49282381D02*
X79207143Y-48282381D01*
X78826190Y-48282381D01*
X78730952Y-48330000D01*
X78683333Y-48377619D01*
X78635714Y-48472857D01*
X78635714Y-48615714D01*
X78683333Y-48710952D01*
X78730952Y-48758571D01*
X78826190Y-48806190D01*
X79207143Y-48806190D01*
X77873809Y-48758571D02*
X78207143Y-48758571D01*
X78207143Y-49282381D02*
X78207143Y-48282381D01*
X77730952Y-48282381D01*
X77445238Y-48282381D02*
X76778571Y-48282381D01*
X77207143Y-49282381D01*
X75873809Y-49282381D02*
X76445238Y-49282381D01*
X76159524Y-49282381D02*
X76159524Y-48282381D01*
X76254762Y-48425238D01*
X76350000Y-48520476D01*
X76445238Y-48568095D01*
X75254762Y-48282381D02*
X75159523Y-48282381D01*
X75064285Y-48330000D01*
X75016666Y-48377619D01*
X74969047Y-48472857D01*
X74921428Y-48663333D01*
X74921428Y-48901429D01*
X74969047Y-49091905D01*
X75016666Y-49187143D01*
X75064285Y-49234762D01*
X75159523Y-49282381D01*
X75254762Y-49282381D01*
X75350000Y-49234762D01*
X75397619Y-49187143D01*
X75445238Y-49091905D01*
X75492857Y-48901429D01*
X75492857Y-48663333D01*
X75445238Y-48472857D01*
X75397619Y-48377619D01*
X75350000Y-48330000D01*
X75254762Y-48282381D01*
X74588095Y-48282381D02*
X73969047Y-48282381D01*
X74302381Y-48663333D01*
X74159523Y-48663333D01*
X74064285Y-48710952D01*
X74016666Y-48758571D01*
X73969047Y-48853810D01*
X73969047Y-49091905D01*
X74016666Y-49187143D01*
X74064285Y-49234762D01*
X74159523Y-49282381D01*
X74445238Y-49282381D01*
X74540476Y-49234762D01*
X74588095Y-49187143D01*
X78088095Y-34932381D02*
X78088095Y-35741905D01*
X78040476Y-35837143D01*
X77992857Y-35884762D01*
X77897619Y-35932381D01*
X77707142Y-35932381D01*
X77611904Y-35884762D01*
X77564285Y-35837143D01*
X77516666Y-35741905D01*
X77516666Y-34932381D01*
X76516666Y-35932381D02*
X77088095Y-35932381D01*
X76802381Y-35932381D02*
X76802381Y-34932381D01*
X76897619Y-35075238D01*
X76992857Y-35170476D01*
X77088095Y-35218095D01*
X75659523Y-35265714D02*
X75659523Y-35932381D01*
X75897619Y-34884762D02*
X76135714Y-35599048D01*
X75516666Y-35599048D01*
X79683333Y-42932381D02*
X79683333Y-41932381D01*
X78635714Y-42932381D02*
X78969048Y-42456190D01*
X79207143Y-42932381D02*
X79207143Y-41932381D01*
X78826190Y-41932381D01*
X78730952Y-41980000D01*
X78683333Y-42027619D01*
X78635714Y-42122857D01*
X78635714Y-42265714D01*
X78683333Y-42360952D01*
X78730952Y-42408571D01*
X78826190Y-42456190D01*
X79207143Y-42456190D01*
X77873809Y-42408571D02*
X78207143Y-42408571D01*
X78207143Y-42932381D02*
X78207143Y-41932381D01*
X77730952Y-41932381D01*
X77445238Y-41932381D02*
X76778571Y-41932381D01*
X77207143Y-42932381D01*
X75873809Y-42932381D02*
X76445238Y-42932381D01*
X76159524Y-42932381D02*
X76159524Y-41932381D01*
X76254762Y-42075238D01*
X76350000Y-42170476D01*
X76445238Y-42218095D01*
X75254762Y-41932381D02*
X75159523Y-41932381D01*
X75064285Y-41980000D01*
X75016666Y-42027619D01*
X74969047Y-42122857D01*
X74921428Y-42313333D01*
X74921428Y-42551429D01*
X74969047Y-42741905D01*
X75016666Y-42837143D01*
X75064285Y-42884762D01*
X75159523Y-42932381D01*
X75254762Y-42932381D01*
X75350000Y-42884762D01*
X75397619Y-42837143D01*
X75445238Y-42741905D01*
X75492857Y-42551429D01*
X75492857Y-42313333D01*
X75445238Y-42122857D01*
X75397619Y-42027619D01*
X75350000Y-41980000D01*
X75254762Y-41932381D01*
X74588095Y-41932381D02*
X73969047Y-41932381D01*
X74302381Y-42313333D01*
X74159523Y-42313333D01*
X74064285Y-42360952D01*
X74016666Y-42408571D01*
X73969047Y-42503810D01*
X73969047Y-42741905D01*
X74016666Y-42837143D01*
X74064285Y-42884762D01*
X74159523Y-42932381D01*
X74445238Y-42932381D01*
X74540476Y-42884762D01*
X74588095Y-42837143D01*
X113078095Y-40392381D02*
X113078095Y-41201905D01*
X113030476Y-41297143D01*
X112982857Y-41344762D01*
X112887619Y-41392381D01*
X112697142Y-41392381D01*
X112601904Y-41344762D01*
X112554285Y-41297143D01*
X112506666Y-41201905D01*
X112506666Y-40392381D01*
X111506666Y-41392381D02*
X112078095Y-41392381D01*
X111792381Y-41392381D02*
X111792381Y-40392381D01*
X111887619Y-40535238D01*
X111982857Y-40630476D01*
X112078095Y-40678095D01*
X110601904Y-40392381D02*
X111078095Y-40392381D01*
X111125714Y-40868571D01*
X111078095Y-40820952D01*
X110982857Y-40773333D01*
X110744761Y-40773333D01*
X110649523Y-40820952D01*
X110601904Y-40868571D01*
X110554285Y-40963810D01*
X110554285Y-41201905D01*
X110601904Y-41297143D01*
X110649523Y-41344762D01*
X110744761Y-41392381D01*
X110982857Y-41392381D01*
X111078095Y-41344762D01*
X111125714Y-41297143D01*
X114673333Y-34392381D02*
X114673333Y-33392381D01*
X113625714Y-34392381D02*
X113959048Y-33916190D01*
X114197143Y-34392381D02*
X114197143Y-33392381D01*
X113816190Y-33392381D01*
X113720952Y-33440000D01*
X113673333Y-33487619D01*
X113625714Y-33582857D01*
X113625714Y-33725714D01*
X113673333Y-33820952D01*
X113720952Y-33868571D01*
X113816190Y-33916190D01*
X114197143Y-33916190D01*
X112863809Y-33868571D02*
X113197143Y-33868571D01*
X113197143Y-34392381D02*
X113197143Y-33392381D01*
X112720952Y-33392381D01*
X112435238Y-33392381D02*
X111768571Y-33392381D01*
X112197143Y-34392381D01*
X110863809Y-34392381D02*
X111435238Y-34392381D01*
X111149524Y-34392381D02*
X111149524Y-33392381D01*
X111244762Y-33535238D01*
X111340000Y-33630476D01*
X111435238Y-33678095D01*
X110244762Y-33392381D02*
X110149523Y-33392381D01*
X110054285Y-33440000D01*
X110006666Y-33487619D01*
X109959047Y-33582857D01*
X109911428Y-33773333D01*
X109911428Y-34011429D01*
X109959047Y-34201905D01*
X110006666Y-34297143D01*
X110054285Y-34344762D01*
X110149523Y-34392381D01*
X110244762Y-34392381D01*
X110340000Y-34344762D01*
X110387619Y-34297143D01*
X110435238Y-34201905D01*
X110482857Y-34011429D01*
X110482857Y-33773333D01*
X110435238Y-33582857D01*
X110387619Y-33487619D01*
X110340000Y-33440000D01*
X110244762Y-33392381D01*
X109578095Y-33392381D02*
X108959047Y-33392381D01*
X109292381Y-33773333D01*
X109149523Y-33773333D01*
X109054285Y-33820952D01*
X109006666Y-33868571D01*
X108959047Y-33963810D01*
X108959047Y-34201905D01*
X109006666Y-34297143D01*
X109054285Y-34344762D01*
X109149523Y-34392381D01*
X109435238Y-34392381D01*
X109530476Y-34344762D01*
X109578095Y-34297143D01*
X113078095Y-46742381D02*
X113078095Y-47551905D01*
X113030476Y-47647143D01*
X112982857Y-47694762D01*
X112887619Y-47742381D01*
X112697142Y-47742381D01*
X112601904Y-47694762D01*
X112554285Y-47647143D01*
X112506666Y-47551905D01*
X112506666Y-46742381D01*
X111506666Y-47742381D02*
X112078095Y-47742381D01*
X111792381Y-47742381D02*
X111792381Y-46742381D01*
X111887619Y-46885238D01*
X111982857Y-46980476D01*
X112078095Y-47028095D01*
X110649523Y-46742381D02*
X110840000Y-46742381D01*
X110935238Y-46790000D01*
X110982857Y-46837619D01*
X111078095Y-46980476D01*
X111125714Y-47170952D01*
X111125714Y-47551905D01*
X111078095Y-47647143D01*
X111030476Y-47694762D01*
X110935238Y-47742381D01*
X110744761Y-47742381D01*
X110649523Y-47694762D01*
X110601904Y-47647143D01*
X110554285Y-47551905D01*
X110554285Y-47313810D01*
X110601904Y-47218571D01*
X110649523Y-47170952D01*
X110744761Y-47123333D01*
X110935238Y-47123333D01*
X111030476Y-47170952D01*
X111078095Y-47218571D01*
X111125714Y-47313810D01*
X114673333Y-40742381D02*
X114673333Y-39742381D01*
X113625714Y-40742381D02*
X113959048Y-40266190D01*
X114197143Y-40742381D02*
X114197143Y-39742381D01*
X113816190Y-39742381D01*
X113720952Y-39790000D01*
X113673333Y-39837619D01*
X113625714Y-39932857D01*
X113625714Y-40075714D01*
X113673333Y-40170952D01*
X113720952Y-40218571D01*
X113816190Y-40266190D01*
X114197143Y-40266190D01*
X112863809Y-40218571D02*
X113197143Y-40218571D01*
X113197143Y-40742381D02*
X113197143Y-39742381D01*
X112720952Y-39742381D01*
X112435238Y-39742381D02*
X111768571Y-39742381D01*
X112197143Y-40742381D01*
X110863809Y-40742381D02*
X111435238Y-40742381D01*
X111149524Y-40742381D02*
X111149524Y-39742381D01*
X111244762Y-39885238D01*
X111340000Y-39980476D01*
X111435238Y-40028095D01*
X110244762Y-39742381D02*
X110149523Y-39742381D01*
X110054285Y-39790000D01*
X110006666Y-39837619D01*
X109959047Y-39932857D01*
X109911428Y-40123333D01*
X109911428Y-40361429D01*
X109959047Y-40551905D01*
X110006666Y-40647143D01*
X110054285Y-40694762D01*
X110149523Y-40742381D01*
X110244762Y-40742381D01*
X110340000Y-40694762D01*
X110387619Y-40647143D01*
X110435238Y-40551905D01*
X110482857Y-40361429D01*
X110482857Y-40123333D01*
X110435238Y-39932857D01*
X110387619Y-39837619D01*
X110340000Y-39790000D01*
X110244762Y-39742381D01*
X109578095Y-39742381D02*
X108959047Y-39742381D01*
X109292381Y-40123333D01*
X109149523Y-40123333D01*
X109054285Y-40170952D01*
X109006666Y-40218571D01*
X108959047Y-40313810D01*
X108959047Y-40551905D01*
X109006666Y-40647143D01*
X109054285Y-40694762D01*
X109149523Y-40742381D01*
X109435238Y-40742381D01*
X109530476Y-40694762D01*
X109578095Y-40647143D01*
X113078095Y-53092381D02*
X113078095Y-53901905D01*
X113030476Y-53997143D01*
X112982857Y-54044762D01*
X112887619Y-54092381D01*
X112697142Y-54092381D01*
X112601904Y-54044762D01*
X112554285Y-53997143D01*
X112506666Y-53901905D01*
X112506666Y-53092381D01*
X111506666Y-54092381D02*
X112078095Y-54092381D01*
X111792381Y-54092381D02*
X111792381Y-53092381D01*
X111887619Y-53235238D01*
X111982857Y-53330476D01*
X112078095Y-53378095D01*
X111173333Y-53092381D02*
X110506666Y-53092381D01*
X110935238Y-54092381D01*
X114673333Y-47092381D02*
X114673333Y-46092381D01*
X113625714Y-47092381D02*
X113959048Y-46616190D01*
X114197143Y-47092381D02*
X114197143Y-46092381D01*
X113816190Y-46092381D01*
X113720952Y-46140000D01*
X113673333Y-46187619D01*
X113625714Y-46282857D01*
X113625714Y-46425714D01*
X113673333Y-46520952D01*
X113720952Y-46568571D01*
X113816190Y-46616190D01*
X114197143Y-46616190D01*
X112863809Y-46568571D02*
X113197143Y-46568571D01*
X113197143Y-47092381D02*
X113197143Y-46092381D01*
X112720952Y-46092381D01*
X112435238Y-46092381D02*
X111768571Y-46092381D01*
X112197143Y-47092381D01*
X110863809Y-47092381D02*
X111435238Y-47092381D01*
X111149524Y-47092381D02*
X111149524Y-46092381D01*
X111244762Y-46235238D01*
X111340000Y-46330476D01*
X111435238Y-46378095D01*
X110244762Y-46092381D02*
X110149523Y-46092381D01*
X110054285Y-46140000D01*
X110006666Y-46187619D01*
X109959047Y-46282857D01*
X109911428Y-46473333D01*
X109911428Y-46711429D01*
X109959047Y-46901905D01*
X110006666Y-46997143D01*
X110054285Y-47044762D01*
X110149523Y-47092381D01*
X110244762Y-47092381D01*
X110340000Y-47044762D01*
X110387619Y-46997143D01*
X110435238Y-46901905D01*
X110482857Y-46711429D01*
X110482857Y-46473333D01*
X110435238Y-46282857D01*
X110387619Y-46187619D01*
X110340000Y-46140000D01*
X110244762Y-46092381D01*
X109578095Y-46092381D02*
X108959047Y-46092381D01*
X109292381Y-46473333D01*
X109149523Y-46473333D01*
X109054285Y-46520952D01*
X109006666Y-46568571D01*
X108959047Y-46663810D01*
X108959047Y-46901905D01*
X109006666Y-46997143D01*
X109054285Y-47044762D01*
X109149523Y-47092381D01*
X109435238Y-47092381D01*
X109530476Y-47044762D01*
X109578095Y-46997143D01*
X113078095Y-59442381D02*
X113078095Y-60251905D01*
X113030476Y-60347143D01*
X112982857Y-60394762D01*
X112887619Y-60442381D01*
X112697142Y-60442381D01*
X112601904Y-60394762D01*
X112554285Y-60347143D01*
X112506666Y-60251905D01*
X112506666Y-59442381D01*
X111506666Y-60442381D02*
X112078095Y-60442381D01*
X111792381Y-60442381D02*
X111792381Y-59442381D01*
X111887619Y-59585238D01*
X111982857Y-59680476D01*
X112078095Y-59728095D01*
X110935238Y-59870952D02*
X111030476Y-59823333D01*
X111078095Y-59775714D01*
X111125714Y-59680476D01*
X111125714Y-59632857D01*
X111078095Y-59537619D01*
X111030476Y-59490000D01*
X110935238Y-59442381D01*
X110744761Y-59442381D01*
X110649523Y-59490000D01*
X110601904Y-59537619D01*
X110554285Y-59632857D01*
X110554285Y-59680476D01*
X110601904Y-59775714D01*
X110649523Y-59823333D01*
X110744761Y-59870952D01*
X110935238Y-59870952D01*
X111030476Y-59918571D01*
X111078095Y-59966190D01*
X111125714Y-60061429D01*
X111125714Y-60251905D01*
X111078095Y-60347143D01*
X111030476Y-60394762D01*
X110935238Y-60442381D01*
X110744761Y-60442381D01*
X110649523Y-60394762D01*
X110601904Y-60347143D01*
X110554285Y-60251905D01*
X110554285Y-60061429D01*
X110601904Y-59966190D01*
X110649523Y-59918571D01*
X110744761Y-59870952D01*
X114673333Y-53442381D02*
X114673333Y-52442381D01*
X113625714Y-53442381D02*
X113959048Y-52966190D01*
X114197143Y-53442381D02*
X114197143Y-52442381D01*
X113816190Y-52442381D01*
X113720952Y-52490000D01*
X113673333Y-52537619D01*
X113625714Y-52632857D01*
X113625714Y-52775714D01*
X113673333Y-52870952D01*
X113720952Y-52918571D01*
X113816190Y-52966190D01*
X114197143Y-52966190D01*
X112863809Y-52918571D02*
X113197143Y-52918571D01*
X113197143Y-53442381D02*
X113197143Y-52442381D01*
X112720952Y-52442381D01*
X112435238Y-52442381D02*
X111768571Y-52442381D01*
X112197143Y-53442381D01*
X110863809Y-53442381D02*
X111435238Y-53442381D01*
X111149524Y-53442381D02*
X111149524Y-52442381D01*
X111244762Y-52585238D01*
X111340000Y-52680476D01*
X111435238Y-52728095D01*
X110244762Y-52442381D02*
X110149523Y-52442381D01*
X110054285Y-52490000D01*
X110006666Y-52537619D01*
X109959047Y-52632857D01*
X109911428Y-52823333D01*
X109911428Y-53061429D01*
X109959047Y-53251905D01*
X110006666Y-53347143D01*
X110054285Y-53394762D01*
X110149523Y-53442381D01*
X110244762Y-53442381D01*
X110340000Y-53394762D01*
X110387619Y-53347143D01*
X110435238Y-53251905D01*
X110482857Y-53061429D01*
X110482857Y-52823333D01*
X110435238Y-52632857D01*
X110387619Y-52537619D01*
X110340000Y-52490000D01*
X110244762Y-52442381D01*
X109578095Y-52442381D02*
X108959047Y-52442381D01*
X109292381Y-52823333D01*
X109149523Y-52823333D01*
X109054285Y-52870952D01*
X109006666Y-52918571D01*
X108959047Y-53013810D01*
X108959047Y-53251905D01*
X109006666Y-53347143D01*
X109054285Y-53394762D01*
X109149523Y-53442381D01*
X109435238Y-53442381D01*
X109530476Y-53394762D01*
X109578095Y-53347143D01*
D14*
X54485429Y-55586285D02*
X56009429Y-56602285D01*
X54485429Y-56602285D02*
X56009429Y-55586285D01*
X56009429Y-57981143D02*
X56009429Y-57110286D01*
X56009429Y-57545714D02*
X54485429Y-57545714D01*
X54703143Y-57400571D01*
X54848286Y-57255429D01*
X54920857Y-57110286D01*
M02*
