G04 #@! TF.FileFunction,Copper,L1,Top,Signal*
%FSLAX46Y46*%
G04 Gerber Fmt 4.6, Leading zero omitted, Abs format (unit mm)*
G04 Created by KiCad (PCBNEW 0.201501052116+5352~20~ubuntu14.04.1-product) date Di 06 Jan 2015 18:05:51 CET*
%MOMM*%
G01*
G04 APERTURE LIST*
%ADD10C,0.150000*%
%ADD11C,0.200000*%
%ADD12C,4.064000*%
%ADD13C,1.676400*%
%ADD14R,2.032000X1.727200*%
%ADD15O,2.032000X1.727200*%
%ADD16R,1.727200X2.032000*%
%ADD17O,1.727200X2.032000*%
%ADD18R,2.032000X2.032000*%
%ADD19O,2.032000X2.032000*%
%ADD20R,2.286000X1.574800*%
%ADD21O,2.286000X1.574800*%
%ADD22O,2.032000X2.540000*%
%ADD23C,3.649980*%
%ADD24R,1.501140X1.501140*%
%ADD25C,1.501140*%
%ADD26R,1.727200X1.727200*%
%ADD27O,1.727200X1.727200*%
%ADD28C,0.889000*%
%ADD29C,0.254000*%
G04 APERTURE END LIST*
D10*
D11*
X124460000Y-24130000D02*
X25400000Y-24130000D01*
X124460000Y-96520000D02*
X124460000Y-24130000D01*
X25400000Y-96520000D02*
X124460000Y-96520000D01*
X25400000Y-24130000D02*
X25400000Y-96520000D01*
D12*
X40500000Y-88100000D03*
X82500000Y-32600000D03*
D13*
X29560000Y-61750000D03*
X29560000Y-64290000D03*
X34060000Y-61750000D03*
X34060000Y-64290000D03*
D14*
X59360000Y-68550000D03*
D15*
X59360000Y-66010000D03*
X59360000Y-63470000D03*
D16*
X55990000Y-29130000D03*
D17*
X58530000Y-29130000D03*
X61070000Y-29130000D03*
D16*
X55990000Y-32880000D03*
D17*
X58530000Y-32880000D03*
X61070000Y-32880000D03*
D18*
X58470000Y-87160000D03*
D19*
X58470000Y-89700000D03*
D14*
X69280000Y-83280000D03*
D15*
X69280000Y-80740000D03*
X69280000Y-78200000D03*
X69280000Y-75660000D03*
D14*
X69280000Y-73120000D03*
D15*
X69280000Y-70580000D03*
X69280000Y-68040000D03*
X69280000Y-65500000D03*
D14*
X119310000Y-67880000D03*
D15*
X119310000Y-70420000D03*
X119310000Y-72960000D03*
X119310000Y-75500000D03*
D14*
X119310000Y-78040000D03*
D15*
X119310000Y-80580000D03*
X119310000Y-83120000D03*
X119310000Y-85660000D03*
D14*
X69280000Y-62960000D03*
D15*
X69280000Y-60420000D03*
X69280000Y-57880000D03*
X69280000Y-55340000D03*
D14*
X69280000Y-52800000D03*
D15*
X69280000Y-50260000D03*
X69280000Y-47720000D03*
X69280000Y-45180000D03*
D14*
X69280000Y-42640000D03*
D15*
X69280000Y-40100000D03*
X69280000Y-37560000D03*
X69280000Y-35020000D03*
D14*
X119310000Y-37400000D03*
D15*
X119310000Y-39940000D03*
X119310000Y-42480000D03*
X119310000Y-45020000D03*
D14*
X119310000Y-47560000D03*
D15*
X119310000Y-50100000D03*
X119310000Y-52640000D03*
X119310000Y-55180000D03*
D14*
X119310000Y-57720000D03*
D15*
X119310000Y-60260000D03*
X119310000Y-62800000D03*
X119310000Y-65340000D03*
D20*
X28090000Y-70170000D03*
D21*
X28090000Y-72710000D03*
X28090000Y-75250000D03*
X28090000Y-77790000D03*
X28090000Y-80330000D03*
X28090000Y-82870000D03*
X28090000Y-85410000D03*
X28090000Y-87950000D03*
X28090000Y-90490000D03*
X28090000Y-93030000D03*
X35710000Y-93030000D03*
X35710000Y-90490000D03*
X35710000Y-87950000D03*
X35710000Y-85410000D03*
X35710000Y-82870000D03*
X35710000Y-80330000D03*
X35710000Y-77790000D03*
X35710000Y-75250000D03*
X35710000Y-72710000D03*
X35710000Y-70170000D03*
D22*
X50670000Y-90030000D03*
X48130000Y-90030000D03*
X53210000Y-90030000D03*
D23*
X30000000Y-55638520D03*
X30000000Y-43769100D03*
D24*
X36350000Y-45255000D03*
D25*
X38890000Y-46525000D03*
X36350000Y-47795000D03*
X38890000Y-49065000D03*
X36350000Y-50335000D03*
X38890000Y-51605000D03*
X36350000Y-52875000D03*
X38890000Y-54145000D03*
D23*
X30000000Y-39338520D03*
X30000000Y-27469100D03*
D24*
X36350000Y-28955000D03*
D25*
X38890000Y-30225000D03*
X36350000Y-31495000D03*
X38890000Y-32765000D03*
X36350000Y-34035000D03*
X38890000Y-35305000D03*
X36350000Y-36575000D03*
X38890000Y-37845000D03*
D18*
X69280000Y-88360000D03*
D19*
X69280000Y-85820000D03*
D18*
X119310000Y-88200000D03*
D19*
X119310000Y-90740000D03*
D26*
X46320000Y-33440000D03*
D27*
X48860000Y-33440000D03*
X46320000Y-35980000D03*
X48860000Y-35980000D03*
X46320000Y-38520000D03*
X48860000Y-38520000D03*
X46320000Y-41060000D03*
X48860000Y-41060000D03*
X46320000Y-43600000D03*
X48860000Y-43600000D03*
D28*
X30530000Y-90500000D03*
X30430000Y-87880000D03*
X30430000Y-85390000D03*
X30430000Y-82850000D03*
X30530000Y-80370000D03*
X30510000Y-77750000D03*
X30530000Y-75230000D03*
X30580000Y-72720000D03*
X51130000Y-40970000D03*
X51210000Y-38530000D03*
X51080000Y-35920000D03*
X63370000Y-88210000D03*
X63370000Y-86490000D03*
X61370000Y-88210000D03*
X61340000Y-86460000D03*
X50840000Y-78460000D03*
X57200000Y-70980000D03*
X60900000Y-61610000D03*
X48690000Y-74350000D03*
X47670000Y-94320000D03*
X36340000Y-38530000D03*
X37570000Y-39360000D03*
X36450000Y-54530000D03*
X37680000Y-55380000D03*
X44650000Y-74300000D03*
X39540000Y-75240000D03*
X47980000Y-67250000D03*
X30650000Y-70090000D03*
X30660000Y-93090000D03*
X52950000Y-30980000D03*
X51280000Y-43560000D03*
X43490000Y-47370000D03*
X46960000Y-47600000D03*
X45730000Y-45850000D03*
X43780000Y-45760000D03*
D29*
X28090000Y-72710000D02*
X30570000Y-72710000D01*
X30570000Y-72710000D02*
X30580000Y-72720000D01*
X48860000Y-38520000D02*
X51200000Y-38520000D01*
X51200000Y-38520000D02*
X51210000Y-38530000D01*
X63370000Y-86490000D02*
X63370000Y-88240000D01*
X63370000Y-88240000D02*
X63370000Y-88210000D01*
X63370000Y-86490000D02*
X63350000Y-86490000D01*
X61340000Y-86460000D02*
X61340000Y-88210000D01*
X61340000Y-88210000D02*
X61370000Y-88210000D01*
X61340000Y-86460000D02*
X61340000Y-86440000D01*
X50840000Y-78460000D02*
X50850000Y-78460000D01*
X57200000Y-70980000D02*
X57180000Y-70960000D01*
X60900000Y-61620000D02*
X60910000Y-61630000D01*
X60900000Y-61610000D02*
X60900000Y-61620000D01*
X48690000Y-74350000D02*
X48700000Y-74350000D01*
X48700000Y-74350000D02*
X48730000Y-74380000D01*
X37570000Y-39360000D02*
X37570000Y-39310000D01*
X37570000Y-39310000D02*
X37550000Y-39290000D01*
X36450000Y-54530000D02*
X36430000Y-54530000D01*
X39540000Y-75240000D02*
X39550000Y-75240000D01*
X47980000Y-67250000D02*
X47980000Y-67230000D01*
X47980000Y-67230000D02*
X47960000Y-67210000D01*
X30650000Y-70070000D02*
X30670000Y-70070000D01*
X30650000Y-70090000D02*
X30650000Y-70070000D01*
X52950000Y-30980000D02*
X52950000Y-30950000D01*
X52950000Y-30950000D02*
X52960000Y-30940000D01*
X51280000Y-43570000D02*
X51260000Y-43590000D01*
X51280000Y-43560000D02*
X51280000Y-43570000D01*
X46730000Y-47370000D02*
X46960000Y-47600000D01*
X46720000Y-47370000D02*
X46730000Y-47370000D01*
X43490000Y-47370000D02*
X46720000Y-47370000D01*
X43780000Y-45760000D02*
X45640000Y-45760000D01*
X45730000Y-45850000D02*
X45640000Y-45760000D01*
G36*
X123725000Y-95785000D02*
X120993345Y-95785000D01*
X120993345Y-85660000D01*
X120879271Y-85086511D01*
X120554415Y-84600330D01*
X120239634Y-84390000D01*
X120554415Y-84179670D01*
X120879271Y-83693489D01*
X120993345Y-83120000D01*
X120879271Y-82546511D01*
X120554415Y-82060330D01*
X120239634Y-81850000D01*
X120554415Y-81639670D01*
X120879271Y-81153489D01*
X120993345Y-80580000D01*
X120879271Y-80006511D01*
X120554415Y-79520330D01*
X120538632Y-79509784D01*
X120568123Y-79504063D01*
X120780927Y-79364273D01*
X120923377Y-79153240D01*
X120973440Y-78903600D01*
X120973440Y-77176400D01*
X120926463Y-76934277D01*
X120786673Y-76721473D01*
X120575640Y-76579023D01*
X120537037Y-76571281D01*
X120554415Y-76559670D01*
X120879271Y-76073489D01*
X120993345Y-75500000D01*
X120879271Y-74926511D01*
X120554415Y-74440330D01*
X120239634Y-74230000D01*
X120554415Y-74019670D01*
X120879271Y-73533489D01*
X120993345Y-72960000D01*
X120879271Y-72386511D01*
X120554415Y-71900330D01*
X120239634Y-71690000D01*
X120554415Y-71479670D01*
X120879271Y-70993489D01*
X120993345Y-70420000D01*
X120879271Y-69846511D01*
X120554415Y-69360330D01*
X120538632Y-69349784D01*
X120568123Y-69344063D01*
X120780927Y-69204273D01*
X120923377Y-68993240D01*
X120973440Y-68743600D01*
X120973440Y-67016400D01*
X120926463Y-66774277D01*
X120786673Y-66561473D01*
X120575640Y-66419023D01*
X120537037Y-66411281D01*
X120554415Y-66399670D01*
X120879271Y-65913489D01*
X120993345Y-65340000D01*
X120879271Y-64766511D01*
X120554415Y-64280330D01*
X120239634Y-64070000D01*
X120554415Y-63859670D01*
X120879271Y-63373489D01*
X120993345Y-62800000D01*
X120879271Y-62226511D01*
X120554415Y-61740330D01*
X120239634Y-61530000D01*
X120554415Y-61319670D01*
X120879271Y-60833489D01*
X120993345Y-60260000D01*
X120879271Y-59686511D01*
X120554415Y-59200330D01*
X120538632Y-59189784D01*
X120568123Y-59184063D01*
X120780927Y-59044273D01*
X120923377Y-58833240D01*
X120973440Y-58583600D01*
X120973440Y-56856400D01*
X120926463Y-56614277D01*
X120786673Y-56401473D01*
X120575640Y-56259023D01*
X120537037Y-56251281D01*
X120554415Y-56239670D01*
X120879271Y-55753489D01*
X120993345Y-55180000D01*
X120879271Y-54606511D01*
X120554415Y-54120330D01*
X120239634Y-53910000D01*
X120554415Y-53699670D01*
X120879271Y-53213489D01*
X120993345Y-52640000D01*
X120879271Y-52066511D01*
X120554415Y-51580330D01*
X120239634Y-51370000D01*
X120554415Y-51159670D01*
X120879271Y-50673489D01*
X120993345Y-50100000D01*
X120879271Y-49526511D01*
X120554415Y-49040330D01*
X120538632Y-49029784D01*
X120568123Y-49024063D01*
X120780927Y-48884273D01*
X120923377Y-48673240D01*
X120973440Y-48423600D01*
X120973440Y-46696400D01*
X120926463Y-46454277D01*
X120786673Y-46241473D01*
X120575640Y-46099023D01*
X120537037Y-46091281D01*
X120554415Y-46079670D01*
X120879271Y-45593489D01*
X120993345Y-45020000D01*
X120879271Y-44446511D01*
X120554415Y-43960330D01*
X120239634Y-43750000D01*
X120554415Y-43539670D01*
X120879271Y-43053489D01*
X120993345Y-42480000D01*
X120879271Y-41906511D01*
X120554415Y-41420330D01*
X120239634Y-41210000D01*
X120554415Y-40999670D01*
X120879271Y-40513489D01*
X120993345Y-39940000D01*
X120879271Y-39366511D01*
X120554415Y-38880330D01*
X120538632Y-38869784D01*
X120568123Y-38864063D01*
X120780927Y-38724273D01*
X120923377Y-38513240D01*
X120973440Y-38263600D01*
X120973440Y-36536400D01*
X120926463Y-36294277D01*
X120786673Y-36081473D01*
X120575640Y-35939023D01*
X120326000Y-35888960D01*
X118294000Y-35888960D01*
X118051877Y-35935937D01*
X117839073Y-36075727D01*
X117696623Y-36286760D01*
X117646560Y-36536400D01*
X117646560Y-38263600D01*
X117693537Y-38505723D01*
X117833327Y-38718527D01*
X118044360Y-38860977D01*
X118082962Y-38868718D01*
X118065585Y-38880330D01*
X117740729Y-39366511D01*
X117626655Y-39940000D01*
X117740729Y-40513489D01*
X118065585Y-40999670D01*
X118380365Y-41210000D01*
X118065585Y-41420330D01*
X117740729Y-41906511D01*
X117626655Y-42480000D01*
X117740729Y-43053489D01*
X118065585Y-43539670D01*
X118380365Y-43750000D01*
X118065585Y-43960330D01*
X117740729Y-44446511D01*
X117626655Y-45020000D01*
X117740729Y-45593489D01*
X118065585Y-46079670D01*
X118081367Y-46090215D01*
X118051877Y-46095937D01*
X117839073Y-46235727D01*
X117696623Y-46446760D01*
X117646560Y-46696400D01*
X117646560Y-48423600D01*
X117693537Y-48665723D01*
X117833327Y-48878527D01*
X118044360Y-49020977D01*
X118082962Y-49028718D01*
X118065585Y-49040330D01*
X117740729Y-49526511D01*
X117626655Y-50100000D01*
X117740729Y-50673489D01*
X118065585Y-51159670D01*
X118380365Y-51370000D01*
X118065585Y-51580330D01*
X117740729Y-52066511D01*
X117626655Y-52640000D01*
X117740729Y-53213489D01*
X118065585Y-53699670D01*
X118380365Y-53910000D01*
X118065585Y-54120330D01*
X117740729Y-54606511D01*
X117626655Y-55180000D01*
X117740729Y-55753489D01*
X118065585Y-56239670D01*
X118081367Y-56250215D01*
X118051877Y-56255937D01*
X117839073Y-56395727D01*
X117696623Y-56606760D01*
X117646560Y-56856400D01*
X117646560Y-58583600D01*
X117693537Y-58825723D01*
X117833327Y-59038527D01*
X118044360Y-59180977D01*
X118082962Y-59188718D01*
X118065585Y-59200330D01*
X117740729Y-59686511D01*
X117626655Y-60260000D01*
X117740729Y-60833489D01*
X118065585Y-61319670D01*
X118380365Y-61530000D01*
X118065585Y-61740330D01*
X117740729Y-62226511D01*
X117626655Y-62800000D01*
X117740729Y-63373489D01*
X118065585Y-63859670D01*
X118380365Y-64070000D01*
X118065585Y-64280330D01*
X117740729Y-64766511D01*
X117626655Y-65340000D01*
X117740729Y-65913489D01*
X118065585Y-66399670D01*
X118081367Y-66410215D01*
X118051877Y-66415937D01*
X117839073Y-66555727D01*
X117696623Y-66766760D01*
X117646560Y-67016400D01*
X117646560Y-68743600D01*
X117693537Y-68985723D01*
X117833327Y-69198527D01*
X118044360Y-69340977D01*
X118082962Y-69348718D01*
X118065585Y-69360330D01*
X117740729Y-69846511D01*
X117626655Y-70420000D01*
X117740729Y-70993489D01*
X118065585Y-71479670D01*
X118380365Y-71690000D01*
X118065585Y-71900330D01*
X117740729Y-72386511D01*
X117626655Y-72960000D01*
X117740729Y-73533489D01*
X118065585Y-74019670D01*
X118380365Y-74230000D01*
X118065585Y-74440330D01*
X117740729Y-74926511D01*
X117626655Y-75500000D01*
X117740729Y-76073489D01*
X118065585Y-76559670D01*
X118081367Y-76570215D01*
X118051877Y-76575937D01*
X117839073Y-76715727D01*
X117696623Y-76926760D01*
X117646560Y-77176400D01*
X117646560Y-78903600D01*
X117693537Y-79145723D01*
X117833327Y-79358527D01*
X118044360Y-79500977D01*
X118082962Y-79508718D01*
X118065585Y-79520330D01*
X117740729Y-80006511D01*
X117626655Y-80580000D01*
X117740729Y-81153489D01*
X118065585Y-81639670D01*
X118380365Y-81850000D01*
X118065585Y-82060330D01*
X117740729Y-82546511D01*
X117626655Y-83120000D01*
X117740729Y-83693489D01*
X118065585Y-84179670D01*
X118380365Y-84390000D01*
X118065585Y-84600330D01*
X117740729Y-85086511D01*
X117626655Y-85660000D01*
X117740729Y-86233489D01*
X117998188Y-86618804D01*
X117839073Y-86723327D01*
X117696623Y-86934360D01*
X117646560Y-87184000D01*
X117646560Y-89216000D01*
X117693537Y-89458123D01*
X117833327Y-89670927D01*
X117986256Y-89774156D01*
X117784675Y-90075845D01*
X117659000Y-90707655D01*
X117659000Y-90772345D01*
X117784675Y-91404155D01*
X118142567Y-91939778D01*
X118678190Y-92297670D01*
X119310000Y-92423345D01*
X119941810Y-92297670D01*
X120477433Y-91939778D01*
X120835325Y-91404155D01*
X120961000Y-90772345D01*
X120961000Y-90707655D01*
X120835325Y-90075845D01*
X120633372Y-89773601D01*
X120780927Y-89676673D01*
X120923377Y-89465640D01*
X120973440Y-89216000D01*
X120973440Y-87184000D01*
X120926463Y-86941877D01*
X120786673Y-86729073D01*
X120622278Y-86618104D01*
X120879271Y-86233489D01*
X120993345Y-85660000D01*
X120993345Y-95785000D01*
X85167462Y-95785000D01*
X85167462Y-32071828D01*
X84762291Y-31091239D01*
X84012707Y-30340345D01*
X83032827Y-29933464D01*
X81971828Y-29932538D01*
X80991239Y-30337709D01*
X80240345Y-31087293D01*
X79833464Y-32067173D01*
X79832538Y-33128172D01*
X80237709Y-34108761D01*
X80987293Y-34859655D01*
X81967173Y-35266536D01*
X83028172Y-35267462D01*
X84008761Y-34862291D01*
X84759655Y-34112707D01*
X85166536Y-33132827D01*
X85167462Y-32071828D01*
X85167462Y-95785000D01*
X70963345Y-95785000D01*
X70963345Y-80740000D01*
X70849271Y-80166511D01*
X70524415Y-79680330D01*
X70209634Y-79470000D01*
X70524415Y-79259670D01*
X70849271Y-78773489D01*
X70963345Y-78200000D01*
X70849271Y-77626511D01*
X70524415Y-77140330D01*
X70209634Y-76930000D01*
X70524415Y-76719670D01*
X70849271Y-76233489D01*
X70963345Y-75660000D01*
X70849271Y-75086511D01*
X70524415Y-74600330D01*
X70508632Y-74589784D01*
X70538123Y-74584063D01*
X70750927Y-74444273D01*
X70893377Y-74233240D01*
X70943440Y-73983600D01*
X70943440Y-72256400D01*
X70896463Y-72014277D01*
X70756673Y-71801473D01*
X70545640Y-71659023D01*
X70507037Y-71651281D01*
X70524415Y-71639670D01*
X70849271Y-71153489D01*
X70963345Y-70580000D01*
X70849271Y-70006511D01*
X70524415Y-69520330D01*
X70209634Y-69310000D01*
X70524415Y-69099670D01*
X70849271Y-68613489D01*
X70963345Y-68040000D01*
X70849271Y-67466511D01*
X70524415Y-66980330D01*
X70209634Y-66770000D01*
X70524415Y-66559670D01*
X70849271Y-66073489D01*
X70963345Y-65500000D01*
X70849271Y-64926511D01*
X70524415Y-64440330D01*
X70508632Y-64429784D01*
X70538123Y-64424063D01*
X70750927Y-64284273D01*
X70893377Y-64073240D01*
X70943440Y-63823600D01*
X70943440Y-62096400D01*
X70896463Y-61854277D01*
X70756673Y-61641473D01*
X70545640Y-61499023D01*
X70507037Y-61491281D01*
X70524415Y-61479670D01*
X70849271Y-60993489D01*
X70963345Y-60420000D01*
X70849271Y-59846511D01*
X70524415Y-59360330D01*
X70209634Y-59150000D01*
X70524415Y-58939670D01*
X70849271Y-58453489D01*
X70963345Y-57880000D01*
X70849271Y-57306511D01*
X70524415Y-56820330D01*
X70209634Y-56610000D01*
X70524415Y-56399670D01*
X70849271Y-55913489D01*
X70963345Y-55340000D01*
X70849271Y-54766511D01*
X70524415Y-54280330D01*
X70508632Y-54269784D01*
X70538123Y-54264063D01*
X70750927Y-54124273D01*
X70893377Y-53913240D01*
X70943440Y-53663600D01*
X70943440Y-51936400D01*
X70896463Y-51694277D01*
X70756673Y-51481473D01*
X70545640Y-51339023D01*
X70507037Y-51331281D01*
X70524415Y-51319670D01*
X70849271Y-50833489D01*
X70963345Y-50260000D01*
X70849271Y-49686511D01*
X70524415Y-49200330D01*
X70209634Y-48990000D01*
X70524415Y-48779670D01*
X70849271Y-48293489D01*
X70963345Y-47720000D01*
X70849271Y-47146511D01*
X70524415Y-46660330D01*
X70209634Y-46450000D01*
X70524415Y-46239670D01*
X70849271Y-45753489D01*
X70963345Y-45180000D01*
X70849271Y-44606511D01*
X70524415Y-44120330D01*
X70508632Y-44109784D01*
X70538123Y-44104063D01*
X70750927Y-43964273D01*
X70893377Y-43753240D01*
X70943440Y-43503600D01*
X70943440Y-41776400D01*
X70896463Y-41534277D01*
X70756673Y-41321473D01*
X70545640Y-41179023D01*
X70507037Y-41171281D01*
X70524415Y-41159670D01*
X70849271Y-40673489D01*
X70963345Y-40100000D01*
X70849271Y-39526511D01*
X70524415Y-39040330D01*
X70209634Y-38830000D01*
X70524415Y-38619670D01*
X70849271Y-38133489D01*
X70963345Y-37560000D01*
X70849271Y-36986511D01*
X70524415Y-36500330D01*
X70209634Y-36290000D01*
X70524415Y-36079670D01*
X70849271Y-35593489D01*
X70963345Y-35020000D01*
X70849271Y-34446511D01*
X70524415Y-33960330D01*
X70038234Y-33635474D01*
X69464745Y-33521400D01*
X69095255Y-33521400D01*
X68521766Y-33635474D01*
X68035585Y-33960330D01*
X67710729Y-34446511D01*
X67596655Y-35020000D01*
X67710729Y-35593489D01*
X68035585Y-36079670D01*
X68350365Y-36290000D01*
X68035585Y-36500330D01*
X67710729Y-36986511D01*
X67596655Y-37560000D01*
X67710729Y-38133489D01*
X68035585Y-38619670D01*
X68350365Y-38830000D01*
X68035585Y-39040330D01*
X67710729Y-39526511D01*
X67596655Y-40100000D01*
X67710729Y-40673489D01*
X68035585Y-41159670D01*
X68051367Y-41170215D01*
X68021877Y-41175937D01*
X67809073Y-41315727D01*
X67666623Y-41526760D01*
X67616560Y-41776400D01*
X67616560Y-43503600D01*
X67663537Y-43745723D01*
X67803327Y-43958527D01*
X68014360Y-44100977D01*
X68052962Y-44108718D01*
X68035585Y-44120330D01*
X67710729Y-44606511D01*
X67596655Y-45180000D01*
X67710729Y-45753489D01*
X68035585Y-46239670D01*
X68350365Y-46450000D01*
X68035585Y-46660330D01*
X67710729Y-47146511D01*
X67596655Y-47720000D01*
X67710729Y-48293489D01*
X68035585Y-48779670D01*
X68350365Y-48990000D01*
X68035585Y-49200330D01*
X67710729Y-49686511D01*
X67596655Y-50260000D01*
X67710729Y-50833489D01*
X68035585Y-51319670D01*
X68051367Y-51330215D01*
X68021877Y-51335937D01*
X67809073Y-51475727D01*
X67666623Y-51686760D01*
X67616560Y-51936400D01*
X67616560Y-53663600D01*
X67663537Y-53905723D01*
X67803327Y-54118527D01*
X68014360Y-54260977D01*
X68052962Y-54268718D01*
X68035585Y-54280330D01*
X67710729Y-54766511D01*
X67596655Y-55340000D01*
X67710729Y-55913489D01*
X68035585Y-56399670D01*
X68350365Y-56610000D01*
X68035585Y-56820330D01*
X67710729Y-57306511D01*
X67596655Y-57880000D01*
X67710729Y-58453489D01*
X68035585Y-58939670D01*
X68350365Y-59150000D01*
X68035585Y-59360330D01*
X67710729Y-59846511D01*
X67596655Y-60420000D01*
X67710729Y-60993489D01*
X68035585Y-61479670D01*
X68051367Y-61490215D01*
X68021877Y-61495937D01*
X67809073Y-61635727D01*
X67666623Y-61846760D01*
X67616560Y-62096400D01*
X67616560Y-63823600D01*
X67663537Y-64065723D01*
X67803327Y-64278527D01*
X68014360Y-64420977D01*
X68052962Y-64428718D01*
X68035585Y-64440330D01*
X67710729Y-64926511D01*
X67596655Y-65500000D01*
X67710729Y-66073489D01*
X68035585Y-66559670D01*
X68350365Y-66770000D01*
X68035585Y-66980330D01*
X67710729Y-67466511D01*
X67596655Y-68040000D01*
X67710729Y-68613489D01*
X68035585Y-69099670D01*
X68350365Y-69310000D01*
X68035585Y-69520330D01*
X67710729Y-70006511D01*
X67596655Y-70580000D01*
X67710729Y-71153489D01*
X68035585Y-71639670D01*
X68051367Y-71650215D01*
X68021877Y-71655937D01*
X67809073Y-71795727D01*
X67666623Y-72006760D01*
X67616560Y-72256400D01*
X67616560Y-73983600D01*
X67663537Y-74225723D01*
X67803327Y-74438527D01*
X68014360Y-74580977D01*
X68052962Y-74588718D01*
X68035585Y-74600330D01*
X67710729Y-75086511D01*
X67596655Y-75660000D01*
X67710729Y-76233489D01*
X68035585Y-76719670D01*
X68350365Y-76930000D01*
X68035585Y-77140330D01*
X67710729Y-77626511D01*
X67596655Y-78200000D01*
X67710729Y-78773489D01*
X68035585Y-79259670D01*
X68350365Y-79470000D01*
X68035585Y-79680330D01*
X67710729Y-80166511D01*
X67596655Y-80740000D01*
X67710729Y-81313489D01*
X68035585Y-81799670D01*
X68051367Y-81810215D01*
X68021877Y-81815937D01*
X67809073Y-81955727D01*
X67666623Y-82166760D01*
X67616560Y-82416400D01*
X67616560Y-84143600D01*
X67663537Y-84385723D01*
X67803327Y-84598527D01*
X68014360Y-84740977D01*
X68029810Y-84744075D01*
X67754675Y-85155845D01*
X67629000Y-85787655D01*
X67629000Y-85852345D01*
X67754675Y-86484155D01*
X67956627Y-86786398D01*
X67809073Y-86883327D01*
X67666623Y-87094360D01*
X67616560Y-87344000D01*
X67616560Y-89376000D01*
X67663537Y-89618123D01*
X67803327Y-89830927D01*
X68014360Y-89973377D01*
X68264000Y-90023440D01*
X70296000Y-90023440D01*
X70538123Y-89976463D01*
X70750927Y-89836673D01*
X70893377Y-89625640D01*
X70943440Y-89376000D01*
X70943440Y-87344000D01*
X70896463Y-87101877D01*
X70756673Y-86889073D01*
X70603743Y-86785843D01*
X70805325Y-86484155D01*
X70931000Y-85852345D01*
X70931000Y-85787655D01*
X70805325Y-85155845D01*
X70531092Y-84745427D01*
X70538123Y-84744063D01*
X70750927Y-84604273D01*
X70893377Y-84393240D01*
X70943440Y-84143600D01*
X70943440Y-82416400D01*
X70896463Y-82174277D01*
X70756673Y-81961473D01*
X70545640Y-81819023D01*
X70507037Y-81811281D01*
X70524415Y-81799670D01*
X70849271Y-81313489D01*
X70963345Y-80740000D01*
X70963345Y-95785000D01*
X62568600Y-95785000D01*
X62568600Y-33064745D01*
X62568600Y-32695255D01*
X62568600Y-29314745D01*
X62568600Y-28945255D01*
X62454526Y-28371766D01*
X62129670Y-27885585D01*
X61643489Y-27560729D01*
X61070000Y-27446655D01*
X60496511Y-27560729D01*
X60010330Y-27885585D01*
X59800000Y-28200365D01*
X59589670Y-27885585D01*
X59103489Y-27560729D01*
X58530000Y-27446655D01*
X57956511Y-27560729D01*
X57470330Y-27885585D01*
X57455500Y-27907779D01*
X57391927Y-27754301D01*
X57213298Y-27575673D01*
X56979909Y-27479000D01*
X56275750Y-27479000D01*
X56117000Y-27637750D01*
X56117000Y-29003000D01*
X56137000Y-29003000D01*
X56137000Y-29257000D01*
X56117000Y-29257000D01*
X56117000Y-30622250D01*
X56275750Y-30781000D01*
X56979909Y-30781000D01*
X57213298Y-30684327D01*
X57391927Y-30505699D01*
X57455500Y-30352220D01*
X57470330Y-30374415D01*
X57956511Y-30699271D01*
X58530000Y-30813345D01*
X59103489Y-30699271D01*
X59589670Y-30374415D01*
X59800000Y-30059634D01*
X60010330Y-30374415D01*
X60496511Y-30699271D01*
X61070000Y-30813345D01*
X61643489Y-30699271D01*
X62129670Y-30374415D01*
X62454526Y-29888234D01*
X62568600Y-29314745D01*
X62568600Y-32695255D01*
X62454526Y-32121766D01*
X62129670Y-31635585D01*
X61643489Y-31310729D01*
X61070000Y-31196655D01*
X60496511Y-31310729D01*
X60010330Y-31635585D01*
X59800000Y-31950365D01*
X59589670Y-31635585D01*
X59103489Y-31310729D01*
X58530000Y-31196655D01*
X57956511Y-31310729D01*
X57470330Y-31635585D01*
X57455500Y-31657779D01*
X57391927Y-31504301D01*
X57213298Y-31325673D01*
X56979909Y-31229000D01*
X56275750Y-31229000D01*
X56117000Y-31387750D01*
X56117000Y-32753000D01*
X56137000Y-32753000D01*
X56137000Y-33007000D01*
X56117000Y-33007000D01*
X56117000Y-34372250D01*
X56275750Y-34531000D01*
X56979909Y-34531000D01*
X57213298Y-34434327D01*
X57391927Y-34255699D01*
X57455500Y-34102220D01*
X57470330Y-34124415D01*
X57956511Y-34449271D01*
X58530000Y-34563345D01*
X59103489Y-34449271D01*
X59589670Y-34124415D01*
X59800000Y-33809634D01*
X60010330Y-34124415D01*
X60496511Y-34449271D01*
X61070000Y-34563345D01*
X61643489Y-34449271D01*
X62129670Y-34124415D01*
X62454526Y-33638234D01*
X62568600Y-33064745D01*
X62568600Y-95785000D01*
X61043345Y-95785000D01*
X61043345Y-66010000D01*
X60929271Y-65436511D01*
X60604415Y-64950330D01*
X60289634Y-64740000D01*
X60604415Y-64529670D01*
X60929271Y-64043489D01*
X61043345Y-63470000D01*
X60929271Y-62896511D01*
X60604415Y-62410330D01*
X60118234Y-62085474D01*
X59544745Y-61971400D01*
X59175255Y-61971400D01*
X58601766Y-62085474D01*
X58115585Y-62410330D01*
X57790729Y-62896511D01*
X57676655Y-63470000D01*
X57790729Y-64043489D01*
X58115585Y-64529670D01*
X58430365Y-64740000D01*
X58115585Y-64950330D01*
X57790729Y-65436511D01*
X57676655Y-66010000D01*
X57790729Y-66583489D01*
X58115585Y-67069670D01*
X58137779Y-67084499D01*
X57984301Y-67148073D01*
X57805673Y-67326702D01*
X57709000Y-67560091D01*
X57709000Y-68264250D01*
X57867750Y-68423000D01*
X59233000Y-68423000D01*
X59233000Y-68403000D01*
X59487000Y-68403000D01*
X59487000Y-68423000D01*
X60852250Y-68423000D01*
X61011000Y-68264250D01*
X61011000Y-67560091D01*
X60914327Y-67326702D01*
X60735699Y-67148073D01*
X60582220Y-67084499D01*
X60604415Y-67069670D01*
X60929271Y-66583489D01*
X61043345Y-66010000D01*
X61043345Y-95785000D01*
X61011000Y-95785000D01*
X61011000Y-69539909D01*
X61011000Y-68835750D01*
X60852250Y-68677000D01*
X59487000Y-68677000D01*
X59487000Y-69889850D01*
X59645750Y-70048600D01*
X60249691Y-70048600D01*
X60502310Y-70048600D01*
X60735699Y-69951927D01*
X60914327Y-69773298D01*
X61011000Y-69539909D01*
X61011000Y-95785000D01*
X60121000Y-95785000D01*
X60121000Y-89732345D01*
X60121000Y-89667655D01*
X59995325Y-89035845D01*
X59794628Y-88735481D01*
X59845699Y-88714327D01*
X60024327Y-88535698D01*
X60121000Y-88302309D01*
X60121000Y-87445750D01*
X60121000Y-86874250D01*
X60121000Y-86017691D01*
X60024327Y-85784302D01*
X59845699Y-85605673D01*
X59612310Y-85509000D01*
X59359691Y-85509000D01*
X59233000Y-85509000D01*
X59233000Y-69889850D01*
X59233000Y-68677000D01*
X57867750Y-68677000D01*
X57709000Y-68835750D01*
X57709000Y-69539909D01*
X57805673Y-69773298D01*
X57984301Y-69951927D01*
X58217690Y-70048600D01*
X58470309Y-70048600D01*
X59074250Y-70048600D01*
X59233000Y-69889850D01*
X59233000Y-85509000D01*
X58755750Y-85509000D01*
X58597000Y-85667750D01*
X58597000Y-87033000D01*
X59962250Y-87033000D01*
X60121000Y-86874250D01*
X60121000Y-87445750D01*
X59962250Y-87287000D01*
X58597000Y-87287000D01*
X58597000Y-87307000D01*
X58343000Y-87307000D01*
X58343000Y-87287000D01*
X58343000Y-87033000D01*
X58343000Y-85667750D01*
X58184250Y-85509000D01*
X57580309Y-85509000D01*
X57327690Y-85509000D01*
X57094301Y-85605673D01*
X56915673Y-85784302D01*
X56819000Y-86017691D01*
X56819000Y-86874250D01*
X56977750Y-87033000D01*
X58343000Y-87033000D01*
X58343000Y-87287000D01*
X56977750Y-87287000D01*
X56819000Y-87445750D01*
X56819000Y-88302309D01*
X56915673Y-88535698D01*
X57094301Y-88714327D01*
X57145371Y-88735481D01*
X56944675Y-89035845D01*
X56819000Y-89667655D01*
X56819000Y-89732345D01*
X56944675Y-90364155D01*
X57302567Y-90899778D01*
X57838190Y-91257670D01*
X58470000Y-91383345D01*
X59101810Y-91257670D01*
X59637433Y-90899778D01*
X59995325Y-90364155D01*
X60121000Y-89732345D01*
X60121000Y-95785000D01*
X55863000Y-95785000D01*
X55863000Y-34372250D01*
X55863000Y-33007000D01*
X55863000Y-32753000D01*
X55863000Y-31387750D01*
X55863000Y-30622250D01*
X55863000Y-29257000D01*
X55863000Y-29003000D01*
X55863000Y-27637750D01*
X55704250Y-27479000D01*
X55000091Y-27479000D01*
X54766702Y-27575673D01*
X54588073Y-27754301D01*
X54491400Y-27987690D01*
X54491400Y-28240309D01*
X54491400Y-28844250D01*
X54650150Y-29003000D01*
X55863000Y-29003000D01*
X55863000Y-29257000D01*
X54650150Y-29257000D01*
X54491400Y-29415750D01*
X54491400Y-30019691D01*
X54491400Y-30272310D01*
X54588073Y-30505699D01*
X54766702Y-30684327D01*
X55000091Y-30781000D01*
X55704250Y-30781000D01*
X55863000Y-30622250D01*
X55863000Y-31387750D01*
X55704250Y-31229000D01*
X55000091Y-31229000D01*
X54766702Y-31325673D01*
X54588073Y-31504301D01*
X54491400Y-31737690D01*
X54491400Y-31990309D01*
X54491400Y-32594250D01*
X54650150Y-32753000D01*
X55863000Y-32753000D01*
X55863000Y-33007000D01*
X54650150Y-33007000D01*
X54491400Y-33165750D01*
X54491400Y-33769691D01*
X54491400Y-34022310D01*
X54588073Y-34255699D01*
X54766702Y-34434327D01*
X55000091Y-34531000D01*
X55704250Y-34531000D01*
X55863000Y-34372250D01*
X55863000Y-95785000D01*
X54861000Y-95785000D01*
X54861000Y-90321321D01*
X54861000Y-89738679D01*
X54735325Y-89106869D01*
X54377433Y-88571246D01*
X53841810Y-88213354D01*
X53210000Y-88087679D01*
X52578190Y-88213354D01*
X52042567Y-88571246D01*
X51925946Y-88745781D01*
X51747630Y-88518764D01*
X51184477Y-88202074D01*
X51052944Y-88170025D01*
X50797000Y-88289164D01*
X50797000Y-89903000D01*
X50817000Y-89903000D01*
X50817000Y-90157000D01*
X50797000Y-90157000D01*
X50797000Y-91770836D01*
X51052944Y-91889975D01*
X51184477Y-91857926D01*
X51747630Y-91541236D01*
X51925946Y-91314218D01*
X52042567Y-91488754D01*
X52578190Y-91846646D01*
X53210000Y-91972321D01*
X53841810Y-91846646D01*
X54377433Y-91488754D01*
X54735325Y-90953131D01*
X54861000Y-90321321D01*
X54861000Y-95785000D01*
X50543000Y-95785000D01*
X50543000Y-91770836D01*
X50543000Y-90157000D01*
X50523000Y-90157000D01*
X50523000Y-89903000D01*
X50543000Y-89903000D01*
X50543000Y-88289164D01*
X50358600Y-88203327D01*
X50358600Y-33469359D01*
X50358600Y-33410641D01*
X50244526Y-32837152D01*
X49919670Y-32350971D01*
X49433489Y-32026115D01*
X48860000Y-31912041D01*
X48286511Y-32026115D01*
X47800330Y-32350971D01*
X47790233Y-32366081D01*
X47784063Y-32334277D01*
X47644273Y-32121473D01*
X47433240Y-31979023D01*
X47183600Y-31928960D01*
X45456400Y-31928960D01*
X45214277Y-31975937D01*
X45001473Y-32115727D01*
X44859023Y-32326760D01*
X44808960Y-32576400D01*
X44808960Y-34303600D01*
X44855937Y-34545723D01*
X44995727Y-34758527D01*
X45206760Y-34900977D01*
X45248104Y-34909268D01*
X44935474Y-35377152D01*
X44821400Y-35950641D01*
X44821400Y-36009359D01*
X44935474Y-36582848D01*
X45260330Y-37069029D01*
X45531172Y-37250000D01*
X45260330Y-37430971D01*
X44935474Y-37917152D01*
X44821400Y-38490641D01*
X44821400Y-38549359D01*
X44935474Y-39122848D01*
X45260330Y-39609029D01*
X45531172Y-39790000D01*
X45260330Y-39970971D01*
X44935474Y-40457152D01*
X44821400Y-41030641D01*
X44821400Y-41089359D01*
X44935474Y-41662848D01*
X45260330Y-42149029D01*
X45531172Y-42330000D01*
X45260330Y-42510971D01*
X44935474Y-42997152D01*
X44821400Y-43570641D01*
X44821400Y-43629359D01*
X44935474Y-44202848D01*
X45260330Y-44689029D01*
X45433271Y-44804584D01*
X45119311Y-44934311D01*
X45055510Y-44998000D01*
X44544641Y-44998000D01*
X44392286Y-44845378D01*
X43995668Y-44680687D01*
X43566216Y-44680313D01*
X43169311Y-44844311D01*
X42865378Y-45147714D01*
X42700687Y-45544332D01*
X42700313Y-45973784D01*
X42864311Y-46370689D01*
X42927790Y-46434279D01*
X42879311Y-46454311D01*
X42575378Y-46757714D01*
X42410687Y-47154332D01*
X42410313Y-47583784D01*
X42574311Y-47980689D01*
X42877714Y-48284622D01*
X43274332Y-48449313D01*
X43703784Y-48449687D01*
X44100689Y-48285689D01*
X44254646Y-48132000D01*
X46011797Y-48132000D01*
X46044311Y-48210689D01*
X46347714Y-48514622D01*
X46744332Y-48679313D01*
X47173784Y-48679687D01*
X47570689Y-48515689D01*
X47874622Y-48212286D01*
X48039313Y-47815668D01*
X48039687Y-47386216D01*
X47875689Y-46989311D01*
X47572286Y-46685378D01*
X47175668Y-46520687D01*
X46746216Y-46520313D01*
X46533997Y-46608000D01*
X46498653Y-46608000D01*
X46644622Y-46462286D01*
X46809313Y-46065668D01*
X46809687Y-45636216D01*
X46645689Y-45239311D01*
X46498989Y-45092355D01*
X46893489Y-45013885D01*
X47379670Y-44689029D01*
X47595663Y-44365771D01*
X47653179Y-44488490D01*
X48085053Y-44882688D01*
X48500974Y-45054958D01*
X48733000Y-44933817D01*
X48733000Y-43727000D01*
X48713000Y-43727000D01*
X48713000Y-43473000D01*
X48733000Y-43473000D01*
X48733000Y-42393817D01*
X48733000Y-42266183D01*
X48733000Y-41187000D01*
X48713000Y-41187000D01*
X48713000Y-40933000D01*
X48733000Y-40933000D01*
X48733000Y-39853817D01*
X48733000Y-39726183D01*
X48733000Y-38647000D01*
X48713000Y-38647000D01*
X48713000Y-38393000D01*
X48733000Y-38393000D01*
X48733000Y-37313817D01*
X48733000Y-37186183D01*
X48733000Y-36107000D01*
X48713000Y-36107000D01*
X48713000Y-35853000D01*
X48733000Y-35853000D01*
X48733000Y-35833000D01*
X48987000Y-35833000D01*
X48987000Y-35853000D01*
X50194469Y-35853000D01*
X50314968Y-35620973D01*
X50066821Y-35091510D01*
X49648839Y-34709992D01*
X49919670Y-34529029D01*
X50244526Y-34042848D01*
X50358600Y-33469359D01*
X50358600Y-88203327D01*
X50314968Y-88183017D01*
X50314968Y-43959027D01*
X50314968Y-43240973D01*
X50066821Y-42711510D01*
X49648847Y-42330000D01*
X50066821Y-41948490D01*
X50314968Y-41419027D01*
X50314968Y-40700973D01*
X50066821Y-40171510D01*
X49648847Y-39790000D01*
X50066821Y-39408490D01*
X50314968Y-38879027D01*
X50314968Y-38160973D01*
X50066821Y-37631510D01*
X49648847Y-37250000D01*
X50066821Y-36868490D01*
X50314968Y-36339027D01*
X50194469Y-36107000D01*
X48987000Y-36107000D01*
X48987000Y-37186183D01*
X48987000Y-37313817D01*
X48987000Y-38393000D01*
X50194469Y-38393000D01*
X50314968Y-38160973D01*
X50314968Y-38879027D01*
X50194469Y-38647000D01*
X48987000Y-38647000D01*
X48987000Y-39726183D01*
X48987000Y-39853817D01*
X48987000Y-40933000D01*
X50194469Y-40933000D01*
X50314968Y-40700973D01*
X50314968Y-41419027D01*
X50194469Y-41187000D01*
X48987000Y-41187000D01*
X48987000Y-42266183D01*
X48987000Y-42393817D01*
X48987000Y-43473000D01*
X50194469Y-43473000D01*
X50314968Y-43240973D01*
X50314968Y-43959027D01*
X50194469Y-43727000D01*
X48987000Y-43727000D01*
X48987000Y-44933817D01*
X49219026Y-45054958D01*
X49634947Y-44882688D01*
X50066821Y-44488490D01*
X50314968Y-43959027D01*
X50314968Y-88183017D01*
X50287056Y-88170025D01*
X50155523Y-88202074D01*
X49592370Y-88518764D01*
X49414053Y-88745781D01*
X49297433Y-88571246D01*
X48761810Y-88213354D01*
X48130000Y-88087679D01*
X47498190Y-88213354D01*
X46962567Y-88571246D01*
X46604675Y-89106869D01*
X46479000Y-89738679D01*
X46479000Y-90321321D01*
X46604675Y-90953131D01*
X46962567Y-91488754D01*
X47498190Y-91846646D01*
X48130000Y-91972321D01*
X48761810Y-91846646D01*
X49297433Y-91488754D01*
X49414053Y-91314218D01*
X49592370Y-91541236D01*
X50155523Y-91857926D01*
X50287056Y-91889975D01*
X50543000Y-91770836D01*
X50543000Y-95785000D01*
X43167462Y-95785000D01*
X43167462Y-87571828D01*
X42762291Y-86591239D01*
X42012707Y-85840345D01*
X41032827Y-85433464D01*
X40287767Y-85432813D01*
X40287767Y-54349966D01*
X40287767Y-38049966D01*
X40275810Y-37814561D01*
X40275810Y-35030602D01*
X40065314Y-34521163D01*
X39675887Y-34131056D01*
X39444618Y-34035025D01*
X39673837Y-33940314D01*
X40063944Y-33550887D01*
X40275329Y-33041816D01*
X40275810Y-32490602D01*
X40065314Y-31981163D01*
X39675887Y-31591056D01*
X39444618Y-31495025D01*
X39673837Y-31400314D01*
X40063944Y-31010887D01*
X40275329Y-30501816D01*
X40275810Y-29950602D01*
X40065314Y-29441163D01*
X39675887Y-29051056D01*
X39166816Y-28839671D01*
X38615602Y-28839190D01*
X38106163Y-29049686D01*
X37748010Y-29407214D01*
X37748010Y-28204430D01*
X37701033Y-27962307D01*
X37561243Y-27749503D01*
X37350210Y-27607053D01*
X37100570Y-27556990D01*
X35599430Y-27556990D01*
X35357307Y-27603967D01*
X35144503Y-27743757D01*
X35002053Y-27954790D01*
X34951990Y-28204430D01*
X34951990Y-29705570D01*
X34998967Y-29947693D01*
X35138757Y-30160497D01*
X35349790Y-30302947D01*
X35543930Y-30341880D01*
X35176056Y-30709113D01*
X34964671Y-31218184D01*
X34964190Y-31769398D01*
X35174686Y-32278837D01*
X35564113Y-32668944D01*
X35795381Y-32764974D01*
X35566163Y-32859686D01*
X35176056Y-33249113D01*
X34964671Y-33758184D01*
X34964190Y-34309398D01*
X35174686Y-34818837D01*
X35564113Y-35208944D01*
X35779496Y-35298378D01*
X35625735Y-35362069D01*
X35557675Y-35603070D01*
X36350000Y-36395395D01*
X37142325Y-35603070D01*
X37074265Y-35362069D01*
X36908959Y-35303231D01*
X37133837Y-35210314D01*
X37523944Y-34820887D01*
X37735329Y-34311816D01*
X37735810Y-33760602D01*
X37525314Y-33251163D01*
X37135887Y-32861056D01*
X36904618Y-32765025D01*
X37133837Y-32670314D01*
X37523944Y-32280887D01*
X37735329Y-31771816D01*
X37735810Y-31220602D01*
X37525314Y-30711163D01*
X37156879Y-30342084D01*
X37342693Y-30306033D01*
X37504451Y-30199774D01*
X37504190Y-30499398D01*
X37714686Y-31008837D01*
X38104113Y-31398944D01*
X38335381Y-31494974D01*
X38106163Y-31589686D01*
X37716056Y-31979113D01*
X37504671Y-32488184D01*
X37504190Y-33039398D01*
X37714686Y-33548837D01*
X38104113Y-33938944D01*
X38335381Y-34034974D01*
X38106163Y-34129686D01*
X37716056Y-34519113D01*
X37504671Y-35028184D01*
X37504190Y-35579398D01*
X37714686Y-36088837D01*
X38104113Y-36478944D01*
X38319496Y-36568378D01*
X38165735Y-36632069D01*
X38097675Y-36873070D01*
X38890000Y-37665395D01*
X39682325Y-36873070D01*
X39614265Y-36632069D01*
X39448959Y-36573231D01*
X39673837Y-36480314D01*
X40063944Y-36090887D01*
X40275329Y-35581816D01*
X40275810Y-35030602D01*
X40275810Y-37814561D01*
X40259805Y-37499462D01*
X40102931Y-37120735D01*
X39861930Y-37052675D01*
X39069605Y-37845000D01*
X39861930Y-38637325D01*
X40102931Y-38569265D01*
X40287767Y-38049966D01*
X40287767Y-54349966D01*
X40275810Y-54114561D01*
X40275810Y-51330602D01*
X40065314Y-50821163D01*
X39675887Y-50431056D01*
X39444618Y-50335025D01*
X39673837Y-50240314D01*
X40063944Y-49850887D01*
X40275329Y-49341816D01*
X40275810Y-48790602D01*
X40065314Y-48281163D01*
X39675887Y-47891056D01*
X39444618Y-47795025D01*
X39673837Y-47700314D01*
X40063944Y-47310887D01*
X40275329Y-46801816D01*
X40275810Y-46250602D01*
X40065314Y-45741163D01*
X39682325Y-45357505D01*
X39682325Y-38816930D01*
X38890000Y-38024605D01*
X38710395Y-38204210D01*
X38710395Y-37845000D01*
X37918070Y-37052675D01*
X37747767Y-37100769D01*
X37747767Y-36779966D01*
X37719805Y-36229462D01*
X37562931Y-35850735D01*
X37321930Y-35782675D01*
X36529605Y-36575000D01*
X37321930Y-37367325D01*
X37562931Y-37299265D01*
X37747767Y-36779966D01*
X37747767Y-37100769D01*
X37677069Y-37120735D01*
X37492233Y-37640034D01*
X37520195Y-38190538D01*
X37677069Y-38569265D01*
X37918070Y-38637325D01*
X38710395Y-37845000D01*
X38710395Y-38204210D01*
X38097675Y-38816930D01*
X38165735Y-39057931D01*
X38685034Y-39242767D01*
X39235538Y-39214805D01*
X39614265Y-39057931D01*
X39682325Y-38816930D01*
X39682325Y-45357505D01*
X39675887Y-45351056D01*
X39166816Y-45139671D01*
X38615602Y-45139190D01*
X38106163Y-45349686D01*
X37748010Y-45707214D01*
X37748010Y-44504430D01*
X37701033Y-44262307D01*
X37561243Y-44049503D01*
X37350210Y-43907053D01*
X37142325Y-43865363D01*
X37142325Y-37546930D01*
X36350000Y-36754605D01*
X36170395Y-36934210D01*
X36170395Y-36575000D01*
X35378070Y-35782675D01*
X35137069Y-35850735D01*
X34952233Y-36370034D01*
X34980195Y-36920538D01*
X35137069Y-37299265D01*
X35378070Y-37367325D01*
X36170395Y-36575000D01*
X36170395Y-36934210D01*
X35557675Y-37546930D01*
X35625735Y-37787931D01*
X36145034Y-37972767D01*
X36695538Y-37944805D01*
X37074265Y-37787931D01*
X37142325Y-37546930D01*
X37142325Y-43865363D01*
X37100570Y-43856990D01*
X35599430Y-43856990D01*
X35357307Y-43903967D01*
X35144503Y-44043757D01*
X35002053Y-44254790D01*
X34951990Y-44504430D01*
X34951990Y-46005570D01*
X34998967Y-46247693D01*
X35138757Y-46460497D01*
X35349790Y-46602947D01*
X35543930Y-46641880D01*
X35176056Y-47009113D01*
X34964671Y-47518184D01*
X34964190Y-48069398D01*
X35174686Y-48578837D01*
X35564113Y-48968944D01*
X35795381Y-49064974D01*
X35566163Y-49159686D01*
X35176056Y-49549113D01*
X34964671Y-50058184D01*
X34964190Y-50609398D01*
X35174686Y-51118837D01*
X35564113Y-51508944D01*
X35779496Y-51598378D01*
X35625735Y-51662069D01*
X35557675Y-51903070D01*
X36350000Y-52695395D01*
X37142325Y-51903070D01*
X37074265Y-51662069D01*
X36908959Y-51603231D01*
X37133837Y-51510314D01*
X37523944Y-51120887D01*
X37735329Y-50611816D01*
X37735810Y-50060602D01*
X37525314Y-49551163D01*
X37135887Y-49161056D01*
X36904618Y-49065025D01*
X37133837Y-48970314D01*
X37523944Y-48580887D01*
X37735329Y-48071816D01*
X37735810Y-47520602D01*
X37525314Y-47011163D01*
X37156879Y-46642084D01*
X37342693Y-46606033D01*
X37504451Y-46499774D01*
X37504190Y-46799398D01*
X37714686Y-47308837D01*
X38104113Y-47698944D01*
X38335381Y-47794974D01*
X38106163Y-47889686D01*
X37716056Y-48279113D01*
X37504671Y-48788184D01*
X37504190Y-49339398D01*
X37714686Y-49848837D01*
X38104113Y-50238944D01*
X38335381Y-50334974D01*
X38106163Y-50429686D01*
X37716056Y-50819113D01*
X37504671Y-51328184D01*
X37504190Y-51879398D01*
X37714686Y-52388837D01*
X38104113Y-52778944D01*
X38319496Y-52868378D01*
X38165735Y-52932069D01*
X38097675Y-53173070D01*
X38890000Y-53965395D01*
X39682325Y-53173070D01*
X39614265Y-52932069D01*
X39448959Y-52873231D01*
X39673837Y-52780314D01*
X40063944Y-52390887D01*
X40275329Y-51881816D01*
X40275810Y-51330602D01*
X40275810Y-54114561D01*
X40259805Y-53799462D01*
X40102931Y-53420735D01*
X39861930Y-53352675D01*
X39069605Y-54145000D01*
X39861930Y-54937325D01*
X40102931Y-54869265D01*
X40287767Y-54349966D01*
X40287767Y-85432813D01*
X39971828Y-85432538D01*
X39682325Y-85552158D01*
X39682325Y-55116930D01*
X38890000Y-54324605D01*
X38710395Y-54504210D01*
X38710395Y-54145000D01*
X37918070Y-53352675D01*
X37747767Y-53400769D01*
X37747767Y-53079966D01*
X37719805Y-52529462D01*
X37562931Y-52150735D01*
X37321930Y-52082675D01*
X36529605Y-52875000D01*
X37321930Y-53667325D01*
X37562931Y-53599265D01*
X37747767Y-53079966D01*
X37747767Y-53400769D01*
X37677069Y-53420735D01*
X37492233Y-53940034D01*
X37520195Y-54490538D01*
X37677069Y-54869265D01*
X37918070Y-54937325D01*
X38710395Y-54145000D01*
X38710395Y-54504210D01*
X38097675Y-55116930D01*
X38165735Y-55357931D01*
X38685034Y-55542767D01*
X39235538Y-55514805D01*
X39614265Y-55357931D01*
X39682325Y-55116930D01*
X39682325Y-85552158D01*
X38991239Y-85837709D01*
X38240345Y-86587293D01*
X37833464Y-87567173D01*
X37832538Y-88628172D01*
X38237709Y-89608761D01*
X38987293Y-90359655D01*
X39967173Y-90766536D01*
X41028172Y-90767462D01*
X42008761Y-90362291D01*
X42759655Y-89612707D01*
X43166536Y-88632827D01*
X43167462Y-87571828D01*
X43167462Y-95785000D01*
X37522833Y-95785000D01*
X37522833Y-93030000D01*
X37414559Y-92485671D01*
X37106222Y-92024211D01*
X36710801Y-91760000D01*
X37106222Y-91495789D01*
X37414559Y-91034329D01*
X37522833Y-90490000D01*
X37414559Y-89945671D01*
X37106222Y-89484211D01*
X36710801Y-89220000D01*
X37106222Y-88955789D01*
X37414559Y-88494329D01*
X37522833Y-87950000D01*
X37414559Y-87405671D01*
X37106222Y-86944211D01*
X36710801Y-86680000D01*
X37106222Y-86415789D01*
X37414559Y-85954329D01*
X37522833Y-85410000D01*
X37414559Y-84865671D01*
X37106222Y-84404211D01*
X36710801Y-84140000D01*
X37106222Y-83875789D01*
X37414559Y-83414329D01*
X37522833Y-82870000D01*
X37414559Y-82325671D01*
X37106222Y-81864211D01*
X36710801Y-81600000D01*
X37106222Y-81335789D01*
X37414559Y-80874329D01*
X37522833Y-80330000D01*
X37414559Y-79785671D01*
X37106222Y-79324211D01*
X36710801Y-79060000D01*
X37106222Y-78795789D01*
X37414559Y-78334329D01*
X37522833Y-77790000D01*
X37414559Y-77245671D01*
X37106222Y-76784211D01*
X36710801Y-76520000D01*
X37106222Y-76255789D01*
X37414559Y-75794329D01*
X37522833Y-75250000D01*
X37414559Y-74705671D01*
X37106222Y-74244211D01*
X36710801Y-73980000D01*
X37106222Y-73715789D01*
X37414559Y-73254329D01*
X37522833Y-72710000D01*
X37414559Y-72165671D01*
X37106222Y-71704211D01*
X36710801Y-71440000D01*
X37106222Y-71175789D01*
X37414559Y-70714329D01*
X37522833Y-70170000D01*
X37414559Y-69625671D01*
X37142325Y-69218243D01*
X37142325Y-53846930D01*
X36350000Y-53054605D01*
X36170395Y-53234210D01*
X36170395Y-52875000D01*
X35378070Y-52082675D01*
X35137069Y-52150735D01*
X34952233Y-52670034D01*
X34980195Y-53220538D01*
X35137069Y-53599265D01*
X35378070Y-53667325D01*
X36170395Y-52875000D01*
X36170395Y-53234210D01*
X35557675Y-53846930D01*
X35625735Y-54087931D01*
X36145034Y-54272767D01*
X36695538Y-54244805D01*
X37074265Y-54087931D01*
X37142325Y-53846930D01*
X37142325Y-69218243D01*
X37106222Y-69164211D01*
X36644762Y-68855874D01*
X36100433Y-68747600D01*
X35533455Y-68747600D01*
X35533455Y-63998248D01*
X35309647Y-63456589D01*
X34895591Y-63041810D01*
X34843608Y-63020224D01*
X34893411Y-62999647D01*
X35308190Y-62585591D01*
X35532944Y-62044323D01*
X35533455Y-61458248D01*
X35309647Y-60916589D01*
X34895591Y-60501810D01*
X34354323Y-60277056D01*
X33768248Y-60276545D01*
X33226589Y-60500353D01*
X32811810Y-60914409D01*
X32587056Y-61455677D01*
X32586545Y-62041752D01*
X32810353Y-62583411D01*
X33224409Y-62998190D01*
X33276391Y-63019775D01*
X33226589Y-63040353D01*
X32811810Y-63454409D01*
X32587056Y-63995677D01*
X32586545Y-64581752D01*
X32810353Y-65123411D01*
X33224409Y-65538190D01*
X33765677Y-65762944D01*
X34351752Y-65763455D01*
X34893411Y-65539647D01*
X35308190Y-65125591D01*
X35532944Y-64584323D01*
X35533455Y-63998248D01*
X35533455Y-68747600D01*
X35319567Y-68747600D01*
X34775238Y-68855874D01*
X34313778Y-69164211D01*
X34005441Y-69625671D01*
X33897167Y-70170000D01*
X34005441Y-70714329D01*
X34313778Y-71175789D01*
X34709198Y-71440000D01*
X34313778Y-71704211D01*
X34005441Y-72165671D01*
X33897167Y-72710000D01*
X34005441Y-73254329D01*
X34313778Y-73715789D01*
X34709198Y-73980000D01*
X34313778Y-74244211D01*
X34005441Y-74705671D01*
X33897167Y-75250000D01*
X34005441Y-75794329D01*
X34313778Y-76255789D01*
X34709198Y-76520000D01*
X34313778Y-76784211D01*
X34005441Y-77245671D01*
X33897167Y-77790000D01*
X34005441Y-78334329D01*
X34313778Y-78795789D01*
X34709198Y-79060000D01*
X34313778Y-79324211D01*
X34005441Y-79785671D01*
X33897167Y-80330000D01*
X34005441Y-80874329D01*
X34313778Y-81335789D01*
X34709198Y-81600000D01*
X34313778Y-81864211D01*
X34005441Y-82325671D01*
X33897167Y-82870000D01*
X34005441Y-83414329D01*
X34313778Y-83875789D01*
X34709198Y-84140000D01*
X34313778Y-84404211D01*
X34005441Y-84865671D01*
X33897167Y-85410000D01*
X34005441Y-85954329D01*
X34313778Y-86415789D01*
X34709198Y-86680000D01*
X34313778Y-86944211D01*
X34005441Y-87405671D01*
X33897167Y-87950000D01*
X34005441Y-88494329D01*
X34313778Y-88955789D01*
X34709198Y-89220000D01*
X34313778Y-89484211D01*
X34005441Y-89945671D01*
X33897167Y-90490000D01*
X34005441Y-91034329D01*
X34313778Y-91495789D01*
X34709198Y-91760000D01*
X34313778Y-92024211D01*
X34005441Y-92485671D01*
X33897167Y-93030000D01*
X34005441Y-93574329D01*
X34313778Y-94035789D01*
X34775238Y-94344126D01*
X35319567Y-94452400D01*
X36100433Y-94452400D01*
X36644762Y-94344126D01*
X37106222Y-94035789D01*
X37414559Y-93574329D01*
X37522833Y-93030000D01*
X37522833Y-95785000D01*
X32460416Y-95785000D01*
X32460416Y-55151345D01*
X32460416Y-43281925D01*
X32086694Y-42377448D01*
X31395292Y-41684838D01*
X31080082Y-41553951D01*
X31391652Y-41425214D01*
X32084262Y-40733812D01*
X32459562Y-39829989D01*
X32460416Y-38851345D01*
X32086694Y-37946868D01*
X31395292Y-37254258D01*
X30491469Y-36878958D01*
X29512825Y-36878104D01*
X28608348Y-37251826D01*
X27915738Y-37943228D01*
X27540438Y-38847051D01*
X27539584Y-39825695D01*
X27913306Y-40730172D01*
X28604708Y-41422782D01*
X28919917Y-41553668D01*
X28608348Y-41682406D01*
X27915738Y-42373808D01*
X27540438Y-43277631D01*
X27539584Y-44256275D01*
X27913306Y-45160752D01*
X28604708Y-45853362D01*
X29508531Y-46228662D01*
X30487175Y-46229516D01*
X31391652Y-45855794D01*
X32084262Y-45164392D01*
X32459562Y-44260569D01*
X32460416Y-43281925D01*
X32460416Y-55151345D01*
X32086694Y-54246868D01*
X31395292Y-53554258D01*
X30491469Y-53178958D01*
X29512825Y-53178104D01*
X28608348Y-53551826D01*
X27915738Y-54243228D01*
X27540438Y-55147051D01*
X27539584Y-56125695D01*
X27913306Y-57030172D01*
X28604708Y-57722782D01*
X29508531Y-58098082D01*
X30487175Y-58098936D01*
X31391652Y-57725214D01*
X32084262Y-57033812D01*
X32459562Y-56129989D01*
X32460416Y-55151345D01*
X32460416Y-95785000D01*
X31033455Y-95785000D01*
X31033455Y-63998248D01*
X30809647Y-63456589D01*
X30395591Y-63041810D01*
X30343608Y-63020224D01*
X30393411Y-62999647D01*
X30808190Y-62585591D01*
X31032944Y-62044323D01*
X31033455Y-61458248D01*
X30809647Y-60916589D01*
X30395591Y-60501810D01*
X29854323Y-60277056D01*
X29268248Y-60276545D01*
X28726589Y-60500353D01*
X28311810Y-60914409D01*
X28087056Y-61455677D01*
X28086545Y-62041752D01*
X28310353Y-62583411D01*
X28724409Y-62998190D01*
X28776391Y-63019775D01*
X28726589Y-63040353D01*
X28311810Y-63454409D01*
X28087056Y-63995677D01*
X28086545Y-64581752D01*
X28310353Y-65123411D01*
X28724409Y-65538190D01*
X29265677Y-65762944D01*
X29851752Y-65763455D01*
X30393411Y-65539647D01*
X30808190Y-65125591D01*
X31032944Y-64584323D01*
X31033455Y-63998248D01*
X31033455Y-95785000D01*
X29868000Y-95785000D01*
X29868000Y-71083709D01*
X29868000Y-70455750D01*
X29868000Y-69884250D01*
X29868000Y-69256291D01*
X29771327Y-69022902D01*
X29592699Y-68844273D01*
X29359310Y-68747600D01*
X29106691Y-68747600D01*
X28375750Y-68747600D01*
X28217000Y-68906350D01*
X28217000Y-70043000D01*
X29709250Y-70043000D01*
X29868000Y-69884250D01*
X29868000Y-70455750D01*
X29709250Y-70297000D01*
X28217000Y-70297000D01*
X28217000Y-71287600D01*
X28217000Y-71433650D01*
X28217000Y-72583000D01*
X29702852Y-72583000D01*
X29825010Y-72362940D01*
X29808327Y-72283004D01*
X29541191Y-71794014D01*
X29290900Y-71592400D01*
X29359310Y-71592400D01*
X29592699Y-71495727D01*
X29771327Y-71317098D01*
X29868000Y-71083709D01*
X29868000Y-95785000D01*
X29825010Y-95785000D01*
X29825010Y-93377060D01*
X29825010Y-92682940D01*
X29808327Y-92603004D01*
X29541191Y-92114014D01*
X29107262Y-91764475D01*
X29092010Y-91760000D01*
X29107262Y-91755525D01*
X29541191Y-91405986D01*
X29808327Y-90916996D01*
X29825010Y-90837060D01*
X29825010Y-90142940D01*
X29808327Y-90063004D01*
X29541191Y-89574014D01*
X29107262Y-89224475D01*
X29092010Y-89220000D01*
X29107262Y-89215525D01*
X29541191Y-88865986D01*
X29808327Y-88376996D01*
X29825010Y-88297060D01*
X29825010Y-87602940D01*
X29808327Y-87523004D01*
X29541191Y-87034014D01*
X29107262Y-86684475D01*
X29092010Y-86680000D01*
X29107262Y-86675525D01*
X29541191Y-86325986D01*
X29808327Y-85836996D01*
X29825010Y-85757060D01*
X29825010Y-85062940D01*
X29808327Y-84983004D01*
X29541191Y-84494014D01*
X29107262Y-84144475D01*
X29092010Y-84140000D01*
X29107262Y-84135525D01*
X29541191Y-83785986D01*
X29808327Y-83296996D01*
X29825010Y-83217060D01*
X29825010Y-82522940D01*
X29808327Y-82443004D01*
X29541191Y-81954014D01*
X29107262Y-81604475D01*
X29092010Y-81600000D01*
X29107262Y-81595525D01*
X29541191Y-81245986D01*
X29808327Y-80756996D01*
X29825010Y-80677060D01*
X29825010Y-79982940D01*
X29808327Y-79903004D01*
X29541191Y-79414014D01*
X29107262Y-79064475D01*
X29092010Y-79060000D01*
X29107262Y-79055525D01*
X29541191Y-78705986D01*
X29808327Y-78216996D01*
X29825010Y-78137060D01*
X29825010Y-77442940D01*
X29808327Y-77363004D01*
X29541191Y-76874014D01*
X29107262Y-76524475D01*
X29092010Y-76520000D01*
X29107262Y-76515525D01*
X29541191Y-76165986D01*
X29808327Y-75676996D01*
X29825010Y-75597060D01*
X29825010Y-74902940D01*
X29808327Y-74823004D01*
X29541191Y-74334014D01*
X29107262Y-73984475D01*
X29092010Y-73980000D01*
X29107262Y-73975525D01*
X29541191Y-73625986D01*
X29808327Y-73136996D01*
X29825010Y-73057060D01*
X29702852Y-72837000D01*
X28217000Y-72837000D01*
X28217000Y-73827600D01*
X28217000Y-74132400D01*
X28217000Y-75123000D01*
X29702852Y-75123000D01*
X29825010Y-74902940D01*
X29825010Y-75597060D01*
X29702852Y-75377000D01*
X28217000Y-75377000D01*
X28217000Y-76367600D01*
X28217000Y-76672400D01*
X28217000Y-77663000D01*
X29702852Y-77663000D01*
X29825010Y-77442940D01*
X29825010Y-78137060D01*
X29702852Y-77917000D01*
X28217000Y-77917000D01*
X28217000Y-78907600D01*
X28217000Y-79212400D01*
X28217000Y-80203000D01*
X29702852Y-80203000D01*
X29825010Y-79982940D01*
X29825010Y-80677060D01*
X29702852Y-80457000D01*
X28217000Y-80457000D01*
X28217000Y-81447600D01*
X28217000Y-81752400D01*
X28217000Y-82743000D01*
X29702852Y-82743000D01*
X29825010Y-82522940D01*
X29825010Y-83217060D01*
X29702852Y-82997000D01*
X28217000Y-82997000D01*
X28217000Y-83987600D01*
X28217000Y-84292400D01*
X28217000Y-85283000D01*
X29702852Y-85283000D01*
X29825010Y-85062940D01*
X29825010Y-85757060D01*
X29702852Y-85537000D01*
X28217000Y-85537000D01*
X28217000Y-86527600D01*
X28217000Y-86832400D01*
X28217000Y-87823000D01*
X29702852Y-87823000D01*
X29825010Y-87602940D01*
X29825010Y-88297060D01*
X29702852Y-88077000D01*
X28217000Y-88077000D01*
X28217000Y-89067600D01*
X28217000Y-89372400D01*
X28217000Y-90363000D01*
X29702852Y-90363000D01*
X29825010Y-90142940D01*
X29825010Y-90837060D01*
X29702852Y-90617000D01*
X28217000Y-90617000D01*
X28217000Y-91607600D01*
X28217000Y-91912400D01*
X28217000Y-92903000D01*
X29702852Y-92903000D01*
X29825010Y-92682940D01*
X29825010Y-93377060D01*
X29702852Y-93157000D01*
X28217000Y-93157000D01*
X28217000Y-94452400D01*
X28572600Y-94452400D01*
X29107262Y-94295525D01*
X29541191Y-93945986D01*
X29808327Y-93456996D01*
X29825010Y-93377060D01*
X29825010Y-95785000D01*
X27963000Y-95785000D01*
X27963000Y-94452400D01*
X27963000Y-93157000D01*
X27963000Y-92903000D01*
X27963000Y-91912400D01*
X27963000Y-91607600D01*
X27963000Y-90617000D01*
X27963000Y-90363000D01*
X27963000Y-89372400D01*
X27963000Y-89067600D01*
X27963000Y-88077000D01*
X27963000Y-87823000D01*
X27963000Y-86832400D01*
X27963000Y-86527600D01*
X27963000Y-85537000D01*
X27963000Y-85283000D01*
X27963000Y-84292400D01*
X27963000Y-83987600D01*
X27963000Y-82997000D01*
X27963000Y-82743000D01*
X27963000Y-81752400D01*
X27963000Y-81447600D01*
X27963000Y-80457000D01*
X27963000Y-80203000D01*
X27963000Y-79212400D01*
X27963000Y-78907600D01*
X27963000Y-77917000D01*
X27963000Y-77663000D01*
X27963000Y-76672400D01*
X27963000Y-76367600D01*
X27963000Y-75377000D01*
X27963000Y-75123000D01*
X27963000Y-74132400D01*
X27963000Y-73827600D01*
X27963000Y-72837000D01*
X27963000Y-72583000D01*
X27963000Y-71433650D01*
X27963000Y-71287600D01*
X27963000Y-70297000D01*
X27963000Y-70043000D01*
X27963000Y-68906350D01*
X27804250Y-68747600D01*
X27073309Y-68747600D01*
X26820690Y-68747600D01*
X26587301Y-68844273D01*
X26408673Y-69022902D01*
X26312000Y-69256291D01*
X26312000Y-69884250D01*
X26470750Y-70043000D01*
X27963000Y-70043000D01*
X27963000Y-70297000D01*
X26470750Y-70297000D01*
X26312000Y-70455750D01*
X26312000Y-71083709D01*
X26408673Y-71317098D01*
X26587301Y-71495727D01*
X26820690Y-71592400D01*
X26889099Y-71592400D01*
X26638809Y-71794014D01*
X26371673Y-72283004D01*
X26354990Y-72362940D01*
X26477148Y-72583000D01*
X27963000Y-72583000D01*
X27963000Y-72837000D01*
X26477148Y-72837000D01*
X26354990Y-73057060D01*
X26371673Y-73136996D01*
X26638809Y-73625986D01*
X27072738Y-73975525D01*
X27087989Y-73980000D01*
X27072738Y-73984475D01*
X26638809Y-74334014D01*
X26371673Y-74823004D01*
X26354990Y-74902940D01*
X26477148Y-75123000D01*
X27963000Y-75123000D01*
X27963000Y-75377000D01*
X26477148Y-75377000D01*
X26354990Y-75597060D01*
X26371673Y-75676996D01*
X26638809Y-76165986D01*
X27072738Y-76515525D01*
X27087989Y-76520000D01*
X27072738Y-76524475D01*
X26638809Y-76874014D01*
X26371673Y-77363004D01*
X26354990Y-77442940D01*
X26477148Y-77663000D01*
X27963000Y-77663000D01*
X27963000Y-77917000D01*
X26477148Y-77917000D01*
X26354990Y-78137060D01*
X26371673Y-78216996D01*
X26638809Y-78705986D01*
X27072738Y-79055525D01*
X27087989Y-79060000D01*
X27072738Y-79064475D01*
X26638809Y-79414014D01*
X26371673Y-79903004D01*
X26354990Y-79982940D01*
X26477148Y-80203000D01*
X27963000Y-80203000D01*
X27963000Y-80457000D01*
X26477148Y-80457000D01*
X26354990Y-80677060D01*
X26371673Y-80756996D01*
X26638809Y-81245986D01*
X27072738Y-81595525D01*
X27087989Y-81600000D01*
X27072738Y-81604475D01*
X26638809Y-81954014D01*
X26371673Y-82443004D01*
X26354990Y-82522940D01*
X26477148Y-82743000D01*
X27963000Y-82743000D01*
X27963000Y-82997000D01*
X26477148Y-82997000D01*
X26354990Y-83217060D01*
X26371673Y-83296996D01*
X26638809Y-83785986D01*
X27072738Y-84135525D01*
X27087989Y-84140000D01*
X27072738Y-84144475D01*
X26638809Y-84494014D01*
X26371673Y-84983004D01*
X26354990Y-85062940D01*
X26477148Y-85283000D01*
X27963000Y-85283000D01*
X27963000Y-85537000D01*
X26477148Y-85537000D01*
X26354990Y-85757060D01*
X26371673Y-85836996D01*
X26638809Y-86325986D01*
X27072738Y-86675525D01*
X27087989Y-86680000D01*
X27072738Y-86684475D01*
X26638809Y-87034014D01*
X26371673Y-87523004D01*
X26354990Y-87602940D01*
X26477148Y-87823000D01*
X27963000Y-87823000D01*
X27963000Y-88077000D01*
X26477148Y-88077000D01*
X26354990Y-88297060D01*
X26371673Y-88376996D01*
X26638809Y-88865986D01*
X27072738Y-89215525D01*
X27087989Y-89220000D01*
X27072738Y-89224475D01*
X26638809Y-89574014D01*
X26371673Y-90063004D01*
X26354990Y-90142940D01*
X26477148Y-90363000D01*
X27963000Y-90363000D01*
X27963000Y-90617000D01*
X26477148Y-90617000D01*
X26354990Y-90837060D01*
X26371673Y-90916996D01*
X26638809Y-91405986D01*
X27072738Y-91755525D01*
X27087989Y-91760000D01*
X27072738Y-91764475D01*
X26638809Y-92114014D01*
X26371673Y-92603004D01*
X26354990Y-92682940D01*
X26477148Y-92903000D01*
X27963000Y-92903000D01*
X27963000Y-93157000D01*
X26477148Y-93157000D01*
X26354990Y-93377060D01*
X26371673Y-93456996D01*
X26638809Y-93945986D01*
X27072738Y-94295525D01*
X27607400Y-94452400D01*
X27963000Y-94452400D01*
X27963000Y-95785000D01*
X26135000Y-95785000D01*
X26135000Y-25127000D01*
X29226478Y-25127000D01*
X28608348Y-25382406D01*
X27915738Y-26073808D01*
X27540438Y-26977631D01*
X27539584Y-27956275D01*
X27913306Y-28860752D01*
X28604708Y-29553362D01*
X29508531Y-29928662D01*
X30487175Y-29929516D01*
X31391652Y-29555794D01*
X32084262Y-28864392D01*
X32459562Y-27960569D01*
X32460416Y-26981925D01*
X32086694Y-26077448D01*
X31395292Y-25384838D01*
X30774348Y-25127000D01*
X123725000Y-25127000D01*
X123725000Y-95785000D01*
X123725000Y-95785000D01*
G37*
X123725000Y-95785000D02*
X120993345Y-95785000D01*
X120993345Y-85660000D01*
X120879271Y-85086511D01*
X120554415Y-84600330D01*
X120239634Y-84390000D01*
X120554415Y-84179670D01*
X120879271Y-83693489D01*
X120993345Y-83120000D01*
X120879271Y-82546511D01*
X120554415Y-82060330D01*
X120239634Y-81850000D01*
X120554415Y-81639670D01*
X120879271Y-81153489D01*
X120993345Y-80580000D01*
X120879271Y-80006511D01*
X120554415Y-79520330D01*
X120538632Y-79509784D01*
X120568123Y-79504063D01*
X120780927Y-79364273D01*
X120923377Y-79153240D01*
X120973440Y-78903600D01*
X120973440Y-77176400D01*
X120926463Y-76934277D01*
X120786673Y-76721473D01*
X120575640Y-76579023D01*
X120537037Y-76571281D01*
X120554415Y-76559670D01*
X120879271Y-76073489D01*
X120993345Y-75500000D01*
X120879271Y-74926511D01*
X120554415Y-74440330D01*
X120239634Y-74230000D01*
X120554415Y-74019670D01*
X120879271Y-73533489D01*
X120993345Y-72960000D01*
X120879271Y-72386511D01*
X120554415Y-71900330D01*
X120239634Y-71690000D01*
X120554415Y-71479670D01*
X120879271Y-70993489D01*
X120993345Y-70420000D01*
X120879271Y-69846511D01*
X120554415Y-69360330D01*
X120538632Y-69349784D01*
X120568123Y-69344063D01*
X120780927Y-69204273D01*
X120923377Y-68993240D01*
X120973440Y-68743600D01*
X120973440Y-67016400D01*
X120926463Y-66774277D01*
X120786673Y-66561473D01*
X120575640Y-66419023D01*
X120537037Y-66411281D01*
X120554415Y-66399670D01*
X120879271Y-65913489D01*
X120993345Y-65340000D01*
X120879271Y-64766511D01*
X120554415Y-64280330D01*
X120239634Y-64070000D01*
X120554415Y-63859670D01*
X120879271Y-63373489D01*
X120993345Y-62800000D01*
X120879271Y-62226511D01*
X120554415Y-61740330D01*
X120239634Y-61530000D01*
X120554415Y-61319670D01*
X120879271Y-60833489D01*
X120993345Y-60260000D01*
X120879271Y-59686511D01*
X120554415Y-59200330D01*
X120538632Y-59189784D01*
X120568123Y-59184063D01*
X120780927Y-59044273D01*
X120923377Y-58833240D01*
X120973440Y-58583600D01*
X120973440Y-56856400D01*
X120926463Y-56614277D01*
X120786673Y-56401473D01*
X120575640Y-56259023D01*
X120537037Y-56251281D01*
X120554415Y-56239670D01*
X120879271Y-55753489D01*
X120993345Y-55180000D01*
X120879271Y-54606511D01*
X120554415Y-54120330D01*
X120239634Y-53910000D01*
X120554415Y-53699670D01*
X120879271Y-53213489D01*
X120993345Y-52640000D01*
X120879271Y-52066511D01*
X120554415Y-51580330D01*
X120239634Y-51370000D01*
X120554415Y-51159670D01*
X120879271Y-50673489D01*
X120993345Y-50100000D01*
X120879271Y-49526511D01*
X120554415Y-49040330D01*
X120538632Y-49029784D01*
X120568123Y-49024063D01*
X120780927Y-48884273D01*
X120923377Y-48673240D01*
X120973440Y-48423600D01*
X120973440Y-46696400D01*
X120926463Y-46454277D01*
X120786673Y-46241473D01*
X120575640Y-46099023D01*
X120537037Y-46091281D01*
X120554415Y-46079670D01*
X120879271Y-45593489D01*
X120993345Y-45020000D01*
X120879271Y-44446511D01*
X120554415Y-43960330D01*
X120239634Y-43750000D01*
X120554415Y-43539670D01*
X120879271Y-43053489D01*
X120993345Y-42480000D01*
X120879271Y-41906511D01*
X120554415Y-41420330D01*
X120239634Y-41210000D01*
X120554415Y-40999670D01*
X120879271Y-40513489D01*
X120993345Y-39940000D01*
X120879271Y-39366511D01*
X120554415Y-38880330D01*
X120538632Y-38869784D01*
X120568123Y-38864063D01*
X120780927Y-38724273D01*
X120923377Y-38513240D01*
X120973440Y-38263600D01*
X120973440Y-36536400D01*
X120926463Y-36294277D01*
X120786673Y-36081473D01*
X120575640Y-35939023D01*
X120326000Y-35888960D01*
X118294000Y-35888960D01*
X118051877Y-35935937D01*
X117839073Y-36075727D01*
X117696623Y-36286760D01*
X117646560Y-36536400D01*
X117646560Y-38263600D01*
X117693537Y-38505723D01*
X117833327Y-38718527D01*
X118044360Y-38860977D01*
X118082962Y-38868718D01*
X118065585Y-38880330D01*
X117740729Y-39366511D01*
X117626655Y-39940000D01*
X117740729Y-40513489D01*
X118065585Y-40999670D01*
X118380365Y-41210000D01*
X118065585Y-41420330D01*
X117740729Y-41906511D01*
X117626655Y-42480000D01*
X117740729Y-43053489D01*
X118065585Y-43539670D01*
X118380365Y-43750000D01*
X118065585Y-43960330D01*
X117740729Y-44446511D01*
X117626655Y-45020000D01*
X117740729Y-45593489D01*
X118065585Y-46079670D01*
X118081367Y-46090215D01*
X118051877Y-46095937D01*
X117839073Y-46235727D01*
X117696623Y-46446760D01*
X117646560Y-46696400D01*
X117646560Y-48423600D01*
X117693537Y-48665723D01*
X117833327Y-48878527D01*
X118044360Y-49020977D01*
X118082962Y-49028718D01*
X118065585Y-49040330D01*
X117740729Y-49526511D01*
X117626655Y-50100000D01*
X117740729Y-50673489D01*
X118065585Y-51159670D01*
X118380365Y-51370000D01*
X118065585Y-51580330D01*
X117740729Y-52066511D01*
X117626655Y-52640000D01*
X117740729Y-53213489D01*
X118065585Y-53699670D01*
X118380365Y-53910000D01*
X118065585Y-54120330D01*
X117740729Y-54606511D01*
X117626655Y-55180000D01*
X117740729Y-55753489D01*
X118065585Y-56239670D01*
X118081367Y-56250215D01*
X118051877Y-56255937D01*
X117839073Y-56395727D01*
X117696623Y-56606760D01*
X117646560Y-56856400D01*
X117646560Y-58583600D01*
X117693537Y-58825723D01*
X117833327Y-59038527D01*
X118044360Y-59180977D01*
X118082962Y-59188718D01*
X118065585Y-59200330D01*
X117740729Y-59686511D01*
X117626655Y-60260000D01*
X117740729Y-60833489D01*
X118065585Y-61319670D01*
X118380365Y-61530000D01*
X118065585Y-61740330D01*
X117740729Y-62226511D01*
X117626655Y-62800000D01*
X117740729Y-63373489D01*
X118065585Y-63859670D01*
X118380365Y-64070000D01*
X118065585Y-64280330D01*
X117740729Y-64766511D01*
X117626655Y-65340000D01*
X117740729Y-65913489D01*
X118065585Y-66399670D01*
X118081367Y-66410215D01*
X118051877Y-66415937D01*
X117839073Y-66555727D01*
X117696623Y-66766760D01*
X117646560Y-67016400D01*
X117646560Y-68743600D01*
X117693537Y-68985723D01*
X117833327Y-69198527D01*
X118044360Y-69340977D01*
X118082962Y-69348718D01*
X118065585Y-69360330D01*
X117740729Y-69846511D01*
X117626655Y-70420000D01*
X117740729Y-70993489D01*
X118065585Y-71479670D01*
X118380365Y-71690000D01*
X118065585Y-71900330D01*
X117740729Y-72386511D01*
X117626655Y-72960000D01*
X117740729Y-73533489D01*
X118065585Y-74019670D01*
X118380365Y-74230000D01*
X118065585Y-74440330D01*
X117740729Y-74926511D01*
X117626655Y-75500000D01*
X117740729Y-76073489D01*
X118065585Y-76559670D01*
X118081367Y-76570215D01*
X118051877Y-76575937D01*
X117839073Y-76715727D01*
X117696623Y-76926760D01*
X117646560Y-77176400D01*
X117646560Y-78903600D01*
X117693537Y-79145723D01*
X117833327Y-79358527D01*
X118044360Y-79500977D01*
X118082962Y-79508718D01*
X118065585Y-79520330D01*
X117740729Y-80006511D01*
X117626655Y-80580000D01*
X117740729Y-81153489D01*
X118065585Y-81639670D01*
X118380365Y-81850000D01*
X118065585Y-82060330D01*
X117740729Y-82546511D01*
X117626655Y-83120000D01*
X117740729Y-83693489D01*
X118065585Y-84179670D01*
X118380365Y-84390000D01*
X118065585Y-84600330D01*
X117740729Y-85086511D01*
X117626655Y-85660000D01*
X117740729Y-86233489D01*
X117998188Y-86618804D01*
X117839073Y-86723327D01*
X117696623Y-86934360D01*
X117646560Y-87184000D01*
X117646560Y-89216000D01*
X117693537Y-89458123D01*
X117833327Y-89670927D01*
X117986256Y-89774156D01*
X117784675Y-90075845D01*
X117659000Y-90707655D01*
X117659000Y-90772345D01*
X117784675Y-91404155D01*
X118142567Y-91939778D01*
X118678190Y-92297670D01*
X119310000Y-92423345D01*
X119941810Y-92297670D01*
X120477433Y-91939778D01*
X120835325Y-91404155D01*
X120961000Y-90772345D01*
X120961000Y-90707655D01*
X120835325Y-90075845D01*
X120633372Y-89773601D01*
X120780927Y-89676673D01*
X120923377Y-89465640D01*
X120973440Y-89216000D01*
X120973440Y-87184000D01*
X120926463Y-86941877D01*
X120786673Y-86729073D01*
X120622278Y-86618104D01*
X120879271Y-86233489D01*
X120993345Y-85660000D01*
X120993345Y-95785000D01*
X85167462Y-95785000D01*
X85167462Y-32071828D01*
X84762291Y-31091239D01*
X84012707Y-30340345D01*
X83032827Y-29933464D01*
X81971828Y-29932538D01*
X80991239Y-30337709D01*
X80240345Y-31087293D01*
X79833464Y-32067173D01*
X79832538Y-33128172D01*
X80237709Y-34108761D01*
X80987293Y-34859655D01*
X81967173Y-35266536D01*
X83028172Y-35267462D01*
X84008761Y-34862291D01*
X84759655Y-34112707D01*
X85166536Y-33132827D01*
X85167462Y-32071828D01*
X85167462Y-95785000D01*
X70963345Y-95785000D01*
X70963345Y-80740000D01*
X70849271Y-80166511D01*
X70524415Y-79680330D01*
X70209634Y-79470000D01*
X70524415Y-79259670D01*
X70849271Y-78773489D01*
X70963345Y-78200000D01*
X70849271Y-77626511D01*
X70524415Y-77140330D01*
X70209634Y-76930000D01*
X70524415Y-76719670D01*
X70849271Y-76233489D01*
X70963345Y-75660000D01*
X70849271Y-75086511D01*
X70524415Y-74600330D01*
X70508632Y-74589784D01*
X70538123Y-74584063D01*
X70750927Y-74444273D01*
X70893377Y-74233240D01*
X70943440Y-73983600D01*
X70943440Y-72256400D01*
X70896463Y-72014277D01*
X70756673Y-71801473D01*
X70545640Y-71659023D01*
X70507037Y-71651281D01*
X70524415Y-71639670D01*
X70849271Y-71153489D01*
X70963345Y-70580000D01*
X70849271Y-70006511D01*
X70524415Y-69520330D01*
X70209634Y-69310000D01*
X70524415Y-69099670D01*
X70849271Y-68613489D01*
X70963345Y-68040000D01*
X70849271Y-67466511D01*
X70524415Y-66980330D01*
X70209634Y-66770000D01*
X70524415Y-66559670D01*
X70849271Y-66073489D01*
X70963345Y-65500000D01*
X70849271Y-64926511D01*
X70524415Y-64440330D01*
X70508632Y-64429784D01*
X70538123Y-64424063D01*
X70750927Y-64284273D01*
X70893377Y-64073240D01*
X70943440Y-63823600D01*
X70943440Y-62096400D01*
X70896463Y-61854277D01*
X70756673Y-61641473D01*
X70545640Y-61499023D01*
X70507037Y-61491281D01*
X70524415Y-61479670D01*
X70849271Y-60993489D01*
X70963345Y-60420000D01*
X70849271Y-59846511D01*
X70524415Y-59360330D01*
X70209634Y-59150000D01*
X70524415Y-58939670D01*
X70849271Y-58453489D01*
X70963345Y-57880000D01*
X70849271Y-57306511D01*
X70524415Y-56820330D01*
X70209634Y-56610000D01*
X70524415Y-56399670D01*
X70849271Y-55913489D01*
X70963345Y-55340000D01*
X70849271Y-54766511D01*
X70524415Y-54280330D01*
X70508632Y-54269784D01*
X70538123Y-54264063D01*
X70750927Y-54124273D01*
X70893377Y-53913240D01*
X70943440Y-53663600D01*
X70943440Y-51936400D01*
X70896463Y-51694277D01*
X70756673Y-51481473D01*
X70545640Y-51339023D01*
X70507037Y-51331281D01*
X70524415Y-51319670D01*
X70849271Y-50833489D01*
X70963345Y-50260000D01*
X70849271Y-49686511D01*
X70524415Y-49200330D01*
X70209634Y-48990000D01*
X70524415Y-48779670D01*
X70849271Y-48293489D01*
X70963345Y-47720000D01*
X70849271Y-47146511D01*
X70524415Y-46660330D01*
X70209634Y-46450000D01*
X70524415Y-46239670D01*
X70849271Y-45753489D01*
X70963345Y-45180000D01*
X70849271Y-44606511D01*
X70524415Y-44120330D01*
X70508632Y-44109784D01*
X70538123Y-44104063D01*
X70750927Y-43964273D01*
X70893377Y-43753240D01*
X70943440Y-43503600D01*
X70943440Y-41776400D01*
X70896463Y-41534277D01*
X70756673Y-41321473D01*
X70545640Y-41179023D01*
X70507037Y-41171281D01*
X70524415Y-41159670D01*
X70849271Y-40673489D01*
X70963345Y-40100000D01*
X70849271Y-39526511D01*
X70524415Y-39040330D01*
X70209634Y-38830000D01*
X70524415Y-38619670D01*
X70849271Y-38133489D01*
X70963345Y-37560000D01*
X70849271Y-36986511D01*
X70524415Y-36500330D01*
X70209634Y-36290000D01*
X70524415Y-36079670D01*
X70849271Y-35593489D01*
X70963345Y-35020000D01*
X70849271Y-34446511D01*
X70524415Y-33960330D01*
X70038234Y-33635474D01*
X69464745Y-33521400D01*
X69095255Y-33521400D01*
X68521766Y-33635474D01*
X68035585Y-33960330D01*
X67710729Y-34446511D01*
X67596655Y-35020000D01*
X67710729Y-35593489D01*
X68035585Y-36079670D01*
X68350365Y-36290000D01*
X68035585Y-36500330D01*
X67710729Y-36986511D01*
X67596655Y-37560000D01*
X67710729Y-38133489D01*
X68035585Y-38619670D01*
X68350365Y-38830000D01*
X68035585Y-39040330D01*
X67710729Y-39526511D01*
X67596655Y-40100000D01*
X67710729Y-40673489D01*
X68035585Y-41159670D01*
X68051367Y-41170215D01*
X68021877Y-41175937D01*
X67809073Y-41315727D01*
X67666623Y-41526760D01*
X67616560Y-41776400D01*
X67616560Y-43503600D01*
X67663537Y-43745723D01*
X67803327Y-43958527D01*
X68014360Y-44100977D01*
X68052962Y-44108718D01*
X68035585Y-44120330D01*
X67710729Y-44606511D01*
X67596655Y-45180000D01*
X67710729Y-45753489D01*
X68035585Y-46239670D01*
X68350365Y-46450000D01*
X68035585Y-46660330D01*
X67710729Y-47146511D01*
X67596655Y-47720000D01*
X67710729Y-48293489D01*
X68035585Y-48779670D01*
X68350365Y-48990000D01*
X68035585Y-49200330D01*
X67710729Y-49686511D01*
X67596655Y-50260000D01*
X67710729Y-50833489D01*
X68035585Y-51319670D01*
X68051367Y-51330215D01*
X68021877Y-51335937D01*
X67809073Y-51475727D01*
X67666623Y-51686760D01*
X67616560Y-51936400D01*
X67616560Y-53663600D01*
X67663537Y-53905723D01*
X67803327Y-54118527D01*
X68014360Y-54260977D01*
X68052962Y-54268718D01*
X68035585Y-54280330D01*
X67710729Y-54766511D01*
X67596655Y-55340000D01*
X67710729Y-55913489D01*
X68035585Y-56399670D01*
X68350365Y-56610000D01*
X68035585Y-56820330D01*
X67710729Y-57306511D01*
X67596655Y-57880000D01*
X67710729Y-58453489D01*
X68035585Y-58939670D01*
X68350365Y-59150000D01*
X68035585Y-59360330D01*
X67710729Y-59846511D01*
X67596655Y-60420000D01*
X67710729Y-60993489D01*
X68035585Y-61479670D01*
X68051367Y-61490215D01*
X68021877Y-61495937D01*
X67809073Y-61635727D01*
X67666623Y-61846760D01*
X67616560Y-62096400D01*
X67616560Y-63823600D01*
X67663537Y-64065723D01*
X67803327Y-64278527D01*
X68014360Y-64420977D01*
X68052962Y-64428718D01*
X68035585Y-64440330D01*
X67710729Y-64926511D01*
X67596655Y-65500000D01*
X67710729Y-66073489D01*
X68035585Y-66559670D01*
X68350365Y-66770000D01*
X68035585Y-66980330D01*
X67710729Y-67466511D01*
X67596655Y-68040000D01*
X67710729Y-68613489D01*
X68035585Y-69099670D01*
X68350365Y-69310000D01*
X68035585Y-69520330D01*
X67710729Y-70006511D01*
X67596655Y-70580000D01*
X67710729Y-71153489D01*
X68035585Y-71639670D01*
X68051367Y-71650215D01*
X68021877Y-71655937D01*
X67809073Y-71795727D01*
X67666623Y-72006760D01*
X67616560Y-72256400D01*
X67616560Y-73983600D01*
X67663537Y-74225723D01*
X67803327Y-74438527D01*
X68014360Y-74580977D01*
X68052962Y-74588718D01*
X68035585Y-74600330D01*
X67710729Y-75086511D01*
X67596655Y-75660000D01*
X67710729Y-76233489D01*
X68035585Y-76719670D01*
X68350365Y-76930000D01*
X68035585Y-77140330D01*
X67710729Y-77626511D01*
X67596655Y-78200000D01*
X67710729Y-78773489D01*
X68035585Y-79259670D01*
X68350365Y-79470000D01*
X68035585Y-79680330D01*
X67710729Y-80166511D01*
X67596655Y-80740000D01*
X67710729Y-81313489D01*
X68035585Y-81799670D01*
X68051367Y-81810215D01*
X68021877Y-81815937D01*
X67809073Y-81955727D01*
X67666623Y-82166760D01*
X67616560Y-82416400D01*
X67616560Y-84143600D01*
X67663537Y-84385723D01*
X67803327Y-84598527D01*
X68014360Y-84740977D01*
X68029810Y-84744075D01*
X67754675Y-85155845D01*
X67629000Y-85787655D01*
X67629000Y-85852345D01*
X67754675Y-86484155D01*
X67956627Y-86786398D01*
X67809073Y-86883327D01*
X67666623Y-87094360D01*
X67616560Y-87344000D01*
X67616560Y-89376000D01*
X67663537Y-89618123D01*
X67803327Y-89830927D01*
X68014360Y-89973377D01*
X68264000Y-90023440D01*
X70296000Y-90023440D01*
X70538123Y-89976463D01*
X70750927Y-89836673D01*
X70893377Y-89625640D01*
X70943440Y-89376000D01*
X70943440Y-87344000D01*
X70896463Y-87101877D01*
X70756673Y-86889073D01*
X70603743Y-86785843D01*
X70805325Y-86484155D01*
X70931000Y-85852345D01*
X70931000Y-85787655D01*
X70805325Y-85155845D01*
X70531092Y-84745427D01*
X70538123Y-84744063D01*
X70750927Y-84604273D01*
X70893377Y-84393240D01*
X70943440Y-84143600D01*
X70943440Y-82416400D01*
X70896463Y-82174277D01*
X70756673Y-81961473D01*
X70545640Y-81819023D01*
X70507037Y-81811281D01*
X70524415Y-81799670D01*
X70849271Y-81313489D01*
X70963345Y-80740000D01*
X70963345Y-95785000D01*
X62568600Y-95785000D01*
X62568600Y-33064745D01*
X62568600Y-32695255D01*
X62568600Y-29314745D01*
X62568600Y-28945255D01*
X62454526Y-28371766D01*
X62129670Y-27885585D01*
X61643489Y-27560729D01*
X61070000Y-27446655D01*
X60496511Y-27560729D01*
X60010330Y-27885585D01*
X59800000Y-28200365D01*
X59589670Y-27885585D01*
X59103489Y-27560729D01*
X58530000Y-27446655D01*
X57956511Y-27560729D01*
X57470330Y-27885585D01*
X57455500Y-27907779D01*
X57391927Y-27754301D01*
X57213298Y-27575673D01*
X56979909Y-27479000D01*
X56275750Y-27479000D01*
X56117000Y-27637750D01*
X56117000Y-29003000D01*
X56137000Y-29003000D01*
X56137000Y-29257000D01*
X56117000Y-29257000D01*
X56117000Y-30622250D01*
X56275750Y-30781000D01*
X56979909Y-30781000D01*
X57213298Y-30684327D01*
X57391927Y-30505699D01*
X57455500Y-30352220D01*
X57470330Y-30374415D01*
X57956511Y-30699271D01*
X58530000Y-30813345D01*
X59103489Y-30699271D01*
X59589670Y-30374415D01*
X59800000Y-30059634D01*
X60010330Y-30374415D01*
X60496511Y-30699271D01*
X61070000Y-30813345D01*
X61643489Y-30699271D01*
X62129670Y-30374415D01*
X62454526Y-29888234D01*
X62568600Y-29314745D01*
X62568600Y-32695255D01*
X62454526Y-32121766D01*
X62129670Y-31635585D01*
X61643489Y-31310729D01*
X61070000Y-31196655D01*
X60496511Y-31310729D01*
X60010330Y-31635585D01*
X59800000Y-31950365D01*
X59589670Y-31635585D01*
X59103489Y-31310729D01*
X58530000Y-31196655D01*
X57956511Y-31310729D01*
X57470330Y-31635585D01*
X57455500Y-31657779D01*
X57391927Y-31504301D01*
X57213298Y-31325673D01*
X56979909Y-31229000D01*
X56275750Y-31229000D01*
X56117000Y-31387750D01*
X56117000Y-32753000D01*
X56137000Y-32753000D01*
X56137000Y-33007000D01*
X56117000Y-33007000D01*
X56117000Y-34372250D01*
X56275750Y-34531000D01*
X56979909Y-34531000D01*
X57213298Y-34434327D01*
X57391927Y-34255699D01*
X57455500Y-34102220D01*
X57470330Y-34124415D01*
X57956511Y-34449271D01*
X58530000Y-34563345D01*
X59103489Y-34449271D01*
X59589670Y-34124415D01*
X59800000Y-33809634D01*
X60010330Y-34124415D01*
X60496511Y-34449271D01*
X61070000Y-34563345D01*
X61643489Y-34449271D01*
X62129670Y-34124415D01*
X62454526Y-33638234D01*
X62568600Y-33064745D01*
X62568600Y-95785000D01*
X61043345Y-95785000D01*
X61043345Y-66010000D01*
X60929271Y-65436511D01*
X60604415Y-64950330D01*
X60289634Y-64740000D01*
X60604415Y-64529670D01*
X60929271Y-64043489D01*
X61043345Y-63470000D01*
X60929271Y-62896511D01*
X60604415Y-62410330D01*
X60118234Y-62085474D01*
X59544745Y-61971400D01*
X59175255Y-61971400D01*
X58601766Y-62085474D01*
X58115585Y-62410330D01*
X57790729Y-62896511D01*
X57676655Y-63470000D01*
X57790729Y-64043489D01*
X58115585Y-64529670D01*
X58430365Y-64740000D01*
X58115585Y-64950330D01*
X57790729Y-65436511D01*
X57676655Y-66010000D01*
X57790729Y-66583489D01*
X58115585Y-67069670D01*
X58137779Y-67084499D01*
X57984301Y-67148073D01*
X57805673Y-67326702D01*
X57709000Y-67560091D01*
X57709000Y-68264250D01*
X57867750Y-68423000D01*
X59233000Y-68423000D01*
X59233000Y-68403000D01*
X59487000Y-68403000D01*
X59487000Y-68423000D01*
X60852250Y-68423000D01*
X61011000Y-68264250D01*
X61011000Y-67560091D01*
X60914327Y-67326702D01*
X60735699Y-67148073D01*
X60582220Y-67084499D01*
X60604415Y-67069670D01*
X60929271Y-66583489D01*
X61043345Y-66010000D01*
X61043345Y-95785000D01*
X61011000Y-95785000D01*
X61011000Y-69539909D01*
X61011000Y-68835750D01*
X60852250Y-68677000D01*
X59487000Y-68677000D01*
X59487000Y-69889850D01*
X59645750Y-70048600D01*
X60249691Y-70048600D01*
X60502310Y-70048600D01*
X60735699Y-69951927D01*
X60914327Y-69773298D01*
X61011000Y-69539909D01*
X61011000Y-95785000D01*
X60121000Y-95785000D01*
X60121000Y-89732345D01*
X60121000Y-89667655D01*
X59995325Y-89035845D01*
X59794628Y-88735481D01*
X59845699Y-88714327D01*
X60024327Y-88535698D01*
X60121000Y-88302309D01*
X60121000Y-87445750D01*
X60121000Y-86874250D01*
X60121000Y-86017691D01*
X60024327Y-85784302D01*
X59845699Y-85605673D01*
X59612310Y-85509000D01*
X59359691Y-85509000D01*
X59233000Y-85509000D01*
X59233000Y-69889850D01*
X59233000Y-68677000D01*
X57867750Y-68677000D01*
X57709000Y-68835750D01*
X57709000Y-69539909D01*
X57805673Y-69773298D01*
X57984301Y-69951927D01*
X58217690Y-70048600D01*
X58470309Y-70048600D01*
X59074250Y-70048600D01*
X59233000Y-69889850D01*
X59233000Y-85509000D01*
X58755750Y-85509000D01*
X58597000Y-85667750D01*
X58597000Y-87033000D01*
X59962250Y-87033000D01*
X60121000Y-86874250D01*
X60121000Y-87445750D01*
X59962250Y-87287000D01*
X58597000Y-87287000D01*
X58597000Y-87307000D01*
X58343000Y-87307000D01*
X58343000Y-87287000D01*
X58343000Y-87033000D01*
X58343000Y-85667750D01*
X58184250Y-85509000D01*
X57580309Y-85509000D01*
X57327690Y-85509000D01*
X57094301Y-85605673D01*
X56915673Y-85784302D01*
X56819000Y-86017691D01*
X56819000Y-86874250D01*
X56977750Y-87033000D01*
X58343000Y-87033000D01*
X58343000Y-87287000D01*
X56977750Y-87287000D01*
X56819000Y-87445750D01*
X56819000Y-88302309D01*
X56915673Y-88535698D01*
X57094301Y-88714327D01*
X57145371Y-88735481D01*
X56944675Y-89035845D01*
X56819000Y-89667655D01*
X56819000Y-89732345D01*
X56944675Y-90364155D01*
X57302567Y-90899778D01*
X57838190Y-91257670D01*
X58470000Y-91383345D01*
X59101810Y-91257670D01*
X59637433Y-90899778D01*
X59995325Y-90364155D01*
X60121000Y-89732345D01*
X60121000Y-95785000D01*
X55863000Y-95785000D01*
X55863000Y-34372250D01*
X55863000Y-33007000D01*
X55863000Y-32753000D01*
X55863000Y-31387750D01*
X55863000Y-30622250D01*
X55863000Y-29257000D01*
X55863000Y-29003000D01*
X55863000Y-27637750D01*
X55704250Y-27479000D01*
X55000091Y-27479000D01*
X54766702Y-27575673D01*
X54588073Y-27754301D01*
X54491400Y-27987690D01*
X54491400Y-28240309D01*
X54491400Y-28844250D01*
X54650150Y-29003000D01*
X55863000Y-29003000D01*
X55863000Y-29257000D01*
X54650150Y-29257000D01*
X54491400Y-29415750D01*
X54491400Y-30019691D01*
X54491400Y-30272310D01*
X54588073Y-30505699D01*
X54766702Y-30684327D01*
X55000091Y-30781000D01*
X55704250Y-30781000D01*
X55863000Y-30622250D01*
X55863000Y-31387750D01*
X55704250Y-31229000D01*
X55000091Y-31229000D01*
X54766702Y-31325673D01*
X54588073Y-31504301D01*
X54491400Y-31737690D01*
X54491400Y-31990309D01*
X54491400Y-32594250D01*
X54650150Y-32753000D01*
X55863000Y-32753000D01*
X55863000Y-33007000D01*
X54650150Y-33007000D01*
X54491400Y-33165750D01*
X54491400Y-33769691D01*
X54491400Y-34022310D01*
X54588073Y-34255699D01*
X54766702Y-34434327D01*
X55000091Y-34531000D01*
X55704250Y-34531000D01*
X55863000Y-34372250D01*
X55863000Y-95785000D01*
X54861000Y-95785000D01*
X54861000Y-90321321D01*
X54861000Y-89738679D01*
X54735325Y-89106869D01*
X54377433Y-88571246D01*
X53841810Y-88213354D01*
X53210000Y-88087679D01*
X52578190Y-88213354D01*
X52042567Y-88571246D01*
X51925946Y-88745781D01*
X51747630Y-88518764D01*
X51184477Y-88202074D01*
X51052944Y-88170025D01*
X50797000Y-88289164D01*
X50797000Y-89903000D01*
X50817000Y-89903000D01*
X50817000Y-90157000D01*
X50797000Y-90157000D01*
X50797000Y-91770836D01*
X51052944Y-91889975D01*
X51184477Y-91857926D01*
X51747630Y-91541236D01*
X51925946Y-91314218D01*
X52042567Y-91488754D01*
X52578190Y-91846646D01*
X53210000Y-91972321D01*
X53841810Y-91846646D01*
X54377433Y-91488754D01*
X54735325Y-90953131D01*
X54861000Y-90321321D01*
X54861000Y-95785000D01*
X50543000Y-95785000D01*
X50543000Y-91770836D01*
X50543000Y-90157000D01*
X50523000Y-90157000D01*
X50523000Y-89903000D01*
X50543000Y-89903000D01*
X50543000Y-88289164D01*
X50358600Y-88203327D01*
X50358600Y-33469359D01*
X50358600Y-33410641D01*
X50244526Y-32837152D01*
X49919670Y-32350971D01*
X49433489Y-32026115D01*
X48860000Y-31912041D01*
X48286511Y-32026115D01*
X47800330Y-32350971D01*
X47790233Y-32366081D01*
X47784063Y-32334277D01*
X47644273Y-32121473D01*
X47433240Y-31979023D01*
X47183600Y-31928960D01*
X45456400Y-31928960D01*
X45214277Y-31975937D01*
X45001473Y-32115727D01*
X44859023Y-32326760D01*
X44808960Y-32576400D01*
X44808960Y-34303600D01*
X44855937Y-34545723D01*
X44995727Y-34758527D01*
X45206760Y-34900977D01*
X45248104Y-34909268D01*
X44935474Y-35377152D01*
X44821400Y-35950641D01*
X44821400Y-36009359D01*
X44935474Y-36582848D01*
X45260330Y-37069029D01*
X45531172Y-37250000D01*
X45260330Y-37430971D01*
X44935474Y-37917152D01*
X44821400Y-38490641D01*
X44821400Y-38549359D01*
X44935474Y-39122848D01*
X45260330Y-39609029D01*
X45531172Y-39790000D01*
X45260330Y-39970971D01*
X44935474Y-40457152D01*
X44821400Y-41030641D01*
X44821400Y-41089359D01*
X44935474Y-41662848D01*
X45260330Y-42149029D01*
X45531172Y-42330000D01*
X45260330Y-42510971D01*
X44935474Y-42997152D01*
X44821400Y-43570641D01*
X44821400Y-43629359D01*
X44935474Y-44202848D01*
X45260330Y-44689029D01*
X45433271Y-44804584D01*
X45119311Y-44934311D01*
X45055510Y-44998000D01*
X44544641Y-44998000D01*
X44392286Y-44845378D01*
X43995668Y-44680687D01*
X43566216Y-44680313D01*
X43169311Y-44844311D01*
X42865378Y-45147714D01*
X42700687Y-45544332D01*
X42700313Y-45973784D01*
X42864311Y-46370689D01*
X42927790Y-46434279D01*
X42879311Y-46454311D01*
X42575378Y-46757714D01*
X42410687Y-47154332D01*
X42410313Y-47583784D01*
X42574311Y-47980689D01*
X42877714Y-48284622D01*
X43274332Y-48449313D01*
X43703784Y-48449687D01*
X44100689Y-48285689D01*
X44254646Y-48132000D01*
X46011797Y-48132000D01*
X46044311Y-48210689D01*
X46347714Y-48514622D01*
X46744332Y-48679313D01*
X47173784Y-48679687D01*
X47570689Y-48515689D01*
X47874622Y-48212286D01*
X48039313Y-47815668D01*
X48039687Y-47386216D01*
X47875689Y-46989311D01*
X47572286Y-46685378D01*
X47175668Y-46520687D01*
X46746216Y-46520313D01*
X46533997Y-46608000D01*
X46498653Y-46608000D01*
X46644622Y-46462286D01*
X46809313Y-46065668D01*
X46809687Y-45636216D01*
X46645689Y-45239311D01*
X46498989Y-45092355D01*
X46893489Y-45013885D01*
X47379670Y-44689029D01*
X47595663Y-44365771D01*
X47653179Y-44488490D01*
X48085053Y-44882688D01*
X48500974Y-45054958D01*
X48733000Y-44933817D01*
X48733000Y-43727000D01*
X48713000Y-43727000D01*
X48713000Y-43473000D01*
X48733000Y-43473000D01*
X48733000Y-42393817D01*
X48733000Y-42266183D01*
X48733000Y-41187000D01*
X48713000Y-41187000D01*
X48713000Y-40933000D01*
X48733000Y-40933000D01*
X48733000Y-39853817D01*
X48733000Y-39726183D01*
X48733000Y-38647000D01*
X48713000Y-38647000D01*
X48713000Y-38393000D01*
X48733000Y-38393000D01*
X48733000Y-37313817D01*
X48733000Y-37186183D01*
X48733000Y-36107000D01*
X48713000Y-36107000D01*
X48713000Y-35853000D01*
X48733000Y-35853000D01*
X48733000Y-35833000D01*
X48987000Y-35833000D01*
X48987000Y-35853000D01*
X50194469Y-35853000D01*
X50314968Y-35620973D01*
X50066821Y-35091510D01*
X49648839Y-34709992D01*
X49919670Y-34529029D01*
X50244526Y-34042848D01*
X50358600Y-33469359D01*
X50358600Y-88203327D01*
X50314968Y-88183017D01*
X50314968Y-43959027D01*
X50314968Y-43240973D01*
X50066821Y-42711510D01*
X49648847Y-42330000D01*
X50066821Y-41948490D01*
X50314968Y-41419027D01*
X50314968Y-40700973D01*
X50066821Y-40171510D01*
X49648847Y-39790000D01*
X50066821Y-39408490D01*
X50314968Y-38879027D01*
X50314968Y-38160973D01*
X50066821Y-37631510D01*
X49648847Y-37250000D01*
X50066821Y-36868490D01*
X50314968Y-36339027D01*
X50194469Y-36107000D01*
X48987000Y-36107000D01*
X48987000Y-37186183D01*
X48987000Y-37313817D01*
X48987000Y-38393000D01*
X50194469Y-38393000D01*
X50314968Y-38160973D01*
X50314968Y-38879027D01*
X50194469Y-38647000D01*
X48987000Y-38647000D01*
X48987000Y-39726183D01*
X48987000Y-39853817D01*
X48987000Y-40933000D01*
X50194469Y-40933000D01*
X50314968Y-40700973D01*
X50314968Y-41419027D01*
X50194469Y-41187000D01*
X48987000Y-41187000D01*
X48987000Y-42266183D01*
X48987000Y-42393817D01*
X48987000Y-43473000D01*
X50194469Y-43473000D01*
X50314968Y-43240973D01*
X50314968Y-43959027D01*
X50194469Y-43727000D01*
X48987000Y-43727000D01*
X48987000Y-44933817D01*
X49219026Y-45054958D01*
X49634947Y-44882688D01*
X50066821Y-44488490D01*
X50314968Y-43959027D01*
X50314968Y-88183017D01*
X50287056Y-88170025D01*
X50155523Y-88202074D01*
X49592370Y-88518764D01*
X49414053Y-88745781D01*
X49297433Y-88571246D01*
X48761810Y-88213354D01*
X48130000Y-88087679D01*
X47498190Y-88213354D01*
X46962567Y-88571246D01*
X46604675Y-89106869D01*
X46479000Y-89738679D01*
X46479000Y-90321321D01*
X46604675Y-90953131D01*
X46962567Y-91488754D01*
X47498190Y-91846646D01*
X48130000Y-91972321D01*
X48761810Y-91846646D01*
X49297433Y-91488754D01*
X49414053Y-91314218D01*
X49592370Y-91541236D01*
X50155523Y-91857926D01*
X50287056Y-91889975D01*
X50543000Y-91770836D01*
X50543000Y-95785000D01*
X43167462Y-95785000D01*
X43167462Y-87571828D01*
X42762291Y-86591239D01*
X42012707Y-85840345D01*
X41032827Y-85433464D01*
X40287767Y-85432813D01*
X40287767Y-54349966D01*
X40287767Y-38049966D01*
X40275810Y-37814561D01*
X40275810Y-35030602D01*
X40065314Y-34521163D01*
X39675887Y-34131056D01*
X39444618Y-34035025D01*
X39673837Y-33940314D01*
X40063944Y-33550887D01*
X40275329Y-33041816D01*
X40275810Y-32490602D01*
X40065314Y-31981163D01*
X39675887Y-31591056D01*
X39444618Y-31495025D01*
X39673837Y-31400314D01*
X40063944Y-31010887D01*
X40275329Y-30501816D01*
X40275810Y-29950602D01*
X40065314Y-29441163D01*
X39675887Y-29051056D01*
X39166816Y-28839671D01*
X38615602Y-28839190D01*
X38106163Y-29049686D01*
X37748010Y-29407214D01*
X37748010Y-28204430D01*
X37701033Y-27962307D01*
X37561243Y-27749503D01*
X37350210Y-27607053D01*
X37100570Y-27556990D01*
X35599430Y-27556990D01*
X35357307Y-27603967D01*
X35144503Y-27743757D01*
X35002053Y-27954790D01*
X34951990Y-28204430D01*
X34951990Y-29705570D01*
X34998967Y-29947693D01*
X35138757Y-30160497D01*
X35349790Y-30302947D01*
X35543930Y-30341880D01*
X35176056Y-30709113D01*
X34964671Y-31218184D01*
X34964190Y-31769398D01*
X35174686Y-32278837D01*
X35564113Y-32668944D01*
X35795381Y-32764974D01*
X35566163Y-32859686D01*
X35176056Y-33249113D01*
X34964671Y-33758184D01*
X34964190Y-34309398D01*
X35174686Y-34818837D01*
X35564113Y-35208944D01*
X35779496Y-35298378D01*
X35625735Y-35362069D01*
X35557675Y-35603070D01*
X36350000Y-36395395D01*
X37142325Y-35603070D01*
X37074265Y-35362069D01*
X36908959Y-35303231D01*
X37133837Y-35210314D01*
X37523944Y-34820887D01*
X37735329Y-34311816D01*
X37735810Y-33760602D01*
X37525314Y-33251163D01*
X37135887Y-32861056D01*
X36904618Y-32765025D01*
X37133837Y-32670314D01*
X37523944Y-32280887D01*
X37735329Y-31771816D01*
X37735810Y-31220602D01*
X37525314Y-30711163D01*
X37156879Y-30342084D01*
X37342693Y-30306033D01*
X37504451Y-30199774D01*
X37504190Y-30499398D01*
X37714686Y-31008837D01*
X38104113Y-31398944D01*
X38335381Y-31494974D01*
X38106163Y-31589686D01*
X37716056Y-31979113D01*
X37504671Y-32488184D01*
X37504190Y-33039398D01*
X37714686Y-33548837D01*
X38104113Y-33938944D01*
X38335381Y-34034974D01*
X38106163Y-34129686D01*
X37716056Y-34519113D01*
X37504671Y-35028184D01*
X37504190Y-35579398D01*
X37714686Y-36088837D01*
X38104113Y-36478944D01*
X38319496Y-36568378D01*
X38165735Y-36632069D01*
X38097675Y-36873070D01*
X38890000Y-37665395D01*
X39682325Y-36873070D01*
X39614265Y-36632069D01*
X39448959Y-36573231D01*
X39673837Y-36480314D01*
X40063944Y-36090887D01*
X40275329Y-35581816D01*
X40275810Y-35030602D01*
X40275810Y-37814561D01*
X40259805Y-37499462D01*
X40102931Y-37120735D01*
X39861930Y-37052675D01*
X39069605Y-37845000D01*
X39861930Y-38637325D01*
X40102931Y-38569265D01*
X40287767Y-38049966D01*
X40287767Y-54349966D01*
X40275810Y-54114561D01*
X40275810Y-51330602D01*
X40065314Y-50821163D01*
X39675887Y-50431056D01*
X39444618Y-50335025D01*
X39673837Y-50240314D01*
X40063944Y-49850887D01*
X40275329Y-49341816D01*
X40275810Y-48790602D01*
X40065314Y-48281163D01*
X39675887Y-47891056D01*
X39444618Y-47795025D01*
X39673837Y-47700314D01*
X40063944Y-47310887D01*
X40275329Y-46801816D01*
X40275810Y-46250602D01*
X40065314Y-45741163D01*
X39682325Y-45357505D01*
X39682325Y-38816930D01*
X38890000Y-38024605D01*
X38710395Y-38204210D01*
X38710395Y-37845000D01*
X37918070Y-37052675D01*
X37747767Y-37100769D01*
X37747767Y-36779966D01*
X37719805Y-36229462D01*
X37562931Y-35850735D01*
X37321930Y-35782675D01*
X36529605Y-36575000D01*
X37321930Y-37367325D01*
X37562931Y-37299265D01*
X37747767Y-36779966D01*
X37747767Y-37100769D01*
X37677069Y-37120735D01*
X37492233Y-37640034D01*
X37520195Y-38190538D01*
X37677069Y-38569265D01*
X37918070Y-38637325D01*
X38710395Y-37845000D01*
X38710395Y-38204210D01*
X38097675Y-38816930D01*
X38165735Y-39057931D01*
X38685034Y-39242767D01*
X39235538Y-39214805D01*
X39614265Y-39057931D01*
X39682325Y-38816930D01*
X39682325Y-45357505D01*
X39675887Y-45351056D01*
X39166816Y-45139671D01*
X38615602Y-45139190D01*
X38106163Y-45349686D01*
X37748010Y-45707214D01*
X37748010Y-44504430D01*
X37701033Y-44262307D01*
X37561243Y-44049503D01*
X37350210Y-43907053D01*
X37142325Y-43865363D01*
X37142325Y-37546930D01*
X36350000Y-36754605D01*
X36170395Y-36934210D01*
X36170395Y-36575000D01*
X35378070Y-35782675D01*
X35137069Y-35850735D01*
X34952233Y-36370034D01*
X34980195Y-36920538D01*
X35137069Y-37299265D01*
X35378070Y-37367325D01*
X36170395Y-36575000D01*
X36170395Y-36934210D01*
X35557675Y-37546930D01*
X35625735Y-37787931D01*
X36145034Y-37972767D01*
X36695538Y-37944805D01*
X37074265Y-37787931D01*
X37142325Y-37546930D01*
X37142325Y-43865363D01*
X37100570Y-43856990D01*
X35599430Y-43856990D01*
X35357307Y-43903967D01*
X35144503Y-44043757D01*
X35002053Y-44254790D01*
X34951990Y-44504430D01*
X34951990Y-46005570D01*
X34998967Y-46247693D01*
X35138757Y-46460497D01*
X35349790Y-46602947D01*
X35543930Y-46641880D01*
X35176056Y-47009113D01*
X34964671Y-47518184D01*
X34964190Y-48069398D01*
X35174686Y-48578837D01*
X35564113Y-48968944D01*
X35795381Y-49064974D01*
X35566163Y-49159686D01*
X35176056Y-49549113D01*
X34964671Y-50058184D01*
X34964190Y-50609398D01*
X35174686Y-51118837D01*
X35564113Y-51508944D01*
X35779496Y-51598378D01*
X35625735Y-51662069D01*
X35557675Y-51903070D01*
X36350000Y-52695395D01*
X37142325Y-51903070D01*
X37074265Y-51662069D01*
X36908959Y-51603231D01*
X37133837Y-51510314D01*
X37523944Y-51120887D01*
X37735329Y-50611816D01*
X37735810Y-50060602D01*
X37525314Y-49551163D01*
X37135887Y-49161056D01*
X36904618Y-49065025D01*
X37133837Y-48970314D01*
X37523944Y-48580887D01*
X37735329Y-48071816D01*
X37735810Y-47520602D01*
X37525314Y-47011163D01*
X37156879Y-46642084D01*
X37342693Y-46606033D01*
X37504451Y-46499774D01*
X37504190Y-46799398D01*
X37714686Y-47308837D01*
X38104113Y-47698944D01*
X38335381Y-47794974D01*
X38106163Y-47889686D01*
X37716056Y-48279113D01*
X37504671Y-48788184D01*
X37504190Y-49339398D01*
X37714686Y-49848837D01*
X38104113Y-50238944D01*
X38335381Y-50334974D01*
X38106163Y-50429686D01*
X37716056Y-50819113D01*
X37504671Y-51328184D01*
X37504190Y-51879398D01*
X37714686Y-52388837D01*
X38104113Y-52778944D01*
X38319496Y-52868378D01*
X38165735Y-52932069D01*
X38097675Y-53173070D01*
X38890000Y-53965395D01*
X39682325Y-53173070D01*
X39614265Y-52932069D01*
X39448959Y-52873231D01*
X39673837Y-52780314D01*
X40063944Y-52390887D01*
X40275329Y-51881816D01*
X40275810Y-51330602D01*
X40275810Y-54114561D01*
X40259805Y-53799462D01*
X40102931Y-53420735D01*
X39861930Y-53352675D01*
X39069605Y-54145000D01*
X39861930Y-54937325D01*
X40102931Y-54869265D01*
X40287767Y-54349966D01*
X40287767Y-85432813D01*
X39971828Y-85432538D01*
X39682325Y-85552158D01*
X39682325Y-55116930D01*
X38890000Y-54324605D01*
X38710395Y-54504210D01*
X38710395Y-54145000D01*
X37918070Y-53352675D01*
X37747767Y-53400769D01*
X37747767Y-53079966D01*
X37719805Y-52529462D01*
X37562931Y-52150735D01*
X37321930Y-52082675D01*
X36529605Y-52875000D01*
X37321930Y-53667325D01*
X37562931Y-53599265D01*
X37747767Y-53079966D01*
X37747767Y-53400769D01*
X37677069Y-53420735D01*
X37492233Y-53940034D01*
X37520195Y-54490538D01*
X37677069Y-54869265D01*
X37918070Y-54937325D01*
X38710395Y-54145000D01*
X38710395Y-54504210D01*
X38097675Y-55116930D01*
X38165735Y-55357931D01*
X38685034Y-55542767D01*
X39235538Y-55514805D01*
X39614265Y-55357931D01*
X39682325Y-55116930D01*
X39682325Y-85552158D01*
X38991239Y-85837709D01*
X38240345Y-86587293D01*
X37833464Y-87567173D01*
X37832538Y-88628172D01*
X38237709Y-89608761D01*
X38987293Y-90359655D01*
X39967173Y-90766536D01*
X41028172Y-90767462D01*
X42008761Y-90362291D01*
X42759655Y-89612707D01*
X43166536Y-88632827D01*
X43167462Y-87571828D01*
X43167462Y-95785000D01*
X37522833Y-95785000D01*
X37522833Y-93030000D01*
X37414559Y-92485671D01*
X37106222Y-92024211D01*
X36710801Y-91760000D01*
X37106222Y-91495789D01*
X37414559Y-91034329D01*
X37522833Y-90490000D01*
X37414559Y-89945671D01*
X37106222Y-89484211D01*
X36710801Y-89220000D01*
X37106222Y-88955789D01*
X37414559Y-88494329D01*
X37522833Y-87950000D01*
X37414559Y-87405671D01*
X37106222Y-86944211D01*
X36710801Y-86680000D01*
X37106222Y-86415789D01*
X37414559Y-85954329D01*
X37522833Y-85410000D01*
X37414559Y-84865671D01*
X37106222Y-84404211D01*
X36710801Y-84140000D01*
X37106222Y-83875789D01*
X37414559Y-83414329D01*
X37522833Y-82870000D01*
X37414559Y-82325671D01*
X37106222Y-81864211D01*
X36710801Y-81600000D01*
X37106222Y-81335789D01*
X37414559Y-80874329D01*
X37522833Y-80330000D01*
X37414559Y-79785671D01*
X37106222Y-79324211D01*
X36710801Y-79060000D01*
X37106222Y-78795789D01*
X37414559Y-78334329D01*
X37522833Y-77790000D01*
X37414559Y-77245671D01*
X37106222Y-76784211D01*
X36710801Y-76520000D01*
X37106222Y-76255789D01*
X37414559Y-75794329D01*
X37522833Y-75250000D01*
X37414559Y-74705671D01*
X37106222Y-74244211D01*
X36710801Y-73980000D01*
X37106222Y-73715789D01*
X37414559Y-73254329D01*
X37522833Y-72710000D01*
X37414559Y-72165671D01*
X37106222Y-71704211D01*
X36710801Y-71440000D01*
X37106222Y-71175789D01*
X37414559Y-70714329D01*
X37522833Y-70170000D01*
X37414559Y-69625671D01*
X37142325Y-69218243D01*
X37142325Y-53846930D01*
X36350000Y-53054605D01*
X36170395Y-53234210D01*
X36170395Y-52875000D01*
X35378070Y-52082675D01*
X35137069Y-52150735D01*
X34952233Y-52670034D01*
X34980195Y-53220538D01*
X35137069Y-53599265D01*
X35378070Y-53667325D01*
X36170395Y-52875000D01*
X36170395Y-53234210D01*
X35557675Y-53846930D01*
X35625735Y-54087931D01*
X36145034Y-54272767D01*
X36695538Y-54244805D01*
X37074265Y-54087931D01*
X37142325Y-53846930D01*
X37142325Y-69218243D01*
X37106222Y-69164211D01*
X36644762Y-68855874D01*
X36100433Y-68747600D01*
X35533455Y-68747600D01*
X35533455Y-63998248D01*
X35309647Y-63456589D01*
X34895591Y-63041810D01*
X34843608Y-63020224D01*
X34893411Y-62999647D01*
X35308190Y-62585591D01*
X35532944Y-62044323D01*
X35533455Y-61458248D01*
X35309647Y-60916589D01*
X34895591Y-60501810D01*
X34354323Y-60277056D01*
X33768248Y-60276545D01*
X33226589Y-60500353D01*
X32811810Y-60914409D01*
X32587056Y-61455677D01*
X32586545Y-62041752D01*
X32810353Y-62583411D01*
X33224409Y-62998190D01*
X33276391Y-63019775D01*
X33226589Y-63040353D01*
X32811810Y-63454409D01*
X32587056Y-63995677D01*
X32586545Y-64581752D01*
X32810353Y-65123411D01*
X33224409Y-65538190D01*
X33765677Y-65762944D01*
X34351752Y-65763455D01*
X34893411Y-65539647D01*
X35308190Y-65125591D01*
X35532944Y-64584323D01*
X35533455Y-63998248D01*
X35533455Y-68747600D01*
X35319567Y-68747600D01*
X34775238Y-68855874D01*
X34313778Y-69164211D01*
X34005441Y-69625671D01*
X33897167Y-70170000D01*
X34005441Y-70714329D01*
X34313778Y-71175789D01*
X34709198Y-71440000D01*
X34313778Y-71704211D01*
X34005441Y-72165671D01*
X33897167Y-72710000D01*
X34005441Y-73254329D01*
X34313778Y-73715789D01*
X34709198Y-73980000D01*
X34313778Y-74244211D01*
X34005441Y-74705671D01*
X33897167Y-75250000D01*
X34005441Y-75794329D01*
X34313778Y-76255789D01*
X34709198Y-76520000D01*
X34313778Y-76784211D01*
X34005441Y-77245671D01*
X33897167Y-77790000D01*
X34005441Y-78334329D01*
X34313778Y-78795789D01*
X34709198Y-79060000D01*
X34313778Y-79324211D01*
X34005441Y-79785671D01*
X33897167Y-80330000D01*
X34005441Y-80874329D01*
X34313778Y-81335789D01*
X34709198Y-81600000D01*
X34313778Y-81864211D01*
X34005441Y-82325671D01*
X33897167Y-82870000D01*
X34005441Y-83414329D01*
X34313778Y-83875789D01*
X34709198Y-84140000D01*
X34313778Y-84404211D01*
X34005441Y-84865671D01*
X33897167Y-85410000D01*
X34005441Y-85954329D01*
X34313778Y-86415789D01*
X34709198Y-86680000D01*
X34313778Y-86944211D01*
X34005441Y-87405671D01*
X33897167Y-87950000D01*
X34005441Y-88494329D01*
X34313778Y-88955789D01*
X34709198Y-89220000D01*
X34313778Y-89484211D01*
X34005441Y-89945671D01*
X33897167Y-90490000D01*
X34005441Y-91034329D01*
X34313778Y-91495789D01*
X34709198Y-91760000D01*
X34313778Y-92024211D01*
X34005441Y-92485671D01*
X33897167Y-93030000D01*
X34005441Y-93574329D01*
X34313778Y-94035789D01*
X34775238Y-94344126D01*
X35319567Y-94452400D01*
X36100433Y-94452400D01*
X36644762Y-94344126D01*
X37106222Y-94035789D01*
X37414559Y-93574329D01*
X37522833Y-93030000D01*
X37522833Y-95785000D01*
X32460416Y-95785000D01*
X32460416Y-55151345D01*
X32460416Y-43281925D01*
X32086694Y-42377448D01*
X31395292Y-41684838D01*
X31080082Y-41553951D01*
X31391652Y-41425214D01*
X32084262Y-40733812D01*
X32459562Y-39829989D01*
X32460416Y-38851345D01*
X32086694Y-37946868D01*
X31395292Y-37254258D01*
X30491469Y-36878958D01*
X29512825Y-36878104D01*
X28608348Y-37251826D01*
X27915738Y-37943228D01*
X27540438Y-38847051D01*
X27539584Y-39825695D01*
X27913306Y-40730172D01*
X28604708Y-41422782D01*
X28919917Y-41553668D01*
X28608348Y-41682406D01*
X27915738Y-42373808D01*
X27540438Y-43277631D01*
X27539584Y-44256275D01*
X27913306Y-45160752D01*
X28604708Y-45853362D01*
X29508531Y-46228662D01*
X30487175Y-46229516D01*
X31391652Y-45855794D01*
X32084262Y-45164392D01*
X32459562Y-44260569D01*
X32460416Y-43281925D01*
X32460416Y-55151345D01*
X32086694Y-54246868D01*
X31395292Y-53554258D01*
X30491469Y-53178958D01*
X29512825Y-53178104D01*
X28608348Y-53551826D01*
X27915738Y-54243228D01*
X27540438Y-55147051D01*
X27539584Y-56125695D01*
X27913306Y-57030172D01*
X28604708Y-57722782D01*
X29508531Y-58098082D01*
X30487175Y-58098936D01*
X31391652Y-57725214D01*
X32084262Y-57033812D01*
X32459562Y-56129989D01*
X32460416Y-55151345D01*
X32460416Y-95785000D01*
X31033455Y-95785000D01*
X31033455Y-63998248D01*
X30809647Y-63456589D01*
X30395591Y-63041810D01*
X30343608Y-63020224D01*
X30393411Y-62999647D01*
X30808190Y-62585591D01*
X31032944Y-62044323D01*
X31033455Y-61458248D01*
X30809647Y-60916589D01*
X30395591Y-60501810D01*
X29854323Y-60277056D01*
X29268248Y-60276545D01*
X28726589Y-60500353D01*
X28311810Y-60914409D01*
X28087056Y-61455677D01*
X28086545Y-62041752D01*
X28310353Y-62583411D01*
X28724409Y-62998190D01*
X28776391Y-63019775D01*
X28726589Y-63040353D01*
X28311810Y-63454409D01*
X28087056Y-63995677D01*
X28086545Y-64581752D01*
X28310353Y-65123411D01*
X28724409Y-65538190D01*
X29265677Y-65762944D01*
X29851752Y-65763455D01*
X30393411Y-65539647D01*
X30808190Y-65125591D01*
X31032944Y-64584323D01*
X31033455Y-63998248D01*
X31033455Y-95785000D01*
X29868000Y-95785000D01*
X29868000Y-71083709D01*
X29868000Y-70455750D01*
X29868000Y-69884250D01*
X29868000Y-69256291D01*
X29771327Y-69022902D01*
X29592699Y-68844273D01*
X29359310Y-68747600D01*
X29106691Y-68747600D01*
X28375750Y-68747600D01*
X28217000Y-68906350D01*
X28217000Y-70043000D01*
X29709250Y-70043000D01*
X29868000Y-69884250D01*
X29868000Y-70455750D01*
X29709250Y-70297000D01*
X28217000Y-70297000D01*
X28217000Y-71287600D01*
X28217000Y-71433650D01*
X28217000Y-72583000D01*
X29702852Y-72583000D01*
X29825010Y-72362940D01*
X29808327Y-72283004D01*
X29541191Y-71794014D01*
X29290900Y-71592400D01*
X29359310Y-71592400D01*
X29592699Y-71495727D01*
X29771327Y-71317098D01*
X29868000Y-71083709D01*
X29868000Y-95785000D01*
X29825010Y-95785000D01*
X29825010Y-93377060D01*
X29825010Y-92682940D01*
X29808327Y-92603004D01*
X29541191Y-92114014D01*
X29107262Y-91764475D01*
X29092010Y-91760000D01*
X29107262Y-91755525D01*
X29541191Y-91405986D01*
X29808327Y-90916996D01*
X29825010Y-90837060D01*
X29825010Y-90142940D01*
X29808327Y-90063004D01*
X29541191Y-89574014D01*
X29107262Y-89224475D01*
X29092010Y-89220000D01*
X29107262Y-89215525D01*
X29541191Y-88865986D01*
X29808327Y-88376996D01*
X29825010Y-88297060D01*
X29825010Y-87602940D01*
X29808327Y-87523004D01*
X29541191Y-87034014D01*
X29107262Y-86684475D01*
X29092010Y-86680000D01*
X29107262Y-86675525D01*
X29541191Y-86325986D01*
X29808327Y-85836996D01*
X29825010Y-85757060D01*
X29825010Y-85062940D01*
X29808327Y-84983004D01*
X29541191Y-84494014D01*
X29107262Y-84144475D01*
X29092010Y-84140000D01*
X29107262Y-84135525D01*
X29541191Y-83785986D01*
X29808327Y-83296996D01*
X29825010Y-83217060D01*
X29825010Y-82522940D01*
X29808327Y-82443004D01*
X29541191Y-81954014D01*
X29107262Y-81604475D01*
X29092010Y-81600000D01*
X29107262Y-81595525D01*
X29541191Y-81245986D01*
X29808327Y-80756996D01*
X29825010Y-80677060D01*
X29825010Y-79982940D01*
X29808327Y-79903004D01*
X29541191Y-79414014D01*
X29107262Y-79064475D01*
X29092010Y-79060000D01*
X29107262Y-79055525D01*
X29541191Y-78705986D01*
X29808327Y-78216996D01*
X29825010Y-78137060D01*
X29825010Y-77442940D01*
X29808327Y-77363004D01*
X29541191Y-76874014D01*
X29107262Y-76524475D01*
X29092010Y-76520000D01*
X29107262Y-76515525D01*
X29541191Y-76165986D01*
X29808327Y-75676996D01*
X29825010Y-75597060D01*
X29825010Y-74902940D01*
X29808327Y-74823004D01*
X29541191Y-74334014D01*
X29107262Y-73984475D01*
X29092010Y-73980000D01*
X29107262Y-73975525D01*
X29541191Y-73625986D01*
X29808327Y-73136996D01*
X29825010Y-73057060D01*
X29702852Y-72837000D01*
X28217000Y-72837000D01*
X28217000Y-73827600D01*
X28217000Y-74132400D01*
X28217000Y-75123000D01*
X29702852Y-75123000D01*
X29825010Y-74902940D01*
X29825010Y-75597060D01*
X29702852Y-75377000D01*
X28217000Y-75377000D01*
X28217000Y-76367600D01*
X28217000Y-76672400D01*
X28217000Y-77663000D01*
X29702852Y-77663000D01*
X29825010Y-77442940D01*
X29825010Y-78137060D01*
X29702852Y-77917000D01*
X28217000Y-77917000D01*
X28217000Y-78907600D01*
X28217000Y-79212400D01*
X28217000Y-80203000D01*
X29702852Y-80203000D01*
X29825010Y-79982940D01*
X29825010Y-80677060D01*
X29702852Y-80457000D01*
X28217000Y-80457000D01*
X28217000Y-81447600D01*
X28217000Y-81752400D01*
X28217000Y-82743000D01*
X29702852Y-82743000D01*
X29825010Y-82522940D01*
X29825010Y-83217060D01*
X29702852Y-82997000D01*
X28217000Y-82997000D01*
X28217000Y-83987600D01*
X28217000Y-84292400D01*
X28217000Y-85283000D01*
X29702852Y-85283000D01*
X29825010Y-85062940D01*
X29825010Y-85757060D01*
X29702852Y-85537000D01*
X28217000Y-85537000D01*
X28217000Y-86527600D01*
X28217000Y-86832400D01*
X28217000Y-87823000D01*
X29702852Y-87823000D01*
X29825010Y-87602940D01*
X29825010Y-88297060D01*
X29702852Y-88077000D01*
X28217000Y-88077000D01*
X28217000Y-89067600D01*
X28217000Y-89372400D01*
X28217000Y-90363000D01*
X29702852Y-90363000D01*
X29825010Y-90142940D01*
X29825010Y-90837060D01*
X29702852Y-90617000D01*
X28217000Y-90617000D01*
X28217000Y-91607600D01*
X28217000Y-91912400D01*
X28217000Y-92903000D01*
X29702852Y-92903000D01*
X29825010Y-92682940D01*
X29825010Y-93377060D01*
X29702852Y-93157000D01*
X28217000Y-93157000D01*
X28217000Y-94452400D01*
X28572600Y-94452400D01*
X29107262Y-94295525D01*
X29541191Y-93945986D01*
X29808327Y-93456996D01*
X29825010Y-93377060D01*
X29825010Y-95785000D01*
X27963000Y-95785000D01*
X27963000Y-94452400D01*
X27963000Y-93157000D01*
X27963000Y-92903000D01*
X27963000Y-91912400D01*
X27963000Y-91607600D01*
X27963000Y-90617000D01*
X27963000Y-90363000D01*
X27963000Y-89372400D01*
X27963000Y-89067600D01*
X27963000Y-88077000D01*
X27963000Y-87823000D01*
X27963000Y-86832400D01*
X27963000Y-86527600D01*
X27963000Y-85537000D01*
X27963000Y-85283000D01*
X27963000Y-84292400D01*
X27963000Y-83987600D01*
X27963000Y-82997000D01*
X27963000Y-82743000D01*
X27963000Y-81752400D01*
X27963000Y-81447600D01*
X27963000Y-80457000D01*
X27963000Y-80203000D01*
X27963000Y-79212400D01*
X27963000Y-78907600D01*
X27963000Y-77917000D01*
X27963000Y-77663000D01*
X27963000Y-76672400D01*
X27963000Y-76367600D01*
X27963000Y-75377000D01*
X27963000Y-75123000D01*
X27963000Y-74132400D01*
X27963000Y-73827600D01*
X27963000Y-72837000D01*
X27963000Y-72583000D01*
X27963000Y-71433650D01*
X27963000Y-71287600D01*
X27963000Y-70297000D01*
X27963000Y-70043000D01*
X27963000Y-68906350D01*
X27804250Y-68747600D01*
X27073309Y-68747600D01*
X26820690Y-68747600D01*
X26587301Y-68844273D01*
X26408673Y-69022902D01*
X26312000Y-69256291D01*
X26312000Y-69884250D01*
X26470750Y-70043000D01*
X27963000Y-70043000D01*
X27963000Y-70297000D01*
X26470750Y-70297000D01*
X26312000Y-70455750D01*
X26312000Y-71083709D01*
X26408673Y-71317098D01*
X26587301Y-71495727D01*
X26820690Y-71592400D01*
X26889099Y-71592400D01*
X26638809Y-71794014D01*
X26371673Y-72283004D01*
X26354990Y-72362940D01*
X26477148Y-72583000D01*
X27963000Y-72583000D01*
X27963000Y-72837000D01*
X26477148Y-72837000D01*
X26354990Y-73057060D01*
X26371673Y-73136996D01*
X26638809Y-73625986D01*
X27072738Y-73975525D01*
X27087989Y-73980000D01*
X27072738Y-73984475D01*
X26638809Y-74334014D01*
X26371673Y-74823004D01*
X26354990Y-74902940D01*
X26477148Y-75123000D01*
X27963000Y-75123000D01*
X27963000Y-75377000D01*
X26477148Y-75377000D01*
X26354990Y-75597060D01*
X26371673Y-75676996D01*
X26638809Y-76165986D01*
X27072738Y-76515525D01*
X27087989Y-76520000D01*
X27072738Y-76524475D01*
X26638809Y-76874014D01*
X26371673Y-77363004D01*
X26354990Y-77442940D01*
X26477148Y-77663000D01*
X27963000Y-77663000D01*
X27963000Y-77917000D01*
X26477148Y-77917000D01*
X26354990Y-78137060D01*
X26371673Y-78216996D01*
X26638809Y-78705986D01*
X27072738Y-79055525D01*
X27087989Y-79060000D01*
X27072738Y-79064475D01*
X26638809Y-79414014D01*
X26371673Y-79903004D01*
X26354990Y-79982940D01*
X26477148Y-80203000D01*
X27963000Y-80203000D01*
X27963000Y-80457000D01*
X26477148Y-80457000D01*
X26354990Y-80677060D01*
X26371673Y-80756996D01*
X26638809Y-81245986D01*
X27072738Y-81595525D01*
X27087989Y-81600000D01*
X27072738Y-81604475D01*
X26638809Y-81954014D01*
X26371673Y-82443004D01*
X26354990Y-82522940D01*
X26477148Y-82743000D01*
X27963000Y-82743000D01*
X27963000Y-82997000D01*
X26477148Y-82997000D01*
X26354990Y-83217060D01*
X26371673Y-83296996D01*
X26638809Y-83785986D01*
X27072738Y-84135525D01*
X27087989Y-84140000D01*
X27072738Y-84144475D01*
X26638809Y-84494014D01*
X26371673Y-84983004D01*
X26354990Y-85062940D01*
X26477148Y-85283000D01*
X27963000Y-85283000D01*
X27963000Y-85537000D01*
X26477148Y-85537000D01*
X26354990Y-85757060D01*
X26371673Y-85836996D01*
X26638809Y-86325986D01*
X27072738Y-86675525D01*
X27087989Y-86680000D01*
X27072738Y-86684475D01*
X26638809Y-87034014D01*
X26371673Y-87523004D01*
X26354990Y-87602940D01*
X26477148Y-87823000D01*
X27963000Y-87823000D01*
X27963000Y-88077000D01*
X26477148Y-88077000D01*
X26354990Y-88297060D01*
X26371673Y-88376996D01*
X26638809Y-88865986D01*
X27072738Y-89215525D01*
X27087989Y-89220000D01*
X27072738Y-89224475D01*
X26638809Y-89574014D01*
X26371673Y-90063004D01*
X26354990Y-90142940D01*
X26477148Y-90363000D01*
X27963000Y-90363000D01*
X27963000Y-90617000D01*
X26477148Y-90617000D01*
X26354990Y-90837060D01*
X26371673Y-90916996D01*
X26638809Y-91405986D01*
X27072738Y-91755525D01*
X27087989Y-91760000D01*
X27072738Y-91764475D01*
X26638809Y-92114014D01*
X26371673Y-92603004D01*
X26354990Y-92682940D01*
X26477148Y-92903000D01*
X27963000Y-92903000D01*
X27963000Y-93157000D01*
X26477148Y-93157000D01*
X26354990Y-93377060D01*
X26371673Y-93456996D01*
X26638809Y-93945986D01*
X27072738Y-94295525D01*
X27607400Y-94452400D01*
X27963000Y-94452400D01*
X27963000Y-95785000D01*
X26135000Y-95785000D01*
X26135000Y-25127000D01*
X29226478Y-25127000D01*
X28608348Y-25382406D01*
X27915738Y-26073808D01*
X27540438Y-26977631D01*
X27539584Y-27956275D01*
X27913306Y-28860752D01*
X28604708Y-29553362D01*
X29508531Y-29928662D01*
X30487175Y-29929516D01*
X31391652Y-29555794D01*
X32084262Y-28864392D01*
X32459562Y-27960569D01*
X32460416Y-26981925D01*
X32086694Y-26077448D01*
X31395292Y-25384838D01*
X30774348Y-25127000D01*
X123725000Y-25127000D01*
X123725000Y-95785000D01*
M02*
