G04 #@! TF.FileFunction,Soldermask,Top*
%FSLAX46Y46*%
G04 Gerber Fmt 4.6, Leading zero omitted, Abs format (unit mm)*
G04 Created by KiCad (PCBNEW 0.201501052116+5352~20~ubuntu14.04.1-product) date Di 06 Jan 2015 18:05:51 CET*
%MOMM*%
G01*
G04 APERTURE LIST*
%ADD10C,0.150000*%
%ADD11C,0.200000*%
%ADD12C,4.464000*%
%ADD13C,2.076400*%
%ADD14R,2.432000X2.127200*%
%ADD15O,2.432000X2.127200*%
%ADD16R,2.127200X2.432000*%
%ADD17O,2.127200X2.432000*%
%ADD18R,2.432000X2.432000*%
%ADD19O,2.432000X2.432000*%
%ADD20R,2.686000X1.974800*%
%ADD21O,2.686000X1.974800*%
%ADD22O,2.432000X2.940000*%
%ADD23C,4.049980*%
%ADD24R,1.901140X1.901140*%
%ADD25C,1.901140*%
%ADD26R,2.127200X2.127200*%
%ADD27O,2.127200X2.127200*%
G04 APERTURE END LIST*
D10*
D11*
X124460000Y-24130000D02*
X25400000Y-24130000D01*
X124460000Y-96520000D02*
X124460000Y-24130000D01*
X25400000Y-96520000D02*
X124460000Y-96520000D01*
X25400000Y-24130000D02*
X25400000Y-96520000D01*
D12*
X40500000Y-88100000D03*
X82500000Y-32600000D03*
D13*
X29560000Y-61750000D03*
X29560000Y-64290000D03*
X34060000Y-61750000D03*
X34060000Y-64290000D03*
D14*
X59360000Y-68550000D03*
D15*
X59360000Y-66010000D03*
X59360000Y-63470000D03*
D16*
X55990000Y-29130000D03*
D17*
X58530000Y-29130000D03*
X61070000Y-29130000D03*
D16*
X55990000Y-32880000D03*
D17*
X58530000Y-32880000D03*
X61070000Y-32880000D03*
D18*
X58470000Y-87160000D03*
D19*
X58470000Y-89700000D03*
D14*
X69280000Y-83280000D03*
D15*
X69280000Y-80740000D03*
X69280000Y-78200000D03*
X69280000Y-75660000D03*
D14*
X69280000Y-73120000D03*
D15*
X69280000Y-70580000D03*
X69280000Y-68040000D03*
X69280000Y-65500000D03*
D14*
X119310000Y-67880000D03*
D15*
X119310000Y-70420000D03*
X119310000Y-72960000D03*
X119310000Y-75500000D03*
D14*
X119310000Y-78040000D03*
D15*
X119310000Y-80580000D03*
X119310000Y-83120000D03*
X119310000Y-85660000D03*
D14*
X69280000Y-62960000D03*
D15*
X69280000Y-60420000D03*
X69280000Y-57880000D03*
X69280000Y-55340000D03*
D14*
X69280000Y-52800000D03*
D15*
X69280000Y-50260000D03*
X69280000Y-47720000D03*
X69280000Y-45180000D03*
D14*
X69280000Y-42640000D03*
D15*
X69280000Y-40100000D03*
X69280000Y-37560000D03*
X69280000Y-35020000D03*
D14*
X119310000Y-37400000D03*
D15*
X119310000Y-39940000D03*
X119310000Y-42480000D03*
X119310000Y-45020000D03*
D14*
X119310000Y-47560000D03*
D15*
X119310000Y-50100000D03*
X119310000Y-52640000D03*
X119310000Y-55180000D03*
D14*
X119310000Y-57720000D03*
D15*
X119310000Y-60260000D03*
X119310000Y-62800000D03*
X119310000Y-65340000D03*
D20*
X28090000Y-70170000D03*
D21*
X28090000Y-72710000D03*
X28090000Y-75250000D03*
X28090000Y-77790000D03*
X28090000Y-80330000D03*
X28090000Y-82870000D03*
X28090000Y-85410000D03*
X28090000Y-87950000D03*
X28090000Y-90490000D03*
X28090000Y-93030000D03*
X35710000Y-93030000D03*
X35710000Y-90490000D03*
X35710000Y-87950000D03*
X35710000Y-85410000D03*
X35710000Y-82870000D03*
X35710000Y-80330000D03*
X35710000Y-77790000D03*
X35710000Y-75250000D03*
X35710000Y-72710000D03*
X35710000Y-70170000D03*
D22*
X50670000Y-90030000D03*
X48130000Y-90030000D03*
X53210000Y-90030000D03*
D23*
X30000000Y-55638520D03*
X30000000Y-43769100D03*
D24*
X36350000Y-45255000D03*
D25*
X38890000Y-46525000D03*
X36350000Y-47795000D03*
X38890000Y-49065000D03*
X36350000Y-50335000D03*
X38890000Y-51605000D03*
X36350000Y-52875000D03*
X38890000Y-54145000D03*
D23*
X30000000Y-39338520D03*
X30000000Y-27469100D03*
D24*
X36350000Y-28955000D03*
D25*
X38890000Y-30225000D03*
X36350000Y-31495000D03*
X38890000Y-32765000D03*
X36350000Y-34035000D03*
X38890000Y-35305000D03*
X36350000Y-36575000D03*
X38890000Y-37845000D03*
D18*
X69280000Y-88360000D03*
D19*
X69280000Y-85820000D03*
D18*
X119310000Y-88200000D03*
D19*
X119310000Y-90740000D03*
D26*
X46320000Y-33440000D03*
D27*
X48860000Y-33440000D03*
X46320000Y-35980000D03*
X48860000Y-35980000D03*
X46320000Y-38520000D03*
X48860000Y-38520000D03*
X46320000Y-41060000D03*
X48860000Y-41060000D03*
X46320000Y-43600000D03*
X48860000Y-43600000D03*
M02*
