G04 #@! TF.FileFunction,Soldermask,Bot*
%FSLAX46Y46*%
G04 Gerber Fmt 4.6, Leading zero omitted, Abs format (unit mm)*
G04 Created by KiCad (PCBNEW 0.201501052116+5352~20~ubuntu14.04.1-product) date Di 06 Jan 2015 18:05:51 CET*
%MOMM*%
G01*
G04 APERTURE LIST*
%ADD10C,0.150000*%
%ADD11C,0.200000*%
%ADD12C,4.464000*%
%ADD13R,1.797000X1.289000*%
%ADD14R,2.000200X3.000960*%
%ADD15R,1.924000X2.432000*%
%ADD16C,2.076400*%
%ADD17R,1.924000X0.806400*%
%ADD18R,0.806400X1.924000*%
%ADD19R,1.500000X0.800000*%
%ADD20R,2.432000X2.127200*%
%ADD21O,2.432000X2.127200*%
%ADD22R,2.127200X2.432000*%
%ADD23O,2.127200X2.432000*%
%ADD24R,2.432000X2.432000*%
%ADD25O,2.432000X2.432000*%
%ADD26R,1.900000X1.700000*%
%ADD27R,1.700000X1.900000*%
%ADD28R,2.686000X1.974800*%
%ADD29O,2.686000X1.974800*%
%ADD30R,0.999440X1.799540*%
%ADD31O,2.432000X2.940000*%
%ADD32R,1.950000X1.000000*%
%ADD33R,2.500580X6.000700*%
%ADD34C,4.049980*%
%ADD35R,1.901140X1.901140*%
%ADD36C,1.901140*%
%ADD37R,2.127200X2.127200*%
%ADD38O,2.127200X2.127200*%
G04 APERTURE END LIST*
D10*
D11*
X124460000Y-24130000D02*
X25400000Y-24130000D01*
X124460000Y-96520000D02*
X124460000Y-24130000D01*
X25400000Y-96520000D02*
X124460000Y-96520000D01*
X25400000Y-24130000D02*
X25400000Y-96520000D01*
D12*
X40500000Y-88100000D03*
X82500000Y-32600000D03*
D13*
X54710000Y-56697500D03*
X54710000Y-58602500D03*
X54710000Y-51317500D03*
X54710000Y-53222500D03*
D14*
X60860000Y-55349140D03*
X60860000Y-58950860D03*
D15*
X54121000Y-94030000D03*
X50819000Y-94030000D03*
D13*
X57100000Y-74852500D03*
X57100000Y-72947500D03*
D15*
X51111000Y-85290000D03*
X47809000Y-85290000D03*
D16*
X29560000Y-61750000D03*
X29560000Y-64290000D03*
X34060000Y-61750000D03*
X34060000Y-64290000D03*
D17*
X42305000Y-74880000D03*
X42305000Y-74079900D03*
X42305000Y-73279800D03*
X42305000Y-72479700D03*
X42305000Y-71679600D03*
X42305000Y-70879500D03*
X42305000Y-75680100D03*
X42305000Y-76480200D03*
X42305000Y-77280300D03*
X42305000Y-78080400D03*
X42305000Y-78880500D03*
X53735000Y-74880000D03*
X53735000Y-74079900D03*
X53735000Y-73279800D03*
X53735000Y-72479700D03*
X53735000Y-71679600D03*
X53735000Y-70879500D03*
X53735000Y-75680100D03*
X53735000Y-76480200D03*
X53735000Y-77280300D03*
X53735000Y-78080400D03*
X53735000Y-78880500D03*
D18*
X48020000Y-69165000D03*
X48020000Y-80595000D03*
X48820100Y-69165000D03*
X48820100Y-80595000D03*
X49620200Y-80595000D03*
X49620200Y-69165000D03*
X50420300Y-69165000D03*
X50420300Y-80595000D03*
X51220400Y-80595000D03*
X51220400Y-69165000D03*
X52020500Y-69165000D03*
X52020500Y-80595000D03*
X47219900Y-80595000D03*
X47219900Y-69165000D03*
X46419800Y-69165000D03*
X46419800Y-80595000D03*
X45619700Y-80595000D03*
X45619700Y-69165000D03*
X44819600Y-69165000D03*
X44819600Y-80595000D03*
X44019500Y-80595000D03*
X44019500Y-69165000D03*
D19*
X91070000Y-76795000D03*
X91070000Y-76145000D03*
X91070000Y-75495000D03*
X91070000Y-74845000D03*
X91070000Y-74195000D03*
X91070000Y-73545000D03*
X91070000Y-72895000D03*
X91070000Y-72245000D03*
X91070000Y-71595000D03*
X91070000Y-70945000D03*
X91070000Y-70295000D03*
X91070000Y-69645000D03*
X91070000Y-68995000D03*
X91070000Y-68345000D03*
X96770000Y-68345000D03*
X96770000Y-68995000D03*
X96770000Y-69645000D03*
X96770000Y-70295000D03*
X96770000Y-70945000D03*
X96770000Y-71595000D03*
X96770000Y-72245000D03*
X96770000Y-72895000D03*
X96770000Y-73545000D03*
X96770000Y-74195000D03*
X96770000Y-74845000D03*
X96770000Y-75495000D03*
X96770000Y-76145000D03*
X96770000Y-76795000D03*
X91390000Y-54965000D03*
X91390000Y-54315000D03*
X91390000Y-53665000D03*
X91390000Y-53015000D03*
X91390000Y-52365000D03*
X91390000Y-51715000D03*
X91390000Y-51065000D03*
X91390000Y-50415000D03*
X91390000Y-49765000D03*
X91390000Y-49115000D03*
X91390000Y-48465000D03*
X91390000Y-47815000D03*
X91390000Y-47165000D03*
X91390000Y-46515000D03*
X97090000Y-46515000D03*
X97090000Y-47165000D03*
X97090000Y-47815000D03*
X97090000Y-48465000D03*
X97090000Y-49115000D03*
X97090000Y-49765000D03*
X97090000Y-50415000D03*
X97090000Y-51065000D03*
X97090000Y-51715000D03*
X97090000Y-52365000D03*
X97090000Y-53015000D03*
X97090000Y-53665000D03*
X97090000Y-54315000D03*
X97090000Y-54965000D03*
D20*
X59360000Y-68550000D03*
D21*
X59360000Y-66010000D03*
X59360000Y-63470000D03*
D22*
X55990000Y-29130000D03*
D23*
X58530000Y-29130000D03*
X61070000Y-29130000D03*
D22*
X55990000Y-32880000D03*
D23*
X58530000Y-32880000D03*
X61070000Y-32880000D03*
D24*
X58470000Y-87160000D03*
D25*
X58470000Y-89700000D03*
D20*
X69280000Y-83280000D03*
D21*
X69280000Y-80740000D03*
X69280000Y-78200000D03*
X69280000Y-75660000D03*
D20*
X69280000Y-73120000D03*
D21*
X69280000Y-70580000D03*
X69280000Y-68040000D03*
X69280000Y-65500000D03*
D20*
X119310000Y-67880000D03*
D21*
X119310000Y-70420000D03*
X119310000Y-72960000D03*
X119310000Y-75500000D03*
D20*
X119310000Y-78040000D03*
D21*
X119310000Y-80580000D03*
X119310000Y-83120000D03*
X119310000Y-85660000D03*
D20*
X69280000Y-62960000D03*
D21*
X69280000Y-60420000D03*
X69280000Y-57880000D03*
X69280000Y-55340000D03*
D20*
X69280000Y-52800000D03*
D21*
X69280000Y-50260000D03*
X69280000Y-47720000D03*
X69280000Y-45180000D03*
D20*
X69280000Y-42640000D03*
D21*
X69280000Y-40100000D03*
X69280000Y-37560000D03*
X69280000Y-35020000D03*
D20*
X119310000Y-37400000D03*
D21*
X119310000Y-39940000D03*
X119310000Y-42480000D03*
X119310000Y-45020000D03*
D20*
X119310000Y-47560000D03*
D21*
X119310000Y-50100000D03*
X119310000Y-52640000D03*
X119310000Y-55180000D03*
D20*
X119310000Y-57720000D03*
D21*
X119310000Y-60260000D03*
X119310000Y-62800000D03*
X119310000Y-65340000D03*
D26*
X40640000Y-60200000D03*
X37940000Y-60200000D03*
X40670000Y-62970000D03*
X37970000Y-62970000D03*
D27*
X60480000Y-72060000D03*
X60480000Y-74760000D03*
D26*
X93220000Y-63620000D03*
X95920000Y-63620000D03*
X93170000Y-59370000D03*
X95870000Y-59370000D03*
X85860000Y-87010000D03*
X83160000Y-87010000D03*
X85840000Y-84030000D03*
X83140000Y-84030000D03*
X85860000Y-79960000D03*
X83160000Y-79960000D03*
X85850000Y-77000000D03*
X83150000Y-77000000D03*
X85810000Y-73550000D03*
X83110000Y-73550000D03*
X85850000Y-70500000D03*
X83150000Y-70500000D03*
X85880000Y-67400000D03*
X83180000Y-67400000D03*
X85840000Y-64810000D03*
X83140000Y-64810000D03*
X102250000Y-64300000D03*
X104950000Y-64300000D03*
X102750000Y-67300000D03*
X105450000Y-67300000D03*
X102720000Y-70890000D03*
X105420000Y-70890000D03*
X102750000Y-74000000D03*
X105450000Y-74000000D03*
X102720000Y-77340000D03*
X105420000Y-77340000D03*
X102250000Y-80400000D03*
X104950000Y-80400000D03*
X102250000Y-84400000D03*
X104950000Y-84400000D03*
X102250000Y-87600000D03*
X104950000Y-87600000D03*
X85840000Y-59130000D03*
X83140000Y-59130000D03*
X85830000Y-56080000D03*
X83130000Y-56080000D03*
X85950000Y-53150000D03*
X83250000Y-53150000D03*
X85850000Y-50220000D03*
X83150000Y-50220000D03*
X85910000Y-46160000D03*
X83210000Y-46160000D03*
X85890000Y-43150000D03*
X83190000Y-43150000D03*
X85870000Y-40420000D03*
X83170000Y-40420000D03*
X85820000Y-37520000D03*
X83120000Y-37520000D03*
X103050000Y-35900000D03*
X105750000Y-35900000D03*
X103050000Y-39100000D03*
X105750000Y-39100000D03*
X103020000Y-42520000D03*
X105720000Y-42520000D03*
X103050000Y-45600000D03*
X105750000Y-45600000D03*
X103020000Y-48870000D03*
X105720000Y-48870000D03*
X103050000Y-51800000D03*
X105750000Y-51800000D03*
X103020000Y-55220000D03*
X105720000Y-55220000D03*
X103050000Y-58500000D03*
X105750000Y-58500000D03*
D28*
X28090000Y-70170000D03*
D29*
X28090000Y-72710000D03*
X28090000Y-75250000D03*
X28090000Y-77790000D03*
X28090000Y-80330000D03*
X28090000Y-82870000D03*
X28090000Y-85410000D03*
X28090000Y-87950000D03*
X28090000Y-90490000D03*
X28090000Y-93030000D03*
X35710000Y-93030000D03*
X35710000Y-90490000D03*
X35710000Y-87950000D03*
X35710000Y-85410000D03*
X35710000Y-82870000D03*
X35710000Y-80330000D03*
X35710000Y-77790000D03*
X35710000Y-75250000D03*
X35710000Y-72710000D03*
X35710000Y-70170000D03*
D30*
X60325000Y-36703000D03*
X60325000Y-42037000D03*
X59055000Y-36703000D03*
X57785000Y-36703000D03*
X56515000Y-36703000D03*
X59055000Y-42037000D03*
X57785000Y-42037000D03*
X56515000Y-42037000D03*
D31*
X50670000Y-90030000D03*
X48130000Y-90030000D03*
X53210000Y-90030000D03*
D32*
X79560000Y-82925000D03*
X79560000Y-84195000D03*
X79560000Y-85465000D03*
X79560000Y-86735000D03*
X74160000Y-86735000D03*
X74160000Y-85465000D03*
X74160000Y-84195000D03*
X74160000Y-82925000D03*
X79550000Y-76445000D03*
X79550000Y-77715000D03*
X79550000Y-78985000D03*
X79550000Y-80255000D03*
X74150000Y-80255000D03*
X74150000Y-78985000D03*
X74150000Y-77715000D03*
X74150000Y-76445000D03*
X79550000Y-70095000D03*
X79550000Y-71365000D03*
X79550000Y-72635000D03*
X79550000Y-73905000D03*
X74150000Y-73905000D03*
X74150000Y-72635000D03*
X74150000Y-71365000D03*
X74150000Y-70095000D03*
X79550000Y-63745000D03*
X79550000Y-65015000D03*
X79550000Y-66285000D03*
X79550000Y-67555000D03*
X74150000Y-67555000D03*
X74150000Y-66285000D03*
X74150000Y-65015000D03*
X74150000Y-63745000D03*
X109140000Y-67715000D03*
X109140000Y-66445000D03*
X109140000Y-65175000D03*
X109140000Y-63905000D03*
X114540000Y-63905000D03*
X114540000Y-65175000D03*
X114540000Y-66445000D03*
X114540000Y-67715000D03*
X109140000Y-74065000D03*
X109140000Y-72795000D03*
X109140000Y-71525000D03*
X109140000Y-70255000D03*
X114540000Y-70255000D03*
X114540000Y-71525000D03*
X114540000Y-72795000D03*
X114540000Y-74065000D03*
X109140000Y-80415000D03*
X109140000Y-79145000D03*
X109140000Y-77875000D03*
X109140000Y-76605000D03*
X114540000Y-76605000D03*
X114540000Y-77875000D03*
X114540000Y-79145000D03*
X114540000Y-80415000D03*
X109140000Y-86765000D03*
X109140000Y-85495000D03*
X109140000Y-84225000D03*
X109140000Y-82955000D03*
X114540000Y-82955000D03*
X114540000Y-84225000D03*
X114540000Y-85495000D03*
X114540000Y-86765000D03*
X79550000Y-56125000D03*
X79550000Y-57395000D03*
X79550000Y-58665000D03*
X79550000Y-59935000D03*
X74150000Y-59935000D03*
X74150000Y-58665000D03*
X74150000Y-57395000D03*
X74150000Y-56125000D03*
X79550000Y-49775000D03*
X79550000Y-51045000D03*
X79550000Y-52315000D03*
X79550000Y-53585000D03*
X74150000Y-53585000D03*
X74150000Y-52315000D03*
X74150000Y-51045000D03*
X74150000Y-49775000D03*
X79550000Y-43425000D03*
X79550000Y-44695000D03*
X79550000Y-45965000D03*
X79550000Y-47235000D03*
X74150000Y-47235000D03*
X74150000Y-45965000D03*
X74150000Y-44695000D03*
X74150000Y-43425000D03*
X79550000Y-37075000D03*
X79550000Y-38345000D03*
X79550000Y-39615000D03*
X79550000Y-40885000D03*
X74150000Y-40885000D03*
X74150000Y-39615000D03*
X74150000Y-38345000D03*
X74150000Y-37075000D03*
X109140000Y-39345000D03*
X109140000Y-38075000D03*
X109140000Y-36805000D03*
X109140000Y-35535000D03*
X114540000Y-35535000D03*
X114540000Y-36805000D03*
X114540000Y-38075000D03*
X114540000Y-39345000D03*
X109140000Y-45695000D03*
X109140000Y-44425000D03*
X109140000Y-43155000D03*
X109140000Y-41885000D03*
X114540000Y-41885000D03*
X114540000Y-43155000D03*
X114540000Y-44425000D03*
X114540000Y-45695000D03*
X109140000Y-52045000D03*
X109140000Y-50775000D03*
X109140000Y-49505000D03*
X109140000Y-48235000D03*
X114540000Y-48235000D03*
X114540000Y-49505000D03*
X114540000Y-50775000D03*
X114540000Y-52045000D03*
X109140000Y-58395000D03*
X109140000Y-57125000D03*
X109140000Y-55855000D03*
X109140000Y-54585000D03*
X114540000Y-54585000D03*
X114540000Y-55855000D03*
X114540000Y-57125000D03*
X114540000Y-58395000D03*
D33*
X50240000Y-61668860D03*
X50240000Y-51971140D03*
D34*
X30000000Y-55638520D03*
X30000000Y-43769100D03*
D35*
X36350000Y-45255000D03*
D36*
X38890000Y-46525000D03*
X36350000Y-47795000D03*
X38890000Y-49065000D03*
X36350000Y-50335000D03*
X38890000Y-51605000D03*
X36350000Y-52875000D03*
X38890000Y-54145000D03*
D34*
X30000000Y-39338520D03*
X30000000Y-27469100D03*
D35*
X36350000Y-28955000D03*
D36*
X38890000Y-30225000D03*
X36350000Y-31495000D03*
X38890000Y-32765000D03*
X36350000Y-34035000D03*
X38890000Y-35305000D03*
X36350000Y-36575000D03*
X38890000Y-37845000D03*
D24*
X69280000Y-88360000D03*
D25*
X69280000Y-85820000D03*
D24*
X119310000Y-88200000D03*
D25*
X119310000Y-90740000D03*
D37*
X46320000Y-33440000D03*
D38*
X48860000Y-33440000D03*
X46320000Y-35980000D03*
X48860000Y-35980000D03*
X46320000Y-38520000D03*
X48860000Y-38520000D03*
X46320000Y-41060000D03*
X48860000Y-41060000D03*
X46320000Y-43600000D03*
X48860000Y-43600000D03*
M02*
