M48
;DRILL file {kicad 0.201501052116+5352~20~ubuntu14.04.1-product} date Di 06 Jan 2015 18:13:30 CET
;FORMAT={-:-/ absolute / metric / decimal}
FMAT,2
METRIC,TZ
T1C0.635
T2C0.899
T3C1.000
T4C1.016
T5C1.143
T6C3.000
T7C3.251
%
G90
G05
M71
T1
X30.43Y-82.85
X30.43Y-85.39
X30.43Y-87.88
X30.51Y-77.75
X30.53Y-75.23
X30.53Y-80.37
X30.53Y-90.5
X30.58Y-72.72
X30.65Y-70.09
X30.66Y-93.09
X36.34Y-38.53
X36.45Y-54.53
X37.57Y-39.36
X37.68Y-55.38
X39.54Y-75.24
X43.49Y-47.37
X43.78Y-45.76
X44.65Y-74.3
X45.73Y-45.85
X46.96Y-47.6
X47.67Y-94.32
X47.98Y-67.25
X48.69Y-74.35
X50.84Y-78.46
X51.08Y-35.92
X51.13Y-40.97
X51.21Y-38.53
X51.28Y-43.56
X52.95Y-30.98
X57.2Y-70.98
X60.9Y-61.61
X61.34Y-86.46
X61.37Y-88.21
X63.37Y-86.49
X63.37Y-88.21
T2
X36.35Y-28.955
X36.35Y-31.495
X36.35Y-34.035
X36.35Y-36.575
X36.35Y-45.255
X36.35Y-47.795
X36.35Y-50.335
X36.35Y-52.875
X38.89Y-30.225
X38.89Y-32.765
X38.89Y-35.305
X38.89Y-37.845
X38.89Y-46.525
X38.89Y-49.065
X38.89Y-51.605
X38.89Y-54.145
T3
X28.09Y-70.17
X28.09Y-72.71
X28.09Y-75.25
X28.09Y-77.79
X28.09Y-80.33
X28.09Y-82.87
X28.09Y-85.41
X28.09Y-87.95
X28.09Y-90.49
X28.09Y-93.03
X29.56Y-61.75
X29.56Y-64.29
X34.06Y-61.75
X34.06Y-64.29
X35.71Y-70.17
X35.71Y-72.71
X35.71Y-75.25
X35.71Y-77.79
X35.71Y-80.33
X35.71Y-82.87
X35.71Y-85.41
X35.71Y-87.95
X35.71Y-90.49
X35.71Y-93.03
T4
X46.32Y-33.44
X46.32Y-35.98
X46.32Y-38.52
X46.32Y-41.06
X46.32Y-43.6
X48.86Y-33.44
X48.86Y-35.98
X48.86Y-38.52
X48.86Y-41.06
X48.86Y-43.6
X55.99Y-29.13
X55.99Y-32.88
X58.47Y-87.16
X58.47Y-89.7
X58.53Y-29.13
X58.53Y-32.88
X59.36Y-63.47
X59.36Y-66.01
X59.36Y-68.55
X61.07Y-29.13
X61.07Y-32.88
X69.28Y-35.02
X69.28Y-37.56
X69.28Y-40.1
X69.28Y-42.64
X69.28Y-45.18
X69.28Y-47.72
X69.28Y-50.26
X69.28Y-52.8
X69.28Y-55.34
X69.28Y-57.88
X69.28Y-60.42
X69.28Y-62.96
X69.28Y-65.5
X69.28Y-68.04
X69.28Y-70.58
X69.28Y-73.12
X69.28Y-75.66
X69.28Y-78.2
X69.28Y-80.74
X69.28Y-83.28
X69.28Y-85.82
X69.28Y-88.36
X119.31Y-37.4
X119.31Y-39.94
X119.31Y-42.48
X119.31Y-45.02
X119.31Y-47.56
X119.31Y-50.1
X119.31Y-52.64
X119.31Y-55.18
X119.31Y-57.72
X119.31Y-60.26
X119.31Y-62.8
X119.31Y-65.34
X119.31Y-67.88
X119.31Y-70.42
X119.31Y-72.96
X119.31Y-75.5
X119.31Y-78.04
X119.31Y-80.58
X119.31Y-83.12
X119.31Y-85.66
X119.31Y-88.2
X119.31Y-90.74
T5
X48.13Y-90.03
X50.67Y-90.03
X53.21Y-90.03
T6
X40.5Y-88.1
X82.5Y-32.6
T7
X30.Y-27.469
X30.Y-39.339
X30.Y-43.769
X30.Y-55.639
T0
M30
