G04 #@! TF.FileFunction,Soldermask,Bot*
%FSLAX46Y46*%
G04 Gerber Fmt 4.6, Leading zero omitted, Abs format (unit mm)*
G04 Created by KiCad (PCBNEW (2014-jul-16 BZR unknown)-product) date Sa 01 Nov 2014 20:47:10 CET*
%MOMM*%
G01*
G04 APERTURE LIST*
%ADD10C,0.150000*%
%ADD11R,2.635200X2.635200*%
%ADD12R,3.400000X1.290000*%
%ADD13R,2.432000X2.432000*%
%ADD14O,2.432000X2.432000*%
%ADD15C,4.049980*%
%ADD16R,1.901140X1.901140*%
%ADD17C,1.901140*%
%ADD18R,2.500580X6.000700*%
%ADD19R,1.950000X1.000000*%
%ADD20O,2.432000X2.940000*%
%ADD21R,0.999440X1.799540*%
%ADD22R,2.686000X1.974800*%
%ADD23O,2.686000X1.974800*%
%ADD24R,1.900000X1.700000*%
%ADD25R,1.700000X1.900000*%
%ADD26R,2.432000X2.127200*%
%ADD27O,2.432000X2.127200*%
%ADD28R,2.127200X2.432000*%
%ADD29O,2.127200X2.432000*%
%ADD30R,1.500000X0.800000*%
%ADD31R,1.924000X0.806400*%
%ADD32R,0.806400X1.924000*%
%ADD33C,2.076400*%
%ADD34R,1.924000X2.432000*%
%ADD35R,1.797000X1.289000*%
%ADD36R,2.000200X3.000960*%
%ADD37C,4.464000*%
G04 APERTURE END LIST*
D10*
D11*
X63670000Y-153330000D03*
X57280000Y-152350000D03*
D12*
X48980000Y-107020000D03*
X48980000Y-109020000D03*
X44310000Y-109020000D03*
X48980000Y-111020000D03*
X44310000Y-111020000D03*
X48980000Y-113020000D03*
X44310000Y-113020000D03*
X48980000Y-115020000D03*
X44310000Y-115020000D03*
X44310000Y-107020000D03*
D13*
X119310000Y-160930000D03*
D14*
X119310000Y-163470000D03*
D13*
X69280000Y-161090000D03*
D14*
X69280000Y-158550000D03*
D15*
X30000000Y-100191480D03*
X30000000Y-112060900D03*
D16*
X36350000Y-110575000D03*
D17*
X38890000Y-109305000D03*
X36350000Y-108035000D03*
X38890000Y-106765000D03*
X36350000Y-105495000D03*
X38890000Y-104225000D03*
X36350000Y-102955000D03*
X38890000Y-101685000D03*
D15*
X30000000Y-116491480D03*
X30000000Y-128360900D03*
D16*
X36350000Y-126875000D03*
D17*
X38890000Y-125605000D03*
X36350000Y-124335000D03*
X38890000Y-123065000D03*
X36350000Y-121795000D03*
X38890000Y-120525000D03*
X36350000Y-119255000D03*
X38890000Y-117985000D03*
D18*
X49830000Y-134428860D03*
X49830000Y-124731140D03*
D19*
X109140000Y-131125000D03*
X109140000Y-129855000D03*
X109140000Y-128585000D03*
X109140000Y-127315000D03*
X114540000Y-127315000D03*
X114540000Y-128585000D03*
X114540000Y-129855000D03*
X114540000Y-131125000D03*
X109140000Y-124775000D03*
X109140000Y-123505000D03*
X109140000Y-122235000D03*
X109140000Y-120965000D03*
X114540000Y-120965000D03*
X114540000Y-122235000D03*
X114540000Y-123505000D03*
X114540000Y-124775000D03*
X109140000Y-118425000D03*
X109140000Y-117155000D03*
X109140000Y-115885000D03*
X109140000Y-114615000D03*
X114540000Y-114615000D03*
X114540000Y-115885000D03*
X114540000Y-117155000D03*
X114540000Y-118425000D03*
X109140000Y-112075000D03*
X109140000Y-110805000D03*
X109140000Y-109535000D03*
X109140000Y-108265000D03*
X114540000Y-108265000D03*
X114540000Y-109535000D03*
X114540000Y-110805000D03*
X114540000Y-112075000D03*
X79550000Y-109805000D03*
X79550000Y-111075000D03*
X79550000Y-112345000D03*
X79550000Y-113615000D03*
X74150000Y-113615000D03*
X74150000Y-112345000D03*
X74150000Y-111075000D03*
X74150000Y-109805000D03*
X79550000Y-116155000D03*
X79550000Y-117425000D03*
X79550000Y-118695000D03*
X79550000Y-119965000D03*
X74150000Y-119965000D03*
X74150000Y-118695000D03*
X74150000Y-117425000D03*
X74150000Y-116155000D03*
X79550000Y-122505000D03*
X79550000Y-123775000D03*
X79550000Y-125045000D03*
X79550000Y-126315000D03*
X74150000Y-126315000D03*
X74150000Y-125045000D03*
X74150000Y-123775000D03*
X74150000Y-122505000D03*
X79550000Y-128855000D03*
X79550000Y-130125000D03*
X79550000Y-131395000D03*
X79550000Y-132665000D03*
X74150000Y-132665000D03*
X74150000Y-131395000D03*
X74150000Y-130125000D03*
X74150000Y-128855000D03*
X109140000Y-159495000D03*
X109140000Y-158225000D03*
X109140000Y-156955000D03*
X109140000Y-155685000D03*
X114540000Y-155685000D03*
X114540000Y-156955000D03*
X114540000Y-158225000D03*
X114540000Y-159495000D03*
X109140000Y-153145000D03*
X109140000Y-151875000D03*
X109140000Y-150605000D03*
X109140000Y-149335000D03*
X114540000Y-149335000D03*
X114540000Y-150605000D03*
X114540000Y-151875000D03*
X114540000Y-153145000D03*
X109140000Y-146795000D03*
X109140000Y-145525000D03*
X109140000Y-144255000D03*
X109140000Y-142985000D03*
X114540000Y-142985000D03*
X114540000Y-144255000D03*
X114540000Y-145525000D03*
X114540000Y-146795000D03*
X109140000Y-140445000D03*
X109140000Y-139175000D03*
X109140000Y-137905000D03*
X109140000Y-136635000D03*
X114540000Y-136635000D03*
X114540000Y-137905000D03*
X114540000Y-139175000D03*
X114540000Y-140445000D03*
X79550000Y-136475000D03*
X79550000Y-137745000D03*
X79550000Y-139015000D03*
X79550000Y-140285000D03*
X74150000Y-140285000D03*
X74150000Y-139015000D03*
X74150000Y-137745000D03*
X74150000Y-136475000D03*
X79550000Y-142825000D03*
X79550000Y-144095000D03*
X79550000Y-145365000D03*
X79550000Y-146635000D03*
X74150000Y-146635000D03*
X74150000Y-145365000D03*
X74150000Y-144095000D03*
X74150000Y-142825000D03*
X79550000Y-149175000D03*
X79550000Y-150445000D03*
X79550000Y-151715000D03*
X79550000Y-152985000D03*
X74150000Y-152985000D03*
X74150000Y-151715000D03*
X74150000Y-150445000D03*
X74150000Y-149175000D03*
X79560000Y-155655000D03*
X79560000Y-156925000D03*
X79560000Y-158195000D03*
X79560000Y-159465000D03*
X74160000Y-159465000D03*
X74160000Y-158195000D03*
X74160000Y-156925000D03*
X74160000Y-155655000D03*
D20*
X50670000Y-162760000D03*
X48130000Y-162760000D03*
X53210000Y-162760000D03*
D21*
X60325000Y-109433000D03*
X60325000Y-114767000D03*
X59055000Y-109433000D03*
X57785000Y-109433000D03*
X56515000Y-109433000D03*
X59055000Y-114767000D03*
X57785000Y-114767000D03*
X56515000Y-114767000D03*
D22*
X28090000Y-142900000D03*
D23*
X28090000Y-145440000D03*
X28090000Y-147980000D03*
X28090000Y-150520000D03*
X28090000Y-153060000D03*
X28090000Y-155600000D03*
X28090000Y-158140000D03*
X28090000Y-160680000D03*
X28090000Y-163220000D03*
X28090000Y-165760000D03*
X35710000Y-165760000D03*
X35710000Y-163220000D03*
X35710000Y-160680000D03*
X35710000Y-158140000D03*
X35710000Y-155600000D03*
X35710000Y-153060000D03*
X35710000Y-150520000D03*
X35710000Y-147980000D03*
X35710000Y-145440000D03*
X35710000Y-142900000D03*
D24*
X103050000Y-131230000D03*
X105750000Y-131230000D03*
X103020000Y-127950000D03*
X105720000Y-127950000D03*
X103050000Y-124530000D03*
X105750000Y-124530000D03*
X103020000Y-121600000D03*
X105720000Y-121600000D03*
X103050000Y-118330000D03*
X105750000Y-118330000D03*
X103020000Y-115250000D03*
X105720000Y-115250000D03*
X103050000Y-111830000D03*
X105750000Y-111830000D03*
X103050000Y-108630000D03*
X105750000Y-108630000D03*
X85820000Y-110250000D03*
X83120000Y-110250000D03*
X85870000Y-113150000D03*
X83170000Y-113150000D03*
X85890000Y-115880000D03*
X83190000Y-115880000D03*
X85910000Y-118890000D03*
X83210000Y-118890000D03*
X85850000Y-122950000D03*
X83150000Y-122950000D03*
X85950000Y-125880000D03*
X83250000Y-125880000D03*
X85830000Y-128810000D03*
X83130000Y-128810000D03*
X85840000Y-131860000D03*
X83140000Y-131860000D03*
X102250000Y-160330000D03*
X104950000Y-160330000D03*
X102250000Y-157130000D03*
X104950000Y-157130000D03*
X102250000Y-153130000D03*
X104950000Y-153130000D03*
X102720000Y-150070000D03*
X105420000Y-150070000D03*
X102750000Y-146730000D03*
X105450000Y-146730000D03*
X102720000Y-143620000D03*
X105420000Y-143620000D03*
X102750000Y-140030000D03*
X105450000Y-140030000D03*
X102250000Y-137030000D03*
X104950000Y-137030000D03*
X85840000Y-137540000D03*
X83140000Y-137540000D03*
X85880000Y-140130000D03*
X83180000Y-140130000D03*
X85850000Y-143230000D03*
X83150000Y-143230000D03*
X85810000Y-146280000D03*
X83110000Y-146280000D03*
X85850000Y-149730000D03*
X83150000Y-149730000D03*
X85860000Y-152690000D03*
X83160000Y-152690000D03*
X85840000Y-156760000D03*
X83140000Y-156760000D03*
X85860000Y-159740000D03*
X83160000Y-159740000D03*
X93170000Y-132100000D03*
X95870000Y-132100000D03*
X93220000Y-136350000D03*
X95920000Y-136350000D03*
D25*
X60480000Y-144790000D03*
X60480000Y-147490000D03*
D24*
X40670000Y-135700000D03*
X37970000Y-135700000D03*
X40640000Y-132930000D03*
X37940000Y-132930000D03*
D26*
X119310000Y-130450000D03*
D27*
X119310000Y-132990000D03*
X119310000Y-135530000D03*
X119310000Y-138070000D03*
D26*
X119310000Y-120290000D03*
D27*
X119310000Y-122830000D03*
X119310000Y-125370000D03*
X119310000Y-127910000D03*
D26*
X119310000Y-110130000D03*
D27*
X119310000Y-112670000D03*
X119310000Y-115210000D03*
X119310000Y-117750000D03*
D26*
X69280000Y-115370000D03*
D27*
X69280000Y-112830000D03*
X69280000Y-110290000D03*
X69280000Y-107750000D03*
D26*
X69280000Y-125530000D03*
D27*
X69280000Y-122990000D03*
X69280000Y-120450000D03*
X69280000Y-117910000D03*
D26*
X69280000Y-135690000D03*
D27*
X69280000Y-133150000D03*
X69280000Y-130610000D03*
X69280000Y-128070000D03*
D26*
X119310000Y-150770000D03*
D27*
X119310000Y-153310000D03*
X119310000Y-155850000D03*
X119310000Y-158390000D03*
D26*
X119310000Y-140610000D03*
D27*
X119310000Y-143150000D03*
X119310000Y-145690000D03*
X119310000Y-148230000D03*
D26*
X69280000Y-145850000D03*
D27*
X69280000Y-143310000D03*
X69280000Y-140770000D03*
X69280000Y-138230000D03*
D26*
X69280000Y-156010000D03*
D27*
X69280000Y-153470000D03*
X69280000Y-150930000D03*
X69280000Y-148390000D03*
D13*
X58470000Y-159890000D03*
D14*
X58470000Y-162430000D03*
D28*
X55990000Y-105610000D03*
D29*
X58530000Y-105610000D03*
X61070000Y-105610000D03*
D28*
X55990000Y-101860000D03*
D29*
X58530000Y-101860000D03*
X61070000Y-101860000D03*
D26*
X59360000Y-141280000D03*
D27*
X59360000Y-138740000D03*
X59360000Y-136200000D03*
D30*
X91390000Y-127695000D03*
X91390000Y-127045000D03*
X91390000Y-126395000D03*
X91390000Y-125745000D03*
X91390000Y-125095000D03*
X91390000Y-124445000D03*
X91390000Y-123795000D03*
X91390000Y-123145000D03*
X91390000Y-122495000D03*
X91390000Y-121845000D03*
X91390000Y-121195000D03*
X91390000Y-120545000D03*
X91390000Y-119895000D03*
X91390000Y-119245000D03*
X97090000Y-119245000D03*
X97090000Y-119895000D03*
X97090000Y-120545000D03*
X97090000Y-121195000D03*
X97090000Y-121845000D03*
X97090000Y-122495000D03*
X97090000Y-123145000D03*
X97090000Y-123795000D03*
X97090000Y-124445000D03*
X97090000Y-125095000D03*
X97090000Y-125745000D03*
X97090000Y-126395000D03*
X97090000Y-127045000D03*
X97090000Y-127695000D03*
X91070000Y-149525000D03*
X91070000Y-148875000D03*
X91070000Y-148225000D03*
X91070000Y-147575000D03*
X91070000Y-146925000D03*
X91070000Y-146275000D03*
X91070000Y-145625000D03*
X91070000Y-144975000D03*
X91070000Y-144325000D03*
X91070000Y-143675000D03*
X91070000Y-143025000D03*
X91070000Y-142375000D03*
X91070000Y-141725000D03*
X91070000Y-141075000D03*
X96770000Y-141075000D03*
X96770000Y-141725000D03*
X96770000Y-142375000D03*
X96770000Y-143025000D03*
X96770000Y-143675000D03*
X96770000Y-144325000D03*
X96770000Y-144975000D03*
X96770000Y-145625000D03*
X96770000Y-146275000D03*
X96770000Y-146925000D03*
X96770000Y-147575000D03*
X96770000Y-148225000D03*
X96770000Y-148875000D03*
X96770000Y-149525000D03*
D31*
X42305000Y-147610000D03*
X42305000Y-146809900D03*
X42305000Y-146009800D03*
X42305000Y-145209700D03*
X42305000Y-144409600D03*
X42305000Y-143609500D03*
X42305000Y-148410100D03*
X42305000Y-149210200D03*
X42305000Y-150010300D03*
X42305000Y-150810400D03*
X42305000Y-151610500D03*
X53735000Y-147610000D03*
X53735000Y-146809900D03*
X53735000Y-146009800D03*
X53735000Y-145209700D03*
X53735000Y-144409600D03*
X53735000Y-143609500D03*
X53735000Y-148410100D03*
X53735000Y-149210200D03*
X53735000Y-150010300D03*
X53735000Y-150810400D03*
X53735000Y-151610500D03*
D32*
X48020000Y-141895000D03*
X48020000Y-153325000D03*
X48820100Y-141895000D03*
X48820100Y-153325000D03*
X49620200Y-153325000D03*
X49620200Y-141895000D03*
X50420300Y-141895000D03*
X50420300Y-153325000D03*
X51220400Y-153325000D03*
X51220400Y-141895000D03*
X52020500Y-141895000D03*
X52020500Y-153325000D03*
X47219900Y-153325000D03*
X47219900Y-141895000D03*
X46419800Y-141895000D03*
X46419800Y-153325000D03*
X45619700Y-153325000D03*
X45619700Y-141895000D03*
X44819600Y-141895000D03*
X44819600Y-153325000D03*
X44019500Y-153325000D03*
X44019500Y-141895000D03*
D33*
X34060000Y-134480000D03*
X34060000Y-137020000D03*
X29560000Y-134480000D03*
X29560000Y-137020000D03*
D34*
X51111000Y-158020000D03*
X47809000Y-158020000D03*
D35*
X57100000Y-147582500D03*
X57100000Y-145677500D03*
D34*
X54121000Y-166760000D03*
X50819000Y-166760000D03*
D36*
X60860000Y-128079140D03*
X60860000Y-131680860D03*
D35*
X54710000Y-124047500D03*
X54710000Y-125952500D03*
X54710000Y-129427500D03*
X54710000Y-131332500D03*
D37*
X82500000Y-105330000D03*
X40500000Y-160830000D03*
X40500000Y-88100000D03*
X82500000Y-32600000D03*
D35*
X54710000Y-56697500D03*
X54710000Y-58602500D03*
X54710000Y-51317500D03*
X54710000Y-53222500D03*
D36*
X60860000Y-55349140D03*
X60860000Y-58950860D03*
D34*
X54121000Y-94030000D03*
X50819000Y-94030000D03*
D35*
X57100000Y-74852500D03*
X57100000Y-72947500D03*
D34*
X51111000Y-85290000D03*
X47809000Y-85290000D03*
D33*
X29560000Y-61750000D03*
X29560000Y-64290000D03*
X34060000Y-61750000D03*
X34060000Y-64290000D03*
D31*
X42305000Y-74880000D03*
X42305000Y-74079900D03*
X42305000Y-73279800D03*
X42305000Y-72479700D03*
X42305000Y-71679600D03*
X42305000Y-70879500D03*
X42305000Y-75680100D03*
X42305000Y-76480200D03*
X42305000Y-77280300D03*
X42305000Y-78080400D03*
X42305000Y-78880500D03*
X53735000Y-74880000D03*
X53735000Y-74079900D03*
X53735000Y-73279800D03*
X53735000Y-72479700D03*
X53735000Y-71679600D03*
X53735000Y-70879500D03*
X53735000Y-75680100D03*
X53735000Y-76480200D03*
X53735000Y-77280300D03*
X53735000Y-78080400D03*
X53735000Y-78880500D03*
D32*
X48020000Y-69165000D03*
X48020000Y-80595000D03*
X48820100Y-69165000D03*
X48820100Y-80595000D03*
X49620200Y-80595000D03*
X49620200Y-69165000D03*
X50420300Y-69165000D03*
X50420300Y-80595000D03*
X51220400Y-80595000D03*
X51220400Y-69165000D03*
X52020500Y-69165000D03*
X52020500Y-80595000D03*
X47219900Y-80595000D03*
X47219900Y-69165000D03*
X46419800Y-69165000D03*
X46419800Y-80595000D03*
X45619700Y-80595000D03*
X45619700Y-69165000D03*
X44819600Y-69165000D03*
X44819600Y-80595000D03*
X44019500Y-80595000D03*
X44019500Y-69165000D03*
D30*
X91070000Y-76795000D03*
X91070000Y-76145000D03*
X91070000Y-75495000D03*
X91070000Y-74845000D03*
X91070000Y-74195000D03*
X91070000Y-73545000D03*
X91070000Y-72895000D03*
X91070000Y-72245000D03*
X91070000Y-71595000D03*
X91070000Y-70945000D03*
X91070000Y-70295000D03*
X91070000Y-69645000D03*
X91070000Y-68995000D03*
X91070000Y-68345000D03*
X96770000Y-68345000D03*
X96770000Y-68995000D03*
X96770000Y-69645000D03*
X96770000Y-70295000D03*
X96770000Y-70945000D03*
X96770000Y-71595000D03*
X96770000Y-72245000D03*
X96770000Y-72895000D03*
X96770000Y-73545000D03*
X96770000Y-74195000D03*
X96770000Y-74845000D03*
X96770000Y-75495000D03*
X96770000Y-76145000D03*
X96770000Y-76795000D03*
X91390000Y-54965000D03*
X91390000Y-54315000D03*
X91390000Y-53665000D03*
X91390000Y-53015000D03*
X91390000Y-52365000D03*
X91390000Y-51715000D03*
X91390000Y-51065000D03*
X91390000Y-50415000D03*
X91390000Y-49765000D03*
X91390000Y-49115000D03*
X91390000Y-48465000D03*
X91390000Y-47815000D03*
X91390000Y-47165000D03*
X91390000Y-46515000D03*
X97090000Y-46515000D03*
X97090000Y-47165000D03*
X97090000Y-47815000D03*
X97090000Y-48465000D03*
X97090000Y-49115000D03*
X97090000Y-49765000D03*
X97090000Y-50415000D03*
X97090000Y-51065000D03*
X97090000Y-51715000D03*
X97090000Y-52365000D03*
X97090000Y-53015000D03*
X97090000Y-53665000D03*
X97090000Y-54315000D03*
X97090000Y-54965000D03*
D26*
X59360000Y-68550000D03*
D27*
X59360000Y-66010000D03*
X59360000Y-63470000D03*
D28*
X55990000Y-29130000D03*
D29*
X58530000Y-29130000D03*
X61070000Y-29130000D03*
D28*
X55990000Y-32880000D03*
D29*
X58530000Y-32880000D03*
X61070000Y-32880000D03*
D13*
X58470000Y-87160000D03*
D14*
X58470000Y-89700000D03*
D26*
X69280000Y-83280000D03*
D27*
X69280000Y-80740000D03*
X69280000Y-78200000D03*
X69280000Y-75660000D03*
D26*
X69280000Y-73120000D03*
D27*
X69280000Y-70580000D03*
X69280000Y-68040000D03*
X69280000Y-65500000D03*
D26*
X119310000Y-67880000D03*
D27*
X119310000Y-70420000D03*
X119310000Y-72960000D03*
X119310000Y-75500000D03*
D26*
X119310000Y-78040000D03*
D27*
X119310000Y-80580000D03*
X119310000Y-83120000D03*
X119310000Y-85660000D03*
D26*
X69280000Y-62960000D03*
D27*
X69280000Y-60420000D03*
X69280000Y-57880000D03*
X69280000Y-55340000D03*
D26*
X69280000Y-52800000D03*
D27*
X69280000Y-50260000D03*
X69280000Y-47720000D03*
X69280000Y-45180000D03*
D26*
X69280000Y-42640000D03*
D27*
X69280000Y-40100000D03*
X69280000Y-37560000D03*
X69280000Y-35020000D03*
D26*
X119310000Y-37400000D03*
D27*
X119310000Y-39940000D03*
X119310000Y-42480000D03*
X119310000Y-45020000D03*
D26*
X119310000Y-47560000D03*
D27*
X119310000Y-50100000D03*
X119310000Y-52640000D03*
X119310000Y-55180000D03*
D26*
X119310000Y-57720000D03*
D27*
X119310000Y-60260000D03*
X119310000Y-62800000D03*
X119310000Y-65340000D03*
D24*
X40640000Y-60200000D03*
X37940000Y-60200000D03*
X40670000Y-62970000D03*
X37970000Y-62970000D03*
D25*
X60480000Y-72060000D03*
X60480000Y-74760000D03*
D24*
X93220000Y-63620000D03*
X95920000Y-63620000D03*
X93170000Y-59370000D03*
X95870000Y-59370000D03*
X85860000Y-87010000D03*
X83160000Y-87010000D03*
X85840000Y-84030000D03*
X83140000Y-84030000D03*
X85860000Y-79960000D03*
X83160000Y-79960000D03*
X85850000Y-77000000D03*
X83150000Y-77000000D03*
X85810000Y-73550000D03*
X83110000Y-73550000D03*
X85850000Y-70500000D03*
X83150000Y-70500000D03*
X85880000Y-67400000D03*
X83180000Y-67400000D03*
X85840000Y-64810000D03*
X83140000Y-64810000D03*
X102250000Y-64300000D03*
X104950000Y-64300000D03*
X102750000Y-67300000D03*
X105450000Y-67300000D03*
X102720000Y-70890000D03*
X105420000Y-70890000D03*
X102750000Y-74000000D03*
X105450000Y-74000000D03*
X102720000Y-77340000D03*
X105420000Y-77340000D03*
X102250000Y-80400000D03*
X104950000Y-80400000D03*
X102250000Y-84400000D03*
X104950000Y-84400000D03*
X102250000Y-87600000D03*
X104950000Y-87600000D03*
X85840000Y-59130000D03*
X83140000Y-59130000D03*
X85830000Y-56080000D03*
X83130000Y-56080000D03*
X85950000Y-53150000D03*
X83250000Y-53150000D03*
X85850000Y-50220000D03*
X83150000Y-50220000D03*
X85910000Y-46160000D03*
X83210000Y-46160000D03*
X85890000Y-43150000D03*
X83190000Y-43150000D03*
X85870000Y-40420000D03*
X83170000Y-40420000D03*
X85820000Y-37520000D03*
X83120000Y-37520000D03*
X103050000Y-35900000D03*
X105750000Y-35900000D03*
X103050000Y-39100000D03*
X105750000Y-39100000D03*
X103020000Y-42520000D03*
X105720000Y-42520000D03*
X103050000Y-45600000D03*
X105750000Y-45600000D03*
X103020000Y-48870000D03*
X105720000Y-48870000D03*
X103050000Y-51800000D03*
X105750000Y-51800000D03*
X103020000Y-55220000D03*
X105720000Y-55220000D03*
X103050000Y-58500000D03*
X105750000Y-58500000D03*
D22*
X28090000Y-70170000D03*
D23*
X28090000Y-72710000D03*
X28090000Y-75250000D03*
X28090000Y-77790000D03*
X28090000Y-80330000D03*
X28090000Y-82870000D03*
X28090000Y-85410000D03*
X28090000Y-87950000D03*
X28090000Y-90490000D03*
X28090000Y-93030000D03*
X35710000Y-93030000D03*
X35710000Y-90490000D03*
X35710000Y-87950000D03*
X35710000Y-85410000D03*
X35710000Y-82870000D03*
X35710000Y-80330000D03*
X35710000Y-77790000D03*
X35710000Y-75250000D03*
X35710000Y-72710000D03*
X35710000Y-70170000D03*
D21*
X60325000Y-36703000D03*
X60325000Y-42037000D03*
X59055000Y-36703000D03*
X57785000Y-36703000D03*
X56515000Y-36703000D03*
X59055000Y-42037000D03*
X57785000Y-42037000D03*
X56515000Y-42037000D03*
D20*
X50670000Y-90030000D03*
X48130000Y-90030000D03*
X53210000Y-90030000D03*
D19*
X79560000Y-82925000D03*
X79560000Y-84195000D03*
X79560000Y-85465000D03*
X79560000Y-86735000D03*
X74160000Y-86735000D03*
X74160000Y-85465000D03*
X74160000Y-84195000D03*
X74160000Y-82925000D03*
X79550000Y-76445000D03*
X79550000Y-77715000D03*
X79550000Y-78985000D03*
X79550000Y-80255000D03*
X74150000Y-80255000D03*
X74150000Y-78985000D03*
X74150000Y-77715000D03*
X74150000Y-76445000D03*
X79550000Y-70095000D03*
X79550000Y-71365000D03*
X79550000Y-72635000D03*
X79550000Y-73905000D03*
X74150000Y-73905000D03*
X74150000Y-72635000D03*
X74150000Y-71365000D03*
X74150000Y-70095000D03*
X79550000Y-63745000D03*
X79550000Y-65015000D03*
X79550000Y-66285000D03*
X79550000Y-67555000D03*
X74150000Y-67555000D03*
X74150000Y-66285000D03*
X74150000Y-65015000D03*
X74150000Y-63745000D03*
X109140000Y-67715000D03*
X109140000Y-66445000D03*
X109140000Y-65175000D03*
X109140000Y-63905000D03*
X114540000Y-63905000D03*
X114540000Y-65175000D03*
X114540000Y-66445000D03*
X114540000Y-67715000D03*
X109140000Y-74065000D03*
X109140000Y-72795000D03*
X109140000Y-71525000D03*
X109140000Y-70255000D03*
X114540000Y-70255000D03*
X114540000Y-71525000D03*
X114540000Y-72795000D03*
X114540000Y-74065000D03*
X109140000Y-80415000D03*
X109140000Y-79145000D03*
X109140000Y-77875000D03*
X109140000Y-76605000D03*
X114540000Y-76605000D03*
X114540000Y-77875000D03*
X114540000Y-79145000D03*
X114540000Y-80415000D03*
X109140000Y-86765000D03*
X109140000Y-85495000D03*
X109140000Y-84225000D03*
X109140000Y-82955000D03*
X114540000Y-82955000D03*
X114540000Y-84225000D03*
X114540000Y-85495000D03*
X114540000Y-86765000D03*
X79550000Y-56125000D03*
X79550000Y-57395000D03*
X79550000Y-58665000D03*
X79550000Y-59935000D03*
X74150000Y-59935000D03*
X74150000Y-58665000D03*
X74150000Y-57395000D03*
X74150000Y-56125000D03*
X79550000Y-49775000D03*
X79550000Y-51045000D03*
X79550000Y-52315000D03*
X79550000Y-53585000D03*
X74150000Y-53585000D03*
X74150000Y-52315000D03*
X74150000Y-51045000D03*
X74150000Y-49775000D03*
X79550000Y-43425000D03*
X79550000Y-44695000D03*
X79550000Y-45965000D03*
X79550000Y-47235000D03*
X74150000Y-47235000D03*
X74150000Y-45965000D03*
X74150000Y-44695000D03*
X74150000Y-43425000D03*
X79550000Y-37075000D03*
X79550000Y-38345000D03*
X79550000Y-39615000D03*
X79550000Y-40885000D03*
X74150000Y-40885000D03*
X74150000Y-39615000D03*
X74150000Y-38345000D03*
X74150000Y-37075000D03*
X109140000Y-39345000D03*
X109140000Y-38075000D03*
X109140000Y-36805000D03*
X109140000Y-35535000D03*
X114540000Y-35535000D03*
X114540000Y-36805000D03*
X114540000Y-38075000D03*
X114540000Y-39345000D03*
X109140000Y-45695000D03*
X109140000Y-44425000D03*
X109140000Y-43155000D03*
X109140000Y-41885000D03*
X114540000Y-41885000D03*
X114540000Y-43155000D03*
X114540000Y-44425000D03*
X114540000Y-45695000D03*
X109140000Y-52045000D03*
X109140000Y-50775000D03*
X109140000Y-49505000D03*
X109140000Y-48235000D03*
X114540000Y-48235000D03*
X114540000Y-49505000D03*
X114540000Y-50775000D03*
X114540000Y-52045000D03*
X109140000Y-58395000D03*
X109140000Y-57125000D03*
X109140000Y-55855000D03*
X109140000Y-54585000D03*
X114540000Y-54585000D03*
X114540000Y-55855000D03*
X114540000Y-57125000D03*
X114540000Y-58395000D03*
D18*
X49830000Y-61698860D03*
X49830000Y-52001140D03*
D15*
X30000000Y-43761480D03*
X30000000Y-55630900D03*
D16*
X36350000Y-54145000D03*
D17*
X38890000Y-52875000D03*
X36350000Y-51605000D03*
X38890000Y-50335000D03*
X36350000Y-49065000D03*
X38890000Y-47795000D03*
X36350000Y-46525000D03*
X38890000Y-45255000D03*
D15*
X30000000Y-27461480D03*
X30000000Y-39330900D03*
D16*
X36350000Y-37845000D03*
D17*
X38890000Y-36575000D03*
X36350000Y-35305000D03*
X38890000Y-34035000D03*
X36350000Y-32765000D03*
X38890000Y-31495000D03*
X36350000Y-30225000D03*
X38890000Y-28955000D03*
D13*
X69280000Y-88360000D03*
D14*
X69280000Y-85820000D03*
D13*
X119310000Y-88200000D03*
D14*
X119310000Y-90740000D03*
D12*
X48980000Y-34290000D03*
X48980000Y-36290000D03*
X44310000Y-36290000D03*
X48980000Y-38290000D03*
X44310000Y-38290000D03*
X48980000Y-40290000D03*
X44310000Y-40290000D03*
X48980000Y-42290000D03*
X44310000Y-42290000D03*
X44310000Y-34290000D03*
D11*
X57280000Y-79620000D03*
X63670000Y-80600000D03*
M02*
