M48
;DRILL file {kicad (2014-jul-16 BZR unknown)-product} date Sa 01 Nov 2014 20:47:25 CET
;FORMAT={-:-/ absolute / metric / decimal}
FMAT,2
METRIC,TZ
T1C0.813
T2C0.899
T3C1.016
T4C1.143
T5C3.000
%
G90
G05
M71
T1
X28.09Y-70.17
X28.09Y-72.71
X28.09Y-75.25
X28.09Y-77.79
X28.09Y-80.33
X28.09Y-82.87
X28.09Y-85.41
X28.09Y-87.95
X28.09Y-90.49
X28.09Y-93.03
X28.09Y-142.9
X28.09Y-145.44
X28.09Y-147.98
X28.09Y-150.52
X28.09Y-153.06
X28.09Y-155.6
X28.09Y-158.14
X28.09Y-160.68
X28.09Y-163.22
X28.09Y-165.76
X29.56Y-61.75
X29.56Y-64.29
X29.56Y-134.48
X29.56Y-137.02
X34.06Y-61.75
X34.06Y-64.29
X34.06Y-134.48
X34.06Y-137.02
X35.71Y-70.17
X35.71Y-72.71
X35.71Y-75.25
X35.71Y-77.79
X35.71Y-80.33
X35.71Y-82.87
X35.71Y-85.41
X35.71Y-87.95
X35.71Y-90.49
X35.71Y-93.03
X35.71Y-142.9
X35.71Y-145.44
X35.71Y-147.98
X35.71Y-150.52
X35.71Y-153.06
X35.71Y-155.6
X35.71Y-158.14
X35.71Y-160.68
X35.71Y-163.22
X35.71Y-165.76
T2
X36.35Y-30.225
X36.35Y-32.765
X36.35Y-35.305
X36.35Y-37.845
X36.35Y-46.525
X36.35Y-49.065
X36.35Y-51.605
X36.35Y-54.145
X36.35Y-102.955
X36.35Y-105.495
X36.35Y-108.035
X36.35Y-110.575
X36.35Y-119.255
X36.35Y-121.795
X36.35Y-124.335
X36.35Y-126.875
X38.89Y-28.955
X38.89Y-31.495
X38.89Y-34.035
X38.89Y-36.575
X38.89Y-45.255
X38.89Y-47.795
X38.89Y-50.335
X38.89Y-52.875
X38.89Y-101.685
X38.89Y-104.225
X38.89Y-106.765
X38.89Y-109.305
X38.89Y-117.985
X38.89Y-120.525
X38.89Y-123.065
X38.89Y-125.605
T3
X55.99Y-29.13
X55.99Y-32.88
X55.99Y-101.86
X55.99Y-105.61
X57.28Y-79.62
X57.28Y-152.35
X58.47Y-87.16
X58.47Y-89.7
X58.47Y-159.89
X58.47Y-162.43
X58.53Y-29.13
X58.53Y-32.88
X58.53Y-101.86
X58.53Y-105.61
X59.36Y-63.47
X59.36Y-66.01
X59.36Y-68.55
X59.36Y-136.2
X59.36Y-138.74
X59.36Y-141.28
X61.07Y-29.13
X61.07Y-32.88
X61.07Y-101.86
X61.07Y-105.61
X63.67Y-80.6
X63.67Y-153.33
X69.28Y-35.02
X69.28Y-37.56
X69.28Y-40.1
X69.28Y-42.64
X69.28Y-45.18
X69.28Y-47.72
X69.28Y-50.26
X69.28Y-52.8
X69.28Y-55.34
X69.28Y-57.88
X69.28Y-60.42
X69.28Y-62.96
X69.28Y-65.5
X69.28Y-68.04
X69.28Y-70.58
X69.28Y-73.12
X69.28Y-75.66
X69.28Y-78.2
X69.28Y-80.74
X69.28Y-83.28
X69.28Y-85.82
X69.28Y-88.36
X69.28Y-107.75
X69.28Y-110.29
X69.28Y-112.83
X69.28Y-115.37
X69.28Y-117.91
X69.28Y-120.45
X69.28Y-122.99
X69.28Y-125.53
X69.28Y-128.07
X69.28Y-130.61
X69.28Y-133.15
X69.28Y-135.69
X69.28Y-138.23
X69.28Y-140.77
X69.28Y-143.31
X69.28Y-145.85
X69.28Y-148.39
X69.28Y-150.93
X69.28Y-153.47
X69.28Y-156.01
X69.28Y-158.55
X69.28Y-161.09
X119.31Y-37.4
X119.31Y-39.94
X119.31Y-42.48
X119.31Y-45.02
X119.31Y-47.56
X119.31Y-50.1
X119.31Y-52.64
X119.31Y-55.18
X119.31Y-57.72
X119.31Y-60.26
X119.31Y-62.8
X119.31Y-65.34
X119.31Y-67.88
X119.31Y-70.42
X119.31Y-72.96
X119.31Y-75.5
X119.31Y-78.04
X119.31Y-80.58
X119.31Y-83.12
X119.31Y-85.66
X119.31Y-88.2
X119.31Y-90.74
X119.31Y-110.13
X119.31Y-112.67
X119.31Y-115.21
X119.31Y-117.75
X119.31Y-120.29
X119.31Y-122.83
X119.31Y-125.37
X119.31Y-127.91
X119.31Y-130.45
X119.31Y-132.99
X119.31Y-135.53
X119.31Y-138.07
X119.31Y-140.61
X119.31Y-143.15
X119.31Y-145.69
X119.31Y-148.23
X119.31Y-150.77
X119.31Y-153.31
X119.31Y-155.85
X119.31Y-158.39
X119.31Y-160.93
X119.31Y-163.47
T4
X48.13Y-90.03
X48.13Y-162.76
X50.67Y-90.03
X50.67Y-162.76
X53.21Y-90.03
X53.21Y-162.76
T5
X40.5Y-88.1
X40.5Y-160.83
X82.5Y-32.6
X82.5Y-105.33
T0
M30
