M48
;DRILL file {KiCad 4.1.0-alpha+201608211231+7083~46~ubuntu14.04.1-product} date Fri Aug 26 11:20:47 2016
;FORMAT={-:-/ absolute / metric / decimal}
FMAT,2
METRIC,TZ
T1C0.635
T2C0.899
T3C1.000
T4C1.016
T5C1.143
T6C3.000
T7C3.251
%
G90
G05
M71
T1
X27.849Y-30.556
X28.116Y-33.414
X28.116Y-36.119
X28.573Y-52.654
X28.649Y-49.568
X30.43Y-82.85
X30.43Y-85.39
X30.43Y-87.88
X30.51Y-77.75
X30.53Y-75.23
X30.53Y-80.37
X30.53Y-90.5
X30.58Y-72.72
X30.65Y-70.09
X30.66Y-93.09
X32.116Y-30.632
X32.116Y-33.566
X32.23Y-36.043
X32.726Y-51.968
X32.764Y-49.454
X32.802Y-42.596
X32.954Y-54.902
X35.431Y-58.331
X35.469Y-56.578
X35.888Y-40.805
X36.078Y-43.091
X36.307Y-44.882
X36.34Y-38.53
X37.57Y-39.36
X38.707Y-43.32
X38.745Y-41.072
X38.784Y-45.187
X38.898Y-58.445
X39.54Y-75.24
X40.9Y-28.35
X42.632Y-31.572
X43.49Y-47.37
X43.78Y-45.76
X44.537Y-29.731
X44.65Y-74.3
X45.73Y-45.85
X46.675Y-47.575
X47.496Y-29.781
X47.67Y-94.32
X47.98Y-67.25
X48.69Y-74.35
X50.84Y-78.46
X51.014Y-29.731
X51.05Y-56.645
X51.08Y-35.92
X51.13Y-40.97
X51.21Y-38.53
X51.28Y-43.56
X51.84Y-49.555
X52.025Y-66.
X52.95Y-30.98
X57.2Y-70.98
X58.425Y-43.425
X60.9Y-61.61
X61.263Y-88.328
X61.263Y-90.589
X61.326Y-86.436
X62.04Y-79.33
X63.358Y-88.341
X63.371Y-86.436
X63.383Y-90.551
X65.796Y-90.538
X73.406Y-32.004
X74.422Y-34.544
X76.454Y-32.004
X76.708Y-61.722
X76.835Y-42.291
X76.835Y-48.514
X76.835Y-54.991
X76.835Y-68.961
X76.835Y-75.184
X76.962Y-81.788
X78.105Y-34.544
X90.424Y-61.976
X91.313Y-82.931
X91.44Y-78.867
X95.885Y-78.867
X96.012Y-82.804
X96.774Y-33.401
X96.901Y-37.592
X96.901Y-41.402
X96.901Y-44.45
X98.806Y-61.722
X109.093Y-88.9
X111.506Y-34.036
X111.633Y-40.513
X111.633Y-53.467
X111.633Y-61.722
X111.76Y-47.117
X111.76Y-68.961
X111.76Y-75.311
X111.76Y-81.788
T2
X36.332Y-47.142
X36.332Y-49.682
X36.332Y-52.222
X36.332Y-54.762
X36.35Y-28.955
X36.35Y-31.495
X36.35Y-34.035
X36.35Y-36.575
X38.872Y-48.412
X38.872Y-50.952
X38.872Y-53.492
X38.872Y-56.032
X38.89Y-30.225
X38.89Y-32.765
X38.89Y-35.305
X38.89Y-37.845
T3
X28.09Y-70.17
X28.09Y-72.71
X28.09Y-75.25
X28.09Y-77.79
X28.09Y-80.33
X28.09Y-82.87
X28.09Y-85.41
X28.09Y-87.95
X28.09Y-90.49
X28.09Y-93.03
X29.522Y-62.931
X29.522Y-65.471
X34.022Y-62.931
X34.022Y-65.471
X35.71Y-70.17
X35.71Y-72.71
X35.71Y-75.25
X35.71Y-77.79
X35.71Y-80.33
X35.71Y-82.87
X35.71Y-85.41
X35.71Y-87.95
X35.71Y-90.49
X35.71Y-93.03
T4
X46.32Y-33.44
X46.32Y-35.98
X46.32Y-38.52
X46.32Y-41.06
X46.32Y-43.6
X48.86Y-33.44
X48.86Y-35.98
X48.86Y-38.52
X48.86Y-41.06
X48.86Y-43.6
X55.99Y-29.13
X55.99Y-32.88
X57.075Y-45.38
X57.075Y-47.92
X57.075Y-50.46
X57.075Y-53.
X57.41Y-79.72
X58.344Y-86.238
X58.344Y-89.738
X58.53Y-29.13
X58.53Y-32.88
X59.36Y-63.47
X59.36Y-66.01
X59.36Y-68.55
X59.95Y-79.72
X61.07Y-29.13
X61.07Y-32.88
X67.714Y-49.127
X67.714Y-52.627
X67.714Y-56.127
X67.714Y-59.627
X67.714Y-63.127
X67.714Y-66.627
X67.714Y-70.127
X67.714Y-73.627
X67.714Y-77.127
X67.714Y-80.627
X67.714Y-84.127
X67.714Y-87.627
X67.717Y-35.127
X67.717Y-38.627
X67.717Y-42.127
X67.717Y-45.627
X69.779Y-91.44
X73.279Y-91.44
X76.779Y-91.44
X80.279Y-91.44
X101.712Y-91.567
X105.212Y-91.567
X108.555Y-29.324
X108.712Y-91.567
X112.055Y-29.324
X112.212Y-91.567
X115.555Y-29.324
X119.055Y-29.324
X120.016Y-35.
X120.016Y-38.5
X120.016Y-42.
X120.016Y-45.5
X120.016Y-49.
X120.016Y-52.5
X120.016Y-56.
X120.016Y-59.5
X120.016Y-63.
X120.016Y-66.5
X120.016Y-70.
X120.016Y-73.5
X120.016Y-77.
X120.016Y-80.5
X120.016Y-84.
X120.016Y-87.5
T5
X48.13Y-90.03
X50.67Y-90.03
X53.21Y-90.03
T6
X40.5Y-88.1
X82.5Y-32.6
T7
X29.982Y-45.657
X29.982Y-57.526
X30.Y-27.469
X30.Y-39.339
T0
M30
