G04 #@! TF.FileFunction,Legend,Top*
%FSLAX46Y46*%
G04 Gerber Fmt 4.6, Leading zero omitted, Abs format (unit mm)*
G04 Created by KiCad (PCBNEW 4.1.0-alpha+201608211231+7083~46~ubuntu14.04.1-product) date Fri Aug 26 11:20:39 2016*
%MOMM*%
%LPD*%
G01*
G04 APERTURE LIST*
%ADD10C,0.150000*%
%ADD11C,0.300000*%
%ADD12C,0.200000*%
%ADD13C,0.500000*%
%ADD14C,0.127000*%
%ADD15C,0.381000*%
%ADD16C,0.254000*%
%ADD17C,0.152400*%
%ADD18C,0.304800*%
%ADD19C,0.203200*%
%ADD20C,0.088900*%
%ADD21C,0.285750*%
G04 APERTURE END LIST*
D10*
D11*
X80769742Y-87506185D02*
X79855457Y-87506185D01*
X80312600Y-87049042D02*
X80312600Y-87963328D01*
D12*
X50273200Y-86639295D02*
X50220819Y-86744057D01*
X50220819Y-86901200D01*
X50273200Y-87058342D01*
X50377961Y-87163104D01*
X50482723Y-87215485D01*
X50692247Y-87267866D01*
X50849390Y-87267866D01*
X51058914Y-87215485D01*
X51163676Y-87163104D01*
X51268438Y-87058342D01*
X51320819Y-86901200D01*
X51320819Y-86796438D01*
X51268438Y-86639295D01*
X51216057Y-86586914D01*
X50849390Y-86586914D01*
X50849390Y-86796438D01*
X51320819Y-86115485D02*
X50220819Y-86115485D01*
X51320819Y-85486914D01*
X50220819Y-85486914D01*
X51320819Y-84963104D02*
X50220819Y-84963104D01*
X50220819Y-84701200D01*
X50273200Y-84544057D01*
X50377961Y-84439295D01*
X50482723Y-84386914D01*
X50692247Y-84334533D01*
X50849390Y-84334533D01*
X51058914Y-84386914D01*
X51163676Y-84439295D01*
X51268438Y-84544057D01*
X51320819Y-84701200D01*
X51320819Y-84963104D01*
X52575852Y-86717971D02*
X53413947Y-86717971D01*
X52994900Y-87137019D02*
X52994900Y-86298923D01*
X47515719Y-86658423D02*
X47515719Y-87182233D01*
X48039528Y-87234614D01*
X47987147Y-87182233D01*
X47934766Y-87077471D01*
X47934766Y-86815566D01*
X47987147Y-86710804D01*
X48039528Y-86658423D01*
X48144290Y-86606042D01*
X48406195Y-86606042D01*
X48510957Y-86658423D01*
X48563338Y-86710804D01*
X48615719Y-86815566D01*
X48615719Y-87077471D01*
X48563338Y-87182233D01*
X48510957Y-87234614D01*
X47515719Y-86291757D02*
X48615719Y-85925090D01*
X47515719Y-85558423D01*
D11*
X109001842Y-88280885D02*
X108087557Y-88280885D01*
X108544700Y-87823742D02*
X108544700Y-88738028D01*
X102245442Y-88280885D02*
X101331157Y-88280885D01*
X101788300Y-87823742D02*
X101788300Y-88738028D01*
D12*
X52664804Y-52650300D02*
X52560042Y-52597919D01*
X52402900Y-52597919D01*
X52245757Y-52650300D01*
X52140995Y-52755061D01*
X52088614Y-52859823D01*
X52036233Y-53069347D01*
X52036233Y-53226490D01*
X52088614Y-53436014D01*
X52140995Y-53540776D01*
X52245757Y-53645538D01*
X52402900Y-53697919D01*
X52507661Y-53697919D01*
X52664804Y-53645538D01*
X52717185Y-53593157D01*
X52717185Y-53226490D01*
X52507661Y-53226490D01*
X53188614Y-53697919D02*
X53188614Y-52597919D01*
X53817185Y-53697919D01*
X53817185Y-52597919D01*
X54340995Y-53697919D02*
X54340995Y-52597919D01*
X54602900Y-52597919D01*
X54760042Y-52650300D01*
X54864804Y-52755061D01*
X54917185Y-52859823D01*
X54969566Y-53069347D01*
X54969566Y-53226490D01*
X54917185Y-53436014D01*
X54864804Y-53540776D01*
X54760042Y-53645538D01*
X54602900Y-53697919D01*
X54340995Y-53697919D01*
X53966476Y-49969019D02*
X53442666Y-49969019D01*
X53390285Y-50492828D01*
X53442666Y-50440447D01*
X53547428Y-50388066D01*
X53809333Y-50388066D01*
X53914095Y-50440447D01*
X53966476Y-50492828D01*
X54018857Y-50597590D01*
X54018857Y-50859495D01*
X53966476Y-50964257D01*
X53914095Y-51016638D01*
X53809333Y-51069019D01*
X53547428Y-51069019D01*
X53442666Y-51016638D01*
X53390285Y-50964257D01*
X54333142Y-49969019D02*
X54699809Y-51069019D01*
X55066476Y-49969019D01*
X54018066Y-45900119D02*
X53651400Y-45376309D01*
X53389495Y-45900119D02*
X53389495Y-44800119D01*
X53808542Y-44800119D01*
X53913304Y-44852500D01*
X53965685Y-44904880D01*
X54018066Y-45009642D01*
X54018066Y-45166785D01*
X53965685Y-45271547D01*
X53913304Y-45323928D01*
X53808542Y-45376309D01*
X53389495Y-45376309D01*
X54384733Y-44800119D02*
X55118066Y-45900119D01*
X55118066Y-44800119D02*
X54384733Y-45900119D01*
X53388704Y-47365519D02*
X54017276Y-47365519D01*
X53702990Y-48465519D02*
X53702990Y-47365519D01*
X54279180Y-47365519D02*
X55012514Y-48465519D01*
X55012514Y-47365519D02*
X54279180Y-48465519D01*
X54394480Y-64010319D02*
X54394480Y-62910319D01*
X54656385Y-62910319D01*
X54813528Y-62962700D01*
X54918290Y-63067461D01*
X54970671Y-63172223D01*
X55023052Y-63381747D01*
X55023052Y-63538890D01*
X54970671Y-63748414D01*
X54918290Y-63853176D01*
X54813528Y-63957938D01*
X54656385Y-64010319D01*
X54394480Y-64010319D01*
X55965909Y-64010319D02*
X55965909Y-63434128D01*
X55913528Y-63329366D01*
X55808766Y-63276985D01*
X55599242Y-63276985D01*
X55494480Y-63329366D01*
X55965909Y-63957938D02*
X55861147Y-64010319D01*
X55599242Y-64010319D01*
X55494480Y-63957938D01*
X55442100Y-63853176D01*
X55442100Y-63748414D01*
X55494480Y-63643652D01*
X55599242Y-63591271D01*
X55861147Y-63591271D01*
X55965909Y-63538890D01*
X56332576Y-63276985D02*
X56751623Y-63276985D01*
X56489719Y-62910319D02*
X56489719Y-63853176D01*
X56542100Y-63957938D01*
X56646861Y-64010319D01*
X56751623Y-64010319D01*
X57589719Y-64010319D02*
X57589719Y-63434128D01*
X57537338Y-63329366D01*
X57432576Y-63276985D01*
X57223052Y-63276985D01*
X57118290Y-63329366D01*
X57589719Y-63957938D02*
X57484957Y-64010319D01*
X57223052Y-64010319D01*
X57118290Y-63957938D01*
X57065909Y-63853176D01*
X57065909Y-63748414D01*
X57118290Y-63643652D01*
X57223052Y-63591271D01*
X57484957Y-63591271D01*
X57589719Y-63538890D01*
X54936576Y-65450319D02*
X55303242Y-66550319D01*
X55669909Y-65450319D01*
X56508004Y-66497938D02*
X56403242Y-66550319D01*
X56193719Y-66550319D01*
X56088957Y-66497938D01*
X56036576Y-66445557D01*
X55984195Y-66340795D01*
X55984195Y-66026509D01*
X56036576Y-65921747D01*
X56088957Y-65869366D01*
X56193719Y-65816985D01*
X56403242Y-65816985D01*
X56508004Y-65869366D01*
X57450861Y-66497938D02*
X57346100Y-66550319D01*
X57136576Y-66550319D01*
X57031814Y-66497938D01*
X56979433Y-66445557D01*
X56927052Y-66340795D01*
X56927052Y-66026509D01*
X56979433Y-65921747D01*
X57031814Y-65869366D01*
X57136576Y-65816985D01*
X57346100Y-65816985D01*
X57450861Y-65869366D01*
X55268304Y-68068100D02*
X55163542Y-68015719D01*
X55006400Y-68015719D01*
X54849257Y-68068100D01*
X54744495Y-68172861D01*
X54692114Y-68277623D01*
X54639733Y-68487147D01*
X54639733Y-68644290D01*
X54692114Y-68853814D01*
X54744495Y-68958576D01*
X54849257Y-69063338D01*
X55006400Y-69115719D01*
X55111161Y-69115719D01*
X55268304Y-69063338D01*
X55320685Y-69010957D01*
X55320685Y-68644290D01*
X55111161Y-68644290D01*
X55792114Y-69115719D02*
X55792114Y-68015719D01*
X56420685Y-69115719D01*
X56420685Y-68015719D01*
X56944495Y-69115719D02*
X56944495Y-68015719D01*
X57206400Y-68015719D01*
X57363542Y-68068100D01*
X57468304Y-68172861D01*
X57520685Y-68277623D01*
X57573066Y-68487147D01*
X57573066Y-68644290D01*
X57520685Y-68853814D01*
X57468304Y-68958576D01*
X57363542Y-69063338D01*
X57206400Y-69115719D01*
X56944495Y-69115719D01*
X59548214Y-76958900D02*
X59433928Y-76901757D01*
X59262500Y-76901757D01*
X59091071Y-76958900D01*
X58976785Y-77073185D01*
X58919642Y-77187471D01*
X58862500Y-77416042D01*
X58862500Y-77587471D01*
X58919642Y-77816042D01*
X58976785Y-77930328D01*
X59091071Y-78044614D01*
X59262500Y-78101757D01*
X59376785Y-78101757D01*
X59548214Y-78044614D01*
X59605357Y-77987471D01*
X59605357Y-77587471D01*
X59376785Y-77587471D01*
X60119642Y-78101757D02*
X60119642Y-76901757D01*
X60805357Y-78101757D01*
X60805357Y-76901757D01*
X61376785Y-78101757D02*
X61376785Y-76901757D01*
X61662500Y-76901757D01*
X61833928Y-76958900D01*
X61948214Y-77073185D01*
X62005357Y-77187471D01*
X62062500Y-77416042D01*
X62062500Y-77587471D01*
X62005357Y-77816042D01*
X61948214Y-77930328D01*
X61833928Y-78044614D01*
X61662500Y-78101757D01*
X61376785Y-78101757D01*
X56004914Y-76850957D02*
X56690628Y-76850957D01*
X56347771Y-78050957D02*
X56347771Y-76850957D01*
X56976342Y-76850957D02*
X57776342Y-78050957D01*
X57776342Y-76850957D02*
X56976342Y-78050957D01*
X38355271Y-85239157D02*
X38355271Y-84039157D01*
X38755271Y-84896300D01*
X39155271Y-84039157D01*
X39155271Y-85239157D01*
X39898128Y-85239157D02*
X39783842Y-85182014D01*
X39726700Y-85124871D01*
X39669557Y-85010585D01*
X39669557Y-84667728D01*
X39726700Y-84553442D01*
X39783842Y-84496300D01*
X39898128Y-84439157D01*
X40069557Y-84439157D01*
X40183842Y-84496300D01*
X40240985Y-84553442D01*
X40298128Y-84667728D01*
X40298128Y-85010585D01*
X40240985Y-85124871D01*
X40183842Y-85182014D01*
X40069557Y-85239157D01*
X39898128Y-85239157D01*
X41326700Y-84439157D02*
X41326700Y-85239157D01*
X40812414Y-84439157D02*
X40812414Y-85067728D01*
X40869557Y-85182014D01*
X40983842Y-85239157D01*
X41155271Y-85239157D01*
X41269557Y-85182014D01*
X41326700Y-85124871D01*
X41898128Y-84439157D02*
X41898128Y-85239157D01*
X41898128Y-84553442D02*
X41955271Y-84496300D01*
X42069557Y-84439157D01*
X42240985Y-84439157D01*
X42355271Y-84496300D01*
X42412414Y-84610585D01*
X42412414Y-85239157D01*
X42812414Y-84439157D02*
X43269557Y-84439157D01*
X42983842Y-84039157D02*
X42983842Y-85067728D01*
X43040985Y-85182014D01*
X43155271Y-85239157D01*
X43269557Y-85239157D01*
X80112871Y-29498857D02*
X80112871Y-28298857D01*
X80512871Y-29156000D01*
X80912871Y-28298857D01*
X80912871Y-29498857D01*
X81655728Y-29498857D02*
X81541442Y-29441714D01*
X81484300Y-29384571D01*
X81427157Y-29270285D01*
X81427157Y-28927428D01*
X81484300Y-28813142D01*
X81541442Y-28756000D01*
X81655728Y-28698857D01*
X81827157Y-28698857D01*
X81941442Y-28756000D01*
X81998585Y-28813142D01*
X82055728Y-28927428D01*
X82055728Y-29270285D01*
X81998585Y-29384571D01*
X81941442Y-29441714D01*
X81827157Y-29498857D01*
X81655728Y-29498857D01*
X83084300Y-28698857D02*
X83084300Y-29498857D01*
X82570014Y-28698857D02*
X82570014Y-29327428D01*
X82627157Y-29441714D01*
X82741442Y-29498857D01*
X82912871Y-29498857D01*
X83027157Y-29441714D01*
X83084300Y-29384571D01*
X83655728Y-28698857D02*
X83655728Y-29498857D01*
X83655728Y-28813142D02*
X83712871Y-28756000D01*
X83827157Y-28698857D01*
X83998585Y-28698857D01*
X84112871Y-28756000D01*
X84170014Y-28870285D01*
X84170014Y-29498857D01*
X84570014Y-28698857D02*
X85027157Y-28698857D01*
X84741442Y-28298857D02*
X84741442Y-29327428D01*
X84798585Y-29441714D01*
X84912871Y-29498857D01*
X85027157Y-29498857D01*
D11*
X60348314Y-85696500D02*
X60234028Y-85639357D01*
X60062600Y-85639357D01*
X59891171Y-85696500D01*
X59776885Y-85810785D01*
X59719742Y-85925071D01*
X59662600Y-86153642D01*
X59662600Y-86325071D01*
X59719742Y-86553642D01*
X59776885Y-86667928D01*
X59891171Y-86782214D01*
X60062600Y-86839357D01*
X60176885Y-86839357D01*
X60348314Y-86782214D01*
X60405457Y-86725071D01*
X60405457Y-86325071D01*
X60176885Y-86325071D01*
X60919742Y-86839357D02*
X60919742Y-85639357D01*
X61605457Y-86839357D01*
X61605457Y-85639357D01*
X62176885Y-86839357D02*
X62176885Y-85639357D01*
X62462600Y-85639357D01*
X62634028Y-85696500D01*
X62748314Y-85810785D01*
X62805457Y-85925071D01*
X62862600Y-86153642D01*
X62862600Y-86325071D01*
X62805457Y-86553642D01*
X62748314Y-86667928D01*
X62634028Y-86782214D01*
X62462600Y-86839357D01*
X62176885Y-86839357D01*
X61088757Y-89255661D02*
X61088757Y-90246138D01*
X61583995Y-89750900D02*
X60593519Y-89750900D01*
D12*
X60792757Y-26038185D02*
X61707042Y-26038185D01*
X58100357Y-26038185D02*
X59014642Y-26038185D01*
X58557500Y-25581042D02*
X58557500Y-26495328D01*
X54188814Y-25384200D02*
X54074528Y-25327057D01*
X53903100Y-25327057D01*
X53731671Y-25384200D01*
X53617385Y-25498485D01*
X53560242Y-25612771D01*
X53503100Y-25841342D01*
X53503100Y-26012771D01*
X53560242Y-26241342D01*
X53617385Y-26355628D01*
X53731671Y-26469914D01*
X53903100Y-26527057D01*
X54017385Y-26527057D01*
X54188814Y-26469914D01*
X54245957Y-26412771D01*
X54245957Y-26012771D01*
X54017385Y-26012771D01*
X54760242Y-26527057D02*
X54760242Y-25327057D01*
X55445957Y-26527057D01*
X55445957Y-25327057D01*
X56017385Y-26527057D02*
X56017385Y-25327057D01*
X56303100Y-25327057D01*
X56474528Y-25384200D01*
X56588814Y-25498485D01*
X56645957Y-25612771D01*
X56703100Y-25841342D01*
X56703100Y-26012771D01*
X56645957Y-26241342D01*
X56588814Y-26355628D01*
X56474528Y-26469914D01*
X56303100Y-26527057D01*
X56017385Y-26527057D01*
X53791757Y-32191128D02*
X52591757Y-32191128D01*
X52591757Y-31905414D01*
X52648900Y-31733985D01*
X52763185Y-31619700D01*
X52877471Y-31562557D01*
X53106042Y-31505414D01*
X53277471Y-31505414D01*
X53506042Y-31562557D01*
X53620328Y-31619700D01*
X53734614Y-31733985D01*
X53791757Y-31905414D01*
X53791757Y-32191128D01*
X53791757Y-30991128D02*
X52591757Y-30991128D01*
X53448900Y-30591128D01*
X52591757Y-30191128D01*
X53791757Y-30191128D01*
X52591757Y-29733985D02*
X53791757Y-28933985D01*
X52591757Y-28933985D02*
X53791757Y-29733985D01*
D11*
X117866642Y-31287328D02*
X117938071Y-31215900D01*
X118080928Y-31144471D01*
X118438071Y-31144471D01*
X118580928Y-31215900D01*
X118652357Y-31287328D01*
X118723785Y-31430185D01*
X118723785Y-31573042D01*
X118652357Y-31787328D01*
X117795214Y-32644471D01*
X118723785Y-32644471D01*
X119223785Y-31144471D02*
X120223785Y-31144471D01*
X119580928Y-32644471D01*
X108087557Y-33042214D02*
X109001842Y-33042214D01*
X108544700Y-33499357D02*
X108544700Y-32585071D01*
X114586714Y-36017142D02*
X114586714Y-35102857D01*
X115043857Y-35560000D02*
X114129571Y-35560000D01*
X114726414Y-49339442D02*
X114726414Y-48425157D01*
X115183557Y-48882300D02*
X114269271Y-48882300D01*
X114802614Y-63398342D02*
X114802614Y-62484057D01*
X115259757Y-62941200D02*
X114345471Y-62941200D01*
X114535914Y-77533442D02*
X114535914Y-76619157D01*
X114993057Y-77076300D02*
X114078771Y-77076300D01*
X115243071Y-87725214D02*
X115243071Y-88582357D01*
X115243071Y-88153785D02*
X113743071Y-88153785D01*
X113957357Y-88296642D01*
X114100214Y-88439500D01*
X114171642Y-88582357D01*
X113743071Y-86368071D02*
X113743071Y-87082357D01*
X114457357Y-87153785D01*
X114385928Y-87082357D01*
X114314500Y-86939500D01*
X114314500Y-86582357D01*
X114385928Y-86439500D01*
X114457357Y-86368071D01*
X114600214Y-86296642D01*
X114957357Y-86296642D01*
X115100214Y-86368071D01*
X115171642Y-86439500D01*
X115243071Y-86582357D01*
X115243071Y-86939500D01*
X115171642Y-87082357D01*
X115100214Y-87153785D01*
X115090671Y-84296214D02*
X115090671Y-85153357D01*
X115090671Y-84724785D02*
X113590671Y-84724785D01*
X113804957Y-84867642D01*
X113947814Y-85010500D01*
X114019242Y-85153357D01*
X114090671Y-83010500D02*
X115090671Y-83010500D01*
X113519242Y-83367642D02*
X114590671Y-83724785D01*
X114590671Y-82796214D01*
X115090671Y-80791014D02*
X115090671Y-81648157D01*
X115090671Y-81219585D02*
X113590671Y-81219585D01*
X113804957Y-81362442D01*
X113947814Y-81505300D01*
X114019242Y-81648157D01*
X113590671Y-80291014D02*
X113590671Y-79362442D01*
X114162100Y-79862442D01*
X114162100Y-79648157D01*
X114233528Y-79505300D01*
X114304957Y-79433871D01*
X114447814Y-79362442D01*
X114804957Y-79362442D01*
X114947814Y-79433871D01*
X115019242Y-79505300D01*
X115090671Y-79648157D01*
X115090671Y-80076728D01*
X115019242Y-80219585D01*
X114947814Y-80291014D01*
X115166871Y-73666314D02*
X115166871Y-74523457D01*
X115166871Y-74094885D02*
X113666871Y-74094885D01*
X113881157Y-74237742D01*
X114024014Y-74380600D01*
X114095442Y-74523457D01*
X113809728Y-73094885D02*
X113738300Y-73023457D01*
X113666871Y-72880600D01*
X113666871Y-72523457D01*
X113738300Y-72380600D01*
X113809728Y-72309171D01*
X113952585Y-72237742D01*
X114095442Y-72237742D01*
X114309728Y-72309171D01*
X115166871Y-73166314D01*
X115166871Y-72237742D01*
X115166871Y-70275414D02*
X115166871Y-71132557D01*
X115166871Y-70703985D02*
X113666871Y-70703985D01*
X113881157Y-70846842D01*
X114024014Y-70989700D01*
X114095442Y-71132557D01*
X115166871Y-68846842D02*
X115166871Y-69703985D01*
X115166871Y-69275414D02*
X113666871Y-69275414D01*
X113881157Y-69418271D01*
X114024014Y-69561128D01*
X114095442Y-69703985D01*
X115281171Y-66998814D02*
X115281171Y-67855957D01*
X115281171Y-67427385D02*
X113781171Y-67427385D01*
X113995457Y-67570242D01*
X114138314Y-67713100D01*
X114209742Y-67855957D01*
X113781171Y-66070242D02*
X113781171Y-65927385D01*
X113852600Y-65784528D01*
X113924028Y-65713100D01*
X114066885Y-65641671D01*
X114352600Y-65570242D01*
X114709742Y-65570242D01*
X114995457Y-65641671D01*
X115138314Y-65713100D01*
X115209742Y-65784528D01*
X115281171Y-65927385D01*
X115281171Y-66070242D01*
X115209742Y-66213100D01*
X115138314Y-66284528D01*
X114995457Y-66355957D01*
X114709742Y-66427385D01*
X114352600Y-66427385D01*
X114066885Y-66355957D01*
X113924028Y-66284528D01*
X113852600Y-66213100D01*
X113781171Y-66070242D01*
X115395471Y-59759814D02*
X115395471Y-59474100D01*
X115324042Y-59331242D01*
X115252614Y-59259814D01*
X115038328Y-59116957D01*
X114752614Y-59045528D01*
X114181185Y-59045528D01*
X114038328Y-59116957D01*
X113966900Y-59188385D01*
X113895471Y-59331242D01*
X113895471Y-59616957D01*
X113966900Y-59759814D01*
X114038328Y-59831242D01*
X114181185Y-59902671D01*
X114538328Y-59902671D01*
X114681185Y-59831242D01*
X114752614Y-59759814D01*
X114824042Y-59616957D01*
X114824042Y-59331242D01*
X114752614Y-59188385D01*
X114681185Y-59116957D01*
X114538328Y-59045528D01*
X113895471Y-57335585D02*
X113895471Y-56407014D01*
X114466900Y-56907014D01*
X114466900Y-56692728D01*
X114538328Y-56549871D01*
X114609757Y-56478442D01*
X114752614Y-56407014D01*
X115109757Y-56407014D01*
X115252614Y-56478442D01*
X115324042Y-56549871D01*
X115395471Y-56692728D01*
X115395471Y-57121300D01*
X115324042Y-57264157D01*
X115252614Y-57335585D01*
X114038328Y-55835585D02*
X113966900Y-55764157D01*
X113895471Y-55621300D01*
X113895471Y-55264157D01*
X113966900Y-55121300D01*
X114038328Y-55049871D01*
X114181185Y-54978442D01*
X114324042Y-54978442D01*
X114538328Y-55049871D01*
X115395471Y-55907014D01*
X115395471Y-54978442D01*
X113895471Y-53677985D02*
X113895471Y-52749414D01*
X114466900Y-53249414D01*
X114466900Y-53035128D01*
X114538328Y-52892271D01*
X114609757Y-52820842D01*
X114752614Y-52749414D01*
X115109757Y-52749414D01*
X115252614Y-52820842D01*
X115324042Y-52892271D01*
X115395471Y-53035128D01*
X115395471Y-53463700D01*
X115324042Y-53606557D01*
X115252614Y-53677985D01*
X115395471Y-51320842D02*
X115395471Y-52177985D01*
X115395471Y-51749414D02*
X113895471Y-51749414D01*
X114109757Y-51892271D01*
X114252614Y-52035128D01*
X114324042Y-52177985D01*
X113628771Y-46629485D02*
X113628771Y-45700914D01*
X114200200Y-46200914D01*
X114200200Y-45986628D01*
X114271628Y-45843771D01*
X114343057Y-45772342D01*
X114485914Y-45700914D01*
X114843057Y-45700914D01*
X114985914Y-45772342D01*
X115057342Y-45843771D01*
X115128771Y-45986628D01*
X115128771Y-46415200D01*
X115057342Y-46558057D01*
X114985914Y-46629485D01*
X113628771Y-44772342D02*
X113628771Y-44629485D01*
X113700200Y-44486628D01*
X113771628Y-44415200D01*
X113914485Y-44343771D01*
X114200200Y-44272342D01*
X114557342Y-44272342D01*
X114843057Y-44343771D01*
X114985914Y-44415200D01*
X115057342Y-44486628D01*
X115128771Y-44629485D01*
X115128771Y-44772342D01*
X115057342Y-44915200D01*
X114985914Y-44986628D01*
X114843057Y-45058057D01*
X114557342Y-45129485D01*
X114200200Y-45129485D01*
X113914485Y-45058057D01*
X113771628Y-44986628D01*
X113700200Y-44915200D01*
X113628771Y-44772342D01*
X113657328Y-43129057D02*
X113585900Y-43057628D01*
X113514471Y-42914771D01*
X113514471Y-42557628D01*
X113585900Y-42414771D01*
X113657328Y-42343342D01*
X113800185Y-42271914D01*
X113943042Y-42271914D01*
X114157328Y-42343342D01*
X115014471Y-43200485D01*
X115014471Y-42271914D01*
X115014471Y-41557628D02*
X115014471Y-41271914D01*
X114943042Y-41129057D01*
X114871614Y-41057628D01*
X114657328Y-40914771D01*
X114371614Y-40843342D01*
X113800185Y-40843342D01*
X113657328Y-40914771D01*
X113585900Y-40986200D01*
X113514471Y-41129057D01*
X113514471Y-41414771D01*
X113585900Y-41557628D01*
X113657328Y-41629057D01*
X113800185Y-41700485D01*
X114157328Y-41700485D01*
X114300185Y-41629057D01*
X114371614Y-41557628D01*
X114443042Y-41414771D01*
X114443042Y-41129057D01*
X114371614Y-40986200D01*
X114300185Y-40914771D01*
X114157328Y-40843342D01*
X113771628Y-39814357D02*
X113700200Y-39742928D01*
X113628771Y-39600071D01*
X113628771Y-39242928D01*
X113700200Y-39100071D01*
X113771628Y-39028642D01*
X113914485Y-38957214D01*
X114057342Y-38957214D01*
X114271628Y-39028642D01*
X115128771Y-39885785D01*
X115128771Y-38957214D01*
X114271628Y-38100071D02*
X114200200Y-38242928D01*
X114128771Y-38314357D01*
X113985914Y-38385785D01*
X113914485Y-38385785D01*
X113771628Y-38314357D01*
X113700200Y-38242928D01*
X113628771Y-38100071D01*
X113628771Y-37814357D01*
X113700200Y-37671500D01*
X113771628Y-37600071D01*
X113914485Y-37528642D01*
X113985914Y-37528642D01*
X114128771Y-37600071D01*
X114200200Y-37671500D01*
X114271628Y-37814357D01*
X114271628Y-38100071D01*
X114343057Y-38242928D01*
X114414485Y-38314357D01*
X114557342Y-38385785D01*
X114843057Y-38385785D01*
X114985914Y-38314357D01*
X115057342Y-38242928D01*
X115128771Y-38100071D01*
X115128771Y-37814357D01*
X115057342Y-37671500D01*
X114985914Y-37600071D01*
X114843057Y-37528642D01*
X114557342Y-37528642D01*
X114414485Y-37600071D01*
X114343057Y-37671500D01*
X114271628Y-37814357D01*
X114513842Y-32341428D02*
X114585271Y-32270000D01*
X114728128Y-32198571D01*
X115085271Y-32198571D01*
X115228128Y-32270000D01*
X115299557Y-32341428D01*
X115370985Y-32484285D01*
X115370985Y-32627142D01*
X115299557Y-32841428D01*
X114442414Y-33698571D01*
X115370985Y-33698571D01*
X116656700Y-32198571D02*
X116370985Y-32198571D01*
X116228128Y-32270000D01*
X116156700Y-32341428D01*
X116013842Y-32555714D01*
X115942414Y-32841428D01*
X115942414Y-33412857D01*
X116013842Y-33555714D01*
X116085271Y-33627142D01*
X116228128Y-33698571D01*
X116513842Y-33698571D01*
X116656700Y-33627142D01*
X116728128Y-33555714D01*
X116799557Y-33412857D01*
X116799557Y-33055714D01*
X116728128Y-32912857D01*
X116656700Y-32841428D01*
X116513842Y-32770000D01*
X116228128Y-32770000D01*
X116085271Y-32841428D01*
X116013842Y-32912857D01*
X115942414Y-33055714D01*
X111008642Y-32303328D02*
X111080071Y-32231900D01*
X111222928Y-32160471D01*
X111580071Y-32160471D01*
X111722928Y-32231900D01*
X111794357Y-32303328D01*
X111865785Y-32446185D01*
X111865785Y-32589042D01*
X111794357Y-32803328D01*
X110937214Y-33660471D01*
X111865785Y-33660471D01*
X113222928Y-32160471D02*
X112508642Y-32160471D01*
X112437214Y-32874757D01*
X112508642Y-32803328D01*
X112651500Y-32731900D01*
X113008642Y-32731900D01*
X113151500Y-32803328D01*
X113222928Y-32874757D01*
X113294357Y-33017614D01*
X113294357Y-33374757D01*
X113222928Y-33517614D01*
X113151500Y-33589042D01*
X113008642Y-33660471D01*
X112651500Y-33660471D01*
X112508642Y-33589042D01*
X112437214Y-33517614D01*
X62984328Y-36042457D02*
X62912900Y-35971028D01*
X62841471Y-35828171D01*
X62841471Y-35471028D01*
X62912900Y-35328171D01*
X62984328Y-35256742D01*
X63127185Y-35185314D01*
X63270042Y-35185314D01*
X63484328Y-35256742D01*
X64341471Y-36113885D01*
X64341471Y-35185314D01*
X63341471Y-33899600D02*
X64341471Y-33899600D01*
X62770042Y-34256742D02*
X63841471Y-34613885D01*
X63841471Y-33685314D01*
X62984328Y-39700057D02*
X62912900Y-39628628D01*
X62841471Y-39485771D01*
X62841471Y-39128628D01*
X62912900Y-38985771D01*
X62984328Y-38914342D01*
X63127185Y-38842914D01*
X63270042Y-38842914D01*
X63484328Y-38914342D01*
X64341471Y-39771485D01*
X64341471Y-38842914D01*
X62841471Y-38342914D02*
X62841471Y-37414342D01*
X63412900Y-37914342D01*
X63412900Y-37700057D01*
X63484328Y-37557200D01*
X63555757Y-37485771D01*
X63698614Y-37414342D01*
X64055757Y-37414342D01*
X64198614Y-37485771D01*
X64270042Y-37557200D01*
X64341471Y-37700057D01*
X64341471Y-38128628D01*
X64270042Y-38271485D01*
X64198614Y-38342914D01*
X63136728Y-43281457D02*
X63065300Y-43210028D01*
X62993871Y-43067171D01*
X62993871Y-42710028D01*
X63065300Y-42567171D01*
X63136728Y-42495742D01*
X63279585Y-42424314D01*
X63422442Y-42424314D01*
X63636728Y-42495742D01*
X64493871Y-43352885D01*
X64493871Y-42424314D01*
X63136728Y-41852885D02*
X63065300Y-41781457D01*
X62993871Y-41638600D01*
X62993871Y-41281457D01*
X63065300Y-41138600D01*
X63136728Y-41067171D01*
X63279585Y-40995742D01*
X63422442Y-40995742D01*
X63636728Y-41067171D01*
X64493871Y-41924314D01*
X64493871Y-40995742D01*
X63174828Y-50329957D02*
X63103400Y-50258528D01*
X63031971Y-50115671D01*
X63031971Y-49758528D01*
X63103400Y-49615671D01*
X63174828Y-49544242D01*
X63317685Y-49472814D01*
X63460542Y-49472814D01*
X63674828Y-49544242D01*
X64531971Y-50401385D01*
X64531971Y-49472814D01*
X64531971Y-48044242D02*
X64531971Y-48901385D01*
X64531971Y-48472814D02*
X63031971Y-48472814D01*
X63246257Y-48615671D01*
X63389114Y-48758528D01*
X63460542Y-48901385D01*
X63251028Y-53797057D02*
X63179600Y-53725628D01*
X63108171Y-53582771D01*
X63108171Y-53225628D01*
X63179600Y-53082771D01*
X63251028Y-53011342D01*
X63393885Y-52939914D01*
X63536742Y-52939914D01*
X63751028Y-53011342D01*
X64608171Y-53868485D01*
X64608171Y-52939914D01*
X63108171Y-52011342D02*
X63108171Y-51868485D01*
X63179600Y-51725628D01*
X63251028Y-51654200D01*
X63393885Y-51582771D01*
X63679600Y-51511342D01*
X64036742Y-51511342D01*
X64322457Y-51582771D01*
X64465314Y-51654200D01*
X64536742Y-51725628D01*
X64608171Y-51868485D01*
X64608171Y-52011342D01*
X64536742Y-52154200D01*
X64465314Y-52225628D01*
X64322457Y-52297057D01*
X64036742Y-52368485D01*
X63679600Y-52368485D01*
X63393885Y-52297057D01*
X63251028Y-52225628D01*
X63179600Y-52154200D01*
X63108171Y-52011342D01*
X64646271Y-56445114D02*
X64646271Y-57302257D01*
X64646271Y-56873685D02*
X63146271Y-56873685D01*
X63360557Y-57016542D01*
X63503414Y-57159400D01*
X63574842Y-57302257D01*
X64646271Y-55730828D02*
X64646271Y-55445114D01*
X64574842Y-55302257D01*
X64503414Y-55230828D01*
X64289128Y-55087971D01*
X64003414Y-55016542D01*
X63431985Y-55016542D01*
X63289128Y-55087971D01*
X63217700Y-55159400D01*
X63146271Y-55302257D01*
X63146271Y-55587971D01*
X63217700Y-55730828D01*
X63289128Y-55802257D01*
X63431985Y-55873685D01*
X63789128Y-55873685D01*
X63931985Y-55802257D01*
X64003414Y-55730828D01*
X64074842Y-55587971D01*
X64074842Y-55302257D01*
X64003414Y-55159400D01*
X63931985Y-55087971D01*
X63789128Y-55016542D01*
X64531971Y-63455514D02*
X64531971Y-64312657D01*
X64531971Y-63884085D02*
X63031971Y-63884085D01*
X63246257Y-64026942D01*
X63389114Y-64169800D01*
X63460542Y-64312657D01*
X63674828Y-62598371D02*
X63603400Y-62741228D01*
X63531971Y-62812657D01*
X63389114Y-62884085D01*
X63317685Y-62884085D01*
X63174828Y-62812657D01*
X63103400Y-62741228D01*
X63031971Y-62598371D01*
X63031971Y-62312657D01*
X63103400Y-62169800D01*
X63174828Y-62098371D01*
X63317685Y-62026942D01*
X63389114Y-62026942D01*
X63531971Y-62098371D01*
X63603400Y-62169800D01*
X63674828Y-62312657D01*
X63674828Y-62598371D01*
X63746257Y-62741228D01*
X63817685Y-62812657D01*
X63960542Y-62884085D01*
X64246257Y-62884085D01*
X64389114Y-62812657D01*
X64460542Y-62741228D01*
X64531971Y-62598371D01*
X64531971Y-62312657D01*
X64460542Y-62169800D01*
X64389114Y-62098371D01*
X64246257Y-62026942D01*
X63960542Y-62026942D01*
X63817685Y-62098371D01*
X63746257Y-62169800D01*
X63674828Y-62312657D01*
X64531971Y-66960714D02*
X64531971Y-67817857D01*
X64531971Y-67389285D02*
X63031971Y-67389285D01*
X63246257Y-67532142D01*
X63389114Y-67675000D01*
X63460542Y-67817857D01*
X63031971Y-66460714D02*
X63031971Y-65460714D01*
X64531971Y-66103571D01*
X63560528Y-70170657D02*
X63489100Y-70313514D01*
X63417671Y-70384942D01*
X63274814Y-70456371D01*
X63203385Y-70456371D01*
X63060528Y-70384942D01*
X62989100Y-70313514D01*
X62917671Y-70170657D01*
X62917671Y-69884942D01*
X62989100Y-69742085D01*
X63060528Y-69670657D01*
X63203385Y-69599228D01*
X63274814Y-69599228D01*
X63417671Y-69670657D01*
X63489100Y-69742085D01*
X63560528Y-69884942D01*
X63560528Y-70170657D01*
X63631957Y-70313514D01*
X63703385Y-70384942D01*
X63846242Y-70456371D01*
X64131957Y-70456371D01*
X64274814Y-70384942D01*
X64346242Y-70313514D01*
X64417671Y-70170657D01*
X64417671Y-69884942D01*
X64346242Y-69742085D01*
X64274814Y-69670657D01*
X64131957Y-69599228D01*
X63846242Y-69599228D01*
X63703385Y-69670657D01*
X63631957Y-69742085D01*
X63560528Y-69884942D01*
X62765271Y-77690600D02*
X62765271Y-76690600D01*
X64265271Y-77333457D01*
X62841471Y-80257685D02*
X62841471Y-80543400D01*
X62912900Y-80686257D01*
X62984328Y-80757685D01*
X63198614Y-80900542D01*
X63484328Y-80971971D01*
X64055757Y-80971971D01*
X64198614Y-80900542D01*
X64270042Y-80829114D01*
X64341471Y-80686257D01*
X64341471Y-80400542D01*
X64270042Y-80257685D01*
X64198614Y-80186257D01*
X64055757Y-80114828D01*
X63698614Y-80114828D01*
X63555757Y-80186257D01*
X63484328Y-80257685D01*
X63412900Y-80400542D01*
X63412900Y-80686257D01*
X63484328Y-80829114D01*
X63555757Y-80900542D01*
X63698614Y-80971971D01*
X63425671Y-83742257D02*
X63425671Y-84456542D01*
X64139957Y-84527971D01*
X64068528Y-84456542D01*
X63997100Y-84313685D01*
X63997100Y-83956542D01*
X64068528Y-83813685D01*
X64139957Y-83742257D01*
X64282814Y-83670828D01*
X64639957Y-83670828D01*
X64782814Y-83742257D01*
X64854242Y-83813685D01*
X64925671Y-83956542D01*
X64925671Y-84313685D01*
X64854242Y-84456542D01*
X64782814Y-84527971D01*
X63977214Y-46024742D02*
X63977214Y-45110457D01*
X64434357Y-45567600D02*
X63520071Y-45567600D01*
X63865114Y-60121742D02*
X63865114Y-59207457D01*
X64322257Y-59664600D02*
X63407971Y-59664600D01*
X63865114Y-74142542D02*
X63865114Y-73228257D01*
X64322257Y-73685400D02*
X63407971Y-73685400D01*
X64688414Y-88061742D02*
X64688414Y-87147457D01*
X65145557Y-87604600D02*
X64231271Y-87604600D01*
X70313514Y-87232371D02*
X70313514Y-88232371D01*
X69956371Y-86660942D02*
X69599228Y-87732371D01*
X70527800Y-87732371D01*
X72956800Y-86656171D02*
X73885371Y-86656171D01*
X73385371Y-87227600D01*
X73599657Y-87227600D01*
X73742514Y-87299028D01*
X73813942Y-87370457D01*
X73885371Y-87513314D01*
X73885371Y-87870457D01*
X73813942Y-88013314D01*
X73742514Y-88084742D01*
X73599657Y-88156171D01*
X73171085Y-88156171D01*
X73028228Y-88084742D01*
X72956800Y-88013314D01*
X76419128Y-86875228D02*
X76490557Y-86803800D01*
X76633414Y-86732371D01*
X76990557Y-86732371D01*
X77133414Y-86803800D01*
X77204842Y-86875228D01*
X77276271Y-87018085D01*
X77276271Y-87160942D01*
X77204842Y-87375228D01*
X76347700Y-88232371D01*
X77276271Y-88232371D01*
X111764185Y-89070571D02*
X110907042Y-89070571D01*
X111335614Y-89070571D02*
X111335614Y-87570571D01*
X111192757Y-87784857D01*
X111049900Y-87927714D01*
X110907042Y-87999142D01*
X113049900Y-87570571D02*
X112764185Y-87570571D01*
X112621328Y-87642000D01*
X112549900Y-87713428D01*
X112407042Y-87927714D01*
X112335614Y-88213428D01*
X112335614Y-88784857D01*
X112407042Y-88927714D01*
X112478471Y-88999142D01*
X112621328Y-89070571D01*
X112907042Y-89070571D01*
X113049900Y-88999142D01*
X113121328Y-88927714D01*
X113192757Y-88784857D01*
X113192757Y-88427714D01*
X113121328Y-88284857D01*
X113049900Y-88213428D01*
X112907042Y-88142000D01*
X112621328Y-88142000D01*
X112478471Y-88213428D01*
X112407042Y-88284857D01*
X112335614Y-88427714D01*
X105658571Y-88880071D02*
X104801428Y-88880071D01*
X105230000Y-88880071D02*
X105230000Y-87380071D01*
X105087142Y-87594357D01*
X104944285Y-87737214D01*
X104801428Y-87808642D01*
D12*
X56162857Y-82572857D02*
X56162857Y-81372857D01*
X56448571Y-81372857D01*
X56620000Y-81430000D01*
X56734285Y-81544285D01*
X56791428Y-81658571D01*
X56848571Y-81887142D01*
X56848571Y-82058571D01*
X56791428Y-82287142D01*
X56734285Y-82401428D01*
X56620000Y-82515714D01*
X56448571Y-82572857D01*
X56162857Y-82572857D01*
X57820000Y-82515714D02*
X57705714Y-82572857D01*
X57477142Y-82572857D01*
X57362857Y-82515714D01*
X57305714Y-82401428D01*
X57305714Y-81944285D01*
X57362857Y-81830000D01*
X57477142Y-81772857D01*
X57705714Y-81772857D01*
X57820000Y-81830000D01*
X57877142Y-81944285D01*
X57877142Y-82058571D01*
X57305714Y-82172857D01*
X58391428Y-82572857D02*
X58391428Y-81372857D01*
X58391428Y-81830000D02*
X58505714Y-81772857D01*
X58734285Y-81772857D01*
X58848571Y-81830000D01*
X58905714Y-81887142D01*
X58962857Y-82001428D01*
X58962857Y-82344285D01*
X58905714Y-82458571D01*
X58848571Y-82515714D01*
X58734285Y-82572857D01*
X58505714Y-82572857D01*
X58391428Y-82515714D01*
X59991428Y-81772857D02*
X59991428Y-82572857D01*
X59477142Y-81772857D02*
X59477142Y-82401428D01*
X59534285Y-82515714D01*
X59648571Y-82572857D01*
X59820000Y-82572857D01*
X59934285Y-82515714D01*
X59991428Y-82458571D01*
X61077142Y-81772857D02*
X61077142Y-82744285D01*
X61020000Y-82858571D01*
X60962857Y-82915714D01*
X60848571Y-82972857D01*
X60677142Y-82972857D01*
X60562857Y-82915714D01*
X61077142Y-82515714D02*
X60962857Y-82572857D01*
X60734285Y-82572857D01*
X60620000Y-82515714D01*
X60562857Y-82458571D01*
X60505714Y-82344285D01*
X60505714Y-82001428D01*
X60562857Y-81887142D01*
X60620000Y-81830000D01*
X60734285Y-81772857D01*
X60962857Y-81772857D01*
X61077142Y-81830000D01*
D13*
X43383609Y-33400000D02*
G75*
G03X43383609Y-33400000I-403609J0D01*
G01*
D12*
X44680000Y-36880000D02*
X44120000Y-36880000D01*
X44680000Y-40510000D02*
X44680000Y-36880000D01*
X44120000Y-40510000D02*
X44680000Y-40510000D01*
X44120000Y-45350000D02*
X44120000Y-40510000D01*
X51160000Y-45350000D02*
X44120000Y-45350000D01*
X51160000Y-31570000D02*
X51160000Y-45350000D01*
X44120000Y-31570000D02*
X51160000Y-31570000D01*
X44120000Y-36910000D02*
X44120000Y-31570000D01*
X124460000Y-24130000D02*
X25400000Y-24130000D01*
X124460000Y-96520000D02*
X124460000Y-24130000D01*
X25400000Y-96520000D02*
X124460000Y-96520000D01*
X25400000Y-24130000D02*
X25400000Y-96520000D01*
D14*
X22108500Y-43967400D02*
X22108500Y-59207400D01*
X22108500Y-59207400D02*
X40142500Y-59207400D01*
X40142500Y-59207400D02*
X40142500Y-43967400D01*
X40142500Y-43967400D02*
X22108500Y-43967400D01*
D10*
X58345000Y-51730000D02*
X58345000Y-44110000D01*
X55805000Y-51730000D02*
X55805000Y-44110000D01*
X55525000Y-54550000D02*
X55525000Y-53000000D01*
X58345000Y-44110000D02*
X55805000Y-44110000D01*
X55805000Y-51730000D02*
X58345000Y-51730000D01*
X58625000Y-53000000D02*
X58625000Y-54550000D01*
X58625000Y-54550000D02*
X55525000Y-54550000D01*
D15*
X42786000Y-88100000D02*
G75*
G03X42786000Y-88100000I-2286000J0D01*
G01*
X84786000Y-32600000D02*
G75*
G03X84786000Y-32600000I-2286000J0D01*
G01*
D16*
X28251900Y-66029900D02*
X30791900Y-66029900D01*
D17*
X30497427Y-63284236D02*
G75*
G03X29521900Y-62931100I-975527J-1170864D01*
G01*
X29521431Y-62932989D02*
G75*
G03X28510980Y-63317180I469J-1522111D01*
G01*
X29521934Y-65977247D02*
G75*
G03X30512500Y-65610800I-34J1522147D01*
G01*
X28546373Y-65625964D02*
G75*
G03X29521900Y-65979100I975527J1170864D01*
G01*
X30409055Y-65694266D02*
G75*
G03X31045900Y-64455100I-887155J1239166D01*
G01*
X31045900Y-64454299D02*
G75*
G03X30436300Y-63235900I-1524000J-801D01*
G01*
X27999694Y-64455542D02*
G75*
G03X28587180Y-65656520I1522206J442D01*
G01*
X28585729Y-63252536D02*
G75*
G03X27997900Y-64455100I936171J-1202564D01*
G01*
X30156900Y-64455100D02*
G75*
G03X29521900Y-63820100I-635000J0D01*
G01*
X30537900Y-64455100D02*
G75*
G03X29521900Y-63439100I-1016000J0D01*
G01*
X28886900Y-64455100D02*
G75*
G03X29521900Y-65090100I635000J0D01*
G01*
X28505900Y-64455100D02*
G75*
G03X29521900Y-65471100I1016000J0D01*
G01*
D16*
X30825326Y-66013980D02*
G75*
G03X31553900Y-64455100I-1303426J1558880D01*
G01*
X31551360Y-64454125D02*
G75*
G03X30476940Y-62664400I-2029460J-975D01*
G01*
X27492514Y-64457652D02*
G75*
G03X28211260Y-66004500I2029386J2552D01*
G01*
X28512049Y-62691801D02*
G75*
G03X27489900Y-64455100I1009851J-1763299D01*
G01*
X30485247Y-62665970D02*
G75*
G03X29521900Y-62423100I-963347J-1789130D01*
G01*
X29521800Y-62424177D02*
G75*
G03X28457640Y-62725360I100J-2030923D01*
G01*
X32751900Y-66029900D02*
X35291900Y-66029900D01*
D17*
X34997427Y-63284236D02*
G75*
G03X34021900Y-62931100I-975527J-1170864D01*
G01*
X34021431Y-62932989D02*
G75*
G03X33010980Y-63317180I469J-1522111D01*
G01*
X34021934Y-65977247D02*
G75*
G03X35012500Y-65610800I-34J1522147D01*
G01*
X33046373Y-65625964D02*
G75*
G03X34021900Y-65979100I975527J1170864D01*
G01*
X34909055Y-65694266D02*
G75*
G03X35545900Y-64455100I-887155J1239166D01*
G01*
X35545900Y-64454299D02*
G75*
G03X34936300Y-63235900I-1524000J-801D01*
G01*
X32499694Y-64455542D02*
G75*
G03X33087180Y-65656520I1522206J442D01*
G01*
X33085729Y-63252536D02*
G75*
G03X32497900Y-64455100I936171J-1202564D01*
G01*
X34656900Y-64455100D02*
G75*
G03X34021900Y-63820100I-635000J0D01*
G01*
X35037900Y-64455100D02*
G75*
G03X34021900Y-63439100I-1016000J0D01*
G01*
X33386900Y-64455100D02*
G75*
G03X34021900Y-65090100I635000J0D01*
G01*
X33005900Y-64455100D02*
G75*
G03X34021900Y-65471100I1016000J0D01*
G01*
D16*
X35325326Y-66013980D02*
G75*
G03X36053900Y-64455100I-1303426J1558880D01*
G01*
X36051360Y-64454125D02*
G75*
G03X34976940Y-62664400I-2029460J-975D01*
G01*
X31992514Y-64457652D02*
G75*
G03X32711260Y-66004500I2029386J2552D01*
G01*
X33012049Y-62691801D02*
G75*
G03X31989900Y-64455100I1009851J-1763299D01*
G01*
X34985247Y-62665970D02*
G75*
G03X34021900Y-62423100I-963347J-1789130D01*
G01*
X34021800Y-62424177D02*
G75*
G03X32957640Y-62725360I100J-2030923D01*
G01*
D10*
X60630000Y-67280000D02*
X60630000Y-62200000D01*
X60630000Y-62200000D02*
X58090000Y-62200000D01*
X58090000Y-62200000D02*
X58090000Y-67280000D01*
X58090000Y-69820000D02*
X58090000Y-67280000D01*
X58090000Y-67280000D02*
X60630000Y-67280000D01*
X58090000Y-69820000D02*
X60630000Y-69820000D01*
X60630000Y-69820000D02*
X60630000Y-67280000D01*
X57260000Y-30400000D02*
X62340000Y-30400000D01*
X62340000Y-30400000D02*
X62340000Y-27860000D01*
X62340000Y-27860000D02*
X57260000Y-27860000D01*
X54720000Y-27860000D02*
X57260000Y-27860000D01*
X57260000Y-27860000D02*
X57260000Y-30400000D01*
X54720000Y-27860000D02*
X54720000Y-30400000D01*
X54720000Y-30400000D02*
X57260000Y-30400000D01*
X57260000Y-34150000D02*
X62340000Y-34150000D01*
X62340000Y-34150000D02*
X62340000Y-31610000D01*
X62340000Y-31610000D02*
X57260000Y-31610000D01*
X54720000Y-31610000D02*
X57260000Y-31610000D01*
X57260000Y-31610000D02*
X57260000Y-34150000D01*
X54720000Y-31610000D02*
X54720000Y-34150000D01*
X54720000Y-34150000D02*
X57260000Y-34150000D01*
D15*
X33170000Y-67630000D02*
X33170000Y-68900000D01*
X33170000Y-68900000D02*
X30630000Y-68900000D01*
X30630000Y-68900000D02*
X30630000Y-67630000D01*
X34440000Y-67630000D02*
X34440000Y-95570000D01*
X34440000Y-95570000D02*
X29360000Y-95570000D01*
X29360000Y-95570000D02*
X29360000Y-67630000D01*
X29360000Y-67630000D02*
X34440000Y-67630000D01*
X45844000Y-91681000D02*
X45844000Y-88252000D01*
X55496000Y-91681000D02*
X55496000Y-88252000D01*
X45336000Y-92824000D02*
X56004000Y-92824000D01*
X48892000Y-91808000D02*
X48892000Y-93078000D01*
X52448000Y-91808000D02*
X52448000Y-93078000D01*
X56004000Y-91681000D02*
X45336000Y-91681000D01*
X45336000Y-88252000D02*
X56004000Y-88252000D01*
X56004000Y-93078000D02*
X56004000Y-88252000D01*
X45336000Y-93078000D02*
X45336000Y-88252000D01*
X45336000Y-93078000D02*
X56004000Y-93078000D01*
D14*
X22126000Y-25780000D02*
X22126000Y-41020000D01*
X22126000Y-41020000D02*
X40160000Y-41020000D01*
X40160000Y-41020000D02*
X40160000Y-25780000D01*
X40160000Y-25780000D02*
X22126000Y-25780000D01*
D10*
X50130000Y-32170000D02*
X50130000Y-44870000D01*
X50130000Y-44870000D02*
X45050000Y-44870000D01*
X45050000Y-44870000D02*
X45050000Y-34710000D01*
X50130000Y-32170000D02*
X47590000Y-32170000D01*
X45050000Y-32170000D02*
X45050000Y-34710000D01*
X47590000Y-32170000D02*
X47590000Y-34710000D01*
X47590000Y-34710000D02*
X45050000Y-34710000D01*
X45050000Y-32170000D02*
X47590000Y-32170000D01*
X58680000Y-78450000D02*
X58680000Y-80990000D01*
X56140000Y-78450000D02*
X56140000Y-80990000D01*
X56140000Y-80990000D02*
X58680000Y-80990000D01*
X58680000Y-80990000D02*
X61220000Y-80990000D01*
X61220000Y-80990000D02*
X61220000Y-78450000D01*
X61220000Y-78450000D02*
X56140000Y-78450000D01*
D18*
X40514428Y-45377100D02*
X41603000Y-45377100D01*
X41820714Y-45449671D01*
X41965857Y-45594814D01*
X42038428Y-45812528D01*
X42038428Y-45957671D01*
X42038428Y-43853100D02*
X42038428Y-44723957D01*
X42038428Y-44288528D02*
X40514428Y-44288528D01*
X40732142Y-44433671D01*
X40877285Y-44578814D01*
X40949857Y-44723957D01*
D19*
X42736724Y-56840179D02*
X42260172Y-57173765D01*
X42736724Y-57412041D02*
X41735964Y-57412041D01*
X41735964Y-57030800D01*
X41783620Y-56935489D01*
X41831275Y-56887834D01*
X41926585Y-56840179D01*
X42069551Y-56840179D01*
X42164861Y-56887834D01*
X42212517Y-56935489D01*
X42260172Y-57030800D01*
X42260172Y-57412041D01*
X41735964Y-56125350D02*
X42450793Y-56125350D01*
X42593759Y-56173005D01*
X42689069Y-56268316D01*
X42736724Y-56411281D01*
X42736724Y-56506592D01*
X42736724Y-55648798D02*
X41735964Y-55648798D01*
X41735964Y-55410521D01*
X41783620Y-55267556D01*
X41878930Y-55172245D01*
X41974240Y-55124590D01*
X42164861Y-55076935D01*
X42307827Y-55076935D01*
X42498448Y-55124590D01*
X42593759Y-55172245D01*
X42689069Y-55267556D01*
X42736724Y-55410521D01*
X42736724Y-55648798D01*
X42736724Y-54648038D02*
X41735964Y-54648038D01*
X42450793Y-54314451D01*
X41735964Y-53980864D01*
X42736724Y-53980864D01*
X41735964Y-53599622D02*
X42736724Y-52932449D01*
X41735964Y-52932449D02*
X42736724Y-53599622D01*
X42736724Y-52551207D02*
X42069551Y-52551207D01*
X41735964Y-52551207D02*
X41783620Y-52598862D01*
X41831275Y-52551207D01*
X41783620Y-52503552D01*
X41735964Y-52551207D01*
X41831275Y-52551207D01*
X42069551Y-52074655D02*
X42736724Y-52074655D01*
X42164861Y-52074655D02*
X42117206Y-52027000D01*
X42069551Y-51931689D01*
X42069551Y-51788723D01*
X42117206Y-51693413D01*
X42212517Y-51645758D01*
X42736724Y-51645758D01*
D10*
X55806514Y-43505380D02*
X55806514Y-42505380D01*
X56187466Y-42505380D01*
X56282704Y-42553000D01*
X56330323Y-42600619D01*
X56377942Y-42695857D01*
X56377942Y-42838714D01*
X56330323Y-42933952D01*
X56282704Y-42981571D01*
X56187466Y-43029190D01*
X55806514Y-43029190D01*
X57330323Y-43505380D02*
X56758895Y-43505380D01*
X57044609Y-43505380D02*
X57044609Y-42505380D01*
X56949371Y-42648238D01*
X56854133Y-42743476D01*
X56758895Y-42791095D01*
X58187466Y-42505380D02*
X57996990Y-42505380D01*
X57901752Y-42553000D01*
X57854133Y-42600619D01*
X57758895Y-42743476D01*
X57711276Y-42933952D01*
X57711276Y-43314904D01*
X57758895Y-43410142D01*
X57806514Y-43457761D01*
X57901752Y-43505380D01*
X58092228Y-43505380D01*
X58187466Y-43457761D01*
X58235085Y-43410142D01*
X58282704Y-43314904D01*
X58282704Y-43076809D01*
X58235085Y-42981571D01*
X58187466Y-42933952D01*
X58092228Y-42886333D01*
X57901752Y-42886333D01*
X57806514Y-42933952D01*
X57758895Y-42981571D01*
X57711276Y-43076809D01*
D12*
X54916014Y-55248257D02*
X54916014Y-56219685D01*
X54973157Y-56333971D01*
X55030300Y-56391114D01*
X55144585Y-56448257D01*
X55373157Y-56448257D01*
X55487442Y-56391114D01*
X55544585Y-56333971D01*
X55601728Y-56219685D01*
X55601728Y-55248257D01*
X56116014Y-56105400D02*
X56687442Y-56105400D01*
X56001728Y-56448257D02*
X56401728Y-55248257D01*
X56801728Y-56448257D01*
X57887442Y-56448257D02*
X57487442Y-55876828D01*
X57201728Y-56448257D02*
X57201728Y-55248257D01*
X57658871Y-55248257D01*
X57773157Y-55305400D01*
X57830300Y-55362542D01*
X57887442Y-55476828D01*
X57887442Y-55648257D01*
X57830300Y-55762542D01*
X57773157Y-55819685D01*
X57658871Y-55876828D01*
X57201728Y-55876828D01*
X58230300Y-55248257D02*
X58916014Y-55248257D01*
X58573157Y-56448257D02*
X58573157Y-55248257D01*
D20*
X30326614Y-67883528D02*
X29564614Y-67883528D01*
X29564614Y-67702100D01*
X29600900Y-67593242D01*
X29673471Y-67520671D01*
X29746042Y-67484385D01*
X29891185Y-67448100D01*
X30000042Y-67448100D01*
X30145185Y-67484385D01*
X30217757Y-67520671D01*
X30290328Y-67593242D01*
X30326614Y-67702100D01*
X30326614Y-67883528D01*
X30326614Y-66722385D02*
X30326614Y-67157814D01*
X30326614Y-66940100D02*
X29564614Y-66940100D01*
X29673471Y-67012671D01*
X29746042Y-67085242D01*
X29782328Y-67157814D01*
X27958614Y-68503100D02*
X28575471Y-68503100D01*
X28648042Y-68539385D01*
X28684328Y-68575671D01*
X28720614Y-68648242D01*
X28720614Y-68757100D01*
X28684328Y-68829671D01*
X28430328Y-68503100D02*
X28466614Y-68575671D01*
X28466614Y-68720814D01*
X28430328Y-68793385D01*
X28394042Y-68829671D01*
X28321471Y-68865957D01*
X28103757Y-68865957D01*
X28031185Y-68829671D01*
X27994900Y-68793385D01*
X27958614Y-68720814D01*
X27958614Y-68575671D01*
X27994900Y-68503100D01*
X28466614Y-68140242D02*
X27958614Y-68140242D01*
X28103757Y-68140242D02*
X28031185Y-68103957D01*
X27994900Y-68067671D01*
X27958614Y-67995100D01*
X27958614Y-67922528D01*
X27958614Y-67341957D02*
X28466614Y-67341957D01*
X27958614Y-67668528D02*
X28357757Y-67668528D01*
X28430328Y-67632242D01*
X28466614Y-67559671D01*
X28466614Y-67450814D01*
X28430328Y-67378242D01*
X28394042Y-67341957D01*
X27704614Y-67632242D02*
X27740900Y-67595957D01*
X27777185Y-67632242D01*
X27740900Y-67668528D01*
X27704614Y-67632242D01*
X27777185Y-67632242D01*
X27704614Y-67341957D02*
X27740900Y-67305671D01*
X27777185Y-67341957D01*
X27740900Y-67378242D01*
X27704614Y-67341957D01*
X27777185Y-67341957D01*
X27958614Y-66979100D02*
X28466614Y-66979100D01*
X28031185Y-66979100D02*
X27994900Y-66942814D01*
X27958614Y-66870242D01*
X27958614Y-66761385D01*
X27994900Y-66688814D01*
X28067471Y-66652528D01*
X28466614Y-66652528D01*
X35056614Y-68073528D02*
X34294614Y-68073528D01*
X34294614Y-67892100D01*
X34330900Y-67783242D01*
X34403471Y-67710671D01*
X34476042Y-67674385D01*
X34621185Y-67638100D01*
X34730042Y-67638100D01*
X34875185Y-67674385D01*
X34947757Y-67710671D01*
X35020328Y-67783242D01*
X35056614Y-67892100D01*
X35056614Y-68073528D01*
X34367185Y-67347814D02*
X34330900Y-67311528D01*
X34294614Y-67238957D01*
X34294614Y-67057528D01*
X34330900Y-66984957D01*
X34367185Y-66948671D01*
X34439757Y-66912385D01*
X34512328Y-66912385D01*
X34621185Y-66948671D01*
X35056614Y-67384100D01*
X35056614Y-66912385D01*
X33296614Y-68087957D02*
X32788614Y-68087957D01*
X32933757Y-68087957D02*
X32861185Y-68051671D01*
X32824900Y-68015385D01*
X32788614Y-67942814D01*
X32788614Y-67870242D01*
X33296614Y-67507385D02*
X33260328Y-67579957D01*
X33224042Y-67616242D01*
X33151471Y-67652528D01*
X32933757Y-67652528D01*
X32861185Y-67616242D01*
X32824900Y-67579957D01*
X32788614Y-67507385D01*
X32788614Y-67398528D01*
X32824900Y-67325957D01*
X32861185Y-67289671D01*
X32933757Y-67253385D01*
X33151471Y-67253385D01*
X33224042Y-67289671D01*
X33260328Y-67325957D01*
X33296614Y-67398528D01*
X33296614Y-67507385D01*
X32788614Y-67035671D02*
X32788614Y-66745385D01*
X32534614Y-66926814D02*
X33187757Y-66926814D01*
X33260328Y-66890528D01*
X33296614Y-66817957D01*
X33296614Y-66745385D01*
D19*
X58356719Y-61712323D02*
X58356719Y-60442323D01*
X59082433Y-61712323D02*
X58538147Y-60986609D01*
X59082433Y-60442323D02*
X58356719Y-61168038D01*
X60291957Y-61712323D02*
X59566242Y-61712323D01*
X59929100Y-61712323D02*
X59929100Y-60442323D01*
X59808147Y-60623752D01*
X59687195Y-60744704D01*
X59566242Y-60805180D01*
X54621104Y-71796123D02*
X54621104Y-70526123D01*
X55951580Y-71796123D02*
X55528247Y-71191361D01*
X55225866Y-71796123D02*
X55225866Y-70526123D01*
X55709676Y-70526123D01*
X55830628Y-70586600D01*
X55891104Y-70647076D01*
X55951580Y-70768028D01*
X55951580Y-70949457D01*
X55891104Y-71070409D01*
X55830628Y-71130885D01*
X55709676Y-71191361D01*
X55225866Y-71191361D01*
X56193485Y-71917076D02*
X57161104Y-71917076D01*
X58189199Y-71796123D02*
X57765866Y-71191361D01*
X57463485Y-71796123D02*
X57463485Y-70526123D01*
X57947295Y-70526123D01*
X58068247Y-70586600D01*
X58128723Y-70647076D01*
X58189199Y-70768028D01*
X58189199Y-70949457D01*
X58128723Y-71070409D01*
X58068247Y-71130885D01*
X57947295Y-71191361D01*
X57463485Y-71191361D01*
X59459199Y-71675171D02*
X59398723Y-71735647D01*
X59217295Y-71796123D01*
X59096342Y-71796123D01*
X58914914Y-71735647D01*
X58793961Y-71614695D01*
X58733485Y-71493742D01*
X58673009Y-71251838D01*
X58673009Y-71070409D01*
X58733485Y-70828504D01*
X58793961Y-70707552D01*
X58914914Y-70586600D01*
X59096342Y-70526123D01*
X59217295Y-70526123D01*
X59398723Y-70586600D01*
X59459199Y-70647076D01*
X59822057Y-70526123D02*
X60245390Y-71796123D01*
X60668723Y-70526123D01*
D21*
X33889666Y-74234000D02*
X33974333Y-74070714D01*
X33974333Y-73798571D01*
X33889666Y-73689714D01*
X33805000Y-73635285D01*
X33635666Y-73580857D01*
X33466333Y-73580857D01*
X33297000Y-73635285D01*
X33212333Y-73689714D01*
X33127666Y-73798571D01*
X33043000Y-74016285D01*
X32958333Y-74125142D01*
X32873666Y-74179571D01*
X32704333Y-74234000D01*
X32535000Y-74234000D01*
X32365666Y-74179571D01*
X32281000Y-74125142D01*
X32196333Y-74016285D01*
X32196333Y-73744142D01*
X32281000Y-73580857D01*
X32196333Y-73199857D02*
X33974333Y-72927714D01*
X32704333Y-72710000D01*
X33974333Y-72492285D01*
X32196333Y-72220142D01*
X33974333Y-71186000D02*
X33974333Y-71839142D01*
X33974333Y-71512571D02*
X32196333Y-71512571D01*
X32450333Y-71621428D01*
X32619666Y-71730285D01*
X32704333Y-71839142D01*
D18*
D21*
X31688333Y-88367285D02*
X29910333Y-88367285D01*
X29910333Y-88095142D01*
X29995000Y-87931857D01*
X30164333Y-87823000D01*
X30333666Y-87768571D01*
X30672333Y-87714142D01*
X30926333Y-87714142D01*
X31265000Y-87768571D01*
X31434333Y-87823000D01*
X31603666Y-87931857D01*
X31688333Y-88095142D01*
X31688333Y-88367285D01*
X31688333Y-87224285D02*
X29910333Y-87224285D01*
X31688333Y-86680000D02*
X29910333Y-86680000D01*
X29910333Y-86244571D01*
X29995000Y-86135714D01*
X30079666Y-86081285D01*
X30249000Y-86026857D01*
X30503000Y-86026857D01*
X30672333Y-86081285D01*
X30757000Y-86135714D01*
X30841666Y-86244571D01*
X30841666Y-86680000D01*
X31603666Y-85591428D02*
X31688333Y-85428142D01*
X31688333Y-85156000D01*
X31603666Y-85047142D01*
X31519000Y-84992714D01*
X31349666Y-84938285D01*
X31180333Y-84938285D01*
X31011000Y-84992714D01*
X30926333Y-85047142D01*
X30841666Y-85156000D01*
X30757000Y-85373714D01*
X30672333Y-85482571D01*
X30587666Y-85537000D01*
X30418333Y-85591428D01*
X30249000Y-85591428D01*
X30079666Y-85537000D01*
X29995000Y-85482571D01*
X29910333Y-85373714D01*
X29910333Y-85101571D01*
X29995000Y-84938285D01*
X31857666Y-84720571D02*
X31857666Y-83849714D01*
X31688333Y-82978857D02*
X31688333Y-83632000D01*
X31688333Y-83305428D02*
X29910333Y-83305428D01*
X30164333Y-83414285D01*
X30333666Y-83523142D01*
X30418333Y-83632000D01*
X29910333Y-82271285D02*
X29910333Y-82162428D01*
X29995000Y-82053571D01*
X30079666Y-81999142D01*
X30249000Y-81944714D01*
X30587666Y-81890285D01*
X31011000Y-81890285D01*
X31349666Y-81944714D01*
X31519000Y-81999142D01*
X31603666Y-82053571D01*
X31688333Y-82162428D01*
X31688333Y-82271285D01*
X31603666Y-82380142D01*
X31519000Y-82434571D01*
X31349666Y-82489000D01*
X31011000Y-82543428D01*
X30587666Y-82543428D01*
X30249000Y-82489000D01*
X30079666Y-82434571D01*
X29995000Y-82380142D01*
X29910333Y-82271285D01*
D18*
X45356757Y-93628028D02*
X45356757Y-94861742D01*
X45429328Y-95006885D01*
X45501900Y-95079457D01*
X45647042Y-95152028D01*
X45937328Y-95152028D01*
X46082471Y-95079457D01*
X46155042Y-95006885D01*
X46227614Y-94861742D01*
X46227614Y-93628028D01*
X46880757Y-93773171D02*
X46953328Y-93700600D01*
X47098471Y-93628028D01*
X47461328Y-93628028D01*
X47606471Y-93700600D01*
X47679042Y-93773171D01*
X47751614Y-93918314D01*
X47751614Y-94063457D01*
X47679042Y-94281171D01*
X46808185Y-95152028D01*
X47751614Y-95152028D01*
X50678057Y-93678828D02*
X51694057Y-93678828D01*
X51040914Y-95202828D01*
X52492342Y-94331971D02*
X52347200Y-94259400D01*
X52274628Y-94186828D01*
X52202057Y-94041685D01*
X52202057Y-93969114D01*
X52274628Y-93823971D01*
X52347200Y-93751400D01*
X52492342Y-93678828D01*
X52782628Y-93678828D01*
X52927771Y-93751400D01*
X53000342Y-93823971D01*
X53072914Y-93969114D01*
X53072914Y-94041685D01*
X53000342Y-94186828D01*
X52927771Y-94259400D01*
X52782628Y-94331971D01*
X52492342Y-94331971D01*
X52347200Y-94404542D01*
X52274628Y-94477114D01*
X52202057Y-94622257D01*
X52202057Y-94912542D01*
X52274628Y-95057685D01*
X52347200Y-95130257D01*
X52492342Y-95202828D01*
X52782628Y-95202828D01*
X52927771Y-95130257D01*
X53000342Y-95057685D01*
X53072914Y-94912542D01*
X53072914Y-94622257D01*
X53000342Y-94477114D01*
X52927771Y-94404542D01*
X52782628Y-94331971D01*
X54016342Y-93678828D02*
X54161485Y-93678828D01*
X54306628Y-93751400D01*
X54379200Y-93823971D01*
X54451771Y-93969114D01*
X54524342Y-94259400D01*
X54524342Y-94622257D01*
X54451771Y-94912542D01*
X54379200Y-95057685D01*
X54306628Y-95130257D01*
X54161485Y-95202828D01*
X54016342Y-95202828D01*
X53871200Y-95130257D01*
X53798628Y-95057685D01*
X53726057Y-94912542D01*
X53653485Y-94622257D01*
X53653485Y-94259400D01*
X53726057Y-93969114D01*
X53798628Y-93823971D01*
X53871200Y-93751400D01*
X54016342Y-93678828D01*
X55903200Y-93678828D02*
X55177485Y-93678828D01*
X55104914Y-94404542D01*
X55177485Y-94331971D01*
X55322628Y-94259400D01*
X55685485Y-94259400D01*
X55830628Y-94331971D01*
X55903200Y-94404542D01*
X55975771Y-94549685D01*
X55975771Y-94912542D01*
X55903200Y-95057685D01*
X55830628Y-95130257D01*
X55685485Y-95202828D01*
X55322628Y-95202828D01*
X55177485Y-95130257D01*
X55104914Y-95057685D01*
X40577928Y-40970200D02*
X41666500Y-40970200D01*
X41884214Y-41042771D01*
X42029357Y-41187914D01*
X42101928Y-41405628D01*
X42101928Y-41550771D01*
X40723071Y-40317057D02*
X40650500Y-40244485D01*
X40577928Y-40099342D01*
X40577928Y-39736485D01*
X40650500Y-39591342D01*
X40723071Y-39518771D01*
X40868214Y-39446200D01*
X41013357Y-39446200D01*
X41231071Y-39518771D01*
X42101928Y-40389628D01*
X42101928Y-39446200D01*
D19*
X42246224Y-31589859D02*
X41769672Y-31923445D01*
X42246224Y-32161721D02*
X41245464Y-32161721D01*
X41245464Y-31780480D01*
X41293120Y-31685169D01*
X41340775Y-31637514D01*
X41436085Y-31589859D01*
X41579051Y-31589859D01*
X41674361Y-31637514D01*
X41722017Y-31685169D01*
X41769672Y-31780480D01*
X41769672Y-32161721D01*
X41245464Y-30875030D02*
X41960293Y-30875030D01*
X42103259Y-30922685D01*
X42198569Y-31017996D01*
X42246224Y-31160961D01*
X42246224Y-31256272D01*
X42246224Y-30398478D02*
X41245464Y-30398478D01*
X41245464Y-30160201D01*
X41293120Y-30017236D01*
X41388430Y-29921925D01*
X41483740Y-29874270D01*
X41674361Y-29826615D01*
X41817327Y-29826615D01*
X42007948Y-29874270D01*
X42103259Y-29921925D01*
X42198569Y-30017236D01*
X42246224Y-30160201D01*
X42246224Y-30398478D01*
X42246224Y-29397718D02*
X41245464Y-29397718D01*
X41960293Y-29064131D01*
X41245464Y-28730544D01*
X42246224Y-28730544D01*
X41245464Y-28349302D02*
X42246224Y-27682129D01*
X41245464Y-27682129D02*
X42246224Y-28349302D01*
X42246224Y-27157921D02*
X42198569Y-27253232D01*
X42150914Y-27300887D01*
X42055603Y-27348542D01*
X41769672Y-27348542D01*
X41674361Y-27300887D01*
X41626706Y-27253232D01*
X41579051Y-27157921D01*
X41579051Y-27014956D01*
X41626706Y-26919645D01*
X41674361Y-26871990D01*
X41769672Y-26824335D01*
X42055603Y-26824335D01*
X42150914Y-26871990D01*
X42198569Y-26919645D01*
X42246224Y-27014956D01*
X42246224Y-27157921D01*
X41579051Y-25966540D02*
X42246224Y-25966540D01*
X41579051Y-26395438D02*
X42103259Y-26395438D01*
X42198569Y-26347782D01*
X42246224Y-26252472D01*
X42246224Y-26109506D01*
X42198569Y-26014196D01*
X42150914Y-25966540D01*
X41579051Y-25632954D02*
X41579051Y-25251712D01*
X41245464Y-25489988D02*
X42103259Y-25489988D01*
X42198569Y-25442333D01*
X42246224Y-25347022D01*
X42246224Y-25251712D01*
D12*
X46438671Y-30718057D02*
X46438671Y-29518057D01*
X46952957Y-30660914D02*
X47124385Y-30718057D01*
X47410100Y-30718057D01*
X47524385Y-30660914D01*
X47581528Y-30603771D01*
X47638671Y-30489485D01*
X47638671Y-30375200D01*
X47581528Y-30260914D01*
X47524385Y-30203771D01*
X47410100Y-30146628D01*
X47181528Y-30089485D01*
X47067242Y-30032342D01*
X47010100Y-29975200D01*
X46952957Y-29860914D01*
X46952957Y-29746628D01*
X47010100Y-29632342D01*
X47067242Y-29575200D01*
X47181528Y-29518057D01*
X47467242Y-29518057D01*
X47638671Y-29575200D01*
X48152957Y-30718057D02*
X48152957Y-29518057D01*
X48610100Y-29518057D01*
X48724385Y-29575200D01*
X48781528Y-29632342D01*
X48838671Y-29746628D01*
X48838671Y-29918057D01*
X48781528Y-30032342D01*
X48724385Y-30089485D01*
X48610100Y-30146628D01*
X48152957Y-30146628D01*
D10*
X53152214Y-80195680D02*
X53152214Y-79195680D01*
X53533166Y-79195680D01*
X53628404Y-79243300D01*
X53676023Y-79290919D01*
X53723642Y-79386157D01*
X53723642Y-79529014D01*
X53676023Y-79624252D01*
X53628404Y-79671871D01*
X53533166Y-79719490D01*
X53152214Y-79719490D01*
X54676023Y-80195680D02*
X54104595Y-80195680D01*
X54390309Y-80195680D02*
X54390309Y-79195680D01*
X54295071Y-79338538D01*
X54199833Y-79433776D01*
X54104595Y-79481395D01*
X55580785Y-79195680D02*
X55104595Y-79195680D01*
X55056976Y-79671871D01*
X55104595Y-79624252D01*
X55199833Y-79576633D01*
X55437928Y-79576633D01*
X55533166Y-79624252D01*
X55580785Y-79671871D01*
X55628404Y-79767109D01*
X55628404Y-80005204D01*
X55580785Y-80100442D01*
X55533166Y-80148061D01*
X55437928Y-80195680D01*
X55199833Y-80195680D01*
X55104595Y-80148061D01*
X55056976Y-80100442D01*
X57236657Y-93916771D02*
X57236657Y-92416771D01*
X57808085Y-92416771D01*
X57950942Y-92488200D01*
X58022371Y-92559628D01*
X58093800Y-92702485D01*
X58093800Y-92916771D01*
X58022371Y-93059628D01*
X57950942Y-93131057D01*
X57808085Y-93202485D01*
X57236657Y-93202485D01*
X59522371Y-93916771D02*
X58665228Y-93916771D01*
X59093800Y-93916771D02*
X59093800Y-92416771D01*
X58950942Y-92631057D01*
X58808085Y-92773914D01*
X58665228Y-92845342D01*
D12*
X52944471Y-84731157D02*
X52944471Y-83531157D01*
X53401614Y-83531157D01*
X53515900Y-83588300D01*
X53573042Y-83645442D01*
X53630185Y-83759728D01*
X53630185Y-83931157D01*
X53573042Y-84045442D01*
X53515900Y-84102585D01*
X53401614Y-84159728D01*
X52944471Y-84159728D01*
X54030185Y-83531157D02*
X54315900Y-84731157D01*
X54544471Y-83874014D01*
X54773042Y-84731157D01*
X55058757Y-83531157D01*
X56201614Y-84731157D02*
X55801614Y-84159728D01*
X55515900Y-84731157D02*
X55515900Y-83531157D01*
X55973042Y-83531157D01*
X56087328Y-83588300D01*
X56144471Y-83645442D01*
X56201614Y-83759728D01*
X56201614Y-83931157D01*
X56144471Y-84045442D01*
X56087328Y-84102585D01*
X55973042Y-84159728D01*
X55515900Y-84159728D01*
X56430185Y-84845442D02*
X57344471Y-84845442D01*
X57630185Y-84731157D02*
X57630185Y-83531157D01*
X58201614Y-84731157D02*
X58201614Y-83531157D01*
X58887328Y-84731157D01*
X58887328Y-83531157D01*
M02*
