G04 #@! TF.FileFunction,Copper,L1,Top,Signal*
%FSLAX46Y46*%
G04 Gerber Fmt 4.6, Leading zero omitted, Abs format (unit mm)*
G04 Created by KiCad (PCBNEW 4.1.0-alpha+201608211231+7083~46~ubuntu14.04.1-product) date Fri Aug 26 11:20:39 2016*
%MOMM*%
%LPD*%
G01*
G04 APERTURE LIST*
%ADD10C,0.150000*%
%ADD11C,0.300000*%
%ADD12C,0.200000*%
%ADD13C,3.649980*%
%ADD14R,1.501140X1.501140*%
%ADD15C,1.501140*%
%ADD16R,2.032000X1.727200*%
%ADD17O,2.032000X1.727200*%
%ADD18C,4.064000*%
%ADD19C,1.676400*%
%ADD20R,1.727200X2.032000*%
%ADD21O,1.727200X2.032000*%
%ADD22R,2.286000X1.574800*%
%ADD23O,2.286000X1.574800*%
%ADD24O,2.032000X2.540000*%
%ADD25R,1.727200X1.727200*%
%ADD26O,1.727200X1.727200*%
%ADD27R,2.032000X2.032000*%
%ADD28O,2.032000X2.032000*%
%ADD29C,1.824000*%
%ADD30R,1.800000X1.800000*%
%ADD31C,2.000000*%
%ADD32C,0.889000*%
%ADD33C,0.254000*%
G04 APERTURE END LIST*
D10*
D11*
X97487619Y-28184047D02*
X97487619Y-28803095D01*
X97054285Y-27503095D02*
X97487619Y-28184047D01*
X97920952Y-27503095D01*
X98911428Y-28803095D02*
X98911428Y-28122142D01*
X98849523Y-27998333D01*
X98725714Y-27936428D01*
X98478095Y-27936428D01*
X98354285Y-27998333D01*
X98911428Y-28741190D02*
X98787619Y-28803095D01*
X98478095Y-28803095D01*
X98354285Y-28741190D01*
X98292380Y-28617380D01*
X98292380Y-28493571D01*
X98354285Y-28369761D01*
X98478095Y-28307857D01*
X98787619Y-28307857D01*
X98911428Y-28245952D01*
X100149523Y-28803095D02*
X99530476Y-28803095D01*
X99530476Y-27503095D01*
X100582857Y-28803095D02*
X100582857Y-27503095D01*
X100892380Y-27503095D01*
X101078095Y-27565000D01*
X101201904Y-27688809D01*
X101263809Y-27812619D01*
X101325714Y-28060238D01*
X101325714Y-28245952D01*
X101263809Y-28493571D01*
X101201904Y-28617380D01*
X101078095Y-28741190D01*
X100892380Y-28803095D01*
X100582857Y-28803095D01*
X102749523Y-27936428D02*
X103059047Y-28803095D01*
X103368571Y-27936428D01*
X103801904Y-27626904D02*
X103863809Y-27565000D01*
X103987619Y-27503095D01*
X104297142Y-27503095D01*
X104420952Y-27565000D01*
X104482857Y-27626904D01*
X104544761Y-27750714D01*
X104544761Y-27874523D01*
X104482857Y-28060238D01*
X103740000Y-28803095D01*
X104544761Y-28803095D01*
X105101904Y-28679285D02*
X105163809Y-28741190D01*
X105101904Y-28803095D01*
X105040000Y-28741190D01*
X105101904Y-28679285D01*
X105101904Y-28803095D01*
X105968571Y-27503095D02*
X106092380Y-27503095D01*
X106216190Y-27565000D01*
X106278095Y-27626904D01*
X106340000Y-27750714D01*
X106401904Y-27998333D01*
X106401904Y-28307857D01*
X106340000Y-28555476D01*
X106278095Y-28679285D01*
X106216190Y-28741190D01*
X106092380Y-28803095D01*
X105968571Y-28803095D01*
X105844761Y-28741190D01*
X105782857Y-28679285D01*
X105720952Y-28555476D01*
X105659047Y-28307857D01*
X105659047Y-27998333D01*
X105720952Y-27750714D01*
X105782857Y-27626904D01*
X105844761Y-27565000D01*
X105968571Y-27503095D01*
X98973333Y-31548333D02*
X98911428Y-31486428D01*
X98787619Y-31300714D01*
X98725714Y-31176904D01*
X98663809Y-30991190D01*
X98601904Y-30681666D01*
X98601904Y-30434047D01*
X98663809Y-30124523D01*
X98725714Y-29938809D01*
X98787619Y-29815000D01*
X98911428Y-29629285D01*
X98973333Y-29567380D01*
X99344761Y-30186428D02*
X99654285Y-31053095D01*
X99963809Y-30186428D01*
X100644761Y-31053095D02*
X100520952Y-30991190D01*
X100459047Y-30929285D01*
X100397142Y-30805476D01*
X100397142Y-30434047D01*
X100459047Y-30310238D01*
X100520952Y-30248333D01*
X100644761Y-30186428D01*
X100830476Y-30186428D01*
X100954285Y-30248333D01*
X101016190Y-30310238D01*
X101078095Y-30434047D01*
X101078095Y-30805476D01*
X101016190Y-30929285D01*
X100954285Y-30991190D01*
X100830476Y-31053095D01*
X100644761Y-31053095D01*
X101635238Y-31053095D02*
X101635238Y-30186428D01*
X101635238Y-30434047D02*
X101697142Y-30310238D01*
X101759047Y-30248333D01*
X101882857Y-30186428D01*
X102006666Y-30186428D01*
X102440000Y-30186428D02*
X102440000Y-31053095D01*
X102440000Y-30310238D02*
X102501904Y-30248333D01*
X102625714Y-30186428D01*
X102811428Y-30186428D01*
X102935238Y-30248333D01*
X102997142Y-30372142D01*
X102997142Y-31053095D01*
X104111428Y-30991190D02*
X103987619Y-31053095D01*
X103740000Y-31053095D01*
X103616190Y-30991190D01*
X103554285Y-30867380D01*
X103554285Y-30372142D01*
X103616190Y-30248333D01*
X103740000Y-30186428D01*
X103987619Y-30186428D01*
X104111428Y-30248333D01*
X104173333Y-30372142D01*
X104173333Y-30495952D01*
X103554285Y-30619761D01*
X104606666Y-31548333D02*
X104668571Y-31486428D01*
X104792380Y-31300714D01*
X104854285Y-31176904D01*
X104916190Y-30991190D01*
X104978095Y-30681666D01*
X104978095Y-30434047D01*
X104916190Y-30124523D01*
X104854285Y-29938809D01*
X104792380Y-29815000D01*
X104668571Y-29629285D01*
X104606666Y-29567380D01*
D12*
X124460000Y-24130000D02*
X25400000Y-24130000D01*
X124460000Y-96520000D02*
X124460000Y-24130000D01*
X25400000Y-96520000D02*
X124460000Y-96520000D01*
X25400000Y-24130000D02*
X25400000Y-96520000D01*
D13*
X29982500Y-57525920D03*
X29982500Y-45656500D03*
D14*
X36332500Y-47142400D03*
D15*
X38872500Y-48412400D03*
X36332500Y-49682400D03*
X38872500Y-50952400D03*
X36332500Y-52222400D03*
X38872500Y-53492400D03*
X36332500Y-54762400D03*
X38872500Y-56032400D03*
D16*
X57075000Y-53000000D03*
D17*
X57075000Y-50460000D03*
X57075000Y-47920000D03*
X57075000Y-45380000D03*
D18*
X40500000Y-88100000D03*
X82500000Y-32600000D03*
D19*
X29521900Y-62931100D03*
X29521900Y-65471100D03*
X34021900Y-62931100D03*
X34021900Y-65471100D03*
D16*
X59360000Y-68550000D03*
D17*
X59360000Y-66010000D03*
X59360000Y-63470000D03*
D20*
X55990000Y-29130000D03*
D21*
X58530000Y-29130000D03*
X61070000Y-29130000D03*
D20*
X55990000Y-32880000D03*
D21*
X58530000Y-32880000D03*
X61070000Y-32880000D03*
D22*
X28090000Y-70170000D03*
D23*
X28090000Y-72710000D03*
X28090000Y-75250000D03*
X28090000Y-77790000D03*
X28090000Y-80330000D03*
X28090000Y-82870000D03*
X28090000Y-85410000D03*
X28090000Y-87950000D03*
X28090000Y-90490000D03*
X28090000Y-93030000D03*
X35710000Y-93030000D03*
X35710000Y-90490000D03*
X35710000Y-87950000D03*
X35710000Y-85410000D03*
X35710000Y-82870000D03*
X35710000Y-80330000D03*
X35710000Y-77790000D03*
X35710000Y-75250000D03*
X35710000Y-72710000D03*
X35710000Y-70170000D03*
D24*
X50670000Y-90030000D03*
X48130000Y-90030000D03*
X53210000Y-90030000D03*
D13*
X30000000Y-39338520D03*
X30000000Y-27469100D03*
D14*
X36350000Y-28955000D03*
D15*
X38890000Y-30225000D03*
X36350000Y-31495000D03*
X38890000Y-32765000D03*
X36350000Y-34035000D03*
X38890000Y-35305000D03*
X36350000Y-36575000D03*
X38890000Y-37845000D03*
D25*
X46320000Y-33440000D03*
D26*
X48860000Y-33440000D03*
X46320000Y-35980000D03*
X48860000Y-35980000D03*
X46320000Y-38520000D03*
X48860000Y-38520000D03*
X46320000Y-41060000D03*
X48860000Y-41060000D03*
X46320000Y-43600000D03*
X48860000Y-43600000D03*
D27*
X57410000Y-79720000D03*
D28*
X59950000Y-79720000D03*
D29*
X67714000Y-87627000D03*
X67714000Y-84127000D03*
X67714000Y-80627000D03*
X67714000Y-77127000D03*
X67717000Y-45627000D03*
X67717000Y-42127000D03*
X67717000Y-38627000D03*
X67717000Y-35127000D03*
X67714000Y-59627000D03*
X67714000Y-56127000D03*
X67714000Y-52627000D03*
X67714000Y-49127000D03*
X67714000Y-73627000D03*
X67714000Y-70127000D03*
X67714000Y-66627000D03*
X67714000Y-63127000D03*
X101712000Y-91567000D03*
X105212000Y-91567000D03*
X108712000Y-91567000D03*
X112212000Y-91567000D03*
X120016000Y-49000000D03*
X120016000Y-52500000D03*
X120016000Y-56000000D03*
X120016000Y-59500000D03*
X120016000Y-35000000D03*
X120016000Y-38500000D03*
X120016000Y-42000000D03*
X120016000Y-45500000D03*
X108555100Y-29324300D03*
X112055100Y-29324300D03*
X115555100Y-29324300D03*
X119055100Y-29324300D03*
X120016000Y-77000000D03*
X120016000Y-80500000D03*
X120016000Y-84000000D03*
X120016000Y-87500000D03*
X120016000Y-63000000D03*
X120016000Y-66500000D03*
X120016000Y-70000000D03*
X120016000Y-73500000D03*
X80279000Y-91440000D03*
X76779000Y-91440000D03*
X73279000Y-91440000D03*
X69779000Y-91440000D03*
D30*
X58343800Y-86238200D03*
D31*
X58343800Y-89738200D03*
D32*
X42631700Y-31572200D03*
X44536700Y-29730700D03*
X47495800Y-29781500D03*
X51013700Y-29730700D03*
X27848900Y-30556200D03*
X32116100Y-30632400D03*
X32116100Y-33566100D03*
X28115600Y-33413700D03*
X28115600Y-36118800D03*
X32230400Y-36042600D03*
X32801900Y-42595800D03*
X28572800Y-52654200D03*
X28649000Y-49568100D03*
X32763800Y-49453800D03*
X32725700Y-51968400D03*
X32954300Y-54902100D03*
X35888000Y-40805100D03*
X36078500Y-43091100D03*
X36307100Y-44881800D03*
X38783600Y-45186600D03*
X38707400Y-43319700D03*
X38745500Y-41071800D03*
X38897900Y-58445400D03*
X35430800Y-58331100D03*
X35468900Y-56578500D03*
X65796500Y-90538300D03*
X63383500Y-90551000D03*
X61262600Y-90589100D03*
X61262600Y-88328500D03*
X63358100Y-88341200D03*
X63370800Y-86436200D03*
X61326100Y-86436200D03*
X96901000Y-44450000D03*
X96901000Y-41402000D03*
X96901000Y-37592000D03*
X96774000Y-33401000D03*
X111506000Y-34036000D03*
X111633000Y-40513000D03*
X111760000Y-47117000D03*
X111633000Y-53467000D03*
X98806000Y-61722000D03*
X111633000Y-61722000D03*
X111760000Y-68961000D03*
X111760000Y-75311000D03*
X111760000Y-81788000D03*
X109093000Y-88900000D03*
X76835000Y-42291000D03*
X76962000Y-81788000D03*
X76835000Y-75184000D03*
X76835000Y-68961000D03*
X90424000Y-61976000D03*
X76708000Y-61722000D03*
X76835000Y-54991000D03*
X76835000Y-48514000D03*
X76454000Y-32004000D03*
X73406000Y-32004000D03*
X74422000Y-34544000D03*
X78105000Y-34544000D03*
X91313000Y-82931000D03*
X96012000Y-82804000D03*
X95885000Y-78867000D03*
X91440000Y-78867000D03*
X62040000Y-79330000D03*
X51280000Y-43560000D03*
X52950000Y-30980000D03*
X30660000Y-93090000D03*
X30650000Y-70090000D03*
X47980000Y-67250000D03*
X39540000Y-75240000D03*
X37570000Y-39360000D03*
X36340000Y-38530000D03*
X47670000Y-94320000D03*
X48690000Y-74350000D03*
X60900000Y-61610000D03*
X57200000Y-70980000D03*
X50840000Y-78460000D03*
X51080000Y-35920000D03*
X51210000Y-38530000D03*
X51130000Y-40970000D03*
X30580000Y-72720000D03*
X30530000Y-75230000D03*
X30510000Y-77750000D03*
X30530000Y-80370000D03*
X30430000Y-82850000D03*
X30430000Y-85390000D03*
X30430000Y-87880000D03*
X30530000Y-90500000D03*
X44650000Y-74300000D03*
X51050000Y-56645000D03*
X51840000Y-49555000D03*
X52025000Y-66000000D03*
X58425000Y-43425000D03*
X46675000Y-47575000D03*
X43490000Y-47370000D03*
X43780000Y-45760000D03*
X45730000Y-45850000D03*
X40900000Y-28350000D03*
D33*
X52950000Y-30980000D02*
X52263000Y-30980000D01*
X47445000Y-29730700D02*
X44536700Y-29730700D01*
X47495800Y-29781500D02*
X47445000Y-29730700D01*
X52263000Y-30980000D02*
X51013700Y-29730700D01*
X35468900Y-56578500D02*
X34630700Y-56578500D01*
X27848900Y-30556200D02*
X27848900Y-30594300D01*
X32192300Y-33489900D02*
X32116100Y-30632400D01*
X32116100Y-33566100D02*
X32192300Y-33489900D01*
X28115600Y-36118800D02*
X28115600Y-33413700D01*
X32916200Y-42481500D02*
X32230400Y-36042600D01*
X32801900Y-42595800D02*
X32916200Y-42481500D01*
X28572800Y-49644300D02*
X28572800Y-52654200D01*
X28649000Y-49568100D02*
X28572800Y-49644300D01*
X32763800Y-51930300D02*
X32763800Y-49453800D01*
X32725700Y-51968400D02*
X32763800Y-51930300D01*
X34630700Y-56578500D02*
X32954300Y-54902100D01*
X37570000Y-39360000D02*
X37570000Y-39896300D01*
X36078500Y-44653200D02*
X36078500Y-43091100D01*
X36307100Y-44881800D02*
X36078500Y-44653200D01*
X38783600Y-43395900D02*
X38783600Y-45186600D01*
X38707400Y-43319700D02*
X38783600Y-43395900D01*
X37570000Y-39896300D02*
X38745500Y-41071800D01*
X38872500Y-58420000D02*
X38872500Y-56032400D01*
X38897900Y-58445400D02*
X38872500Y-58420000D01*
X35430800Y-56616600D02*
X35430800Y-58331100D01*
X35468900Y-56578500D02*
X35430800Y-56616600D01*
X65783800Y-90551000D02*
X65745700Y-90551000D01*
X65796500Y-90538300D02*
X65783800Y-90551000D01*
X61300700Y-90551000D02*
X63383500Y-90551000D01*
X61262600Y-90589100D02*
X61300700Y-90551000D01*
X63345400Y-88328500D02*
X61262600Y-88328500D01*
X63358100Y-88341200D02*
X63345400Y-88328500D01*
X61326100Y-86436200D02*
X63370800Y-86436200D01*
X96901000Y-41402000D02*
X96901000Y-44450000D01*
X96901000Y-33528000D02*
X96901000Y-37592000D01*
X96774000Y-33401000D02*
X96901000Y-33528000D01*
X111506000Y-40386000D02*
X111506000Y-34036000D01*
X111633000Y-40513000D02*
X111506000Y-40386000D01*
X111760000Y-53340000D02*
X111760000Y-47117000D01*
X111633000Y-53467000D02*
X111760000Y-53340000D01*
X111633000Y-61722000D02*
X98806000Y-61722000D01*
X111760000Y-75311000D02*
X111760000Y-68961000D01*
X111760000Y-87503000D02*
X111760000Y-81788000D01*
X110490000Y-88773000D02*
X111760000Y-87503000D01*
X109220000Y-88773000D02*
X110490000Y-88773000D01*
X109093000Y-88900000D02*
X109220000Y-88773000D01*
X76835000Y-42291000D02*
X76835000Y-48514000D01*
X76962000Y-75311000D02*
X76962000Y-81788000D01*
X76835000Y-75184000D02*
X76962000Y-75311000D01*
X76835000Y-62357000D02*
X76835000Y-68961000D01*
X77089000Y-62103000D02*
X76835000Y-62357000D01*
X90297000Y-62103000D02*
X77089000Y-62103000D01*
X90424000Y-61976000D02*
X90297000Y-62103000D01*
X76708000Y-55118000D02*
X76708000Y-61722000D01*
X76835000Y-54991000D02*
X76708000Y-55118000D01*
X73406000Y-32004000D02*
X76454000Y-32004000D01*
X78105000Y-34544000D02*
X74422000Y-34544000D01*
X95885000Y-82931000D02*
X91313000Y-82931000D01*
X96012000Y-82804000D02*
X95885000Y-82931000D01*
X91440000Y-78867000D02*
X95885000Y-78867000D01*
X62040000Y-79330000D02*
X62040000Y-79310000D01*
X62040000Y-79310000D02*
X62040000Y-79330000D01*
X51280000Y-43560000D02*
X51280000Y-43570000D01*
X51280000Y-43570000D02*
X51260000Y-43590000D01*
X52950000Y-30950000D02*
X52960000Y-30940000D01*
X52950000Y-30980000D02*
X52950000Y-30950000D01*
X30650000Y-70090000D02*
X30650000Y-70070000D01*
X30650000Y-70070000D02*
X30670000Y-70070000D01*
X47980000Y-67230000D02*
X47960000Y-67210000D01*
X47980000Y-67250000D02*
X47980000Y-67230000D01*
X39540000Y-75240000D02*
X39550000Y-75240000D01*
X37570000Y-39310000D02*
X37550000Y-39290000D01*
X37570000Y-39360000D02*
X37570000Y-39310000D01*
X48700000Y-74350000D02*
X48730000Y-74380000D01*
X48690000Y-74350000D02*
X48700000Y-74350000D01*
X60900000Y-61610000D02*
X60900000Y-61620000D01*
X60900000Y-61620000D02*
X60910000Y-61630000D01*
X57200000Y-70980000D02*
X57180000Y-70960000D01*
X50840000Y-78460000D02*
X50850000Y-78460000D01*
X51200000Y-38520000D02*
X51210000Y-38530000D01*
X48860000Y-38520000D02*
X51200000Y-38520000D01*
X30570000Y-72710000D02*
X30580000Y-72720000D01*
X28090000Y-72710000D02*
X30570000Y-72710000D01*
X51050000Y-56645000D02*
X51290000Y-56405000D01*
X51290000Y-56405000D02*
X51290000Y-50105000D01*
X51290000Y-50105000D02*
X51840000Y-49555000D01*
X59825000Y-58200000D02*
X52025000Y-66000000D01*
X59825000Y-44825000D02*
X59825000Y-58200000D01*
X58425000Y-43425000D02*
X59825000Y-44825000D01*
X46445000Y-47345000D02*
X46675000Y-47575000D01*
X46435000Y-47345000D02*
X46445000Y-47345000D01*
X43490000Y-47370000D02*
X46435000Y-47345000D01*
X45730000Y-45850000D02*
X45640000Y-45760000D01*
X43780000Y-45760000D02*
X45640000Y-45760000D01*
X61070000Y-29130000D02*
X61070000Y-27360000D01*
X42490000Y-26760000D02*
X40900000Y-28350000D01*
X60470000Y-26760000D02*
X42490000Y-26760000D01*
X61070000Y-27360000D02*
X60470000Y-26760000D01*
G36*
X28608348Y-25382406D02*
X27915738Y-26073808D01*
X27540438Y-26977631D01*
X27539584Y-27956275D01*
X27913306Y-28860752D01*
X28604708Y-29553362D01*
X29508531Y-29928662D01*
X30487175Y-29929516D01*
X31391652Y-29555794D01*
X32084262Y-28864392D01*
X32358302Y-28204430D01*
X34951990Y-28204430D01*
X34951990Y-29705570D01*
X35001273Y-29953335D01*
X35141621Y-30163379D01*
X35351665Y-30303727D01*
X35543855Y-30341955D01*
X35176056Y-30709113D01*
X34964671Y-31218184D01*
X34964190Y-31769398D01*
X35174686Y-32278837D01*
X35564113Y-32668944D01*
X35795381Y-32764975D01*
X35566163Y-32859686D01*
X35176056Y-33249113D01*
X34964671Y-33758184D01*
X34964190Y-34309398D01*
X35174686Y-34818837D01*
X35564113Y-35208944D01*
X35779496Y-35298379D01*
X35625735Y-35362069D01*
X35557675Y-35603070D01*
X36350000Y-36395395D01*
X37142325Y-35603070D01*
X37074265Y-35362069D01*
X36908960Y-35303231D01*
X37133837Y-35210314D01*
X37523944Y-34820887D01*
X37735329Y-34311816D01*
X37735810Y-33760602D01*
X37525314Y-33251163D01*
X37135887Y-32861056D01*
X36904619Y-32765025D01*
X37133837Y-32670314D01*
X37523944Y-32280887D01*
X37735329Y-31771816D01*
X37735810Y-31220602D01*
X37525314Y-30711163D01*
X37156650Y-30341855D01*
X37348335Y-30303727D01*
X37504452Y-30199412D01*
X37504190Y-30499398D01*
X37714686Y-31008837D01*
X38104113Y-31398944D01*
X38335381Y-31494975D01*
X38106163Y-31589686D01*
X37716056Y-31979113D01*
X37504671Y-32488184D01*
X37504190Y-33039398D01*
X37714686Y-33548837D01*
X38104113Y-33938944D01*
X38335381Y-34034975D01*
X38106163Y-34129686D01*
X37716056Y-34519113D01*
X37504671Y-35028184D01*
X37504190Y-35579398D01*
X37714686Y-36088837D01*
X38104113Y-36478944D01*
X38319496Y-36568379D01*
X38165735Y-36632069D01*
X38097675Y-36873070D01*
X38890000Y-37665395D01*
X39682325Y-36873070D01*
X39614265Y-36632069D01*
X39448960Y-36573231D01*
X39673837Y-36480314D01*
X40063944Y-36090887D01*
X40275329Y-35581816D01*
X40275810Y-35030602D01*
X40065314Y-34521163D01*
X39675887Y-34131056D01*
X39444619Y-34035025D01*
X39673837Y-33940314D01*
X40063944Y-33550887D01*
X40275329Y-33041816D01*
X40275810Y-32490602D01*
X40065314Y-31981163D01*
X39822266Y-31737690D01*
X54491400Y-31737690D01*
X54491400Y-32594250D01*
X54650150Y-32753000D01*
X55863000Y-32753000D01*
X55863000Y-31387750D01*
X56117000Y-31387750D01*
X56117000Y-32753000D01*
X56137000Y-32753000D01*
X56137000Y-33007000D01*
X56117000Y-33007000D01*
X56117000Y-34372250D01*
X56275750Y-34531000D01*
X56979909Y-34531000D01*
X57213298Y-34434327D01*
X57391927Y-34255699D01*
X57455500Y-34102220D01*
X57470330Y-34124415D01*
X57956511Y-34449271D01*
X58530000Y-34563345D01*
X59103489Y-34449271D01*
X59589670Y-34124415D01*
X59800000Y-33809634D01*
X60010330Y-34124415D01*
X60496511Y-34449271D01*
X61070000Y-34563345D01*
X61643489Y-34449271D01*
X62129670Y-34124415D01*
X62454526Y-33638234D01*
X62555983Y-33128172D01*
X79832538Y-33128172D01*
X80237709Y-34108761D01*
X80987293Y-34859655D01*
X81967173Y-35266536D01*
X83028172Y-35267462D01*
X84008761Y-34862291D01*
X84759655Y-34112707D01*
X85166536Y-33132827D01*
X85167462Y-32071828D01*
X84762291Y-31091239D01*
X84012707Y-30340345D01*
X83032827Y-29933464D01*
X81971828Y-29932538D01*
X80991239Y-30337709D01*
X80240345Y-31087293D01*
X79833464Y-32067173D01*
X79832538Y-33128172D01*
X62555983Y-33128172D01*
X62568600Y-33064745D01*
X62568600Y-32695255D01*
X62454526Y-32121766D01*
X62129670Y-31635585D01*
X61643489Y-31310729D01*
X61070000Y-31196655D01*
X60496511Y-31310729D01*
X60010330Y-31635585D01*
X59800000Y-31950366D01*
X59589670Y-31635585D01*
X59103489Y-31310729D01*
X58530000Y-31196655D01*
X57956511Y-31310729D01*
X57470330Y-31635585D01*
X57455500Y-31657780D01*
X57391927Y-31504301D01*
X57213298Y-31325673D01*
X56979909Y-31229000D01*
X56275750Y-31229000D01*
X56117000Y-31387750D01*
X55863000Y-31387750D01*
X55704250Y-31229000D01*
X55000091Y-31229000D01*
X54766702Y-31325673D01*
X54588073Y-31504301D01*
X54491400Y-31737690D01*
X39822266Y-31737690D01*
X39675887Y-31591056D01*
X39444619Y-31495025D01*
X39673837Y-31400314D01*
X40063944Y-31010887D01*
X40275329Y-30501816D01*
X40275810Y-29950602D01*
X40065314Y-29441163D01*
X39675887Y-29051056D01*
X39166816Y-28839671D01*
X38615602Y-28839190D01*
X38106163Y-29049686D01*
X37748010Y-29407215D01*
X37748010Y-28563784D01*
X39820313Y-28563784D01*
X39984311Y-28960689D01*
X40287714Y-29264622D01*
X40684332Y-29429313D01*
X41113784Y-29429687D01*
X41147514Y-29415750D01*
X54491400Y-29415750D01*
X54491400Y-30272310D01*
X54588073Y-30505699D01*
X54766702Y-30684327D01*
X55000091Y-30781000D01*
X55704250Y-30781000D01*
X55863000Y-30622250D01*
X55863000Y-29257000D01*
X54650150Y-29257000D01*
X54491400Y-29415750D01*
X41147514Y-29415750D01*
X41510689Y-29265689D01*
X41814622Y-28962286D01*
X41979313Y-28565668D01*
X41979502Y-28348128D01*
X42805631Y-27522000D01*
X54896280Y-27522000D01*
X54766702Y-27575673D01*
X54588073Y-27754301D01*
X54491400Y-27987690D01*
X54491400Y-28844250D01*
X54650150Y-29003000D01*
X55863000Y-29003000D01*
X55863000Y-28983000D01*
X56117000Y-28983000D01*
X56117000Y-29003000D01*
X56137000Y-29003000D01*
X56137000Y-29257000D01*
X56117000Y-29257000D01*
X56117000Y-30622250D01*
X56275750Y-30781000D01*
X56979909Y-30781000D01*
X57213298Y-30684327D01*
X57391927Y-30505699D01*
X57455500Y-30352220D01*
X57470330Y-30374415D01*
X57956511Y-30699271D01*
X58530000Y-30813345D01*
X59103489Y-30699271D01*
X59589670Y-30374415D01*
X59800000Y-30059634D01*
X60010330Y-30374415D01*
X60496511Y-30699271D01*
X61070000Y-30813345D01*
X61643489Y-30699271D01*
X62129670Y-30374415D01*
X62454526Y-29888234D01*
X62568600Y-29314745D01*
X62568600Y-28945255D01*
X62454526Y-28371766D01*
X62129670Y-27885585D01*
X61832000Y-27686688D01*
X61832000Y-27360000D01*
X61773996Y-27068395D01*
X61608815Y-26821185D01*
X61356630Y-26569000D01*
X96145476Y-26569000D01*
X96145476Y-32339000D01*
X107434524Y-32339000D01*
X107434524Y-30391468D01*
X107677650Y-30635018D01*
X108246033Y-30871031D01*
X108861467Y-30871568D01*
X109430261Y-30636548D01*
X109865818Y-30201750D01*
X110101831Y-29633367D01*
X110101833Y-29630667D01*
X110507832Y-29630667D01*
X110742852Y-30199461D01*
X111177650Y-30635018D01*
X111746033Y-30871031D01*
X112361467Y-30871568D01*
X112930261Y-30636548D01*
X113365818Y-30201750D01*
X113601831Y-29633367D01*
X113601833Y-29630667D01*
X114007832Y-29630667D01*
X114242852Y-30199461D01*
X114677650Y-30635018D01*
X115246033Y-30871031D01*
X115861467Y-30871568D01*
X116430261Y-30636548D01*
X116865818Y-30201750D01*
X117101831Y-29633367D01*
X117101833Y-29630667D01*
X117507832Y-29630667D01*
X117742852Y-30199461D01*
X118177650Y-30635018D01*
X118746033Y-30871031D01*
X119361467Y-30871568D01*
X119930261Y-30636548D01*
X120365818Y-30201750D01*
X120601831Y-29633367D01*
X120602368Y-29017933D01*
X120367348Y-28449139D01*
X119932550Y-28013582D01*
X119364167Y-27777569D01*
X118748733Y-27777032D01*
X118179939Y-28012052D01*
X117744382Y-28446850D01*
X117508369Y-29015233D01*
X117507832Y-29630667D01*
X117101833Y-29630667D01*
X117102368Y-29017933D01*
X116867348Y-28449139D01*
X116432550Y-28013582D01*
X115864167Y-27777569D01*
X115248733Y-27777032D01*
X114679939Y-28012052D01*
X114244382Y-28446850D01*
X114008369Y-29015233D01*
X114007832Y-29630667D01*
X113601833Y-29630667D01*
X113602368Y-29017933D01*
X113367348Y-28449139D01*
X112932550Y-28013582D01*
X112364167Y-27777569D01*
X111748733Y-27777032D01*
X111179939Y-28012052D01*
X110744382Y-28446850D01*
X110508369Y-29015233D01*
X110507832Y-29630667D01*
X110101833Y-29630667D01*
X110102368Y-29017933D01*
X109867348Y-28449139D01*
X109432550Y-28013582D01*
X108864167Y-27777569D01*
X108248733Y-27777032D01*
X107679939Y-28012052D01*
X107434524Y-28257039D01*
X107434524Y-26569000D01*
X96145476Y-26569000D01*
X61356630Y-26569000D01*
X61008814Y-26221184D01*
X60761605Y-26056004D01*
X60470000Y-25998000D01*
X42490000Y-25998000D01*
X42198396Y-26056003D01*
X41951185Y-26221184D01*
X40901869Y-27270501D01*
X40686216Y-27270313D01*
X40289311Y-27434311D01*
X39985378Y-27737714D01*
X39820687Y-28134332D01*
X39820313Y-28563784D01*
X37748010Y-28563784D01*
X37748010Y-28204430D01*
X37698727Y-27956665D01*
X37558379Y-27746621D01*
X37348335Y-27606273D01*
X37100570Y-27556990D01*
X35599430Y-27556990D01*
X35351665Y-27606273D01*
X35141621Y-27746621D01*
X35001273Y-27956665D01*
X34951990Y-28204430D01*
X32358302Y-28204430D01*
X32459562Y-27960569D01*
X32460416Y-26981925D01*
X32086694Y-26077448D01*
X31395292Y-25384838D01*
X30774349Y-25127000D01*
X123725000Y-25127000D01*
X123725000Y-95785000D01*
X26135000Y-95785000D01*
X26135000Y-93377060D01*
X26354990Y-93377060D01*
X26371673Y-93456996D01*
X26638809Y-93945986D01*
X27072738Y-94295525D01*
X27607400Y-94452400D01*
X27963000Y-94452400D01*
X27963000Y-93157000D01*
X28217000Y-93157000D01*
X28217000Y-94452400D01*
X28572600Y-94452400D01*
X29107262Y-94295525D01*
X29541191Y-93945986D01*
X29808327Y-93456996D01*
X29825010Y-93377060D01*
X29702852Y-93157000D01*
X28217000Y-93157000D01*
X27963000Y-93157000D01*
X26477148Y-93157000D01*
X26354990Y-93377060D01*
X26135000Y-93377060D01*
X26135000Y-90837060D01*
X26354990Y-90837060D01*
X26371673Y-90916996D01*
X26638809Y-91405986D01*
X27072738Y-91755525D01*
X27087990Y-91760000D01*
X27072738Y-91764475D01*
X26638809Y-92114014D01*
X26371673Y-92603004D01*
X26354990Y-92682940D01*
X26477148Y-92903000D01*
X27963000Y-92903000D01*
X27963000Y-90617000D01*
X28217000Y-90617000D01*
X28217000Y-92903000D01*
X29702852Y-92903000D01*
X29825010Y-92682940D01*
X29808327Y-92603004D01*
X29541191Y-92114014D01*
X29107262Y-91764475D01*
X29092010Y-91760000D01*
X29107262Y-91755525D01*
X29541191Y-91405986D01*
X29808327Y-90916996D01*
X29825010Y-90837060D01*
X29702852Y-90617000D01*
X28217000Y-90617000D01*
X27963000Y-90617000D01*
X26477148Y-90617000D01*
X26354990Y-90837060D01*
X26135000Y-90837060D01*
X26135000Y-88297060D01*
X26354990Y-88297060D01*
X26371673Y-88376996D01*
X26638809Y-88865986D01*
X27072738Y-89215525D01*
X27087990Y-89220000D01*
X27072738Y-89224475D01*
X26638809Y-89574014D01*
X26371673Y-90063004D01*
X26354990Y-90142940D01*
X26477148Y-90363000D01*
X27963000Y-90363000D01*
X27963000Y-88077000D01*
X28217000Y-88077000D01*
X28217000Y-90363000D01*
X29702852Y-90363000D01*
X29825010Y-90142940D01*
X29808327Y-90063004D01*
X29541191Y-89574014D01*
X29107262Y-89224475D01*
X29092010Y-89220000D01*
X29107262Y-89215525D01*
X29541191Y-88865986D01*
X29808327Y-88376996D01*
X29825010Y-88297060D01*
X29702852Y-88077000D01*
X28217000Y-88077000D01*
X27963000Y-88077000D01*
X26477148Y-88077000D01*
X26354990Y-88297060D01*
X26135000Y-88297060D01*
X26135000Y-85757060D01*
X26354990Y-85757060D01*
X26371673Y-85836996D01*
X26638809Y-86325986D01*
X27072738Y-86675525D01*
X27087990Y-86680000D01*
X27072738Y-86684475D01*
X26638809Y-87034014D01*
X26371673Y-87523004D01*
X26354990Y-87602940D01*
X26477148Y-87823000D01*
X27963000Y-87823000D01*
X27963000Y-85537000D01*
X28217000Y-85537000D01*
X28217000Y-87823000D01*
X29702852Y-87823000D01*
X29825010Y-87602940D01*
X29808327Y-87523004D01*
X29541191Y-87034014D01*
X29107262Y-86684475D01*
X29092010Y-86680000D01*
X29107262Y-86675525D01*
X29541191Y-86325986D01*
X29808327Y-85836996D01*
X29825010Y-85757060D01*
X29702852Y-85537000D01*
X28217000Y-85537000D01*
X27963000Y-85537000D01*
X26477148Y-85537000D01*
X26354990Y-85757060D01*
X26135000Y-85757060D01*
X26135000Y-83217060D01*
X26354990Y-83217060D01*
X26371673Y-83296996D01*
X26638809Y-83785986D01*
X27072738Y-84135525D01*
X27087990Y-84140000D01*
X27072738Y-84144475D01*
X26638809Y-84494014D01*
X26371673Y-84983004D01*
X26354990Y-85062940D01*
X26477148Y-85283000D01*
X27963000Y-85283000D01*
X27963000Y-82997000D01*
X28217000Y-82997000D01*
X28217000Y-85283000D01*
X29702852Y-85283000D01*
X29825010Y-85062940D01*
X29808327Y-84983004D01*
X29541191Y-84494014D01*
X29107262Y-84144475D01*
X29092010Y-84140000D01*
X29107262Y-84135525D01*
X29541191Y-83785986D01*
X29808327Y-83296996D01*
X29825010Y-83217060D01*
X29702852Y-82997000D01*
X28217000Y-82997000D01*
X27963000Y-82997000D01*
X26477148Y-82997000D01*
X26354990Y-83217060D01*
X26135000Y-83217060D01*
X26135000Y-80677060D01*
X26354990Y-80677060D01*
X26371673Y-80756996D01*
X26638809Y-81245986D01*
X27072738Y-81595525D01*
X27087990Y-81600000D01*
X27072738Y-81604475D01*
X26638809Y-81954014D01*
X26371673Y-82443004D01*
X26354990Y-82522940D01*
X26477148Y-82743000D01*
X27963000Y-82743000D01*
X27963000Y-80457000D01*
X28217000Y-80457000D01*
X28217000Y-82743000D01*
X29702852Y-82743000D01*
X29825010Y-82522940D01*
X29808327Y-82443004D01*
X29541191Y-81954014D01*
X29107262Y-81604475D01*
X29092010Y-81600000D01*
X29107262Y-81595525D01*
X29541191Y-81245986D01*
X29808327Y-80756996D01*
X29825010Y-80677060D01*
X29702852Y-80457000D01*
X28217000Y-80457000D01*
X27963000Y-80457000D01*
X26477148Y-80457000D01*
X26354990Y-80677060D01*
X26135000Y-80677060D01*
X26135000Y-78137060D01*
X26354990Y-78137060D01*
X26371673Y-78216996D01*
X26638809Y-78705986D01*
X27072738Y-79055525D01*
X27087990Y-79060000D01*
X27072738Y-79064475D01*
X26638809Y-79414014D01*
X26371673Y-79903004D01*
X26354990Y-79982940D01*
X26477148Y-80203000D01*
X27963000Y-80203000D01*
X27963000Y-77917000D01*
X28217000Y-77917000D01*
X28217000Y-80203000D01*
X29702852Y-80203000D01*
X29825010Y-79982940D01*
X29808327Y-79903004D01*
X29541191Y-79414014D01*
X29107262Y-79064475D01*
X29092010Y-79060000D01*
X29107262Y-79055525D01*
X29541191Y-78705986D01*
X29808327Y-78216996D01*
X29825010Y-78137060D01*
X29702852Y-77917000D01*
X28217000Y-77917000D01*
X27963000Y-77917000D01*
X26477148Y-77917000D01*
X26354990Y-78137060D01*
X26135000Y-78137060D01*
X26135000Y-75597060D01*
X26354990Y-75597060D01*
X26371673Y-75676996D01*
X26638809Y-76165986D01*
X27072738Y-76515525D01*
X27087990Y-76520000D01*
X27072738Y-76524475D01*
X26638809Y-76874014D01*
X26371673Y-77363004D01*
X26354990Y-77442940D01*
X26477148Y-77663000D01*
X27963000Y-77663000D01*
X27963000Y-75377000D01*
X28217000Y-75377000D01*
X28217000Y-77663000D01*
X29702852Y-77663000D01*
X29825010Y-77442940D01*
X29808327Y-77363004D01*
X29541191Y-76874014D01*
X29107262Y-76524475D01*
X29092010Y-76520000D01*
X29107262Y-76515525D01*
X29541191Y-76165986D01*
X29808327Y-75676996D01*
X29825010Y-75597060D01*
X29702852Y-75377000D01*
X28217000Y-75377000D01*
X27963000Y-75377000D01*
X26477148Y-75377000D01*
X26354990Y-75597060D01*
X26135000Y-75597060D01*
X26135000Y-73057060D01*
X26354990Y-73057060D01*
X26371673Y-73136996D01*
X26638809Y-73625986D01*
X27072738Y-73975525D01*
X27087990Y-73980000D01*
X27072738Y-73984475D01*
X26638809Y-74334014D01*
X26371673Y-74823004D01*
X26354990Y-74902940D01*
X26477148Y-75123000D01*
X27963000Y-75123000D01*
X27963000Y-72837000D01*
X28217000Y-72837000D01*
X28217000Y-75123000D01*
X29702852Y-75123000D01*
X29825010Y-74902940D01*
X29808327Y-74823004D01*
X29541191Y-74334014D01*
X29107262Y-73984475D01*
X29092010Y-73980000D01*
X29107262Y-73975525D01*
X29541191Y-73625986D01*
X29808327Y-73136996D01*
X29825010Y-73057060D01*
X29702852Y-72837000D01*
X28217000Y-72837000D01*
X27963000Y-72837000D01*
X26477148Y-72837000D01*
X26354990Y-73057060D01*
X26135000Y-73057060D01*
X26135000Y-70455750D01*
X26312000Y-70455750D01*
X26312000Y-71083709D01*
X26408673Y-71317098D01*
X26587301Y-71495727D01*
X26820690Y-71592400D01*
X26889099Y-71592400D01*
X26638809Y-71794014D01*
X26371673Y-72283004D01*
X26354990Y-72362940D01*
X26477148Y-72583000D01*
X27963000Y-72583000D01*
X27963000Y-70297000D01*
X28217000Y-70297000D01*
X28217000Y-72583000D01*
X29702852Y-72583000D01*
X29825010Y-72362940D01*
X29808327Y-72283004D01*
X29541191Y-71794014D01*
X29290901Y-71592400D01*
X29359310Y-71592400D01*
X29592699Y-71495727D01*
X29771327Y-71317098D01*
X29868000Y-71083709D01*
X29868000Y-70455750D01*
X29709250Y-70297000D01*
X28217000Y-70297000D01*
X27963000Y-70297000D01*
X26470750Y-70297000D01*
X26312000Y-70455750D01*
X26135000Y-70455750D01*
X26135000Y-70170000D01*
X33897167Y-70170000D01*
X34005441Y-70714329D01*
X34313778Y-71175789D01*
X34709199Y-71440000D01*
X34313778Y-71704211D01*
X34005441Y-72165671D01*
X33897167Y-72710000D01*
X34005441Y-73254329D01*
X34313778Y-73715789D01*
X34709199Y-73980000D01*
X34313778Y-74244211D01*
X34005441Y-74705671D01*
X33897167Y-75250000D01*
X34005441Y-75794329D01*
X34313778Y-76255789D01*
X34709199Y-76520000D01*
X34313778Y-76784211D01*
X34005441Y-77245671D01*
X33897167Y-77790000D01*
X34005441Y-78334329D01*
X34313778Y-78795789D01*
X34709199Y-79060000D01*
X34313778Y-79324211D01*
X34005441Y-79785671D01*
X33897167Y-80330000D01*
X34005441Y-80874329D01*
X34313778Y-81335789D01*
X34709199Y-81600000D01*
X34313778Y-81864211D01*
X34005441Y-82325671D01*
X33897167Y-82870000D01*
X34005441Y-83414329D01*
X34313778Y-83875789D01*
X34709199Y-84140000D01*
X34313778Y-84404211D01*
X34005441Y-84865671D01*
X33897167Y-85410000D01*
X34005441Y-85954329D01*
X34313778Y-86415789D01*
X34709199Y-86680000D01*
X34313778Y-86944211D01*
X34005441Y-87405671D01*
X33897167Y-87950000D01*
X34005441Y-88494329D01*
X34313778Y-88955789D01*
X34709199Y-89220000D01*
X34313778Y-89484211D01*
X34005441Y-89945671D01*
X33897167Y-90490000D01*
X34005441Y-91034329D01*
X34313778Y-91495789D01*
X34709199Y-91760000D01*
X34313778Y-92024211D01*
X34005441Y-92485671D01*
X33897167Y-93030000D01*
X34005441Y-93574329D01*
X34313778Y-94035789D01*
X34775238Y-94344126D01*
X35319567Y-94452400D01*
X36100433Y-94452400D01*
X36644762Y-94344126D01*
X37106222Y-94035789D01*
X37414559Y-93574329D01*
X37522833Y-93030000D01*
X37414559Y-92485671D01*
X37106222Y-92024211D01*
X36710801Y-91760000D01*
X37106222Y-91495789D01*
X37414559Y-91034329D01*
X37522833Y-90490000D01*
X37414559Y-89945671D01*
X37106222Y-89484211D01*
X36710801Y-89220000D01*
X37106222Y-88955789D01*
X37325128Y-88628172D01*
X37832538Y-88628172D01*
X38237709Y-89608761D01*
X38987293Y-90359655D01*
X39967173Y-90766536D01*
X41028172Y-90767462D01*
X42008761Y-90362291D01*
X42633462Y-89738679D01*
X46479000Y-89738679D01*
X46479000Y-90321321D01*
X46604675Y-90953131D01*
X46962567Y-91488754D01*
X47498190Y-91846646D01*
X48130000Y-91972321D01*
X48761810Y-91846646D01*
X49297433Y-91488754D01*
X49414054Y-91314219D01*
X49592370Y-91541236D01*
X50155523Y-91857926D01*
X50287056Y-91889975D01*
X50543000Y-91770836D01*
X50543000Y-90157000D01*
X50523000Y-90157000D01*
X50523000Y-89903000D01*
X50543000Y-89903000D01*
X50543000Y-88289164D01*
X50797000Y-88289164D01*
X50797000Y-89903000D01*
X50817000Y-89903000D01*
X50817000Y-90157000D01*
X50797000Y-90157000D01*
X50797000Y-91770836D01*
X51052944Y-91889975D01*
X51184477Y-91857926D01*
X51747630Y-91541236D01*
X51925946Y-91314219D01*
X52042567Y-91488754D01*
X52578190Y-91846646D01*
X53210000Y-91972321D01*
X53841810Y-91846646D01*
X53991888Y-91746367D01*
X68231732Y-91746367D01*
X68466752Y-92315161D01*
X68901550Y-92750718D01*
X69469933Y-92986731D01*
X70085367Y-92987268D01*
X70654161Y-92752248D01*
X71089718Y-92317450D01*
X71325731Y-91749067D01*
X71325733Y-91746367D01*
X71731732Y-91746367D01*
X71966752Y-92315161D01*
X72401550Y-92750718D01*
X72969933Y-92986731D01*
X73585367Y-92987268D01*
X74154161Y-92752248D01*
X74589718Y-92317450D01*
X74825731Y-91749067D01*
X74825733Y-91746367D01*
X75231732Y-91746367D01*
X75466752Y-92315161D01*
X75901550Y-92750718D01*
X76469933Y-92986731D01*
X77085367Y-92987268D01*
X77654161Y-92752248D01*
X78089718Y-92317450D01*
X78325731Y-91749067D01*
X78325733Y-91746367D01*
X78731732Y-91746367D01*
X78966752Y-92315161D01*
X79401550Y-92750718D01*
X79969933Y-92986731D01*
X80585367Y-92987268D01*
X81154161Y-92752248D01*
X81589718Y-92317450D01*
X81774117Y-91873367D01*
X100164732Y-91873367D01*
X100399752Y-92442161D01*
X100834550Y-92877718D01*
X101402933Y-93113731D01*
X102018367Y-93114268D01*
X102587161Y-92879248D01*
X103022718Y-92444450D01*
X103258731Y-91876067D01*
X103258733Y-91873367D01*
X103664732Y-91873367D01*
X103899752Y-92442161D01*
X104334550Y-92877718D01*
X104902933Y-93113731D01*
X105518367Y-93114268D01*
X106087161Y-92879248D01*
X106522718Y-92444450D01*
X106758731Y-91876067D01*
X106758733Y-91873367D01*
X107164732Y-91873367D01*
X107399752Y-92442161D01*
X107834550Y-92877718D01*
X108402933Y-93113731D01*
X109018367Y-93114268D01*
X109587161Y-92879248D01*
X110022718Y-92444450D01*
X110258731Y-91876067D01*
X110258733Y-91873367D01*
X110664732Y-91873367D01*
X110899752Y-92442161D01*
X111334550Y-92877718D01*
X111902933Y-93113731D01*
X112518367Y-93114268D01*
X113087161Y-92879248D01*
X113522718Y-92444450D01*
X113758731Y-91876067D01*
X113759268Y-91260633D01*
X113524248Y-90691839D01*
X113089450Y-90256282D01*
X112521067Y-90020269D01*
X111905633Y-90019732D01*
X111336839Y-90254752D01*
X110901282Y-90689550D01*
X110665269Y-91257933D01*
X110664732Y-91873367D01*
X110258733Y-91873367D01*
X110259268Y-91260633D01*
X110024248Y-90691839D01*
X109589450Y-90256282D01*
X109021067Y-90020269D01*
X108405633Y-90019732D01*
X107836839Y-90254752D01*
X107401282Y-90689550D01*
X107165269Y-91257933D01*
X107164732Y-91873367D01*
X106758733Y-91873367D01*
X106759268Y-91260633D01*
X106524248Y-90691839D01*
X106089450Y-90256282D01*
X105521067Y-90020269D01*
X104905633Y-90019732D01*
X104336839Y-90254752D01*
X103901282Y-90689550D01*
X103665269Y-91257933D01*
X103664732Y-91873367D01*
X103258733Y-91873367D01*
X103259268Y-91260633D01*
X103024248Y-90691839D01*
X102589450Y-90256282D01*
X102021067Y-90020269D01*
X101405633Y-90019732D01*
X100836839Y-90254752D01*
X100401282Y-90689550D01*
X100165269Y-91257933D01*
X100164732Y-91873367D01*
X81774117Y-91873367D01*
X81825731Y-91749067D01*
X81826268Y-91133633D01*
X81591248Y-90564839D01*
X81156450Y-90129282D01*
X80588067Y-89893269D01*
X79972633Y-89892732D01*
X79403839Y-90127752D01*
X78968282Y-90562550D01*
X78732269Y-91130933D01*
X78731732Y-91746367D01*
X78325733Y-91746367D01*
X78326268Y-91133633D01*
X78091248Y-90564839D01*
X77656450Y-90129282D01*
X77088067Y-89893269D01*
X76472633Y-89892732D01*
X75903839Y-90127752D01*
X75468282Y-90562550D01*
X75232269Y-91130933D01*
X75231732Y-91746367D01*
X74825733Y-91746367D01*
X74826268Y-91133633D01*
X74591248Y-90564839D01*
X74156450Y-90129282D01*
X73588067Y-89893269D01*
X72972633Y-89892732D01*
X72403839Y-90127752D01*
X71968282Y-90562550D01*
X71732269Y-91130933D01*
X71731732Y-91746367D01*
X71325733Y-91746367D01*
X71326268Y-91133633D01*
X71091248Y-90564839D01*
X70656450Y-90129282D01*
X70088067Y-89893269D01*
X69472633Y-89892732D01*
X68903839Y-90127752D01*
X68468282Y-90562550D01*
X68232269Y-91130933D01*
X68231732Y-91746367D01*
X53991888Y-91746367D01*
X54377433Y-91488754D01*
X54735325Y-90953131D01*
X54861000Y-90321321D01*
X54861000Y-90061995D01*
X56708516Y-90061995D01*
X56956906Y-90663143D01*
X57416437Y-91123478D01*
X58017152Y-91372916D01*
X58667595Y-91373484D01*
X59268743Y-91125094D01*
X59729078Y-90665563D01*
X59978516Y-90064848D01*
X59979084Y-89414405D01*
X59730694Y-88813257D01*
X59271163Y-88352922D01*
X58670448Y-88103484D01*
X58020005Y-88102916D01*
X57418857Y-88351306D01*
X56958522Y-88810837D01*
X56709084Y-89411552D01*
X56708516Y-90061995D01*
X54861000Y-90061995D01*
X54861000Y-89738679D01*
X54735325Y-89106869D01*
X54377433Y-88571246D01*
X53841810Y-88213354D01*
X53210000Y-88087679D01*
X52578190Y-88213354D01*
X52042567Y-88571246D01*
X51925946Y-88745781D01*
X51747630Y-88518764D01*
X51184477Y-88202074D01*
X51052944Y-88170025D01*
X50797000Y-88289164D01*
X50543000Y-88289164D01*
X50287056Y-88170025D01*
X50155523Y-88202074D01*
X49592370Y-88518764D01*
X49414054Y-88745781D01*
X49297433Y-88571246D01*
X48761810Y-88213354D01*
X48130000Y-88087679D01*
X47498190Y-88213354D01*
X46962567Y-88571246D01*
X46604675Y-89106869D01*
X46479000Y-89738679D01*
X42633462Y-89738679D01*
X42759655Y-89612707D01*
X43166536Y-88632827D01*
X43167146Y-87933367D01*
X66166732Y-87933367D01*
X66401752Y-88502161D01*
X66836550Y-88937718D01*
X67404933Y-89173731D01*
X68020367Y-89174268D01*
X68589161Y-88939248D01*
X69024718Y-88504450D01*
X69260731Y-87936067D01*
X69260844Y-87806367D01*
X118468732Y-87806367D01*
X118703752Y-88375161D01*
X119138550Y-88810718D01*
X119706933Y-89046731D01*
X120322367Y-89047268D01*
X120891161Y-88812248D01*
X121326718Y-88377450D01*
X121562731Y-87809067D01*
X121563268Y-87193633D01*
X121328248Y-86624839D01*
X120893450Y-86189282D01*
X120325067Y-85953269D01*
X119709633Y-85952732D01*
X119140839Y-86187752D01*
X118705282Y-86622550D01*
X118469269Y-87190933D01*
X118468732Y-87806367D01*
X69260844Y-87806367D01*
X69261268Y-87320633D01*
X69026248Y-86751839D01*
X68591450Y-86316282D01*
X68023067Y-86080269D01*
X67407633Y-86079732D01*
X66838839Y-86314752D01*
X66403282Y-86749550D01*
X66167269Y-87317933D01*
X66166732Y-87933367D01*
X43167146Y-87933367D01*
X43167462Y-87571828D01*
X42762291Y-86591239D01*
X42695120Y-86523950D01*
X56808800Y-86523950D01*
X56808800Y-87264510D01*
X56905473Y-87497899D01*
X57084102Y-87676527D01*
X57317491Y-87773200D01*
X58058050Y-87773200D01*
X58216800Y-87614450D01*
X58216800Y-86365200D01*
X58470800Y-86365200D01*
X58470800Y-87614450D01*
X58629550Y-87773200D01*
X59370109Y-87773200D01*
X59603498Y-87676527D01*
X59782127Y-87497899D01*
X59878800Y-87264510D01*
X59878800Y-86523950D01*
X59720050Y-86365200D01*
X58470800Y-86365200D01*
X58216800Y-86365200D01*
X56967550Y-86365200D01*
X56808800Y-86523950D01*
X42695120Y-86523950D01*
X42012707Y-85840345D01*
X41032827Y-85433464D01*
X39971828Y-85432538D01*
X38991239Y-85837709D01*
X38240345Y-86587293D01*
X37833464Y-87567173D01*
X37832538Y-88628172D01*
X37325128Y-88628172D01*
X37414559Y-88494329D01*
X37522833Y-87950000D01*
X37414559Y-87405671D01*
X37106222Y-86944211D01*
X36710801Y-86680000D01*
X37106222Y-86415789D01*
X37414559Y-85954329D01*
X37522833Y-85410000D01*
X37483427Y-85211890D01*
X56808800Y-85211890D01*
X56808800Y-85952450D01*
X56967550Y-86111200D01*
X58216800Y-86111200D01*
X58216800Y-84861950D01*
X58470800Y-84861950D01*
X58470800Y-86111200D01*
X59720050Y-86111200D01*
X59878800Y-85952450D01*
X59878800Y-85211890D01*
X59782127Y-84978501D01*
X59603498Y-84799873D01*
X59370109Y-84703200D01*
X58629550Y-84703200D01*
X58470800Y-84861950D01*
X58216800Y-84861950D01*
X58058050Y-84703200D01*
X57317491Y-84703200D01*
X57084102Y-84799873D01*
X56905473Y-84978501D01*
X56808800Y-85211890D01*
X37483427Y-85211890D01*
X37414559Y-84865671D01*
X37125704Y-84433367D01*
X66166732Y-84433367D01*
X66401752Y-85002161D01*
X66836550Y-85437718D01*
X67404933Y-85673731D01*
X68020367Y-85674268D01*
X68589161Y-85439248D01*
X69024718Y-85004450D01*
X69260731Y-84436067D01*
X69260844Y-84306367D01*
X118468732Y-84306367D01*
X118703752Y-84875161D01*
X119138550Y-85310718D01*
X119706933Y-85546731D01*
X120322367Y-85547268D01*
X120891161Y-85312248D01*
X121326718Y-84877450D01*
X121562731Y-84309067D01*
X121563268Y-83693633D01*
X121328248Y-83124839D01*
X120893450Y-82689282D01*
X120325067Y-82453269D01*
X119709633Y-82452732D01*
X119140839Y-82687752D01*
X118705282Y-83122550D01*
X118469269Y-83690933D01*
X118468732Y-84306367D01*
X69260844Y-84306367D01*
X69261268Y-83820633D01*
X69026248Y-83251839D01*
X68591450Y-82816282D01*
X68023067Y-82580269D01*
X67407633Y-82579732D01*
X66838839Y-82814752D01*
X66403282Y-83249550D01*
X66167269Y-83817933D01*
X66166732Y-84433367D01*
X37125704Y-84433367D01*
X37106222Y-84404211D01*
X36710801Y-84140000D01*
X37106222Y-83875789D01*
X37414559Y-83414329D01*
X37522833Y-82870000D01*
X37414559Y-82325671D01*
X37106222Y-81864211D01*
X36710801Y-81600000D01*
X37106222Y-81335789D01*
X37414559Y-80874329D01*
X37522833Y-80330000D01*
X37414559Y-79785671D01*
X37106222Y-79324211D01*
X36710801Y-79060000D01*
X37106222Y-78795789D01*
X37167553Y-78704000D01*
X55746560Y-78704000D01*
X55746560Y-80736000D01*
X55795843Y-80983765D01*
X55936191Y-81193809D01*
X56146235Y-81334157D01*
X56394000Y-81383440D01*
X58426000Y-81383440D01*
X58673765Y-81334157D01*
X58883809Y-81193809D01*
X58977829Y-81053099D01*
X58981621Y-81057188D01*
X59567054Y-81325983D01*
X59823000Y-81207367D01*
X59823000Y-79847000D01*
X60077000Y-79847000D01*
X60077000Y-81207367D01*
X60332946Y-81325983D01*
X60918379Y-81057188D01*
X61033192Y-80933367D01*
X66166732Y-80933367D01*
X66401752Y-81502161D01*
X66836550Y-81937718D01*
X67404933Y-82173731D01*
X68020367Y-82174268D01*
X68589161Y-81939248D01*
X69024718Y-81504450D01*
X69260731Y-80936067D01*
X69260844Y-80806367D01*
X118468732Y-80806367D01*
X118703752Y-81375161D01*
X119138550Y-81810718D01*
X119706933Y-82046731D01*
X120322367Y-82047268D01*
X120891161Y-81812248D01*
X121326718Y-81377450D01*
X121562731Y-80809067D01*
X121563268Y-80193633D01*
X121328248Y-79624839D01*
X120893450Y-79189282D01*
X120325067Y-78953269D01*
X119709633Y-78952732D01*
X119140839Y-79187752D01*
X118705282Y-79622550D01*
X118469269Y-80190933D01*
X118468732Y-80806367D01*
X69260844Y-80806367D01*
X69261268Y-80320633D01*
X69026248Y-79751839D01*
X68591450Y-79316282D01*
X68023067Y-79080269D01*
X67407633Y-79079732D01*
X66838839Y-79314752D01*
X66403282Y-79749550D01*
X66167269Y-80317933D01*
X66166732Y-80933367D01*
X61033192Y-80933367D01*
X61356385Y-80584818D01*
X61555975Y-80102944D01*
X61436836Y-79847000D01*
X60077000Y-79847000D01*
X59823000Y-79847000D01*
X59803000Y-79847000D01*
X59803000Y-79593000D01*
X59823000Y-79593000D01*
X59823000Y-78232633D01*
X60077000Y-78232633D01*
X60077000Y-79593000D01*
X61436836Y-79593000D01*
X61555975Y-79337056D01*
X61356385Y-78855182D01*
X60918379Y-78382812D01*
X60332946Y-78114017D01*
X60077000Y-78232633D01*
X59823000Y-78232633D01*
X59567054Y-78114017D01*
X58981621Y-78382812D01*
X58977829Y-78386901D01*
X58883809Y-78246191D01*
X58673765Y-78105843D01*
X58426000Y-78056560D01*
X56394000Y-78056560D01*
X56146235Y-78105843D01*
X55936191Y-78246191D01*
X55795843Y-78456235D01*
X55746560Y-78704000D01*
X37167553Y-78704000D01*
X37414559Y-78334329D01*
X37522833Y-77790000D01*
X37451895Y-77433367D01*
X66166732Y-77433367D01*
X66401752Y-78002161D01*
X66836550Y-78437718D01*
X67404933Y-78673731D01*
X68020367Y-78674268D01*
X68589161Y-78439248D01*
X69024718Y-78004450D01*
X69260731Y-77436067D01*
X69260844Y-77306367D01*
X118468732Y-77306367D01*
X118703752Y-77875161D01*
X119138550Y-78310718D01*
X119706933Y-78546731D01*
X120322367Y-78547268D01*
X120891161Y-78312248D01*
X121326718Y-77877450D01*
X121562731Y-77309067D01*
X121563268Y-76693633D01*
X121328248Y-76124839D01*
X120893450Y-75689282D01*
X120325067Y-75453269D01*
X119709633Y-75452732D01*
X119140839Y-75687752D01*
X118705282Y-76122550D01*
X118469269Y-76690933D01*
X118468732Y-77306367D01*
X69260844Y-77306367D01*
X69261268Y-76820633D01*
X69026248Y-76251839D01*
X68591450Y-75816282D01*
X68023067Y-75580269D01*
X67407633Y-75579732D01*
X66838839Y-75814752D01*
X66403282Y-76249550D01*
X66167269Y-76817933D01*
X66166732Y-77433367D01*
X37451895Y-77433367D01*
X37414559Y-77245671D01*
X37106222Y-76784211D01*
X36710801Y-76520000D01*
X37106222Y-76255789D01*
X37414559Y-75794329D01*
X37522833Y-75250000D01*
X37414559Y-74705671D01*
X37106222Y-74244211D01*
X36710801Y-73980000D01*
X36780592Y-73933367D01*
X66166732Y-73933367D01*
X66401752Y-74502161D01*
X66836550Y-74937718D01*
X67404933Y-75173731D01*
X68020367Y-75174268D01*
X68589161Y-74939248D01*
X69024718Y-74504450D01*
X69260731Y-73936067D01*
X69260844Y-73806367D01*
X118468732Y-73806367D01*
X118703752Y-74375161D01*
X119138550Y-74810718D01*
X119706933Y-75046731D01*
X120322367Y-75047268D01*
X120891161Y-74812248D01*
X121326718Y-74377450D01*
X121562731Y-73809067D01*
X121563268Y-73193633D01*
X121328248Y-72624839D01*
X120893450Y-72189282D01*
X120325067Y-71953269D01*
X119709633Y-71952732D01*
X119140839Y-72187752D01*
X118705282Y-72622550D01*
X118469269Y-73190933D01*
X118468732Y-73806367D01*
X69260844Y-73806367D01*
X69261268Y-73320633D01*
X69026248Y-72751839D01*
X68591450Y-72316282D01*
X68023067Y-72080269D01*
X67407633Y-72079732D01*
X66838839Y-72314752D01*
X66403282Y-72749550D01*
X66167269Y-73317933D01*
X66166732Y-73933367D01*
X36780592Y-73933367D01*
X37106222Y-73715789D01*
X37414559Y-73254329D01*
X37522833Y-72710000D01*
X37414559Y-72165671D01*
X37106222Y-71704211D01*
X36710801Y-71440000D01*
X37106222Y-71175789D01*
X37414559Y-70714329D01*
X37470445Y-70433367D01*
X66166732Y-70433367D01*
X66401752Y-71002161D01*
X66836550Y-71437718D01*
X67404933Y-71673731D01*
X68020367Y-71674268D01*
X68589161Y-71439248D01*
X69024718Y-71004450D01*
X69260731Y-70436067D01*
X69260844Y-70306367D01*
X118468732Y-70306367D01*
X118703752Y-70875161D01*
X119138550Y-71310718D01*
X119706933Y-71546731D01*
X120322367Y-71547268D01*
X120891161Y-71312248D01*
X121326718Y-70877450D01*
X121562731Y-70309067D01*
X121563268Y-69693633D01*
X121328248Y-69124839D01*
X120893450Y-68689282D01*
X120325067Y-68453269D01*
X119709633Y-68452732D01*
X119140839Y-68687752D01*
X118705282Y-69122550D01*
X118469269Y-69690933D01*
X118468732Y-70306367D01*
X69260844Y-70306367D01*
X69261268Y-69820633D01*
X69026248Y-69251839D01*
X68591450Y-68816282D01*
X68023067Y-68580269D01*
X67407633Y-68579732D01*
X66838839Y-68814752D01*
X66403282Y-69249550D01*
X66167269Y-69817933D01*
X66166732Y-70433367D01*
X37470445Y-70433367D01*
X37522833Y-70170000D01*
X37414559Y-69625671D01*
X37106222Y-69164211D01*
X36644762Y-68855874D01*
X36543593Y-68835750D01*
X57709000Y-68835750D01*
X57709000Y-69539909D01*
X57805673Y-69773298D01*
X57984301Y-69951927D01*
X58217690Y-70048600D01*
X59074250Y-70048600D01*
X59233000Y-69889850D01*
X59233000Y-68677000D01*
X59487000Y-68677000D01*
X59487000Y-69889850D01*
X59645750Y-70048600D01*
X60502310Y-70048600D01*
X60735699Y-69951927D01*
X60914327Y-69773298D01*
X61011000Y-69539909D01*
X61011000Y-68835750D01*
X60852250Y-68677000D01*
X59487000Y-68677000D01*
X59233000Y-68677000D01*
X57867750Y-68677000D01*
X57709000Y-68835750D01*
X36543593Y-68835750D01*
X36100433Y-68747600D01*
X35319567Y-68747600D01*
X34775238Y-68855874D01*
X34313778Y-69164211D01*
X34005441Y-69625671D01*
X33897167Y-70170000D01*
X26135000Y-70170000D01*
X26135000Y-69256291D01*
X26312000Y-69256291D01*
X26312000Y-69884250D01*
X26470750Y-70043000D01*
X27963000Y-70043000D01*
X27963000Y-68906350D01*
X28217000Y-68906350D01*
X28217000Y-70043000D01*
X29709250Y-70043000D01*
X29868000Y-69884250D01*
X29868000Y-69256291D01*
X29771327Y-69022902D01*
X29592699Y-68844273D01*
X29359310Y-68747600D01*
X28375750Y-68747600D01*
X28217000Y-68906350D01*
X27963000Y-68906350D01*
X27804250Y-68747600D01*
X26820690Y-68747600D01*
X26587301Y-68844273D01*
X26408673Y-69022902D01*
X26312000Y-69256291D01*
X26135000Y-69256291D01*
X26135000Y-63222852D01*
X28048445Y-63222852D01*
X28272253Y-63764511D01*
X28686309Y-64179290D01*
X28738292Y-64200875D01*
X28688489Y-64221453D01*
X28273710Y-64635509D01*
X28048956Y-65176777D01*
X28048445Y-65762852D01*
X28272253Y-66304511D01*
X28686309Y-66719290D01*
X29227577Y-66944044D01*
X29813652Y-66944555D01*
X30355311Y-66720747D01*
X30770090Y-66306691D01*
X30994844Y-65765423D01*
X30995355Y-65179348D01*
X30771547Y-64637689D01*
X30357491Y-64222910D01*
X30305508Y-64201325D01*
X30355311Y-64180747D01*
X30770090Y-63766691D01*
X30994844Y-63225423D01*
X30994846Y-63222852D01*
X32548445Y-63222852D01*
X32772253Y-63764511D01*
X33186309Y-64179290D01*
X33238292Y-64200875D01*
X33188489Y-64221453D01*
X32773710Y-64635509D01*
X32548956Y-65176777D01*
X32548445Y-65762852D01*
X32772253Y-66304511D01*
X33186309Y-66719290D01*
X33727577Y-66944044D01*
X34313652Y-66944555D01*
X34855311Y-66720747D01*
X35270090Y-66306691D01*
X35308668Y-66213784D01*
X50945313Y-66213784D01*
X51109311Y-66610689D01*
X51412714Y-66914622D01*
X51809332Y-67079313D01*
X52238784Y-67079687D01*
X52635689Y-66915689D01*
X52939622Y-66612286D01*
X53104313Y-66215668D01*
X53104502Y-65998128D01*
X55632630Y-63470000D01*
X57676655Y-63470000D01*
X57790729Y-64043489D01*
X58115585Y-64529670D01*
X58430366Y-64740000D01*
X58115585Y-64950330D01*
X57790729Y-65436511D01*
X57676655Y-66010000D01*
X57790729Y-66583489D01*
X58115585Y-67069670D01*
X58137780Y-67084500D01*
X57984301Y-67148073D01*
X57805673Y-67326702D01*
X57709000Y-67560091D01*
X57709000Y-68264250D01*
X57867750Y-68423000D01*
X59233000Y-68423000D01*
X59233000Y-68403000D01*
X59487000Y-68403000D01*
X59487000Y-68423000D01*
X60852250Y-68423000D01*
X61011000Y-68264250D01*
X61011000Y-67560091D01*
X60914327Y-67326702D01*
X60735699Y-67148073D01*
X60582220Y-67084500D01*
X60604415Y-67069670D01*
X60695489Y-66933367D01*
X66166732Y-66933367D01*
X66401752Y-67502161D01*
X66836550Y-67937718D01*
X67404933Y-68173731D01*
X68020367Y-68174268D01*
X68589161Y-67939248D01*
X69024718Y-67504450D01*
X69260731Y-66936067D01*
X69260844Y-66806367D01*
X118468732Y-66806367D01*
X118703752Y-67375161D01*
X119138550Y-67810718D01*
X119706933Y-68046731D01*
X120322367Y-68047268D01*
X120891161Y-67812248D01*
X121326718Y-67377450D01*
X121562731Y-66809067D01*
X121563268Y-66193633D01*
X121328248Y-65624839D01*
X120893450Y-65189282D01*
X120325067Y-64953269D01*
X119709633Y-64952732D01*
X119140839Y-65187752D01*
X118705282Y-65622550D01*
X118469269Y-66190933D01*
X118468732Y-66806367D01*
X69260844Y-66806367D01*
X69261268Y-66320633D01*
X69026248Y-65751839D01*
X68591450Y-65316282D01*
X68023067Y-65080269D01*
X67407633Y-65079732D01*
X66838839Y-65314752D01*
X66403282Y-65749550D01*
X66167269Y-66317933D01*
X66166732Y-66933367D01*
X60695489Y-66933367D01*
X60929271Y-66583489D01*
X61043345Y-66010000D01*
X60929271Y-65436511D01*
X60604415Y-64950330D01*
X60289634Y-64740000D01*
X60604415Y-64529670D01*
X60929271Y-64043489D01*
X61043345Y-63470000D01*
X61036059Y-63433367D01*
X66166732Y-63433367D01*
X66401752Y-64002161D01*
X66836550Y-64437718D01*
X67404933Y-64673731D01*
X68020367Y-64674268D01*
X68589161Y-64439248D01*
X69024718Y-64004450D01*
X69260731Y-63436067D01*
X69260844Y-63306367D01*
X118468732Y-63306367D01*
X118703752Y-63875161D01*
X119138550Y-64310718D01*
X119706933Y-64546731D01*
X120322367Y-64547268D01*
X120891161Y-64312248D01*
X121326718Y-63877450D01*
X121562731Y-63309067D01*
X121563268Y-62693633D01*
X121328248Y-62124839D01*
X120893450Y-61689282D01*
X120325067Y-61453269D01*
X119709633Y-61452732D01*
X119140839Y-61687752D01*
X118705282Y-62122550D01*
X118469269Y-62690933D01*
X118468732Y-63306367D01*
X69260844Y-63306367D01*
X69261268Y-62820633D01*
X69026248Y-62251839D01*
X68591450Y-61816282D01*
X68023067Y-61580269D01*
X67407633Y-61579732D01*
X66838839Y-61814752D01*
X66403282Y-62249550D01*
X66167269Y-62817933D01*
X66166732Y-63433367D01*
X61036059Y-63433367D01*
X60929271Y-62896511D01*
X60604415Y-62410330D01*
X60118234Y-62085474D01*
X59544745Y-61971400D01*
X59175255Y-61971400D01*
X58601766Y-62085474D01*
X58115585Y-62410330D01*
X57790729Y-62896511D01*
X57676655Y-63470000D01*
X55632630Y-63470000D01*
X59169263Y-59933367D01*
X66166732Y-59933367D01*
X66401752Y-60502161D01*
X66836550Y-60937718D01*
X67404933Y-61173731D01*
X68020367Y-61174268D01*
X68589161Y-60939248D01*
X69024718Y-60504450D01*
X69260731Y-59936067D01*
X69260844Y-59806367D01*
X118468732Y-59806367D01*
X118703752Y-60375161D01*
X119138550Y-60810718D01*
X119706933Y-61046731D01*
X120322367Y-61047268D01*
X120891161Y-60812248D01*
X121326718Y-60377450D01*
X121562731Y-59809067D01*
X121563268Y-59193633D01*
X121328248Y-58624839D01*
X120893450Y-58189282D01*
X120325067Y-57953269D01*
X119709633Y-57952732D01*
X119140839Y-58187752D01*
X118705282Y-58622550D01*
X118469269Y-59190933D01*
X118468732Y-59806367D01*
X69260844Y-59806367D01*
X69261268Y-59320633D01*
X69026248Y-58751839D01*
X68591450Y-58316282D01*
X68023067Y-58080269D01*
X67407633Y-58079732D01*
X66838839Y-58314752D01*
X66403282Y-58749550D01*
X66167269Y-59317933D01*
X66166732Y-59933367D01*
X59169263Y-59933367D01*
X60363816Y-58738815D01*
X60462834Y-58590623D01*
X60528996Y-58491605D01*
X60587000Y-58200000D01*
X60587000Y-56433367D01*
X66166732Y-56433367D01*
X66401752Y-57002161D01*
X66836550Y-57437718D01*
X67404933Y-57673731D01*
X68020367Y-57674268D01*
X68589161Y-57439248D01*
X69024718Y-57004450D01*
X69260731Y-56436067D01*
X69260844Y-56306367D01*
X118468732Y-56306367D01*
X118703752Y-56875161D01*
X119138550Y-57310718D01*
X119706933Y-57546731D01*
X120322367Y-57547268D01*
X120891161Y-57312248D01*
X121326718Y-56877450D01*
X121562731Y-56309067D01*
X121563268Y-55693633D01*
X121328248Y-55124839D01*
X120893450Y-54689282D01*
X120325067Y-54453269D01*
X119709633Y-54452732D01*
X119140839Y-54687752D01*
X118705282Y-55122550D01*
X118469269Y-55690933D01*
X118468732Y-56306367D01*
X69260844Y-56306367D01*
X69261268Y-55820633D01*
X69026248Y-55251839D01*
X68591450Y-54816282D01*
X68023067Y-54580269D01*
X67407633Y-54579732D01*
X66838839Y-54814752D01*
X66403282Y-55249550D01*
X66167269Y-55817933D01*
X66166732Y-56433367D01*
X60587000Y-56433367D01*
X60587000Y-52933367D01*
X66166732Y-52933367D01*
X66401752Y-53502161D01*
X66836550Y-53937718D01*
X67404933Y-54173731D01*
X68020367Y-54174268D01*
X68589161Y-53939248D01*
X69024718Y-53504450D01*
X69260731Y-52936067D01*
X69260844Y-52806367D01*
X118468732Y-52806367D01*
X118703752Y-53375161D01*
X119138550Y-53810718D01*
X119706933Y-54046731D01*
X120322367Y-54047268D01*
X120891161Y-53812248D01*
X121326718Y-53377450D01*
X121562731Y-52809067D01*
X121563268Y-52193633D01*
X121328248Y-51624839D01*
X120893450Y-51189282D01*
X120325067Y-50953269D01*
X119709633Y-50952732D01*
X119140839Y-51187752D01*
X118705282Y-51622550D01*
X118469269Y-52190933D01*
X118468732Y-52806367D01*
X69260844Y-52806367D01*
X69261268Y-52320633D01*
X69026248Y-51751839D01*
X68591450Y-51316282D01*
X68023067Y-51080269D01*
X67407633Y-51079732D01*
X66838839Y-51314752D01*
X66403282Y-51749550D01*
X66167269Y-52317933D01*
X66166732Y-52933367D01*
X60587000Y-52933367D01*
X60587000Y-49433367D01*
X66166732Y-49433367D01*
X66401752Y-50002161D01*
X66836550Y-50437718D01*
X67404933Y-50673731D01*
X68020367Y-50674268D01*
X68589161Y-50439248D01*
X69024718Y-50004450D01*
X69260731Y-49436067D01*
X69260844Y-49306367D01*
X118468732Y-49306367D01*
X118703752Y-49875161D01*
X119138550Y-50310718D01*
X119706933Y-50546731D01*
X120322367Y-50547268D01*
X120891161Y-50312248D01*
X121326718Y-49877450D01*
X121562731Y-49309067D01*
X121563268Y-48693633D01*
X121328248Y-48124839D01*
X120893450Y-47689282D01*
X120325067Y-47453269D01*
X119709633Y-47452732D01*
X119140839Y-47687752D01*
X118705282Y-48122550D01*
X118469269Y-48690933D01*
X118468732Y-49306367D01*
X69260844Y-49306367D01*
X69261268Y-48820633D01*
X69026248Y-48251839D01*
X68591450Y-47816282D01*
X68023067Y-47580269D01*
X67407633Y-47579732D01*
X66838839Y-47814752D01*
X66403282Y-48249550D01*
X66167269Y-48817933D01*
X66166732Y-49433367D01*
X60587000Y-49433367D01*
X60587000Y-45933367D01*
X66169732Y-45933367D01*
X66404752Y-46502161D01*
X66839550Y-46937718D01*
X67407933Y-47173731D01*
X68023367Y-47174268D01*
X68592161Y-46939248D01*
X69027718Y-46504450D01*
X69263731Y-45936067D01*
X69263844Y-45806367D01*
X118468732Y-45806367D01*
X118703752Y-46375161D01*
X119138550Y-46810718D01*
X119706933Y-47046731D01*
X120322367Y-47047268D01*
X120891161Y-46812248D01*
X121326718Y-46377450D01*
X121562731Y-45809067D01*
X121563268Y-45193633D01*
X121328248Y-44624839D01*
X120893450Y-44189282D01*
X120325067Y-43953269D01*
X119709633Y-43952732D01*
X119140839Y-44187752D01*
X118705282Y-44622550D01*
X118469269Y-45190933D01*
X118468732Y-45806367D01*
X69263844Y-45806367D01*
X69264268Y-45320633D01*
X69029248Y-44751839D01*
X68594450Y-44316282D01*
X68026067Y-44080269D01*
X67410633Y-44079732D01*
X66841839Y-44314752D01*
X66406282Y-44749550D01*
X66170269Y-45317933D01*
X66169732Y-45933367D01*
X60587000Y-45933367D01*
X60587000Y-44825000D01*
X60528996Y-44533395D01*
X60363815Y-44286185D01*
X59504499Y-43426869D01*
X59504687Y-43211216D01*
X59340689Y-42814311D01*
X59037286Y-42510378D01*
X58851824Y-42433367D01*
X66169732Y-42433367D01*
X66404752Y-43002161D01*
X66839550Y-43437718D01*
X67407933Y-43673731D01*
X68023367Y-43674268D01*
X68592161Y-43439248D01*
X69027718Y-43004450D01*
X69263731Y-42436067D01*
X69263844Y-42306367D01*
X118468732Y-42306367D01*
X118703752Y-42875161D01*
X119138550Y-43310718D01*
X119706933Y-43546731D01*
X120322367Y-43547268D01*
X120891161Y-43312248D01*
X121326718Y-42877450D01*
X121562731Y-42309067D01*
X121563268Y-41693633D01*
X121328248Y-41124839D01*
X120893450Y-40689282D01*
X120325067Y-40453269D01*
X119709633Y-40452732D01*
X119140839Y-40687752D01*
X118705282Y-41122550D01*
X118469269Y-41690933D01*
X118468732Y-42306367D01*
X69263844Y-42306367D01*
X69264268Y-41820633D01*
X69029248Y-41251839D01*
X68594450Y-40816282D01*
X68026067Y-40580269D01*
X67410633Y-40579732D01*
X66841839Y-40814752D01*
X66406282Y-41249550D01*
X66170269Y-41817933D01*
X66169732Y-42433367D01*
X58851824Y-42433367D01*
X58640668Y-42345687D01*
X58211216Y-42345313D01*
X57814311Y-42509311D01*
X57510378Y-42812714D01*
X57345687Y-43209332D01*
X57345313Y-43638784D01*
X57462200Y-43921671D01*
X57259745Y-43881400D01*
X56890255Y-43881400D01*
X56316766Y-43995474D01*
X55830585Y-44320330D01*
X55505729Y-44806511D01*
X55391655Y-45380000D01*
X55505729Y-45953489D01*
X55830585Y-46439670D01*
X56145366Y-46650000D01*
X55830585Y-46860330D01*
X55505729Y-47346511D01*
X55391655Y-47920000D01*
X55505729Y-48493489D01*
X55830585Y-48979670D01*
X56145366Y-49190000D01*
X55830585Y-49400330D01*
X55505729Y-49886511D01*
X55391655Y-50460000D01*
X55505729Y-51033489D01*
X55830585Y-51519670D01*
X55852780Y-51534500D01*
X55699302Y-51598073D01*
X55520673Y-51776701D01*
X55424000Y-52010090D01*
X55424000Y-52714250D01*
X55582750Y-52873000D01*
X56948000Y-52873000D01*
X56948000Y-52853000D01*
X57202000Y-52853000D01*
X57202000Y-52873000D01*
X58567250Y-52873000D01*
X58726000Y-52714250D01*
X58726000Y-52010090D01*
X58629327Y-51776701D01*
X58450698Y-51598073D01*
X58297220Y-51534500D01*
X58319415Y-51519670D01*
X58644271Y-51033489D01*
X58758345Y-50460000D01*
X58644271Y-49886511D01*
X58319415Y-49400330D01*
X58004634Y-49190000D01*
X58319415Y-48979670D01*
X58644271Y-48493489D01*
X58758345Y-47920000D01*
X58644271Y-47346511D01*
X58319415Y-46860330D01*
X58004634Y-46650000D01*
X58319415Y-46439670D01*
X58644271Y-45953489D01*
X58758345Y-45380000D01*
X58644271Y-44806511D01*
X58473894Y-44551524D01*
X59063000Y-45140630D01*
X59063000Y-57884369D01*
X52026869Y-64920501D01*
X51811216Y-64920313D01*
X51414311Y-65084311D01*
X51110378Y-65387714D01*
X50945687Y-65784332D01*
X50945313Y-66213784D01*
X35308668Y-66213784D01*
X35494844Y-65765423D01*
X35495355Y-65179348D01*
X35271547Y-64637689D01*
X34857491Y-64222910D01*
X34805508Y-64201325D01*
X34855311Y-64180747D01*
X35270090Y-63766691D01*
X35494844Y-63225423D01*
X35495355Y-62639348D01*
X35271547Y-62097689D01*
X34857491Y-61682910D01*
X34316223Y-61458156D01*
X33730148Y-61457645D01*
X33188489Y-61681453D01*
X32773710Y-62095509D01*
X32548956Y-62636777D01*
X32548445Y-63222852D01*
X30994846Y-63222852D01*
X30995355Y-62639348D01*
X30771547Y-62097689D01*
X30357491Y-61682910D01*
X29816223Y-61458156D01*
X29230148Y-61457645D01*
X28688489Y-61681453D01*
X28273710Y-62095509D01*
X28048956Y-62636777D01*
X28048445Y-63222852D01*
X26135000Y-63222852D01*
X26135000Y-58013095D01*
X27522084Y-58013095D01*
X27895806Y-58917572D01*
X28587208Y-59610182D01*
X29491031Y-59985482D01*
X30469675Y-59986336D01*
X31374152Y-59612614D01*
X32066762Y-58921212D01*
X32442062Y-58017389D01*
X32442916Y-57038745D01*
X32428697Y-57004330D01*
X38080175Y-57004330D01*
X38148235Y-57245331D01*
X38667534Y-57430167D01*
X39218038Y-57402205D01*
X39596765Y-57245331D01*
X39664825Y-57004330D01*
X38872500Y-56212005D01*
X38080175Y-57004330D01*
X32428697Y-57004330D01*
X32069194Y-56134268D01*
X31669954Y-55734330D01*
X35540175Y-55734330D01*
X35608235Y-55975331D01*
X36127534Y-56160167D01*
X36678038Y-56132205D01*
X37056765Y-55975331D01*
X37098531Y-55827434D01*
X37474733Y-55827434D01*
X37502695Y-56377938D01*
X37659569Y-56756665D01*
X37900570Y-56824725D01*
X38692895Y-56032400D01*
X39052105Y-56032400D01*
X39844430Y-56824725D01*
X40085431Y-56756665D01*
X40270267Y-56237366D01*
X40242305Y-55686862D01*
X40085431Y-55308135D01*
X39844430Y-55240075D01*
X39052105Y-56032400D01*
X38692895Y-56032400D01*
X37900570Y-55240075D01*
X37659569Y-55308135D01*
X37474733Y-55827434D01*
X37098531Y-55827434D01*
X37124825Y-55734330D01*
X36332500Y-54942005D01*
X35540175Y-55734330D01*
X31669954Y-55734330D01*
X31377792Y-55441658D01*
X30473969Y-55066358D01*
X29495325Y-55065504D01*
X28590848Y-55439226D01*
X27898238Y-56130628D01*
X27522938Y-57034451D01*
X27522084Y-58013095D01*
X26135000Y-58013095D01*
X26135000Y-54557434D01*
X34934733Y-54557434D01*
X34962695Y-55107938D01*
X35119569Y-55486665D01*
X35360570Y-55554725D01*
X36152895Y-54762400D01*
X36512105Y-54762400D01*
X37304430Y-55554725D01*
X37545431Y-55486665D01*
X37730267Y-54967366D01*
X37702305Y-54416862D01*
X37545431Y-54038135D01*
X37304430Y-53970075D01*
X36512105Y-54762400D01*
X36152895Y-54762400D01*
X35360570Y-53970075D01*
X35119569Y-54038135D01*
X34934733Y-54557434D01*
X26135000Y-54557434D01*
X26135000Y-46143675D01*
X27522084Y-46143675D01*
X27895806Y-47048152D01*
X28587208Y-47740762D01*
X29491031Y-48116062D01*
X30469675Y-48116916D01*
X31374152Y-47743194D01*
X32066762Y-47051792D01*
X32340802Y-46391830D01*
X34934490Y-46391830D01*
X34934490Y-47892970D01*
X34983773Y-48140735D01*
X35124121Y-48350779D01*
X35334165Y-48491127D01*
X35526355Y-48529355D01*
X35158556Y-48896513D01*
X34947171Y-49405584D01*
X34946690Y-49956798D01*
X35157186Y-50466237D01*
X35546613Y-50856344D01*
X35777881Y-50952375D01*
X35548663Y-51047086D01*
X35158556Y-51436513D01*
X34947171Y-51945584D01*
X34946690Y-52496798D01*
X35157186Y-53006237D01*
X35546613Y-53396344D01*
X35761996Y-53485779D01*
X35608235Y-53549469D01*
X35540175Y-53790470D01*
X36332500Y-54582795D01*
X37124825Y-53790470D01*
X37056765Y-53549469D01*
X36891460Y-53490631D01*
X37116337Y-53397714D01*
X37506444Y-53008287D01*
X37717829Y-52499216D01*
X37718310Y-51948002D01*
X37507814Y-51438563D01*
X37118387Y-51048456D01*
X36887119Y-50952425D01*
X37116337Y-50857714D01*
X37506444Y-50468287D01*
X37717829Y-49959216D01*
X37718310Y-49408002D01*
X37507814Y-48898563D01*
X37139150Y-48529255D01*
X37330835Y-48491127D01*
X37486952Y-48386812D01*
X37486690Y-48686798D01*
X37697186Y-49196237D01*
X38086613Y-49586344D01*
X38317881Y-49682375D01*
X38088663Y-49777086D01*
X37698556Y-50166513D01*
X37487171Y-50675584D01*
X37486690Y-51226798D01*
X37697186Y-51736237D01*
X38086613Y-52126344D01*
X38317881Y-52222375D01*
X38088663Y-52317086D01*
X37698556Y-52706513D01*
X37487171Y-53215584D01*
X37486690Y-53766798D01*
X37697186Y-54276237D01*
X38086613Y-54666344D01*
X38301996Y-54755779D01*
X38148235Y-54819469D01*
X38080175Y-55060470D01*
X38872500Y-55852795D01*
X39664825Y-55060470D01*
X39596765Y-54819469D01*
X39431460Y-54760631D01*
X39656337Y-54667714D01*
X40046444Y-54278287D01*
X40257829Y-53769216D01*
X40258250Y-53285750D01*
X55424000Y-53285750D01*
X55424000Y-53989910D01*
X55520673Y-54223299D01*
X55699302Y-54401927D01*
X55932691Y-54498600D01*
X56789250Y-54498600D01*
X56948000Y-54339850D01*
X56948000Y-53127000D01*
X57202000Y-53127000D01*
X57202000Y-54339850D01*
X57360750Y-54498600D01*
X58217309Y-54498600D01*
X58450698Y-54401927D01*
X58629327Y-54223299D01*
X58726000Y-53989910D01*
X58726000Y-53285750D01*
X58567250Y-53127000D01*
X57202000Y-53127000D01*
X56948000Y-53127000D01*
X55582750Y-53127000D01*
X55424000Y-53285750D01*
X40258250Y-53285750D01*
X40258310Y-53218002D01*
X40047814Y-52708563D01*
X39658387Y-52318456D01*
X39427119Y-52222425D01*
X39656337Y-52127714D01*
X40046444Y-51738287D01*
X40257829Y-51229216D01*
X40258310Y-50678002D01*
X40047814Y-50168563D01*
X39658387Y-49778456D01*
X39427119Y-49682425D01*
X39656337Y-49587714D01*
X40046444Y-49198287D01*
X40257829Y-48689216D01*
X40258310Y-48138002D01*
X40047814Y-47628563D01*
X40003114Y-47583784D01*
X42410313Y-47583784D01*
X42574311Y-47980689D01*
X42877714Y-48284622D01*
X43274332Y-48449313D01*
X43703784Y-48449687D01*
X44100689Y-48285689D01*
X44261176Y-48125481D01*
X45729284Y-48113019D01*
X45759311Y-48185689D01*
X46062714Y-48489622D01*
X46459332Y-48654313D01*
X46888784Y-48654687D01*
X47285689Y-48490689D01*
X47589622Y-48187286D01*
X47754313Y-47790668D01*
X47754687Y-47361216D01*
X47590689Y-46964311D01*
X47287286Y-46660378D01*
X46890668Y-46495687D01*
X46611406Y-46495444D01*
X46644622Y-46462286D01*
X46809313Y-46065668D01*
X46809687Y-45636216D01*
X46645689Y-45239311D01*
X46498990Y-45092356D01*
X46893489Y-45013885D01*
X47379670Y-44689029D01*
X47595664Y-44365772D01*
X47653179Y-44488490D01*
X48085053Y-44882688D01*
X48500974Y-45054958D01*
X48733000Y-44933817D01*
X48733000Y-43727000D01*
X48987000Y-43727000D01*
X48987000Y-44933817D01*
X49219026Y-45054958D01*
X49634947Y-44882688D01*
X50066821Y-44488490D01*
X50314968Y-43959027D01*
X50194469Y-43727000D01*
X48987000Y-43727000D01*
X48733000Y-43727000D01*
X48713000Y-43727000D01*
X48713000Y-43473000D01*
X48733000Y-43473000D01*
X48733000Y-41187000D01*
X48987000Y-41187000D01*
X48987000Y-43473000D01*
X50194469Y-43473000D01*
X50314968Y-43240973D01*
X50066821Y-42711510D01*
X49648848Y-42330000D01*
X50066821Y-41948490D01*
X50314968Y-41419027D01*
X50194469Y-41187000D01*
X48987000Y-41187000D01*
X48733000Y-41187000D01*
X48713000Y-41187000D01*
X48713000Y-40933000D01*
X48733000Y-40933000D01*
X48733000Y-38647000D01*
X48987000Y-38647000D01*
X48987000Y-40933000D01*
X50194469Y-40933000D01*
X50314968Y-40700973D01*
X50066821Y-40171510D01*
X49648848Y-39790000D01*
X50066821Y-39408490D01*
X50289500Y-38933367D01*
X66169732Y-38933367D01*
X66404752Y-39502161D01*
X66839550Y-39937718D01*
X67407933Y-40173731D01*
X68023367Y-40174268D01*
X68592161Y-39939248D01*
X69027718Y-39504450D01*
X69263731Y-38936067D01*
X69263844Y-38806367D01*
X118468732Y-38806367D01*
X118703752Y-39375161D01*
X119138550Y-39810718D01*
X119706933Y-40046731D01*
X120322367Y-40047268D01*
X120891161Y-39812248D01*
X121326718Y-39377450D01*
X121562731Y-38809067D01*
X121563268Y-38193633D01*
X121328248Y-37624839D01*
X120893450Y-37189282D01*
X120325067Y-36953269D01*
X119709633Y-36952732D01*
X119140839Y-37187752D01*
X118705282Y-37622550D01*
X118469269Y-38190933D01*
X118468732Y-38806367D01*
X69263844Y-38806367D01*
X69264268Y-38320633D01*
X69029248Y-37751839D01*
X68594450Y-37316282D01*
X68026067Y-37080269D01*
X67410633Y-37079732D01*
X66841839Y-37314752D01*
X66406282Y-37749550D01*
X66170269Y-38317933D01*
X66169732Y-38933367D01*
X50289500Y-38933367D01*
X50314968Y-38879027D01*
X50194469Y-38647000D01*
X48987000Y-38647000D01*
X48733000Y-38647000D01*
X48713000Y-38647000D01*
X48713000Y-38393000D01*
X48733000Y-38393000D01*
X48733000Y-36107000D01*
X48987000Y-36107000D01*
X48987000Y-38393000D01*
X50194469Y-38393000D01*
X50314968Y-38160973D01*
X50066821Y-37631510D01*
X49648848Y-37250000D01*
X50066821Y-36868490D01*
X50314968Y-36339027D01*
X50194469Y-36107000D01*
X48987000Y-36107000D01*
X48733000Y-36107000D01*
X48713000Y-36107000D01*
X48713000Y-35853000D01*
X48733000Y-35853000D01*
X48733000Y-35833000D01*
X48987000Y-35833000D01*
X48987000Y-35853000D01*
X50194469Y-35853000D01*
X50314968Y-35620973D01*
X50227042Y-35433367D01*
X66169732Y-35433367D01*
X66404752Y-36002161D01*
X66839550Y-36437718D01*
X67407933Y-36673731D01*
X68023367Y-36674268D01*
X68592161Y-36439248D01*
X69027718Y-36004450D01*
X69263731Y-35436067D01*
X69263844Y-35306367D01*
X118468732Y-35306367D01*
X118703752Y-35875161D01*
X119138550Y-36310718D01*
X119706933Y-36546731D01*
X120322367Y-36547268D01*
X120891161Y-36312248D01*
X121326718Y-35877450D01*
X121562731Y-35309067D01*
X121563268Y-34693633D01*
X121328248Y-34124839D01*
X120893450Y-33689282D01*
X120325067Y-33453269D01*
X119709633Y-33452732D01*
X119140839Y-33687752D01*
X118705282Y-34122550D01*
X118469269Y-34690933D01*
X118468732Y-35306367D01*
X69263844Y-35306367D01*
X69264268Y-34820633D01*
X69029248Y-34251839D01*
X68594450Y-33816282D01*
X68026067Y-33580269D01*
X67410633Y-33579732D01*
X66841839Y-33814752D01*
X66406282Y-34249550D01*
X66170269Y-34817933D01*
X66169732Y-35433367D01*
X50227042Y-35433367D01*
X50066821Y-35091510D01*
X49648839Y-34709992D01*
X49919670Y-34529029D01*
X50244526Y-34042848D01*
X50358600Y-33469359D01*
X50358600Y-33410641D01*
X50309889Y-33165750D01*
X54491400Y-33165750D01*
X54491400Y-34022310D01*
X54588073Y-34255699D01*
X54766702Y-34434327D01*
X55000091Y-34531000D01*
X55704250Y-34531000D01*
X55863000Y-34372250D01*
X55863000Y-33007000D01*
X54650150Y-33007000D01*
X54491400Y-33165750D01*
X50309889Y-33165750D01*
X50244526Y-32837152D01*
X49919670Y-32350971D01*
X49433489Y-32026115D01*
X48860000Y-31912041D01*
X48286511Y-32026115D01*
X47800330Y-32350971D01*
X47789441Y-32367267D01*
X47781757Y-32328635D01*
X47641409Y-32118591D01*
X47431365Y-31978243D01*
X47183600Y-31928960D01*
X45456400Y-31928960D01*
X45208635Y-31978243D01*
X44998591Y-32118591D01*
X44858243Y-32328635D01*
X44808960Y-32576400D01*
X44808960Y-34303600D01*
X44858243Y-34551365D01*
X44998591Y-34761409D01*
X45208635Y-34901757D01*
X45247904Y-34909568D01*
X44935474Y-35377152D01*
X44821400Y-35950641D01*
X44821400Y-36009359D01*
X44935474Y-36582848D01*
X45260330Y-37069029D01*
X45531172Y-37250000D01*
X45260330Y-37430971D01*
X44935474Y-37917152D01*
X44821400Y-38490641D01*
X44821400Y-38549359D01*
X44935474Y-39122848D01*
X45260330Y-39609029D01*
X45531172Y-39790000D01*
X45260330Y-39970971D01*
X44935474Y-40457152D01*
X44821400Y-41030641D01*
X44821400Y-41089359D01*
X44935474Y-41662848D01*
X45260330Y-42149029D01*
X45531172Y-42330000D01*
X45260330Y-42510971D01*
X44935474Y-42997152D01*
X44821400Y-43570641D01*
X44821400Y-43629359D01*
X44935474Y-44202848D01*
X45260330Y-44689029D01*
X45433272Y-44804585D01*
X45119311Y-44934311D01*
X45055511Y-44998000D01*
X44544642Y-44998000D01*
X44392286Y-44845378D01*
X43995668Y-44680687D01*
X43566216Y-44680313D01*
X43169311Y-44844311D01*
X42865378Y-45147714D01*
X42700687Y-45544332D01*
X42700313Y-45973784D01*
X42864311Y-46370689D01*
X42927791Y-46434280D01*
X42879311Y-46454311D01*
X42575378Y-46757714D01*
X42410687Y-47154332D01*
X42410313Y-47583784D01*
X40003114Y-47583784D01*
X39658387Y-47238456D01*
X39149316Y-47027071D01*
X38598102Y-47026590D01*
X38088663Y-47237086D01*
X37730510Y-47594615D01*
X37730510Y-46391830D01*
X37681227Y-46144065D01*
X37540879Y-45934021D01*
X37330835Y-45793673D01*
X37083070Y-45744390D01*
X35581930Y-45744390D01*
X35334165Y-45793673D01*
X35124121Y-45934021D01*
X34983773Y-46144065D01*
X34934490Y-46391830D01*
X32340802Y-46391830D01*
X32442062Y-46147969D01*
X32442916Y-45169325D01*
X32069194Y-44264848D01*
X31377792Y-43572238D01*
X30473969Y-43196938D01*
X29495325Y-43196084D01*
X28590848Y-43569806D01*
X27898238Y-44261208D01*
X27522938Y-45165031D01*
X27522084Y-46143675D01*
X26135000Y-46143675D01*
X26135000Y-39825695D01*
X27539584Y-39825695D01*
X27913306Y-40730172D01*
X28604708Y-41422782D01*
X29508531Y-41798082D01*
X30487175Y-41798936D01*
X31391652Y-41425214D01*
X32084262Y-40733812D01*
X32459562Y-39829989D01*
X32460416Y-38851345D01*
X32446197Y-38816930D01*
X38097675Y-38816930D01*
X38165735Y-39057931D01*
X38685034Y-39242767D01*
X39235538Y-39214805D01*
X39614265Y-39057931D01*
X39682325Y-38816930D01*
X38890000Y-38024605D01*
X38097675Y-38816930D01*
X32446197Y-38816930D01*
X32086694Y-37946868D01*
X31687454Y-37546930D01*
X35557675Y-37546930D01*
X35625735Y-37787931D01*
X36145034Y-37972767D01*
X36695538Y-37944805D01*
X37074265Y-37787931D01*
X37116031Y-37640034D01*
X37492233Y-37640034D01*
X37520195Y-38190538D01*
X37677069Y-38569265D01*
X37918070Y-38637325D01*
X38710395Y-37845000D01*
X39069605Y-37845000D01*
X39861930Y-38637325D01*
X40102931Y-38569265D01*
X40287767Y-38049966D01*
X40259805Y-37499462D01*
X40102931Y-37120735D01*
X39861930Y-37052675D01*
X39069605Y-37845000D01*
X38710395Y-37845000D01*
X37918070Y-37052675D01*
X37677069Y-37120735D01*
X37492233Y-37640034D01*
X37116031Y-37640034D01*
X37142325Y-37546930D01*
X36350000Y-36754605D01*
X35557675Y-37546930D01*
X31687454Y-37546930D01*
X31395292Y-37254258D01*
X30491469Y-36878958D01*
X29512825Y-36878104D01*
X28608348Y-37251826D01*
X27915738Y-37943228D01*
X27540438Y-38847051D01*
X27539584Y-39825695D01*
X26135000Y-39825695D01*
X26135000Y-36370034D01*
X34952233Y-36370034D01*
X34980195Y-36920538D01*
X35137069Y-37299265D01*
X35378070Y-37367325D01*
X36170395Y-36575000D01*
X36529605Y-36575000D01*
X37321930Y-37367325D01*
X37562931Y-37299265D01*
X37747767Y-36779966D01*
X37719805Y-36229462D01*
X37562931Y-35850735D01*
X37321930Y-35782675D01*
X36529605Y-36575000D01*
X36170395Y-36575000D01*
X35378070Y-35782675D01*
X35137069Y-35850735D01*
X34952233Y-36370034D01*
X26135000Y-36370034D01*
X26135000Y-25127000D01*
X29226478Y-25127000D01*
X28608348Y-25382406D01*
X28608348Y-25382406D01*
G37*
X28608348Y-25382406D02*
X27915738Y-26073808D01*
X27540438Y-26977631D01*
X27539584Y-27956275D01*
X27913306Y-28860752D01*
X28604708Y-29553362D01*
X29508531Y-29928662D01*
X30487175Y-29929516D01*
X31391652Y-29555794D01*
X32084262Y-28864392D01*
X32358302Y-28204430D01*
X34951990Y-28204430D01*
X34951990Y-29705570D01*
X35001273Y-29953335D01*
X35141621Y-30163379D01*
X35351665Y-30303727D01*
X35543855Y-30341955D01*
X35176056Y-30709113D01*
X34964671Y-31218184D01*
X34964190Y-31769398D01*
X35174686Y-32278837D01*
X35564113Y-32668944D01*
X35795381Y-32764975D01*
X35566163Y-32859686D01*
X35176056Y-33249113D01*
X34964671Y-33758184D01*
X34964190Y-34309398D01*
X35174686Y-34818837D01*
X35564113Y-35208944D01*
X35779496Y-35298379D01*
X35625735Y-35362069D01*
X35557675Y-35603070D01*
X36350000Y-36395395D01*
X37142325Y-35603070D01*
X37074265Y-35362069D01*
X36908960Y-35303231D01*
X37133837Y-35210314D01*
X37523944Y-34820887D01*
X37735329Y-34311816D01*
X37735810Y-33760602D01*
X37525314Y-33251163D01*
X37135887Y-32861056D01*
X36904619Y-32765025D01*
X37133837Y-32670314D01*
X37523944Y-32280887D01*
X37735329Y-31771816D01*
X37735810Y-31220602D01*
X37525314Y-30711163D01*
X37156650Y-30341855D01*
X37348335Y-30303727D01*
X37504452Y-30199412D01*
X37504190Y-30499398D01*
X37714686Y-31008837D01*
X38104113Y-31398944D01*
X38335381Y-31494975D01*
X38106163Y-31589686D01*
X37716056Y-31979113D01*
X37504671Y-32488184D01*
X37504190Y-33039398D01*
X37714686Y-33548837D01*
X38104113Y-33938944D01*
X38335381Y-34034975D01*
X38106163Y-34129686D01*
X37716056Y-34519113D01*
X37504671Y-35028184D01*
X37504190Y-35579398D01*
X37714686Y-36088837D01*
X38104113Y-36478944D01*
X38319496Y-36568379D01*
X38165735Y-36632069D01*
X38097675Y-36873070D01*
X38890000Y-37665395D01*
X39682325Y-36873070D01*
X39614265Y-36632069D01*
X39448960Y-36573231D01*
X39673837Y-36480314D01*
X40063944Y-36090887D01*
X40275329Y-35581816D01*
X40275810Y-35030602D01*
X40065314Y-34521163D01*
X39675887Y-34131056D01*
X39444619Y-34035025D01*
X39673837Y-33940314D01*
X40063944Y-33550887D01*
X40275329Y-33041816D01*
X40275810Y-32490602D01*
X40065314Y-31981163D01*
X39822266Y-31737690D01*
X54491400Y-31737690D01*
X54491400Y-32594250D01*
X54650150Y-32753000D01*
X55863000Y-32753000D01*
X55863000Y-31387750D01*
X56117000Y-31387750D01*
X56117000Y-32753000D01*
X56137000Y-32753000D01*
X56137000Y-33007000D01*
X56117000Y-33007000D01*
X56117000Y-34372250D01*
X56275750Y-34531000D01*
X56979909Y-34531000D01*
X57213298Y-34434327D01*
X57391927Y-34255699D01*
X57455500Y-34102220D01*
X57470330Y-34124415D01*
X57956511Y-34449271D01*
X58530000Y-34563345D01*
X59103489Y-34449271D01*
X59589670Y-34124415D01*
X59800000Y-33809634D01*
X60010330Y-34124415D01*
X60496511Y-34449271D01*
X61070000Y-34563345D01*
X61643489Y-34449271D01*
X62129670Y-34124415D01*
X62454526Y-33638234D01*
X62555983Y-33128172D01*
X79832538Y-33128172D01*
X80237709Y-34108761D01*
X80987293Y-34859655D01*
X81967173Y-35266536D01*
X83028172Y-35267462D01*
X84008761Y-34862291D01*
X84759655Y-34112707D01*
X85166536Y-33132827D01*
X85167462Y-32071828D01*
X84762291Y-31091239D01*
X84012707Y-30340345D01*
X83032827Y-29933464D01*
X81971828Y-29932538D01*
X80991239Y-30337709D01*
X80240345Y-31087293D01*
X79833464Y-32067173D01*
X79832538Y-33128172D01*
X62555983Y-33128172D01*
X62568600Y-33064745D01*
X62568600Y-32695255D01*
X62454526Y-32121766D01*
X62129670Y-31635585D01*
X61643489Y-31310729D01*
X61070000Y-31196655D01*
X60496511Y-31310729D01*
X60010330Y-31635585D01*
X59800000Y-31950366D01*
X59589670Y-31635585D01*
X59103489Y-31310729D01*
X58530000Y-31196655D01*
X57956511Y-31310729D01*
X57470330Y-31635585D01*
X57455500Y-31657780D01*
X57391927Y-31504301D01*
X57213298Y-31325673D01*
X56979909Y-31229000D01*
X56275750Y-31229000D01*
X56117000Y-31387750D01*
X55863000Y-31387750D01*
X55704250Y-31229000D01*
X55000091Y-31229000D01*
X54766702Y-31325673D01*
X54588073Y-31504301D01*
X54491400Y-31737690D01*
X39822266Y-31737690D01*
X39675887Y-31591056D01*
X39444619Y-31495025D01*
X39673837Y-31400314D01*
X40063944Y-31010887D01*
X40275329Y-30501816D01*
X40275810Y-29950602D01*
X40065314Y-29441163D01*
X39675887Y-29051056D01*
X39166816Y-28839671D01*
X38615602Y-28839190D01*
X38106163Y-29049686D01*
X37748010Y-29407215D01*
X37748010Y-28563784D01*
X39820313Y-28563784D01*
X39984311Y-28960689D01*
X40287714Y-29264622D01*
X40684332Y-29429313D01*
X41113784Y-29429687D01*
X41147514Y-29415750D01*
X54491400Y-29415750D01*
X54491400Y-30272310D01*
X54588073Y-30505699D01*
X54766702Y-30684327D01*
X55000091Y-30781000D01*
X55704250Y-30781000D01*
X55863000Y-30622250D01*
X55863000Y-29257000D01*
X54650150Y-29257000D01*
X54491400Y-29415750D01*
X41147514Y-29415750D01*
X41510689Y-29265689D01*
X41814622Y-28962286D01*
X41979313Y-28565668D01*
X41979502Y-28348128D01*
X42805631Y-27522000D01*
X54896280Y-27522000D01*
X54766702Y-27575673D01*
X54588073Y-27754301D01*
X54491400Y-27987690D01*
X54491400Y-28844250D01*
X54650150Y-29003000D01*
X55863000Y-29003000D01*
X55863000Y-28983000D01*
X56117000Y-28983000D01*
X56117000Y-29003000D01*
X56137000Y-29003000D01*
X56137000Y-29257000D01*
X56117000Y-29257000D01*
X56117000Y-30622250D01*
X56275750Y-30781000D01*
X56979909Y-30781000D01*
X57213298Y-30684327D01*
X57391927Y-30505699D01*
X57455500Y-30352220D01*
X57470330Y-30374415D01*
X57956511Y-30699271D01*
X58530000Y-30813345D01*
X59103489Y-30699271D01*
X59589670Y-30374415D01*
X59800000Y-30059634D01*
X60010330Y-30374415D01*
X60496511Y-30699271D01*
X61070000Y-30813345D01*
X61643489Y-30699271D01*
X62129670Y-30374415D01*
X62454526Y-29888234D01*
X62568600Y-29314745D01*
X62568600Y-28945255D01*
X62454526Y-28371766D01*
X62129670Y-27885585D01*
X61832000Y-27686688D01*
X61832000Y-27360000D01*
X61773996Y-27068395D01*
X61608815Y-26821185D01*
X61356630Y-26569000D01*
X96145476Y-26569000D01*
X96145476Y-32339000D01*
X107434524Y-32339000D01*
X107434524Y-30391468D01*
X107677650Y-30635018D01*
X108246033Y-30871031D01*
X108861467Y-30871568D01*
X109430261Y-30636548D01*
X109865818Y-30201750D01*
X110101831Y-29633367D01*
X110101833Y-29630667D01*
X110507832Y-29630667D01*
X110742852Y-30199461D01*
X111177650Y-30635018D01*
X111746033Y-30871031D01*
X112361467Y-30871568D01*
X112930261Y-30636548D01*
X113365818Y-30201750D01*
X113601831Y-29633367D01*
X113601833Y-29630667D01*
X114007832Y-29630667D01*
X114242852Y-30199461D01*
X114677650Y-30635018D01*
X115246033Y-30871031D01*
X115861467Y-30871568D01*
X116430261Y-30636548D01*
X116865818Y-30201750D01*
X117101831Y-29633367D01*
X117101833Y-29630667D01*
X117507832Y-29630667D01*
X117742852Y-30199461D01*
X118177650Y-30635018D01*
X118746033Y-30871031D01*
X119361467Y-30871568D01*
X119930261Y-30636548D01*
X120365818Y-30201750D01*
X120601831Y-29633367D01*
X120602368Y-29017933D01*
X120367348Y-28449139D01*
X119932550Y-28013582D01*
X119364167Y-27777569D01*
X118748733Y-27777032D01*
X118179939Y-28012052D01*
X117744382Y-28446850D01*
X117508369Y-29015233D01*
X117507832Y-29630667D01*
X117101833Y-29630667D01*
X117102368Y-29017933D01*
X116867348Y-28449139D01*
X116432550Y-28013582D01*
X115864167Y-27777569D01*
X115248733Y-27777032D01*
X114679939Y-28012052D01*
X114244382Y-28446850D01*
X114008369Y-29015233D01*
X114007832Y-29630667D01*
X113601833Y-29630667D01*
X113602368Y-29017933D01*
X113367348Y-28449139D01*
X112932550Y-28013582D01*
X112364167Y-27777569D01*
X111748733Y-27777032D01*
X111179939Y-28012052D01*
X110744382Y-28446850D01*
X110508369Y-29015233D01*
X110507832Y-29630667D01*
X110101833Y-29630667D01*
X110102368Y-29017933D01*
X109867348Y-28449139D01*
X109432550Y-28013582D01*
X108864167Y-27777569D01*
X108248733Y-27777032D01*
X107679939Y-28012052D01*
X107434524Y-28257039D01*
X107434524Y-26569000D01*
X96145476Y-26569000D01*
X61356630Y-26569000D01*
X61008814Y-26221184D01*
X60761605Y-26056004D01*
X60470000Y-25998000D01*
X42490000Y-25998000D01*
X42198396Y-26056003D01*
X41951185Y-26221184D01*
X40901869Y-27270501D01*
X40686216Y-27270313D01*
X40289311Y-27434311D01*
X39985378Y-27737714D01*
X39820687Y-28134332D01*
X39820313Y-28563784D01*
X37748010Y-28563784D01*
X37748010Y-28204430D01*
X37698727Y-27956665D01*
X37558379Y-27746621D01*
X37348335Y-27606273D01*
X37100570Y-27556990D01*
X35599430Y-27556990D01*
X35351665Y-27606273D01*
X35141621Y-27746621D01*
X35001273Y-27956665D01*
X34951990Y-28204430D01*
X32358302Y-28204430D01*
X32459562Y-27960569D01*
X32460416Y-26981925D01*
X32086694Y-26077448D01*
X31395292Y-25384838D01*
X30774349Y-25127000D01*
X123725000Y-25127000D01*
X123725000Y-95785000D01*
X26135000Y-95785000D01*
X26135000Y-93377060D01*
X26354990Y-93377060D01*
X26371673Y-93456996D01*
X26638809Y-93945986D01*
X27072738Y-94295525D01*
X27607400Y-94452400D01*
X27963000Y-94452400D01*
X27963000Y-93157000D01*
X28217000Y-93157000D01*
X28217000Y-94452400D01*
X28572600Y-94452400D01*
X29107262Y-94295525D01*
X29541191Y-93945986D01*
X29808327Y-93456996D01*
X29825010Y-93377060D01*
X29702852Y-93157000D01*
X28217000Y-93157000D01*
X27963000Y-93157000D01*
X26477148Y-93157000D01*
X26354990Y-93377060D01*
X26135000Y-93377060D01*
X26135000Y-90837060D01*
X26354990Y-90837060D01*
X26371673Y-90916996D01*
X26638809Y-91405986D01*
X27072738Y-91755525D01*
X27087990Y-91760000D01*
X27072738Y-91764475D01*
X26638809Y-92114014D01*
X26371673Y-92603004D01*
X26354990Y-92682940D01*
X26477148Y-92903000D01*
X27963000Y-92903000D01*
X27963000Y-90617000D01*
X28217000Y-90617000D01*
X28217000Y-92903000D01*
X29702852Y-92903000D01*
X29825010Y-92682940D01*
X29808327Y-92603004D01*
X29541191Y-92114014D01*
X29107262Y-91764475D01*
X29092010Y-91760000D01*
X29107262Y-91755525D01*
X29541191Y-91405986D01*
X29808327Y-90916996D01*
X29825010Y-90837060D01*
X29702852Y-90617000D01*
X28217000Y-90617000D01*
X27963000Y-90617000D01*
X26477148Y-90617000D01*
X26354990Y-90837060D01*
X26135000Y-90837060D01*
X26135000Y-88297060D01*
X26354990Y-88297060D01*
X26371673Y-88376996D01*
X26638809Y-88865986D01*
X27072738Y-89215525D01*
X27087990Y-89220000D01*
X27072738Y-89224475D01*
X26638809Y-89574014D01*
X26371673Y-90063004D01*
X26354990Y-90142940D01*
X26477148Y-90363000D01*
X27963000Y-90363000D01*
X27963000Y-88077000D01*
X28217000Y-88077000D01*
X28217000Y-90363000D01*
X29702852Y-90363000D01*
X29825010Y-90142940D01*
X29808327Y-90063004D01*
X29541191Y-89574014D01*
X29107262Y-89224475D01*
X29092010Y-89220000D01*
X29107262Y-89215525D01*
X29541191Y-88865986D01*
X29808327Y-88376996D01*
X29825010Y-88297060D01*
X29702852Y-88077000D01*
X28217000Y-88077000D01*
X27963000Y-88077000D01*
X26477148Y-88077000D01*
X26354990Y-88297060D01*
X26135000Y-88297060D01*
X26135000Y-85757060D01*
X26354990Y-85757060D01*
X26371673Y-85836996D01*
X26638809Y-86325986D01*
X27072738Y-86675525D01*
X27087990Y-86680000D01*
X27072738Y-86684475D01*
X26638809Y-87034014D01*
X26371673Y-87523004D01*
X26354990Y-87602940D01*
X26477148Y-87823000D01*
X27963000Y-87823000D01*
X27963000Y-85537000D01*
X28217000Y-85537000D01*
X28217000Y-87823000D01*
X29702852Y-87823000D01*
X29825010Y-87602940D01*
X29808327Y-87523004D01*
X29541191Y-87034014D01*
X29107262Y-86684475D01*
X29092010Y-86680000D01*
X29107262Y-86675525D01*
X29541191Y-86325986D01*
X29808327Y-85836996D01*
X29825010Y-85757060D01*
X29702852Y-85537000D01*
X28217000Y-85537000D01*
X27963000Y-85537000D01*
X26477148Y-85537000D01*
X26354990Y-85757060D01*
X26135000Y-85757060D01*
X26135000Y-83217060D01*
X26354990Y-83217060D01*
X26371673Y-83296996D01*
X26638809Y-83785986D01*
X27072738Y-84135525D01*
X27087990Y-84140000D01*
X27072738Y-84144475D01*
X26638809Y-84494014D01*
X26371673Y-84983004D01*
X26354990Y-85062940D01*
X26477148Y-85283000D01*
X27963000Y-85283000D01*
X27963000Y-82997000D01*
X28217000Y-82997000D01*
X28217000Y-85283000D01*
X29702852Y-85283000D01*
X29825010Y-85062940D01*
X29808327Y-84983004D01*
X29541191Y-84494014D01*
X29107262Y-84144475D01*
X29092010Y-84140000D01*
X29107262Y-84135525D01*
X29541191Y-83785986D01*
X29808327Y-83296996D01*
X29825010Y-83217060D01*
X29702852Y-82997000D01*
X28217000Y-82997000D01*
X27963000Y-82997000D01*
X26477148Y-82997000D01*
X26354990Y-83217060D01*
X26135000Y-83217060D01*
X26135000Y-80677060D01*
X26354990Y-80677060D01*
X26371673Y-80756996D01*
X26638809Y-81245986D01*
X27072738Y-81595525D01*
X27087990Y-81600000D01*
X27072738Y-81604475D01*
X26638809Y-81954014D01*
X26371673Y-82443004D01*
X26354990Y-82522940D01*
X26477148Y-82743000D01*
X27963000Y-82743000D01*
X27963000Y-80457000D01*
X28217000Y-80457000D01*
X28217000Y-82743000D01*
X29702852Y-82743000D01*
X29825010Y-82522940D01*
X29808327Y-82443004D01*
X29541191Y-81954014D01*
X29107262Y-81604475D01*
X29092010Y-81600000D01*
X29107262Y-81595525D01*
X29541191Y-81245986D01*
X29808327Y-80756996D01*
X29825010Y-80677060D01*
X29702852Y-80457000D01*
X28217000Y-80457000D01*
X27963000Y-80457000D01*
X26477148Y-80457000D01*
X26354990Y-80677060D01*
X26135000Y-80677060D01*
X26135000Y-78137060D01*
X26354990Y-78137060D01*
X26371673Y-78216996D01*
X26638809Y-78705986D01*
X27072738Y-79055525D01*
X27087990Y-79060000D01*
X27072738Y-79064475D01*
X26638809Y-79414014D01*
X26371673Y-79903004D01*
X26354990Y-79982940D01*
X26477148Y-80203000D01*
X27963000Y-80203000D01*
X27963000Y-77917000D01*
X28217000Y-77917000D01*
X28217000Y-80203000D01*
X29702852Y-80203000D01*
X29825010Y-79982940D01*
X29808327Y-79903004D01*
X29541191Y-79414014D01*
X29107262Y-79064475D01*
X29092010Y-79060000D01*
X29107262Y-79055525D01*
X29541191Y-78705986D01*
X29808327Y-78216996D01*
X29825010Y-78137060D01*
X29702852Y-77917000D01*
X28217000Y-77917000D01*
X27963000Y-77917000D01*
X26477148Y-77917000D01*
X26354990Y-78137060D01*
X26135000Y-78137060D01*
X26135000Y-75597060D01*
X26354990Y-75597060D01*
X26371673Y-75676996D01*
X26638809Y-76165986D01*
X27072738Y-76515525D01*
X27087990Y-76520000D01*
X27072738Y-76524475D01*
X26638809Y-76874014D01*
X26371673Y-77363004D01*
X26354990Y-77442940D01*
X26477148Y-77663000D01*
X27963000Y-77663000D01*
X27963000Y-75377000D01*
X28217000Y-75377000D01*
X28217000Y-77663000D01*
X29702852Y-77663000D01*
X29825010Y-77442940D01*
X29808327Y-77363004D01*
X29541191Y-76874014D01*
X29107262Y-76524475D01*
X29092010Y-76520000D01*
X29107262Y-76515525D01*
X29541191Y-76165986D01*
X29808327Y-75676996D01*
X29825010Y-75597060D01*
X29702852Y-75377000D01*
X28217000Y-75377000D01*
X27963000Y-75377000D01*
X26477148Y-75377000D01*
X26354990Y-75597060D01*
X26135000Y-75597060D01*
X26135000Y-73057060D01*
X26354990Y-73057060D01*
X26371673Y-73136996D01*
X26638809Y-73625986D01*
X27072738Y-73975525D01*
X27087990Y-73980000D01*
X27072738Y-73984475D01*
X26638809Y-74334014D01*
X26371673Y-74823004D01*
X26354990Y-74902940D01*
X26477148Y-75123000D01*
X27963000Y-75123000D01*
X27963000Y-72837000D01*
X28217000Y-72837000D01*
X28217000Y-75123000D01*
X29702852Y-75123000D01*
X29825010Y-74902940D01*
X29808327Y-74823004D01*
X29541191Y-74334014D01*
X29107262Y-73984475D01*
X29092010Y-73980000D01*
X29107262Y-73975525D01*
X29541191Y-73625986D01*
X29808327Y-73136996D01*
X29825010Y-73057060D01*
X29702852Y-72837000D01*
X28217000Y-72837000D01*
X27963000Y-72837000D01*
X26477148Y-72837000D01*
X26354990Y-73057060D01*
X26135000Y-73057060D01*
X26135000Y-70455750D01*
X26312000Y-70455750D01*
X26312000Y-71083709D01*
X26408673Y-71317098D01*
X26587301Y-71495727D01*
X26820690Y-71592400D01*
X26889099Y-71592400D01*
X26638809Y-71794014D01*
X26371673Y-72283004D01*
X26354990Y-72362940D01*
X26477148Y-72583000D01*
X27963000Y-72583000D01*
X27963000Y-70297000D01*
X28217000Y-70297000D01*
X28217000Y-72583000D01*
X29702852Y-72583000D01*
X29825010Y-72362940D01*
X29808327Y-72283004D01*
X29541191Y-71794014D01*
X29290901Y-71592400D01*
X29359310Y-71592400D01*
X29592699Y-71495727D01*
X29771327Y-71317098D01*
X29868000Y-71083709D01*
X29868000Y-70455750D01*
X29709250Y-70297000D01*
X28217000Y-70297000D01*
X27963000Y-70297000D01*
X26470750Y-70297000D01*
X26312000Y-70455750D01*
X26135000Y-70455750D01*
X26135000Y-70170000D01*
X33897167Y-70170000D01*
X34005441Y-70714329D01*
X34313778Y-71175789D01*
X34709199Y-71440000D01*
X34313778Y-71704211D01*
X34005441Y-72165671D01*
X33897167Y-72710000D01*
X34005441Y-73254329D01*
X34313778Y-73715789D01*
X34709199Y-73980000D01*
X34313778Y-74244211D01*
X34005441Y-74705671D01*
X33897167Y-75250000D01*
X34005441Y-75794329D01*
X34313778Y-76255789D01*
X34709199Y-76520000D01*
X34313778Y-76784211D01*
X34005441Y-77245671D01*
X33897167Y-77790000D01*
X34005441Y-78334329D01*
X34313778Y-78795789D01*
X34709199Y-79060000D01*
X34313778Y-79324211D01*
X34005441Y-79785671D01*
X33897167Y-80330000D01*
X34005441Y-80874329D01*
X34313778Y-81335789D01*
X34709199Y-81600000D01*
X34313778Y-81864211D01*
X34005441Y-82325671D01*
X33897167Y-82870000D01*
X34005441Y-83414329D01*
X34313778Y-83875789D01*
X34709199Y-84140000D01*
X34313778Y-84404211D01*
X34005441Y-84865671D01*
X33897167Y-85410000D01*
X34005441Y-85954329D01*
X34313778Y-86415789D01*
X34709199Y-86680000D01*
X34313778Y-86944211D01*
X34005441Y-87405671D01*
X33897167Y-87950000D01*
X34005441Y-88494329D01*
X34313778Y-88955789D01*
X34709199Y-89220000D01*
X34313778Y-89484211D01*
X34005441Y-89945671D01*
X33897167Y-90490000D01*
X34005441Y-91034329D01*
X34313778Y-91495789D01*
X34709199Y-91760000D01*
X34313778Y-92024211D01*
X34005441Y-92485671D01*
X33897167Y-93030000D01*
X34005441Y-93574329D01*
X34313778Y-94035789D01*
X34775238Y-94344126D01*
X35319567Y-94452400D01*
X36100433Y-94452400D01*
X36644762Y-94344126D01*
X37106222Y-94035789D01*
X37414559Y-93574329D01*
X37522833Y-93030000D01*
X37414559Y-92485671D01*
X37106222Y-92024211D01*
X36710801Y-91760000D01*
X37106222Y-91495789D01*
X37414559Y-91034329D01*
X37522833Y-90490000D01*
X37414559Y-89945671D01*
X37106222Y-89484211D01*
X36710801Y-89220000D01*
X37106222Y-88955789D01*
X37325128Y-88628172D01*
X37832538Y-88628172D01*
X38237709Y-89608761D01*
X38987293Y-90359655D01*
X39967173Y-90766536D01*
X41028172Y-90767462D01*
X42008761Y-90362291D01*
X42633462Y-89738679D01*
X46479000Y-89738679D01*
X46479000Y-90321321D01*
X46604675Y-90953131D01*
X46962567Y-91488754D01*
X47498190Y-91846646D01*
X48130000Y-91972321D01*
X48761810Y-91846646D01*
X49297433Y-91488754D01*
X49414054Y-91314219D01*
X49592370Y-91541236D01*
X50155523Y-91857926D01*
X50287056Y-91889975D01*
X50543000Y-91770836D01*
X50543000Y-90157000D01*
X50523000Y-90157000D01*
X50523000Y-89903000D01*
X50543000Y-89903000D01*
X50543000Y-88289164D01*
X50797000Y-88289164D01*
X50797000Y-89903000D01*
X50817000Y-89903000D01*
X50817000Y-90157000D01*
X50797000Y-90157000D01*
X50797000Y-91770836D01*
X51052944Y-91889975D01*
X51184477Y-91857926D01*
X51747630Y-91541236D01*
X51925946Y-91314219D01*
X52042567Y-91488754D01*
X52578190Y-91846646D01*
X53210000Y-91972321D01*
X53841810Y-91846646D01*
X53991888Y-91746367D01*
X68231732Y-91746367D01*
X68466752Y-92315161D01*
X68901550Y-92750718D01*
X69469933Y-92986731D01*
X70085367Y-92987268D01*
X70654161Y-92752248D01*
X71089718Y-92317450D01*
X71325731Y-91749067D01*
X71325733Y-91746367D01*
X71731732Y-91746367D01*
X71966752Y-92315161D01*
X72401550Y-92750718D01*
X72969933Y-92986731D01*
X73585367Y-92987268D01*
X74154161Y-92752248D01*
X74589718Y-92317450D01*
X74825731Y-91749067D01*
X74825733Y-91746367D01*
X75231732Y-91746367D01*
X75466752Y-92315161D01*
X75901550Y-92750718D01*
X76469933Y-92986731D01*
X77085367Y-92987268D01*
X77654161Y-92752248D01*
X78089718Y-92317450D01*
X78325731Y-91749067D01*
X78325733Y-91746367D01*
X78731732Y-91746367D01*
X78966752Y-92315161D01*
X79401550Y-92750718D01*
X79969933Y-92986731D01*
X80585367Y-92987268D01*
X81154161Y-92752248D01*
X81589718Y-92317450D01*
X81774117Y-91873367D01*
X100164732Y-91873367D01*
X100399752Y-92442161D01*
X100834550Y-92877718D01*
X101402933Y-93113731D01*
X102018367Y-93114268D01*
X102587161Y-92879248D01*
X103022718Y-92444450D01*
X103258731Y-91876067D01*
X103258733Y-91873367D01*
X103664732Y-91873367D01*
X103899752Y-92442161D01*
X104334550Y-92877718D01*
X104902933Y-93113731D01*
X105518367Y-93114268D01*
X106087161Y-92879248D01*
X106522718Y-92444450D01*
X106758731Y-91876067D01*
X106758733Y-91873367D01*
X107164732Y-91873367D01*
X107399752Y-92442161D01*
X107834550Y-92877718D01*
X108402933Y-93113731D01*
X109018367Y-93114268D01*
X109587161Y-92879248D01*
X110022718Y-92444450D01*
X110258731Y-91876067D01*
X110258733Y-91873367D01*
X110664732Y-91873367D01*
X110899752Y-92442161D01*
X111334550Y-92877718D01*
X111902933Y-93113731D01*
X112518367Y-93114268D01*
X113087161Y-92879248D01*
X113522718Y-92444450D01*
X113758731Y-91876067D01*
X113759268Y-91260633D01*
X113524248Y-90691839D01*
X113089450Y-90256282D01*
X112521067Y-90020269D01*
X111905633Y-90019732D01*
X111336839Y-90254752D01*
X110901282Y-90689550D01*
X110665269Y-91257933D01*
X110664732Y-91873367D01*
X110258733Y-91873367D01*
X110259268Y-91260633D01*
X110024248Y-90691839D01*
X109589450Y-90256282D01*
X109021067Y-90020269D01*
X108405633Y-90019732D01*
X107836839Y-90254752D01*
X107401282Y-90689550D01*
X107165269Y-91257933D01*
X107164732Y-91873367D01*
X106758733Y-91873367D01*
X106759268Y-91260633D01*
X106524248Y-90691839D01*
X106089450Y-90256282D01*
X105521067Y-90020269D01*
X104905633Y-90019732D01*
X104336839Y-90254752D01*
X103901282Y-90689550D01*
X103665269Y-91257933D01*
X103664732Y-91873367D01*
X103258733Y-91873367D01*
X103259268Y-91260633D01*
X103024248Y-90691839D01*
X102589450Y-90256282D01*
X102021067Y-90020269D01*
X101405633Y-90019732D01*
X100836839Y-90254752D01*
X100401282Y-90689550D01*
X100165269Y-91257933D01*
X100164732Y-91873367D01*
X81774117Y-91873367D01*
X81825731Y-91749067D01*
X81826268Y-91133633D01*
X81591248Y-90564839D01*
X81156450Y-90129282D01*
X80588067Y-89893269D01*
X79972633Y-89892732D01*
X79403839Y-90127752D01*
X78968282Y-90562550D01*
X78732269Y-91130933D01*
X78731732Y-91746367D01*
X78325733Y-91746367D01*
X78326268Y-91133633D01*
X78091248Y-90564839D01*
X77656450Y-90129282D01*
X77088067Y-89893269D01*
X76472633Y-89892732D01*
X75903839Y-90127752D01*
X75468282Y-90562550D01*
X75232269Y-91130933D01*
X75231732Y-91746367D01*
X74825733Y-91746367D01*
X74826268Y-91133633D01*
X74591248Y-90564839D01*
X74156450Y-90129282D01*
X73588067Y-89893269D01*
X72972633Y-89892732D01*
X72403839Y-90127752D01*
X71968282Y-90562550D01*
X71732269Y-91130933D01*
X71731732Y-91746367D01*
X71325733Y-91746367D01*
X71326268Y-91133633D01*
X71091248Y-90564839D01*
X70656450Y-90129282D01*
X70088067Y-89893269D01*
X69472633Y-89892732D01*
X68903839Y-90127752D01*
X68468282Y-90562550D01*
X68232269Y-91130933D01*
X68231732Y-91746367D01*
X53991888Y-91746367D01*
X54377433Y-91488754D01*
X54735325Y-90953131D01*
X54861000Y-90321321D01*
X54861000Y-90061995D01*
X56708516Y-90061995D01*
X56956906Y-90663143D01*
X57416437Y-91123478D01*
X58017152Y-91372916D01*
X58667595Y-91373484D01*
X59268743Y-91125094D01*
X59729078Y-90665563D01*
X59978516Y-90064848D01*
X59979084Y-89414405D01*
X59730694Y-88813257D01*
X59271163Y-88352922D01*
X58670448Y-88103484D01*
X58020005Y-88102916D01*
X57418857Y-88351306D01*
X56958522Y-88810837D01*
X56709084Y-89411552D01*
X56708516Y-90061995D01*
X54861000Y-90061995D01*
X54861000Y-89738679D01*
X54735325Y-89106869D01*
X54377433Y-88571246D01*
X53841810Y-88213354D01*
X53210000Y-88087679D01*
X52578190Y-88213354D01*
X52042567Y-88571246D01*
X51925946Y-88745781D01*
X51747630Y-88518764D01*
X51184477Y-88202074D01*
X51052944Y-88170025D01*
X50797000Y-88289164D01*
X50543000Y-88289164D01*
X50287056Y-88170025D01*
X50155523Y-88202074D01*
X49592370Y-88518764D01*
X49414054Y-88745781D01*
X49297433Y-88571246D01*
X48761810Y-88213354D01*
X48130000Y-88087679D01*
X47498190Y-88213354D01*
X46962567Y-88571246D01*
X46604675Y-89106869D01*
X46479000Y-89738679D01*
X42633462Y-89738679D01*
X42759655Y-89612707D01*
X43166536Y-88632827D01*
X43167146Y-87933367D01*
X66166732Y-87933367D01*
X66401752Y-88502161D01*
X66836550Y-88937718D01*
X67404933Y-89173731D01*
X68020367Y-89174268D01*
X68589161Y-88939248D01*
X69024718Y-88504450D01*
X69260731Y-87936067D01*
X69260844Y-87806367D01*
X118468732Y-87806367D01*
X118703752Y-88375161D01*
X119138550Y-88810718D01*
X119706933Y-89046731D01*
X120322367Y-89047268D01*
X120891161Y-88812248D01*
X121326718Y-88377450D01*
X121562731Y-87809067D01*
X121563268Y-87193633D01*
X121328248Y-86624839D01*
X120893450Y-86189282D01*
X120325067Y-85953269D01*
X119709633Y-85952732D01*
X119140839Y-86187752D01*
X118705282Y-86622550D01*
X118469269Y-87190933D01*
X118468732Y-87806367D01*
X69260844Y-87806367D01*
X69261268Y-87320633D01*
X69026248Y-86751839D01*
X68591450Y-86316282D01*
X68023067Y-86080269D01*
X67407633Y-86079732D01*
X66838839Y-86314752D01*
X66403282Y-86749550D01*
X66167269Y-87317933D01*
X66166732Y-87933367D01*
X43167146Y-87933367D01*
X43167462Y-87571828D01*
X42762291Y-86591239D01*
X42695120Y-86523950D01*
X56808800Y-86523950D01*
X56808800Y-87264510D01*
X56905473Y-87497899D01*
X57084102Y-87676527D01*
X57317491Y-87773200D01*
X58058050Y-87773200D01*
X58216800Y-87614450D01*
X58216800Y-86365200D01*
X58470800Y-86365200D01*
X58470800Y-87614450D01*
X58629550Y-87773200D01*
X59370109Y-87773200D01*
X59603498Y-87676527D01*
X59782127Y-87497899D01*
X59878800Y-87264510D01*
X59878800Y-86523950D01*
X59720050Y-86365200D01*
X58470800Y-86365200D01*
X58216800Y-86365200D01*
X56967550Y-86365200D01*
X56808800Y-86523950D01*
X42695120Y-86523950D01*
X42012707Y-85840345D01*
X41032827Y-85433464D01*
X39971828Y-85432538D01*
X38991239Y-85837709D01*
X38240345Y-86587293D01*
X37833464Y-87567173D01*
X37832538Y-88628172D01*
X37325128Y-88628172D01*
X37414559Y-88494329D01*
X37522833Y-87950000D01*
X37414559Y-87405671D01*
X37106222Y-86944211D01*
X36710801Y-86680000D01*
X37106222Y-86415789D01*
X37414559Y-85954329D01*
X37522833Y-85410000D01*
X37483427Y-85211890D01*
X56808800Y-85211890D01*
X56808800Y-85952450D01*
X56967550Y-86111200D01*
X58216800Y-86111200D01*
X58216800Y-84861950D01*
X58470800Y-84861950D01*
X58470800Y-86111200D01*
X59720050Y-86111200D01*
X59878800Y-85952450D01*
X59878800Y-85211890D01*
X59782127Y-84978501D01*
X59603498Y-84799873D01*
X59370109Y-84703200D01*
X58629550Y-84703200D01*
X58470800Y-84861950D01*
X58216800Y-84861950D01*
X58058050Y-84703200D01*
X57317491Y-84703200D01*
X57084102Y-84799873D01*
X56905473Y-84978501D01*
X56808800Y-85211890D01*
X37483427Y-85211890D01*
X37414559Y-84865671D01*
X37125704Y-84433367D01*
X66166732Y-84433367D01*
X66401752Y-85002161D01*
X66836550Y-85437718D01*
X67404933Y-85673731D01*
X68020367Y-85674268D01*
X68589161Y-85439248D01*
X69024718Y-85004450D01*
X69260731Y-84436067D01*
X69260844Y-84306367D01*
X118468732Y-84306367D01*
X118703752Y-84875161D01*
X119138550Y-85310718D01*
X119706933Y-85546731D01*
X120322367Y-85547268D01*
X120891161Y-85312248D01*
X121326718Y-84877450D01*
X121562731Y-84309067D01*
X121563268Y-83693633D01*
X121328248Y-83124839D01*
X120893450Y-82689282D01*
X120325067Y-82453269D01*
X119709633Y-82452732D01*
X119140839Y-82687752D01*
X118705282Y-83122550D01*
X118469269Y-83690933D01*
X118468732Y-84306367D01*
X69260844Y-84306367D01*
X69261268Y-83820633D01*
X69026248Y-83251839D01*
X68591450Y-82816282D01*
X68023067Y-82580269D01*
X67407633Y-82579732D01*
X66838839Y-82814752D01*
X66403282Y-83249550D01*
X66167269Y-83817933D01*
X66166732Y-84433367D01*
X37125704Y-84433367D01*
X37106222Y-84404211D01*
X36710801Y-84140000D01*
X37106222Y-83875789D01*
X37414559Y-83414329D01*
X37522833Y-82870000D01*
X37414559Y-82325671D01*
X37106222Y-81864211D01*
X36710801Y-81600000D01*
X37106222Y-81335789D01*
X37414559Y-80874329D01*
X37522833Y-80330000D01*
X37414559Y-79785671D01*
X37106222Y-79324211D01*
X36710801Y-79060000D01*
X37106222Y-78795789D01*
X37167553Y-78704000D01*
X55746560Y-78704000D01*
X55746560Y-80736000D01*
X55795843Y-80983765D01*
X55936191Y-81193809D01*
X56146235Y-81334157D01*
X56394000Y-81383440D01*
X58426000Y-81383440D01*
X58673765Y-81334157D01*
X58883809Y-81193809D01*
X58977829Y-81053099D01*
X58981621Y-81057188D01*
X59567054Y-81325983D01*
X59823000Y-81207367D01*
X59823000Y-79847000D01*
X60077000Y-79847000D01*
X60077000Y-81207367D01*
X60332946Y-81325983D01*
X60918379Y-81057188D01*
X61033192Y-80933367D01*
X66166732Y-80933367D01*
X66401752Y-81502161D01*
X66836550Y-81937718D01*
X67404933Y-82173731D01*
X68020367Y-82174268D01*
X68589161Y-81939248D01*
X69024718Y-81504450D01*
X69260731Y-80936067D01*
X69260844Y-80806367D01*
X118468732Y-80806367D01*
X118703752Y-81375161D01*
X119138550Y-81810718D01*
X119706933Y-82046731D01*
X120322367Y-82047268D01*
X120891161Y-81812248D01*
X121326718Y-81377450D01*
X121562731Y-80809067D01*
X121563268Y-80193633D01*
X121328248Y-79624839D01*
X120893450Y-79189282D01*
X120325067Y-78953269D01*
X119709633Y-78952732D01*
X119140839Y-79187752D01*
X118705282Y-79622550D01*
X118469269Y-80190933D01*
X118468732Y-80806367D01*
X69260844Y-80806367D01*
X69261268Y-80320633D01*
X69026248Y-79751839D01*
X68591450Y-79316282D01*
X68023067Y-79080269D01*
X67407633Y-79079732D01*
X66838839Y-79314752D01*
X66403282Y-79749550D01*
X66167269Y-80317933D01*
X66166732Y-80933367D01*
X61033192Y-80933367D01*
X61356385Y-80584818D01*
X61555975Y-80102944D01*
X61436836Y-79847000D01*
X60077000Y-79847000D01*
X59823000Y-79847000D01*
X59803000Y-79847000D01*
X59803000Y-79593000D01*
X59823000Y-79593000D01*
X59823000Y-78232633D01*
X60077000Y-78232633D01*
X60077000Y-79593000D01*
X61436836Y-79593000D01*
X61555975Y-79337056D01*
X61356385Y-78855182D01*
X60918379Y-78382812D01*
X60332946Y-78114017D01*
X60077000Y-78232633D01*
X59823000Y-78232633D01*
X59567054Y-78114017D01*
X58981621Y-78382812D01*
X58977829Y-78386901D01*
X58883809Y-78246191D01*
X58673765Y-78105843D01*
X58426000Y-78056560D01*
X56394000Y-78056560D01*
X56146235Y-78105843D01*
X55936191Y-78246191D01*
X55795843Y-78456235D01*
X55746560Y-78704000D01*
X37167553Y-78704000D01*
X37414559Y-78334329D01*
X37522833Y-77790000D01*
X37451895Y-77433367D01*
X66166732Y-77433367D01*
X66401752Y-78002161D01*
X66836550Y-78437718D01*
X67404933Y-78673731D01*
X68020367Y-78674268D01*
X68589161Y-78439248D01*
X69024718Y-78004450D01*
X69260731Y-77436067D01*
X69260844Y-77306367D01*
X118468732Y-77306367D01*
X118703752Y-77875161D01*
X119138550Y-78310718D01*
X119706933Y-78546731D01*
X120322367Y-78547268D01*
X120891161Y-78312248D01*
X121326718Y-77877450D01*
X121562731Y-77309067D01*
X121563268Y-76693633D01*
X121328248Y-76124839D01*
X120893450Y-75689282D01*
X120325067Y-75453269D01*
X119709633Y-75452732D01*
X119140839Y-75687752D01*
X118705282Y-76122550D01*
X118469269Y-76690933D01*
X118468732Y-77306367D01*
X69260844Y-77306367D01*
X69261268Y-76820633D01*
X69026248Y-76251839D01*
X68591450Y-75816282D01*
X68023067Y-75580269D01*
X67407633Y-75579732D01*
X66838839Y-75814752D01*
X66403282Y-76249550D01*
X66167269Y-76817933D01*
X66166732Y-77433367D01*
X37451895Y-77433367D01*
X37414559Y-77245671D01*
X37106222Y-76784211D01*
X36710801Y-76520000D01*
X37106222Y-76255789D01*
X37414559Y-75794329D01*
X37522833Y-75250000D01*
X37414559Y-74705671D01*
X37106222Y-74244211D01*
X36710801Y-73980000D01*
X36780592Y-73933367D01*
X66166732Y-73933367D01*
X66401752Y-74502161D01*
X66836550Y-74937718D01*
X67404933Y-75173731D01*
X68020367Y-75174268D01*
X68589161Y-74939248D01*
X69024718Y-74504450D01*
X69260731Y-73936067D01*
X69260844Y-73806367D01*
X118468732Y-73806367D01*
X118703752Y-74375161D01*
X119138550Y-74810718D01*
X119706933Y-75046731D01*
X120322367Y-75047268D01*
X120891161Y-74812248D01*
X121326718Y-74377450D01*
X121562731Y-73809067D01*
X121563268Y-73193633D01*
X121328248Y-72624839D01*
X120893450Y-72189282D01*
X120325067Y-71953269D01*
X119709633Y-71952732D01*
X119140839Y-72187752D01*
X118705282Y-72622550D01*
X118469269Y-73190933D01*
X118468732Y-73806367D01*
X69260844Y-73806367D01*
X69261268Y-73320633D01*
X69026248Y-72751839D01*
X68591450Y-72316282D01*
X68023067Y-72080269D01*
X67407633Y-72079732D01*
X66838839Y-72314752D01*
X66403282Y-72749550D01*
X66167269Y-73317933D01*
X66166732Y-73933367D01*
X36780592Y-73933367D01*
X37106222Y-73715789D01*
X37414559Y-73254329D01*
X37522833Y-72710000D01*
X37414559Y-72165671D01*
X37106222Y-71704211D01*
X36710801Y-71440000D01*
X37106222Y-71175789D01*
X37414559Y-70714329D01*
X37470445Y-70433367D01*
X66166732Y-70433367D01*
X66401752Y-71002161D01*
X66836550Y-71437718D01*
X67404933Y-71673731D01*
X68020367Y-71674268D01*
X68589161Y-71439248D01*
X69024718Y-71004450D01*
X69260731Y-70436067D01*
X69260844Y-70306367D01*
X118468732Y-70306367D01*
X118703752Y-70875161D01*
X119138550Y-71310718D01*
X119706933Y-71546731D01*
X120322367Y-71547268D01*
X120891161Y-71312248D01*
X121326718Y-70877450D01*
X121562731Y-70309067D01*
X121563268Y-69693633D01*
X121328248Y-69124839D01*
X120893450Y-68689282D01*
X120325067Y-68453269D01*
X119709633Y-68452732D01*
X119140839Y-68687752D01*
X118705282Y-69122550D01*
X118469269Y-69690933D01*
X118468732Y-70306367D01*
X69260844Y-70306367D01*
X69261268Y-69820633D01*
X69026248Y-69251839D01*
X68591450Y-68816282D01*
X68023067Y-68580269D01*
X67407633Y-68579732D01*
X66838839Y-68814752D01*
X66403282Y-69249550D01*
X66167269Y-69817933D01*
X66166732Y-70433367D01*
X37470445Y-70433367D01*
X37522833Y-70170000D01*
X37414559Y-69625671D01*
X37106222Y-69164211D01*
X36644762Y-68855874D01*
X36543593Y-68835750D01*
X57709000Y-68835750D01*
X57709000Y-69539909D01*
X57805673Y-69773298D01*
X57984301Y-69951927D01*
X58217690Y-70048600D01*
X59074250Y-70048600D01*
X59233000Y-69889850D01*
X59233000Y-68677000D01*
X59487000Y-68677000D01*
X59487000Y-69889850D01*
X59645750Y-70048600D01*
X60502310Y-70048600D01*
X60735699Y-69951927D01*
X60914327Y-69773298D01*
X61011000Y-69539909D01*
X61011000Y-68835750D01*
X60852250Y-68677000D01*
X59487000Y-68677000D01*
X59233000Y-68677000D01*
X57867750Y-68677000D01*
X57709000Y-68835750D01*
X36543593Y-68835750D01*
X36100433Y-68747600D01*
X35319567Y-68747600D01*
X34775238Y-68855874D01*
X34313778Y-69164211D01*
X34005441Y-69625671D01*
X33897167Y-70170000D01*
X26135000Y-70170000D01*
X26135000Y-69256291D01*
X26312000Y-69256291D01*
X26312000Y-69884250D01*
X26470750Y-70043000D01*
X27963000Y-70043000D01*
X27963000Y-68906350D01*
X28217000Y-68906350D01*
X28217000Y-70043000D01*
X29709250Y-70043000D01*
X29868000Y-69884250D01*
X29868000Y-69256291D01*
X29771327Y-69022902D01*
X29592699Y-68844273D01*
X29359310Y-68747600D01*
X28375750Y-68747600D01*
X28217000Y-68906350D01*
X27963000Y-68906350D01*
X27804250Y-68747600D01*
X26820690Y-68747600D01*
X26587301Y-68844273D01*
X26408673Y-69022902D01*
X26312000Y-69256291D01*
X26135000Y-69256291D01*
X26135000Y-63222852D01*
X28048445Y-63222852D01*
X28272253Y-63764511D01*
X28686309Y-64179290D01*
X28738292Y-64200875D01*
X28688489Y-64221453D01*
X28273710Y-64635509D01*
X28048956Y-65176777D01*
X28048445Y-65762852D01*
X28272253Y-66304511D01*
X28686309Y-66719290D01*
X29227577Y-66944044D01*
X29813652Y-66944555D01*
X30355311Y-66720747D01*
X30770090Y-66306691D01*
X30994844Y-65765423D01*
X30995355Y-65179348D01*
X30771547Y-64637689D01*
X30357491Y-64222910D01*
X30305508Y-64201325D01*
X30355311Y-64180747D01*
X30770090Y-63766691D01*
X30994844Y-63225423D01*
X30994846Y-63222852D01*
X32548445Y-63222852D01*
X32772253Y-63764511D01*
X33186309Y-64179290D01*
X33238292Y-64200875D01*
X33188489Y-64221453D01*
X32773710Y-64635509D01*
X32548956Y-65176777D01*
X32548445Y-65762852D01*
X32772253Y-66304511D01*
X33186309Y-66719290D01*
X33727577Y-66944044D01*
X34313652Y-66944555D01*
X34855311Y-66720747D01*
X35270090Y-66306691D01*
X35308668Y-66213784D01*
X50945313Y-66213784D01*
X51109311Y-66610689D01*
X51412714Y-66914622D01*
X51809332Y-67079313D01*
X52238784Y-67079687D01*
X52635689Y-66915689D01*
X52939622Y-66612286D01*
X53104313Y-66215668D01*
X53104502Y-65998128D01*
X55632630Y-63470000D01*
X57676655Y-63470000D01*
X57790729Y-64043489D01*
X58115585Y-64529670D01*
X58430366Y-64740000D01*
X58115585Y-64950330D01*
X57790729Y-65436511D01*
X57676655Y-66010000D01*
X57790729Y-66583489D01*
X58115585Y-67069670D01*
X58137780Y-67084500D01*
X57984301Y-67148073D01*
X57805673Y-67326702D01*
X57709000Y-67560091D01*
X57709000Y-68264250D01*
X57867750Y-68423000D01*
X59233000Y-68423000D01*
X59233000Y-68403000D01*
X59487000Y-68403000D01*
X59487000Y-68423000D01*
X60852250Y-68423000D01*
X61011000Y-68264250D01*
X61011000Y-67560091D01*
X60914327Y-67326702D01*
X60735699Y-67148073D01*
X60582220Y-67084500D01*
X60604415Y-67069670D01*
X60695489Y-66933367D01*
X66166732Y-66933367D01*
X66401752Y-67502161D01*
X66836550Y-67937718D01*
X67404933Y-68173731D01*
X68020367Y-68174268D01*
X68589161Y-67939248D01*
X69024718Y-67504450D01*
X69260731Y-66936067D01*
X69260844Y-66806367D01*
X118468732Y-66806367D01*
X118703752Y-67375161D01*
X119138550Y-67810718D01*
X119706933Y-68046731D01*
X120322367Y-68047268D01*
X120891161Y-67812248D01*
X121326718Y-67377450D01*
X121562731Y-66809067D01*
X121563268Y-66193633D01*
X121328248Y-65624839D01*
X120893450Y-65189282D01*
X120325067Y-64953269D01*
X119709633Y-64952732D01*
X119140839Y-65187752D01*
X118705282Y-65622550D01*
X118469269Y-66190933D01*
X118468732Y-66806367D01*
X69260844Y-66806367D01*
X69261268Y-66320633D01*
X69026248Y-65751839D01*
X68591450Y-65316282D01*
X68023067Y-65080269D01*
X67407633Y-65079732D01*
X66838839Y-65314752D01*
X66403282Y-65749550D01*
X66167269Y-66317933D01*
X66166732Y-66933367D01*
X60695489Y-66933367D01*
X60929271Y-66583489D01*
X61043345Y-66010000D01*
X60929271Y-65436511D01*
X60604415Y-64950330D01*
X60289634Y-64740000D01*
X60604415Y-64529670D01*
X60929271Y-64043489D01*
X61043345Y-63470000D01*
X61036059Y-63433367D01*
X66166732Y-63433367D01*
X66401752Y-64002161D01*
X66836550Y-64437718D01*
X67404933Y-64673731D01*
X68020367Y-64674268D01*
X68589161Y-64439248D01*
X69024718Y-64004450D01*
X69260731Y-63436067D01*
X69260844Y-63306367D01*
X118468732Y-63306367D01*
X118703752Y-63875161D01*
X119138550Y-64310718D01*
X119706933Y-64546731D01*
X120322367Y-64547268D01*
X120891161Y-64312248D01*
X121326718Y-63877450D01*
X121562731Y-63309067D01*
X121563268Y-62693633D01*
X121328248Y-62124839D01*
X120893450Y-61689282D01*
X120325067Y-61453269D01*
X119709633Y-61452732D01*
X119140839Y-61687752D01*
X118705282Y-62122550D01*
X118469269Y-62690933D01*
X118468732Y-63306367D01*
X69260844Y-63306367D01*
X69261268Y-62820633D01*
X69026248Y-62251839D01*
X68591450Y-61816282D01*
X68023067Y-61580269D01*
X67407633Y-61579732D01*
X66838839Y-61814752D01*
X66403282Y-62249550D01*
X66167269Y-62817933D01*
X66166732Y-63433367D01*
X61036059Y-63433367D01*
X60929271Y-62896511D01*
X60604415Y-62410330D01*
X60118234Y-62085474D01*
X59544745Y-61971400D01*
X59175255Y-61971400D01*
X58601766Y-62085474D01*
X58115585Y-62410330D01*
X57790729Y-62896511D01*
X57676655Y-63470000D01*
X55632630Y-63470000D01*
X59169263Y-59933367D01*
X66166732Y-59933367D01*
X66401752Y-60502161D01*
X66836550Y-60937718D01*
X67404933Y-61173731D01*
X68020367Y-61174268D01*
X68589161Y-60939248D01*
X69024718Y-60504450D01*
X69260731Y-59936067D01*
X69260844Y-59806367D01*
X118468732Y-59806367D01*
X118703752Y-60375161D01*
X119138550Y-60810718D01*
X119706933Y-61046731D01*
X120322367Y-61047268D01*
X120891161Y-60812248D01*
X121326718Y-60377450D01*
X121562731Y-59809067D01*
X121563268Y-59193633D01*
X121328248Y-58624839D01*
X120893450Y-58189282D01*
X120325067Y-57953269D01*
X119709633Y-57952732D01*
X119140839Y-58187752D01*
X118705282Y-58622550D01*
X118469269Y-59190933D01*
X118468732Y-59806367D01*
X69260844Y-59806367D01*
X69261268Y-59320633D01*
X69026248Y-58751839D01*
X68591450Y-58316282D01*
X68023067Y-58080269D01*
X67407633Y-58079732D01*
X66838839Y-58314752D01*
X66403282Y-58749550D01*
X66167269Y-59317933D01*
X66166732Y-59933367D01*
X59169263Y-59933367D01*
X60363816Y-58738815D01*
X60462834Y-58590623D01*
X60528996Y-58491605D01*
X60587000Y-58200000D01*
X60587000Y-56433367D01*
X66166732Y-56433367D01*
X66401752Y-57002161D01*
X66836550Y-57437718D01*
X67404933Y-57673731D01*
X68020367Y-57674268D01*
X68589161Y-57439248D01*
X69024718Y-57004450D01*
X69260731Y-56436067D01*
X69260844Y-56306367D01*
X118468732Y-56306367D01*
X118703752Y-56875161D01*
X119138550Y-57310718D01*
X119706933Y-57546731D01*
X120322367Y-57547268D01*
X120891161Y-57312248D01*
X121326718Y-56877450D01*
X121562731Y-56309067D01*
X121563268Y-55693633D01*
X121328248Y-55124839D01*
X120893450Y-54689282D01*
X120325067Y-54453269D01*
X119709633Y-54452732D01*
X119140839Y-54687752D01*
X118705282Y-55122550D01*
X118469269Y-55690933D01*
X118468732Y-56306367D01*
X69260844Y-56306367D01*
X69261268Y-55820633D01*
X69026248Y-55251839D01*
X68591450Y-54816282D01*
X68023067Y-54580269D01*
X67407633Y-54579732D01*
X66838839Y-54814752D01*
X66403282Y-55249550D01*
X66167269Y-55817933D01*
X66166732Y-56433367D01*
X60587000Y-56433367D01*
X60587000Y-52933367D01*
X66166732Y-52933367D01*
X66401752Y-53502161D01*
X66836550Y-53937718D01*
X67404933Y-54173731D01*
X68020367Y-54174268D01*
X68589161Y-53939248D01*
X69024718Y-53504450D01*
X69260731Y-52936067D01*
X69260844Y-52806367D01*
X118468732Y-52806367D01*
X118703752Y-53375161D01*
X119138550Y-53810718D01*
X119706933Y-54046731D01*
X120322367Y-54047268D01*
X120891161Y-53812248D01*
X121326718Y-53377450D01*
X121562731Y-52809067D01*
X121563268Y-52193633D01*
X121328248Y-51624839D01*
X120893450Y-51189282D01*
X120325067Y-50953269D01*
X119709633Y-50952732D01*
X119140839Y-51187752D01*
X118705282Y-51622550D01*
X118469269Y-52190933D01*
X118468732Y-52806367D01*
X69260844Y-52806367D01*
X69261268Y-52320633D01*
X69026248Y-51751839D01*
X68591450Y-51316282D01*
X68023067Y-51080269D01*
X67407633Y-51079732D01*
X66838839Y-51314752D01*
X66403282Y-51749550D01*
X66167269Y-52317933D01*
X66166732Y-52933367D01*
X60587000Y-52933367D01*
X60587000Y-49433367D01*
X66166732Y-49433367D01*
X66401752Y-50002161D01*
X66836550Y-50437718D01*
X67404933Y-50673731D01*
X68020367Y-50674268D01*
X68589161Y-50439248D01*
X69024718Y-50004450D01*
X69260731Y-49436067D01*
X69260844Y-49306367D01*
X118468732Y-49306367D01*
X118703752Y-49875161D01*
X119138550Y-50310718D01*
X119706933Y-50546731D01*
X120322367Y-50547268D01*
X120891161Y-50312248D01*
X121326718Y-49877450D01*
X121562731Y-49309067D01*
X121563268Y-48693633D01*
X121328248Y-48124839D01*
X120893450Y-47689282D01*
X120325067Y-47453269D01*
X119709633Y-47452732D01*
X119140839Y-47687752D01*
X118705282Y-48122550D01*
X118469269Y-48690933D01*
X118468732Y-49306367D01*
X69260844Y-49306367D01*
X69261268Y-48820633D01*
X69026248Y-48251839D01*
X68591450Y-47816282D01*
X68023067Y-47580269D01*
X67407633Y-47579732D01*
X66838839Y-47814752D01*
X66403282Y-48249550D01*
X66167269Y-48817933D01*
X66166732Y-49433367D01*
X60587000Y-49433367D01*
X60587000Y-45933367D01*
X66169732Y-45933367D01*
X66404752Y-46502161D01*
X66839550Y-46937718D01*
X67407933Y-47173731D01*
X68023367Y-47174268D01*
X68592161Y-46939248D01*
X69027718Y-46504450D01*
X69263731Y-45936067D01*
X69263844Y-45806367D01*
X118468732Y-45806367D01*
X118703752Y-46375161D01*
X119138550Y-46810718D01*
X119706933Y-47046731D01*
X120322367Y-47047268D01*
X120891161Y-46812248D01*
X121326718Y-46377450D01*
X121562731Y-45809067D01*
X121563268Y-45193633D01*
X121328248Y-44624839D01*
X120893450Y-44189282D01*
X120325067Y-43953269D01*
X119709633Y-43952732D01*
X119140839Y-44187752D01*
X118705282Y-44622550D01*
X118469269Y-45190933D01*
X118468732Y-45806367D01*
X69263844Y-45806367D01*
X69264268Y-45320633D01*
X69029248Y-44751839D01*
X68594450Y-44316282D01*
X68026067Y-44080269D01*
X67410633Y-44079732D01*
X66841839Y-44314752D01*
X66406282Y-44749550D01*
X66170269Y-45317933D01*
X66169732Y-45933367D01*
X60587000Y-45933367D01*
X60587000Y-44825000D01*
X60528996Y-44533395D01*
X60363815Y-44286185D01*
X59504499Y-43426869D01*
X59504687Y-43211216D01*
X59340689Y-42814311D01*
X59037286Y-42510378D01*
X58851824Y-42433367D01*
X66169732Y-42433367D01*
X66404752Y-43002161D01*
X66839550Y-43437718D01*
X67407933Y-43673731D01*
X68023367Y-43674268D01*
X68592161Y-43439248D01*
X69027718Y-43004450D01*
X69263731Y-42436067D01*
X69263844Y-42306367D01*
X118468732Y-42306367D01*
X118703752Y-42875161D01*
X119138550Y-43310718D01*
X119706933Y-43546731D01*
X120322367Y-43547268D01*
X120891161Y-43312248D01*
X121326718Y-42877450D01*
X121562731Y-42309067D01*
X121563268Y-41693633D01*
X121328248Y-41124839D01*
X120893450Y-40689282D01*
X120325067Y-40453269D01*
X119709633Y-40452732D01*
X119140839Y-40687752D01*
X118705282Y-41122550D01*
X118469269Y-41690933D01*
X118468732Y-42306367D01*
X69263844Y-42306367D01*
X69264268Y-41820633D01*
X69029248Y-41251839D01*
X68594450Y-40816282D01*
X68026067Y-40580269D01*
X67410633Y-40579732D01*
X66841839Y-40814752D01*
X66406282Y-41249550D01*
X66170269Y-41817933D01*
X66169732Y-42433367D01*
X58851824Y-42433367D01*
X58640668Y-42345687D01*
X58211216Y-42345313D01*
X57814311Y-42509311D01*
X57510378Y-42812714D01*
X57345687Y-43209332D01*
X57345313Y-43638784D01*
X57462200Y-43921671D01*
X57259745Y-43881400D01*
X56890255Y-43881400D01*
X56316766Y-43995474D01*
X55830585Y-44320330D01*
X55505729Y-44806511D01*
X55391655Y-45380000D01*
X55505729Y-45953489D01*
X55830585Y-46439670D01*
X56145366Y-46650000D01*
X55830585Y-46860330D01*
X55505729Y-47346511D01*
X55391655Y-47920000D01*
X55505729Y-48493489D01*
X55830585Y-48979670D01*
X56145366Y-49190000D01*
X55830585Y-49400330D01*
X55505729Y-49886511D01*
X55391655Y-50460000D01*
X55505729Y-51033489D01*
X55830585Y-51519670D01*
X55852780Y-51534500D01*
X55699302Y-51598073D01*
X55520673Y-51776701D01*
X55424000Y-52010090D01*
X55424000Y-52714250D01*
X55582750Y-52873000D01*
X56948000Y-52873000D01*
X56948000Y-52853000D01*
X57202000Y-52853000D01*
X57202000Y-52873000D01*
X58567250Y-52873000D01*
X58726000Y-52714250D01*
X58726000Y-52010090D01*
X58629327Y-51776701D01*
X58450698Y-51598073D01*
X58297220Y-51534500D01*
X58319415Y-51519670D01*
X58644271Y-51033489D01*
X58758345Y-50460000D01*
X58644271Y-49886511D01*
X58319415Y-49400330D01*
X58004634Y-49190000D01*
X58319415Y-48979670D01*
X58644271Y-48493489D01*
X58758345Y-47920000D01*
X58644271Y-47346511D01*
X58319415Y-46860330D01*
X58004634Y-46650000D01*
X58319415Y-46439670D01*
X58644271Y-45953489D01*
X58758345Y-45380000D01*
X58644271Y-44806511D01*
X58473894Y-44551524D01*
X59063000Y-45140630D01*
X59063000Y-57884369D01*
X52026869Y-64920501D01*
X51811216Y-64920313D01*
X51414311Y-65084311D01*
X51110378Y-65387714D01*
X50945687Y-65784332D01*
X50945313Y-66213784D01*
X35308668Y-66213784D01*
X35494844Y-65765423D01*
X35495355Y-65179348D01*
X35271547Y-64637689D01*
X34857491Y-64222910D01*
X34805508Y-64201325D01*
X34855311Y-64180747D01*
X35270090Y-63766691D01*
X35494844Y-63225423D01*
X35495355Y-62639348D01*
X35271547Y-62097689D01*
X34857491Y-61682910D01*
X34316223Y-61458156D01*
X33730148Y-61457645D01*
X33188489Y-61681453D01*
X32773710Y-62095509D01*
X32548956Y-62636777D01*
X32548445Y-63222852D01*
X30994846Y-63222852D01*
X30995355Y-62639348D01*
X30771547Y-62097689D01*
X30357491Y-61682910D01*
X29816223Y-61458156D01*
X29230148Y-61457645D01*
X28688489Y-61681453D01*
X28273710Y-62095509D01*
X28048956Y-62636777D01*
X28048445Y-63222852D01*
X26135000Y-63222852D01*
X26135000Y-58013095D01*
X27522084Y-58013095D01*
X27895806Y-58917572D01*
X28587208Y-59610182D01*
X29491031Y-59985482D01*
X30469675Y-59986336D01*
X31374152Y-59612614D01*
X32066762Y-58921212D01*
X32442062Y-58017389D01*
X32442916Y-57038745D01*
X32428697Y-57004330D01*
X38080175Y-57004330D01*
X38148235Y-57245331D01*
X38667534Y-57430167D01*
X39218038Y-57402205D01*
X39596765Y-57245331D01*
X39664825Y-57004330D01*
X38872500Y-56212005D01*
X38080175Y-57004330D01*
X32428697Y-57004330D01*
X32069194Y-56134268D01*
X31669954Y-55734330D01*
X35540175Y-55734330D01*
X35608235Y-55975331D01*
X36127534Y-56160167D01*
X36678038Y-56132205D01*
X37056765Y-55975331D01*
X37098531Y-55827434D01*
X37474733Y-55827434D01*
X37502695Y-56377938D01*
X37659569Y-56756665D01*
X37900570Y-56824725D01*
X38692895Y-56032400D01*
X39052105Y-56032400D01*
X39844430Y-56824725D01*
X40085431Y-56756665D01*
X40270267Y-56237366D01*
X40242305Y-55686862D01*
X40085431Y-55308135D01*
X39844430Y-55240075D01*
X39052105Y-56032400D01*
X38692895Y-56032400D01*
X37900570Y-55240075D01*
X37659569Y-55308135D01*
X37474733Y-55827434D01*
X37098531Y-55827434D01*
X37124825Y-55734330D01*
X36332500Y-54942005D01*
X35540175Y-55734330D01*
X31669954Y-55734330D01*
X31377792Y-55441658D01*
X30473969Y-55066358D01*
X29495325Y-55065504D01*
X28590848Y-55439226D01*
X27898238Y-56130628D01*
X27522938Y-57034451D01*
X27522084Y-58013095D01*
X26135000Y-58013095D01*
X26135000Y-54557434D01*
X34934733Y-54557434D01*
X34962695Y-55107938D01*
X35119569Y-55486665D01*
X35360570Y-55554725D01*
X36152895Y-54762400D01*
X36512105Y-54762400D01*
X37304430Y-55554725D01*
X37545431Y-55486665D01*
X37730267Y-54967366D01*
X37702305Y-54416862D01*
X37545431Y-54038135D01*
X37304430Y-53970075D01*
X36512105Y-54762400D01*
X36152895Y-54762400D01*
X35360570Y-53970075D01*
X35119569Y-54038135D01*
X34934733Y-54557434D01*
X26135000Y-54557434D01*
X26135000Y-46143675D01*
X27522084Y-46143675D01*
X27895806Y-47048152D01*
X28587208Y-47740762D01*
X29491031Y-48116062D01*
X30469675Y-48116916D01*
X31374152Y-47743194D01*
X32066762Y-47051792D01*
X32340802Y-46391830D01*
X34934490Y-46391830D01*
X34934490Y-47892970D01*
X34983773Y-48140735D01*
X35124121Y-48350779D01*
X35334165Y-48491127D01*
X35526355Y-48529355D01*
X35158556Y-48896513D01*
X34947171Y-49405584D01*
X34946690Y-49956798D01*
X35157186Y-50466237D01*
X35546613Y-50856344D01*
X35777881Y-50952375D01*
X35548663Y-51047086D01*
X35158556Y-51436513D01*
X34947171Y-51945584D01*
X34946690Y-52496798D01*
X35157186Y-53006237D01*
X35546613Y-53396344D01*
X35761996Y-53485779D01*
X35608235Y-53549469D01*
X35540175Y-53790470D01*
X36332500Y-54582795D01*
X37124825Y-53790470D01*
X37056765Y-53549469D01*
X36891460Y-53490631D01*
X37116337Y-53397714D01*
X37506444Y-53008287D01*
X37717829Y-52499216D01*
X37718310Y-51948002D01*
X37507814Y-51438563D01*
X37118387Y-51048456D01*
X36887119Y-50952425D01*
X37116337Y-50857714D01*
X37506444Y-50468287D01*
X37717829Y-49959216D01*
X37718310Y-49408002D01*
X37507814Y-48898563D01*
X37139150Y-48529255D01*
X37330835Y-48491127D01*
X37486952Y-48386812D01*
X37486690Y-48686798D01*
X37697186Y-49196237D01*
X38086613Y-49586344D01*
X38317881Y-49682375D01*
X38088663Y-49777086D01*
X37698556Y-50166513D01*
X37487171Y-50675584D01*
X37486690Y-51226798D01*
X37697186Y-51736237D01*
X38086613Y-52126344D01*
X38317881Y-52222375D01*
X38088663Y-52317086D01*
X37698556Y-52706513D01*
X37487171Y-53215584D01*
X37486690Y-53766798D01*
X37697186Y-54276237D01*
X38086613Y-54666344D01*
X38301996Y-54755779D01*
X38148235Y-54819469D01*
X38080175Y-55060470D01*
X38872500Y-55852795D01*
X39664825Y-55060470D01*
X39596765Y-54819469D01*
X39431460Y-54760631D01*
X39656337Y-54667714D01*
X40046444Y-54278287D01*
X40257829Y-53769216D01*
X40258250Y-53285750D01*
X55424000Y-53285750D01*
X55424000Y-53989910D01*
X55520673Y-54223299D01*
X55699302Y-54401927D01*
X55932691Y-54498600D01*
X56789250Y-54498600D01*
X56948000Y-54339850D01*
X56948000Y-53127000D01*
X57202000Y-53127000D01*
X57202000Y-54339850D01*
X57360750Y-54498600D01*
X58217309Y-54498600D01*
X58450698Y-54401927D01*
X58629327Y-54223299D01*
X58726000Y-53989910D01*
X58726000Y-53285750D01*
X58567250Y-53127000D01*
X57202000Y-53127000D01*
X56948000Y-53127000D01*
X55582750Y-53127000D01*
X55424000Y-53285750D01*
X40258250Y-53285750D01*
X40258310Y-53218002D01*
X40047814Y-52708563D01*
X39658387Y-52318456D01*
X39427119Y-52222425D01*
X39656337Y-52127714D01*
X40046444Y-51738287D01*
X40257829Y-51229216D01*
X40258310Y-50678002D01*
X40047814Y-50168563D01*
X39658387Y-49778456D01*
X39427119Y-49682425D01*
X39656337Y-49587714D01*
X40046444Y-49198287D01*
X40257829Y-48689216D01*
X40258310Y-48138002D01*
X40047814Y-47628563D01*
X40003114Y-47583784D01*
X42410313Y-47583784D01*
X42574311Y-47980689D01*
X42877714Y-48284622D01*
X43274332Y-48449313D01*
X43703784Y-48449687D01*
X44100689Y-48285689D01*
X44261176Y-48125481D01*
X45729284Y-48113019D01*
X45759311Y-48185689D01*
X46062714Y-48489622D01*
X46459332Y-48654313D01*
X46888784Y-48654687D01*
X47285689Y-48490689D01*
X47589622Y-48187286D01*
X47754313Y-47790668D01*
X47754687Y-47361216D01*
X47590689Y-46964311D01*
X47287286Y-46660378D01*
X46890668Y-46495687D01*
X46611406Y-46495444D01*
X46644622Y-46462286D01*
X46809313Y-46065668D01*
X46809687Y-45636216D01*
X46645689Y-45239311D01*
X46498990Y-45092356D01*
X46893489Y-45013885D01*
X47379670Y-44689029D01*
X47595664Y-44365772D01*
X47653179Y-44488490D01*
X48085053Y-44882688D01*
X48500974Y-45054958D01*
X48733000Y-44933817D01*
X48733000Y-43727000D01*
X48987000Y-43727000D01*
X48987000Y-44933817D01*
X49219026Y-45054958D01*
X49634947Y-44882688D01*
X50066821Y-44488490D01*
X50314968Y-43959027D01*
X50194469Y-43727000D01*
X48987000Y-43727000D01*
X48733000Y-43727000D01*
X48713000Y-43727000D01*
X48713000Y-43473000D01*
X48733000Y-43473000D01*
X48733000Y-41187000D01*
X48987000Y-41187000D01*
X48987000Y-43473000D01*
X50194469Y-43473000D01*
X50314968Y-43240973D01*
X50066821Y-42711510D01*
X49648848Y-42330000D01*
X50066821Y-41948490D01*
X50314968Y-41419027D01*
X50194469Y-41187000D01*
X48987000Y-41187000D01*
X48733000Y-41187000D01*
X48713000Y-41187000D01*
X48713000Y-40933000D01*
X48733000Y-40933000D01*
X48733000Y-38647000D01*
X48987000Y-38647000D01*
X48987000Y-40933000D01*
X50194469Y-40933000D01*
X50314968Y-40700973D01*
X50066821Y-40171510D01*
X49648848Y-39790000D01*
X50066821Y-39408490D01*
X50289500Y-38933367D01*
X66169732Y-38933367D01*
X66404752Y-39502161D01*
X66839550Y-39937718D01*
X67407933Y-40173731D01*
X68023367Y-40174268D01*
X68592161Y-39939248D01*
X69027718Y-39504450D01*
X69263731Y-38936067D01*
X69263844Y-38806367D01*
X118468732Y-38806367D01*
X118703752Y-39375161D01*
X119138550Y-39810718D01*
X119706933Y-40046731D01*
X120322367Y-40047268D01*
X120891161Y-39812248D01*
X121326718Y-39377450D01*
X121562731Y-38809067D01*
X121563268Y-38193633D01*
X121328248Y-37624839D01*
X120893450Y-37189282D01*
X120325067Y-36953269D01*
X119709633Y-36952732D01*
X119140839Y-37187752D01*
X118705282Y-37622550D01*
X118469269Y-38190933D01*
X118468732Y-38806367D01*
X69263844Y-38806367D01*
X69264268Y-38320633D01*
X69029248Y-37751839D01*
X68594450Y-37316282D01*
X68026067Y-37080269D01*
X67410633Y-37079732D01*
X66841839Y-37314752D01*
X66406282Y-37749550D01*
X66170269Y-38317933D01*
X66169732Y-38933367D01*
X50289500Y-38933367D01*
X50314968Y-38879027D01*
X50194469Y-38647000D01*
X48987000Y-38647000D01*
X48733000Y-38647000D01*
X48713000Y-38647000D01*
X48713000Y-38393000D01*
X48733000Y-38393000D01*
X48733000Y-36107000D01*
X48987000Y-36107000D01*
X48987000Y-38393000D01*
X50194469Y-38393000D01*
X50314968Y-38160973D01*
X50066821Y-37631510D01*
X49648848Y-37250000D01*
X50066821Y-36868490D01*
X50314968Y-36339027D01*
X50194469Y-36107000D01*
X48987000Y-36107000D01*
X48733000Y-36107000D01*
X48713000Y-36107000D01*
X48713000Y-35853000D01*
X48733000Y-35853000D01*
X48733000Y-35833000D01*
X48987000Y-35833000D01*
X48987000Y-35853000D01*
X50194469Y-35853000D01*
X50314968Y-35620973D01*
X50227042Y-35433367D01*
X66169732Y-35433367D01*
X66404752Y-36002161D01*
X66839550Y-36437718D01*
X67407933Y-36673731D01*
X68023367Y-36674268D01*
X68592161Y-36439248D01*
X69027718Y-36004450D01*
X69263731Y-35436067D01*
X69263844Y-35306367D01*
X118468732Y-35306367D01*
X118703752Y-35875161D01*
X119138550Y-36310718D01*
X119706933Y-36546731D01*
X120322367Y-36547268D01*
X120891161Y-36312248D01*
X121326718Y-35877450D01*
X121562731Y-35309067D01*
X121563268Y-34693633D01*
X121328248Y-34124839D01*
X120893450Y-33689282D01*
X120325067Y-33453269D01*
X119709633Y-33452732D01*
X119140839Y-33687752D01*
X118705282Y-34122550D01*
X118469269Y-34690933D01*
X118468732Y-35306367D01*
X69263844Y-35306367D01*
X69264268Y-34820633D01*
X69029248Y-34251839D01*
X68594450Y-33816282D01*
X68026067Y-33580269D01*
X67410633Y-33579732D01*
X66841839Y-33814752D01*
X66406282Y-34249550D01*
X66170269Y-34817933D01*
X66169732Y-35433367D01*
X50227042Y-35433367D01*
X50066821Y-35091510D01*
X49648839Y-34709992D01*
X49919670Y-34529029D01*
X50244526Y-34042848D01*
X50358600Y-33469359D01*
X50358600Y-33410641D01*
X50309889Y-33165750D01*
X54491400Y-33165750D01*
X54491400Y-34022310D01*
X54588073Y-34255699D01*
X54766702Y-34434327D01*
X55000091Y-34531000D01*
X55704250Y-34531000D01*
X55863000Y-34372250D01*
X55863000Y-33007000D01*
X54650150Y-33007000D01*
X54491400Y-33165750D01*
X50309889Y-33165750D01*
X50244526Y-32837152D01*
X49919670Y-32350971D01*
X49433489Y-32026115D01*
X48860000Y-31912041D01*
X48286511Y-32026115D01*
X47800330Y-32350971D01*
X47789441Y-32367267D01*
X47781757Y-32328635D01*
X47641409Y-32118591D01*
X47431365Y-31978243D01*
X47183600Y-31928960D01*
X45456400Y-31928960D01*
X45208635Y-31978243D01*
X44998591Y-32118591D01*
X44858243Y-32328635D01*
X44808960Y-32576400D01*
X44808960Y-34303600D01*
X44858243Y-34551365D01*
X44998591Y-34761409D01*
X45208635Y-34901757D01*
X45247904Y-34909568D01*
X44935474Y-35377152D01*
X44821400Y-35950641D01*
X44821400Y-36009359D01*
X44935474Y-36582848D01*
X45260330Y-37069029D01*
X45531172Y-37250000D01*
X45260330Y-37430971D01*
X44935474Y-37917152D01*
X44821400Y-38490641D01*
X44821400Y-38549359D01*
X44935474Y-39122848D01*
X45260330Y-39609029D01*
X45531172Y-39790000D01*
X45260330Y-39970971D01*
X44935474Y-40457152D01*
X44821400Y-41030641D01*
X44821400Y-41089359D01*
X44935474Y-41662848D01*
X45260330Y-42149029D01*
X45531172Y-42330000D01*
X45260330Y-42510971D01*
X44935474Y-42997152D01*
X44821400Y-43570641D01*
X44821400Y-43629359D01*
X44935474Y-44202848D01*
X45260330Y-44689029D01*
X45433272Y-44804585D01*
X45119311Y-44934311D01*
X45055511Y-44998000D01*
X44544642Y-44998000D01*
X44392286Y-44845378D01*
X43995668Y-44680687D01*
X43566216Y-44680313D01*
X43169311Y-44844311D01*
X42865378Y-45147714D01*
X42700687Y-45544332D01*
X42700313Y-45973784D01*
X42864311Y-46370689D01*
X42927791Y-46434280D01*
X42879311Y-46454311D01*
X42575378Y-46757714D01*
X42410687Y-47154332D01*
X42410313Y-47583784D01*
X40003114Y-47583784D01*
X39658387Y-47238456D01*
X39149316Y-47027071D01*
X38598102Y-47026590D01*
X38088663Y-47237086D01*
X37730510Y-47594615D01*
X37730510Y-46391830D01*
X37681227Y-46144065D01*
X37540879Y-45934021D01*
X37330835Y-45793673D01*
X37083070Y-45744390D01*
X35581930Y-45744390D01*
X35334165Y-45793673D01*
X35124121Y-45934021D01*
X34983773Y-46144065D01*
X34934490Y-46391830D01*
X32340802Y-46391830D01*
X32442062Y-46147969D01*
X32442916Y-45169325D01*
X32069194Y-44264848D01*
X31377792Y-43572238D01*
X30473969Y-43196938D01*
X29495325Y-43196084D01*
X28590848Y-43569806D01*
X27898238Y-44261208D01*
X27522938Y-45165031D01*
X27522084Y-46143675D01*
X26135000Y-46143675D01*
X26135000Y-39825695D01*
X27539584Y-39825695D01*
X27913306Y-40730172D01*
X28604708Y-41422782D01*
X29508531Y-41798082D01*
X30487175Y-41798936D01*
X31391652Y-41425214D01*
X32084262Y-40733812D01*
X32459562Y-39829989D01*
X32460416Y-38851345D01*
X32446197Y-38816930D01*
X38097675Y-38816930D01*
X38165735Y-39057931D01*
X38685034Y-39242767D01*
X39235538Y-39214805D01*
X39614265Y-39057931D01*
X39682325Y-38816930D01*
X38890000Y-38024605D01*
X38097675Y-38816930D01*
X32446197Y-38816930D01*
X32086694Y-37946868D01*
X31687454Y-37546930D01*
X35557675Y-37546930D01*
X35625735Y-37787931D01*
X36145034Y-37972767D01*
X36695538Y-37944805D01*
X37074265Y-37787931D01*
X37116031Y-37640034D01*
X37492233Y-37640034D01*
X37520195Y-38190538D01*
X37677069Y-38569265D01*
X37918070Y-38637325D01*
X38710395Y-37845000D01*
X39069605Y-37845000D01*
X39861930Y-38637325D01*
X40102931Y-38569265D01*
X40287767Y-38049966D01*
X40259805Y-37499462D01*
X40102931Y-37120735D01*
X39861930Y-37052675D01*
X39069605Y-37845000D01*
X38710395Y-37845000D01*
X37918070Y-37052675D01*
X37677069Y-37120735D01*
X37492233Y-37640034D01*
X37116031Y-37640034D01*
X37142325Y-37546930D01*
X36350000Y-36754605D01*
X35557675Y-37546930D01*
X31687454Y-37546930D01*
X31395292Y-37254258D01*
X30491469Y-36878958D01*
X29512825Y-36878104D01*
X28608348Y-37251826D01*
X27915738Y-37943228D01*
X27540438Y-38847051D01*
X27539584Y-39825695D01*
X26135000Y-39825695D01*
X26135000Y-36370034D01*
X34952233Y-36370034D01*
X34980195Y-36920538D01*
X35137069Y-37299265D01*
X35378070Y-37367325D01*
X36170395Y-36575000D01*
X36529605Y-36575000D01*
X37321930Y-37367325D01*
X37562931Y-37299265D01*
X37747767Y-36779966D01*
X37719805Y-36229462D01*
X37562931Y-35850735D01*
X37321930Y-35782675D01*
X36529605Y-36575000D01*
X36170395Y-36575000D01*
X35378070Y-35782675D01*
X35137069Y-35850735D01*
X34952233Y-36370034D01*
X26135000Y-36370034D01*
X26135000Y-25127000D01*
X29226478Y-25127000D01*
X28608348Y-25382406D01*
M02*
