G04 #@! TF.FileFunction,Soldermask,Top*
%FSLAX46Y46*%
G04 Gerber Fmt 4.6, Leading zero omitted, Abs format (unit mm)*
G04 Created by KiCad (PCBNEW 4.1.0-alpha+201608211231+7083~46~ubuntu14.04.1-product) date Fri Aug 26 11:20:39 2016*
%MOMM*%
%LPD*%
G01*
G04 APERTURE LIST*
%ADD10C,0.150000*%
%ADD11C,0.200000*%
%ADD12C,4.049980*%
%ADD13R,1.901140X1.901140*%
%ADD14C,1.901140*%
%ADD15R,2.432000X2.127200*%
%ADD16O,2.432000X2.127200*%
%ADD17C,4.464000*%
%ADD18C,2.076400*%
%ADD19R,2.127200X2.432000*%
%ADD20O,2.127200X2.432000*%
%ADD21R,2.686000X1.974800*%
%ADD22O,2.686000X1.974800*%
%ADD23O,2.432000X2.940000*%
%ADD24R,2.127200X2.127200*%
%ADD25O,2.127200X2.127200*%
%ADD26R,2.432000X2.432000*%
%ADD27O,2.432000X2.432000*%
%ADD28C,2.224000*%
%ADD29R,2.200000X2.200000*%
%ADD30C,2.400000*%
G04 APERTURE END LIST*
D10*
D11*
X124460000Y-24130000D02*
X25400000Y-24130000D01*
X124460000Y-96520000D02*
X124460000Y-24130000D01*
X25400000Y-96520000D02*
X124460000Y-96520000D01*
X25400000Y-24130000D02*
X25400000Y-96520000D01*
D12*
X29982500Y-57525920D03*
X29982500Y-45656500D03*
D13*
X36332500Y-47142400D03*
D14*
X38872500Y-48412400D03*
X36332500Y-49682400D03*
X38872500Y-50952400D03*
X36332500Y-52222400D03*
X38872500Y-53492400D03*
X36332500Y-54762400D03*
X38872500Y-56032400D03*
D15*
X57075000Y-53000000D03*
D16*
X57075000Y-50460000D03*
X57075000Y-47920000D03*
X57075000Y-45380000D03*
D17*
X40500000Y-88100000D03*
X82500000Y-32600000D03*
D18*
X29521900Y-62931100D03*
X29521900Y-65471100D03*
X34021900Y-62931100D03*
X34021900Y-65471100D03*
D15*
X59360000Y-68550000D03*
D16*
X59360000Y-66010000D03*
X59360000Y-63470000D03*
D19*
X55990000Y-29130000D03*
D20*
X58530000Y-29130000D03*
X61070000Y-29130000D03*
D19*
X55990000Y-32880000D03*
D20*
X58530000Y-32880000D03*
X61070000Y-32880000D03*
D21*
X28090000Y-70170000D03*
D22*
X28090000Y-72710000D03*
X28090000Y-75250000D03*
X28090000Y-77790000D03*
X28090000Y-80330000D03*
X28090000Y-82870000D03*
X28090000Y-85410000D03*
X28090000Y-87950000D03*
X28090000Y-90490000D03*
X28090000Y-93030000D03*
X35710000Y-93030000D03*
X35710000Y-90490000D03*
X35710000Y-87950000D03*
X35710000Y-85410000D03*
X35710000Y-82870000D03*
X35710000Y-80330000D03*
X35710000Y-77790000D03*
X35710000Y-75250000D03*
X35710000Y-72710000D03*
X35710000Y-70170000D03*
D23*
X50670000Y-90030000D03*
X48130000Y-90030000D03*
X53210000Y-90030000D03*
D12*
X30000000Y-39338520D03*
X30000000Y-27469100D03*
D13*
X36350000Y-28955000D03*
D14*
X38890000Y-30225000D03*
X36350000Y-31495000D03*
X38890000Y-32765000D03*
X36350000Y-34035000D03*
X38890000Y-35305000D03*
X36350000Y-36575000D03*
X38890000Y-37845000D03*
D24*
X46320000Y-33440000D03*
D25*
X48860000Y-33440000D03*
X46320000Y-35980000D03*
X48860000Y-35980000D03*
X46320000Y-38520000D03*
X48860000Y-38520000D03*
X46320000Y-41060000D03*
X48860000Y-41060000D03*
X46320000Y-43600000D03*
X48860000Y-43600000D03*
D26*
X57410000Y-79720000D03*
D27*
X59950000Y-79720000D03*
D28*
X67714000Y-87627000D03*
X67714000Y-84127000D03*
X67714000Y-80627000D03*
X67714000Y-77127000D03*
X67717000Y-45627000D03*
X67717000Y-42127000D03*
X67717000Y-38627000D03*
X67717000Y-35127000D03*
X67714000Y-59627000D03*
X67714000Y-56127000D03*
X67714000Y-52627000D03*
X67714000Y-49127000D03*
X67714000Y-73627000D03*
X67714000Y-70127000D03*
X67714000Y-66627000D03*
X67714000Y-63127000D03*
X101712000Y-91567000D03*
X105212000Y-91567000D03*
X108712000Y-91567000D03*
X112212000Y-91567000D03*
X120016000Y-49000000D03*
X120016000Y-52500000D03*
X120016000Y-56000000D03*
X120016000Y-59500000D03*
X120016000Y-35000000D03*
X120016000Y-38500000D03*
X120016000Y-42000000D03*
X120016000Y-45500000D03*
X108555100Y-29324300D03*
X112055100Y-29324300D03*
X115555100Y-29324300D03*
X119055100Y-29324300D03*
X120016000Y-77000000D03*
X120016000Y-80500000D03*
X120016000Y-84000000D03*
X120016000Y-87500000D03*
X120016000Y-63000000D03*
X120016000Y-66500000D03*
X120016000Y-70000000D03*
X120016000Y-73500000D03*
X80279000Y-91440000D03*
X76779000Y-91440000D03*
X73279000Y-91440000D03*
X69779000Y-91440000D03*
D29*
X58343800Y-86238200D03*
D30*
X58343800Y-89738200D03*
M02*
