G04 #@! TF.FileFunction,Legend,Bot*
%FSLAX46Y46*%
G04 Gerber Fmt 4.6, Leading zero omitted, Abs format (unit mm)*
G04 Created by KiCad (PCBNEW 4.1.0-alpha+201608211231+7083~46~ubuntu14.04.1-product) date Fri Aug 26 11:20:39 2016*
%MOMM*%
%LPD*%
G01*
G04 APERTURE LIST*
%ADD10C,0.150000*%
%ADD11C,0.300000*%
%ADD12C,0.400000*%
%ADD13C,0.200000*%
%ADD14C,0.099060*%
%ADD15C,0.127000*%
%ADD16C,0.304800*%
%ADD17C,0.203200*%
%ADD18C,0.381000*%
%ADD19C,0.109220*%
%ADD20C,0.119380*%
%ADD21C,0.152400*%
G04 APERTURE END LIST*
D10*
D11*
X111008642Y-25546928D02*
X111080071Y-25475500D01*
X111222928Y-25404071D01*
X111580071Y-25404071D01*
X111722928Y-25475500D01*
X111794357Y-25546928D01*
X111865785Y-25689785D01*
X111865785Y-25832642D01*
X111794357Y-26046928D01*
X110937214Y-26904071D01*
X111865785Y-26904071D01*
X113222928Y-25404071D02*
X112508642Y-25404071D01*
X112437214Y-26118357D01*
X112508642Y-26046928D01*
X112651500Y-25975500D01*
X113008642Y-25975500D01*
X113151500Y-26046928D01*
X113222928Y-26118357D01*
X113294357Y-26261214D01*
X113294357Y-26618357D01*
X113222928Y-26761214D01*
X113151500Y-26832642D01*
X113008642Y-26904071D01*
X112651500Y-26904071D01*
X112508642Y-26832642D01*
X112437214Y-26761214D01*
X114513842Y-25508828D02*
X114585271Y-25437400D01*
X114728128Y-25365971D01*
X115085271Y-25365971D01*
X115228128Y-25437400D01*
X115299557Y-25508828D01*
X115370985Y-25651685D01*
X115370985Y-25794542D01*
X115299557Y-26008828D01*
X114442414Y-26865971D01*
X115370985Y-26865971D01*
X116656700Y-25365971D02*
X116370985Y-25365971D01*
X116228128Y-25437400D01*
X116156700Y-25508828D01*
X116013842Y-25723114D01*
X115942414Y-26008828D01*
X115942414Y-26580257D01*
X116013842Y-26723114D01*
X116085271Y-26794542D01*
X116228128Y-26865971D01*
X116513842Y-26865971D01*
X116656700Y-26794542D01*
X116728128Y-26723114D01*
X116799557Y-26580257D01*
X116799557Y-26223114D01*
X116728128Y-26080257D01*
X116656700Y-26008828D01*
X116513842Y-25937400D01*
X116228128Y-25937400D01*
X116085271Y-26008828D01*
X116013842Y-26080257D01*
X115942414Y-26223114D01*
X118069842Y-25546928D02*
X118141271Y-25475500D01*
X118284128Y-25404071D01*
X118641271Y-25404071D01*
X118784128Y-25475500D01*
X118855557Y-25546928D01*
X118926985Y-25689785D01*
X118926985Y-25832642D01*
X118855557Y-26046928D01*
X117998414Y-26904071D01*
X118926985Y-26904071D01*
X119426985Y-25404071D02*
X120426985Y-25404071D01*
X119784128Y-26904071D01*
X123701271Y-37617542D02*
X123772700Y-37688971D01*
X123844128Y-37831828D01*
X123844128Y-38188971D01*
X123772700Y-38331828D01*
X123701271Y-38403257D01*
X123558414Y-38474685D01*
X123415557Y-38474685D01*
X123201271Y-38403257D01*
X122344128Y-37546114D01*
X122344128Y-38474685D01*
X123201271Y-39331828D02*
X123272700Y-39188971D01*
X123344128Y-39117542D01*
X123486985Y-39046114D01*
X123558414Y-39046114D01*
X123701271Y-39117542D01*
X123772700Y-39188971D01*
X123844128Y-39331828D01*
X123844128Y-39617542D01*
X123772700Y-39760400D01*
X123701271Y-39831828D01*
X123558414Y-39903257D01*
X123486985Y-39903257D01*
X123344128Y-39831828D01*
X123272700Y-39760400D01*
X123201271Y-39617542D01*
X123201271Y-39331828D01*
X123129842Y-39188971D01*
X123058414Y-39117542D01*
X122915557Y-39046114D01*
X122629842Y-39046114D01*
X122486985Y-39117542D01*
X122415557Y-39188971D01*
X122344128Y-39331828D01*
X122344128Y-39617542D01*
X122415557Y-39760400D01*
X122486985Y-39831828D01*
X122629842Y-39903257D01*
X122915557Y-39903257D01*
X123058414Y-39831828D01*
X123129842Y-39760400D01*
X123201271Y-39617542D01*
X123815571Y-40932242D02*
X123887000Y-41003671D01*
X123958428Y-41146528D01*
X123958428Y-41503671D01*
X123887000Y-41646528D01*
X123815571Y-41717957D01*
X123672714Y-41789385D01*
X123529857Y-41789385D01*
X123315571Y-41717957D01*
X122458428Y-40860814D01*
X122458428Y-41789385D01*
X122458428Y-42503671D02*
X122458428Y-42789385D01*
X122529857Y-42932242D01*
X122601285Y-43003671D01*
X122815571Y-43146528D01*
X123101285Y-43217957D01*
X123672714Y-43217957D01*
X123815571Y-43146528D01*
X123887000Y-43075100D01*
X123958428Y-42932242D01*
X123958428Y-42646528D01*
X123887000Y-42503671D01*
X123815571Y-42432242D01*
X123672714Y-42360814D01*
X123315571Y-42360814D01*
X123172714Y-42432242D01*
X123101285Y-42503671D01*
X123029857Y-42646528D01*
X123029857Y-42932242D01*
X123101285Y-43075100D01*
X123172714Y-43146528D01*
X123315571Y-43217957D01*
X123844128Y-44289814D02*
X123844128Y-45218385D01*
X123272700Y-44718385D01*
X123272700Y-44932671D01*
X123201271Y-45075528D01*
X123129842Y-45146957D01*
X122986985Y-45218385D01*
X122629842Y-45218385D01*
X122486985Y-45146957D01*
X122415557Y-45075528D01*
X122344128Y-44932671D01*
X122344128Y-44504100D01*
X122415557Y-44361242D01*
X122486985Y-44289814D01*
X123844128Y-46146957D02*
X123844128Y-46289814D01*
X123772700Y-46432671D01*
X123701271Y-46504100D01*
X123558414Y-46575528D01*
X123272700Y-46646957D01*
X122915557Y-46646957D01*
X122629842Y-46575528D01*
X122486985Y-46504100D01*
X122415557Y-46432671D01*
X122344128Y-46289814D01*
X122344128Y-46146957D01*
X122415557Y-46004100D01*
X122486985Y-45932671D01*
X122629842Y-45861242D01*
X122915557Y-45789814D01*
X123272700Y-45789814D01*
X123558414Y-45861242D01*
X123701271Y-45932671D01*
X123772700Y-46004100D01*
X123844128Y-46146957D01*
X123577428Y-51338314D02*
X123577428Y-52266885D01*
X123006000Y-51766885D01*
X123006000Y-51981171D01*
X122934571Y-52124028D01*
X122863142Y-52195457D01*
X122720285Y-52266885D01*
X122363142Y-52266885D01*
X122220285Y-52195457D01*
X122148857Y-52124028D01*
X122077428Y-51981171D01*
X122077428Y-51552600D01*
X122148857Y-51409742D01*
X122220285Y-51338314D01*
X122077428Y-53695457D02*
X122077428Y-52838314D01*
X122077428Y-53266885D02*
X123577428Y-53266885D01*
X123363142Y-53124028D01*
X123220285Y-52981171D01*
X123148857Y-52838314D01*
X123577428Y-54995914D02*
X123577428Y-55924485D01*
X123006000Y-55424485D01*
X123006000Y-55638771D01*
X122934571Y-55781628D01*
X122863142Y-55853057D01*
X122720285Y-55924485D01*
X122363142Y-55924485D01*
X122220285Y-55853057D01*
X122148857Y-55781628D01*
X122077428Y-55638771D01*
X122077428Y-55210200D01*
X122148857Y-55067342D01*
X122220285Y-54995914D01*
X123434571Y-56495914D02*
X123506000Y-56567342D01*
X123577428Y-56710200D01*
X123577428Y-57067342D01*
X123506000Y-57210200D01*
X123434571Y-57281628D01*
X123291714Y-57353057D01*
X123148857Y-57353057D01*
X122934571Y-57281628D01*
X122077428Y-56424485D01*
X122077428Y-57353057D01*
X122077428Y-59277285D02*
X122077428Y-59563000D01*
X122148857Y-59705857D01*
X122220285Y-59777285D01*
X122434571Y-59920142D01*
X122720285Y-59991571D01*
X123291714Y-59991571D01*
X123434571Y-59920142D01*
X123506000Y-59848714D01*
X123577428Y-59705857D01*
X123577428Y-59420142D01*
X123506000Y-59277285D01*
X123434571Y-59205857D01*
X123291714Y-59134428D01*
X122934571Y-59134428D01*
X122791714Y-59205857D01*
X122720285Y-59277285D01*
X122648857Y-59420142D01*
X122648857Y-59705857D01*
X122720285Y-59848714D01*
X122791714Y-59920142D01*
X122934571Y-59991571D01*
X122191728Y-66516285D02*
X122191728Y-65659142D01*
X122191728Y-66087714D02*
X123691728Y-66087714D01*
X123477442Y-65944857D01*
X123334585Y-65802000D01*
X123263157Y-65659142D01*
X123691728Y-67444857D02*
X123691728Y-67587714D01*
X123620300Y-67730571D01*
X123548871Y-67802000D01*
X123406014Y-67873428D01*
X123120300Y-67944857D01*
X122763157Y-67944857D01*
X122477442Y-67873428D01*
X122334585Y-67802000D01*
X122263157Y-67730571D01*
X122191728Y-67587714D01*
X122191728Y-67444857D01*
X122263157Y-67302000D01*
X122334585Y-67230571D01*
X122477442Y-67159142D01*
X122763157Y-67087714D01*
X123120300Y-67087714D01*
X123406014Y-67159142D01*
X123548871Y-67230571D01*
X123620300Y-67302000D01*
X123691728Y-67444857D01*
X122306028Y-69792885D02*
X122306028Y-68935742D01*
X122306028Y-69364314D02*
X123806028Y-69364314D01*
X123591742Y-69221457D01*
X123448885Y-69078600D01*
X123377457Y-68935742D01*
X122306028Y-71221457D02*
X122306028Y-70364314D01*
X122306028Y-70792885D02*
X123806028Y-70792885D01*
X123591742Y-70650028D01*
X123448885Y-70507171D01*
X123377457Y-70364314D01*
X122306028Y-73183785D02*
X122306028Y-72326642D01*
X122306028Y-72755214D02*
X123806028Y-72755214D01*
X123591742Y-72612357D01*
X123448885Y-72469500D01*
X123377457Y-72326642D01*
X123663171Y-73755214D02*
X123734600Y-73826642D01*
X123806028Y-73969500D01*
X123806028Y-74326642D01*
X123734600Y-74469500D01*
X123663171Y-74540928D01*
X123520314Y-74612357D01*
X123377457Y-74612357D01*
X123163171Y-74540928D01*
X122306028Y-73683785D01*
X122306028Y-74612357D01*
X122382228Y-80308485D02*
X122382228Y-79451342D01*
X122382228Y-79879914D02*
X123882228Y-79879914D01*
X123667942Y-79737057D01*
X123525085Y-79594200D01*
X123453657Y-79451342D01*
X123882228Y-80808485D02*
X123882228Y-81737057D01*
X123310800Y-81237057D01*
X123310800Y-81451342D01*
X123239371Y-81594200D01*
X123167942Y-81665628D01*
X123025085Y-81737057D01*
X122667942Y-81737057D01*
X122525085Y-81665628D01*
X122453657Y-81594200D01*
X122382228Y-81451342D01*
X122382228Y-81022771D01*
X122453657Y-80879914D01*
X122525085Y-80808485D01*
X122382228Y-83813685D02*
X122382228Y-82956542D01*
X122382228Y-83385114D02*
X123882228Y-83385114D01*
X123667942Y-83242257D01*
X123525085Y-83099400D01*
X123453657Y-82956542D01*
X123382228Y-85099400D02*
X122382228Y-85099400D01*
X123953657Y-84742257D02*
X122882228Y-84385114D01*
X122882228Y-85313685D01*
X122229828Y-87242685D02*
X122229828Y-86385542D01*
X122229828Y-86814114D02*
X123729828Y-86814114D01*
X123515542Y-86671257D01*
X123372685Y-86528400D01*
X123301257Y-86385542D01*
X123729828Y-88599828D02*
X123729828Y-87885542D01*
X123015542Y-87814114D01*
X123086971Y-87885542D01*
X123158400Y-88028400D01*
X123158400Y-88385542D01*
X123086971Y-88528400D01*
X123015542Y-88599828D01*
X122872685Y-88671257D01*
X122515542Y-88671257D01*
X122372685Y-88599828D01*
X122301257Y-88528400D01*
X122229828Y-88385542D01*
X122229828Y-88028400D01*
X122301257Y-87885542D01*
X122372685Y-87814114D01*
X112030885Y-94506171D02*
X111173742Y-94506171D01*
X111602314Y-94506171D02*
X111602314Y-93006171D01*
X111459457Y-93220457D01*
X111316600Y-93363314D01*
X111173742Y-93434742D01*
X113316600Y-93006171D02*
X113030885Y-93006171D01*
X112888028Y-93077600D01*
X112816600Y-93149028D01*
X112673742Y-93363314D01*
X112602314Y-93649028D01*
X112602314Y-94220457D01*
X112673742Y-94363314D01*
X112745171Y-94434742D01*
X112888028Y-94506171D01*
X113173742Y-94506171D01*
X113316600Y-94434742D01*
X113388028Y-94363314D01*
X113459457Y-94220457D01*
X113459457Y-93863314D01*
X113388028Y-93720457D01*
X113316600Y-93649028D01*
X113173742Y-93577600D01*
X112888028Y-93577600D01*
X112745171Y-93649028D01*
X112673742Y-93720457D01*
X112602314Y-93863314D01*
X105709371Y-94506171D02*
X104852228Y-94506171D01*
X105280800Y-94506171D02*
X105280800Y-93006171D01*
X105137942Y-93220457D01*
X104995085Y-93363314D01*
X104852228Y-93434742D01*
X76330228Y-93745928D02*
X76401657Y-93674500D01*
X76544514Y-93603071D01*
X76901657Y-93603071D01*
X77044514Y-93674500D01*
X77115942Y-93745928D01*
X77187371Y-93888785D01*
X77187371Y-94031642D01*
X77115942Y-94245928D01*
X76258800Y-95103071D01*
X77187371Y-95103071D01*
X72867900Y-93679271D02*
X73796471Y-93679271D01*
X73296471Y-94250700D01*
X73510757Y-94250700D01*
X73653614Y-94322128D01*
X73725042Y-94393557D01*
X73796471Y-94536414D01*
X73796471Y-94893557D01*
X73725042Y-95036414D01*
X73653614Y-95107842D01*
X73510757Y-95179271D01*
X73082185Y-95179271D01*
X72939328Y-95107842D01*
X72867900Y-95036414D01*
X70224614Y-94103071D02*
X70224614Y-95103071D01*
X69867471Y-93531642D02*
X69510328Y-94603071D01*
X70438900Y-94603071D01*
X65767028Y-84469242D02*
X65767028Y-83754957D01*
X65052742Y-83683528D01*
X65124171Y-83754957D01*
X65195600Y-83897814D01*
X65195600Y-84254957D01*
X65124171Y-84397814D01*
X65052742Y-84469242D01*
X64909885Y-84540671D01*
X64552742Y-84540671D01*
X64409885Y-84469242D01*
X64338457Y-84397814D01*
X64267028Y-84254957D01*
X64267028Y-83897814D01*
X64338457Y-83754957D01*
X64409885Y-83683528D01*
X65754328Y-80841814D02*
X65754328Y-80556100D01*
X65682900Y-80413242D01*
X65611471Y-80341814D01*
X65397185Y-80198957D01*
X65111471Y-80127528D01*
X64540042Y-80127528D01*
X64397185Y-80198957D01*
X64325757Y-80270385D01*
X64254328Y-80413242D01*
X64254328Y-80698957D01*
X64325757Y-80841814D01*
X64397185Y-80913242D01*
X64540042Y-80984671D01*
X64897185Y-80984671D01*
X65040042Y-80913242D01*
X65111471Y-80841814D01*
X65182900Y-80698957D01*
X65182900Y-80413242D01*
X65111471Y-80270385D01*
X65040042Y-80198957D01*
X64897185Y-80127528D01*
X65830528Y-76703300D02*
X65830528Y-77703300D01*
X64330528Y-77060442D01*
X65035271Y-69897642D02*
X65106700Y-69754785D01*
X65178128Y-69683357D01*
X65320985Y-69611928D01*
X65392414Y-69611928D01*
X65535271Y-69683357D01*
X65606700Y-69754785D01*
X65678128Y-69897642D01*
X65678128Y-70183357D01*
X65606700Y-70326214D01*
X65535271Y-70397642D01*
X65392414Y-70469071D01*
X65320985Y-70469071D01*
X65178128Y-70397642D01*
X65106700Y-70326214D01*
X65035271Y-70183357D01*
X65035271Y-69897642D01*
X64963842Y-69754785D01*
X64892414Y-69683357D01*
X64749557Y-69611928D01*
X64463842Y-69611928D01*
X64320985Y-69683357D01*
X64249557Y-69754785D01*
X64178128Y-69897642D01*
X64178128Y-70183357D01*
X64249557Y-70326214D01*
X64320985Y-70397642D01*
X64463842Y-70469071D01*
X64749557Y-70469071D01*
X64892414Y-70397642D01*
X64963842Y-70326214D01*
X65035271Y-70183357D01*
X64063828Y-66401985D02*
X64063828Y-65544842D01*
X64063828Y-65973414D02*
X65563828Y-65973414D01*
X65349542Y-65830557D01*
X65206685Y-65687700D01*
X65135257Y-65544842D01*
X65563828Y-66901985D02*
X65563828Y-67901985D01*
X64063828Y-67259128D01*
X64063828Y-62896785D02*
X64063828Y-62039642D01*
X64063828Y-62468214D02*
X65563828Y-62468214D01*
X65349542Y-62325357D01*
X65206685Y-62182500D01*
X65135257Y-62039642D01*
X64920971Y-63753928D02*
X64992400Y-63611071D01*
X65063828Y-63539642D01*
X65206685Y-63468214D01*
X65278114Y-63468214D01*
X65420971Y-63539642D01*
X65492400Y-63611071D01*
X65563828Y-63753928D01*
X65563828Y-64039642D01*
X65492400Y-64182500D01*
X65420971Y-64253928D01*
X65278114Y-64325357D01*
X65206685Y-64325357D01*
X65063828Y-64253928D01*
X64992400Y-64182500D01*
X64920971Y-64039642D01*
X64920971Y-63753928D01*
X64849542Y-63611071D01*
X64778114Y-63539642D01*
X64635257Y-63468214D01*
X64349542Y-63468214D01*
X64206685Y-63539642D01*
X64135257Y-63611071D01*
X64063828Y-63753928D01*
X64063828Y-64039642D01*
X64135257Y-64182500D01*
X64206685Y-64253928D01*
X64349542Y-64325357D01*
X64635257Y-64325357D01*
X64778114Y-64253928D01*
X64849542Y-64182500D01*
X64920971Y-64039642D01*
X63949528Y-55886385D02*
X63949528Y-55029242D01*
X63949528Y-55457814D02*
X65449528Y-55457814D01*
X65235242Y-55314957D01*
X65092385Y-55172100D01*
X65020957Y-55029242D01*
X63949528Y-56600671D02*
X63949528Y-56886385D01*
X64020957Y-57029242D01*
X64092385Y-57100671D01*
X64306671Y-57243528D01*
X64592385Y-57314957D01*
X65163814Y-57314957D01*
X65306671Y-57243528D01*
X65378100Y-57172100D01*
X65449528Y-57029242D01*
X65449528Y-56743528D01*
X65378100Y-56600671D01*
X65306671Y-56529242D01*
X65163814Y-56457814D01*
X64806671Y-56457814D01*
X64663814Y-56529242D01*
X64592385Y-56600671D01*
X64520957Y-56743528D01*
X64520957Y-57029242D01*
X64592385Y-57172100D01*
X64663814Y-57243528D01*
X64806671Y-57314957D01*
X65344771Y-51524042D02*
X65416200Y-51595471D01*
X65487628Y-51738328D01*
X65487628Y-52095471D01*
X65416200Y-52238328D01*
X65344771Y-52309757D01*
X65201914Y-52381185D01*
X65059057Y-52381185D01*
X64844771Y-52309757D01*
X63987628Y-51452614D01*
X63987628Y-52381185D01*
X65487628Y-53309757D02*
X65487628Y-53452614D01*
X65416200Y-53595471D01*
X65344771Y-53666900D01*
X65201914Y-53738328D01*
X64916200Y-53809757D01*
X64559057Y-53809757D01*
X64273342Y-53738328D01*
X64130485Y-53666900D01*
X64059057Y-53595471D01*
X63987628Y-53452614D01*
X63987628Y-53309757D01*
X64059057Y-53166900D01*
X64130485Y-53095471D01*
X64273342Y-53024042D01*
X64559057Y-52952614D01*
X64916200Y-52952614D01*
X65201914Y-53024042D01*
X65344771Y-53095471D01*
X65416200Y-53166900D01*
X65487628Y-53309757D01*
X65420971Y-48056942D02*
X65492400Y-48128371D01*
X65563828Y-48271228D01*
X65563828Y-48628371D01*
X65492400Y-48771228D01*
X65420971Y-48842657D01*
X65278114Y-48914085D01*
X65135257Y-48914085D01*
X64920971Y-48842657D01*
X64063828Y-47985514D01*
X64063828Y-48914085D01*
X64063828Y-50342657D02*
X64063828Y-49485514D01*
X64063828Y-49914085D02*
X65563828Y-49914085D01*
X65349542Y-49771228D01*
X65206685Y-49628371D01*
X65135257Y-49485514D01*
X65459071Y-41008442D02*
X65530500Y-41079871D01*
X65601928Y-41222728D01*
X65601928Y-41579871D01*
X65530500Y-41722728D01*
X65459071Y-41794157D01*
X65316214Y-41865585D01*
X65173357Y-41865585D01*
X64959071Y-41794157D01*
X64101928Y-40937014D01*
X64101928Y-41865585D01*
X65459071Y-42437014D02*
X65530500Y-42508442D01*
X65601928Y-42651300D01*
X65601928Y-43008442D01*
X65530500Y-43151300D01*
X65459071Y-43222728D01*
X65316214Y-43294157D01*
X65173357Y-43294157D01*
X64959071Y-43222728D01*
X64101928Y-42365585D01*
X64101928Y-43294157D01*
X65611471Y-37427042D02*
X65682900Y-37498471D01*
X65754328Y-37641328D01*
X65754328Y-37998471D01*
X65682900Y-38141328D01*
X65611471Y-38212757D01*
X65468614Y-38284185D01*
X65325757Y-38284185D01*
X65111471Y-38212757D01*
X64254328Y-37355614D01*
X64254328Y-38284185D01*
X65754328Y-38784185D02*
X65754328Y-39712757D01*
X65182900Y-39212757D01*
X65182900Y-39427042D01*
X65111471Y-39569900D01*
X65040042Y-39641328D01*
X64897185Y-39712757D01*
X64540042Y-39712757D01*
X64397185Y-39641328D01*
X64325757Y-39569900D01*
X64254328Y-39427042D01*
X64254328Y-38998471D01*
X64325757Y-38855614D01*
X64397185Y-38784185D01*
X65611471Y-33769442D02*
X65682900Y-33840871D01*
X65754328Y-33983728D01*
X65754328Y-34340871D01*
X65682900Y-34483728D01*
X65611471Y-34555157D01*
X65468614Y-34626585D01*
X65325757Y-34626585D01*
X65111471Y-34555157D01*
X64254328Y-33698014D01*
X64254328Y-34626585D01*
X65254328Y-35912300D02*
X64254328Y-35912300D01*
X65825757Y-35555157D02*
X64754328Y-35198014D01*
X64754328Y-36126585D01*
D12*
X95784558Y-54990000D02*
G75*
G03X95784558Y-54990000I-254558J0D01*
G01*
X95668329Y-76640000D02*
G75*
G03X95668329Y-76640000I-298329J0D01*
G01*
D13*
X124460000Y-24130000D02*
X25400000Y-24130000D01*
X124460000Y-96520000D02*
X124460000Y-24130000D01*
X25400000Y-96520000D02*
X124460000Y-96520000D01*
X25400000Y-24130000D02*
X25400000Y-96520000D01*
D14*
X54199000Y-55974000D02*
G75*
G03X54199000Y-55974000I-127000J0D01*
G01*
X54072000Y-57117000D02*
X54072000Y-56101000D01*
X54072000Y-56101000D02*
X52548000Y-56101000D01*
X52548000Y-56101000D02*
X52548000Y-57117000D01*
X52548000Y-58133000D02*
X52548000Y-59149000D01*
X52548000Y-59149000D02*
X54072000Y-59149000D01*
X54072000Y-59149000D02*
X54072000Y-58133000D01*
X54199000Y-50594000D02*
G75*
G03X54199000Y-50594000I-127000J0D01*
G01*
X54072000Y-51737000D02*
X54072000Y-50721000D01*
X54072000Y-50721000D02*
X52548000Y-50721000D01*
X52548000Y-50721000D02*
X52548000Y-51737000D01*
X52548000Y-52753000D02*
X52548000Y-53769000D01*
X52548000Y-53769000D02*
X54072000Y-53769000D01*
X54072000Y-53769000D02*
X54072000Y-52753000D01*
D15*
X60860000Y-55499000D02*
X60860000Y-56261000D01*
X61241000Y-55880000D02*
X60479000Y-55880000D01*
X58574000Y-55626000D02*
X58574000Y-59436000D01*
X62384000Y-54864000D02*
X59336000Y-54864000D01*
X58574000Y-55626000D02*
X59336000Y-54864000D01*
X63146000Y-55626000D02*
X63146000Y-59436000D01*
X63146000Y-55626000D02*
X62384000Y-54864000D01*
X60733000Y-59182000D02*
X60987000Y-59182000D01*
X61495000Y-59055000D02*
X60225000Y-59055000D01*
X59971000Y-58928000D02*
X61749000Y-58928000D01*
X59717000Y-58801000D02*
X62003000Y-58801000D01*
X62130000Y-58674000D02*
X59590000Y-58674000D01*
X59463000Y-58547000D02*
X62257000Y-58547000D01*
X62384000Y-58420000D02*
X59336000Y-58420000D01*
X62511000Y-58293000D02*
X59209000Y-58293000D01*
X62892000Y-57150000D02*
G75*
G03X62892000Y-57150000I-2032000J0D01*
G01*
X63146000Y-59436000D02*
X58574000Y-59436000D01*
X55010000Y-92887000D02*
X55010000Y-95173000D01*
X55010000Y-95173000D02*
X53359000Y-95173000D01*
X51581000Y-92887000D02*
X49930000Y-92887000D01*
X49930000Y-92887000D02*
X49930000Y-95173000D01*
X49930000Y-95173000D02*
X51581000Y-95173000D01*
X53359000Y-92887000D02*
X55010000Y-92887000D01*
D14*
X56465000Y-75551000D02*
G75*
G03X56465000Y-75551000I-127000J0D01*
G01*
X56338000Y-74408000D02*
X56338000Y-75424000D01*
X56338000Y-75424000D02*
X57862000Y-75424000D01*
X57862000Y-75424000D02*
X57862000Y-74408000D01*
X57862000Y-73392000D02*
X57862000Y-72376000D01*
X57862000Y-72376000D02*
X56338000Y-72376000D01*
X56338000Y-72376000D02*
X56338000Y-73392000D01*
D15*
X52000000Y-84147000D02*
X52000000Y-86433000D01*
X52000000Y-86433000D02*
X50349000Y-86433000D01*
X48571000Y-84147000D02*
X46920000Y-84147000D01*
X46920000Y-84147000D02*
X46920000Y-86433000D01*
X46920000Y-86433000D02*
X48571000Y-86433000D01*
X50349000Y-84147000D02*
X52000000Y-84147000D01*
D16*
X43016200Y-79883800D02*
X53023800Y-79883800D01*
X53023800Y-79883800D02*
X53023800Y-69876200D01*
X43498800Y-69876200D02*
X53023800Y-69876200D01*
X43016200Y-70358800D02*
X43016200Y-79883800D01*
X43498800Y-69876200D02*
X43016200Y-70358800D01*
D17*
X44845000Y-71070000D02*
G75*
G03X44845000Y-71070000I-635000J0D01*
G01*
D10*
X91595000Y-77545000D02*
X91595000Y-77220000D01*
X96245000Y-77545000D02*
X96245000Y-77220000D01*
X96245000Y-67595000D02*
X96245000Y-67920000D01*
X91595000Y-67595000D02*
X91595000Y-67920000D01*
X91595000Y-77545000D02*
X96245000Y-77545000D01*
X91595000Y-67595000D02*
X96245000Y-67595000D01*
X91595000Y-77220000D02*
X90520000Y-77220000D01*
X91915000Y-55715000D02*
X91915000Y-55390000D01*
X96565000Y-55715000D02*
X96565000Y-55390000D01*
X96565000Y-45765000D02*
X96565000Y-46090000D01*
X91915000Y-45765000D02*
X91915000Y-46090000D01*
X91915000Y-55715000D02*
X96565000Y-55715000D01*
X91915000Y-45765000D02*
X96565000Y-45765000D01*
X91915000Y-55390000D02*
X90840000Y-55390000D01*
X38651900Y-62256100D02*
X39851900Y-62256100D01*
X39851900Y-60506100D02*
X38651900Y-60506100D01*
X38681900Y-65026100D02*
X39881900Y-65026100D01*
X39881900Y-63276100D02*
X38681900Y-63276100D01*
X61355000Y-74010000D02*
X61355000Y-72810000D01*
X59605000Y-72810000D02*
X59605000Y-74010000D01*
X95170000Y-62745000D02*
X93970000Y-62745000D01*
X93970000Y-64495000D02*
X95170000Y-64495000D01*
X95120000Y-58495000D02*
X93920000Y-58495000D01*
X93920000Y-60245000D02*
X95120000Y-60245000D01*
X83910000Y-87885000D02*
X85110000Y-87885000D01*
X85110000Y-86135000D02*
X83910000Y-86135000D01*
X83890000Y-84905000D02*
X85090000Y-84905000D01*
X85090000Y-83155000D02*
X83890000Y-83155000D01*
X83910000Y-80835000D02*
X85110000Y-80835000D01*
X85110000Y-79085000D02*
X83910000Y-79085000D01*
X83900000Y-77875000D02*
X85100000Y-77875000D01*
X85100000Y-76125000D02*
X83900000Y-76125000D01*
X83860000Y-74425000D02*
X85060000Y-74425000D01*
X85060000Y-72675000D02*
X83860000Y-72675000D01*
X83900000Y-71375000D02*
X85100000Y-71375000D01*
X85100000Y-69625000D02*
X83900000Y-69625000D01*
X83930000Y-68275000D02*
X85130000Y-68275000D01*
X85130000Y-66525000D02*
X83930000Y-66525000D01*
X83890000Y-65685000D02*
X85090000Y-65685000D01*
X85090000Y-63935000D02*
X83890000Y-63935000D01*
X104200000Y-63425000D02*
X103000000Y-63425000D01*
X103000000Y-65175000D02*
X104200000Y-65175000D01*
X104700000Y-66425000D02*
X103500000Y-66425000D01*
X103500000Y-68175000D02*
X104700000Y-68175000D01*
X104670000Y-70015000D02*
X103470000Y-70015000D01*
X103470000Y-71765000D02*
X104670000Y-71765000D01*
X104700000Y-73125000D02*
X103500000Y-73125000D01*
X103500000Y-74875000D02*
X104700000Y-74875000D01*
X104670000Y-76465000D02*
X103470000Y-76465000D01*
X103470000Y-78215000D02*
X104670000Y-78215000D01*
X104200000Y-79525000D02*
X103000000Y-79525000D01*
X103000000Y-81275000D02*
X104200000Y-81275000D01*
X104200000Y-83525000D02*
X103000000Y-83525000D01*
X103000000Y-85275000D02*
X104200000Y-85275000D01*
X104200000Y-86725000D02*
X103000000Y-86725000D01*
X103000000Y-88475000D02*
X104200000Y-88475000D01*
X83890000Y-60005000D02*
X85090000Y-60005000D01*
X85090000Y-58255000D02*
X83890000Y-58255000D01*
X83880000Y-56955000D02*
X85080000Y-56955000D01*
X85080000Y-55205000D02*
X83880000Y-55205000D01*
X84000000Y-54025000D02*
X85200000Y-54025000D01*
X85200000Y-52275000D02*
X84000000Y-52275000D01*
X83900000Y-51095000D02*
X85100000Y-51095000D01*
X85100000Y-49345000D02*
X83900000Y-49345000D01*
X83960000Y-47035000D02*
X85160000Y-47035000D01*
X85160000Y-45285000D02*
X83960000Y-45285000D01*
X83940000Y-44025000D02*
X85140000Y-44025000D01*
X85140000Y-42275000D02*
X83940000Y-42275000D01*
X83920000Y-41295000D02*
X85120000Y-41295000D01*
X85120000Y-39545000D02*
X83920000Y-39545000D01*
X83870000Y-38395000D02*
X85070000Y-38395000D01*
X85070000Y-36645000D02*
X83870000Y-36645000D01*
X105000000Y-35025000D02*
X103800000Y-35025000D01*
X103800000Y-36775000D02*
X105000000Y-36775000D01*
X105000000Y-38225000D02*
X103800000Y-38225000D01*
X103800000Y-39975000D02*
X105000000Y-39975000D01*
X104970000Y-41645000D02*
X103770000Y-41645000D01*
X103770000Y-43395000D02*
X104970000Y-43395000D01*
X105000000Y-44725000D02*
X103800000Y-44725000D01*
X103800000Y-46475000D02*
X105000000Y-46475000D01*
X104970000Y-47995000D02*
X103770000Y-47995000D01*
X103770000Y-49745000D02*
X104970000Y-49745000D01*
X105000000Y-50925000D02*
X103800000Y-50925000D01*
X103800000Y-52675000D02*
X105000000Y-52675000D01*
X104970000Y-54345000D02*
X103770000Y-54345000D01*
X103770000Y-56095000D02*
X104970000Y-56095000D01*
X105000000Y-57625000D02*
X103800000Y-57625000D01*
X103800000Y-59375000D02*
X105000000Y-59375000D01*
D15*
X61087000Y-41148000D02*
X61087000Y-41275000D01*
X61087000Y-41275000D02*
X55753000Y-41275000D01*
X55753000Y-37465000D02*
X61087000Y-37465000D01*
X61087000Y-37465000D02*
X61087000Y-41148000D01*
X61087000Y-38862000D02*
X60579000Y-38862000D01*
X60579000Y-38862000D02*
X60579000Y-39878000D01*
X60579000Y-39878000D02*
X61087000Y-39878000D01*
X55753000Y-37465000D02*
X55753000Y-41275000D01*
D10*
X78935000Y-82255000D02*
X78935000Y-82400000D01*
X74785000Y-82255000D02*
X74785000Y-82400000D01*
X74785000Y-87405000D02*
X74785000Y-87260000D01*
X78935000Y-87405000D02*
X78935000Y-87260000D01*
X78935000Y-82255000D02*
X74785000Y-82255000D01*
X78935000Y-87405000D02*
X74785000Y-87405000D01*
X78935000Y-82400000D02*
X80335000Y-82400000D01*
X78925000Y-75775000D02*
X78925000Y-75920000D01*
X74775000Y-75775000D02*
X74775000Y-75920000D01*
X74775000Y-80925000D02*
X74775000Y-80780000D01*
X78925000Y-80925000D02*
X78925000Y-80780000D01*
X78925000Y-75775000D02*
X74775000Y-75775000D01*
X78925000Y-80925000D02*
X74775000Y-80925000D01*
X78925000Y-75920000D02*
X80325000Y-75920000D01*
X78925000Y-69425000D02*
X78925000Y-69570000D01*
X74775000Y-69425000D02*
X74775000Y-69570000D01*
X74775000Y-74575000D02*
X74775000Y-74430000D01*
X78925000Y-74575000D02*
X78925000Y-74430000D01*
X78925000Y-69425000D02*
X74775000Y-69425000D01*
X78925000Y-74575000D02*
X74775000Y-74575000D01*
X78925000Y-69570000D02*
X80325000Y-69570000D01*
X78925000Y-63075000D02*
X78925000Y-63220000D01*
X74775000Y-63075000D02*
X74775000Y-63220000D01*
X74775000Y-68225000D02*
X74775000Y-68080000D01*
X78925000Y-68225000D02*
X78925000Y-68080000D01*
X78925000Y-63075000D02*
X74775000Y-63075000D01*
X78925000Y-68225000D02*
X74775000Y-68225000D01*
X78925000Y-63220000D02*
X80325000Y-63220000D01*
X109765000Y-68385000D02*
X109765000Y-68240000D01*
X113915000Y-68385000D02*
X113915000Y-68240000D01*
X113915000Y-63235000D02*
X113915000Y-63380000D01*
X109765000Y-63235000D02*
X109765000Y-63380000D01*
X109765000Y-68385000D02*
X113915000Y-68385000D01*
X109765000Y-63235000D02*
X113915000Y-63235000D01*
X109765000Y-68240000D02*
X108365000Y-68240000D01*
X109765000Y-74735000D02*
X109765000Y-74590000D01*
X113915000Y-74735000D02*
X113915000Y-74590000D01*
X113915000Y-69585000D02*
X113915000Y-69730000D01*
X109765000Y-69585000D02*
X109765000Y-69730000D01*
X109765000Y-74735000D02*
X113915000Y-74735000D01*
X109765000Y-69585000D02*
X113915000Y-69585000D01*
X109765000Y-74590000D02*
X108365000Y-74590000D01*
X109765000Y-81085000D02*
X109765000Y-80940000D01*
X113915000Y-81085000D02*
X113915000Y-80940000D01*
X113915000Y-75935000D02*
X113915000Y-76080000D01*
X109765000Y-75935000D02*
X109765000Y-76080000D01*
X109765000Y-81085000D02*
X113915000Y-81085000D01*
X109765000Y-75935000D02*
X113915000Y-75935000D01*
X109765000Y-80940000D02*
X108365000Y-80940000D01*
X109765000Y-87435000D02*
X109765000Y-87290000D01*
X113915000Y-87435000D02*
X113915000Y-87290000D01*
X113915000Y-82285000D02*
X113915000Y-82430000D01*
X109765000Y-82285000D02*
X109765000Y-82430000D01*
X109765000Y-87435000D02*
X113915000Y-87435000D01*
X109765000Y-82285000D02*
X113915000Y-82285000D01*
X109765000Y-87290000D02*
X108365000Y-87290000D01*
X78925000Y-55455000D02*
X78925000Y-55600000D01*
X74775000Y-55455000D02*
X74775000Y-55600000D01*
X74775000Y-60605000D02*
X74775000Y-60460000D01*
X78925000Y-60605000D02*
X78925000Y-60460000D01*
X78925000Y-55455000D02*
X74775000Y-55455000D01*
X78925000Y-60605000D02*
X74775000Y-60605000D01*
X78925000Y-55600000D02*
X80325000Y-55600000D01*
X78925000Y-49105000D02*
X78925000Y-49250000D01*
X74775000Y-49105000D02*
X74775000Y-49250000D01*
X74775000Y-54255000D02*
X74775000Y-54110000D01*
X78925000Y-54255000D02*
X78925000Y-54110000D01*
X78925000Y-49105000D02*
X74775000Y-49105000D01*
X78925000Y-54255000D02*
X74775000Y-54255000D01*
X78925000Y-49250000D02*
X80325000Y-49250000D01*
X78925000Y-42755000D02*
X78925000Y-42900000D01*
X74775000Y-42755000D02*
X74775000Y-42900000D01*
X74775000Y-47905000D02*
X74775000Y-47760000D01*
X78925000Y-47905000D02*
X78925000Y-47760000D01*
X78925000Y-42755000D02*
X74775000Y-42755000D01*
X78925000Y-47905000D02*
X74775000Y-47905000D01*
X78925000Y-42900000D02*
X80325000Y-42900000D01*
X78925000Y-36405000D02*
X78925000Y-36550000D01*
X74775000Y-36405000D02*
X74775000Y-36550000D01*
X74775000Y-41555000D02*
X74775000Y-41410000D01*
X78925000Y-41555000D02*
X78925000Y-41410000D01*
X78925000Y-36405000D02*
X74775000Y-36405000D01*
X78925000Y-41555000D02*
X74775000Y-41555000D01*
X78925000Y-36550000D02*
X80325000Y-36550000D01*
X109765000Y-40015000D02*
X109765000Y-39870000D01*
X113915000Y-40015000D02*
X113915000Y-39870000D01*
X113915000Y-34865000D02*
X113915000Y-35010000D01*
X109765000Y-34865000D02*
X109765000Y-35010000D01*
X109765000Y-40015000D02*
X113915000Y-40015000D01*
X109765000Y-34865000D02*
X113915000Y-34865000D01*
X109765000Y-39870000D02*
X108365000Y-39870000D01*
X109765000Y-46365000D02*
X109765000Y-46220000D01*
X113915000Y-46365000D02*
X113915000Y-46220000D01*
X113915000Y-41215000D02*
X113915000Y-41360000D01*
X109765000Y-41215000D02*
X109765000Y-41360000D01*
X109765000Y-46365000D02*
X113915000Y-46365000D01*
X109765000Y-41215000D02*
X113915000Y-41215000D01*
X109765000Y-46220000D02*
X108365000Y-46220000D01*
X109765000Y-52715000D02*
X109765000Y-52570000D01*
X113915000Y-52715000D02*
X113915000Y-52570000D01*
X113915000Y-47565000D02*
X113915000Y-47710000D01*
X109765000Y-47565000D02*
X109765000Y-47710000D01*
X109765000Y-52715000D02*
X113915000Y-52715000D01*
X109765000Y-47565000D02*
X113915000Y-47565000D01*
X109765000Y-52570000D02*
X108365000Y-52570000D01*
X109765000Y-59065000D02*
X109765000Y-58920000D01*
X113915000Y-59065000D02*
X113915000Y-58920000D01*
X113915000Y-53915000D02*
X113915000Y-54060000D01*
X109765000Y-53915000D02*
X109765000Y-54060000D01*
X109765000Y-59065000D02*
X113915000Y-59065000D01*
X109765000Y-53915000D02*
X113915000Y-53915000D01*
X109765000Y-58920000D02*
X108365000Y-58920000D01*
D18*
X46575640Y-62624620D02*
X46575640Y-50925380D01*
X51574360Y-50925380D02*
X51574360Y-62624620D01*
X46575640Y-50925380D02*
X47424000Y-50925380D01*
X51574360Y-50925380D02*
X50726000Y-50925380D01*
X46575640Y-62624620D02*
X47424000Y-62624620D01*
X51574360Y-62624620D02*
X50726000Y-62624620D01*
D19*
X52168707Y-57591603D02*
X52192534Y-57567775D01*
X52216362Y-57496292D01*
X52216362Y-57448637D01*
X52192534Y-57377154D01*
X52144879Y-57329499D01*
X52097224Y-57305671D01*
X52001913Y-57281844D01*
X51930430Y-57281844D01*
X51835120Y-57305671D01*
X51787465Y-57329499D01*
X51739810Y-57377154D01*
X51715982Y-57448637D01*
X51715982Y-57496292D01*
X51739810Y-57567775D01*
X51763637Y-57591603D01*
X52216362Y-58068155D02*
X52216362Y-57782224D01*
X52216362Y-57925190D02*
X51715982Y-57925190D01*
X51787465Y-57877534D01*
X51835120Y-57829879D01*
X51858948Y-57782224D01*
X54363637Y-57037395D02*
X54339810Y-57061223D01*
X54315982Y-57108878D01*
X54315982Y-57228016D01*
X54339810Y-57275671D01*
X54363637Y-57299499D01*
X54411292Y-57323327D01*
X54458948Y-57323327D01*
X54530430Y-57299499D01*
X54816362Y-57013568D01*
X54816362Y-57323327D01*
X54363637Y-57513948D02*
X54339810Y-57537775D01*
X54315982Y-57585430D01*
X54315982Y-57704569D01*
X54339810Y-57752224D01*
X54363637Y-57776051D01*
X54411292Y-57799879D01*
X54458948Y-57799879D01*
X54530430Y-57776051D01*
X54816362Y-57490120D01*
X54816362Y-57799879D01*
X54482775Y-58014328D02*
X54983155Y-58014328D01*
X54506603Y-58014328D02*
X54482775Y-58061983D01*
X54482775Y-58157293D01*
X54506603Y-58204949D01*
X54530430Y-58228776D01*
X54578086Y-58252604D01*
X54721051Y-58252604D01*
X54768707Y-58228776D01*
X54792534Y-58204949D01*
X54816362Y-58157293D01*
X54816362Y-58061983D01*
X54792534Y-58014328D01*
X52198707Y-52171603D02*
X52222534Y-52147775D01*
X52246362Y-52076292D01*
X52246362Y-52028637D01*
X52222534Y-51957154D01*
X52174879Y-51909499D01*
X52127224Y-51885671D01*
X52031913Y-51861844D01*
X51960430Y-51861844D01*
X51865120Y-51885671D01*
X51817465Y-51909499D01*
X51769810Y-51957154D01*
X51745982Y-52028637D01*
X51745982Y-52076292D01*
X51769810Y-52147775D01*
X51793637Y-52171603D01*
X51793637Y-52362224D02*
X51769810Y-52386051D01*
X51745982Y-52433707D01*
X51745982Y-52552845D01*
X51769810Y-52600500D01*
X51793637Y-52624328D01*
X51841292Y-52648155D01*
X51888948Y-52648155D01*
X51960430Y-52624328D01*
X52246362Y-52338396D01*
X52246362Y-52648155D01*
X54333637Y-51587395D02*
X54309810Y-51611223D01*
X54285982Y-51658878D01*
X54285982Y-51778016D01*
X54309810Y-51825671D01*
X54333637Y-51849499D01*
X54381292Y-51873327D01*
X54428948Y-51873327D01*
X54500430Y-51849499D01*
X54786362Y-51563568D01*
X54786362Y-51873327D01*
X54333637Y-52063948D02*
X54309810Y-52087775D01*
X54285982Y-52135430D01*
X54285982Y-52254569D01*
X54309810Y-52302224D01*
X54333637Y-52326051D01*
X54381292Y-52349879D01*
X54428948Y-52349879D01*
X54500430Y-52326051D01*
X54786362Y-52040120D01*
X54786362Y-52349879D01*
X54452775Y-52564328D02*
X54953155Y-52564328D01*
X54476603Y-52564328D02*
X54452775Y-52611983D01*
X54452775Y-52707293D01*
X54476603Y-52754949D01*
X54500430Y-52778776D01*
X54548086Y-52802604D01*
X54691051Y-52802604D01*
X54738707Y-52778776D01*
X54762534Y-52754949D01*
X54786362Y-52707293D01*
X54786362Y-52611983D01*
X54762534Y-52564328D01*
D20*
X63832707Y-57066603D02*
X63856534Y-57042775D01*
X63880362Y-56971292D01*
X63880362Y-56923637D01*
X63856534Y-56852154D01*
X63808879Y-56804499D01*
X63761224Y-56780671D01*
X63665913Y-56756844D01*
X63594430Y-56756844D01*
X63499120Y-56780671D01*
X63451465Y-56804499D01*
X63403810Y-56852154D01*
X63379982Y-56923637D01*
X63379982Y-56971292D01*
X63403810Y-57042775D01*
X63427637Y-57066603D01*
X63379982Y-57233396D02*
X63379982Y-57543155D01*
X63570603Y-57376362D01*
X63570603Y-57447845D01*
X63594430Y-57495500D01*
X63618258Y-57519328D01*
X63665913Y-57543155D01*
X63785051Y-57543155D01*
X63832707Y-57519328D01*
X63856534Y-57495500D01*
X63880362Y-57447845D01*
X63880362Y-57304879D01*
X63856534Y-57257224D01*
X63832707Y-57233396D01*
D15*
X52597000Y-94302142D02*
X52633285Y-94338428D01*
X52742142Y-94374714D01*
X52814714Y-94374714D01*
X52923571Y-94338428D01*
X52996142Y-94265857D01*
X53032428Y-94193285D01*
X53068714Y-94048142D01*
X53068714Y-93939285D01*
X53032428Y-93794142D01*
X52996142Y-93721571D01*
X52923571Y-93649000D01*
X52814714Y-93612714D01*
X52742142Y-93612714D01*
X52633285Y-93649000D01*
X52597000Y-93685285D01*
X51943857Y-93866714D02*
X51943857Y-94374714D01*
X52125285Y-93576428D02*
X52306714Y-94120714D01*
X51835000Y-94120714D01*
D19*
X58738707Y-72686603D02*
X58762534Y-72662775D01*
X58786362Y-72591292D01*
X58786362Y-72543637D01*
X58762534Y-72472154D01*
X58714879Y-72424499D01*
X58667224Y-72400671D01*
X58571913Y-72376844D01*
X58500430Y-72376844D01*
X58405120Y-72400671D01*
X58357465Y-72424499D01*
X58309810Y-72472154D01*
X58285982Y-72543637D01*
X58285982Y-72591292D01*
X58309810Y-72662775D01*
X58333637Y-72686603D01*
X58285982Y-73139328D02*
X58285982Y-72901051D01*
X58524258Y-72877224D01*
X58500430Y-72901051D01*
X58476603Y-72948707D01*
X58476603Y-73067845D01*
X58500430Y-73115500D01*
X58524258Y-73139328D01*
X58571913Y-73163155D01*
X58691051Y-73163155D01*
X58738707Y-73139328D01*
X58762534Y-73115500D01*
X58786362Y-73067845D01*
X58786362Y-72948707D01*
X58762534Y-72901051D01*
X58738707Y-72877224D01*
X58786362Y-74000050D02*
X58786362Y-73714119D01*
X58786362Y-73857085D02*
X58285982Y-73857085D01*
X58357465Y-73809430D01*
X58405120Y-73761774D01*
X58428948Y-73714119D01*
X58285982Y-74309810D02*
X58285982Y-74357465D01*
X58309810Y-74405120D01*
X58333637Y-74428948D01*
X58381292Y-74452775D01*
X58476603Y-74476603D01*
X58595741Y-74476603D01*
X58691051Y-74452775D01*
X58738707Y-74428948D01*
X58762534Y-74405120D01*
X58786362Y-74357465D01*
X58786362Y-74309810D01*
X58762534Y-74262154D01*
X58738707Y-74238327D01*
X58691051Y-74214499D01*
X58595741Y-74190671D01*
X58476603Y-74190671D01*
X58381292Y-74214499D01*
X58333637Y-74238327D01*
X58309810Y-74262154D01*
X58285982Y-74309810D01*
X58285982Y-74786362D02*
X58285982Y-74834017D01*
X58309810Y-74881672D01*
X58333637Y-74905500D01*
X58381292Y-74929328D01*
X58476603Y-74953155D01*
X58595741Y-74953155D01*
X58691051Y-74929328D01*
X58738707Y-74905500D01*
X58762534Y-74881672D01*
X58786362Y-74834017D01*
X58786362Y-74786362D01*
X58762534Y-74738707D01*
X58738707Y-74714879D01*
X58691051Y-74691051D01*
X58595741Y-74667224D01*
X58476603Y-74667224D01*
X58381292Y-74691051D01*
X58333637Y-74714879D01*
X58309810Y-74738707D01*
X58285982Y-74786362D01*
X58452775Y-75167604D02*
X58786362Y-75167604D01*
X58500430Y-75167604D02*
X58476603Y-75191431D01*
X58452775Y-75239087D01*
X58452775Y-75310570D01*
X58476603Y-75358225D01*
X58524258Y-75382052D01*
X58786362Y-75382052D01*
D15*
X51483600Y-87495742D02*
X51519885Y-87532028D01*
X51628742Y-87568314D01*
X51701314Y-87568314D01*
X51810171Y-87532028D01*
X51882742Y-87459457D01*
X51919028Y-87386885D01*
X51955314Y-87241742D01*
X51955314Y-87132885D01*
X51919028Y-86987742D01*
X51882742Y-86915171D01*
X51810171Y-86842600D01*
X51701314Y-86806314D01*
X51628742Y-86806314D01*
X51519885Y-86842600D01*
X51483600Y-86878885D01*
X50830457Y-86806314D02*
X50975600Y-86806314D01*
X51048171Y-86842600D01*
X51084457Y-86878885D01*
X51157028Y-86987742D01*
X51193314Y-87132885D01*
X51193314Y-87423171D01*
X51157028Y-87495742D01*
X51120742Y-87532028D01*
X51048171Y-87568314D01*
X50903028Y-87568314D01*
X50830457Y-87532028D01*
X50794171Y-87495742D01*
X50757885Y-87423171D01*
X50757885Y-87241742D01*
X50794171Y-87169171D01*
X50830457Y-87132885D01*
X50903028Y-87096600D01*
X51048171Y-87096600D01*
X51120742Y-87132885D01*
X51157028Y-87169171D01*
X51193314Y-87241742D01*
X49135914Y-87631814D02*
X49571342Y-87631814D01*
X49353628Y-87631814D02*
X49353628Y-86869814D01*
X49426200Y-86978671D01*
X49498771Y-87051242D01*
X49571342Y-87087528D01*
X48664200Y-86869814D02*
X48591628Y-86869814D01*
X48519057Y-86906100D01*
X48482771Y-86942385D01*
X48446485Y-87014957D01*
X48410200Y-87160100D01*
X48410200Y-87341528D01*
X48446485Y-87486671D01*
X48482771Y-87559242D01*
X48519057Y-87595528D01*
X48591628Y-87631814D01*
X48664200Y-87631814D01*
X48736771Y-87595528D01*
X48773057Y-87559242D01*
X48809342Y-87486671D01*
X48845628Y-87341528D01*
X48845628Y-87160100D01*
X48809342Y-87014957D01*
X48773057Y-86942385D01*
X48736771Y-86906100D01*
X48664200Y-86869814D01*
X47938485Y-86869814D02*
X47865914Y-86869814D01*
X47793342Y-86906100D01*
X47757057Y-86942385D01*
X47720771Y-87014957D01*
X47684485Y-87160100D01*
X47684485Y-87341528D01*
X47720771Y-87486671D01*
X47757057Y-87559242D01*
X47793342Y-87595528D01*
X47865914Y-87631814D01*
X47938485Y-87631814D01*
X48011057Y-87595528D01*
X48047342Y-87559242D01*
X48083628Y-87486671D01*
X48119914Y-87341528D01*
X48119914Y-87160100D01*
X48083628Y-87014957D01*
X48047342Y-86942385D01*
X48011057Y-86906100D01*
X47938485Y-86869814D01*
X47357914Y-87123814D02*
X47357914Y-87631814D01*
X47357914Y-87196385D02*
X47321628Y-87160100D01*
X47249057Y-87123814D01*
X47140200Y-87123814D01*
X47067628Y-87160100D01*
X47031342Y-87232671D01*
X47031342Y-87631814D01*
D17*
X46804428Y-73888190D02*
X45280428Y-73888190D01*
X46659285Y-74952571D02*
X46731857Y-74904190D01*
X46804428Y-74759047D01*
X46804428Y-74662285D01*
X46731857Y-74517142D01*
X46586714Y-74420380D01*
X46441571Y-74372000D01*
X46151285Y-74323619D01*
X45933571Y-74323619D01*
X45643285Y-74372000D01*
X45498142Y-74420380D01*
X45353000Y-74517142D01*
X45280428Y-74662285D01*
X45280428Y-74759047D01*
X45353000Y-74904190D01*
X45425571Y-74952571D01*
X46804428Y-75920190D02*
X46804428Y-75339619D01*
X46804428Y-75629904D02*
X45280428Y-75629904D01*
X45498142Y-75533142D01*
X45643285Y-75436380D01*
X45715857Y-75339619D01*
X50179000Y-70235428D02*
X50179000Y-70719238D01*
X50614428Y-70138666D02*
X49090428Y-70477333D01*
X50614428Y-70816000D01*
X49090428Y-71009523D02*
X49090428Y-71590095D01*
X50614428Y-71299809D02*
X49090428Y-71299809D01*
X50614428Y-71928761D02*
X49090428Y-71928761D01*
X50179000Y-72267428D01*
X49090428Y-72606095D01*
X50614428Y-72606095D01*
X49816142Y-73089904D02*
X49816142Y-73428571D01*
X50614428Y-73573714D02*
X50614428Y-73089904D01*
X49090428Y-73089904D01*
X49090428Y-73573714D01*
X49163000Y-74541333D02*
X49090428Y-74444571D01*
X49090428Y-74299428D01*
X49163000Y-74154285D01*
X49308142Y-74057523D01*
X49453285Y-74009142D01*
X49743571Y-73960761D01*
X49961285Y-73960761D01*
X50251571Y-74009142D01*
X50396714Y-74057523D01*
X50541857Y-74154285D01*
X50614428Y-74299428D01*
X50614428Y-74396190D01*
X50541857Y-74541333D01*
X50469285Y-74589714D01*
X49961285Y-74589714D01*
X49961285Y-74396190D01*
X50179000Y-74976761D02*
X50179000Y-75460571D01*
X50614428Y-74880000D02*
X49090428Y-75218666D01*
X50614428Y-75557333D01*
X49090428Y-75799238D02*
X49090428Y-76428190D01*
X49671000Y-76089523D01*
X49671000Y-76234666D01*
X49743571Y-76331428D01*
X49816142Y-76379809D01*
X49961285Y-76428190D01*
X50324142Y-76428190D01*
X50469285Y-76379809D01*
X50541857Y-76331428D01*
X50614428Y-76234666D01*
X50614428Y-75944380D01*
X50541857Y-75847619D01*
X50469285Y-75799238D01*
X49235571Y-76815238D02*
X49163000Y-76863619D01*
X49090428Y-76960380D01*
X49090428Y-77202285D01*
X49163000Y-77299047D01*
X49235571Y-77347428D01*
X49380714Y-77395809D01*
X49525857Y-77395809D01*
X49743571Y-77347428D01*
X50614428Y-76766857D01*
X50614428Y-77395809D01*
X50033857Y-77831238D02*
X50033857Y-78605333D01*
X50179000Y-79040761D02*
X50179000Y-79524571D01*
X50614428Y-78944000D02*
X49090428Y-79282666D01*
X50614428Y-79621333D01*
D10*
X94896190Y-78922380D02*
X94896190Y-77922380D01*
X93848571Y-78827142D02*
X93896190Y-78874761D01*
X94039047Y-78922380D01*
X94134285Y-78922380D01*
X94277142Y-78874761D01*
X94372380Y-78779523D01*
X94420000Y-78684285D01*
X94467619Y-78493809D01*
X94467619Y-78350952D01*
X94420000Y-78160476D01*
X94372380Y-78065238D01*
X94277142Y-77970000D01*
X94134285Y-77922380D01*
X94039047Y-77922380D01*
X93896190Y-77970000D01*
X93848571Y-78017619D01*
X93467619Y-78017619D02*
X93420000Y-77970000D01*
X93324761Y-77922380D01*
X93086666Y-77922380D01*
X92991428Y-77970000D01*
X92943809Y-78017619D01*
X92896190Y-78112857D01*
X92896190Y-78208095D01*
X92943809Y-78350952D01*
X93515238Y-78922380D01*
X92896190Y-78922380D01*
X97015238Y-67122380D02*
X97015238Y-66122380D01*
X96634285Y-66122380D01*
X96539047Y-66170000D01*
X96491428Y-66217619D01*
X96443809Y-66312857D01*
X96443809Y-66455714D01*
X96491428Y-66550952D01*
X96539047Y-66598571D01*
X96634285Y-66646190D01*
X97015238Y-66646190D01*
X95443809Y-67027142D02*
X95491428Y-67074761D01*
X95634285Y-67122380D01*
X95729523Y-67122380D01*
X95872380Y-67074761D01*
X95967619Y-66979523D01*
X96015238Y-66884285D01*
X96062857Y-66693809D01*
X96062857Y-66550952D01*
X96015238Y-66360476D01*
X95967619Y-66265238D01*
X95872380Y-66170000D01*
X95729523Y-66122380D01*
X95634285Y-66122380D01*
X95491428Y-66170000D01*
X95443809Y-66217619D01*
X95062857Y-66836666D02*
X94586666Y-66836666D01*
X95158095Y-67122380D02*
X94824761Y-66122380D01*
X94491428Y-67122380D01*
X94110476Y-67122380D02*
X93920000Y-67122380D01*
X93824761Y-67074761D01*
X93777142Y-67027142D01*
X93681904Y-66884285D01*
X93634285Y-66693809D01*
X93634285Y-66312857D01*
X93681904Y-66217619D01*
X93729523Y-66170000D01*
X93824761Y-66122380D01*
X94015238Y-66122380D01*
X94110476Y-66170000D01*
X94158095Y-66217619D01*
X94205714Y-66312857D01*
X94205714Y-66550952D01*
X94158095Y-66646190D01*
X94110476Y-66693809D01*
X94015238Y-66741428D01*
X93824761Y-66741428D01*
X93729523Y-66693809D01*
X93681904Y-66646190D01*
X93634285Y-66550952D01*
X92777142Y-66122380D02*
X92967619Y-66122380D01*
X93062857Y-66170000D01*
X93110476Y-66217619D01*
X93205714Y-66360476D01*
X93253333Y-66550952D01*
X93253333Y-66931904D01*
X93205714Y-67027142D01*
X93158095Y-67074761D01*
X93062857Y-67122380D01*
X92872380Y-67122380D01*
X92777142Y-67074761D01*
X92729523Y-67027142D01*
X92681904Y-66931904D01*
X92681904Y-66693809D01*
X92729523Y-66598571D01*
X92777142Y-66550952D01*
X92872380Y-66503333D01*
X93062857Y-66503333D01*
X93158095Y-66550952D01*
X93205714Y-66598571D01*
X93253333Y-66693809D01*
X92110476Y-66550952D02*
X92205714Y-66503333D01*
X92253333Y-66455714D01*
X92300952Y-66360476D01*
X92300952Y-66312857D01*
X92253333Y-66217619D01*
X92205714Y-66170000D01*
X92110476Y-66122380D01*
X91920000Y-66122380D01*
X91824761Y-66170000D01*
X91777142Y-66217619D01*
X91729523Y-66312857D01*
X91729523Y-66360476D01*
X91777142Y-66455714D01*
X91824761Y-66503333D01*
X91920000Y-66550952D01*
X92110476Y-66550952D01*
X92205714Y-66598571D01*
X92253333Y-66646190D01*
X92300952Y-66741428D01*
X92300952Y-66931904D01*
X92253333Y-67027142D01*
X92205714Y-67074761D01*
X92110476Y-67122380D01*
X91920000Y-67122380D01*
X91824761Y-67074761D01*
X91777142Y-67027142D01*
X91729523Y-66931904D01*
X91729523Y-66741428D01*
X91777142Y-66646190D01*
X91824761Y-66598571D01*
X91920000Y-66550952D01*
X90824761Y-66122380D02*
X91300952Y-66122380D01*
X91348571Y-66598571D01*
X91300952Y-66550952D01*
X91205714Y-66503333D01*
X90967619Y-66503333D01*
X90872380Y-66550952D01*
X90824761Y-66598571D01*
X90777142Y-66693809D01*
X90777142Y-66931904D01*
X90824761Y-67027142D01*
X90872380Y-67074761D01*
X90967619Y-67122380D01*
X91205714Y-67122380D01*
X91300952Y-67074761D01*
X91348571Y-67027142D01*
X95216190Y-57092380D02*
X95216190Y-56092380D01*
X94168571Y-56997142D02*
X94216190Y-57044761D01*
X94359047Y-57092380D01*
X94454285Y-57092380D01*
X94597142Y-57044761D01*
X94692380Y-56949523D01*
X94740000Y-56854285D01*
X94787619Y-56663809D01*
X94787619Y-56520952D01*
X94740000Y-56330476D01*
X94692380Y-56235238D01*
X94597142Y-56140000D01*
X94454285Y-56092380D01*
X94359047Y-56092380D01*
X94216190Y-56140000D01*
X94168571Y-56187619D01*
X93835238Y-56092380D02*
X93216190Y-56092380D01*
X93549523Y-56473333D01*
X93406666Y-56473333D01*
X93311428Y-56520952D01*
X93263809Y-56568571D01*
X93216190Y-56663809D01*
X93216190Y-56901904D01*
X93263809Y-56997142D01*
X93311428Y-57044761D01*
X93406666Y-57092380D01*
X93692380Y-57092380D01*
X93787619Y-57044761D01*
X93835238Y-56997142D01*
X97335238Y-45292380D02*
X97335238Y-44292380D01*
X96954285Y-44292380D01*
X96859047Y-44340000D01*
X96811428Y-44387619D01*
X96763809Y-44482857D01*
X96763809Y-44625714D01*
X96811428Y-44720952D01*
X96859047Y-44768571D01*
X96954285Y-44816190D01*
X97335238Y-44816190D01*
X95763809Y-45197142D02*
X95811428Y-45244761D01*
X95954285Y-45292380D01*
X96049523Y-45292380D01*
X96192380Y-45244761D01*
X96287619Y-45149523D01*
X96335238Y-45054285D01*
X96382857Y-44863809D01*
X96382857Y-44720952D01*
X96335238Y-44530476D01*
X96287619Y-44435238D01*
X96192380Y-44340000D01*
X96049523Y-44292380D01*
X95954285Y-44292380D01*
X95811428Y-44340000D01*
X95763809Y-44387619D01*
X95382857Y-45006666D02*
X94906666Y-45006666D01*
X95478095Y-45292380D02*
X95144761Y-44292380D01*
X94811428Y-45292380D01*
X94430476Y-45292380D02*
X94240000Y-45292380D01*
X94144761Y-45244761D01*
X94097142Y-45197142D01*
X94001904Y-45054285D01*
X93954285Y-44863809D01*
X93954285Y-44482857D01*
X94001904Y-44387619D01*
X94049523Y-44340000D01*
X94144761Y-44292380D01*
X94335238Y-44292380D01*
X94430476Y-44340000D01*
X94478095Y-44387619D01*
X94525714Y-44482857D01*
X94525714Y-44720952D01*
X94478095Y-44816190D01*
X94430476Y-44863809D01*
X94335238Y-44911428D01*
X94144761Y-44911428D01*
X94049523Y-44863809D01*
X94001904Y-44816190D01*
X93954285Y-44720952D01*
X93097142Y-44292380D02*
X93287619Y-44292380D01*
X93382857Y-44340000D01*
X93430476Y-44387619D01*
X93525714Y-44530476D01*
X93573333Y-44720952D01*
X93573333Y-45101904D01*
X93525714Y-45197142D01*
X93478095Y-45244761D01*
X93382857Y-45292380D01*
X93192380Y-45292380D01*
X93097142Y-45244761D01*
X93049523Y-45197142D01*
X93001904Y-45101904D01*
X93001904Y-44863809D01*
X93049523Y-44768571D01*
X93097142Y-44720952D01*
X93192380Y-44673333D01*
X93382857Y-44673333D01*
X93478095Y-44720952D01*
X93525714Y-44768571D01*
X93573333Y-44863809D01*
X92430476Y-44720952D02*
X92525714Y-44673333D01*
X92573333Y-44625714D01*
X92620952Y-44530476D01*
X92620952Y-44482857D01*
X92573333Y-44387619D01*
X92525714Y-44340000D01*
X92430476Y-44292380D01*
X92240000Y-44292380D01*
X92144761Y-44340000D01*
X92097142Y-44387619D01*
X92049523Y-44482857D01*
X92049523Y-44530476D01*
X92097142Y-44625714D01*
X92144761Y-44673333D01*
X92240000Y-44720952D01*
X92430476Y-44720952D01*
X92525714Y-44768571D01*
X92573333Y-44816190D01*
X92620952Y-44911428D01*
X92620952Y-45101904D01*
X92573333Y-45197142D01*
X92525714Y-45244761D01*
X92430476Y-45292380D01*
X92240000Y-45292380D01*
X92144761Y-45244761D01*
X92097142Y-45197142D01*
X92049523Y-45101904D01*
X92049523Y-44911428D01*
X92097142Y-44816190D01*
X92144761Y-44768571D01*
X92240000Y-44720952D01*
X91144761Y-44292380D02*
X91620952Y-44292380D01*
X91668571Y-44768571D01*
X91620952Y-44720952D01*
X91525714Y-44673333D01*
X91287619Y-44673333D01*
X91192380Y-44720952D01*
X91144761Y-44768571D01*
X91097142Y-44863809D01*
X91097142Y-45101904D01*
X91144761Y-45197142D01*
X91192380Y-45244761D01*
X91287619Y-45292380D01*
X91525714Y-45292380D01*
X91620952Y-45244761D01*
X91668571Y-45197142D01*
X41158566Y-60113480D02*
X41491900Y-59637290D01*
X41729995Y-60113480D02*
X41729995Y-59113480D01*
X41349042Y-59113480D01*
X41253804Y-59161100D01*
X41206185Y-59208719D01*
X41158566Y-59303957D01*
X41158566Y-59446814D01*
X41206185Y-59542052D01*
X41253804Y-59589671D01*
X41349042Y-59637290D01*
X41729995Y-59637290D01*
X40206185Y-60113480D02*
X40777614Y-60113480D01*
X40491900Y-60113480D02*
X40491900Y-59113480D01*
X40587138Y-59256338D01*
X40682376Y-59351576D01*
X40777614Y-59399195D01*
X38547138Y-60043480D02*
X39118566Y-60043480D01*
X38832852Y-60043480D02*
X38832852Y-59043480D01*
X38928090Y-59186338D01*
X39023328Y-59281576D01*
X39118566Y-59329195D01*
X38118566Y-60043480D02*
X38118566Y-59043480D01*
X38023328Y-59662528D02*
X37737614Y-60043480D01*
X37737614Y-59376814D02*
X38118566Y-59757766D01*
X36832852Y-59043480D02*
X37309042Y-59043480D01*
X37356661Y-59519671D01*
X37309042Y-59472052D01*
X37213804Y-59424433D01*
X36975709Y-59424433D01*
X36880471Y-59472052D01*
X36832852Y-59519671D01*
X36785233Y-59614909D01*
X36785233Y-59853004D01*
X36832852Y-59948242D01*
X36880471Y-59995861D01*
X36975709Y-60043480D01*
X37213804Y-60043480D01*
X37309042Y-59995861D01*
X37356661Y-59948242D01*
X41618566Y-66703480D02*
X41951900Y-66227290D01*
X42189995Y-66703480D02*
X42189995Y-65703480D01*
X41809042Y-65703480D01*
X41713804Y-65751100D01*
X41666185Y-65798719D01*
X41618566Y-65893957D01*
X41618566Y-66036814D01*
X41666185Y-66132052D01*
X41713804Y-66179671D01*
X41809042Y-66227290D01*
X42189995Y-66227290D01*
X41237614Y-65798719D02*
X41189995Y-65751100D01*
X41094757Y-65703480D01*
X40856661Y-65703480D01*
X40761423Y-65751100D01*
X40713804Y-65798719D01*
X40666185Y-65893957D01*
X40666185Y-65989195D01*
X40713804Y-66132052D01*
X41285233Y-66703480D01*
X40666185Y-66703480D01*
X38507138Y-66703480D02*
X39078566Y-66703480D01*
X38792852Y-66703480D02*
X38792852Y-65703480D01*
X38888090Y-65846338D01*
X38983328Y-65941576D01*
X39078566Y-65989195D01*
X38078566Y-66703480D02*
X38078566Y-65703480D01*
X37983328Y-66322528D02*
X37697614Y-66703480D01*
X37697614Y-66036814D02*
X38078566Y-66417766D01*
X36792852Y-65703480D02*
X37269042Y-65703480D01*
X37316661Y-66179671D01*
X37269042Y-66132052D01*
X37173804Y-66084433D01*
X36935709Y-66084433D01*
X36840471Y-66132052D01*
X36792852Y-66179671D01*
X36745233Y-66274909D01*
X36745233Y-66513004D01*
X36792852Y-66608242D01*
X36840471Y-66655861D01*
X36935709Y-66703480D01*
X37173804Y-66703480D01*
X37269042Y-66655861D01*
X37316661Y-66608242D01*
X63152380Y-71223333D02*
X62676190Y-70890000D01*
X63152380Y-70651904D02*
X62152380Y-70651904D01*
X62152380Y-71032857D01*
X62200000Y-71128095D01*
X62247619Y-71175714D01*
X62342857Y-71223333D01*
X62485714Y-71223333D01*
X62580952Y-71175714D01*
X62628571Y-71128095D01*
X62676190Y-71032857D01*
X62676190Y-70651904D01*
X62152380Y-71556666D02*
X62152380Y-72175714D01*
X62533333Y-71842380D01*
X62533333Y-71985238D01*
X62580952Y-72080476D01*
X62628571Y-72128095D01*
X62723809Y-72175714D01*
X62961904Y-72175714D01*
X63057142Y-72128095D01*
X63104761Y-72080476D01*
X63152380Y-71985238D01*
X63152380Y-71699523D01*
X63104761Y-71604285D01*
X63057142Y-71556666D01*
X63122380Y-74323333D02*
X63122380Y-73751904D01*
X63122380Y-74037619D02*
X62122380Y-74037619D01*
X62265238Y-73942380D01*
X62360476Y-73847142D01*
X62408095Y-73751904D01*
X62122380Y-74942380D02*
X62122380Y-75037619D01*
X62170000Y-75132857D01*
X62217619Y-75180476D01*
X62312857Y-75228095D01*
X62503333Y-75275714D01*
X62741428Y-75275714D01*
X62931904Y-75228095D01*
X63027142Y-75180476D01*
X63074761Y-75132857D01*
X63122380Y-75037619D01*
X63122380Y-74942380D01*
X63074761Y-74847142D01*
X63027142Y-74799523D01*
X62931904Y-74751904D01*
X62741428Y-74704285D01*
X62503333Y-74704285D01*
X62312857Y-74751904D01*
X62217619Y-74799523D01*
X62170000Y-74847142D01*
X62122380Y-74942380D01*
X62122380Y-75894761D02*
X62122380Y-75990000D01*
X62170000Y-76085238D01*
X62217619Y-76132857D01*
X62312857Y-76180476D01*
X62503333Y-76228095D01*
X62741428Y-76228095D01*
X62931904Y-76180476D01*
X63027142Y-76132857D01*
X63074761Y-76085238D01*
X63122380Y-75990000D01*
X63122380Y-75894761D01*
X63074761Y-75799523D01*
X63027142Y-75751904D01*
X62931904Y-75704285D01*
X62741428Y-75656666D01*
X62503333Y-75656666D01*
X62312857Y-75704285D01*
X62217619Y-75751904D01*
X62170000Y-75799523D01*
X62122380Y-75894761D01*
X98146666Y-64092380D02*
X98480000Y-63616190D01*
X98718095Y-64092380D02*
X98718095Y-63092380D01*
X98337142Y-63092380D01*
X98241904Y-63140000D01*
X98194285Y-63187619D01*
X98146666Y-63282857D01*
X98146666Y-63425714D01*
X98194285Y-63520952D01*
X98241904Y-63568571D01*
X98337142Y-63616190D01*
X98718095Y-63616190D01*
X97289523Y-63425714D02*
X97289523Y-64092380D01*
X97527619Y-63044761D02*
X97765714Y-63759047D01*
X97146666Y-63759047D01*
X91465238Y-64072380D02*
X92036666Y-64072380D01*
X91750952Y-64072380D02*
X91750952Y-63072380D01*
X91846190Y-63215238D01*
X91941428Y-63310476D01*
X92036666Y-63358095D01*
X91036666Y-64072380D02*
X91036666Y-63072380D01*
X90941428Y-63691428D02*
X90655714Y-64072380D01*
X90655714Y-63405714D02*
X91036666Y-63786666D01*
X90084285Y-63500952D02*
X90179523Y-63453333D01*
X90227142Y-63405714D01*
X90274761Y-63310476D01*
X90274761Y-63262857D01*
X90227142Y-63167619D01*
X90179523Y-63120000D01*
X90084285Y-63072380D01*
X89893809Y-63072380D01*
X89798571Y-63120000D01*
X89750952Y-63167619D01*
X89703333Y-63262857D01*
X89703333Y-63310476D01*
X89750952Y-63405714D01*
X89798571Y-63453333D01*
X89893809Y-63500952D01*
X90084285Y-63500952D01*
X90179523Y-63548571D01*
X90227142Y-63596190D01*
X90274761Y-63691428D01*
X90274761Y-63881904D01*
X90227142Y-63977142D01*
X90179523Y-64024761D01*
X90084285Y-64072380D01*
X89893809Y-64072380D01*
X89798571Y-64024761D01*
X89750952Y-63977142D01*
X89703333Y-63881904D01*
X89703333Y-63691428D01*
X89750952Y-63596190D01*
X89798571Y-63548571D01*
X89893809Y-63500952D01*
X98166666Y-59872380D02*
X98500000Y-59396190D01*
X98738095Y-59872380D02*
X98738095Y-58872380D01*
X98357142Y-58872380D01*
X98261904Y-58920000D01*
X98214285Y-58967619D01*
X98166666Y-59062857D01*
X98166666Y-59205714D01*
X98214285Y-59300952D01*
X98261904Y-59348571D01*
X98357142Y-59396190D01*
X98738095Y-59396190D01*
X97261904Y-58872380D02*
X97738095Y-58872380D01*
X97785714Y-59348571D01*
X97738095Y-59300952D01*
X97642857Y-59253333D01*
X97404761Y-59253333D01*
X97309523Y-59300952D01*
X97261904Y-59348571D01*
X97214285Y-59443809D01*
X97214285Y-59681904D01*
X97261904Y-59777142D01*
X97309523Y-59824761D01*
X97404761Y-59872380D01*
X97642857Y-59872380D01*
X97738095Y-59824761D01*
X97785714Y-59777142D01*
X91425238Y-59802380D02*
X91996666Y-59802380D01*
X91710952Y-59802380D02*
X91710952Y-58802380D01*
X91806190Y-58945238D01*
X91901428Y-59040476D01*
X91996666Y-59088095D01*
X90996666Y-59802380D02*
X90996666Y-58802380D01*
X90901428Y-59421428D02*
X90615714Y-59802380D01*
X90615714Y-59135714D02*
X90996666Y-59516666D01*
X90044285Y-59230952D02*
X90139523Y-59183333D01*
X90187142Y-59135714D01*
X90234761Y-59040476D01*
X90234761Y-58992857D01*
X90187142Y-58897619D01*
X90139523Y-58850000D01*
X90044285Y-58802380D01*
X89853809Y-58802380D01*
X89758571Y-58850000D01*
X89710952Y-58897619D01*
X89663333Y-58992857D01*
X89663333Y-59040476D01*
X89710952Y-59135714D01*
X89758571Y-59183333D01*
X89853809Y-59230952D01*
X90044285Y-59230952D01*
X90139523Y-59278571D01*
X90187142Y-59326190D01*
X90234761Y-59421428D01*
X90234761Y-59611904D01*
X90187142Y-59707142D01*
X90139523Y-59754761D01*
X90044285Y-59802380D01*
X89853809Y-59802380D01*
X89758571Y-59754761D01*
X89710952Y-59707142D01*
X89663333Y-59611904D01*
X89663333Y-59421428D01*
X89710952Y-59326190D01*
X89758571Y-59278571D01*
X89853809Y-59230952D01*
X89501428Y-87512380D02*
X90072857Y-87512380D01*
X89787142Y-87512380D02*
X89787142Y-86512380D01*
X89882380Y-86655238D01*
X89977619Y-86750476D01*
X90072857Y-86798095D01*
X88882380Y-86512380D02*
X88787142Y-86512380D01*
X88691904Y-86560000D01*
X88644285Y-86607619D01*
X88596666Y-86702857D01*
X88549047Y-86893333D01*
X88549047Y-87131428D01*
X88596666Y-87321904D01*
X88644285Y-87417142D01*
X88691904Y-87464761D01*
X88787142Y-87512380D01*
X88882380Y-87512380D01*
X88977619Y-87464761D01*
X89025238Y-87417142D01*
X89072857Y-87321904D01*
X89120476Y-87131428D01*
X89120476Y-86893333D01*
X89072857Y-86702857D01*
X89025238Y-86607619D01*
X88977619Y-86560000D01*
X88882380Y-86512380D01*
X87930000Y-86512380D02*
X87834761Y-86512380D01*
X87739523Y-86560000D01*
X87691904Y-86607619D01*
X87644285Y-86702857D01*
X87596666Y-86893333D01*
X87596666Y-87131428D01*
X87644285Y-87321904D01*
X87691904Y-87417142D01*
X87739523Y-87464761D01*
X87834761Y-87512380D01*
X87930000Y-87512380D01*
X88025238Y-87464761D01*
X88072857Y-87417142D01*
X88120476Y-87321904D01*
X88168095Y-87131428D01*
X88168095Y-86893333D01*
X88120476Y-86702857D01*
X88072857Y-86607619D01*
X88025238Y-86560000D01*
X87930000Y-86512380D01*
X87168095Y-87512380D02*
X87168095Y-86512380D01*
X87072857Y-87131428D02*
X86787142Y-87512380D01*
X86787142Y-86845714D02*
X87168095Y-87226666D01*
X89471428Y-84442380D02*
X90042857Y-84442380D01*
X89757142Y-84442380D02*
X89757142Y-83442380D01*
X89852380Y-83585238D01*
X89947619Y-83680476D01*
X90042857Y-83728095D01*
X88852380Y-83442380D02*
X88757142Y-83442380D01*
X88661904Y-83490000D01*
X88614285Y-83537619D01*
X88566666Y-83632857D01*
X88519047Y-83823333D01*
X88519047Y-84061428D01*
X88566666Y-84251904D01*
X88614285Y-84347142D01*
X88661904Y-84394761D01*
X88757142Y-84442380D01*
X88852380Y-84442380D01*
X88947619Y-84394761D01*
X88995238Y-84347142D01*
X89042857Y-84251904D01*
X89090476Y-84061428D01*
X89090476Y-83823333D01*
X89042857Y-83632857D01*
X88995238Y-83537619D01*
X88947619Y-83490000D01*
X88852380Y-83442380D01*
X87900000Y-83442380D02*
X87804761Y-83442380D01*
X87709523Y-83490000D01*
X87661904Y-83537619D01*
X87614285Y-83632857D01*
X87566666Y-83823333D01*
X87566666Y-84061428D01*
X87614285Y-84251904D01*
X87661904Y-84347142D01*
X87709523Y-84394761D01*
X87804761Y-84442380D01*
X87900000Y-84442380D01*
X87995238Y-84394761D01*
X88042857Y-84347142D01*
X88090476Y-84251904D01*
X88138095Y-84061428D01*
X88138095Y-83823333D01*
X88090476Y-83632857D01*
X88042857Y-83537619D01*
X87995238Y-83490000D01*
X87900000Y-83442380D01*
X87138095Y-84442380D02*
X87138095Y-83442380D01*
X87042857Y-84061428D02*
X86757142Y-84442380D01*
X86757142Y-83775714D02*
X87138095Y-84156666D01*
X89501428Y-80362380D02*
X90072857Y-80362380D01*
X89787142Y-80362380D02*
X89787142Y-79362380D01*
X89882380Y-79505238D01*
X89977619Y-79600476D01*
X90072857Y-79648095D01*
X88882380Y-79362380D02*
X88787142Y-79362380D01*
X88691904Y-79410000D01*
X88644285Y-79457619D01*
X88596666Y-79552857D01*
X88549047Y-79743333D01*
X88549047Y-79981428D01*
X88596666Y-80171904D01*
X88644285Y-80267142D01*
X88691904Y-80314761D01*
X88787142Y-80362380D01*
X88882380Y-80362380D01*
X88977619Y-80314761D01*
X89025238Y-80267142D01*
X89072857Y-80171904D01*
X89120476Y-79981428D01*
X89120476Y-79743333D01*
X89072857Y-79552857D01*
X89025238Y-79457619D01*
X88977619Y-79410000D01*
X88882380Y-79362380D01*
X87930000Y-79362380D02*
X87834761Y-79362380D01*
X87739523Y-79410000D01*
X87691904Y-79457619D01*
X87644285Y-79552857D01*
X87596666Y-79743333D01*
X87596666Y-79981428D01*
X87644285Y-80171904D01*
X87691904Y-80267142D01*
X87739523Y-80314761D01*
X87834761Y-80362380D01*
X87930000Y-80362380D01*
X88025238Y-80314761D01*
X88072857Y-80267142D01*
X88120476Y-80171904D01*
X88168095Y-79981428D01*
X88168095Y-79743333D01*
X88120476Y-79552857D01*
X88072857Y-79457619D01*
X88025238Y-79410000D01*
X87930000Y-79362380D01*
X87168095Y-80362380D02*
X87168095Y-79362380D01*
X87072857Y-79981428D02*
X86787142Y-80362380D01*
X86787142Y-79695714D02*
X87168095Y-80076666D01*
X89441428Y-77422380D02*
X90012857Y-77422380D01*
X89727142Y-77422380D02*
X89727142Y-76422380D01*
X89822380Y-76565238D01*
X89917619Y-76660476D01*
X90012857Y-76708095D01*
X88822380Y-76422380D02*
X88727142Y-76422380D01*
X88631904Y-76470000D01*
X88584285Y-76517619D01*
X88536666Y-76612857D01*
X88489047Y-76803333D01*
X88489047Y-77041428D01*
X88536666Y-77231904D01*
X88584285Y-77327142D01*
X88631904Y-77374761D01*
X88727142Y-77422380D01*
X88822380Y-77422380D01*
X88917619Y-77374761D01*
X88965238Y-77327142D01*
X89012857Y-77231904D01*
X89060476Y-77041428D01*
X89060476Y-76803333D01*
X89012857Y-76612857D01*
X88965238Y-76517619D01*
X88917619Y-76470000D01*
X88822380Y-76422380D01*
X87870000Y-76422380D02*
X87774761Y-76422380D01*
X87679523Y-76470000D01*
X87631904Y-76517619D01*
X87584285Y-76612857D01*
X87536666Y-76803333D01*
X87536666Y-77041428D01*
X87584285Y-77231904D01*
X87631904Y-77327142D01*
X87679523Y-77374761D01*
X87774761Y-77422380D01*
X87870000Y-77422380D01*
X87965238Y-77374761D01*
X88012857Y-77327142D01*
X88060476Y-77231904D01*
X88108095Y-77041428D01*
X88108095Y-76803333D01*
X88060476Y-76612857D01*
X88012857Y-76517619D01*
X87965238Y-76470000D01*
X87870000Y-76422380D01*
X87108095Y-77422380D02*
X87108095Y-76422380D01*
X87012857Y-77041428D02*
X86727142Y-77422380D01*
X86727142Y-76755714D02*
X87108095Y-77136666D01*
X89471428Y-74022380D02*
X90042857Y-74022380D01*
X89757142Y-74022380D02*
X89757142Y-73022380D01*
X89852380Y-73165238D01*
X89947619Y-73260476D01*
X90042857Y-73308095D01*
X88852380Y-73022380D02*
X88757142Y-73022380D01*
X88661904Y-73070000D01*
X88614285Y-73117619D01*
X88566666Y-73212857D01*
X88519047Y-73403333D01*
X88519047Y-73641428D01*
X88566666Y-73831904D01*
X88614285Y-73927142D01*
X88661904Y-73974761D01*
X88757142Y-74022380D01*
X88852380Y-74022380D01*
X88947619Y-73974761D01*
X88995238Y-73927142D01*
X89042857Y-73831904D01*
X89090476Y-73641428D01*
X89090476Y-73403333D01*
X89042857Y-73212857D01*
X88995238Y-73117619D01*
X88947619Y-73070000D01*
X88852380Y-73022380D01*
X87900000Y-73022380D02*
X87804761Y-73022380D01*
X87709523Y-73070000D01*
X87661904Y-73117619D01*
X87614285Y-73212857D01*
X87566666Y-73403333D01*
X87566666Y-73641428D01*
X87614285Y-73831904D01*
X87661904Y-73927142D01*
X87709523Y-73974761D01*
X87804761Y-74022380D01*
X87900000Y-74022380D01*
X87995238Y-73974761D01*
X88042857Y-73927142D01*
X88090476Y-73831904D01*
X88138095Y-73641428D01*
X88138095Y-73403333D01*
X88090476Y-73212857D01*
X88042857Y-73117619D01*
X87995238Y-73070000D01*
X87900000Y-73022380D01*
X87138095Y-74022380D02*
X87138095Y-73022380D01*
X87042857Y-73641428D02*
X86757142Y-74022380D01*
X86757142Y-73355714D02*
X87138095Y-73736666D01*
X89561428Y-70942380D02*
X90132857Y-70942380D01*
X89847142Y-70942380D02*
X89847142Y-69942380D01*
X89942380Y-70085238D01*
X90037619Y-70180476D01*
X90132857Y-70228095D01*
X88942380Y-69942380D02*
X88847142Y-69942380D01*
X88751904Y-69990000D01*
X88704285Y-70037619D01*
X88656666Y-70132857D01*
X88609047Y-70323333D01*
X88609047Y-70561428D01*
X88656666Y-70751904D01*
X88704285Y-70847142D01*
X88751904Y-70894761D01*
X88847142Y-70942380D01*
X88942380Y-70942380D01*
X89037619Y-70894761D01*
X89085238Y-70847142D01*
X89132857Y-70751904D01*
X89180476Y-70561428D01*
X89180476Y-70323333D01*
X89132857Y-70132857D01*
X89085238Y-70037619D01*
X89037619Y-69990000D01*
X88942380Y-69942380D01*
X87990000Y-69942380D02*
X87894761Y-69942380D01*
X87799523Y-69990000D01*
X87751904Y-70037619D01*
X87704285Y-70132857D01*
X87656666Y-70323333D01*
X87656666Y-70561428D01*
X87704285Y-70751904D01*
X87751904Y-70847142D01*
X87799523Y-70894761D01*
X87894761Y-70942380D01*
X87990000Y-70942380D01*
X88085238Y-70894761D01*
X88132857Y-70847142D01*
X88180476Y-70751904D01*
X88228095Y-70561428D01*
X88228095Y-70323333D01*
X88180476Y-70132857D01*
X88132857Y-70037619D01*
X88085238Y-69990000D01*
X87990000Y-69942380D01*
X87228095Y-70942380D02*
X87228095Y-69942380D01*
X87132857Y-70561428D02*
X86847142Y-70942380D01*
X86847142Y-70275714D02*
X87228095Y-70656666D01*
X89501428Y-67842380D02*
X90072857Y-67842380D01*
X89787142Y-67842380D02*
X89787142Y-66842380D01*
X89882380Y-66985238D01*
X89977619Y-67080476D01*
X90072857Y-67128095D01*
X88882380Y-66842380D02*
X88787142Y-66842380D01*
X88691904Y-66890000D01*
X88644285Y-66937619D01*
X88596666Y-67032857D01*
X88549047Y-67223333D01*
X88549047Y-67461428D01*
X88596666Y-67651904D01*
X88644285Y-67747142D01*
X88691904Y-67794761D01*
X88787142Y-67842380D01*
X88882380Y-67842380D01*
X88977619Y-67794761D01*
X89025238Y-67747142D01*
X89072857Y-67651904D01*
X89120476Y-67461428D01*
X89120476Y-67223333D01*
X89072857Y-67032857D01*
X89025238Y-66937619D01*
X88977619Y-66890000D01*
X88882380Y-66842380D01*
X87930000Y-66842380D02*
X87834761Y-66842380D01*
X87739523Y-66890000D01*
X87691904Y-66937619D01*
X87644285Y-67032857D01*
X87596666Y-67223333D01*
X87596666Y-67461428D01*
X87644285Y-67651904D01*
X87691904Y-67747142D01*
X87739523Y-67794761D01*
X87834761Y-67842380D01*
X87930000Y-67842380D01*
X88025238Y-67794761D01*
X88072857Y-67747142D01*
X88120476Y-67651904D01*
X88168095Y-67461428D01*
X88168095Y-67223333D01*
X88120476Y-67032857D01*
X88072857Y-66937619D01*
X88025238Y-66890000D01*
X87930000Y-66842380D01*
X87168095Y-67842380D02*
X87168095Y-66842380D01*
X87072857Y-67461428D02*
X86787142Y-67842380D01*
X86787142Y-67175714D02*
X87168095Y-67556666D01*
X89471428Y-65212380D02*
X90042857Y-65212380D01*
X89757142Y-65212380D02*
X89757142Y-64212380D01*
X89852380Y-64355238D01*
X89947619Y-64450476D01*
X90042857Y-64498095D01*
X88852380Y-64212380D02*
X88757142Y-64212380D01*
X88661904Y-64260000D01*
X88614285Y-64307619D01*
X88566666Y-64402857D01*
X88519047Y-64593333D01*
X88519047Y-64831428D01*
X88566666Y-65021904D01*
X88614285Y-65117142D01*
X88661904Y-65164761D01*
X88757142Y-65212380D01*
X88852380Y-65212380D01*
X88947619Y-65164761D01*
X88995238Y-65117142D01*
X89042857Y-65021904D01*
X89090476Y-64831428D01*
X89090476Y-64593333D01*
X89042857Y-64402857D01*
X88995238Y-64307619D01*
X88947619Y-64260000D01*
X88852380Y-64212380D01*
X87900000Y-64212380D02*
X87804761Y-64212380D01*
X87709523Y-64260000D01*
X87661904Y-64307619D01*
X87614285Y-64402857D01*
X87566666Y-64593333D01*
X87566666Y-64831428D01*
X87614285Y-65021904D01*
X87661904Y-65117142D01*
X87709523Y-65164761D01*
X87804761Y-65212380D01*
X87900000Y-65212380D01*
X87995238Y-65164761D01*
X88042857Y-65117142D01*
X88090476Y-65021904D01*
X88138095Y-64831428D01*
X88138095Y-64593333D01*
X88090476Y-64402857D01*
X88042857Y-64307619D01*
X87995238Y-64260000D01*
X87900000Y-64212380D01*
X87138095Y-65212380D02*
X87138095Y-64212380D01*
X87042857Y-64831428D02*
X86757142Y-65212380D01*
X86757142Y-64545714D02*
X87138095Y-64926666D01*
X100621428Y-65602380D02*
X101192857Y-65602380D01*
X100907142Y-65602380D02*
X100907142Y-64602380D01*
X101002380Y-64745238D01*
X101097619Y-64840476D01*
X101192857Y-64888095D01*
X100002380Y-64602380D02*
X99907142Y-64602380D01*
X99811904Y-64650000D01*
X99764285Y-64697619D01*
X99716666Y-64792857D01*
X99669047Y-64983333D01*
X99669047Y-65221428D01*
X99716666Y-65411904D01*
X99764285Y-65507142D01*
X99811904Y-65554761D01*
X99907142Y-65602380D01*
X100002380Y-65602380D01*
X100097619Y-65554761D01*
X100145238Y-65507142D01*
X100192857Y-65411904D01*
X100240476Y-65221428D01*
X100240476Y-64983333D01*
X100192857Y-64792857D01*
X100145238Y-64697619D01*
X100097619Y-64650000D01*
X100002380Y-64602380D01*
X99050000Y-64602380D02*
X98954761Y-64602380D01*
X98859523Y-64650000D01*
X98811904Y-64697619D01*
X98764285Y-64792857D01*
X98716666Y-64983333D01*
X98716666Y-65221428D01*
X98764285Y-65411904D01*
X98811904Y-65507142D01*
X98859523Y-65554761D01*
X98954761Y-65602380D01*
X99050000Y-65602380D01*
X99145238Y-65554761D01*
X99192857Y-65507142D01*
X99240476Y-65411904D01*
X99288095Y-65221428D01*
X99288095Y-64983333D01*
X99240476Y-64792857D01*
X99192857Y-64697619D01*
X99145238Y-64650000D01*
X99050000Y-64602380D01*
X98288095Y-65602380D02*
X98288095Y-64602380D01*
X98192857Y-65221428D02*
X97907142Y-65602380D01*
X97907142Y-64935714D02*
X98288095Y-65316666D01*
X100981428Y-67792380D02*
X101552857Y-67792380D01*
X101267142Y-67792380D02*
X101267142Y-66792380D01*
X101362380Y-66935238D01*
X101457619Y-67030476D01*
X101552857Y-67078095D01*
X100362380Y-66792380D02*
X100267142Y-66792380D01*
X100171904Y-66840000D01*
X100124285Y-66887619D01*
X100076666Y-66982857D01*
X100029047Y-67173333D01*
X100029047Y-67411428D01*
X100076666Y-67601904D01*
X100124285Y-67697142D01*
X100171904Y-67744761D01*
X100267142Y-67792380D01*
X100362380Y-67792380D01*
X100457619Y-67744761D01*
X100505238Y-67697142D01*
X100552857Y-67601904D01*
X100600476Y-67411428D01*
X100600476Y-67173333D01*
X100552857Y-66982857D01*
X100505238Y-66887619D01*
X100457619Y-66840000D01*
X100362380Y-66792380D01*
X99410000Y-66792380D02*
X99314761Y-66792380D01*
X99219523Y-66840000D01*
X99171904Y-66887619D01*
X99124285Y-66982857D01*
X99076666Y-67173333D01*
X99076666Y-67411428D01*
X99124285Y-67601904D01*
X99171904Y-67697142D01*
X99219523Y-67744761D01*
X99314761Y-67792380D01*
X99410000Y-67792380D01*
X99505238Y-67744761D01*
X99552857Y-67697142D01*
X99600476Y-67601904D01*
X99648095Y-67411428D01*
X99648095Y-67173333D01*
X99600476Y-66982857D01*
X99552857Y-66887619D01*
X99505238Y-66840000D01*
X99410000Y-66792380D01*
X98648095Y-67792380D02*
X98648095Y-66792380D01*
X98552857Y-67411428D02*
X98267142Y-67792380D01*
X98267142Y-67125714D02*
X98648095Y-67506666D01*
X101111428Y-71312380D02*
X101682857Y-71312380D01*
X101397142Y-71312380D02*
X101397142Y-70312380D01*
X101492380Y-70455238D01*
X101587619Y-70550476D01*
X101682857Y-70598095D01*
X100492380Y-70312380D02*
X100397142Y-70312380D01*
X100301904Y-70360000D01*
X100254285Y-70407619D01*
X100206666Y-70502857D01*
X100159047Y-70693333D01*
X100159047Y-70931428D01*
X100206666Y-71121904D01*
X100254285Y-71217142D01*
X100301904Y-71264761D01*
X100397142Y-71312380D01*
X100492380Y-71312380D01*
X100587619Y-71264761D01*
X100635238Y-71217142D01*
X100682857Y-71121904D01*
X100730476Y-70931428D01*
X100730476Y-70693333D01*
X100682857Y-70502857D01*
X100635238Y-70407619D01*
X100587619Y-70360000D01*
X100492380Y-70312380D01*
X99540000Y-70312380D02*
X99444761Y-70312380D01*
X99349523Y-70360000D01*
X99301904Y-70407619D01*
X99254285Y-70502857D01*
X99206666Y-70693333D01*
X99206666Y-70931428D01*
X99254285Y-71121904D01*
X99301904Y-71217142D01*
X99349523Y-71264761D01*
X99444761Y-71312380D01*
X99540000Y-71312380D01*
X99635238Y-71264761D01*
X99682857Y-71217142D01*
X99730476Y-71121904D01*
X99778095Y-70931428D01*
X99778095Y-70693333D01*
X99730476Y-70502857D01*
X99682857Y-70407619D01*
X99635238Y-70360000D01*
X99540000Y-70312380D01*
X98778095Y-71312380D02*
X98778095Y-70312380D01*
X98682857Y-70931428D02*
X98397142Y-71312380D01*
X98397142Y-70645714D02*
X98778095Y-71026666D01*
X101311428Y-74482380D02*
X101882857Y-74482380D01*
X101597142Y-74482380D02*
X101597142Y-73482380D01*
X101692380Y-73625238D01*
X101787619Y-73720476D01*
X101882857Y-73768095D01*
X100692380Y-73482380D02*
X100597142Y-73482380D01*
X100501904Y-73530000D01*
X100454285Y-73577619D01*
X100406666Y-73672857D01*
X100359047Y-73863333D01*
X100359047Y-74101428D01*
X100406666Y-74291904D01*
X100454285Y-74387142D01*
X100501904Y-74434761D01*
X100597142Y-74482380D01*
X100692380Y-74482380D01*
X100787619Y-74434761D01*
X100835238Y-74387142D01*
X100882857Y-74291904D01*
X100930476Y-74101428D01*
X100930476Y-73863333D01*
X100882857Y-73672857D01*
X100835238Y-73577619D01*
X100787619Y-73530000D01*
X100692380Y-73482380D01*
X99740000Y-73482380D02*
X99644761Y-73482380D01*
X99549523Y-73530000D01*
X99501904Y-73577619D01*
X99454285Y-73672857D01*
X99406666Y-73863333D01*
X99406666Y-74101428D01*
X99454285Y-74291904D01*
X99501904Y-74387142D01*
X99549523Y-74434761D01*
X99644761Y-74482380D01*
X99740000Y-74482380D01*
X99835238Y-74434761D01*
X99882857Y-74387142D01*
X99930476Y-74291904D01*
X99978095Y-74101428D01*
X99978095Y-73863333D01*
X99930476Y-73672857D01*
X99882857Y-73577619D01*
X99835238Y-73530000D01*
X99740000Y-73482380D01*
X98978095Y-74482380D02*
X98978095Y-73482380D01*
X98882857Y-74101428D02*
X98597142Y-74482380D01*
X98597142Y-73815714D02*
X98978095Y-74196666D01*
X101171428Y-77732380D02*
X101742857Y-77732380D01*
X101457142Y-77732380D02*
X101457142Y-76732380D01*
X101552380Y-76875238D01*
X101647619Y-76970476D01*
X101742857Y-77018095D01*
X100552380Y-76732380D02*
X100457142Y-76732380D01*
X100361904Y-76780000D01*
X100314285Y-76827619D01*
X100266666Y-76922857D01*
X100219047Y-77113333D01*
X100219047Y-77351428D01*
X100266666Y-77541904D01*
X100314285Y-77637142D01*
X100361904Y-77684761D01*
X100457142Y-77732380D01*
X100552380Y-77732380D01*
X100647619Y-77684761D01*
X100695238Y-77637142D01*
X100742857Y-77541904D01*
X100790476Y-77351428D01*
X100790476Y-77113333D01*
X100742857Y-76922857D01*
X100695238Y-76827619D01*
X100647619Y-76780000D01*
X100552380Y-76732380D01*
X99600000Y-76732380D02*
X99504761Y-76732380D01*
X99409523Y-76780000D01*
X99361904Y-76827619D01*
X99314285Y-76922857D01*
X99266666Y-77113333D01*
X99266666Y-77351428D01*
X99314285Y-77541904D01*
X99361904Y-77637142D01*
X99409523Y-77684761D01*
X99504761Y-77732380D01*
X99600000Y-77732380D01*
X99695238Y-77684761D01*
X99742857Y-77637142D01*
X99790476Y-77541904D01*
X99838095Y-77351428D01*
X99838095Y-77113333D01*
X99790476Y-76922857D01*
X99742857Y-76827619D01*
X99695238Y-76780000D01*
X99600000Y-76732380D01*
X98838095Y-77732380D02*
X98838095Y-76732380D01*
X98742857Y-77351428D02*
X98457142Y-77732380D01*
X98457142Y-77065714D02*
X98838095Y-77446666D01*
X100501428Y-80902380D02*
X101072857Y-80902380D01*
X100787142Y-80902380D02*
X100787142Y-79902380D01*
X100882380Y-80045238D01*
X100977619Y-80140476D01*
X101072857Y-80188095D01*
X99882380Y-79902380D02*
X99787142Y-79902380D01*
X99691904Y-79950000D01*
X99644285Y-79997619D01*
X99596666Y-80092857D01*
X99549047Y-80283333D01*
X99549047Y-80521428D01*
X99596666Y-80711904D01*
X99644285Y-80807142D01*
X99691904Y-80854761D01*
X99787142Y-80902380D01*
X99882380Y-80902380D01*
X99977619Y-80854761D01*
X100025238Y-80807142D01*
X100072857Y-80711904D01*
X100120476Y-80521428D01*
X100120476Y-80283333D01*
X100072857Y-80092857D01*
X100025238Y-79997619D01*
X99977619Y-79950000D01*
X99882380Y-79902380D01*
X98930000Y-79902380D02*
X98834761Y-79902380D01*
X98739523Y-79950000D01*
X98691904Y-79997619D01*
X98644285Y-80092857D01*
X98596666Y-80283333D01*
X98596666Y-80521428D01*
X98644285Y-80711904D01*
X98691904Y-80807142D01*
X98739523Y-80854761D01*
X98834761Y-80902380D01*
X98930000Y-80902380D01*
X99025238Y-80854761D01*
X99072857Y-80807142D01*
X99120476Y-80711904D01*
X99168095Y-80521428D01*
X99168095Y-80283333D01*
X99120476Y-80092857D01*
X99072857Y-79997619D01*
X99025238Y-79950000D01*
X98930000Y-79902380D01*
X98168095Y-80902380D02*
X98168095Y-79902380D01*
X98072857Y-80521428D02*
X97787142Y-80902380D01*
X97787142Y-80235714D02*
X98168095Y-80616666D01*
X100601428Y-84882380D02*
X101172857Y-84882380D01*
X100887142Y-84882380D02*
X100887142Y-83882380D01*
X100982380Y-84025238D01*
X101077619Y-84120476D01*
X101172857Y-84168095D01*
X99982380Y-83882380D02*
X99887142Y-83882380D01*
X99791904Y-83930000D01*
X99744285Y-83977619D01*
X99696666Y-84072857D01*
X99649047Y-84263333D01*
X99649047Y-84501428D01*
X99696666Y-84691904D01*
X99744285Y-84787142D01*
X99791904Y-84834761D01*
X99887142Y-84882380D01*
X99982380Y-84882380D01*
X100077619Y-84834761D01*
X100125238Y-84787142D01*
X100172857Y-84691904D01*
X100220476Y-84501428D01*
X100220476Y-84263333D01*
X100172857Y-84072857D01*
X100125238Y-83977619D01*
X100077619Y-83930000D01*
X99982380Y-83882380D01*
X99030000Y-83882380D02*
X98934761Y-83882380D01*
X98839523Y-83930000D01*
X98791904Y-83977619D01*
X98744285Y-84072857D01*
X98696666Y-84263333D01*
X98696666Y-84501428D01*
X98744285Y-84691904D01*
X98791904Y-84787142D01*
X98839523Y-84834761D01*
X98934761Y-84882380D01*
X99030000Y-84882380D01*
X99125238Y-84834761D01*
X99172857Y-84787142D01*
X99220476Y-84691904D01*
X99268095Y-84501428D01*
X99268095Y-84263333D01*
X99220476Y-84072857D01*
X99172857Y-83977619D01*
X99125238Y-83930000D01*
X99030000Y-83882380D01*
X98268095Y-84882380D02*
X98268095Y-83882380D01*
X98172857Y-84501428D02*
X97887142Y-84882380D01*
X97887142Y-84215714D02*
X98268095Y-84596666D01*
X100431428Y-88032380D02*
X101002857Y-88032380D01*
X100717142Y-88032380D02*
X100717142Y-87032380D01*
X100812380Y-87175238D01*
X100907619Y-87270476D01*
X101002857Y-87318095D01*
X99812380Y-87032380D02*
X99717142Y-87032380D01*
X99621904Y-87080000D01*
X99574285Y-87127619D01*
X99526666Y-87222857D01*
X99479047Y-87413333D01*
X99479047Y-87651428D01*
X99526666Y-87841904D01*
X99574285Y-87937142D01*
X99621904Y-87984761D01*
X99717142Y-88032380D01*
X99812380Y-88032380D01*
X99907619Y-87984761D01*
X99955238Y-87937142D01*
X100002857Y-87841904D01*
X100050476Y-87651428D01*
X100050476Y-87413333D01*
X100002857Y-87222857D01*
X99955238Y-87127619D01*
X99907619Y-87080000D01*
X99812380Y-87032380D01*
X98860000Y-87032380D02*
X98764761Y-87032380D01*
X98669523Y-87080000D01*
X98621904Y-87127619D01*
X98574285Y-87222857D01*
X98526666Y-87413333D01*
X98526666Y-87651428D01*
X98574285Y-87841904D01*
X98621904Y-87937142D01*
X98669523Y-87984761D01*
X98764761Y-88032380D01*
X98860000Y-88032380D01*
X98955238Y-87984761D01*
X99002857Y-87937142D01*
X99050476Y-87841904D01*
X99098095Y-87651428D01*
X99098095Y-87413333D01*
X99050476Y-87222857D01*
X99002857Y-87127619D01*
X98955238Y-87080000D01*
X98860000Y-87032380D01*
X98098095Y-88032380D02*
X98098095Y-87032380D01*
X98002857Y-87651428D02*
X97717142Y-88032380D01*
X97717142Y-87365714D02*
X98098095Y-87746666D01*
X85781428Y-61142380D02*
X86352857Y-61142380D01*
X86067142Y-61142380D02*
X86067142Y-60142380D01*
X86162380Y-60285238D01*
X86257619Y-60380476D01*
X86352857Y-60428095D01*
X85162380Y-60142380D02*
X85067142Y-60142380D01*
X84971904Y-60190000D01*
X84924285Y-60237619D01*
X84876666Y-60332857D01*
X84829047Y-60523333D01*
X84829047Y-60761428D01*
X84876666Y-60951904D01*
X84924285Y-61047142D01*
X84971904Y-61094761D01*
X85067142Y-61142380D01*
X85162380Y-61142380D01*
X85257619Y-61094761D01*
X85305238Y-61047142D01*
X85352857Y-60951904D01*
X85400476Y-60761428D01*
X85400476Y-60523333D01*
X85352857Y-60332857D01*
X85305238Y-60237619D01*
X85257619Y-60190000D01*
X85162380Y-60142380D01*
X84210000Y-60142380D02*
X84114761Y-60142380D01*
X84019523Y-60190000D01*
X83971904Y-60237619D01*
X83924285Y-60332857D01*
X83876666Y-60523333D01*
X83876666Y-60761428D01*
X83924285Y-60951904D01*
X83971904Y-61047142D01*
X84019523Y-61094761D01*
X84114761Y-61142380D01*
X84210000Y-61142380D01*
X84305238Y-61094761D01*
X84352857Y-61047142D01*
X84400476Y-60951904D01*
X84448095Y-60761428D01*
X84448095Y-60523333D01*
X84400476Y-60332857D01*
X84352857Y-60237619D01*
X84305238Y-60190000D01*
X84210000Y-60142380D01*
X83448095Y-61142380D02*
X83448095Y-60142380D01*
X83352857Y-60761428D02*
X83067142Y-61142380D01*
X83067142Y-60475714D02*
X83448095Y-60856666D01*
X89471428Y-56582380D02*
X90042857Y-56582380D01*
X89757142Y-56582380D02*
X89757142Y-55582380D01*
X89852380Y-55725238D01*
X89947619Y-55820476D01*
X90042857Y-55868095D01*
X88852380Y-55582380D02*
X88757142Y-55582380D01*
X88661904Y-55630000D01*
X88614285Y-55677619D01*
X88566666Y-55772857D01*
X88519047Y-55963333D01*
X88519047Y-56201428D01*
X88566666Y-56391904D01*
X88614285Y-56487142D01*
X88661904Y-56534761D01*
X88757142Y-56582380D01*
X88852380Y-56582380D01*
X88947619Y-56534761D01*
X88995238Y-56487142D01*
X89042857Y-56391904D01*
X89090476Y-56201428D01*
X89090476Y-55963333D01*
X89042857Y-55772857D01*
X88995238Y-55677619D01*
X88947619Y-55630000D01*
X88852380Y-55582380D01*
X87900000Y-55582380D02*
X87804761Y-55582380D01*
X87709523Y-55630000D01*
X87661904Y-55677619D01*
X87614285Y-55772857D01*
X87566666Y-55963333D01*
X87566666Y-56201428D01*
X87614285Y-56391904D01*
X87661904Y-56487142D01*
X87709523Y-56534761D01*
X87804761Y-56582380D01*
X87900000Y-56582380D01*
X87995238Y-56534761D01*
X88042857Y-56487142D01*
X88090476Y-56391904D01*
X88138095Y-56201428D01*
X88138095Y-55963333D01*
X88090476Y-55772857D01*
X88042857Y-55677619D01*
X87995238Y-55630000D01*
X87900000Y-55582380D01*
X87138095Y-56582380D02*
X87138095Y-55582380D01*
X87042857Y-56201428D02*
X86757142Y-56582380D01*
X86757142Y-55915714D02*
X87138095Y-56296666D01*
X89611428Y-53622380D02*
X90182857Y-53622380D01*
X89897142Y-53622380D02*
X89897142Y-52622380D01*
X89992380Y-52765238D01*
X90087619Y-52860476D01*
X90182857Y-52908095D01*
X88992380Y-52622380D02*
X88897142Y-52622380D01*
X88801904Y-52670000D01*
X88754285Y-52717619D01*
X88706666Y-52812857D01*
X88659047Y-53003333D01*
X88659047Y-53241428D01*
X88706666Y-53431904D01*
X88754285Y-53527142D01*
X88801904Y-53574761D01*
X88897142Y-53622380D01*
X88992380Y-53622380D01*
X89087619Y-53574761D01*
X89135238Y-53527142D01*
X89182857Y-53431904D01*
X89230476Y-53241428D01*
X89230476Y-53003333D01*
X89182857Y-52812857D01*
X89135238Y-52717619D01*
X89087619Y-52670000D01*
X88992380Y-52622380D01*
X88040000Y-52622380D02*
X87944761Y-52622380D01*
X87849523Y-52670000D01*
X87801904Y-52717619D01*
X87754285Y-52812857D01*
X87706666Y-53003333D01*
X87706666Y-53241428D01*
X87754285Y-53431904D01*
X87801904Y-53527142D01*
X87849523Y-53574761D01*
X87944761Y-53622380D01*
X88040000Y-53622380D01*
X88135238Y-53574761D01*
X88182857Y-53527142D01*
X88230476Y-53431904D01*
X88278095Y-53241428D01*
X88278095Y-53003333D01*
X88230476Y-52812857D01*
X88182857Y-52717619D01*
X88135238Y-52670000D01*
X88040000Y-52622380D01*
X87278095Y-53622380D02*
X87278095Y-52622380D01*
X87182857Y-53241428D02*
X86897142Y-53622380D01*
X86897142Y-52955714D02*
X87278095Y-53336666D01*
X89531428Y-50662380D02*
X90102857Y-50662380D01*
X89817142Y-50662380D02*
X89817142Y-49662380D01*
X89912380Y-49805238D01*
X90007619Y-49900476D01*
X90102857Y-49948095D01*
X88912380Y-49662380D02*
X88817142Y-49662380D01*
X88721904Y-49710000D01*
X88674285Y-49757619D01*
X88626666Y-49852857D01*
X88579047Y-50043333D01*
X88579047Y-50281428D01*
X88626666Y-50471904D01*
X88674285Y-50567142D01*
X88721904Y-50614761D01*
X88817142Y-50662380D01*
X88912380Y-50662380D01*
X89007619Y-50614761D01*
X89055238Y-50567142D01*
X89102857Y-50471904D01*
X89150476Y-50281428D01*
X89150476Y-50043333D01*
X89102857Y-49852857D01*
X89055238Y-49757619D01*
X89007619Y-49710000D01*
X88912380Y-49662380D01*
X87960000Y-49662380D02*
X87864761Y-49662380D01*
X87769523Y-49710000D01*
X87721904Y-49757619D01*
X87674285Y-49852857D01*
X87626666Y-50043333D01*
X87626666Y-50281428D01*
X87674285Y-50471904D01*
X87721904Y-50567142D01*
X87769523Y-50614761D01*
X87864761Y-50662380D01*
X87960000Y-50662380D01*
X88055238Y-50614761D01*
X88102857Y-50567142D01*
X88150476Y-50471904D01*
X88198095Y-50281428D01*
X88198095Y-50043333D01*
X88150476Y-49852857D01*
X88102857Y-49757619D01*
X88055238Y-49710000D01*
X87960000Y-49662380D01*
X87198095Y-50662380D02*
X87198095Y-49662380D01*
X87102857Y-50281428D02*
X86817142Y-50662380D01*
X86817142Y-49995714D02*
X87198095Y-50376666D01*
X89751428Y-46632380D02*
X90322857Y-46632380D01*
X90037142Y-46632380D02*
X90037142Y-45632380D01*
X90132380Y-45775238D01*
X90227619Y-45870476D01*
X90322857Y-45918095D01*
X89132380Y-45632380D02*
X89037142Y-45632380D01*
X88941904Y-45680000D01*
X88894285Y-45727619D01*
X88846666Y-45822857D01*
X88799047Y-46013333D01*
X88799047Y-46251428D01*
X88846666Y-46441904D01*
X88894285Y-46537142D01*
X88941904Y-46584761D01*
X89037142Y-46632380D01*
X89132380Y-46632380D01*
X89227619Y-46584761D01*
X89275238Y-46537142D01*
X89322857Y-46441904D01*
X89370476Y-46251428D01*
X89370476Y-46013333D01*
X89322857Y-45822857D01*
X89275238Y-45727619D01*
X89227619Y-45680000D01*
X89132380Y-45632380D01*
X88180000Y-45632380D02*
X88084761Y-45632380D01*
X87989523Y-45680000D01*
X87941904Y-45727619D01*
X87894285Y-45822857D01*
X87846666Y-46013333D01*
X87846666Y-46251428D01*
X87894285Y-46441904D01*
X87941904Y-46537142D01*
X87989523Y-46584761D01*
X88084761Y-46632380D01*
X88180000Y-46632380D01*
X88275238Y-46584761D01*
X88322857Y-46537142D01*
X88370476Y-46441904D01*
X88418095Y-46251428D01*
X88418095Y-46013333D01*
X88370476Y-45822857D01*
X88322857Y-45727619D01*
X88275238Y-45680000D01*
X88180000Y-45632380D01*
X87418095Y-46632380D02*
X87418095Y-45632380D01*
X87322857Y-46251428D02*
X87037142Y-46632380D01*
X87037142Y-45965714D02*
X87418095Y-46346666D01*
X89701428Y-43652380D02*
X90272857Y-43652380D01*
X89987142Y-43652380D02*
X89987142Y-42652380D01*
X90082380Y-42795238D01*
X90177619Y-42890476D01*
X90272857Y-42938095D01*
X89082380Y-42652380D02*
X88987142Y-42652380D01*
X88891904Y-42700000D01*
X88844285Y-42747619D01*
X88796666Y-42842857D01*
X88749047Y-43033333D01*
X88749047Y-43271428D01*
X88796666Y-43461904D01*
X88844285Y-43557142D01*
X88891904Y-43604761D01*
X88987142Y-43652380D01*
X89082380Y-43652380D01*
X89177619Y-43604761D01*
X89225238Y-43557142D01*
X89272857Y-43461904D01*
X89320476Y-43271428D01*
X89320476Y-43033333D01*
X89272857Y-42842857D01*
X89225238Y-42747619D01*
X89177619Y-42700000D01*
X89082380Y-42652380D01*
X88130000Y-42652380D02*
X88034761Y-42652380D01*
X87939523Y-42700000D01*
X87891904Y-42747619D01*
X87844285Y-42842857D01*
X87796666Y-43033333D01*
X87796666Y-43271428D01*
X87844285Y-43461904D01*
X87891904Y-43557142D01*
X87939523Y-43604761D01*
X88034761Y-43652380D01*
X88130000Y-43652380D01*
X88225238Y-43604761D01*
X88272857Y-43557142D01*
X88320476Y-43461904D01*
X88368095Y-43271428D01*
X88368095Y-43033333D01*
X88320476Y-42842857D01*
X88272857Y-42747619D01*
X88225238Y-42700000D01*
X88130000Y-42652380D01*
X87368095Y-43652380D02*
X87368095Y-42652380D01*
X87272857Y-43271428D02*
X86987142Y-43652380D01*
X86987142Y-42985714D02*
X87368095Y-43366666D01*
X89641428Y-40962380D02*
X90212857Y-40962380D01*
X89927142Y-40962380D02*
X89927142Y-39962380D01*
X90022380Y-40105238D01*
X90117619Y-40200476D01*
X90212857Y-40248095D01*
X89022380Y-39962380D02*
X88927142Y-39962380D01*
X88831904Y-40010000D01*
X88784285Y-40057619D01*
X88736666Y-40152857D01*
X88689047Y-40343333D01*
X88689047Y-40581428D01*
X88736666Y-40771904D01*
X88784285Y-40867142D01*
X88831904Y-40914761D01*
X88927142Y-40962380D01*
X89022380Y-40962380D01*
X89117619Y-40914761D01*
X89165238Y-40867142D01*
X89212857Y-40771904D01*
X89260476Y-40581428D01*
X89260476Y-40343333D01*
X89212857Y-40152857D01*
X89165238Y-40057619D01*
X89117619Y-40010000D01*
X89022380Y-39962380D01*
X88070000Y-39962380D02*
X87974761Y-39962380D01*
X87879523Y-40010000D01*
X87831904Y-40057619D01*
X87784285Y-40152857D01*
X87736666Y-40343333D01*
X87736666Y-40581428D01*
X87784285Y-40771904D01*
X87831904Y-40867142D01*
X87879523Y-40914761D01*
X87974761Y-40962380D01*
X88070000Y-40962380D01*
X88165238Y-40914761D01*
X88212857Y-40867142D01*
X88260476Y-40771904D01*
X88308095Y-40581428D01*
X88308095Y-40343333D01*
X88260476Y-40152857D01*
X88212857Y-40057619D01*
X88165238Y-40010000D01*
X88070000Y-39962380D01*
X87308095Y-40962380D02*
X87308095Y-39962380D01*
X87212857Y-40581428D02*
X86927142Y-40962380D01*
X86927142Y-40295714D02*
X87308095Y-40676666D01*
X89671428Y-38032380D02*
X90242857Y-38032380D01*
X89957142Y-38032380D02*
X89957142Y-37032380D01*
X90052380Y-37175238D01*
X90147619Y-37270476D01*
X90242857Y-37318095D01*
X89052380Y-37032380D02*
X88957142Y-37032380D01*
X88861904Y-37080000D01*
X88814285Y-37127619D01*
X88766666Y-37222857D01*
X88719047Y-37413333D01*
X88719047Y-37651428D01*
X88766666Y-37841904D01*
X88814285Y-37937142D01*
X88861904Y-37984761D01*
X88957142Y-38032380D01*
X89052380Y-38032380D01*
X89147619Y-37984761D01*
X89195238Y-37937142D01*
X89242857Y-37841904D01*
X89290476Y-37651428D01*
X89290476Y-37413333D01*
X89242857Y-37222857D01*
X89195238Y-37127619D01*
X89147619Y-37080000D01*
X89052380Y-37032380D01*
X88100000Y-37032380D02*
X88004761Y-37032380D01*
X87909523Y-37080000D01*
X87861904Y-37127619D01*
X87814285Y-37222857D01*
X87766666Y-37413333D01*
X87766666Y-37651428D01*
X87814285Y-37841904D01*
X87861904Y-37937142D01*
X87909523Y-37984761D01*
X88004761Y-38032380D01*
X88100000Y-38032380D01*
X88195238Y-37984761D01*
X88242857Y-37937142D01*
X88290476Y-37841904D01*
X88338095Y-37651428D01*
X88338095Y-37413333D01*
X88290476Y-37222857D01*
X88242857Y-37127619D01*
X88195238Y-37080000D01*
X88100000Y-37032380D01*
X87338095Y-38032380D02*
X87338095Y-37032380D01*
X87242857Y-37651428D02*
X86957142Y-38032380D01*
X86957142Y-37365714D02*
X87338095Y-37746666D01*
X101191428Y-36402380D02*
X101762857Y-36402380D01*
X101477142Y-36402380D02*
X101477142Y-35402380D01*
X101572380Y-35545238D01*
X101667619Y-35640476D01*
X101762857Y-35688095D01*
X100572380Y-35402380D02*
X100477142Y-35402380D01*
X100381904Y-35450000D01*
X100334285Y-35497619D01*
X100286666Y-35592857D01*
X100239047Y-35783333D01*
X100239047Y-36021428D01*
X100286666Y-36211904D01*
X100334285Y-36307142D01*
X100381904Y-36354761D01*
X100477142Y-36402380D01*
X100572380Y-36402380D01*
X100667619Y-36354761D01*
X100715238Y-36307142D01*
X100762857Y-36211904D01*
X100810476Y-36021428D01*
X100810476Y-35783333D01*
X100762857Y-35592857D01*
X100715238Y-35497619D01*
X100667619Y-35450000D01*
X100572380Y-35402380D01*
X99620000Y-35402380D02*
X99524761Y-35402380D01*
X99429523Y-35450000D01*
X99381904Y-35497619D01*
X99334285Y-35592857D01*
X99286666Y-35783333D01*
X99286666Y-36021428D01*
X99334285Y-36211904D01*
X99381904Y-36307142D01*
X99429523Y-36354761D01*
X99524761Y-36402380D01*
X99620000Y-36402380D01*
X99715238Y-36354761D01*
X99762857Y-36307142D01*
X99810476Y-36211904D01*
X99858095Y-36021428D01*
X99858095Y-35783333D01*
X99810476Y-35592857D01*
X99762857Y-35497619D01*
X99715238Y-35450000D01*
X99620000Y-35402380D01*
X98858095Y-36402380D02*
X98858095Y-35402380D01*
X98762857Y-36021428D02*
X98477142Y-36402380D01*
X98477142Y-35735714D02*
X98858095Y-36116666D01*
X101271428Y-39572380D02*
X101842857Y-39572380D01*
X101557142Y-39572380D02*
X101557142Y-38572380D01*
X101652380Y-38715238D01*
X101747619Y-38810476D01*
X101842857Y-38858095D01*
X100652380Y-38572380D02*
X100557142Y-38572380D01*
X100461904Y-38620000D01*
X100414285Y-38667619D01*
X100366666Y-38762857D01*
X100319047Y-38953333D01*
X100319047Y-39191428D01*
X100366666Y-39381904D01*
X100414285Y-39477142D01*
X100461904Y-39524761D01*
X100557142Y-39572380D01*
X100652380Y-39572380D01*
X100747619Y-39524761D01*
X100795238Y-39477142D01*
X100842857Y-39381904D01*
X100890476Y-39191428D01*
X100890476Y-38953333D01*
X100842857Y-38762857D01*
X100795238Y-38667619D01*
X100747619Y-38620000D01*
X100652380Y-38572380D01*
X99700000Y-38572380D02*
X99604761Y-38572380D01*
X99509523Y-38620000D01*
X99461904Y-38667619D01*
X99414285Y-38762857D01*
X99366666Y-38953333D01*
X99366666Y-39191428D01*
X99414285Y-39381904D01*
X99461904Y-39477142D01*
X99509523Y-39524761D01*
X99604761Y-39572380D01*
X99700000Y-39572380D01*
X99795238Y-39524761D01*
X99842857Y-39477142D01*
X99890476Y-39381904D01*
X99938095Y-39191428D01*
X99938095Y-38953333D01*
X99890476Y-38762857D01*
X99842857Y-38667619D01*
X99795238Y-38620000D01*
X99700000Y-38572380D01*
X98938095Y-39572380D02*
X98938095Y-38572380D01*
X98842857Y-39191428D02*
X98557142Y-39572380D01*
X98557142Y-38905714D02*
X98938095Y-39286666D01*
X101351428Y-43002380D02*
X101922857Y-43002380D01*
X101637142Y-43002380D02*
X101637142Y-42002380D01*
X101732380Y-42145238D01*
X101827619Y-42240476D01*
X101922857Y-42288095D01*
X100732380Y-42002380D02*
X100637142Y-42002380D01*
X100541904Y-42050000D01*
X100494285Y-42097619D01*
X100446666Y-42192857D01*
X100399047Y-42383333D01*
X100399047Y-42621428D01*
X100446666Y-42811904D01*
X100494285Y-42907142D01*
X100541904Y-42954761D01*
X100637142Y-43002380D01*
X100732380Y-43002380D01*
X100827619Y-42954761D01*
X100875238Y-42907142D01*
X100922857Y-42811904D01*
X100970476Y-42621428D01*
X100970476Y-42383333D01*
X100922857Y-42192857D01*
X100875238Y-42097619D01*
X100827619Y-42050000D01*
X100732380Y-42002380D01*
X99780000Y-42002380D02*
X99684761Y-42002380D01*
X99589523Y-42050000D01*
X99541904Y-42097619D01*
X99494285Y-42192857D01*
X99446666Y-42383333D01*
X99446666Y-42621428D01*
X99494285Y-42811904D01*
X99541904Y-42907142D01*
X99589523Y-42954761D01*
X99684761Y-43002380D01*
X99780000Y-43002380D01*
X99875238Y-42954761D01*
X99922857Y-42907142D01*
X99970476Y-42811904D01*
X100018095Y-42621428D01*
X100018095Y-42383333D01*
X99970476Y-42192857D01*
X99922857Y-42097619D01*
X99875238Y-42050000D01*
X99780000Y-42002380D01*
X99018095Y-43002380D02*
X99018095Y-42002380D01*
X98922857Y-42621428D02*
X98637142Y-43002380D01*
X98637142Y-42335714D02*
X99018095Y-42716666D01*
X101371428Y-46092380D02*
X101942857Y-46092380D01*
X101657142Y-46092380D02*
X101657142Y-45092380D01*
X101752380Y-45235238D01*
X101847619Y-45330476D01*
X101942857Y-45378095D01*
X100752380Y-45092380D02*
X100657142Y-45092380D01*
X100561904Y-45140000D01*
X100514285Y-45187619D01*
X100466666Y-45282857D01*
X100419047Y-45473333D01*
X100419047Y-45711428D01*
X100466666Y-45901904D01*
X100514285Y-45997142D01*
X100561904Y-46044761D01*
X100657142Y-46092380D01*
X100752380Y-46092380D01*
X100847619Y-46044761D01*
X100895238Y-45997142D01*
X100942857Y-45901904D01*
X100990476Y-45711428D01*
X100990476Y-45473333D01*
X100942857Y-45282857D01*
X100895238Y-45187619D01*
X100847619Y-45140000D01*
X100752380Y-45092380D01*
X99800000Y-45092380D02*
X99704761Y-45092380D01*
X99609523Y-45140000D01*
X99561904Y-45187619D01*
X99514285Y-45282857D01*
X99466666Y-45473333D01*
X99466666Y-45711428D01*
X99514285Y-45901904D01*
X99561904Y-45997142D01*
X99609523Y-46044761D01*
X99704761Y-46092380D01*
X99800000Y-46092380D01*
X99895238Y-46044761D01*
X99942857Y-45997142D01*
X99990476Y-45901904D01*
X100038095Y-45711428D01*
X100038095Y-45473333D01*
X99990476Y-45282857D01*
X99942857Y-45187619D01*
X99895238Y-45140000D01*
X99800000Y-45092380D01*
X99038095Y-46092380D02*
X99038095Y-45092380D01*
X98942857Y-45711428D02*
X98657142Y-46092380D01*
X98657142Y-45425714D02*
X99038095Y-45806666D01*
X101371428Y-49282380D02*
X101942857Y-49282380D01*
X101657142Y-49282380D02*
X101657142Y-48282380D01*
X101752380Y-48425238D01*
X101847619Y-48520476D01*
X101942857Y-48568095D01*
X100752380Y-48282380D02*
X100657142Y-48282380D01*
X100561904Y-48330000D01*
X100514285Y-48377619D01*
X100466666Y-48472857D01*
X100419047Y-48663333D01*
X100419047Y-48901428D01*
X100466666Y-49091904D01*
X100514285Y-49187142D01*
X100561904Y-49234761D01*
X100657142Y-49282380D01*
X100752380Y-49282380D01*
X100847619Y-49234761D01*
X100895238Y-49187142D01*
X100942857Y-49091904D01*
X100990476Y-48901428D01*
X100990476Y-48663333D01*
X100942857Y-48472857D01*
X100895238Y-48377619D01*
X100847619Y-48330000D01*
X100752380Y-48282380D01*
X99800000Y-48282380D02*
X99704761Y-48282380D01*
X99609523Y-48330000D01*
X99561904Y-48377619D01*
X99514285Y-48472857D01*
X99466666Y-48663333D01*
X99466666Y-48901428D01*
X99514285Y-49091904D01*
X99561904Y-49187142D01*
X99609523Y-49234761D01*
X99704761Y-49282380D01*
X99800000Y-49282380D01*
X99895238Y-49234761D01*
X99942857Y-49187142D01*
X99990476Y-49091904D01*
X100038095Y-48901428D01*
X100038095Y-48663333D01*
X99990476Y-48472857D01*
X99942857Y-48377619D01*
X99895238Y-48330000D01*
X99800000Y-48282380D01*
X99038095Y-49282380D02*
X99038095Y-48282380D01*
X98942857Y-48901428D02*
X98657142Y-49282380D01*
X98657142Y-48615714D02*
X99038095Y-48996666D01*
X101491428Y-52252380D02*
X102062857Y-52252380D01*
X101777142Y-52252380D02*
X101777142Y-51252380D01*
X101872380Y-51395238D01*
X101967619Y-51490476D01*
X102062857Y-51538095D01*
X100872380Y-51252380D02*
X100777142Y-51252380D01*
X100681904Y-51300000D01*
X100634285Y-51347619D01*
X100586666Y-51442857D01*
X100539047Y-51633333D01*
X100539047Y-51871428D01*
X100586666Y-52061904D01*
X100634285Y-52157142D01*
X100681904Y-52204761D01*
X100777142Y-52252380D01*
X100872380Y-52252380D01*
X100967619Y-52204761D01*
X101015238Y-52157142D01*
X101062857Y-52061904D01*
X101110476Y-51871428D01*
X101110476Y-51633333D01*
X101062857Y-51442857D01*
X101015238Y-51347619D01*
X100967619Y-51300000D01*
X100872380Y-51252380D01*
X99920000Y-51252380D02*
X99824761Y-51252380D01*
X99729523Y-51300000D01*
X99681904Y-51347619D01*
X99634285Y-51442857D01*
X99586666Y-51633333D01*
X99586666Y-51871428D01*
X99634285Y-52061904D01*
X99681904Y-52157142D01*
X99729523Y-52204761D01*
X99824761Y-52252380D01*
X99920000Y-52252380D01*
X100015238Y-52204761D01*
X100062857Y-52157142D01*
X100110476Y-52061904D01*
X100158095Y-51871428D01*
X100158095Y-51633333D01*
X100110476Y-51442857D01*
X100062857Y-51347619D01*
X100015238Y-51300000D01*
X99920000Y-51252380D01*
X99158095Y-52252380D02*
X99158095Y-51252380D01*
X99062857Y-51871428D02*
X98777142Y-52252380D01*
X98777142Y-51585714D02*
X99158095Y-51966666D01*
X101471428Y-55682380D02*
X102042857Y-55682380D01*
X101757142Y-55682380D02*
X101757142Y-54682380D01*
X101852380Y-54825238D01*
X101947619Y-54920476D01*
X102042857Y-54968095D01*
X100852380Y-54682380D02*
X100757142Y-54682380D01*
X100661904Y-54730000D01*
X100614285Y-54777619D01*
X100566666Y-54872857D01*
X100519047Y-55063333D01*
X100519047Y-55301428D01*
X100566666Y-55491904D01*
X100614285Y-55587142D01*
X100661904Y-55634761D01*
X100757142Y-55682380D01*
X100852380Y-55682380D01*
X100947619Y-55634761D01*
X100995238Y-55587142D01*
X101042857Y-55491904D01*
X101090476Y-55301428D01*
X101090476Y-55063333D01*
X101042857Y-54872857D01*
X100995238Y-54777619D01*
X100947619Y-54730000D01*
X100852380Y-54682380D01*
X99900000Y-54682380D02*
X99804761Y-54682380D01*
X99709523Y-54730000D01*
X99661904Y-54777619D01*
X99614285Y-54872857D01*
X99566666Y-55063333D01*
X99566666Y-55301428D01*
X99614285Y-55491904D01*
X99661904Y-55587142D01*
X99709523Y-55634761D01*
X99804761Y-55682380D01*
X99900000Y-55682380D01*
X99995238Y-55634761D01*
X100042857Y-55587142D01*
X100090476Y-55491904D01*
X100138095Y-55301428D01*
X100138095Y-55063333D01*
X100090476Y-54872857D01*
X100042857Y-54777619D01*
X99995238Y-54730000D01*
X99900000Y-54682380D01*
X99138095Y-55682380D02*
X99138095Y-54682380D01*
X99042857Y-55301428D02*
X98757142Y-55682380D01*
X98757142Y-55015714D02*
X99138095Y-55396666D01*
X101511428Y-59012380D02*
X102082857Y-59012380D01*
X101797142Y-59012380D02*
X101797142Y-58012380D01*
X101892380Y-58155238D01*
X101987619Y-58250476D01*
X102082857Y-58298095D01*
X100892380Y-58012380D02*
X100797142Y-58012380D01*
X100701904Y-58060000D01*
X100654285Y-58107619D01*
X100606666Y-58202857D01*
X100559047Y-58393333D01*
X100559047Y-58631428D01*
X100606666Y-58821904D01*
X100654285Y-58917142D01*
X100701904Y-58964761D01*
X100797142Y-59012380D01*
X100892380Y-59012380D01*
X100987619Y-58964761D01*
X101035238Y-58917142D01*
X101082857Y-58821904D01*
X101130476Y-58631428D01*
X101130476Y-58393333D01*
X101082857Y-58202857D01*
X101035238Y-58107619D01*
X100987619Y-58060000D01*
X100892380Y-58012380D01*
X99940000Y-58012380D02*
X99844761Y-58012380D01*
X99749523Y-58060000D01*
X99701904Y-58107619D01*
X99654285Y-58202857D01*
X99606666Y-58393333D01*
X99606666Y-58631428D01*
X99654285Y-58821904D01*
X99701904Y-58917142D01*
X99749523Y-58964761D01*
X99844761Y-59012380D01*
X99940000Y-59012380D01*
X100035238Y-58964761D01*
X100082857Y-58917142D01*
X100130476Y-58821904D01*
X100178095Y-58631428D01*
X100178095Y-58393333D01*
X100130476Y-58202857D01*
X100082857Y-58107619D01*
X100035238Y-58060000D01*
X99940000Y-58012380D01*
X99178095Y-59012380D02*
X99178095Y-58012380D01*
X99082857Y-58631428D02*
X98797142Y-59012380D01*
X98797142Y-58345714D02*
X99178095Y-58726666D01*
D21*
X54019971Y-38410242D02*
X54945257Y-38410242D01*
X55054114Y-38464671D01*
X55108542Y-38519100D01*
X55162971Y-38627957D01*
X55162971Y-38845671D01*
X55108542Y-38954528D01*
X55054114Y-39008957D01*
X54945257Y-39063385D01*
X54019971Y-39063385D01*
X55162971Y-40206385D02*
X55162971Y-39553242D01*
X55162971Y-39879814D02*
X54019971Y-39879814D01*
X54183257Y-39770957D01*
X54292114Y-39662100D01*
X54346542Y-39553242D01*
X61702866Y-36042600D02*
X61702866Y-36635266D01*
X62591866Y-36254266D01*
X61702866Y-37397266D02*
X61702866Y-36973933D01*
X62126200Y-36931600D01*
X62083866Y-36973933D01*
X62041533Y-37058600D01*
X62041533Y-37270266D01*
X62083866Y-37354933D01*
X62126200Y-37397266D01*
X62210866Y-37439600D01*
X62422533Y-37439600D01*
X62507200Y-37397266D01*
X62549533Y-37354933D01*
X62591866Y-37270266D01*
X62591866Y-37058600D01*
X62549533Y-36973933D01*
X62507200Y-36931600D01*
X62591866Y-38243933D02*
X62591866Y-37820600D01*
X61702866Y-37820600D01*
X62126200Y-38836600D02*
X62168533Y-38963600D01*
X62210866Y-39005933D01*
X62295533Y-39048266D01*
X62422533Y-39048266D01*
X62507200Y-39005933D01*
X62549533Y-38963600D01*
X62591866Y-38878933D01*
X62591866Y-38540266D01*
X61702866Y-38540266D01*
X61702866Y-38836600D01*
X61745200Y-38921266D01*
X61787533Y-38963600D01*
X61872200Y-39005933D01*
X61956866Y-39005933D01*
X62041533Y-38963600D01*
X62083866Y-38921266D01*
X62126200Y-38836600D01*
X62126200Y-38540266D01*
X62507200Y-39937266D02*
X62549533Y-39894933D01*
X62591866Y-39767933D01*
X62591866Y-39683266D01*
X62549533Y-39556266D01*
X62464866Y-39471600D01*
X62380200Y-39429266D01*
X62210866Y-39386933D01*
X62083866Y-39386933D01*
X61914533Y-39429266D01*
X61829866Y-39471600D01*
X61745200Y-39556266D01*
X61702866Y-39683266D01*
X61702866Y-39767933D01*
X61745200Y-39894933D01*
X61787533Y-39937266D01*
X62591866Y-40783933D02*
X62591866Y-40275933D01*
X62591866Y-40529933D02*
X61702866Y-40529933D01*
X61829866Y-40445266D01*
X61914533Y-40360600D01*
X61956866Y-40275933D01*
X61702866Y-41080266D02*
X61702866Y-41672933D01*
X62591866Y-41291933D01*
X61702866Y-42392600D02*
X61702866Y-42223266D01*
X61745200Y-42138600D01*
X61787533Y-42096266D01*
X61914533Y-42011600D01*
X62083866Y-41969266D01*
X62422533Y-41969266D01*
X62507200Y-42011600D01*
X62549533Y-42053933D01*
X62591866Y-42138600D01*
X62591866Y-42307933D01*
X62549533Y-42392600D01*
X62507200Y-42434933D01*
X62422533Y-42477266D01*
X62210866Y-42477266D01*
X62126200Y-42434933D01*
X62083866Y-42392600D01*
X62041533Y-42307933D01*
X62041533Y-42138600D01*
X62083866Y-42053933D01*
X62126200Y-42011600D01*
X62210866Y-41969266D01*
D10*
X79589933Y-82151480D02*
X79589933Y-81151480D01*
X78542314Y-82151480D02*
X78875647Y-81675290D01*
X79113742Y-82151480D02*
X79113742Y-81151480D01*
X78732790Y-81151480D01*
X78637552Y-81199100D01*
X78589933Y-81246719D01*
X78542314Y-81341957D01*
X78542314Y-81484814D01*
X78589933Y-81580052D01*
X78637552Y-81627671D01*
X78732790Y-81675290D01*
X79113742Y-81675290D01*
X77780409Y-81627671D02*
X78113742Y-81627671D01*
X78113742Y-82151480D02*
X78113742Y-81151480D01*
X77637552Y-81151480D01*
X77351838Y-81151480D02*
X76685171Y-81151480D01*
X77113742Y-82151480D01*
X75780409Y-82151480D02*
X76351838Y-82151480D01*
X76066123Y-82151480D02*
X76066123Y-81151480D01*
X76161361Y-81294338D01*
X76256600Y-81389576D01*
X76351838Y-81437195D01*
X75161361Y-81151480D02*
X75066123Y-81151480D01*
X74970885Y-81199100D01*
X74923266Y-81246719D01*
X74875647Y-81341957D01*
X74828028Y-81532433D01*
X74828028Y-81770528D01*
X74875647Y-81961004D01*
X74923266Y-82056242D01*
X74970885Y-82103861D01*
X75066123Y-82151480D01*
X75161361Y-82151480D01*
X75256600Y-82103861D01*
X75304219Y-82056242D01*
X75351838Y-81961004D01*
X75399457Y-81770528D01*
X75399457Y-81532433D01*
X75351838Y-81341957D01*
X75304219Y-81246719D01*
X75256600Y-81199100D01*
X75161361Y-81151480D01*
X74494695Y-81151480D02*
X73875647Y-81151480D01*
X74208980Y-81532433D01*
X74066123Y-81532433D01*
X73970885Y-81580052D01*
X73923266Y-81627671D01*
X73875647Y-81722909D01*
X73875647Y-81961004D01*
X73923266Y-82056242D01*
X73970885Y-82103861D01*
X74066123Y-82151480D01*
X74351838Y-82151480D01*
X74447076Y-82103861D01*
X74494695Y-82056242D01*
X79691533Y-75661780D02*
X79691533Y-74661780D01*
X78643914Y-75661780D02*
X78977247Y-75185590D01*
X79215342Y-75661780D02*
X79215342Y-74661780D01*
X78834390Y-74661780D01*
X78739152Y-74709400D01*
X78691533Y-74757019D01*
X78643914Y-74852257D01*
X78643914Y-74995114D01*
X78691533Y-75090352D01*
X78739152Y-75137971D01*
X78834390Y-75185590D01*
X79215342Y-75185590D01*
X77882009Y-75137971D02*
X78215342Y-75137971D01*
X78215342Y-75661780D02*
X78215342Y-74661780D01*
X77739152Y-74661780D01*
X77453438Y-74661780D02*
X76786771Y-74661780D01*
X77215342Y-75661780D01*
X75882009Y-75661780D02*
X76453438Y-75661780D01*
X76167723Y-75661780D02*
X76167723Y-74661780D01*
X76262961Y-74804638D01*
X76358200Y-74899876D01*
X76453438Y-74947495D01*
X75262961Y-74661780D02*
X75167723Y-74661780D01*
X75072485Y-74709400D01*
X75024866Y-74757019D01*
X74977247Y-74852257D01*
X74929628Y-75042733D01*
X74929628Y-75280828D01*
X74977247Y-75471304D01*
X75024866Y-75566542D01*
X75072485Y-75614161D01*
X75167723Y-75661780D01*
X75262961Y-75661780D01*
X75358200Y-75614161D01*
X75405819Y-75566542D01*
X75453438Y-75471304D01*
X75501057Y-75280828D01*
X75501057Y-75042733D01*
X75453438Y-74852257D01*
X75405819Y-74757019D01*
X75358200Y-74709400D01*
X75262961Y-74661780D01*
X74596295Y-74661780D02*
X73977247Y-74661780D01*
X74310580Y-75042733D01*
X74167723Y-75042733D01*
X74072485Y-75090352D01*
X74024866Y-75137971D01*
X73977247Y-75233209D01*
X73977247Y-75471304D01*
X74024866Y-75566542D01*
X74072485Y-75614161D01*
X74167723Y-75661780D01*
X74453438Y-75661780D01*
X74548676Y-75614161D01*
X74596295Y-75566542D01*
X79640733Y-69413380D02*
X79640733Y-68413380D01*
X78593114Y-69413380D02*
X78926447Y-68937190D01*
X79164542Y-69413380D02*
X79164542Y-68413380D01*
X78783590Y-68413380D01*
X78688352Y-68461000D01*
X78640733Y-68508619D01*
X78593114Y-68603857D01*
X78593114Y-68746714D01*
X78640733Y-68841952D01*
X78688352Y-68889571D01*
X78783590Y-68937190D01*
X79164542Y-68937190D01*
X77831209Y-68889571D02*
X78164542Y-68889571D01*
X78164542Y-69413380D02*
X78164542Y-68413380D01*
X77688352Y-68413380D01*
X77402638Y-68413380D02*
X76735971Y-68413380D01*
X77164542Y-69413380D01*
X75831209Y-69413380D02*
X76402638Y-69413380D01*
X76116923Y-69413380D02*
X76116923Y-68413380D01*
X76212161Y-68556238D01*
X76307400Y-68651476D01*
X76402638Y-68699095D01*
X75212161Y-68413380D02*
X75116923Y-68413380D01*
X75021685Y-68461000D01*
X74974066Y-68508619D01*
X74926447Y-68603857D01*
X74878828Y-68794333D01*
X74878828Y-69032428D01*
X74926447Y-69222904D01*
X74974066Y-69318142D01*
X75021685Y-69365761D01*
X75116923Y-69413380D01*
X75212161Y-69413380D01*
X75307400Y-69365761D01*
X75355019Y-69318142D01*
X75402638Y-69222904D01*
X75450257Y-69032428D01*
X75450257Y-68794333D01*
X75402638Y-68603857D01*
X75355019Y-68508619D01*
X75307400Y-68461000D01*
X75212161Y-68413380D01*
X74545495Y-68413380D02*
X73926447Y-68413380D01*
X74259780Y-68794333D01*
X74116923Y-68794333D01*
X74021685Y-68841952D01*
X73974066Y-68889571D01*
X73926447Y-68984809D01*
X73926447Y-69222904D01*
X73974066Y-69318142D01*
X74021685Y-69365761D01*
X74116923Y-69413380D01*
X74402638Y-69413380D01*
X74497876Y-69365761D01*
X74545495Y-69318142D01*
X79640733Y-62809380D02*
X79640733Y-61809380D01*
X78593114Y-62809380D02*
X78926447Y-62333190D01*
X79164542Y-62809380D02*
X79164542Y-61809380D01*
X78783590Y-61809380D01*
X78688352Y-61857000D01*
X78640733Y-61904619D01*
X78593114Y-61999857D01*
X78593114Y-62142714D01*
X78640733Y-62237952D01*
X78688352Y-62285571D01*
X78783590Y-62333190D01*
X79164542Y-62333190D01*
X77831209Y-62285571D02*
X78164542Y-62285571D01*
X78164542Y-62809380D02*
X78164542Y-61809380D01*
X77688352Y-61809380D01*
X77402638Y-61809380D02*
X76735971Y-61809380D01*
X77164542Y-62809380D01*
X75831209Y-62809380D02*
X76402638Y-62809380D01*
X76116923Y-62809380D02*
X76116923Y-61809380D01*
X76212161Y-61952238D01*
X76307400Y-62047476D01*
X76402638Y-62095095D01*
X75212161Y-61809380D02*
X75116923Y-61809380D01*
X75021685Y-61857000D01*
X74974066Y-61904619D01*
X74926447Y-61999857D01*
X74878828Y-62190333D01*
X74878828Y-62428428D01*
X74926447Y-62618904D01*
X74974066Y-62714142D01*
X75021685Y-62761761D01*
X75116923Y-62809380D01*
X75212161Y-62809380D01*
X75307400Y-62761761D01*
X75355019Y-62714142D01*
X75402638Y-62618904D01*
X75450257Y-62428428D01*
X75450257Y-62190333D01*
X75402638Y-61999857D01*
X75355019Y-61904619D01*
X75307400Y-61857000D01*
X75212161Y-61809380D01*
X74545495Y-61809380D02*
X73926447Y-61809380D01*
X74259780Y-62190333D01*
X74116923Y-62190333D01*
X74021685Y-62237952D01*
X73974066Y-62285571D01*
X73926447Y-62380809D01*
X73926447Y-62618904D01*
X73974066Y-62714142D01*
X74021685Y-62761761D01*
X74116923Y-62809380D01*
X74402638Y-62809380D01*
X74497876Y-62761761D01*
X74545495Y-62714142D01*
X114654633Y-63012580D02*
X114654633Y-62012580D01*
X113607014Y-63012580D02*
X113940347Y-62536390D01*
X114178442Y-63012580D02*
X114178442Y-62012580D01*
X113797490Y-62012580D01*
X113702252Y-62060200D01*
X113654633Y-62107819D01*
X113607014Y-62203057D01*
X113607014Y-62345914D01*
X113654633Y-62441152D01*
X113702252Y-62488771D01*
X113797490Y-62536390D01*
X114178442Y-62536390D01*
X112845109Y-62488771D02*
X113178442Y-62488771D01*
X113178442Y-63012580D02*
X113178442Y-62012580D01*
X112702252Y-62012580D01*
X112416538Y-62012580D02*
X111749871Y-62012580D01*
X112178442Y-63012580D01*
X110845109Y-63012580D02*
X111416538Y-63012580D01*
X111130823Y-63012580D02*
X111130823Y-62012580D01*
X111226061Y-62155438D01*
X111321300Y-62250676D01*
X111416538Y-62298295D01*
X110226061Y-62012580D02*
X110130823Y-62012580D01*
X110035585Y-62060200D01*
X109987966Y-62107819D01*
X109940347Y-62203057D01*
X109892728Y-62393533D01*
X109892728Y-62631628D01*
X109940347Y-62822104D01*
X109987966Y-62917342D01*
X110035585Y-62964961D01*
X110130823Y-63012580D01*
X110226061Y-63012580D01*
X110321300Y-62964961D01*
X110368919Y-62917342D01*
X110416538Y-62822104D01*
X110464157Y-62631628D01*
X110464157Y-62393533D01*
X110416538Y-62203057D01*
X110368919Y-62107819D01*
X110321300Y-62060200D01*
X110226061Y-62012580D01*
X109559395Y-62012580D02*
X108940347Y-62012580D01*
X109273680Y-62393533D01*
X109130823Y-62393533D01*
X109035585Y-62441152D01*
X108987966Y-62488771D01*
X108940347Y-62584009D01*
X108940347Y-62822104D01*
X108987966Y-62917342D01*
X109035585Y-62964961D01*
X109130823Y-63012580D01*
X109416538Y-63012580D01*
X109511776Y-62964961D01*
X109559395Y-62917342D01*
X114654633Y-69514980D02*
X114654633Y-68514980D01*
X113607014Y-69514980D02*
X113940347Y-69038790D01*
X114178442Y-69514980D02*
X114178442Y-68514980D01*
X113797490Y-68514980D01*
X113702252Y-68562600D01*
X113654633Y-68610219D01*
X113607014Y-68705457D01*
X113607014Y-68848314D01*
X113654633Y-68943552D01*
X113702252Y-68991171D01*
X113797490Y-69038790D01*
X114178442Y-69038790D01*
X112845109Y-68991171D02*
X113178442Y-68991171D01*
X113178442Y-69514980D02*
X113178442Y-68514980D01*
X112702252Y-68514980D01*
X112416538Y-68514980D02*
X111749871Y-68514980D01*
X112178442Y-69514980D01*
X110845109Y-69514980D02*
X111416538Y-69514980D01*
X111130823Y-69514980D02*
X111130823Y-68514980D01*
X111226061Y-68657838D01*
X111321300Y-68753076D01*
X111416538Y-68800695D01*
X110226061Y-68514980D02*
X110130823Y-68514980D01*
X110035585Y-68562600D01*
X109987966Y-68610219D01*
X109940347Y-68705457D01*
X109892728Y-68895933D01*
X109892728Y-69134028D01*
X109940347Y-69324504D01*
X109987966Y-69419742D01*
X110035585Y-69467361D01*
X110130823Y-69514980D01*
X110226061Y-69514980D01*
X110321300Y-69467361D01*
X110368919Y-69419742D01*
X110416538Y-69324504D01*
X110464157Y-69134028D01*
X110464157Y-68895933D01*
X110416538Y-68705457D01*
X110368919Y-68610219D01*
X110321300Y-68562600D01*
X110226061Y-68514980D01*
X109559395Y-68514980D02*
X108940347Y-68514980D01*
X109273680Y-68895933D01*
X109130823Y-68895933D01*
X109035585Y-68943552D01*
X108987966Y-68991171D01*
X108940347Y-69086409D01*
X108940347Y-69324504D01*
X108987966Y-69419742D01*
X109035585Y-69467361D01*
X109130823Y-69514980D01*
X109416538Y-69514980D01*
X109511776Y-69467361D01*
X109559395Y-69419742D01*
X114591133Y-75864980D02*
X114591133Y-74864980D01*
X113543514Y-75864980D02*
X113876847Y-75388790D01*
X114114942Y-75864980D02*
X114114942Y-74864980D01*
X113733990Y-74864980D01*
X113638752Y-74912600D01*
X113591133Y-74960219D01*
X113543514Y-75055457D01*
X113543514Y-75198314D01*
X113591133Y-75293552D01*
X113638752Y-75341171D01*
X113733990Y-75388790D01*
X114114942Y-75388790D01*
X112781609Y-75341171D02*
X113114942Y-75341171D01*
X113114942Y-75864980D02*
X113114942Y-74864980D01*
X112638752Y-74864980D01*
X112353038Y-74864980D02*
X111686371Y-74864980D01*
X112114942Y-75864980D01*
X110781609Y-75864980D02*
X111353038Y-75864980D01*
X111067323Y-75864980D02*
X111067323Y-74864980D01*
X111162561Y-75007838D01*
X111257800Y-75103076D01*
X111353038Y-75150695D01*
X110162561Y-74864980D02*
X110067323Y-74864980D01*
X109972085Y-74912600D01*
X109924466Y-74960219D01*
X109876847Y-75055457D01*
X109829228Y-75245933D01*
X109829228Y-75484028D01*
X109876847Y-75674504D01*
X109924466Y-75769742D01*
X109972085Y-75817361D01*
X110067323Y-75864980D01*
X110162561Y-75864980D01*
X110257800Y-75817361D01*
X110305419Y-75769742D01*
X110353038Y-75674504D01*
X110400657Y-75484028D01*
X110400657Y-75245933D01*
X110353038Y-75055457D01*
X110305419Y-74960219D01*
X110257800Y-74912600D01*
X110162561Y-74864980D01*
X109495895Y-74864980D02*
X108876847Y-74864980D01*
X109210180Y-75245933D01*
X109067323Y-75245933D01*
X108972085Y-75293552D01*
X108924466Y-75341171D01*
X108876847Y-75436409D01*
X108876847Y-75674504D01*
X108924466Y-75769742D01*
X108972085Y-75817361D01*
X109067323Y-75864980D01*
X109353038Y-75864980D01*
X109448276Y-75817361D01*
X109495895Y-75769742D01*
X114895933Y-82202280D02*
X114895933Y-81202280D01*
X113848314Y-82202280D02*
X114181647Y-81726090D01*
X114419742Y-82202280D02*
X114419742Y-81202280D01*
X114038790Y-81202280D01*
X113943552Y-81249900D01*
X113895933Y-81297519D01*
X113848314Y-81392757D01*
X113848314Y-81535614D01*
X113895933Y-81630852D01*
X113943552Y-81678471D01*
X114038790Y-81726090D01*
X114419742Y-81726090D01*
X113086409Y-81678471D02*
X113419742Y-81678471D01*
X113419742Y-82202280D02*
X113419742Y-81202280D01*
X112943552Y-81202280D01*
X112657838Y-81202280D02*
X111991171Y-81202280D01*
X112419742Y-82202280D01*
X111086409Y-82202280D02*
X111657838Y-82202280D01*
X111372123Y-82202280D02*
X111372123Y-81202280D01*
X111467361Y-81345138D01*
X111562600Y-81440376D01*
X111657838Y-81487995D01*
X110467361Y-81202280D02*
X110372123Y-81202280D01*
X110276885Y-81249900D01*
X110229266Y-81297519D01*
X110181647Y-81392757D01*
X110134028Y-81583233D01*
X110134028Y-81821328D01*
X110181647Y-82011804D01*
X110229266Y-82107042D01*
X110276885Y-82154661D01*
X110372123Y-82202280D01*
X110467361Y-82202280D01*
X110562600Y-82154661D01*
X110610219Y-82107042D01*
X110657838Y-82011804D01*
X110705457Y-81821328D01*
X110705457Y-81583233D01*
X110657838Y-81392757D01*
X110610219Y-81297519D01*
X110562600Y-81249900D01*
X110467361Y-81202280D01*
X109800695Y-81202280D02*
X109181647Y-81202280D01*
X109514980Y-81583233D01*
X109372123Y-81583233D01*
X109276885Y-81630852D01*
X109229266Y-81678471D01*
X109181647Y-81773709D01*
X109181647Y-82011804D01*
X109229266Y-82107042D01*
X109276885Y-82154661D01*
X109372123Y-82202280D01*
X109657838Y-82202280D01*
X109753076Y-82154661D01*
X109800695Y-82107042D01*
X79526433Y-55379880D02*
X79526433Y-54379880D01*
X78478814Y-55379880D02*
X78812147Y-54903690D01*
X79050242Y-55379880D02*
X79050242Y-54379880D01*
X78669290Y-54379880D01*
X78574052Y-54427500D01*
X78526433Y-54475119D01*
X78478814Y-54570357D01*
X78478814Y-54713214D01*
X78526433Y-54808452D01*
X78574052Y-54856071D01*
X78669290Y-54903690D01*
X79050242Y-54903690D01*
X77716909Y-54856071D02*
X78050242Y-54856071D01*
X78050242Y-55379880D02*
X78050242Y-54379880D01*
X77574052Y-54379880D01*
X77288338Y-54379880D02*
X76621671Y-54379880D01*
X77050242Y-55379880D01*
X75716909Y-55379880D02*
X76288338Y-55379880D01*
X76002623Y-55379880D02*
X76002623Y-54379880D01*
X76097861Y-54522738D01*
X76193100Y-54617976D01*
X76288338Y-54665595D01*
X75097861Y-54379880D02*
X75002623Y-54379880D01*
X74907385Y-54427500D01*
X74859766Y-54475119D01*
X74812147Y-54570357D01*
X74764528Y-54760833D01*
X74764528Y-54998928D01*
X74812147Y-55189404D01*
X74859766Y-55284642D01*
X74907385Y-55332261D01*
X75002623Y-55379880D01*
X75097861Y-55379880D01*
X75193100Y-55332261D01*
X75240719Y-55284642D01*
X75288338Y-55189404D01*
X75335957Y-54998928D01*
X75335957Y-54760833D01*
X75288338Y-54570357D01*
X75240719Y-54475119D01*
X75193100Y-54427500D01*
X75097861Y-54379880D01*
X74431195Y-54379880D02*
X73812147Y-54379880D01*
X74145480Y-54760833D01*
X74002623Y-54760833D01*
X73907385Y-54808452D01*
X73859766Y-54856071D01*
X73812147Y-54951309D01*
X73812147Y-55189404D01*
X73859766Y-55284642D01*
X73907385Y-55332261D01*
X74002623Y-55379880D01*
X74288338Y-55379880D01*
X74383576Y-55332261D01*
X74431195Y-55284642D01*
X79729633Y-49093380D02*
X79729633Y-48093380D01*
X78682014Y-49093380D02*
X79015347Y-48617190D01*
X79253442Y-49093380D02*
X79253442Y-48093380D01*
X78872490Y-48093380D01*
X78777252Y-48141000D01*
X78729633Y-48188619D01*
X78682014Y-48283857D01*
X78682014Y-48426714D01*
X78729633Y-48521952D01*
X78777252Y-48569571D01*
X78872490Y-48617190D01*
X79253442Y-48617190D01*
X77920109Y-48569571D02*
X78253442Y-48569571D01*
X78253442Y-49093380D02*
X78253442Y-48093380D01*
X77777252Y-48093380D01*
X77491538Y-48093380D02*
X76824871Y-48093380D01*
X77253442Y-49093380D01*
X75920109Y-49093380D02*
X76491538Y-49093380D01*
X76205823Y-49093380D02*
X76205823Y-48093380D01*
X76301061Y-48236238D01*
X76396300Y-48331476D01*
X76491538Y-48379095D01*
X75301061Y-48093380D02*
X75205823Y-48093380D01*
X75110585Y-48141000D01*
X75062966Y-48188619D01*
X75015347Y-48283857D01*
X74967728Y-48474333D01*
X74967728Y-48712428D01*
X75015347Y-48902904D01*
X75062966Y-48998142D01*
X75110585Y-49045761D01*
X75205823Y-49093380D01*
X75301061Y-49093380D01*
X75396300Y-49045761D01*
X75443919Y-48998142D01*
X75491538Y-48902904D01*
X75539157Y-48712428D01*
X75539157Y-48474333D01*
X75491538Y-48283857D01*
X75443919Y-48188619D01*
X75396300Y-48141000D01*
X75301061Y-48093380D01*
X74634395Y-48093380D02*
X74015347Y-48093380D01*
X74348680Y-48474333D01*
X74205823Y-48474333D01*
X74110585Y-48521952D01*
X74062966Y-48569571D01*
X74015347Y-48664809D01*
X74015347Y-48902904D01*
X74062966Y-48998142D01*
X74110585Y-49045761D01*
X74205823Y-49093380D01*
X74491538Y-49093380D01*
X74586776Y-49045761D01*
X74634395Y-48998142D01*
X79729633Y-42730680D02*
X79729633Y-41730680D01*
X78682014Y-42730680D02*
X79015347Y-42254490D01*
X79253442Y-42730680D02*
X79253442Y-41730680D01*
X78872490Y-41730680D01*
X78777252Y-41778300D01*
X78729633Y-41825919D01*
X78682014Y-41921157D01*
X78682014Y-42064014D01*
X78729633Y-42159252D01*
X78777252Y-42206871D01*
X78872490Y-42254490D01*
X79253442Y-42254490D01*
X77920109Y-42206871D02*
X78253442Y-42206871D01*
X78253442Y-42730680D02*
X78253442Y-41730680D01*
X77777252Y-41730680D01*
X77491538Y-41730680D02*
X76824871Y-41730680D01*
X77253442Y-42730680D01*
X75920109Y-42730680D02*
X76491538Y-42730680D01*
X76205823Y-42730680D02*
X76205823Y-41730680D01*
X76301061Y-41873538D01*
X76396300Y-41968776D01*
X76491538Y-42016395D01*
X75301061Y-41730680D02*
X75205823Y-41730680D01*
X75110585Y-41778300D01*
X75062966Y-41825919D01*
X75015347Y-41921157D01*
X74967728Y-42111633D01*
X74967728Y-42349728D01*
X75015347Y-42540204D01*
X75062966Y-42635442D01*
X75110585Y-42683061D01*
X75205823Y-42730680D01*
X75301061Y-42730680D01*
X75396300Y-42683061D01*
X75443919Y-42635442D01*
X75491538Y-42540204D01*
X75539157Y-42349728D01*
X75539157Y-42111633D01*
X75491538Y-41921157D01*
X75443919Y-41825919D01*
X75396300Y-41778300D01*
X75301061Y-41730680D01*
X74634395Y-41730680D02*
X74015347Y-41730680D01*
X74348680Y-42111633D01*
X74205823Y-42111633D01*
X74110585Y-42159252D01*
X74062966Y-42206871D01*
X74015347Y-42302109D01*
X74015347Y-42540204D01*
X74062966Y-42635442D01*
X74110585Y-42683061D01*
X74205823Y-42730680D01*
X74491538Y-42730680D01*
X74586776Y-42683061D01*
X74634395Y-42635442D01*
X79589933Y-36266380D02*
X79589933Y-35266380D01*
X78542314Y-36266380D02*
X78875647Y-35790190D01*
X79113742Y-36266380D02*
X79113742Y-35266380D01*
X78732790Y-35266380D01*
X78637552Y-35314000D01*
X78589933Y-35361619D01*
X78542314Y-35456857D01*
X78542314Y-35599714D01*
X78589933Y-35694952D01*
X78637552Y-35742571D01*
X78732790Y-35790190D01*
X79113742Y-35790190D01*
X77780409Y-35742571D02*
X78113742Y-35742571D01*
X78113742Y-36266380D02*
X78113742Y-35266380D01*
X77637552Y-35266380D01*
X77351838Y-35266380D02*
X76685171Y-35266380D01*
X77113742Y-36266380D01*
X75780409Y-36266380D02*
X76351838Y-36266380D01*
X76066123Y-36266380D02*
X76066123Y-35266380D01*
X76161361Y-35409238D01*
X76256600Y-35504476D01*
X76351838Y-35552095D01*
X75161361Y-35266380D02*
X75066123Y-35266380D01*
X74970885Y-35314000D01*
X74923266Y-35361619D01*
X74875647Y-35456857D01*
X74828028Y-35647333D01*
X74828028Y-35885428D01*
X74875647Y-36075904D01*
X74923266Y-36171142D01*
X74970885Y-36218761D01*
X75066123Y-36266380D01*
X75161361Y-36266380D01*
X75256600Y-36218761D01*
X75304219Y-36171142D01*
X75351838Y-36075904D01*
X75399457Y-35885428D01*
X75399457Y-35647333D01*
X75351838Y-35456857D01*
X75304219Y-35361619D01*
X75256600Y-35314000D01*
X75161361Y-35266380D01*
X74494695Y-35266380D02*
X73875647Y-35266380D01*
X74208980Y-35647333D01*
X74066123Y-35647333D01*
X73970885Y-35694952D01*
X73923266Y-35742571D01*
X73875647Y-35837809D01*
X73875647Y-36075904D01*
X73923266Y-36171142D01*
X73970885Y-36218761D01*
X74066123Y-36266380D01*
X74351838Y-36266380D01*
X74447076Y-36218761D01*
X74494695Y-36171142D01*
X114654633Y-34628080D02*
X114654633Y-33628080D01*
X113607014Y-34628080D02*
X113940347Y-34151890D01*
X114178442Y-34628080D02*
X114178442Y-33628080D01*
X113797490Y-33628080D01*
X113702252Y-33675700D01*
X113654633Y-33723319D01*
X113607014Y-33818557D01*
X113607014Y-33961414D01*
X113654633Y-34056652D01*
X113702252Y-34104271D01*
X113797490Y-34151890D01*
X114178442Y-34151890D01*
X112845109Y-34104271D02*
X113178442Y-34104271D01*
X113178442Y-34628080D02*
X113178442Y-33628080D01*
X112702252Y-33628080D01*
X112416538Y-33628080D02*
X111749871Y-33628080D01*
X112178442Y-34628080D01*
X110845109Y-34628080D02*
X111416538Y-34628080D01*
X111130823Y-34628080D02*
X111130823Y-33628080D01*
X111226061Y-33770938D01*
X111321300Y-33866176D01*
X111416538Y-33913795D01*
X110226061Y-33628080D02*
X110130823Y-33628080D01*
X110035585Y-33675700D01*
X109987966Y-33723319D01*
X109940347Y-33818557D01*
X109892728Y-34009033D01*
X109892728Y-34247128D01*
X109940347Y-34437604D01*
X109987966Y-34532842D01*
X110035585Y-34580461D01*
X110130823Y-34628080D01*
X110226061Y-34628080D01*
X110321300Y-34580461D01*
X110368919Y-34532842D01*
X110416538Y-34437604D01*
X110464157Y-34247128D01*
X110464157Y-34009033D01*
X110416538Y-33818557D01*
X110368919Y-33723319D01*
X110321300Y-33675700D01*
X110226061Y-33628080D01*
X109559395Y-33628080D02*
X108940347Y-33628080D01*
X109273680Y-34009033D01*
X109130823Y-34009033D01*
X109035585Y-34056652D01*
X108987966Y-34104271D01*
X108940347Y-34199509D01*
X108940347Y-34437604D01*
X108987966Y-34532842D01*
X109035585Y-34580461D01*
X109130823Y-34628080D01*
X109416538Y-34628080D01*
X109511776Y-34580461D01*
X109559395Y-34532842D01*
X114616533Y-41155880D02*
X114616533Y-40155880D01*
X113568914Y-41155880D02*
X113902247Y-40679690D01*
X114140342Y-41155880D02*
X114140342Y-40155880D01*
X113759390Y-40155880D01*
X113664152Y-40203500D01*
X113616533Y-40251119D01*
X113568914Y-40346357D01*
X113568914Y-40489214D01*
X113616533Y-40584452D01*
X113664152Y-40632071D01*
X113759390Y-40679690D01*
X114140342Y-40679690D01*
X112807009Y-40632071D02*
X113140342Y-40632071D01*
X113140342Y-41155880D02*
X113140342Y-40155880D01*
X112664152Y-40155880D01*
X112378438Y-40155880D02*
X111711771Y-40155880D01*
X112140342Y-41155880D01*
X110807009Y-41155880D02*
X111378438Y-41155880D01*
X111092723Y-41155880D02*
X111092723Y-40155880D01*
X111187961Y-40298738D01*
X111283200Y-40393976D01*
X111378438Y-40441595D01*
X110187961Y-40155880D02*
X110092723Y-40155880D01*
X109997485Y-40203500D01*
X109949866Y-40251119D01*
X109902247Y-40346357D01*
X109854628Y-40536833D01*
X109854628Y-40774928D01*
X109902247Y-40965404D01*
X109949866Y-41060642D01*
X109997485Y-41108261D01*
X110092723Y-41155880D01*
X110187961Y-41155880D01*
X110283200Y-41108261D01*
X110330819Y-41060642D01*
X110378438Y-40965404D01*
X110426057Y-40774928D01*
X110426057Y-40536833D01*
X110378438Y-40346357D01*
X110330819Y-40251119D01*
X110283200Y-40203500D01*
X110187961Y-40155880D01*
X109521295Y-40155880D02*
X108902247Y-40155880D01*
X109235580Y-40536833D01*
X109092723Y-40536833D01*
X108997485Y-40584452D01*
X108949866Y-40632071D01*
X108902247Y-40727309D01*
X108902247Y-40965404D01*
X108949866Y-41060642D01*
X108997485Y-41108261D01*
X109092723Y-41155880D01*
X109378438Y-41155880D01*
X109473676Y-41108261D01*
X109521295Y-41060642D01*
X114756233Y-47442380D02*
X114756233Y-46442380D01*
X113708614Y-47442380D02*
X114041947Y-46966190D01*
X114280042Y-47442380D02*
X114280042Y-46442380D01*
X113899090Y-46442380D01*
X113803852Y-46490000D01*
X113756233Y-46537619D01*
X113708614Y-46632857D01*
X113708614Y-46775714D01*
X113756233Y-46870952D01*
X113803852Y-46918571D01*
X113899090Y-46966190D01*
X114280042Y-46966190D01*
X112946709Y-46918571D02*
X113280042Y-46918571D01*
X113280042Y-47442380D02*
X113280042Y-46442380D01*
X112803852Y-46442380D01*
X112518138Y-46442380D02*
X111851471Y-46442380D01*
X112280042Y-47442380D01*
X110946709Y-47442380D02*
X111518138Y-47442380D01*
X111232423Y-47442380D02*
X111232423Y-46442380D01*
X111327661Y-46585238D01*
X111422900Y-46680476D01*
X111518138Y-46728095D01*
X110327661Y-46442380D02*
X110232423Y-46442380D01*
X110137185Y-46490000D01*
X110089566Y-46537619D01*
X110041947Y-46632857D01*
X109994328Y-46823333D01*
X109994328Y-47061428D01*
X110041947Y-47251904D01*
X110089566Y-47347142D01*
X110137185Y-47394761D01*
X110232423Y-47442380D01*
X110327661Y-47442380D01*
X110422900Y-47394761D01*
X110470519Y-47347142D01*
X110518138Y-47251904D01*
X110565757Y-47061428D01*
X110565757Y-46823333D01*
X110518138Y-46632857D01*
X110470519Y-46537619D01*
X110422900Y-46490000D01*
X110327661Y-46442380D01*
X109660995Y-46442380D02*
X109041947Y-46442380D01*
X109375280Y-46823333D01*
X109232423Y-46823333D01*
X109137185Y-46870952D01*
X109089566Y-46918571D01*
X109041947Y-47013809D01*
X109041947Y-47251904D01*
X109089566Y-47347142D01*
X109137185Y-47394761D01*
X109232423Y-47442380D01*
X109518138Y-47442380D01*
X109613376Y-47394761D01*
X109660995Y-47347142D01*
X114680033Y-53843180D02*
X114680033Y-52843180D01*
X113632414Y-53843180D02*
X113965747Y-53366990D01*
X114203842Y-53843180D02*
X114203842Y-52843180D01*
X113822890Y-52843180D01*
X113727652Y-52890800D01*
X113680033Y-52938419D01*
X113632414Y-53033657D01*
X113632414Y-53176514D01*
X113680033Y-53271752D01*
X113727652Y-53319371D01*
X113822890Y-53366990D01*
X114203842Y-53366990D01*
X112870509Y-53319371D02*
X113203842Y-53319371D01*
X113203842Y-53843180D02*
X113203842Y-52843180D01*
X112727652Y-52843180D01*
X112441938Y-52843180D02*
X111775271Y-52843180D01*
X112203842Y-53843180D01*
X110870509Y-53843180D02*
X111441938Y-53843180D01*
X111156223Y-53843180D02*
X111156223Y-52843180D01*
X111251461Y-52986038D01*
X111346700Y-53081276D01*
X111441938Y-53128895D01*
X110251461Y-52843180D02*
X110156223Y-52843180D01*
X110060985Y-52890800D01*
X110013366Y-52938419D01*
X109965747Y-53033657D01*
X109918128Y-53224133D01*
X109918128Y-53462228D01*
X109965747Y-53652704D01*
X110013366Y-53747942D01*
X110060985Y-53795561D01*
X110156223Y-53843180D01*
X110251461Y-53843180D01*
X110346700Y-53795561D01*
X110394319Y-53747942D01*
X110441938Y-53652704D01*
X110489557Y-53462228D01*
X110489557Y-53224133D01*
X110441938Y-53033657D01*
X110394319Y-52938419D01*
X110346700Y-52890800D01*
X110251461Y-52843180D01*
X109584795Y-52843180D02*
X108965747Y-52843180D01*
X109299080Y-53224133D01*
X109156223Y-53224133D01*
X109060985Y-53271752D01*
X109013366Y-53319371D01*
X108965747Y-53414609D01*
X108965747Y-53652704D01*
X109013366Y-53747942D01*
X109060985Y-53795561D01*
X109156223Y-53843180D01*
X109441938Y-53843180D01*
X109537176Y-53795561D01*
X109584795Y-53747942D01*
D16*
X44440428Y-55441285D02*
X45964428Y-56457285D01*
X44440428Y-56457285D02*
X45964428Y-55441285D01*
X45964428Y-57836142D02*
X45964428Y-56965285D01*
X45964428Y-57400714D02*
X44440428Y-57400714D01*
X44658142Y-57255571D01*
X44803285Y-57110428D01*
X44875857Y-56965285D01*
M02*
